<?xml version="1.0" encoding="utf-8" standalone="no"?>
<!DOCTYPE svg PUBLIC "-//W3C//DTD SVG 1.1//EN"
  "http://www.w3.org/Graphics/SVG/1.1/DTD/svg11.dtd">
<svg xmlns:xlink="http://www.w3.org/1999/xlink" width="712.8pt" height="281.077969pt" viewBox="0 0 712.8 281.077969" xmlns="http://www.w3.org/2000/svg" version="1.1">
 <metadata>
  <rdf:RDF xmlns:dc="http://purl.org/dc/elements/1.1/" xmlns:cc="http://creativecommons.org/ns#" xmlns:rdf="http://www.w3.org/1999/02/22-rdf-syntax-ns#">
   <cc:Work>
    <dc:type rdf:resource="http://purl.org/dc/dcmitype/StillImage"/>
    <dc:date>2026-04-07T22:36:36.088072</dc:date>
    <dc:format>image/svg+xml</dc:format>
    <dc:creator>
     <cc:Agent>
      <dc:title>Matplotlib v3.10.8, https://matplotlib.org/</dc:title>
     </cc:Agent>
    </dc:creator>
   </cc:Work>
  </rdf:RDF>
 </metadata>
 <defs>
  <style type="text/css">*{stroke-linejoin: round; stroke-linecap: butt}</style>
 </defs>
 <g id="figure_1">
  <g id="patch_1">
   <path d="M 0 281.077969 
L 712.8 281.077969 
L 712.8 0 
L 0 0 
z
" style="fill: #ffffff"/>
  </g>
  <g id="axes_1">
   <g id="patch_2">
    <path d="M 38.945455 198.315469 
L 180.036364 198.315469 
L 180.036364 107.640469 
L 38.945455 107.640469 
z
" clip-path="url(#pf293fad09d)" style="fill: #1f77b4; opacity: 0.7; stroke: #000000; stroke-width: 1.5; stroke-linejoin: miter"/>
   </g>
   <g id="patch_3">
    <path d="M 180.036364 198.315469 
L 391.672727 198.315469 
L 391.672727 107.640469 
L 180.036364 107.640469 
z
" clip-path="url(#pf293fad09d)" style="fill: #ff7f0e; opacity: 0.7; stroke: #000000; stroke-width: 1.5; stroke-linejoin: miter"/>
   </g>
   <g id="patch_4">
    <path d="M 391.672727 198.315469 
L 497.490909 198.315469 
L 497.490909 107.640469 
L 391.672727 107.640469 
z
" clip-path="url(#pf293fad09d)" style="fill: #2ca02c; opacity: 0.7; stroke: #000000; stroke-width: 1.5; stroke-linejoin: miter"/>
   </g>
   <g id="patch_5">
    <path d="M 497.490909 198.315469 
L 673.854545 198.315469 
L 673.854545 107.640469 
L 497.490909 107.640469 
z
" clip-path="url(#pf293fad09d)" style="fill: #d62728; opacity: 0.7; stroke: #000000; stroke-width: 1.5; stroke-linejoin: miter"/>
   </g>
   <g id="text_1">
    <!-- Cell 1 -->
    <g transform="translate(95.353175 150.422391) scale(0.09 -0.09)">
     <defs>
      <path id="DejaVuSans-Bold-43" d="M 4288 256 
Q 3956 84 3597 -3 
Q 3238 -91 2847 -91 
Q 1681 -91 1000 561 
Q 319 1213 319 2328 
Q 319 3447 1000 4098 
Q 1681 4750 2847 4750 
Q 3238 4750 3597 4662 
Q 3956 4575 4288 4403 
L 4288 3438 
Q 3953 3666 3628 3772 
Q 3303 3878 2944 3878 
Q 2300 3878 1931 3465 
Q 1563 3053 1563 2328 
Q 1563 1606 1931 1193 
Q 2300 781 2944 781 
Q 3303 781 3628 887 
Q 3953 994 4288 1222 
L 4288 256 
z
" transform="scale(0.015625)"/>
      <path id="DejaVuSans-Bold-65" d="M 4031 1759 
L 4031 1441 
L 1416 1441 
Q 1456 1047 1700 850 
Q 1944 653 2381 653 
Q 2734 653 3104 758 
Q 3475 863 3866 1075 
L 3866 213 
Q 3469 63 3072 -14 
Q 2675 -91 2278 -91 
Q 1328 -91 801 392 
Q 275 875 275 1747 
Q 275 2603 792 3093 
Q 1309 3584 2216 3584 
Q 3041 3584 3536 3087 
Q 4031 2591 4031 1759 
z
M 2881 2131 
Q 2881 2450 2695 2645 
Q 2509 2841 2209 2841 
Q 1884 2841 1681 2658 
Q 1478 2475 1428 2131 
L 2881 2131 
z
" transform="scale(0.015625)"/>
      <path id="DejaVuSans-Bold-6c" d="M 538 4863 
L 1656 4863 
L 1656 0 
L 538 0 
L 538 4863 
z
" transform="scale(0.015625)"/>
      <path id="DejaVuSans-Bold-20" transform="scale(0.015625)"/>
      <path id="DejaVuSans-Bold-31" d="M 750 831 
L 1813 831 
L 1813 3847 
L 722 3622 
L 722 4441 
L 1806 4666 
L 2950 4666 
L 2950 831 
L 4013 831 
L 4013 0 
L 750 0 
L 750 831 
z
" transform="scale(0.015625)"/>
     </defs>
     <use xlink:href="#DejaVuSans-Bold-43"/>
     <use xlink:href="#DejaVuSans-Bold-65" transform="translate(73.388672 0)"/>
     <use xlink:href="#DejaVuSans-Bold-6c" transform="translate(141.210938 0)"/>
     <use xlink:href="#DejaVuSans-Bold-6c" transform="translate(175.488281 0)"/>
     <use xlink:href="#DejaVuSans-Bold-20" transform="translate(209.765625 0)"/>
     <use xlink:href="#DejaVuSans-Bold-31" transform="translate(244.580078 0)"/>
    </g>
    <!-- ($M_1=8$) -->
    <g transform="translate(90.950909 160.500422) scale(0.09 -0.09)">
     <defs>
      <path id="DejaVuSans-Bold-28" d="M 2413 -844 
L 1484 -844 
Q 1006 -72 778 623 
Q 550 1319 550 2003 
Q 550 2688 779 3389 
Q 1009 4091 1484 4856 
L 2413 4856 
Q 2013 4116 1813 3408 
Q 1613 2700 1613 2009 
Q 1613 1319 1811 609 
Q 2009 -100 2413 -844 
z
" transform="scale(0.015625)"/>
      <path id="DejaVuSans-Oblique-4d" d="M 1081 4666 
L 2028 4666 
L 2572 1522 
L 4378 4666 
L 5350 4666 
L 4441 0 
L 3828 0 
L 4622 4091 
L 2791 897 
L 2175 897 
L 1581 4103 
L 788 0 
L 172 0 
L 1081 4666 
z
" transform="scale(0.015625)"/>
      <path id="DejaVuSans-31" d="M 794 531 
L 1825 531 
L 1825 4091 
L 703 3866 
L 703 4441 
L 1819 4666 
L 2450 4666 
L 2450 531 
L 3481 531 
L 3481 0 
L 794 0 
L 794 531 
z
" transform="scale(0.015625)"/>
      <path id="DejaVuSans-3d" d="M 678 2906 
L 4684 2906 
L 4684 2381 
L 678 2381 
L 678 2906 
z
M 678 1631 
L 4684 1631 
L 4684 1100 
L 678 1100 
L 678 1631 
z
" transform="scale(0.015625)"/>
      <path id="DejaVuSans-38" d="M 2034 2216 
Q 1584 2216 1326 1975 
Q 1069 1734 1069 1313 
Q 1069 891 1326 650 
Q 1584 409 2034 409 
Q 2484 409 2743 651 
Q 3003 894 3003 1313 
Q 3003 1734 2745 1975 
Q 2488 2216 2034 2216 
z
M 1403 2484 
Q 997 2584 770 2862 
Q 544 3141 544 3541 
Q 544 4100 942 4425 
Q 1341 4750 2034 4750 
Q 2731 4750 3128 4425 
Q 3525 4100 3525 3541 
Q 3525 3141 3298 2862 
Q 3072 2584 2669 2484 
Q 3125 2378 3379 2068 
Q 3634 1759 3634 1313 
Q 3634 634 3220 271 
Q 2806 -91 2034 -91 
Q 1263 -91 848 271 
Q 434 634 434 1313 
Q 434 1759 690 2068 
Q 947 2378 1403 2484 
z
M 1172 3481 
Q 1172 3119 1398 2916 
Q 1625 2713 2034 2713 
Q 2441 2713 2670 2916 
Q 2900 3119 2900 3481 
Q 2900 3844 2670 4047 
Q 2441 4250 2034 4250 
Q 1625 4250 1398 4047 
Q 1172 3844 1172 3481 
z
" transform="scale(0.015625)"/>
      <path id="DejaVuSans-Bold-29" d="M 513 -844 
Q 913 -100 1113 609 
Q 1313 1319 1313 2009 
Q 1313 2700 1113 3408 
Q 913 4116 513 4856 
L 1441 4856 
Q 1916 4091 2145 3389 
Q 2375 2688 2375 2003 
Q 2375 1319 2147 623 
Q 1919 -72 1441 -844 
L 513 -844 
z
" transform="scale(0.015625)"/>
     </defs>
     <use xlink:href="#DejaVuSans-Bold-28" transform="translate(0 0.125)"/>
     <use xlink:href="#DejaVuSans-Oblique-4d" transform="translate(45.703125 0.125)"/>
     <use xlink:href="#DejaVuSans-31" transform="translate(131.982422 -16.28125) scale(0.7)"/>
     <use xlink:href="#DejaVuSans-3d" transform="translate(198.735352 0.125)"/>
     <use xlink:href="#DejaVuSans-38" transform="translate(302.006836 0.125)"/>
     <use xlink:href="#DejaVuSans-Bold-29" transform="translate(365.629883 0.125)"/>
    </g>
   </g>
   <g id="text_2">
    <!-- Cell 2 -->
    <g transform="translate(271.716811 150.422391) scale(0.09 -0.09)">
     <defs>
      <path id="DejaVuSans-Bold-32" d="M 1844 884 
L 3897 884 
L 3897 0 
L 506 0 
L 506 884 
L 2209 2388 
Q 2438 2594 2547 2791 
Q 2656 2988 2656 3200 
Q 2656 3528 2436 3728 
Q 2216 3928 1850 3928 
Q 1569 3928 1234 3808 
Q 900 3688 519 3450 
L 519 4475 
Q 925 4609 1322 4679 
Q 1719 4750 2100 4750 
Q 2938 4750 3402 4381 
Q 3866 4013 3866 3353 
Q 3866 2972 3669 2642 
Q 3472 2313 2841 1759 
L 1844 884 
z
" transform="scale(0.015625)"/>
     </defs>
     <use xlink:href="#DejaVuSans-Bold-43"/>
     <use xlink:href="#DejaVuSans-Bold-65" transform="translate(73.388672 0)"/>
     <use xlink:href="#DejaVuSans-Bold-6c" transform="translate(141.210938 0)"/>
     <use xlink:href="#DejaVuSans-Bold-6c" transform="translate(175.488281 0)"/>
     <use xlink:href="#DejaVuSans-Bold-20" transform="translate(209.765625 0)"/>
     <use xlink:href="#DejaVuSans-Bold-32" transform="translate(244.580078 0)"/>
    </g>
    <!-- ($M_2=12$) -->
    <g transform="translate(264.479545 160.500422) scale(0.09 -0.09)">
     <defs>
      <path id="DejaVuSans-32" d="M 1228 531 
L 3431 531 
L 3431 0 
L 469 0 
L 469 531 
Q 828 903 1448 1529 
Q 2069 2156 2228 2338 
Q 2531 2678 2651 2914 
Q 2772 3150 2772 3378 
Q 2772 3750 2511 3984 
Q 2250 4219 1831 4219 
Q 1534 4219 1204 4116 
Q 875 4013 500 3803 
L 500 4441 
Q 881 4594 1212 4672 
Q 1544 4750 1819 4750 
Q 2544 4750 2975 4387 
Q 3406 4025 3406 3419 
Q 3406 3131 3298 2873 
Q 3191 2616 2906 2266 
Q 2828 2175 2409 1742 
Q 1991 1309 1228 531 
z
" transform="scale(0.015625)"/>
     </defs>
     <use xlink:href="#DejaVuSans-Bold-28" transform="translate(0 0.125)"/>
     <use xlink:href="#DejaVuSans-Oblique-4d" transform="translate(45.703125 0.125)"/>
     <use xlink:href="#DejaVuSans-32" transform="translate(131.982422 -16.28125) scale(0.7)"/>
     <use xlink:href="#DejaVuSans-3d" transform="translate(198.735352 0.125)"/>
     <use xlink:href="#DejaVuSans-31" transform="translate(302.006836 0.125)"/>
     <use xlink:href="#DejaVuSans-32" transform="translate(365.629883 0.125)"/>
     <use xlink:href="#DejaVuSans-Bold-29" transform="translate(429.25293 0.125)"/>
    </g>
   </g>
   <g id="text_3">
    <!-- Cell 3 -->
    <g transform="translate(430.444084 150.422391) scale(0.09 -0.09)">
     <defs>
      <path id="DejaVuSans-Bold-33" d="M 2981 2516 
Q 3453 2394 3698 2092 
Q 3944 1791 3944 1325 
Q 3944 631 3412 270 
Q 2881 -91 1863 -91 
Q 1503 -91 1142 -33 
Q 781 25 428 141 
L 428 1069 
Q 766 900 1098 814 
Q 1431 728 1753 728 
Q 2231 728 2486 893 
Q 2741 1059 2741 1369 
Q 2741 1688 2480 1852 
Q 2219 2016 1709 2016 
L 1228 2016 
L 1228 2791 
L 1734 2791 
Q 2188 2791 2409 2933 
Q 2631 3075 2631 3366 
Q 2631 3634 2415 3781 
Q 2200 3928 1806 3928 
Q 1516 3928 1219 3862 
Q 922 3797 628 3669 
L 628 4550 
Q 984 4650 1334 4700 
Q 1684 4750 2022 4750 
Q 2931 4750 3382 4451 
Q 3834 4153 3834 3553 
Q 3834 3144 3618 2883 
Q 3403 2622 2981 2516 
z
" transform="scale(0.015625)"/>
     </defs>
     <use xlink:href="#DejaVuSans-Bold-43"/>
     <use xlink:href="#DejaVuSans-Bold-65" transform="translate(73.388672 0)"/>
     <use xlink:href="#DejaVuSans-Bold-6c" transform="translate(141.210938 0)"/>
     <use xlink:href="#DejaVuSans-Bold-6c" transform="translate(175.488281 0)"/>
     <use xlink:href="#DejaVuSans-Bold-20" transform="translate(209.765625 0)"/>
     <use xlink:href="#DejaVuSans-Bold-33" transform="translate(244.580078 0)"/>
    </g>
    <!-- ($M_3=6$) -->
    <g transform="translate(426.041818 160.500422) scale(0.09 -0.09)">
     <defs>
      <path id="DejaVuSans-33" d="M 2597 2516 
Q 3050 2419 3304 2112 
Q 3559 1806 3559 1356 
Q 3559 666 3084 287 
Q 2609 -91 1734 -91 
Q 1441 -91 1130 -33 
Q 819 25 488 141 
L 488 750 
Q 750 597 1062 519 
Q 1375 441 1716 441 
Q 2309 441 2620 675 
Q 2931 909 2931 1356 
Q 2931 1769 2642 2001 
Q 2353 2234 1838 2234 
L 1294 2234 
L 1294 2753 
L 1863 2753 
Q 2328 2753 2575 2939 
Q 2822 3125 2822 3475 
Q 2822 3834 2567 4026 
Q 2313 4219 1838 4219 
Q 1578 4219 1281 4162 
Q 984 4106 628 3988 
L 628 4550 
Q 988 4650 1302 4700 
Q 1616 4750 1894 4750 
Q 2613 4750 3031 4423 
Q 3450 4097 3450 3541 
Q 3450 3153 3228 2886 
Q 3006 2619 2597 2516 
z
" transform="scale(0.015625)"/>
      <path id="DejaVuSans-36" d="M 2113 2584 
Q 1688 2584 1439 2293 
Q 1191 2003 1191 1497 
Q 1191 994 1439 701 
Q 1688 409 2113 409 
Q 2538 409 2786 701 
Q 3034 994 3034 1497 
Q 3034 2003 2786 2293 
Q 2538 2584 2113 2584 
z
M 3366 4563 
L 3366 3988 
Q 3128 4100 2886 4159 
Q 2644 4219 2406 4219 
Q 1781 4219 1451 3797 
Q 1122 3375 1075 2522 
Q 1259 2794 1537 2939 
Q 1816 3084 2150 3084 
Q 2853 3084 3261 2657 
Q 3669 2231 3669 1497 
Q 3669 778 3244 343 
Q 2819 -91 2113 -91 
Q 1303 -91 875 529 
Q 447 1150 447 2328 
Q 447 3434 972 4092 
Q 1497 4750 2381 4750 
Q 2619 4750 2861 4703 
Q 3103 4656 3366 4563 
z
" transform="scale(0.015625)"/>
     </defs>
     <use xlink:href="#DejaVuSans-Bold-28" transform="translate(0 0.125)"/>
     <use xlink:href="#DejaVuSans-Oblique-4d" transform="translate(45.703125 0.125)"/>
     <use xlink:href="#DejaVuSans-33" transform="translate(131.982422 -16.28125) scale(0.7)"/>
     <use xlink:href="#DejaVuSans-3d" transform="translate(198.735352 0.125)"/>
     <use xlink:href="#DejaVuSans-36" transform="translate(302.006836 0.125)"/>
     <use xlink:href="#DejaVuSans-Bold-29" transform="translate(365.629883 0.125)"/>
    </g>
   </g>
   <g id="text_4">
    <!-- Cell 4 -->
    <g transform="translate(571.534993 150.422391) scale(0.09 -0.09)">
     <defs>
      <path id="DejaVuSans-Bold-34" d="M 2356 3675 
L 1038 1722 
L 2356 1722 
L 2356 3675 
z
M 2156 4666 
L 3494 4666 
L 3494 1722 
L 4159 1722 
L 4159 850 
L 3494 850 
L 3494 0 
L 2356 0 
L 2356 850 
L 288 850 
L 288 1881 
L 2156 4666 
z
" transform="scale(0.015625)"/>
     </defs>
     <use xlink:href="#DejaVuSans-Bold-43"/>
     <use xlink:href="#DejaVuSans-Bold-65" transform="translate(73.388672 0)"/>
     <use xlink:href="#DejaVuSans-Bold-6c" transform="translate(141.210938 0)"/>
     <use xlink:href="#DejaVuSans-Bold-6c" transform="translate(175.488281 0)"/>
     <use xlink:href="#DejaVuSans-Bold-20" transform="translate(209.765625 0)"/>
     <use xlink:href="#DejaVuSans-Bold-34" transform="translate(244.580078 0)"/>
    </g>
    <!-- ($M_4=10$) -->
    <g transform="translate(564.297727 160.500422) scale(0.09 -0.09)">
     <defs>
      <path id="DejaVuSans-34" d="M 2419 4116 
L 825 1625 
L 2419 1625 
L 2419 4116 
z
M 2253 4666 
L 3047 4666 
L 3047 1625 
L 3713 1625 
L 3713 1100 
L 3047 1100 
L 3047 0 
L 2419 0 
L 2419 1100 
L 313 1100 
L 313 1709 
L 2253 4666 
z
" transform="scale(0.015625)"/>
      <path id="DejaVuSans-30" d="M 2034 4250 
Q 1547 4250 1301 3770 
Q 1056 3291 1056 2328 
Q 1056 1369 1301 889 
Q 1547 409 2034 409 
Q 2525 409 2770 889 
Q 3016 1369 3016 2328 
Q 3016 3291 2770 3770 
Q 2525 4250 2034 4250 
z
M 2034 4750 
Q 2819 4750 3233 4129 
Q 3647 3509 3647 2328 
Q 3647 1150 3233 529 
Q 2819 -91 2034 -91 
Q 1250 -91 836 529 
Q 422 1150 422 2328 
Q 422 3509 836 4129 
Q 1250 4750 2034 4750 
z
" transform="scale(0.015625)"/>
     </defs>
     <use xlink:href="#DejaVuSans-Bold-28" transform="translate(0 0.125)"/>
     <use xlink:href="#DejaVuSans-Oblique-4d" transform="translate(45.703125 0.125)"/>
     <use xlink:href="#DejaVuSans-34" transform="translate(131.982422 -16.28125) scale(0.7)"/>
     <use xlink:href="#DejaVuSans-3d" transform="translate(198.735352 0.125)"/>
     <use xlink:href="#DejaVuSans-31" transform="translate(302.006836 0.125)"/>
     <use xlink:href="#DejaVuSans-30" transform="translate(365.629883 0.125)"/>
     <use xlink:href="#DejaVuSans-Bold-29" transform="translate(429.25293 0.125)"/>
    </g>
   </g>
   <g id="patch_6">
    <path d="M 670.176934 213.427969 
Q 356.401677 213.427969 42.62642 213.427969 
" style="fill: none; stroke: #000000; stroke-width: 1.5; stroke-linecap: round"/>
    <path d="M 666.176934 211.427969 
L 670.176934 213.427969 
L 666.176934 215.427969 
" style="fill: none; stroke: #000000; stroke-width: 1.5; stroke-linecap: round"/>
    <path d="M 46.62642 215.427969 
L 42.62642 213.427969 
L 46.62642 211.427969 
" style="fill: none; stroke: #000000; stroke-width: 1.5; stroke-linecap: round"/>
   </g>
   <g id="text_5">
    <!-- $M_{\mathrm{total}} = 36$ stacked observations -->
    <g transform="translate(268.565 234.585469) scale(0.11 -0.11)">
     <defs>
      <path id="DejaVuSans-74" d="M 1172 4494 
L 1172 3500 
L 2356 3500 
L 2356 3053 
L 1172 3053 
L 1172 1153 
Q 1172 725 1289 603 
Q 1406 481 1766 481 
L 2356 481 
L 2356 0 
L 1766 0 
Q 1100 0 847 248 
Q 594 497 594 1153 
L 594 3053 
L 172 3053 
L 172 3500 
L 594 3500 
L 594 4494 
L 1172 4494 
z
" transform="scale(0.015625)"/>
      <path id="DejaVuSans-6f" d="M 1959 3097 
Q 1497 3097 1228 2736 
Q 959 2375 959 1747 
Q 959 1119 1226 758 
Q 1494 397 1959 397 
Q 2419 397 2687 759 
Q 2956 1122 2956 1747 
Q 2956 2369 2687 2733 
Q 2419 3097 1959 3097 
z
M 1959 3584 
Q 2709 3584 3137 3096 
Q 3566 2609 3566 1747 
Q 3566 888 3137 398 
Q 2709 -91 1959 -91 
Q 1206 -91 779 398 
Q 353 888 353 1747 
Q 353 2609 779 3096 
Q 1206 3584 1959 3584 
z
" transform="scale(0.015625)"/>
      <path id="DejaVuSans-61" d="M 2194 1759 
Q 1497 1759 1228 1600 
Q 959 1441 959 1056 
Q 959 750 1161 570 
Q 1363 391 1709 391 
Q 2188 391 2477 730 
Q 2766 1069 2766 1631 
L 2766 1759 
L 2194 1759 
z
M 3341 1997 
L 3341 0 
L 2766 0 
L 2766 531 
Q 2569 213 2275 61 
Q 1981 -91 1556 -91 
Q 1019 -91 701 211 
Q 384 513 384 1019 
Q 384 1609 779 1909 
Q 1175 2209 1959 2209 
L 2766 2209 
L 2766 2266 
Q 2766 2663 2505 2880 
Q 2244 3097 1772 3097 
Q 1472 3097 1187 3025 
Q 903 2953 641 2809 
L 641 3341 
Q 956 3463 1253 3523 
Q 1550 3584 1831 3584 
Q 2591 3584 2966 3190 
Q 3341 2797 3341 1997 
z
" transform="scale(0.015625)"/>
      <path id="DejaVuSans-6c" d="M 603 4863 
L 1178 4863 
L 1178 0 
L 603 0 
L 603 4863 
z
" transform="scale(0.015625)"/>
      <path id="DejaVuSans-20" transform="scale(0.015625)"/>
      <path id="DejaVuSans-73" d="M 2834 3397 
L 2834 2853 
Q 2591 2978 2328 3040 
Q 2066 3103 1784 3103 
Q 1356 3103 1142 2972 
Q 928 2841 928 2578 
Q 928 2378 1081 2264 
Q 1234 2150 1697 2047 
L 1894 2003 
Q 2506 1872 2764 1633 
Q 3022 1394 3022 966 
Q 3022 478 2636 193 
Q 2250 -91 1575 -91 
Q 1294 -91 989 -36 
Q 684 19 347 128 
L 347 722 
Q 666 556 975 473 
Q 1284 391 1588 391 
Q 1994 391 2212 530 
Q 2431 669 2431 922 
Q 2431 1156 2273 1281 
Q 2116 1406 1581 1522 
L 1381 1569 
Q 847 1681 609 1914 
Q 372 2147 372 2553 
Q 372 3047 722 3315 
Q 1072 3584 1716 3584 
Q 2034 3584 2315 3537 
Q 2597 3491 2834 3397 
z
" transform="scale(0.015625)"/>
      <path id="DejaVuSans-63" d="M 3122 3366 
L 3122 2828 
Q 2878 2963 2633 3030 
Q 2388 3097 2138 3097 
Q 1578 3097 1268 2742 
Q 959 2388 959 1747 
Q 959 1106 1268 751 
Q 1578 397 2138 397 
Q 2388 397 2633 464 
Q 2878 531 3122 666 
L 3122 134 
Q 2881 22 2623 -34 
Q 2366 -91 2075 -91 
Q 1284 -91 818 406 
Q 353 903 353 1747 
Q 353 2603 823 3093 
Q 1294 3584 2113 3584 
Q 2378 3584 2631 3529 
Q 2884 3475 3122 3366 
z
" transform="scale(0.015625)"/>
      <path id="DejaVuSans-6b" d="M 581 4863 
L 1159 4863 
L 1159 1991 
L 2875 3500 
L 3609 3500 
L 1753 1863 
L 3688 0 
L 2938 0 
L 1159 1709 
L 1159 0 
L 581 0 
L 581 4863 
z
" transform="scale(0.015625)"/>
      <path id="DejaVuSans-65" d="M 3597 1894 
L 3597 1613 
L 953 1613 
Q 991 1019 1311 708 
Q 1631 397 2203 397 
Q 2534 397 2845 478 
Q 3156 559 3463 722 
L 3463 178 
Q 3153 47 2828 -22 
Q 2503 -91 2169 -91 
Q 1331 -91 842 396 
Q 353 884 353 1716 
Q 353 2575 817 3079 
Q 1281 3584 2069 3584 
Q 2775 3584 3186 3129 
Q 3597 2675 3597 1894 
z
M 3022 2063 
Q 3016 2534 2758 2815 
Q 2500 3097 2075 3097 
Q 1594 3097 1305 2825 
Q 1016 2553 972 2059 
L 3022 2063 
z
" transform="scale(0.015625)"/>
      <path id="DejaVuSans-64" d="M 2906 2969 
L 2906 4863 
L 3481 4863 
L 3481 0 
L 2906 0 
L 2906 525 
Q 2725 213 2448 61 
Q 2172 -91 1784 -91 
Q 1150 -91 751 415 
Q 353 922 353 1747 
Q 353 2572 751 3078 
Q 1150 3584 1784 3584 
Q 2172 3584 2448 3432 
Q 2725 3281 2906 2969 
z
M 947 1747 
Q 947 1113 1208 752 
Q 1469 391 1925 391 
Q 2381 391 2643 752 
Q 2906 1113 2906 1747 
Q 2906 2381 2643 2742 
Q 2381 3103 1925 3103 
Q 1469 3103 1208 2742 
Q 947 2381 947 1747 
z
" transform="scale(0.015625)"/>
      <path id="DejaVuSans-62" d="M 3116 1747 
Q 3116 2381 2855 2742 
Q 2594 3103 2138 3103 
Q 1681 3103 1420 2742 
Q 1159 2381 1159 1747 
Q 1159 1113 1420 752 
Q 1681 391 2138 391 
Q 2594 391 2855 752 
Q 3116 1113 3116 1747 
z
M 1159 2969 
Q 1341 3281 1617 3432 
Q 1894 3584 2278 3584 
Q 2916 3584 3314 3078 
Q 3713 2572 3713 1747 
Q 3713 922 3314 415 
Q 2916 -91 2278 -91 
Q 1894 -91 1617 61 
Q 1341 213 1159 525 
L 1159 0 
L 581 0 
L 581 4863 
L 1159 4863 
L 1159 2969 
z
" transform="scale(0.015625)"/>
      <path id="DejaVuSans-72" d="M 2631 2963 
Q 2534 3019 2420 3045 
Q 2306 3072 2169 3072 
Q 1681 3072 1420 2755 
Q 1159 2438 1159 1844 
L 1159 0 
L 581 0 
L 581 3500 
L 1159 3500 
L 1159 2956 
Q 1341 3275 1631 3429 
Q 1922 3584 2338 3584 
Q 2397 3584 2469 3576 
Q 2541 3569 2628 3553 
L 2631 2963 
z
" transform="scale(0.015625)"/>
      <path id="DejaVuSans-76" d="M 191 3500 
L 800 3500 
L 1894 563 
L 2988 3500 
L 3597 3500 
L 2284 0 
L 1503 0 
L 191 3500 
z
" transform="scale(0.015625)"/>
      <path id="DejaVuSans-69" d="M 603 3500 
L 1178 3500 
L 1178 0 
L 603 0 
L 603 3500 
z
M 603 4863 
L 1178 4863 
L 1178 4134 
L 603 4134 
L 603 4863 
z
" transform="scale(0.015625)"/>
      <path id="DejaVuSans-6e" d="M 3513 2113 
L 3513 0 
L 2938 0 
L 2938 2094 
Q 2938 2591 2744 2837 
Q 2550 3084 2163 3084 
Q 1697 3084 1428 2787 
Q 1159 2491 1159 1978 
L 1159 0 
L 581 0 
L 581 3500 
L 1159 3500 
L 1159 2956 
Q 1366 3272 1645 3428 
Q 1925 3584 2291 3584 
Q 2894 3584 3203 3211 
Q 3513 2838 3513 2113 
z
" transform="scale(0.015625)"/>
     </defs>
     <use xlink:href="#DejaVuSans-Oblique-4d" transform="translate(0 0.015625)"/>
     <use xlink:href="#DejaVuSans-74" transform="translate(86.279297 -16.390625) scale(0.7)"/>
     <use xlink:href="#DejaVuSans-6f" transform="translate(113.725586 -16.390625) scale(0.7)"/>
     <use xlink:href="#DejaVuSans-74" transform="translate(156.552734 -16.390625) scale(0.7)"/>
     <use xlink:href="#DejaVuSans-61" transform="translate(183.999023 -16.390625) scale(0.7)"/>
     <use xlink:href="#DejaVuSans-6c" transform="translate(226.894531 -16.390625) scale(0.7)"/>
     <use xlink:href="#DejaVuSans-3d" transform="translate(268.55957 0.015625)"/>
     <use xlink:href="#DejaVuSans-33" transform="translate(371.831055 0.015625)"/>
     <use xlink:href="#DejaVuSans-36" transform="translate(435.454102 0.015625)"/>
     <use xlink:href="#DejaVuSans-20" transform="translate(499.077148 0.015625)"/>
     <use xlink:href="#DejaVuSans-73" transform="translate(530.864258 0.015625)"/>
     <use xlink:href="#DejaVuSans-74" transform="translate(582.963867 0.015625)"/>
     <use xlink:href="#DejaVuSans-61" transform="translate(622.172852 0.015625)"/>
     <use xlink:href="#DejaVuSans-63" transform="translate(683.452148 0.015625)"/>
     <use xlink:href="#DejaVuSans-6b" transform="translate(738.432617 0.015625)"/>
     <use xlink:href="#DejaVuSans-65" transform="translate(796.342773 0.015625)"/>
     <use xlink:href="#DejaVuSans-64" transform="translate(857.866211 0.015625)"/>
     <use xlink:href="#DejaVuSans-20" transform="translate(921.342773 0.015625)"/>
     <use xlink:href="#DejaVuSans-6f" transform="translate(953.129883 0.015625)"/>
     <use xlink:href="#DejaVuSans-62" transform="translate(1014.311523 0.015625)"/>
     <use xlink:href="#DejaVuSans-73" transform="translate(1077.788086 0.015625)"/>
     <use xlink:href="#DejaVuSans-65" transform="translate(1129.887695 0.015625)"/>
     <use xlink:href="#DejaVuSans-72" transform="translate(1191.411133 0.015625)"/>
     <use xlink:href="#DejaVuSans-76" transform="translate(1232.524414 0.015625)"/>
     <use xlink:href="#DejaVuSans-61" transform="translate(1291.704102 0.015625)"/>
     <use xlink:href="#DejaVuSans-74" transform="translate(1352.983398 0.015625)"/>
     <use xlink:href="#DejaVuSans-69" transform="translate(1392.192383 0.015625)"/>
     <use xlink:href="#DejaVuSans-6f" transform="translate(1419.975586 0.015625)"/>
     <use xlink:href="#DejaVuSans-6e" transform="translate(1481.157227 0.015625)"/>
     <use xlink:href="#DejaVuSans-73" transform="translate(1544.536133 0.015625)"/>
    </g>
   </g>
   <g id="text_6">
    <g id="patch_7">
     <path d="M 155.85 76.450156 
L 556.95 76.450156 
Q 559.95 76.450156 559.95 73.450156 
L 559.95 63.718906 
Q 559.95 60.718906 556.95 60.718906 
L 155.85 60.718906 
Q 152.85 60.718906 152.85 63.718906 
L 152.85 73.450156 
Q 152.85 76.450156 155.85 76.450156 
z
" style="fill: #ffffe0; stroke: #808080; stroke-linejoin: miter"/>
    </g>
    <!-- cell[$m$] = [1, 1, ..., 1, 2, 2, ..., 2, 3, 3, ..., 3, 4, 4, ..., 4] -->
    <g transform="translate(155.85 71.370469) scale(0.1 -0.1)">
     <defs>
      <path id="DejaVuSansMono-63" d="M 3316 178 
Q 3084 44 2839 -23 
Q 2594 -91 2338 -91 
Q 1525 -91 1067 396 
Q 609 884 609 1747 
Q 609 2609 1067 3096 
Q 1525 3584 2338 3584 
Q 2591 3584 2831 3518 
Q 3072 3453 3316 3316 
L 3316 2713 
Q 3088 2916 2858 3006 
Q 2628 3097 2338 3097 
Q 1797 3097 1506 2747 
Q 1216 2397 1216 1747 
Q 1216 1100 1508 748 
Q 1800 397 2338 397 
Q 2638 397 2875 489 
Q 3113 581 3316 775 
L 3316 178 
z
" transform="scale(0.015625)"/>
      <path id="DejaVuSansMono-65" d="M 3475 1894 
L 3475 1613 
L 984 1613 
L 984 1594 
Q 984 1022 1282 709 
Q 1581 397 2125 397 
Q 2400 397 2700 484 
Q 3000 572 3341 750 
L 3341 178 
Q 3013 44 2708 -23 
Q 2403 -91 2119 -91 
Q 1303 -91 843 398 
Q 384 888 384 1747 
Q 384 2584 834 3084 
Q 1284 3584 2034 3584 
Q 2703 3584 3089 3131 
Q 3475 2678 3475 1894 
z
M 2900 2063 
Q 2888 2569 2661 2833 
Q 2434 3097 2009 3097 
Q 1594 3097 1325 2822 
Q 1056 2547 1006 2059 
L 2900 2063 
z
" transform="scale(0.015625)"/>
      <path id="DejaVuSansMono-6c" d="M 1997 1269 
Q 1997 881 2139 684 
Q 2281 488 2559 488 
L 3231 488 
L 3231 0 
L 2503 0 
Q 1988 0 1705 331 
Q 1422 663 1422 1269 
L 1422 4447 
L 500 4447 
L 500 4897 
L 1997 4897 
L 1997 1269 
z
" transform="scale(0.015625)"/>
      <path id="DejaVuSansMono-5b" d="M 1447 4863 
L 2772 4863 
L 2772 4416 
L 2022 4416 
L 2022 -397 
L 2772 -397 
L 2772 -844 
L 1447 -844 
L 1447 4863 
z
" transform="scale(0.015625)"/>
      <path id="DejaVuSans-Oblique-6d" d="M 5747 2113 
L 5338 0 
L 4763 0 
L 5166 2094 
Q 5191 2228 5203 2325 
Q 5216 2422 5216 2491 
Q 5216 2772 5059 2928 
Q 4903 3084 4622 3084 
Q 4203 3084 3875 2770 
Q 3547 2456 3450 1953 
L 3066 0 
L 2491 0 
L 2900 2094 
Q 2925 2209 2937 2307 
Q 2950 2406 2950 2484 
Q 2950 2769 2794 2926 
Q 2638 3084 2363 3084 
Q 1938 3084 1609 2770 
Q 1281 2456 1184 1953 
L 800 0 
L 225 0 
L 909 3500 
L 1484 3500 
L 1375 2956 
Q 1609 3263 1923 3423 
Q 2238 3584 2597 3584 
Q 2978 3584 3223 3384 
Q 3469 3184 3519 2828 
Q 3781 3197 4126 3390 
Q 4472 3584 4856 3584 
Q 5306 3584 5551 3325 
Q 5797 3066 5797 2591 
Q 5797 2488 5784 2364 
Q 5772 2241 5747 2113 
z
" transform="scale(0.015625)"/>
      <path id="DejaVuSansMono-5d" d="M 2406 4863 
L 2406 -844 
L 1081 -844 
L 1081 -397 
L 1831 -397 
L 1831 4416 
L 1081 4416 
L 1081 4863 
L 2406 4863 
z
" transform="scale(0.015625)"/>
      <path id="DejaVuSansMono-20" transform="scale(0.015625)"/>
      <path id="DejaVuSansMono-3d" d="M 275 1638 
L 3578 1638 
L 3578 1100 
L 275 1100 
L 275 1638 
z
M 275 2906 
L 3578 2906 
L 3578 2375 
L 275 2375 
L 275 2906 
z
" transform="scale(0.015625)"/>
      <path id="DejaVuSansMono-31" d="M 844 531 
L 1825 531 
L 1825 4097 
L 769 3859 
L 769 4434 
L 1819 4666 
L 2450 4666 
L 2450 531 
L 3419 531 
L 3419 0 
L 844 0 
L 844 531 
z
" transform="scale(0.015625)"/>
      <path id="DejaVuSansMono-2c" d="M 1569 947 
L 2356 947 
L 2356 300 
L 1741 -897 
L 1259 -897 
L 1569 300 
L 1569 947 
z
" transform="scale(0.015625)"/>
      <path id="DejaVuSansMono-2e" d="M 1528 953 
L 2316 953 
L 2316 0 
L 1528 0 
L 1528 953 
z
" transform="scale(0.015625)"/>
      <path id="DejaVuSansMono-32" d="M 1166 531 
L 3309 531 
L 3309 0 
L 475 0 
L 475 531 
Q 1059 1147 1496 1619 
Q 1934 2091 2100 2284 
Q 2413 2666 2522 2902 
Q 2631 3138 2631 3384 
Q 2631 3775 2401 3997 
Q 2172 4219 1772 4219 
Q 1488 4219 1175 4116 
Q 863 4013 513 3803 
L 513 4441 
Q 834 4594 1145 4672 
Q 1456 4750 1759 4750 
Q 2444 4750 2861 4386 
Q 3278 4022 3278 3431 
Q 3278 3131 3139 2831 
Q 3000 2531 2688 2169 
Q 2513 1966 2180 1606 
Q 1847 1247 1166 531 
z
" transform="scale(0.015625)"/>
      <path id="DejaVuSansMono-33" d="M 2425 2497 
Q 2884 2375 3128 2064 
Q 3372 1753 3372 1288 
Q 3372 644 2939 276 
Q 2506 -91 1741 -91 
Q 1419 -91 1084 -31 
Q 750 28 428 141 
L 428 769 
Q 747 603 1056 522 
Q 1366 441 1672 441 
Q 2191 441 2469 675 
Q 2747 909 2747 1350 
Q 2747 1756 2469 1995 
Q 2191 2234 1716 2234 
L 1234 2234 
L 1234 2753 
L 1716 2753 
Q 2150 2753 2394 2943 
Q 2638 3134 2638 3475 
Q 2638 3834 2411 4026 
Q 2184 4219 1766 4219 
Q 1488 4219 1191 4156 
Q 894 4094 569 3969 
L 569 4550 
Q 947 4650 1242 4700 
Q 1538 4750 1766 4750 
Q 2447 4750 2855 4408 
Q 3263 4066 3263 3500 
Q 3263 3116 3048 2859 
Q 2834 2603 2425 2497 
z
" transform="scale(0.015625)"/>
      <path id="DejaVuSansMono-34" d="M 2297 4091 
L 825 1625 
L 2297 1625 
L 2297 4091 
z
M 2194 4666 
L 2925 4666 
L 2925 1625 
L 3547 1625 
L 3547 1113 
L 2925 1113 
L 2925 0 
L 2297 0 
L 2297 1113 
L 319 1113 
L 319 1709 
L 2194 4666 
z
" transform="scale(0.015625)"/>
     </defs>
     <use xlink:href="#DejaVuSansMono-63" transform="translate(0 0.484375)"/>
     <use xlink:href="#DejaVuSansMono-65" transform="translate(60.205078 0.484375)"/>
     <use xlink:href="#DejaVuSansMono-6c" transform="translate(120.410156 0.484375)"/>
     <use xlink:href="#DejaVuSansMono-6c" transform="translate(180.615234 0.484375)"/>
     <use xlink:href="#DejaVuSansMono-5b" transform="translate(240.820312 0.484375)"/>
     <use xlink:href="#DejaVuSans-Oblique-6d" transform="translate(301.025391 0.484375)"/>
     <use xlink:href="#DejaVuSansMono-5d" transform="translate(398.4375 0.484375)"/>
     <use xlink:href="#DejaVuSansMono-20" transform="translate(458.642578 0.484375)"/>
     <use xlink:href="#DejaVuSansMono-3d" transform="translate(518.847656 0.484375)"/>
     <use xlink:href="#DejaVuSansMono-20" transform="translate(579.052734 0.484375)"/>
     <use xlink:href="#DejaVuSansMono-5b" transform="translate(639.257812 0.484375)"/>
     <use xlink:href="#DejaVuSansMono-31" transform="translate(699.462891 0.484375)"/>
     <use xlink:href="#DejaVuSansMono-2c" transform="translate(759.667969 0.484375)"/>
     <use xlink:href="#DejaVuSansMono-20" transform="translate(819.873047 0.484375)"/>
     <use xlink:href="#DejaVuSansMono-31" transform="translate(880.078125 0.484375)"/>
     <use xlink:href="#DejaVuSansMono-2c" transform="translate(940.283203 0.484375)"/>
     <use xlink:href="#DejaVuSansMono-20" transform="translate(1000.488281 0.484375)"/>
     <use xlink:href="#DejaVuSansMono-2e" transform="translate(1060.693359 0.484375)"/>
     <use xlink:href="#DejaVuSansMono-2e" transform="translate(1120.898438 0.484375)"/>
     <use xlink:href="#DejaVuSansMono-2e" transform="translate(1181.103516 0.484375)"/>
     <use xlink:href="#DejaVuSansMono-2c" transform="translate(1241.308594 0.484375)"/>
     <use xlink:href="#DejaVuSansMono-20" transform="translate(1301.513672 0.484375)"/>
     <use xlink:href="#DejaVuSansMono-31" transform="translate(1361.71875 0.484375)"/>
     <use xlink:href="#DejaVuSansMono-2c" transform="translate(1421.923828 0.484375)"/>
     <use xlink:href="#DejaVuSansMono-20" transform="translate(1482.128906 0.484375)"/>
     <use xlink:href="#DejaVuSansMono-32" transform="translate(1542.333984 0.484375)"/>
     <use xlink:href="#DejaVuSansMono-2c" transform="translate(1602.539062 0.484375)"/>
     <use xlink:href="#DejaVuSansMono-20" transform="translate(1662.744141 0.484375)"/>
     <use xlink:href="#DejaVuSansMono-32" transform="translate(1722.949219 0.484375)"/>
     <use xlink:href="#DejaVuSansMono-2c" transform="translate(1783.154297 0.484375)"/>
     <use xlink:href="#DejaVuSansMono-20" transform="translate(1843.359375 0.484375)"/>
     <use xlink:href="#DejaVuSansMono-2e" transform="translate(1903.564453 0.484375)"/>
     <use xlink:href="#DejaVuSansMono-2e" transform="translate(1963.769531 0.484375)"/>
     <use xlink:href="#DejaVuSansMono-2e" transform="translate(2023.974609 0.484375)"/>
     <use xlink:href="#DejaVuSansMono-2c" transform="translate(2084.179688 0.484375)"/>
     <use xlink:href="#DejaVuSansMono-20" transform="translate(2144.384766 0.484375)"/>
     <use xlink:href="#DejaVuSansMono-32" transform="translate(2204.589844 0.484375)"/>
     <use xlink:href="#DejaVuSansMono-2c" transform="translate(2264.794922 0.484375)"/>
     <use xlink:href="#DejaVuSansMono-20" transform="translate(2325 0.484375)"/>
     <use xlink:href="#DejaVuSansMono-33" transform="translate(2385.205078 0.484375)"/>
     <use xlink:href="#DejaVuSansMono-2c" transform="translate(2445.410156 0.484375)"/>
     <use xlink:href="#DejaVuSansMono-20" transform="translate(2505.615234 0.484375)"/>
     <use xlink:href="#DejaVuSansMono-33" transform="translate(2565.820312 0.484375)"/>
     <use xlink:href="#DejaVuSansMono-2c" transform="translate(2626.025391 0.484375)"/>
     <use xlink:href="#DejaVuSansMono-20" transform="translate(2686.230469 0.484375)"/>
     <use xlink:href="#DejaVuSansMono-2e" transform="translate(2746.435547 0.484375)"/>
     <use xlink:href="#DejaVuSansMono-2e" transform="translate(2806.640625 0.484375)"/>
     <use xlink:href="#DejaVuSansMono-2e" transform="translate(2866.845703 0.484375)"/>
     <use xlink:href="#DejaVuSansMono-2c" transform="translate(2927.050781 0.484375)"/>
     <use xlink:href="#DejaVuSansMono-20" transform="translate(2987.255859 0.484375)"/>
     <use xlink:href="#DejaVuSansMono-33" transform="translate(3047.460938 0.484375)"/>
     <use xlink:href="#DejaVuSansMono-2c" transform="translate(3107.666016 0.484375)"/>
     <use xlink:href="#DejaVuSansMono-20" transform="translate(3167.871094 0.484375)"/>
     <use xlink:href="#DejaVuSansMono-34" transform="translate(3228.076172 0.484375)"/>
     <use xlink:href="#DejaVuSansMono-2c" transform="translate(3288.28125 0.484375)"/>
     <use xlink:href="#DejaVuSansMono-20" transform="translate(3348.486328 0.484375)"/>
     <use xlink:href="#DejaVuSansMono-34" transform="translate(3408.691406 0.484375)"/>
     <use xlink:href="#DejaVuSansMono-2c" transform="translate(3468.896484 0.484375)"/>
     <use xlink:href="#DejaVuSansMono-20" transform="translate(3529.101562 0.484375)"/>
     <use xlink:href="#DejaVuSansMono-2e" transform="translate(3589.306641 0.484375)"/>
     <use xlink:href="#DejaVuSansMono-2e" transform="translate(3649.511719 0.484375)"/>
     <use xlink:href="#DejaVuSansMono-2e" transform="translate(3709.716797 0.484375)"/>
     <use xlink:href="#DejaVuSansMono-2c" transform="translate(3769.921875 0.484375)"/>
     <use xlink:href="#DejaVuSansMono-20" transform="translate(3830.126953 0.484375)"/>
     <use xlink:href="#DejaVuSansMono-34" transform="translate(3890.332031 0.484375)"/>
     <use xlink:href="#DejaVuSansMono-5d" transform="translate(3950.537109 0.484375)"/>
    </g>
   </g>
   <g id="patch_8">
    <path d="M 356.4 96.574695 
Q 356.4 95.553134 356.4 95.649606 
" style="fill: none; stroke: #808080; stroke-linecap: round"/>
    <path d="M 354.4 99.649606 
L 356.4 95.649606 
L 358.4 99.649606 
" style="fill: none; stroke: #808080; stroke-linecap: round"/>
   </g>
   <g id="patch_9">
    <path d="M 109.490909 100.569767 
Q 109.490909 103.105622 109.490909 103.964425 
" style="fill: none; stroke: #1f77b4; stroke-width: 1.5; stroke-linecap: round"/>
    <path d="M 111.490909 99.964425 
L 109.490909 103.964425 
L 107.490909 99.964425 
" style="fill: none; stroke: #1f77b4; stroke-width: 1.5; stroke-linecap: round"/>
   </g>
   <g id="patch_10">
    <path d="M 285.854545 100.569767 
Q 285.854545 103.105622 285.854545 103.964425 
" style="fill: none; stroke: #ff7f0e; stroke-width: 1.5; stroke-linecap: round"/>
    <path d="M 287.854545 99.964425 
L 285.854545 103.964425 
L 283.854545 99.964425 
" style="fill: none; stroke: #ff7f0e; stroke-width: 1.5; stroke-linecap: round"/>
   </g>
   <g id="patch_11">
    <path d="M 444.581818 100.569767 
Q 444.581818 103.105622 444.581818 103.964425 
" style="fill: none; stroke: #2ca02c; stroke-width: 1.5; stroke-linecap: round"/>
    <path d="M 446.581818 99.964425 
L 444.581818 103.964425 
L 442.581818 99.964425 
" style="fill: none; stroke: #2ca02c; stroke-width: 1.5; stroke-linecap: round"/>
   </g>
   <g id="patch_12">
    <path d="M 585.672727 100.569767 
Q 585.672727 103.105622 585.672727 103.964425 
" style="fill: none; stroke: #d62728; stroke-width: 1.5; stroke-linecap: round"/>
    <path d="M 587.672727 99.964425 
L 585.672727 103.964425 
L 583.672727 99.964425 
" style="fill: none; stroke: #d62728; stroke-width: 1.5; stroke-linecap: round"/>
   </g>
   <g id="text_7">
    <!-- Stacked Data Structure for Hierarchical Model -->
    <g transform="translate(207.240234 17.077969) scale(0.13 -0.13)">
     <defs>
      <path id="DejaVuSans-53" d="M 3425 4513 
L 3425 3897 
Q 3066 4069 2747 4153 
Q 2428 4238 2131 4238 
Q 1616 4238 1336 4038 
Q 1056 3838 1056 3469 
Q 1056 3159 1242 3001 
Q 1428 2844 1947 2747 
L 2328 2669 
Q 3034 2534 3370 2195 
Q 3706 1856 3706 1288 
Q 3706 609 3251 259 
Q 2797 -91 1919 -91 
Q 1588 -91 1214 -16 
Q 841 59 441 206 
L 441 856 
Q 825 641 1194 531 
Q 1563 422 1919 422 
Q 2459 422 2753 634 
Q 3047 847 3047 1241 
Q 3047 1584 2836 1778 
Q 2625 1972 2144 2069 
L 1759 2144 
Q 1053 2284 737 2584 
Q 422 2884 422 3419 
Q 422 4038 858 4394 
Q 1294 4750 2059 4750 
Q 2388 4750 2728 4690 
Q 3069 4631 3425 4513 
z
" transform="scale(0.015625)"/>
      <path id="DejaVuSans-44" d="M 1259 4147 
L 1259 519 
L 2022 519 
Q 2988 519 3436 956 
Q 3884 1394 3884 2338 
Q 3884 3275 3436 3711 
Q 2988 4147 2022 4147 
L 1259 4147 
z
M 628 4666 
L 1925 4666 
Q 3281 4666 3915 4102 
Q 4550 3538 4550 2338 
Q 4550 1131 3912 565 
Q 3275 0 1925 0 
L 628 0 
L 628 4666 
z
" transform="scale(0.015625)"/>
      <path id="DejaVuSans-75" d="M 544 1381 
L 544 3500 
L 1119 3500 
L 1119 1403 
Q 1119 906 1312 657 
Q 1506 409 1894 409 
Q 2359 409 2629 706 
Q 2900 1003 2900 1516 
L 2900 3500 
L 3475 3500 
L 3475 0 
L 2900 0 
L 2900 538 
Q 2691 219 2414 64 
Q 2138 -91 1772 -91 
Q 1169 -91 856 284 
Q 544 659 544 1381 
z
M 1991 3584 
L 1991 3584 
z
" transform="scale(0.015625)"/>
      <path id="DejaVuSans-66" d="M 2375 4863 
L 2375 4384 
L 1825 4384 
Q 1516 4384 1395 4259 
Q 1275 4134 1275 3809 
L 1275 3500 
L 2222 3500 
L 2222 3053 
L 1275 3053 
L 1275 0 
L 697 0 
L 697 3053 
L 147 3053 
L 147 3500 
L 697 3500 
L 697 3744 
Q 697 4328 969 4595 
Q 1241 4863 1831 4863 
L 2375 4863 
z
" transform="scale(0.015625)"/>
      <path id="DejaVuSans-48" d="M 628 4666 
L 1259 4666 
L 1259 2753 
L 3553 2753 
L 3553 4666 
L 4184 4666 
L 4184 0 
L 3553 0 
L 3553 2222 
L 1259 2222 
L 1259 0 
L 628 0 
L 628 4666 
z
" transform="scale(0.015625)"/>
      <path id="DejaVuSans-68" d="M 3513 2113 
L 3513 0 
L 2938 0 
L 2938 2094 
Q 2938 2591 2744 2837 
Q 2550 3084 2163 3084 
Q 1697 3084 1428 2787 
Q 1159 2491 1159 1978 
L 1159 0 
L 581 0 
L 581 4863 
L 1159 4863 
L 1159 2956 
Q 1366 3272 1645 3428 
Q 1925 3584 2291 3584 
Q 2894 3584 3203 3211 
Q 3513 2838 3513 2113 
z
" transform="scale(0.015625)"/>
      <path id="DejaVuSans-4d" d="M 628 4666 
L 1569 4666 
L 2759 1491 
L 3956 4666 
L 4897 4666 
L 4897 0 
L 4281 0 
L 4281 4097 
L 3078 897 
L 2444 897 
L 1241 4097 
L 1241 0 
L 628 0 
L 628 4666 
z
" transform="scale(0.015625)"/>
     </defs>
     <use xlink:href="#DejaVuSans-53"/>
     <use xlink:href="#DejaVuSans-74" transform="translate(63.476562 0)"/>
     <use xlink:href="#DejaVuSans-61" transform="translate(102.685547 0)"/>
     <use xlink:href="#DejaVuSans-63" transform="translate(163.964844 0)"/>
     <use xlink:href="#DejaVuSans-6b" transform="translate(218.945312 0)"/>
     <use xlink:href="#DejaVuSans-65" transform="translate(273.230469 0)"/>
     <use xlink:href="#DejaVuSans-64" transform="translate(334.753906 0)"/>
     <use xlink:href="#DejaVuSans-20" transform="translate(398.230469 0)"/>
     <use xlink:href="#DejaVuSans-44" transform="translate(430.017578 0)"/>
     <use xlink:href="#DejaVuSans-61" transform="translate(507.019531 0)"/>
     <use xlink:href="#DejaVuSans-74" transform="translate(568.298828 0)"/>
     <use xlink:href="#DejaVuSans-61" transform="translate(607.507812 0)"/>
     <use xlink:href="#DejaVuSans-20" transform="translate(668.787109 0)"/>
     <use xlink:href="#DejaVuSans-53" transform="translate(700.574219 0)"/>
     <use xlink:href="#DejaVuSans-74" transform="translate(764.050781 0)"/>
     <use xlink:href="#DejaVuSans-72" transform="translate(803.259766 0)"/>
     <use xlink:href="#DejaVuSans-75" transform="translate(844.373047 0)"/>
     <use xlink:href="#DejaVuSans-63" transform="translate(907.751953 0)"/>
     <use xlink:href="#DejaVuSans-74" transform="translate(962.732422 0)"/>
     <use xlink:href="#DejaVuSans-75" transform="translate(1001.941406 0)"/>
     <use xlink:href="#DejaVuSans-72" transform="translate(1065.320312 0)"/>
     <use xlink:href="#DejaVuSans-65" transform="translate(1104.183594 0)"/>
     <use xlink:href="#DejaVuSans-20" transform="translate(1165.707031 0)"/>
     <use xlink:href="#DejaVuSans-66" transform="translate(1197.494141 0)"/>
     <use xlink:href="#DejaVuSans-6f" transform="translate(1232.699219 0)"/>
     <use xlink:href="#DejaVuSans-72" transform="translate(1293.880859 0)"/>
     <use xlink:href="#DejaVuSans-20" transform="translate(1334.994141 0)"/>
     <use xlink:href="#DejaVuSans-48" transform="translate(1366.78125 0)"/>
     <use xlink:href="#DejaVuSans-69" transform="translate(1441.976562 0)"/>
     <use xlink:href="#DejaVuSans-65" transform="translate(1469.759766 0)"/>
     <use xlink:href="#DejaVuSans-72" transform="translate(1531.283203 0)"/>
     <use xlink:href="#DejaVuSans-61" transform="translate(1572.396484 0)"/>
     <use xlink:href="#DejaVuSans-72" transform="translate(1633.675781 0)"/>
     <use xlink:href="#DejaVuSans-63" transform="translate(1672.539062 0)"/>
     <use xlink:href="#DejaVuSans-68" transform="translate(1727.519531 0)"/>
     <use xlink:href="#DejaVuSans-69" transform="translate(1790.898438 0)"/>
     <use xlink:href="#DejaVuSans-63" transform="translate(1818.681641 0)"/>
     <use xlink:href="#DejaVuSans-61" transform="translate(1873.662109 0)"/>
     <use xlink:href="#DejaVuSans-6c" transform="translate(1934.941406 0)"/>
     <use xlink:href="#DejaVuSans-20" transform="translate(1962.724609 0)"/>
     <use xlink:href="#DejaVuSans-4d" transform="translate(1994.511719 0)"/>
     <use xlink:href="#DejaVuSans-6f" transform="translate(2080.791016 0)"/>
     <use xlink:href="#DejaVuSans-64" transform="translate(2141.972656 0)"/>
     <use xlink:href="#DejaVuSans-65" transform="translate(2205.449219 0)"/>
     <use xlink:href="#DejaVuSans-6c" transform="translate(2266.972656 0)"/>
    </g>
   </g>
  </g>
 </g>
 <defs>
  <clipPath id="pf293fad09d">
   <rect x="7.2" y="32.077969" width="698.4" height="241.8"/>
  </clipPath>
 </defs>
</svg>
