<?xml version="1.0" encoding="utf-8" standalone="no"?>
<!DOCTYPE svg PUBLIC "-//W3C//DTD SVG 1.1//EN"
  "http://www.w3.org/Graphics/SVG/1.1/DTD/svg11.dtd">
<svg xmlns:xlink="http://www.w3.org/1999/xlink" width="568.8425pt" height="353.049688pt" viewBox="0 0 568.8425 353.049688" xmlns="http://www.w3.org/2000/svg" version="1.1">
 <metadata>
  <rdf:RDF xmlns:dc="http://purl.org/dc/elements/1.1/" xmlns:cc="http://creativecommons.org/ns#" xmlns:rdf="http://www.w3.org/1999/02/22-rdf-syntax-ns#">
   <cc:Work>
    <dc:type rdf:resource="http://purl.org/dc/dcmitype/StillImage"/>
    <dc:date>2026-02-10T22:52:10.007790</dc:date>
    <dc:format>image/svg+xml</dc:format>
    <dc:creator>
     <cc:Agent>
      <dc:title>Matplotlib v3.10.8, https://matplotlib.org/</dc:title>
     </cc:Agent>
    </dc:creator>
   </cc:Work>
  </rdf:RDF>
 </metadata>
 <defs>
  <style type="text/css">*{stroke-linejoin: round; stroke-linecap: butt}</style>
 </defs>
 <g id="figure_1">
  <g id="patch_1">
   <path d="M 0 353.049688 
L 568.8425 353.049688 
L 568.8425 0 
L 0 0 
z
" style="fill: #ffffff"/>
  </g>
  <g id="axes_1">
   <g id="patch_2">
    <path d="M 45.7225 313.557813 
L 561.6425 313.557813 
L 561.6425 23.837812 
L 45.7225 23.837812 
z
" style="fill: #ffffff"/>
   </g>
   <g id="matplotlib.axis_1">
    <g id="xtick_1">
     <g id="line2d_1">
      <path d="M 68.703921 313.557813 
L 68.703921 23.837812 
" clip-path="url(#p34c9e4ef06)" style="fill: none; stroke: #b0b0b0; stroke-opacity: 0.3; stroke-width: 0.8; stroke-linecap: square"/>
     </g>
     <g id="line2d_2">
      <defs>
       <path id="m00ff2650ce" d="M 0 0 
L 0 3.5 
" style="stroke: #000000; stroke-width: 0.8"/>
      </defs>
      <g>
       <use xlink:href="#m00ff2650ce" x="68.703921" y="313.557813" style="stroke: #000000; stroke-width: 0.8"/>
      </g>
     </g>
     <g id="text_1">
      <!-- 0 -->
      <g transform="translate(65.522671 328.15625) scale(0.1 -0.1)">
       <defs>
        <path id="DejaVuSans-30" d="M 2034 4250 
Q 1547 4250 1301 3770 
Q 1056 3291 1056 2328 
Q 1056 1369 1301 889 
Q 1547 409 2034 409 
Q 2525 409 2770 889 
Q 3016 1369 3016 2328 
Q 3016 3291 2770 3770 
Q 2525 4250 2034 4250 
z
M 2034 4750 
Q 2819 4750 3233 4129 
Q 3647 3509 3647 2328 
Q 3647 1150 3233 529 
Q 2819 -91 2034 -91 
Q 1250 -91 836 529 
Q 422 1150 422 2328 
Q 422 3509 836 4129 
Q 1250 4750 2034 4750 
z
" transform="scale(0.015625)"/>
       </defs>
       <use xlink:href="#DejaVuSans-30"/>
      </g>
     </g>
    </g>
    <g id="xtick_2">
     <g id="line2d_3">
      <path d="M 162.601455 313.557813 
L 162.601455 23.837812 
" clip-path="url(#p34c9e4ef06)" style="fill: none; stroke: #b0b0b0; stroke-opacity: 0.3; stroke-width: 0.8; stroke-linecap: square"/>
     </g>
     <g id="line2d_4">
      <g>
       <use xlink:href="#m00ff2650ce" x="162.601455" y="313.557813" style="stroke: #000000; stroke-width: 0.8"/>
      </g>
     </g>
     <g id="text_2">
      <!-- 2 -->
      <g transform="translate(159.420205 328.15625) scale(0.1 -0.1)">
       <defs>
        <path id="DejaVuSans-32" d="M 1228 531 
L 3431 531 
L 3431 0 
L 469 0 
L 469 531 
Q 828 903 1448 1529 
Q 2069 2156 2228 2338 
Q 2531 2678 2651 2914 
Q 2772 3150 2772 3378 
Q 2772 3750 2511 3984 
Q 2250 4219 1831 4219 
Q 1534 4219 1204 4116 
Q 875 4013 500 3803 
L 500 4441 
Q 881 4594 1212 4672 
Q 1544 4750 1819 4750 
Q 2544 4750 2975 4387 
Q 3406 4025 3406 3419 
Q 3406 3131 3298 2873 
Q 3191 2616 2906 2266 
Q 2828 2175 2409 1742 
Q 1991 1309 1228 531 
z
" transform="scale(0.015625)"/>
       </defs>
       <use xlink:href="#DejaVuSans-32"/>
      </g>
     </g>
    </g>
    <g id="xtick_3">
     <g id="line2d_5">
      <path d="M 256.498989 313.557813 
L 256.498989 23.837812 
" clip-path="url(#p34c9e4ef06)" style="fill: none; stroke: #b0b0b0; stroke-opacity: 0.3; stroke-width: 0.8; stroke-linecap: square"/>
     </g>
     <g id="line2d_6">
      <g>
       <use xlink:href="#m00ff2650ce" x="256.498989" y="313.557813" style="stroke: #000000; stroke-width: 0.8"/>
      </g>
     </g>
     <g id="text_3">
      <!-- 4 -->
      <g transform="translate(253.317739 328.15625) scale(0.1 -0.1)">
       <defs>
        <path id="DejaVuSans-34" d="M 2419 4116 
L 825 1625 
L 2419 1625 
L 2419 4116 
z
M 2253 4666 
L 3047 4666 
L 3047 1625 
L 3713 1625 
L 3713 1100 
L 3047 1100 
L 3047 0 
L 2419 0 
L 2419 1100 
L 313 1100 
L 313 1709 
L 2253 4666 
z
" transform="scale(0.015625)"/>
       </defs>
       <use xlink:href="#DejaVuSans-34"/>
      </g>
     </g>
    </g>
    <g id="xtick_4">
     <g id="line2d_7">
      <path d="M 350.396523 313.557813 
L 350.396523 23.837812 
" clip-path="url(#p34c9e4ef06)" style="fill: none; stroke: #b0b0b0; stroke-opacity: 0.3; stroke-width: 0.8; stroke-linecap: square"/>
     </g>
     <g id="line2d_8">
      <g>
       <use xlink:href="#m00ff2650ce" x="350.396523" y="313.557813" style="stroke: #000000; stroke-width: 0.8"/>
      </g>
     </g>
     <g id="text_4">
      <!-- 6 -->
      <g transform="translate(347.215273 328.15625) scale(0.1 -0.1)">
       <defs>
        <path id="DejaVuSans-36" d="M 2113 2584 
Q 1688 2584 1439 2293 
Q 1191 2003 1191 1497 
Q 1191 994 1439 701 
Q 1688 409 2113 409 
Q 2538 409 2786 701 
Q 3034 994 3034 1497 
Q 3034 2003 2786 2293 
Q 2538 2584 2113 2584 
z
M 3366 4563 
L 3366 3988 
Q 3128 4100 2886 4159 
Q 2644 4219 2406 4219 
Q 1781 4219 1451 3797 
Q 1122 3375 1075 2522 
Q 1259 2794 1537 2939 
Q 1816 3084 2150 3084 
Q 2853 3084 3261 2657 
Q 3669 2231 3669 1497 
Q 3669 778 3244 343 
Q 2819 -91 2113 -91 
Q 1303 -91 875 529 
Q 447 1150 447 2328 
Q 447 3434 972 4092 
Q 1497 4750 2381 4750 
Q 2619 4750 2861 4703 
Q 3103 4656 3366 4563 
z
" transform="scale(0.015625)"/>
       </defs>
       <use xlink:href="#DejaVuSans-36"/>
      </g>
     </g>
    </g>
    <g id="xtick_5">
     <g id="line2d_9">
      <path d="M 444.294057 313.557813 
L 444.294057 23.837812 
" clip-path="url(#p34c9e4ef06)" style="fill: none; stroke: #b0b0b0; stroke-opacity: 0.3; stroke-width: 0.8; stroke-linecap: square"/>
     </g>
     <g id="line2d_10">
      <g>
       <use xlink:href="#m00ff2650ce" x="444.294057" y="313.557813" style="stroke: #000000; stroke-width: 0.8"/>
      </g>
     </g>
     <g id="text_5">
      <!-- 8 -->
      <g transform="translate(441.112807 328.15625) scale(0.1 -0.1)">
       <defs>
        <path id="DejaVuSans-38" d="M 2034 2216 
Q 1584 2216 1326 1975 
Q 1069 1734 1069 1313 
Q 1069 891 1326 650 
Q 1584 409 2034 409 
Q 2484 409 2743 651 
Q 3003 894 3003 1313 
Q 3003 1734 2745 1975 
Q 2488 2216 2034 2216 
z
M 1403 2484 
Q 997 2584 770 2862 
Q 544 3141 544 3541 
Q 544 4100 942 4425 
Q 1341 4750 2034 4750 
Q 2731 4750 3128 4425 
Q 3525 4100 3525 3541 
Q 3525 3141 3298 2862 
Q 3072 2584 2669 2484 
Q 3125 2378 3379 2068 
Q 3634 1759 3634 1313 
Q 3634 634 3220 271 
Q 2806 -91 2034 -91 
Q 1263 -91 848 271 
Q 434 634 434 1313 
Q 434 1759 690 2068 
Q 947 2378 1403 2484 
z
M 1172 3481 
Q 1172 3119 1398 2916 
Q 1625 2713 2034 2713 
Q 2441 2713 2670 2916 
Q 2900 3119 2900 3481 
Q 2900 3844 2670 4047 
Q 2441 4250 2034 4250 
Q 1625 4250 1398 4047 
Q 1172 3844 1172 3481 
z
" transform="scale(0.015625)"/>
       </defs>
       <use xlink:href="#DejaVuSans-38"/>
      </g>
     </g>
    </g>
    <g id="xtick_6">
     <g id="line2d_11">
      <path d="M 538.191591 313.557813 
L 538.191591 23.837812 
" clip-path="url(#p34c9e4ef06)" style="fill: none; stroke: #b0b0b0; stroke-opacity: 0.3; stroke-width: 0.8; stroke-linecap: square"/>
     </g>
     <g id="line2d_12">
      <g>
       <use xlink:href="#m00ff2650ce" x="538.191591" y="313.557813" style="stroke: #000000; stroke-width: 0.8"/>
      </g>
     </g>
     <g id="text_6">
      <!-- 10 -->
      <g transform="translate(531.829091 328.15625) scale(0.1 -0.1)">
       <defs>
        <path id="DejaVuSans-31" d="M 794 531 
L 1825 531 
L 1825 4091 
L 703 3866 
L 703 4441 
L 1819 4666 
L 2450 4666 
L 2450 531 
L 3481 531 
L 3481 0 
L 794 0 
L 794 531 
z
" transform="scale(0.015625)"/>
       </defs>
       <use xlink:href="#DejaVuSans-31"/>
       <use xlink:href="#DejaVuSans-30" transform="translate(63.623047 0)"/>
      </g>
     </g>
    </g>
    <g id="text_7">
     <!-- Sensitivity (α) -->
     <g transform="translate(261.901875 343.354062) scale(0.12 -0.12)">
      <defs>
       <path id="DejaVuSans-53" d="M 3425 4513 
L 3425 3897 
Q 3066 4069 2747 4153 
Q 2428 4238 2131 4238 
Q 1616 4238 1336 4038 
Q 1056 3838 1056 3469 
Q 1056 3159 1242 3001 
Q 1428 2844 1947 2747 
L 2328 2669 
Q 3034 2534 3370 2195 
Q 3706 1856 3706 1288 
Q 3706 609 3251 259 
Q 2797 -91 1919 -91 
Q 1588 -91 1214 -16 
Q 841 59 441 206 
L 441 856 
Q 825 641 1194 531 
Q 1563 422 1919 422 
Q 2459 422 2753 634 
Q 3047 847 3047 1241 
Q 3047 1584 2836 1778 
Q 2625 1972 2144 2069 
L 1759 2144 
Q 1053 2284 737 2584 
Q 422 2884 422 3419 
Q 422 4038 858 4394 
Q 1294 4750 2059 4750 
Q 2388 4750 2728 4690 
Q 3069 4631 3425 4513 
z
" transform="scale(0.015625)"/>
       <path id="DejaVuSans-65" d="M 3597 1894 
L 3597 1613 
L 953 1613 
Q 991 1019 1311 708 
Q 1631 397 2203 397 
Q 2534 397 2845 478 
Q 3156 559 3463 722 
L 3463 178 
Q 3153 47 2828 -22 
Q 2503 -91 2169 -91 
Q 1331 -91 842 396 
Q 353 884 353 1716 
Q 353 2575 817 3079 
Q 1281 3584 2069 3584 
Q 2775 3584 3186 3129 
Q 3597 2675 3597 1894 
z
M 3022 2063 
Q 3016 2534 2758 2815 
Q 2500 3097 2075 3097 
Q 1594 3097 1305 2825 
Q 1016 2553 972 2059 
L 3022 2063 
z
" transform="scale(0.015625)"/>
       <path id="DejaVuSans-6e" d="M 3513 2113 
L 3513 0 
L 2938 0 
L 2938 2094 
Q 2938 2591 2744 2837 
Q 2550 3084 2163 3084 
Q 1697 3084 1428 2787 
Q 1159 2491 1159 1978 
L 1159 0 
L 581 0 
L 581 3500 
L 1159 3500 
L 1159 2956 
Q 1366 3272 1645 3428 
Q 1925 3584 2291 3584 
Q 2894 3584 3203 3211 
Q 3513 2838 3513 2113 
z
" transform="scale(0.015625)"/>
       <path id="DejaVuSans-73" d="M 2834 3397 
L 2834 2853 
Q 2591 2978 2328 3040 
Q 2066 3103 1784 3103 
Q 1356 3103 1142 2972 
Q 928 2841 928 2578 
Q 928 2378 1081 2264 
Q 1234 2150 1697 2047 
L 1894 2003 
Q 2506 1872 2764 1633 
Q 3022 1394 3022 966 
Q 3022 478 2636 193 
Q 2250 -91 1575 -91 
Q 1294 -91 989 -36 
Q 684 19 347 128 
L 347 722 
Q 666 556 975 473 
Q 1284 391 1588 391 
Q 1994 391 2212 530 
Q 2431 669 2431 922 
Q 2431 1156 2273 1281 
Q 2116 1406 1581 1522 
L 1381 1569 
Q 847 1681 609 1914 
Q 372 2147 372 2553 
Q 372 3047 722 3315 
Q 1072 3584 1716 3584 
Q 2034 3584 2315 3537 
Q 2597 3491 2834 3397 
z
" transform="scale(0.015625)"/>
       <path id="DejaVuSans-69" d="M 603 3500 
L 1178 3500 
L 1178 0 
L 603 0 
L 603 3500 
z
M 603 4863 
L 1178 4863 
L 1178 4134 
L 603 4134 
L 603 4863 
z
" transform="scale(0.015625)"/>
       <path id="DejaVuSans-74" d="M 1172 4494 
L 1172 3500 
L 2356 3500 
L 2356 3053 
L 1172 3053 
L 1172 1153 
Q 1172 725 1289 603 
Q 1406 481 1766 481 
L 2356 481 
L 2356 0 
L 1766 0 
Q 1100 0 847 248 
Q 594 497 594 1153 
L 594 3053 
L 172 3053 
L 172 3500 
L 594 3500 
L 594 4494 
L 1172 4494 
z
" transform="scale(0.015625)"/>
       <path id="DejaVuSans-76" d="M 191 3500 
L 800 3500 
L 1894 563 
L 2988 3500 
L 3597 3500 
L 2284 0 
L 1503 0 
L 191 3500 
z
" transform="scale(0.015625)"/>
       <path id="DejaVuSans-79" d="M 2059 -325 
Q 1816 -950 1584 -1140 
Q 1353 -1331 966 -1331 
L 506 -1331 
L 506 -850 
L 844 -850 
Q 1081 -850 1212 -737 
Q 1344 -625 1503 -206 
L 1606 56 
L 191 3500 
L 800 3500 
L 1894 763 
L 2988 3500 
L 3597 3500 
L 2059 -325 
z
" transform="scale(0.015625)"/>
       <path id="DejaVuSans-20" transform="scale(0.015625)"/>
       <path id="DejaVuSans-28" d="M 1984 4856 
Q 1566 4138 1362 3434 
Q 1159 2731 1159 2009 
Q 1159 1288 1364 580 
Q 1569 -128 1984 -844 
L 1484 -844 
Q 1016 -109 783 600 
Q 550 1309 550 2009 
Q 550 2706 781 3412 
Q 1013 4119 1484 4856 
L 1984 4856 
z
" transform="scale(0.015625)"/>
       <path id="DejaVuSans-3b1" d="M 2644 1628 
L 2506 2350 
Q 2366 3091 1809 3091 
Q 1391 3091 1200 2747 
Q 959 2316 959 1747 
Q 959 1059 1194 731 
Q 1431 397 1809 397 
Q 2228 397 2453 1063 
L 2644 1628 
z
M 2966 2584 
L 3275 3500 
L 3788 3500 
L 3147 1603 
L 3272 919 
Q 3300 766 3409 638 
Q 3538 488 3638 488 
L 3913 488 
L 3913 0 
L 3569 0 
Q 3275 0 3013 263 
Q 2884 394 2831 669 
Q 2688 322 2394 50 
Q 2256 -78 1809 -78 
Q 1075 -78 719 397 
Q 353 888 353 1747 
Q 353 2666 750 3097 
Q 1191 3578 1809 3578 
Q 2781 3578 2966 2584 
z
" transform="scale(0.015625)"/>
       <path id="DejaVuSans-29" d="M 513 4856 
L 1013 4856 
Q 1481 4119 1714 3412 
Q 1947 2706 1947 2009 
Q 1947 1309 1714 600 
Q 1481 -109 1013 -844 
L 513 -844 
Q 928 -128 1133 580 
Q 1338 1288 1338 2009 
Q 1338 2731 1133 3434 
Q 928 4138 513 4856 
z
" transform="scale(0.015625)"/>
      </defs>
      <use xlink:href="#DejaVuSans-53"/>
      <use xlink:href="#DejaVuSans-65" transform="translate(63.476562 0)"/>
      <use xlink:href="#DejaVuSans-6e" transform="translate(125 0)"/>
      <use xlink:href="#DejaVuSans-73" transform="translate(188.378906 0)"/>
      <use xlink:href="#DejaVuSans-69" transform="translate(240.478516 0)"/>
      <use xlink:href="#DejaVuSans-74" transform="translate(268.261719 0)"/>
      <use xlink:href="#DejaVuSans-69" transform="translate(307.470703 0)"/>
      <use xlink:href="#DejaVuSans-76" transform="translate(335.253906 0)"/>
      <use xlink:href="#DejaVuSans-69" transform="translate(394.433594 0)"/>
      <use xlink:href="#DejaVuSans-74" transform="translate(422.216797 0)"/>
      <use xlink:href="#DejaVuSans-79" transform="translate(461.425781 0)"/>
      <use xlink:href="#DejaVuSans-20" transform="translate(520.605469 0)"/>
      <use xlink:href="#DejaVuSans-28" transform="translate(552.392578 0)"/>
      <use xlink:href="#DejaVuSans-3b1" transform="translate(591.40625 0)"/>
      <use xlink:href="#DejaVuSans-29" transform="translate(657.324219 0)"/>
     </g>
    </g>
   </g>
   <g id="matplotlib.axis_2">
    <g id="ytick_1">
     <g id="line2d_13">
      <path d="M 45.7225 313.557813 
L 561.6425 313.557813 
" clip-path="url(#p34c9e4ef06)" style="fill: none; stroke: #b0b0b0; stroke-opacity: 0.3; stroke-width: 0.8; stroke-linecap: square"/>
     </g>
     <g id="line2d_14">
      <defs>
       <path id="m72c528200d" d="M 0 0 
L -3.5 0 
" style="stroke: #000000; stroke-width: 0.8"/>
      </defs>
      <g>
       <use xlink:href="#m72c528200d" x="45.7225" y="313.557813" style="stroke: #000000; stroke-width: 0.8"/>
      </g>
     </g>
     <g id="text_8">
      <!-- 0.0 -->
      <g transform="translate(22.819375 317.357031) scale(0.1 -0.1)">
       <defs>
        <path id="DejaVuSans-2e" d="M 684 794 
L 1344 794 
L 1344 0 
L 684 0 
L 684 794 
z
" transform="scale(0.015625)"/>
       </defs>
       <use xlink:href="#DejaVuSans-30"/>
       <use xlink:href="#DejaVuSans-2e" transform="translate(63.623047 0)"/>
       <use xlink:href="#DejaVuSans-30" transform="translate(95.410156 0)"/>
      </g>
     </g>
    </g>
    <g id="ytick_2">
     <g id="line2d_15">
      <path d="M 45.7225 255.613812 
L 561.6425 255.613812 
" clip-path="url(#p34c9e4ef06)" style="fill: none; stroke: #b0b0b0; stroke-opacity: 0.3; stroke-width: 0.8; stroke-linecap: square"/>
     </g>
     <g id="line2d_16">
      <g>
       <use xlink:href="#m72c528200d" x="45.7225" y="255.613812" style="stroke: #000000; stroke-width: 0.8"/>
      </g>
     </g>
     <g id="text_9">
      <!-- 0.2 -->
      <g transform="translate(22.819375 259.413031) scale(0.1 -0.1)">
       <use xlink:href="#DejaVuSans-30"/>
       <use xlink:href="#DejaVuSans-2e" transform="translate(63.623047 0)"/>
       <use xlink:href="#DejaVuSans-32" transform="translate(95.410156 0)"/>
      </g>
     </g>
    </g>
    <g id="ytick_3">
     <g id="line2d_17">
      <path d="M 45.7225 197.669812 
L 561.6425 197.669812 
" clip-path="url(#p34c9e4ef06)" style="fill: none; stroke: #b0b0b0; stroke-opacity: 0.3; stroke-width: 0.8; stroke-linecap: square"/>
     </g>
     <g id="line2d_18">
      <g>
       <use xlink:href="#m72c528200d" x="45.7225" y="197.669812" style="stroke: #000000; stroke-width: 0.8"/>
      </g>
     </g>
     <g id="text_10">
      <!-- 0.4 -->
      <g transform="translate(22.819375 201.469031) scale(0.1 -0.1)">
       <use xlink:href="#DejaVuSans-30"/>
       <use xlink:href="#DejaVuSans-2e" transform="translate(63.623047 0)"/>
       <use xlink:href="#DejaVuSans-34" transform="translate(95.410156 0)"/>
      </g>
     </g>
    </g>
    <g id="ytick_4">
     <g id="line2d_19">
      <path d="M 45.7225 139.725812 
L 561.6425 139.725812 
" clip-path="url(#p34c9e4ef06)" style="fill: none; stroke: #b0b0b0; stroke-opacity: 0.3; stroke-width: 0.8; stroke-linecap: square"/>
     </g>
     <g id="line2d_20">
      <g>
       <use xlink:href="#m72c528200d" x="45.7225" y="139.725812" style="stroke: #000000; stroke-width: 0.8"/>
      </g>
     </g>
     <g id="text_11">
      <!-- 0.6 -->
      <g transform="translate(22.819375 143.525031) scale(0.1 -0.1)">
       <use xlink:href="#DejaVuSans-30"/>
       <use xlink:href="#DejaVuSans-2e" transform="translate(63.623047 0)"/>
       <use xlink:href="#DejaVuSans-36" transform="translate(95.410156 0)"/>
      </g>
     </g>
    </g>
    <g id="ytick_5">
     <g id="line2d_21">
      <path d="M 45.7225 81.781812 
L 561.6425 81.781812 
" clip-path="url(#p34c9e4ef06)" style="fill: none; stroke: #b0b0b0; stroke-opacity: 0.3; stroke-width: 0.8; stroke-linecap: square"/>
     </g>
     <g id="line2d_22">
      <g>
       <use xlink:href="#m72c528200d" x="45.7225" y="81.781812" style="stroke: #000000; stroke-width: 0.8"/>
      </g>
     </g>
     <g id="text_12">
      <!-- 0.8 -->
      <g transform="translate(22.819375 85.581031) scale(0.1 -0.1)">
       <use xlink:href="#DejaVuSans-30"/>
       <use xlink:href="#DejaVuSans-2e" transform="translate(63.623047 0)"/>
       <use xlink:href="#DejaVuSans-38" transform="translate(95.410156 0)"/>
      </g>
     </g>
    </g>
    <g id="ytick_6">
     <g id="line2d_23">
      <path d="M 45.7225 23.837812 
L 561.6425 23.837812 
" clip-path="url(#p34c9e4ef06)" style="fill: none; stroke: #b0b0b0; stroke-opacity: 0.3; stroke-width: 0.8; stroke-linecap: square"/>
     </g>
     <g id="line2d_24">
      <g>
       <use xlink:href="#m72c528200d" x="45.7225" y="23.837812" style="stroke: #000000; stroke-width: 0.8"/>
      </g>
     </g>
     <g id="text_13">
      <!-- 1.0 -->
      <g transform="translate(22.819375 27.637031) scale(0.1 -0.1)">
       <use xlink:href="#DejaVuSans-31"/>
       <use xlink:href="#DejaVuSans-2e" transform="translate(63.623047 0)"/>
       <use xlink:href="#DejaVuSans-30" transform="translate(95.410156 0)"/>
      </g>
     </g>
    </g>
    <g id="text_14">
     <!-- Choice Probability χ -->
     <g transform="translate(16.318125 228.013438) rotate(-90) scale(0.12 -0.12)">
      <defs>
       <path id="DejaVuSans-43" d="M 4122 4306 
L 4122 3641 
Q 3803 3938 3442 4084 
Q 3081 4231 2675 4231 
Q 1875 4231 1450 3742 
Q 1025 3253 1025 2328 
Q 1025 1406 1450 917 
Q 1875 428 2675 428 
Q 3081 428 3442 575 
Q 3803 722 4122 1019 
L 4122 359 
Q 3791 134 3420 21 
Q 3050 -91 2638 -91 
Q 1578 -91 968 557 
Q 359 1206 359 2328 
Q 359 3453 968 4101 
Q 1578 4750 2638 4750 
Q 3056 4750 3426 4639 
Q 3797 4528 4122 4306 
z
" transform="scale(0.015625)"/>
       <path id="DejaVuSans-68" d="M 3513 2113 
L 3513 0 
L 2938 0 
L 2938 2094 
Q 2938 2591 2744 2837 
Q 2550 3084 2163 3084 
Q 1697 3084 1428 2787 
Q 1159 2491 1159 1978 
L 1159 0 
L 581 0 
L 581 4863 
L 1159 4863 
L 1159 2956 
Q 1366 3272 1645 3428 
Q 1925 3584 2291 3584 
Q 2894 3584 3203 3211 
Q 3513 2838 3513 2113 
z
" transform="scale(0.015625)"/>
       <path id="DejaVuSans-6f" d="M 1959 3097 
Q 1497 3097 1228 2736 
Q 959 2375 959 1747 
Q 959 1119 1226 758 
Q 1494 397 1959 397 
Q 2419 397 2687 759 
Q 2956 1122 2956 1747 
Q 2956 2369 2687 2733 
Q 2419 3097 1959 3097 
z
M 1959 3584 
Q 2709 3584 3137 3096 
Q 3566 2609 3566 1747 
Q 3566 888 3137 398 
Q 2709 -91 1959 -91 
Q 1206 -91 779 398 
Q 353 888 353 1747 
Q 353 2609 779 3096 
Q 1206 3584 1959 3584 
z
" transform="scale(0.015625)"/>
       <path id="DejaVuSans-63" d="M 3122 3366 
L 3122 2828 
Q 2878 2963 2633 3030 
Q 2388 3097 2138 3097 
Q 1578 3097 1268 2742 
Q 959 2388 959 1747 
Q 959 1106 1268 751 
Q 1578 397 2138 397 
Q 2388 397 2633 464 
Q 2878 531 3122 666 
L 3122 134 
Q 2881 22 2623 -34 
Q 2366 -91 2075 -91 
Q 1284 -91 818 406 
Q 353 903 353 1747 
Q 353 2603 823 3093 
Q 1294 3584 2113 3584 
Q 2378 3584 2631 3529 
Q 2884 3475 3122 3366 
z
" transform="scale(0.015625)"/>
       <path id="DejaVuSans-50" d="M 1259 4147 
L 1259 2394 
L 2053 2394 
Q 2494 2394 2734 2622 
Q 2975 2850 2975 3272 
Q 2975 3691 2734 3919 
Q 2494 4147 2053 4147 
L 1259 4147 
z
M 628 4666 
L 2053 4666 
Q 2838 4666 3239 4311 
Q 3641 3956 3641 3272 
Q 3641 2581 3239 2228 
Q 2838 1875 2053 1875 
L 1259 1875 
L 1259 0 
L 628 0 
L 628 4666 
z
" transform="scale(0.015625)"/>
       <path id="DejaVuSans-72" d="M 2631 2963 
Q 2534 3019 2420 3045 
Q 2306 3072 2169 3072 
Q 1681 3072 1420 2755 
Q 1159 2438 1159 1844 
L 1159 0 
L 581 0 
L 581 3500 
L 1159 3500 
L 1159 2956 
Q 1341 3275 1631 3429 
Q 1922 3584 2338 3584 
Q 2397 3584 2469 3576 
Q 2541 3569 2628 3553 
L 2631 2963 
z
" transform="scale(0.015625)"/>
       <path id="DejaVuSans-62" d="M 3116 1747 
Q 3116 2381 2855 2742 
Q 2594 3103 2138 3103 
Q 1681 3103 1420 2742 
Q 1159 2381 1159 1747 
Q 1159 1113 1420 752 
Q 1681 391 2138 391 
Q 2594 391 2855 752 
Q 3116 1113 3116 1747 
z
M 1159 2969 
Q 1341 3281 1617 3432 
Q 1894 3584 2278 3584 
Q 2916 3584 3314 3078 
Q 3713 2572 3713 1747 
Q 3713 922 3314 415 
Q 2916 -91 2278 -91 
Q 1894 -91 1617 61 
Q 1341 213 1159 525 
L 1159 0 
L 581 0 
L 581 4863 
L 1159 4863 
L 1159 2969 
z
" transform="scale(0.015625)"/>
       <path id="DejaVuSans-61" d="M 2194 1759 
Q 1497 1759 1228 1600 
Q 959 1441 959 1056 
Q 959 750 1161 570 
Q 1363 391 1709 391 
Q 2188 391 2477 730 
Q 2766 1069 2766 1631 
L 2766 1759 
L 2194 1759 
z
M 3341 1997 
L 3341 0 
L 2766 0 
L 2766 531 
Q 2569 213 2275 61 
Q 1981 -91 1556 -91 
Q 1019 -91 701 211 
Q 384 513 384 1019 
Q 384 1609 779 1909 
Q 1175 2209 1959 2209 
L 2766 2209 
L 2766 2266 
Q 2766 2663 2505 2880 
Q 2244 3097 1772 3097 
Q 1472 3097 1187 3025 
Q 903 2953 641 2809 
L 641 3341 
Q 956 3463 1253 3523 
Q 1550 3584 1831 3584 
Q 2591 3584 2966 3190 
Q 3341 2797 3341 1997 
z
" transform="scale(0.015625)"/>
       <path id="DejaVuSans-6c" d="M 603 4863 
L 1178 4863 
L 1178 0 
L 603 0 
L 603 4863 
z
" transform="scale(0.015625)"/>
       <path id="DejaVuSans-3c7" d="M 2288 -781 
L 1822 416 
L 863 -1334 
L 184 -1334 
L 1541 1141 
L 972 2613 
Q 819 3006 338 3006 
L 184 3006 
L 184 3500 
L 403 3494 
Q 1209 3472 1413 2950 
L 1875 1753 
L 2834 3503 
L 3513 3503 
L 2156 1028 
L 2725 -444 
Q 2878 -838 3359 -838 
L 3513 -838 
L 3513 -1331 
L 3294 -1325 
Q 2488 -1303 2288 -781 
z
" transform="scale(0.015625)"/>
      </defs>
      <use xlink:href="#DejaVuSans-43"/>
      <use xlink:href="#DejaVuSans-68" transform="translate(69.824219 0)"/>
      <use xlink:href="#DejaVuSans-6f" transform="translate(133.203125 0)"/>
      <use xlink:href="#DejaVuSans-69" transform="translate(194.384766 0)"/>
      <use xlink:href="#DejaVuSans-63" transform="translate(222.167969 0)"/>
      <use xlink:href="#DejaVuSans-65" transform="translate(277.148438 0)"/>
      <use xlink:href="#DejaVuSans-20" transform="translate(338.671875 0)"/>
      <use xlink:href="#DejaVuSans-50" transform="translate(370.458984 0)"/>
      <use xlink:href="#DejaVuSans-72" transform="translate(429.011719 0)"/>
      <use xlink:href="#DejaVuSans-6f" transform="translate(467.875 0)"/>
      <use xlink:href="#DejaVuSans-62" transform="translate(529.056641 0)"/>
      <use xlink:href="#DejaVuSans-61" transform="translate(592.533203 0)"/>
      <use xlink:href="#DejaVuSans-62" transform="translate(653.8125 0)"/>
      <use xlink:href="#DejaVuSans-69" transform="translate(717.289062 0)"/>
      <use xlink:href="#DejaVuSans-6c" transform="translate(745.072266 0)"/>
      <use xlink:href="#DejaVuSans-69" transform="translate(772.855469 0)"/>
      <use xlink:href="#DejaVuSans-74" transform="translate(800.638672 0)"/>
      <use xlink:href="#DejaVuSans-79" transform="translate(839.847656 0)"/>
      <use xlink:href="#DejaVuSans-20" transform="translate(899.027344 0)"/>
      <use xlink:href="#DejaVuSans-3c7" transform="translate(930.814453 0)"/>
     </g>
    </g>
   </g>
   <g id="line2d_25">
    <path d="M 69.173409 217.274054 
L 73.910966 220.179331 
L 78.648524 223.05222 
L 83.386081 225.890188 
L 88.123639 228.690801 
L 92.861196 231.451736 
L 97.598753 234.170792 
L 102.336311 236.845892 
L 107.073868 239.475092 
L 111.811426 242.056589 
L 116.548983 244.588722 
L 121.28654 247.069976 
L 126.024098 249.498987 
L 130.761655 251.874541 
L 135.499213 254.19558 
L 140.23677 256.461192 
L 144.974327 258.67062 
L 149.711885 260.823256 
L 154.449442 262.918636 
L 159.187 264.956441 
L 163.924557 266.936488 
L 168.662114 268.858731 
L 173.399672 270.723251 
L 178.137229 272.530251 
L 182.874787 274.280053 
L 187.612344 275.973086 
L 192.349901 277.609885 
L 197.087459 279.19108 
L 201.825016 280.717391 
L 206.562573 282.18962 
L 211.300131 283.608643 
L 216.037688 284.975405 
L 220.775246 286.290912 
L 225.512803 287.556222 
L 230.25036 288.772442 
L 234.987918 289.94072 
L 239.725475 291.062235 
L 244.463033 292.138199 
L 249.20059 293.169844 
L 253.938147 294.158419 
L 258.675705 295.105185 
L 263.413262 296.011414 
L 268.15082 296.878375 
L 272.888377 297.707339 
L 277.625934 298.499573 
L 282.363492 299.256333 
L 287.101049 299.978864 
L 291.838607 300.668396 
L 296.576164 301.326142 
L 301.313721 301.953296 
L 306.051279 302.55103 
L 310.788836 303.120491 
L 315.526393 303.662804 
L 320.263951 304.179066 
L 325.001508 304.670345 
L 329.739066 305.137685 
L 334.476623 305.582097 
L 339.21418 306.004564 
L 343.951738 306.406041 
L 348.689295 306.787449 
L 353.426853 307.149683 
L 358.16441 307.493604 
L 362.901967 307.820047 
L 367.639525 308.129814 
L 372.377082 308.42368 
L 377.11464 308.702388 
L 381.852197 308.966654 
L 386.589754 309.217168 
L 391.327312 309.45459 
L 396.064869 309.679553 
L 400.802427 309.892665 
L 405.539984 310.094507 
L 410.277541 310.285638 
L 415.015099 310.46659 
L 419.752656 310.637873 
L 424.490213 310.799973 
L 429.227771 310.953357 
L 433.965328 311.098467 
L 438.702886 311.235728 
L 443.440443 311.365543 
L 448.178 311.488297 
L 452.915558 311.604357 
L 457.653115 311.714073 
L 462.390673 311.817776 
L 467.12823 311.915783 
L 471.865787 312.008395 
L 476.603345 312.095897 
L 481.340902 312.178562 
L 486.07846 312.256648 
L 490.816017 312.3304 
L 495.553574 312.400051 
L 500.291132 312.465821 
L 505.028689 312.527922 
L 509.766247 312.586551 
L 514.503804 312.641898 
L 519.241361 312.694141 
L 523.978919 312.74345 
L 528.716476 312.789986 
L 533.454034 312.8339 
L 538.191591 312.875338 
" clip-path="url(#p34c9e4ef06)" style="fill: none; stroke: #1f77b4; stroke-width: 2; stroke-linecap: square"/>
   </g>
   <g id="line2d_26">
    <path d="M 69.173409 216.984769 
L 73.910966 217.020107 
L 78.648524 217.114337 
L 83.386081 217.267198 
L 88.123639 217.478274 
L 92.861196 217.746989 
L 97.598753 218.072614 
L 102.336311 218.454271 
L 107.073868 218.89094 
L 111.811426 219.381461 
L 116.548983 219.924547 
L 121.28654 220.518788 
L 126.024098 221.162657 
L 130.761655 221.854526 
L 135.499213 222.592669 
L 140.23677 223.375272 
L 144.974327 224.200448 
L 149.711885 225.06624 
L 154.449442 225.970636 
L 159.187 226.911577 
L 163.924557 227.886966 
L 168.662114 228.894681 
L 173.399672 229.932581 
L 178.137229 230.998515 
L 182.874787 232.090334 
L 187.612344 233.205896 
L 192.349901 234.343076 
L 197.087459 235.499772 
L 201.825016 236.673913 
L 206.562573 237.863464 
L 211.300131 239.066433 
L 216.037688 240.280874 
L 220.775246 241.504895 
L 225.512803 242.736661 
L 230.25036 243.974394 
L 234.987918 245.216382 
L 239.725475 246.460975 
L 244.463033 247.706594 
L 249.20059 248.951728 
L 253.938147 250.194933 
L 258.675705 251.434841 
L 263.413262 252.670151 
L 268.15082 253.899634 
L 272.888377 255.122135 
L 277.625934 256.336564 
L 282.363492 257.541904 
L 287.101049 258.737205 
L 291.838607 259.921584 
L 296.576164 261.094221 
L 301.313721 262.254363 
L 306.051279 263.401316 
L 310.788836 264.534447 
L 315.526393 265.65318 
L 320.263951 266.756994 
L 325.001508 267.845423 
L 329.739066 268.918051 
L 334.476623 269.97451 
L 339.21418 271.01448 
L 343.951738 272.037685 
L 348.689295 273.04389 
L 353.426853 274.032903 
L 358.16441 275.004566 
L 362.901967 275.958759 
L 367.639525 276.895394 
L 372.377082 277.814417 
L 377.11464 278.715801 
L 381.852197 279.599547 
L 386.589754 280.465682 
L 391.327312 281.314259 
L 396.064869 282.145349 
L 400.802427 282.959048 
L 405.539984 283.755469 
L 410.277541 284.534741 
L 415.015099 285.297011 
L 419.752656 286.042441 
L 424.490213 286.771205 
L 429.227771 287.483489 
L 433.965328 288.179492 
L 438.702886 288.85942 
L 443.440443 289.52349 
L 448.178 290.171926 
L 452.915558 290.804959 
L 457.653115 291.422824 
L 462.390673 292.025765 
L 467.12823 292.614026 
L 471.865787 293.187859 
L 476.603345 293.747515 
L 481.340902 294.29325 
L 486.07846 294.82532 
L 490.816017 295.343984 
L 495.553574 295.849499 
L 500.291132 296.342126 
L 505.028689 296.822122 
L 509.766247 297.289746 
L 514.503804 297.745255 
L 519.241361 298.188904 
L 523.978919 298.620948 
L 528.716476 299.041638 
L 533.454034 299.451224 
L 538.191591 299.849955 
" clip-path="url(#p34c9e4ef06)" style="fill: none; stroke: #ff7f0e; stroke-width: 2; stroke-linecap: square"/>
   </g>
   <g id="line2d_27">
    <path d="M 69.173409 216.694615 
L 73.910966 213.754 
L 78.648524 210.786881 
L 83.386081 207.796051 
L 88.123639 204.784362 
L 92.861196 201.754712 
L 97.598753 198.710031 
L 102.336311 195.653274 
L 107.073868 192.587406 
L 111.811426 189.515387 
L 116.548983 186.440168 
L 121.28654 183.364674 
L 126.024098 180.291794 
L 130.761655 177.22437 
L 135.499213 174.165189 
L 140.23677 171.116973 
L 144.974327 168.082369 
L 149.711885 165.063941 
L 154.449442 162.064165 
L 159.187 159.08542 
L 163.924557 156.129983 
L 168.662114 153.200025 
L 173.399672 150.297606 
L 178.137229 147.424671 
L 182.874787 144.583051 
L 187.612344 141.774456 
L 192.349901 139.000477 
L 197.087459 136.262585 
L 201.825016 133.562133 
L 206.562573 130.900354 
L 211.300131 128.278362 
L 216.037688 125.697158 
L 220.775246 123.15763 
L 225.512803 120.660554 
L 230.25036 118.206601 
L 234.987918 115.796336 
L 239.725475 113.430227 
L 244.463033 111.108644 
L 249.20059 108.831866 
L 253.938147 106.600086 
L 258.675705 104.413411 
L 263.413262 102.271873 
L 268.15082 100.175428 
L 272.888377 98.123963 
L 277.625934 96.1173 
L 282.363492 94.1552 
L 287.101049 92.237369 
L 291.838607 90.363458 
L 296.576164 88.533074 
L 301.313721 86.745778 
L 306.051279 85.001092 
L 310.788836 83.298499 
L 315.526393 81.637453 
L 320.263951 80.017377 
L 325.001508 78.437669 
L 329.739066 76.897702 
L 334.476623 75.396831 
L 339.21418 73.934393 
L 343.951738 72.509712 
L 348.689295 71.122098 
L 353.426853 69.770852 
L 358.16441 68.455267 
L 362.901967 67.174631 
L 367.639525 65.928229 
L 372.377082 64.715341 
L 377.11464 63.535249 
L 381.852197 62.387236 
L 386.589754 61.270587 
L 391.327312 60.184589 
L 396.064869 59.128535 
L 400.802427 58.101725 
L 405.539984 57.103462 
L 410.277541 56.133059 
L 415.015099 55.189837 
L 419.752656 54.273124 
L 424.490213 53.38226 
L 429.227771 52.516592 
L 433.965328 51.675479 
L 438.702886 50.85829 
L 443.440443 50.064404 
L 448.178 49.293214 
L 452.915558 48.544121 
L 457.653115 47.81654 
L 462.390673 47.109897 
L 467.12823 46.423628 
L 471.865787 45.757184 
L 476.603345 45.110025 
L 481.340902 44.481626 
L 486.07846 43.87147 
L 490.816017 43.279054 
L 495.553574 42.703888 
L 500.291132 42.14549 
L 505.028689 41.603393 
L 509.766247 41.07714 
L 514.503804 40.566285 
L 519.241361 40.070393 
L 523.978919 39.58904 
L 528.716476 39.121814 
L 533.454034 38.668313 
L 538.191591 38.228144 
" clip-path="url(#p34c9e4ef06)" style="fill: none; stroke: #2ca02c; stroke-width: 2; stroke-linecap: square"/>
   </g>
   <g id="line2d_28">
    <path d="M 45.7225 216.984479 
L 561.6425 216.984479 
" clip-path="url(#p34c9e4ef06)" style="fill: none; stroke-dasharray: 5.55,2.4; stroke-dashoffset: 0; stroke: #808080; stroke-opacity: 0.5; stroke-width: 1.5"/>
   </g>
   <g id="patch_3">
    <path d="M 45.7225 313.557813 
L 45.7225 23.837812 
" style="fill: none; stroke: #000000; stroke-width: 0.8; stroke-linejoin: miter; stroke-linecap: square"/>
   </g>
   <g id="patch_4">
    <path d="M 561.6425 313.557813 
L 561.6425 23.837812 
" style="fill: none; stroke: #000000; stroke-width: 0.8; stroke-linejoin: miter; stroke-linecap: square"/>
   </g>
   <g id="patch_5">
    <path d="M 45.7225 313.557813 
L 561.6425 313.557813 
" style="fill: none; stroke: #000000; stroke-width: 0.8; stroke-linejoin: miter; stroke-linecap: square"/>
   </g>
   <g id="patch_6">
    <path d="M 45.7225 23.837812 
L 561.6425 23.837812 
" style="fill: none; stroke: #000000; stroke-width: 0.8; stroke-linejoin: miter; stroke-linecap: square"/>
   </g>
   <g id="text_15">
    <!-- Softmax Choice Probabilities -->
    <g transform="translate(203.705 17.837812) scale(0.14 -0.14)">
     <defs>
      <path id="DejaVuSans-66" d="M 2375 4863 
L 2375 4384 
L 1825 4384 
Q 1516 4384 1395 4259 
Q 1275 4134 1275 3809 
L 1275 3500 
L 2222 3500 
L 2222 3053 
L 1275 3053 
L 1275 0 
L 697 0 
L 697 3053 
L 147 3053 
L 147 3500 
L 697 3500 
L 697 3744 
Q 697 4328 969 4595 
Q 1241 4863 1831 4863 
L 2375 4863 
z
" transform="scale(0.015625)"/>
      <path id="DejaVuSans-6d" d="M 3328 2828 
Q 3544 3216 3844 3400 
Q 4144 3584 4550 3584 
Q 5097 3584 5394 3201 
Q 5691 2819 5691 2113 
L 5691 0 
L 5113 0 
L 5113 2094 
Q 5113 2597 4934 2840 
Q 4756 3084 4391 3084 
Q 3944 3084 3684 2787 
Q 3425 2491 3425 1978 
L 3425 0 
L 2847 0 
L 2847 2094 
Q 2847 2600 2669 2842 
Q 2491 3084 2119 3084 
Q 1678 3084 1418 2786 
Q 1159 2488 1159 1978 
L 1159 0 
L 581 0 
L 581 3500 
L 1159 3500 
L 1159 2956 
Q 1356 3278 1631 3431 
Q 1906 3584 2284 3584 
Q 2666 3584 2933 3390 
Q 3200 3197 3328 2828 
z
" transform="scale(0.015625)"/>
      <path id="DejaVuSans-78" d="M 3513 3500 
L 2247 1797 
L 3578 0 
L 2900 0 
L 1881 1375 
L 863 0 
L 184 0 
L 1544 1831 
L 300 3500 
L 978 3500 
L 1906 2253 
L 2834 3500 
L 3513 3500 
z
" transform="scale(0.015625)"/>
     </defs>
     <use xlink:href="#DejaVuSans-53"/>
     <use xlink:href="#DejaVuSans-6f" transform="translate(63.476562 0)"/>
     <use xlink:href="#DejaVuSans-66" transform="translate(124.658203 0)"/>
     <use xlink:href="#DejaVuSans-74" transform="translate(158.113281 0)"/>
     <use xlink:href="#DejaVuSans-6d" transform="translate(197.322266 0)"/>
     <use xlink:href="#DejaVuSans-61" transform="translate(294.734375 0)"/>
     <use xlink:href="#DejaVuSans-78" transform="translate(356.013672 0)"/>
     <use xlink:href="#DejaVuSans-20" transform="translate(415.193359 0)"/>
     <use xlink:href="#DejaVuSans-43" transform="translate(446.980469 0)"/>
     <use xlink:href="#DejaVuSans-68" transform="translate(516.804688 0)"/>
     <use xlink:href="#DejaVuSans-6f" transform="translate(580.183594 0)"/>
     <use xlink:href="#DejaVuSans-69" transform="translate(641.365234 0)"/>
     <use xlink:href="#DejaVuSans-63" transform="translate(669.148438 0)"/>
     <use xlink:href="#DejaVuSans-65" transform="translate(724.128906 0)"/>
     <use xlink:href="#DejaVuSans-20" transform="translate(785.652344 0)"/>
     <use xlink:href="#DejaVuSans-50" transform="translate(817.439453 0)"/>
     <use xlink:href="#DejaVuSans-72" transform="translate(875.992188 0)"/>
     <use xlink:href="#DejaVuSans-6f" transform="translate(914.855469 0)"/>
     <use xlink:href="#DejaVuSans-62" transform="translate(976.037109 0)"/>
     <use xlink:href="#DejaVuSans-61" transform="translate(1039.513672 0)"/>
     <use xlink:href="#DejaVuSans-62" transform="translate(1100.792969 0)"/>
     <use xlink:href="#DejaVuSans-69" transform="translate(1164.269531 0)"/>
     <use xlink:href="#DejaVuSans-6c" transform="translate(1192.052734 0)"/>
     <use xlink:href="#DejaVuSans-69" transform="translate(1219.835938 0)"/>
     <use xlink:href="#DejaVuSans-74" transform="translate(1247.619141 0)"/>
     <use xlink:href="#DejaVuSans-69" transform="translate(1286.828125 0)"/>
     <use xlink:href="#DejaVuSans-65" transform="translate(1314.611328 0)"/>
     <use xlink:href="#DejaVuSans-73" transform="translate(1376.134766 0)"/>
    </g>
   </g>
   <g id="legend_1">
    <g id="patch_7">
     <path d="M 52.7225 90.550312 
L 167.4225 90.550312 
Q 169.4225 90.550312 169.4225 88.550312 
L 169.4225 30.837812 
Q 169.4225 28.837812 167.4225 28.837812 
L 52.7225 28.837812 
Q 50.7225 28.837812 50.7225 30.837812 
L 50.7225 88.550312 
Q 50.7225 90.550312 52.7225 90.550312 
z
" style="fill: #ffffff; opacity: 0.8; stroke: #cccccc; stroke-linejoin: miter"/>
    </g>
    <g id="line2d_29">
     <path d="M 54.7225 36.93625 
L 64.7225 36.93625 
L 74.7225 36.93625 
" style="fill: none; stroke: #1f77b4; stroke-width: 2; stroke-linecap: square"/>
    </g>
    <g id="text_16">
     <!-- η=0.2 (low) -->
     <g transform="translate(82.7225 40.43625) scale(0.1 -0.1)">
      <defs>
       <path id="DejaVuSans-3b7" d="M 3513 2113 
L 3513 -1331 
L 2938 -1331 
L 2938 2094 
Q 2938 2591 2744 2837 
Q 2550 3084 2163 3084 
Q 1697 3084 1428 2787 
Q 1159 2491 1159 1978 
L 1159 0 
L 581 0 
L 581 3500 
L 1159 3500 
L 1159 2956 
Q 1366 3272 1644 3428 
Q 1925 3584 2291 3584 
Q 2894 3584 3203 3213 
Q 3513 2838 3513 2113 
z
" transform="scale(0.015625)"/>
       <path id="DejaVuSans-3d" d="M 678 2906 
L 4684 2906 
L 4684 2381 
L 678 2381 
L 678 2906 
z
M 678 1631 
L 4684 1631 
L 4684 1100 
L 678 1100 
L 678 1631 
z
" transform="scale(0.015625)"/>
       <path id="DejaVuSans-77" d="M 269 3500 
L 844 3500 
L 1563 769 
L 2278 3500 
L 2956 3500 
L 3675 769 
L 4391 3500 
L 4966 3500 
L 4050 0 
L 3372 0 
L 2619 2869 
L 1863 0 
L 1184 0 
L 269 3500 
z
" transform="scale(0.015625)"/>
      </defs>
      <use xlink:href="#DejaVuSans-3b7"/>
      <use xlink:href="#DejaVuSans-3d" transform="translate(63.378906 0)"/>
      <use xlink:href="#DejaVuSans-30" transform="translate(147.167969 0)"/>
      <use xlink:href="#DejaVuSans-2e" transform="translate(210.791016 0)"/>
      <use xlink:href="#DejaVuSans-32" transform="translate(242.578125 0)"/>
      <use xlink:href="#DejaVuSans-20" transform="translate(306.201172 0)"/>
      <use xlink:href="#DejaVuSans-28" transform="translate(337.988281 0)"/>
      <use xlink:href="#DejaVuSans-6c" transform="translate(377.001953 0)"/>
      <use xlink:href="#DejaVuSans-6f" transform="translate(404.785156 0)"/>
      <use xlink:href="#DejaVuSans-77" transform="translate(465.966797 0)"/>
      <use xlink:href="#DejaVuSans-29" transform="translate(547.753906 0)"/>
     </g>
    </g>
    <g id="line2d_30">
     <path d="M 54.7225 51.614375 
L 64.7225 51.614375 
L 74.7225 51.614375 
" style="fill: none; stroke: #ff7f0e; stroke-width: 2; stroke-linecap: square"/>
    </g>
    <g id="text_17">
     <!-- η=0.5 (medium) -->
     <g transform="translate(82.7225 55.114375) scale(0.1 -0.1)">
      <defs>
       <path id="DejaVuSans-35" d="M 691 4666 
L 3169 4666 
L 3169 4134 
L 1269 4134 
L 1269 2991 
Q 1406 3038 1543 3061 
Q 1681 3084 1819 3084 
Q 2600 3084 3056 2656 
Q 3513 2228 3513 1497 
Q 3513 744 3044 326 
Q 2575 -91 1722 -91 
Q 1428 -91 1123 -41 
Q 819 9 494 109 
L 494 744 
Q 775 591 1075 516 
Q 1375 441 1709 441 
Q 2250 441 2565 725 
Q 2881 1009 2881 1497 
Q 2881 1984 2565 2268 
Q 2250 2553 1709 2553 
Q 1456 2553 1204 2497 
Q 953 2441 691 2322 
L 691 4666 
z
" transform="scale(0.015625)"/>
       <path id="DejaVuSans-64" d="M 2906 2969 
L 2906 4863 
L 3481 4863 
L 3481 0 
L 2906 0 
L 2906 525 
Q 2725 213 2448 61 
Q 2172 -91 1784 -91 
Q 1150 -91 751 415 
Q 353 922 353 1747 
Q 353 2572 751 3078 
Q 1150 3584 1784 3584 
Q 2172 3584 2448 3432 
Q 2725 3281 2906 2969 
z
M 947 1747 
Q 947 1113 1208 752 
Q 1469 391 1925 391 
Q 2381 391 2643 752 
Q 2906 1113 2906 1747 
Q 2906 2381 2643 2742 
Q 2381 3103 1925 3103 
Q 1469 3103 1208 2742 
Q 947 2381 947 1747 
z
" transform="scale(0.015625)"/>
       <path id="DejaVuSans-75" d="M 544 1381 
L 544 3500 
L 1119 3500 
L 1119 1403 
Q 1119 906 1312 657 
Q 1506 409 1894 409 
Q 2359 409 2629 706 
Q 2900 1003 2900 1516 
L 2900 3500 
L 3475 3500 
L 3475 0 
L 2900 0 
L 2900 538 
Q 2691 219 2414 64 
Q 2138 -91 1772 -91 
Q 1169 -91 856 284 
Q 544 659 544 1381 
z
M 1991 3584 
L 1991 3584 
z
" transform="scale(0.015625)"/>
      </defs>
      <use xlink:href="#DejaVuSans-3b7"/>
      <use xlink:href="#DejaVuSans-3d" transform="translate(63.378906 0)"/>
      <use xlink:href="#DejaVuSans-30" transform="translate(147.167969 0)"/>
      <use xlink:href="#DejaVuSans-2e" transform="translate(210.791016 0)"/>
      <use xlink:href="#DejaVuSans-35" transform="translate(242.578125 0)"/>
      <use xlink:href="#DejaVuSans-20" transform="translate(306.201172 0)"/>
      <use xlink:href="#DejaVuSans-28" transform="translate(337.988281 0)"/>
      <use xlink:href="#DejaVuSans-6d" transform="translate(377.001953 0)"/>
      <use xlink:href="#DejaVuSans-65" transform="translate(474.414062 0)"/>
      <use xlink:href="#DejaVuSans-64" transform="translate(535.9375 0)"/>
      <use xlink:href="#DejaVuSans-69" transform="translate(599.414062 0)"/>
      <use xlink:href="#DejaVuSans-75" transform="translate(627.197266 0)"/>
      <use xlink:href="#DejaVuSans-6d" transform="translate(690.576172 0)"/>
      <use xlink:href="#DejaVuSans-29" transform="translate(787.988281 0)"/>
     </g>
    </g>
    <g id="line2d_31">
     <path d="M 54.7225 66.2925 
L 64.7225 66.2925 
L 74.7225 66.2925 
" style="fill: none; stroke: #2ca02c; stroke-width: 2; stroke-linecap: square"/>
    </g>
    <g id="text_18">
     <!-- η=0.8 (high) -->
     <g transform="translate(82.7225 69.7925) scale(0.1 -0.1)">
      <defs>
       <path id="DejaVuSans-67" d="M 2906 1791 
Q 2906 2416 2648 2759 
Q 2391 3103 1925 3103 
Q 1463 3103 1205 2759 
Q 947 2416 947 1791 
Q 947 1169 1205 825 
Q 1463 481 1925 481 
Q 2391 481 2648 825 
Q 2906 1169 2906 1791 
z
M 3481 434 
Q 3481 -459 3084 -895 
Q 2688 -1331 1869 -1331 
Q 1566 -1331 1297 -1286 
Q 1028 -1241 775 -1147 
L 775 -588 
Q 1028 -725 1275 -790 
Q 1522 -856 1778 -856 
Q 2344 -856 2625 -561 
Q 2906 -266 2906 331 
L 2906 616 
Q 2728 306 2450 153 
Q 2172 0 1784 0 
Q 1141 0 747 490 
Q 353 981 353 1791 
Q 353 2603 747 3093 
Q 1141 3584 1784 3584 
Q 2172 3584 2450 3431 
Q 2728 3278 2906 2969 
L 2906 3500 
L 3481 3500 
L 3481 434 
z
" transform="scale(0.015625)"/>
      </defs>
      <use xlink:href="#DejaVuSans-3b7"/>
      <use xlink:href="#DejaVuSans-3d" transform="translate(63.378906 0)"/>
      <use xlink:href="#DejaVuSans-30" transform="translate(147.167969 0)"/>
      <use xlink:href="#DejaVuSans-2e" transform="translate(210.791016 0)"/>
      <use xlink:href="#DejaVuSans-38" transform="translate(242.578125 0)"/>
      <use xlink:href="#DejaVuSans-20" transform="translate(306.201172 0)"/>
      <use xlink:href="#DejaVuSans-28" transform="translate(337.988281 0)"/>
      <use xlink:href="#DejaVuSans-68" transform="translate(377.001953 0)"/>
      <use xlink:href="#DejaVuSans-69" transform="translate(440.380859 0)"/>
      <use xlink:href="#DejaVuSans-67" transform="translate(468.164062 0)"/>
      <use xlink:href="#DejaVuSans-68" transform="translate(531.640625 0)"/>
      <use xlink:href="#DejaVuSans-29" transform="translate(595.019531 0)"/>
     </g>
    </g>
    <g id="line2d_32">
     <path d="M 54.7225 80.970625 
L 64.7225 80.970625 
L 74.7225 80.970625 
" style="fill: none; stroke-dasharray: 5.55,2.4; stroke-dashoffset: 0; stroke: #808080; stroke-opacity: 0.5; stroke-width: 1.5"/>
    </g>
    <g id="text_19">
     <!-- Uniform (α→0) -->
     <g transform="translate(82.7225 84.470625) scale(0.1 -0.1)">
      <defs>
       <path id="DejaVuSans-55" d="M 556 4666 
L 1191 4666 
L 1191 1831 
Q 1191 1081 1462 751 
Q 1734 422 2344 422 
Q 2950 422 3222 751 
Q 3494 1081 3494 1831 
L 3494 4666 
L 4128 4666 
L 4128 1753 
Q 4128 841 3676 375 
Q 3225 -91 2344 -91 
Q 1459 -91 1007 375 
Q 556 841 556 1753 
L 556 4666 
z
" transform="scale(0.015625)"/>
       <path id="DejaVuSans-2192" d="M 5050 2147 
L 5050 1866 
L 3822 638 
L 3447 1013 
L 4175 1741 
L 366 1741 
L 366 2272 
L 4175 2272 
L 3447 3000 
L 3822 3375 
L 5050 2147 
z
" transform="scale(0.015625)"/>
      </defs>
      <use xlink:href="#DejaVuSans-55"/>
      <use xlink:href="#DejaVuSans-6e" transform="translate(73.193359 0)"/>
      <use xlink:href="#DejaVuSans-69" transform="translate(136.572266 0)"/>
      <use xlink:href="#DejaVuSans-66" transform="translate(164.355469 0)"/>
      <use xlink:href="#DejaVuSans-6f" transform="translate(199.560547 0)"/>
      <use xlink:href="#DejaVuSans-72" transform="translate(260.742188 0)"/>
      <use xlink:href="#DejaVuSans-6d" transform="translate(300.105469 0)"/>
      <use xlink:href="#DejaVuSans-20" transform="translate(397.517578 0)"/>
      <use xlink:href="#DejaVuSans-28" transform="translate(429.304688 0)"/>
      <use xlink:href="#DejaVuSans-3b1" transform="translate(468.318359 0)"/>
      <use xlink:href="#DejaVuSans-2192" transform="translate(534.236328 0)"/>
      <use xlink:href="#DejaVuSans-30" transform="translate(618.025391 0)"/>
      <use xlink:href="#DejaVuSans-29" transform="translate(681.648438 0)"/>
     </g>
    </g>
   </g>
  </g>
 </g>
 <defs>
  <clipPath id="p34c9e4ef06">
   <rect x="45.7225" y="23.837812" width="515.92" height="289.72"/>
  </clipPath>
 </defs>
</svg>
