<?xml version="1.0" encoding="utf-8" standalone="no"?>
<!DOCTYPE svg PUBLIC "-//W3C//DTD SVG 1.1//EN"
  "http://www.w3.org/Graphics/SVG/1.1/DTD/svg11.dtd">
<svg xmlns:xlink="http://www.w3.org/1999/xlink" width="999.761168pt" height="352.482188pt" viewBox="0 0 999.761168 352.482188" xmlns="http://www.w3.org/2000/svg" version="1.1">
 <metadata>
  <rdf:RDF xmlns:dc="http://purl.org/dc/elements/1.1/" xmlns:cc="http://creativecommons.org/ns#" xmlns:rdf="http://www.w3.org/1999/02/22-rdf-syntax-ns#">
   <cc:Work>
    <dc:type rdf:resource="http://purl.org/dc/dcmitype/StillImage"/>
    <dc:date>2026-04-25T13:22:48.604601</dc:date>
    <dc:format>image/svg+xml</dc:format>
    <dc:creator>
     <cc:Agent>
      <dc:title>Matplotlib v3.10.8, https://matplotlib.org/</dc:title>
     </cc:Agent>
    </dc:creator>
   </cc:Work>
  </rdf:RDF>
 </metadata>
 <defs>
  <style type="text/css">*{stroke-linejoin: round; stroke-linecap: butt}</style>
 </defs>
 <g id="figure_1">
  <g id="patch_1">
   <path d="M -0 352.482188 
L 999.761168 352.482188 
L 999.761168 0 
L -0 0 
z
" style="fill: #ffffff"/>
  </g>
  <g id="axes_1">
   <g id="patch_2">
    <path d="M 44.749063 313.958125 
L 491.886775 313.958125 
L 491.886775 22.318125 
L 44.749063 22.318125 
z
" style="fill: #ffffff"/>
   </g>
   <g id="matplotlib.axis_1">
    <g id="xtick_1">
     <g id="line2d_1">
      <path d="M 44.749063 313.958125 
L 44.749063 22.318125 
" clip-path="url(#pcf9d07c5f8)" style="fill: none; stroke: #b0b0b0; stroke-opacity: 0.3; stroke-width: 0.8; stroke-linecap: square"/>
     </g>
     <g id="line2d_2">
      <defs>
       <path id="maed90b0590" d="M 0 0 
L 0 3.5 
" style="stroke: #000000; stroke-width: 0.8"/>
      </defs>
      <g>
       <use xlink:href="#maed90b0590" x="44.749063" y="313.958125" style="stroke: #000000; stroke-width: 0.8"/>
      </g>
     </g>
     <g id="text_1">
      <!-- 0 -->
      <g transform="translate(41.567813 328.556563) scale(0.1 -0.1)">
       <defs>
        <path id="DejaVuSans-30" d="M 2034 4250 
Q 1547 4250 1301 3770 
Q 1056 3291 1056 2328 
Q 1056 1369 1301 889 
Q 1547 409 2034 409 
Q 2525 409 2770 889 
Q 3016 1369 3016 2328 
Q 3016 3291 2770 3770 
Q 2525 4250 2034 4250 
z
M 2034 4750 
Q 2819 4750 3233 4129 
Q 3647 3509 3647 2328 
Q 3647 1150 3233 529 
Q 2819 -91 2034 -91 
Q 1250 -91 836 529 
Q 422 1150 422 2328 
Q 422 3509 836 4129 
Q 1250 4750 2034 4750 
z
" transform="scale(0.015625)"/>
       </defs>
       <use xlink:href="#DejaVuSans-30"/>
      </g>
     </g>
    </g>
    <g id="xtick_2">
     <g id="line2d_3">
      <path d="M 134.176605 313.958125 
L 134.176605 22.318125 
" clip-path="url(#pcf9d07c5f8)" style="fill: none; stroke: #b0b0b0; stroke-opacity: 0.3; stroke-width: 0.8; stroke-linecap: square"/>
     </g>
     <g id="line2d_4">
      <g>
       <use xlink:href="#maed90b0590" x="134.176605" y="313.958125" style="stroke: #000000; stroke-width: 0.8"/>
      </g>
     </g>
     <g id="text_2">
      <!-- 1 -->
      <g transform="translate(130.995355 328.556563) scale(0.1 -0.1)">
       <defs>
        <path id="DejaVuSans-31" d="M 794 531 
L 1825 531 
L 1825 4091 
L 703 3866 
L 703 4441 
L 1819 4666 
L 2450 4666 
L 2450 531 
L 3481 531 
L 3481 0 
L 794 0 
L 794 531 
z
" transform="scale(0.015625)"/>
       </defs>
       <use xlink:href="#DejaVuSans-31"/>
      </g>
     </g>
    </g>
    <g id="xtick_3">
     <g id="line2d_5">
      <path d="M 223.604147 313.958125 
L 223.604147 22.318125 
" clip-path="url(#pcf9d07c5f8)" style="fill: none; stroke: #b0b0b0; stroke-opacity: 0.3; stroke-width: 0.8; stroke-linecap: square"/>
     </g>
     <g id="line2d_6">
      <g>
       <use xlink:href="#maed90b0590" x="223.604147" y="313.958125" style="stroke: #000000; stroke-width: 0.8"/>
      </g>
     </g>
     <g id="text_3">
      <!-- 2 -->
      <g transform="translate(220.422897 328.556563) scale(0.1 -0.1)">
       <defs>
        <path id="DejaVuSans-32" d="M 1228 531 
L 3431 531 
L 3431 0 
L 469 0 
L 469 531 
Q 828 903 1448 1529 
Q 2069 2156 2228 2338 
Q 2531 2678 2651 2914 
Q 2772 3150 2772 3378 
Q 2772 3750 2511 3984 
Q 2250 4219 1831 4219 
Q 1534 4219 1204 4116 
Q 875 4013 500 3803 
L 500 4441 
Q 881 4594 1212 4672 
Q 1544 4750 1819 4750 
Q 2544 4750 2975 4387 
Q 3406 4025 3406 3419 
Q 3406 3131 3298 2873 
Q 3191 2616 2906 2266 
Q 2828 2175 2409 1742 
Q 1991 1309 1228 531 
z
" transform="scale(0.015625)"/>
       </defs>
       <use xlink:href="#DejaVuSans-32"/>
      </g>
     </g>
    </g>
    <g id="xtick_4">
     <g id="line2d_7">
      <path d="M 313.03169 313.958125 
L 313.03169 22.318125 
" clip-path="url(#pcf9d07c5f8)" style="fill: none; stroke: #b0b0b0; stroke-opacity: 0.3; stroke-width: 0.8; stroke-linecap: square"/>
     </g>
     <g id="line2d_8">
      <g>
       <use xlink:href="#maed90b0590" x="313.03169" y="313.958125" style="stroke: #000000; stroke-width: 0.8"/>
      </g>
     </g>
     <g id="text_4">
      <!-- 3 -->
      <g transform="translate(309.85044 328.556563) scale(0.1 -0.1)">
       <defs>
        <path id="DejaVuSans-33" d="M 2597 2516 
Q 3050 2419 3304 2112 
Q 3559 1806 3559 1356 
Q 3559 666 3084 287 
Q 2609 -91 1734 -91 
Q 1441 -91 1130 -33 
Q 819 25 488 141 
L 488 750 
Q 750 597 1062 519 
Q 1375 441 1716 441 
Q 2309 441 2620 675 
Q 2931 909 2931 1356 
Q 2931 1769 2642 2001 
Q 2353 2234 1838 2234 
L 1294 2234 
L 1294 2753 
L 1863 2753 
Q 2328 2753 2575 2939 
Q 2822 3125 2822 3475 
Q 2822 3834 2567 4026 
Q 2313 4219 1838 4219 
Q 1578 4219 1281 4162 
Q 984 4106 628 3988 
L 628 4550 
Q 988 4650 1302 4700 
Q 1616 4750 1894 4750 
Q 2613 4750 3031 4423 
Q 3450 4097 3450 3541 
Q 3450 3153 3228 2886 
Q 3006 2619 2597 2516 
z
" transform="scale(0.015625)"/>
       </defs>
       <use xlink:href="#DejaVuSans-33"/>
      </g>
     </g>
    </g>
    <g id="xtick_5">
     <g id="line2d_9">
      <path d="M 402.459232 313.958125 
L 402.459232 22.318125 
" clip-path="url(#pcf9d07c5f8)" style="fill: none; stroke: #b0b0b0; stroke-opacity: 0.3; stroke-width: 0.8; stroke-linecap: square"/>
     </g>
     <g id="line2d_10">
      <g>
       <use xlink:href="#maed90b0590" x="402.459232" y="313.958125" style="stroke: #000000; stroke-width: 0.8"/>
      </g>
     </g>
     <g id="text_5">
      <!-- 4 -->
      <g transform="translate(399.277982 328.556563) scale(0.1 -0.1)">
       <defs>
        <path id="DejaVuSans-34" d="M 2419 4116 
L 825 1625 
L 2419 1625 
L 2419 4116 
z
M 2253 4666 
L 3047 4666 
L 3047 1625 
L 3713 1625 
L 3713 1100 
L 3047 1100 
L 3047 0 
L 2419 0 
L 2419 1100 
L 313 1100 
L 313 1709 
L 2253 4666 
z
" transform="scale(0.015625)"/>
       </defs>
       <use xlink:href="#DejaVuSans-34"/>
      </g>
     </g>
    </g>
    <g id="xtick_6">
     <g id="line2d_11">
      <path d="M 491.886775 313.958125 
L 491.886775 22.318125 
" clip-path="url(#pcf9d07c5f8)" style="fill: none; stroke: #b0b0b0; stroke-opacity: 0.3; stroke-width: 0.8; stroke-linecap: square"/>
     </g>
     <g id="line2d_12">
      <g>
       <use xlink:href="#maed90b0590" x="491.886775" y="313.958125" style="stroke: #000000; stroke-width: 0.8"/>
      </g>
     </g>
     <g id="text_6">
      <!-- 5 -->
      <g transform="translate(488.705525 328.556563) scale(0.1 -0.1)">
       <defs>
        <path id="DejaVuSans-35" d="M 691 4666 
L 3169 4666 
L 3169 4134 
L 1269 4134 
L 1269 2991 
Q 1406 3038 1543 3061 
Q 1681 3084 1819 3084 
Q 2600 3084 3056 2656 
Q 3513 2228 3513 1497 
Q 3513 744 3044 326 
Q 2575 -91 1722 -91 
Q 1428 -91 1123 -41 
Q 819 9 494 109 
L 494 744 
Q 775 591 1075 516 
Q 1375 441 1709 441 
Q 2250 441 2565 725 
Q 2881 1009 2881 1497 
Q 2881 1984 2565 2268 
Q 2250 2553 1709 2553 
Q 1456 2553 1204 2497 
Q 953 2441 691 2322 
L 691 4666 
z
" transform="scale(0.015625)"/>
       </defs>
       <use xlink:href="#DejaVuSans-35"/>
      </g>
     </g>
    </g>
    <g id="text_7">
     <!-- κ -->
     <g transform="translate(265.076356 342.994531) scale(0.11 -0.11)">
      <defs>
       <path id="DejaVuSans-3ba" d="M 597 3500 
L 1191 3500 
L 1191 2047 
L 2700 3500 
L 3400 3500 
L 2022 2181 
L 3616 0 
L 2913 0 
L 1619 1806 
L 1191 1403 
L 1191 0 
L 597 0 
L 597 3500 
z
" transform="scale(0.015625)"/>
      </defs>
      <use xlink:href="#DejaVuSans-3ba"/>
     </g>
    </g>
   </g>
   <g id="matplotlib.axis_2">
    <g id="ytick_1">
     <g id="line2d_13">
      <path d="M 44.749063 300.701761 
L 491.886775 300.701761 
" clip-path="url(#pcf9d07c5f8)" style="fill: none; stroke: #b0b0b0; stroke-opacity: 0.3; stroke-width: 0.8; stroke-linecap: square"/>
     </g>
     <g id="line2d_14">
      <defs>
       <path id="m2213bec329" d="M 0 0 
L -3.5 0 
" style="stroke: #000000; stroke-width: 0.8"/>
      </defs>
      <g>
       <use xlink:href="#m2213bec329" x="44.749063" y="300.701761" style="stroke: #000000; stroke-width: 0.8"/>
      </g>
     </g>
     <g id="text_8">
      <!-- 0.0 -->
      <g transform="translate(21.845938 304.50098) scale(0.1 -0.1)">
       <defs>
        <path id="DejaVuSans-2e" d="M 684 794 
L 1344 794 
L 1344 0 
L 684 0 
L 684 794 
z
" transform="scale(0.015625)"/>
       </defs>
       <use xlink:href="#DejaVuSans-30"/>
       <use xlink:href="#DejaVuSans-2e" transform="translate(63.623047 0)"/>
       <use xlink:href="#DejaVuSans-30" transform="translate(95.410156 0)"/>
      </g>
     </g>
    </g>
    <g id="ytick_2">
     <g id="line2d_15">
      <path d="M 44.749063 254.142101 
L 491.886775 254.142101 
" clip-path="url(#pcf9d07c5f8)" style="fill: none; stroke: #b0b0b0; stroke-opacity: 0.3; stroke-width: 0.8; stroke-linecap: square"/>
     </g>
     <g id="line2d_16">
      <g>
       <use xlink:href="#m2213bec329" x="44.749063" y="254.142101" style="stroke: #000000; stroke-width: 0.8"/>
      </g>
     </g>
     <g id="text_9">
      <!-- 0.2 -->
      <g transform="translate(21.845938 257.941319) scale(0.1 -0.1)">
       <use xlink:href="#DejaVuSans-30"/>
       <use xlink:href="#DejaVuSans-2e" transform="translate(63.623047 0)"/>
       <use xlink:href="#DejaVuSans-32" transform="translate(95.410156 0)"/>
      </g>
     </g>
    </g>
    <g id="ytick_3">
     <g id="line2d_17">
      <path d="M 44.749063 207.58244 
L 491.886775 207.58244 
" clip-path="url(#pcf9d07c5f8)" style="fill: none; stroke: #b0b0b0; stroke-opacity: 0.3; stroke-width: 0.8; stroke-linecap: square"/>
     </g>
     <g id="line2d_18">
      <g>
       <use xlink:href="#m2213bec329" x="44.749063" y="207.58244" style="stroke: #000000; stroke-width: 0.8"/>
      </g>
     </g>
     <g id="text_10">
      <!-- 0.4 -->
      <g transform="translate(21.845938 211.381659) scale(0.1 -0.1)">
       <use xlink:href="#DejaVuSans-30"/>
       <use xlink:href="#DejaVuSans-2e" transform="translate(63.623047 0)"/>
       <use xlink:href="#DejaVuSans-34" transform="translate(95.410156 0)"/>
      </g>
     </g>
    </g>
    <g id="ytick_4">
     <g id="line2d_19">
      <path d="M 44.749063 161.022779 
L 491.886775 161.022779 
" clip-path="url(#pcf9d07c5f8)" style="fill: none; stroke: #b0b0b0; stroke-opacity: 0.3; stroke-width: 0.8; stroke-linecap: square"/>
     </g>
     <g id="line2d_20">
      <g>
       <use xlink:href="#m2213bec329" x="44.749063" y="161.022779" style="stroke: #000000; stroke-width: 0.8"/>
      </g>
     </g>
     <g id="text_11">
      <!-- 0.6 -->
      <g transform="translate(21.845938 164.821998) scale(0.1 -0.1)">
       <defs>
        <path id="DejaVuSans-36" d="M 2113 2584 
Q 1688 2584 1439 2293 
Q 1191 2003 1191 1497 
Q 1191 994 1439 701 
Q 1688 409 2113 409 
Q 2538 409 2786 701 
Q 3034 994 3034 1497 
Q 3034 2003 2786 2293 
Q 2538 2584 2113 2584 
z
M 3366 4563 
L 3366 3988 
Q 3128 4100 2886 4159 
Q 2644 4219 2406 4219 
Q 1781 4219 1451 3797 
Q 1122 3375 1075 2522 
Q 1259 2794 1537 2939 
Q 1816 3084 2150 3084 
Q 2853 3084 3261 2657 
Q 3669 2231 3669 1497 
Q 3669 778 3244 343 
Q 2819 -91 2113 -91 
Q 1303 -91 875 529 
Q 447 1150 447 2328 
Q 447 3434 972 4092 
Q 1497 4750 2381 4750 
Q 2619 4750 2861 4703 
Q 3103 4656 3366 4563 
z
" transform="scale(0.015625)"/>
       </defs>
       <use xlink:href="#DejaVuSans-30"/>
       <use xlink:href="#DejaVuSans-2e" transform="translate(63.623047 0)"/>
       <use xlink:href="#DejaVuSans-36" transform="translate(95.410156 0)"/>
      </g>
     </g>
    </g>
    <g id="ytick_5">
     <g id="line2d_21">
      <path d="M 44.749063 114.463118 
L 491.886775 114.463118 
" clip-path="url(#pcf9d07c5f8)" style="fill: none; stroke: #b0b0b0; stroke-opacity: 0.3; stroke-width: 0.8; stroke-linecap: square"/>
     </g>
     <g id="line2d_22">
      <g>
       <use xlink:href="#m2213bec329" x="44.749063" y="114.463118" style="stroke: #000000; stroke-width: 0.8"/>
      </g>
     </g>
     <g id="text_12">
      <!-- 0.8 -->
      <g transform="translate(21.845938 118.262337) scale(0.1 -0.1)">
       <defs>
        <path id="DejaVuSans-38" d="M 2034 2216 
Q 1584 2216 1326 1975 
Q 1069 1734 1069 1313 
Q 1069 891 1326 650 
Q 1584 409 2034 409 
Q 2484 409 2743 651 
Q 3003 894 3003 1313 
Q 3003 1734 2745 1975 
Q 2488 2216 2034 2216 
z
M 1403 2484 
Q 997 2584 770 2862 
Q 544 3141 544 3541 
Q 544 4100 942 4425 
Q 1341 4750 2034 4750 
Q 2731 4750 3128 4425 
Q 3525 4100 3525 3541 
Q 3525 3141 3298 2862 
Q 3072 2584 2669 2484 
Q 3125 2378 3379 2068 
Q 3634 1759 3634 1313 
Q 3634 634 3220 271 
Q 2806 -91 2034 -91 
Q 1263 -91 848 271 
Q 434 634 434 1313 
Q 434 1759 690 2068 
Q 947 2378 1403 2484 
z
M 1172 3481 
Q 1172 3119 1398 2916 
Q 1625 2713 2034 2713 
Q 2441 2713 2670 2916 
Q 2900 3119 2900 3481 
Q 2900 3844 2670 4047 
Q 2441 4250 2034 4250 
Q 1625 4250 1398 4047 
Q 1172 3844 1172 3481 
z
" transform="scale(0.015625)"/>
       </defs>
       <use xlink:href="#DejaVuSans-30"/>
       <use xlink:href="#DejaVuSans-2e" transform="translate(63.623047 0)"/>
       <use xlink:href="#DejaVuSans-38" transform="translate(95.410156 0)"/>
      </g>
     </g>
    </g>
    <g id="ytick_6">
     <g id="line2d_23">
      <path d="M 44.749063 67.903458 
L 491.886775 67.903458 
" clip-path="url(#pcf9d07c5f8)" style="fill: none; stroke: #b0b0b0; stroke-opacity: 0.3; stroke-width: 0.8; stroke-linecap: square"/>
     </g>
     <g id="line2d_24">
      <g>
       <use xlink:href="#m2213bec329" x="44.749063" y="67.903458" style="stroke: #000000; stroke-width: 0.8"/>
      </g>
     </g>
     <g id="text_13">
      <!-- 1.0 -->
      <g transform="translate(21.845938 71.702676) scale(0.1 -0.1)">
       <use xlink:href="#DejaVuSans-31"/>
       <use xlink:href="#DejaVuSans-2e" transform="translate(63.623047 0)"/>
       <use xlink:href="#DejaVuSans-30" transform="translate(95.410156 0)"/>
      </g>
     </g>
    </g>
    <g id="text_14">
     <!-- Density -->
     <g transform="translate(15.558281 189.047578) rotate(-90) scale(0.11 -0.11)">
      <defs>
       <path id="DejaVuSans-44" d="M 1259 4147 
L 1259 519 
L 2022 519 
Q 2988 519 3436 956 
Q 3884 1394 3884 2338 
Q 3884 3275 3436 3711 
Q 2988 4147 2022 4147 
L 1259 4147 
z
M 628 4666 
L 1925 4666 
Q 3281 4666 3915 4102 
Q 4550 3538 4550 2338 
Q 4550 1131 3912 565 
Q 3275 0 1925 0 
L 628 0 
L 628 4666 
z
" transform="scale(0.015625)"/>
       <path id="DejaVuSans-65" d="M 3597 1894 
L 3597 1613 
L 953 1613 
Q 991 1019 1311 708 
Q 1631 397 2203 397 
Q 2534 397 2845 478 
Q 3156 559 3463 722 
L 3463 178 
Q 3153 47 2828 -22 
Q 2503 -91 2169 -91 
Q 1331 -91 842 396 
Q 353 884 353 1716 
Q 353 2575 817 3079 
Q 1281 3584 2069 3584 
Q 2775 3584 3186 3129 
Q 3597 2675 3597 1894 
z
M 3022 2063 
Q 3016 2534 2758 2815 
Q 2500 3097 2075 3097 
Q 1594 3097 1305 2825 
Q 1016 2553 972 2059 
L 3022 2063 
z
" transform="scale(0.015625)"/>
       <path id="DejaVuSans-6e" d="M 3513 2113 
L 3513 0 
L 2938 0 
L 2938 2094 
Q 2938 2591 2744 2837 
Q 2550 3084 2163 3084 
Q 1697 3084 1428 2787 
Q 1159 2491 1159 1978 
L 1159 0 
L 581 0 
L 581 3500 
L 1159 3500 
L 1159 2956 
Q 1366 3272 1645 3428 
Q 1925 3584 2291 3584 
Q 2894 3584 3203 3211 
Q 3513 2838 3513 2113 
z
" transform="scale(0.015625)"/>
       <path id="DejaVuSans-73" d="M 2834 3397 
L 2834 2853 
Q 2591 2978 2328 3040 
Q 2066 3103 1784 3103 
Q 1356 3103 1142 2972 
Q 928 2841 928 2578 
Q 928 2378 1081 2264 
Q 1234 2150 1697 2047 
L 1894 2003 
Q 2506 1872 2764 1633 
Q 3022 1394 3022 966 
Q 3022 478 2636 193 
Q 2250 -91 1575 -91 
Q 1294 -91 989 -36 
Q 684 19 347 128 
L 347 722 
Q 666 556 975 473 
Q 1284 391 1588 391 
Q 1994 391 2212 530 
Q 2431 669 2431 922 
Q 2431 1156 2273 1281 
Q 2116 1406 1581 1522 
L 1381 1569 
Q 847 1681 609 1914 
Q 372 2147 372 2553 
Q 372 3047 722 3315 
Q 1072 3584 1716 3584 
Q 2034 3584 2315 3537 
Q 2597 3491 2834 3397 
z
" transform="scale(0.015625)"/>
       <path id="DejaVuSans-69" d="M 603 3500 
L 1178 3500 
L 1178 0 
L 603 0 
L 603 3500 
z
M 603 4863 
L 1178 4863 
L 1178 4134 
L 603 4134 
L 603 4863 
z
" transform="scale(0.015625)"/>
       <path id="DejaVuSans-74" d="M 1172 4494 
L 1172 3500 
L 2356 3500 
L 2356 3053 
L 1172 3053 
L 1172 1153 
Q 1172 725 1289 603 
Q 1406 481 1766 481 
L 2356 481 
L 2356 0 
L 1766 0 
Q 1100 0 847 248 
Q 594 497 594 1153 
L 594 3053 
L 172 3053 
L 172 3500 
L 594 3500 
L 594 4494 
L 1172 4494 
z
" transform="scale(0.015625)"/>
       <path id="DejaVuSans-79" d="M 2059 -325 
Q 1816 -950 1584 -1140 
Q 1353 -1331 966 -1331 
L 506 -1331 
L 506 -850 
L 844 -850 
Q 1081 -850 1212 -737 
Q 1344 -625 1503 -206 
L 1606 56 
L 191 3500 
L 800 3500 
L 1894 763 
L 2988 3500 
L 3597 3500 
L 2059 -325 
z
" transform="scale(0.015625)"/>
      </defs>
      <use xlink:href="#DejaVuSans-44"/>
      <use xlink:href="#DejaVuSans-65" transform="translate(77.001953 0)"/>
      <use xlink:href="#DejaVuSans-6e" transform="translate(138.525391 0)"/>
      <use xlink:href="#DejaVuSans-73" transform="translate(201.904297 0)"/>
      <use xlink:href="#DejaVuSans-69" transform="translate(254.003906 0)"/>
      <use xlink:href="#DejaVuSans-74" transform="translate(281.787109 0)"/>
      <use xlink:href="#DejaVuSans-79" transform="translate(320.996094 0)"/>
     </g>
    </g>
   </g>
   <g id="line2d_25">
    <path d="M 45.643338 300.701761 
L 54.586092 300.602745 
L 56.374643 300.355444 
L 58.163194 299.775526 
L 59.057469 299.296458 
L 59.951745 298.654146 
L 60.84602 297.820834 
L 61.740296 296.770124 
L 62.634571 295.477893 
L 63.528846 293.923057 
L 64.423122 292.088154 
L 65.317397 289.959752 
L 67.105948 284.790115 
L 68.894499 278.392388 
L 70.68305 270.8098 
L 72.471601 262.141398 
L 74.260152 252.529755 
L 76.942978 236.726928 
L 80.520079 214.084909 
L 86.780007 174.322745 
L 89.462834 158.588802 
L 92.14566 144.19198 
L 94.828486 131.376651 
L 96.617037 123.789686 
L 98.405588 116.998625 
L 100.194139 111.013798 
L 101.98269 105.833485 
L 103.771241 101.445777 
L 105.559791 97.830325 
L 107.348342 94.95996 
L 109.136893 92.802155 
L 110.031169 91.979158 
L 110.925444 91.320331 
L 111.819719 90.820657 
L 112.713995 90.475001 
L 113.60827 90.278136 
L 114.502546 90.22477 
L 115.396821 90.309569 
L 116.291096 90.527177 
L 117.185372 90.872239 
L 118.973923 91.923397 
L 120.762474 93.420794 
L 122.551024 95.323122 
L 124.339575 97.590354 
L 126.128126 100.184016 
L 128.810952 104.606739 
L 131.493779 109.565849 
L 134.176605 114.955589 
L 137.753707 122.648303 
L 142.225084 132.804846 
L 161.004868 176.196647 
L 165.476245 185.791562 
L 169.947622 194.909041 
L 174.418999 203.508774 
L 178.890376 211.570328 
L 183.361753 219.088532 
L 186.938855 224.715801 
L 190.515957 230.006383 
L 194.093058 234.970061 
L 197.67016 239.618527 
L 201.247262 243.964814 
L 204.824364 248.02284 
L 208.401465 251.807036 
L 212.872842 256.174519 
L 217.344219 260.165539 
L 221.815597 263.808031 
L 226.286974 267.128971 
L 230.758351 270.154113 
L 235.229728 272.907816 
L 239.701105 275.41296 
L 244.172482 277.690898 
L 249.538135 280.152335 
L 254.903787 282.34653 
L 260.26944 284.301982 
L 265.635092 286.04441 
L 271.89502 287.838732 
L 278.154948 289.407157 
L 285.309152 290.959665 
L 292.463355 292.291656 
L 300.511834 293.566083 
L 309.454588 294.748612 
L 319.291618 295.81572 
L 330.022923 296.754338 
L 342.542779 297.614995 
L 356.851186 298.362183 
L 373.842419 299.009095 
L 393.516478 299.529552 
L 418.55619 299.959097 
L 451.644381 300.287794 
L 491.886775 300.492807 
L 491.886775 300.492807 
" clip-path="url(#pcf9d07c5f8)" style="fill: none; stroke-dasharray: 7.4,3.2; stroke-dashoffset: 0; stroke: #000000; stroke-width: 2"/>
   </g>
   <g id="line2d_26">
    <path d="M 45.643338 300.701761 
L 53.691817 300.650978 
L 55.480368 300.462133 
L 56.374643 300.25085 
L 57.268918 299.913407 
L 58.163194 299.405751 
L 59.057469 298.679527 
L 59.951745 297.684217 
L 60.84602 296.369437 
L 61.740296 294.687187 
L 62.634571 292.593891 
L 63.528846 290.052121 
L 64.423122 287.031921 
L 65.317397 283.511725 
L 66.211673 279.478862 
L 68.000224 269.869398 
L 69.788774 258.277362 
L 71.577325 244.89832 
L 73.365876 230.022077 
L 76.048702 205.681686 
L 84.097181 130.003243 
L 86.780007 107.562449 
L 88.568558 94.059102 
L 90.357109 81.882002 
L 92.14566 71.11854 
L 93.934211 61.816523 
L 95.722762 53.989376 
L 97.511313 47.621488 
L 98.405588 44.973238 
L 99.299863 42.67343 
L 100.194139 40.714221 
L 101.088414 39.086866 
L 101.98269 37.781853 
L 102.876965 36.789017 
L 103.771241 36.097659 
L 104.665516 35.69664 
L 105.559791 35.574489 
L 106.454067 35.719478 
L 107.348342 36.119713 
L 108.242618 36.763198 
L 109.136893 37.637909 
L 110.031169 38.731846 
L 111.819719 41.529845 
L 113.60827 45.06359 
L 115.396821 49.24269 
L 117.185372 53.980894 
L 119.868198 61.959784 
L 122.551024 70.762164 
L 126.128126 83.395903 
L 131.493779 103.379564 
L 140.436533 136.753845 
L 144.90791 152.586013 
L 149.379287 167.511593 
L 152.956389 178.708482 
L 156.533491 189.205048 
L 160.110592 198.988576 
L 163.687694 208.063066 
L 167.264796 216.444939 
L 170.841897 224.159535 
L 174.418999 231.238313 
L 177.996101 237.716641 
L 181.573202 243.632071 
L 185.150304 249.023022 
L 188.727406 253.92779 
L 192.304508 258.383823 
L 195.881609 262.427206 
L 199.458711 266.092312 
L 203.035813 269.41158 
L 206.612914 272.415395 
L 210.190016 275.132041 
L 213.767118 277.587708 
L 217.344219 279.806542 
L 221.815597 282.28065 
L 226.286974 284.458466 
L 230.758351 286.374994 
L 235.229728 288.061356 
L 240.595381 289.819789 
L 245.961033 291.328026 
L 251.326686 292.621943 
L 257.586614 293.901498 
L 264.740817 295.110652 
L 271.89502 296.098312 
L 279.943499 296.995959 
L 289.780529 297.851486 
L 300.511834 298.553952 
L 313.03169 299.150832 
L 328.234372 299.650378 
L 347.908432 300.05917 
L 373.842419 300.359814 
L 412.296262 300.562591 
L 482.049745 300.671587 
L 491.886775 300.677201 
L 491.886775 300.677201 
" clip-path="url(#pcf9d07c5f8)" style="fill: none; stroke: #fda762; stroke-width: 1.5; stroke-linecap: square"/>
   </g>
   <g id="line2d_27">
    <path d="M 45.643338 300.701761 
L 67.105948 300.59873 
L 69.788774 300.403759 
L 72.471601 299.979918 
L 74.260152 299.498494 
L 76.048702 298.798826 
L 77.837253 297.826351 
L 79.625804 296.526143 
L 81.414355 294.845842 
L 83.202906 292.738452 
L 84.991457 290.164777 
L 86.780007 287.095348 
L 88.568558 283.511778 
L 90.357109 279.4075 
L 92.14566 274.787924 
L 93.934211 269.670076 
L 96.617037 261.12262 
L 99.299863 251.652237 
L 101.98269 241.430191 
L 105.559791 226.97475 
L 117.185372 179.195478 
L 120.762474 165.921255 
L 123.4453 156.793723 
L 126.128126 148.488535 
L 128.810952 141.079076 
L 130.599503 136.662233 
L 132.388054 132.674679 
L 134.176605 129.121227 
L 135.965156 126.002913 
L 137.753707 123.317347 
L 139.542258 121.059065 
L 141.330808 119.219881 
L 143.119359 117.789232 
L 144.90791 116.754513 
L 146.696461 116.101396 
L 148.485012 115.814127 
L 150.273563 115.87581 
L 152.062113 116.268663 
L 153.850664 116.974257 
L 155.639215 117.973734 
L 157.427766 119.247997 
L 159.216317 120.777885 
L 161.004868 122.544326 
L 163.687694 125.59638 
L 166.37052 129.076253 
L 169.053347 132.924258 
L 172.630448 138.529998 
L 176.20755 144.564614 
L 180.678927 152.539165 
L 187.83313 165.848572 
L 199.458711 187.529749 
L 205.718639 198.683392 
L 211.084292 207.768887 
L 215.555669 214.950716 
L 220.027046 221.75109 
L 224.498423 228.155871 
L 228.9698 234.159827 
L 233.441177 239.764836 
L 237.912554 244.978334 
L 242.383931 249.811996 
L 246.855309 254.280616 
L 251.326686 258.401183 
L 255.798063 262.192125 
L 260.26944 265.672685 
L 264.740817 268.86244 
L 269.212194 271.780908 
L 273.683571 274.447254 
L 278.154948 276.88007 
L 283.520601 279.516268 
L 288.886253 281.871073 
L 294.251906 283.971786 
L 299.617559 285.843709 
L 305.877487 287.769406 
L 312.137415 289.448894 
L 318.397342 290.912266 
L 325.551546 292.35432 
L 333.600025 293.724634 
L 341.648504 294.869474 
L 350.591258 295.921377 
L 360.428287 296.858891 
L 372.053868 297.730208 
L 385.467999 298.48993 
L 400.670682 299.115516 
L 418.55619 299.625367 
L 440.913076 300.035073 
L 470.424165 300.343841 
L 491.886775 300.47232 
L 491.886775 300.47232 
" clip-path="url(#pcf9d07c5f8)" style="fill: none; stroke: #fb8634; stroke-width: 1.5; stroke-linecap: square"/>
   </g>
   <g id="line2d_28">
    <path d="M 45.643338 300.701761 
L 55.480368 300.603475 
L 57.268918 300.355004 
L 58.163194 300.113632 
L 59.057469 299.756902 
L 59.951745 299.252719 
L 60.84602 298.566997 
L 61.740296 297.664928 
L 62.634571 296.512297 
L 63.528846 295.076726 
L 64.423122 293.3288 
L 65.317397 291.243019 
L 66.211673 288.798541 
L 67.105948 285.979717 
L 68.894499 279.184104 
L 70.68305 270.842194 
L 72.471601 261.024992 
L 74.260152 249.876862 
L 76.942978 231.111248 
L 80.520079 203.594674 
L 86.780007 154.439125 
L 89.462834 134.978757 
L 92.14566 117.313553 
L 93.934211 106.72269 
L 95.722762 97.170055 
L 97.511313 88.702564 
L 99.299863 81.343736 
L 101.088414 75.096703 
L 102.876965 69.947252 
L 104.665516 65.86676 
L 105.559791 64.215176 
L 106.454067 62.814967 
L 107.348342 61.6597 
L 108.242618 60.742514 
L 109.136893 60.056194 
L 110.031169 59.593222 
L 110.925444 59.345841 
L 111.819719 59.306106 
L 112.713995 59.465927 
L 113.60827 59.817122 
L 114.502546 60.35145 
L 115.396821 61.060654 
L 116.291096 61.936488 
L 118.079647 64.15533 
L 119.868198 66.9434 
L 121.656749 70.237993 
L 123.4453 73.97884 
L 126.128126 80.302127 
L 128.810952 87.320905 
L 132.388054 97.482177 
L 136.859431 111.009783 
L 152.062113 157.866199 
L 156.533491 170.715449 
L 161.004868 182.837693 
L 164.581969 191.960801 
L 168.159071 200.551307 
L 171.736173 208.602984 
L 175.313275 216.119631 
L 178.890376 223.112668 
L 182.467478 229.599155 
L 186.04458 235.60017 
L 189.621681 241.139493 
L 193.198783 246.24256 
L 196.775885 250.935642 
L 200.352986 255.245202 
L 203.930088 259.197409 
L 207.50719 262.817774 
L 211.084292 266.13089 
L 214.661393 269.160245 
L 218.238495 271.928111 
L 221.815597 274.455472 
L 226.286974 277.306298 
L 230.758351 279.847499 
L 235.229728 282.111477 
L 239.701105 284.12764 
L 244.172482 285.922572 
L 249.538135 287.818013 
L 254.903787 289.466037 
L 260.26944 290.898901 
L 266.529368 292.336043 
L 272.789296 293.557185 
L 279.943499 294.730208 
L 287.991978 295.814752 
L 296.934732 296.783537 
L 306.771762 297.622065 
L 318.397342 298.377612 
L 331.811474 299.014902 
L 347.908432 299.546361 
L 367.582491 299.967518 
L 393.516478 300.291648 
L 431.076046 300.52001 
L 491.886775 300.649581 
L 491.886775 300.649581 
" clip-path="url(#pcf9d07c5f8)" style="fill: none; stroke: #ec620f; stroke-width: 1.5; stroke-linecap: square"/>
   </g>
   <g id="line2d_29">
    <path d="M 45.643338 300.701761 
L 57.268918 300.623542 
L 59.057469 300.462125 
L 60.84602 300.102451 
L 62.634571 299.41557 
L 63.528846 298.90263 
L 64.423122 298.250296 
L 65.317397 297.438828 
L 66.211673 296.449184 
L 67.105948 295.263522 
L 68.000224 293.865654 
L 68.894499 292.241419 
L 70.68305 288.269136 
L 72.471601 283.283714 
L 74.260152 277.26629 
L 76.048702 270.241482 
L 77.837253 262.273463 
L 79.625804 253.459778 
L 82.30863 238.929018 
L 85.885732 217.879676 
L 93.934211 169.432202 
L 96.617037 154.549615 
L 99.299863 140.870542 
L 101.98269 128.619663 
L 103.771241 121.322694 
L 105.559791 114.755866 
L 107.348342 108.934536 
L 109.136893 103.863325 
L 110.925444 99.537461 
L 112.713995 95.94411 
L 114.502546 93.063651 
L 116.291096 90.870873 
L 117.185372 90.023234 
L 118.079647 89.33609 
L 118.973923 88.805195 
L 119.868198 88.426146 
L 120.762474 88.194403 
L 121.656749 88.105322 
L 122.551024 88.154167 
L 123.4453 88.33614 
L 124.339575 88.646396 
L 126.128126 89.632254 
L 127.916677 91.072719 
L 129.705228 92.929053 
L 131.493779 95.163194 
L 133.28233 97.73808 
L 135.07088 100.617902 
L 137.753707 105.434672 
L 140.436533 110.751547 
L 144.013635 118.446673 
L 148.485012 128.745979 
L 155.639215 146.000512 
L 164.581969 167.518563 
L 169.947622 179.869162 
L 174.418999 189.670748 
L 178.890376 198.95586 
L 183.361753 207.68561 
L 187.83313 215.841336 
L 191.410232 221.950143 
L 194.987334 227.693407 
L 198.564436 233.078885 
L 202.141537 238.117195 
L 205.718639 242.821068 
L 209.295741 247.20473 
L 212.872842 251.283396 
L 216.449944 255.072854 
L 220.027046 258.589135 
L 223.604147 261.84825 
L 228.075525 265.584516 
L 232.546902 268.973543 
L 237.018279 272.044004 
L 241.489656 274.823064 
L 245.961033 277.336247 
L 250.43241 279.607365 
L 254.903787 281.658512 
L 260.26944 283.858129 
L 265.635092 285.802412 
L 271.000745 287.520283 
L 277.260673 289.272728 
L 283.520601 290.788595 
L 290.674804 292.271945 
L 297.829008 293.528668 
L 305.877487 294.714775 
L 314.820241 295.798324 
L 324.65727 296.759067 
L 335.388576 297.587704 
L 347.908432 298.330613 
L 362.216838 298.958794 
L 380.102347 299.508663 
L 401.564957 299.938248 
L 430.181771 300.274628 
L 470.424165 300.507846 
L 491.886775 300.572894 
L 491.886775 300.572894 
" clip-path="url(#pcf9d07c5f8)" style="fill: none; stroke: #ce4401; stroke-width: 1.5; stroke-linecap: square"/>
   </g>
   <g id="line2d_30">
    <path d="M 45.643338 300.701761 
L 56.374643 300.636542 
L 58.163194 300.483218 
L 59.951745 300.12072 
L 61.740296 299.400257 
L 62.634571 298.850971 
L 63.528846 298.144555 
L 64.423122 297.257752 
L 65.317397 296.168199 
L 66.211673 294.855063 
L 67.105948 293.299616 
L 68.000224 291.485705 
L 69.788774 287.032881 
L 71.577325 281.430379 
L 73.365876 274.666325 
L 75.154427 266.781415 
L 76.942978 257.863027 
L 79.625804 242.830404 
L 82.30863 226.295014 
L 87.674283 191.139994 
L 92.14566 162.482963 
L 94.828486 146.576182 
L 97.511313 132.071567 
L 99.299863 123.305601 
L 101.088414 115.323688 
L 102.876965 108.159542 
L 104.665516 101.83205 
L 106.454067 96.346947 
L 108.242618 91.698533 
L 110.031169 87.871354 
L 111.819719 84.841818 
L 113.60827 82.579709 
L 114.502546 81.725528 
L 115.396821 81.049569 
L 116.291096 80.546786 
L 117.185372 80.211957 
L 118.079647 80.039712 
L 118.973923 80.024567 
L 119.868198 80.160945 
L 120.762474 80.443208 
L 121.656749 80.865675 
L 123.4453 82.108434 
L 125.233851 83.84376 
L 127.022402 86.026747 
L 128.810952 88.613508 
L 130.599503 91.561527 
L 133.28233 96.572066 
L 135.965156 102.174171 
L 138.647982 108.248567 
L 142.225084 116.896999 
L 147.590736 130.601246 
L 161.899143 167.602655 
L 167.264796 180.625129 
L 171.736173 190.881552 
L 176.20755 200.533251 
L 179.784652 207.797916 
L 183.361753 214.649793 
L 186.938855 221.089883 
L 190.515957 227.124511 
L 194.093058 232.76409 
L 197.67016 238.022079 
L 201.247262 242.914123 
L 204.824364 247.457353 
L 208.401465 251.669809 
L 211.978567 255.569987 
L 215.555669 259.176472 
L 219.13277 262.507659 
L 222.709872 265.581536 
L 226.286974 268.415521 
L 230.758351 271.646081 
L 235.229728 274.558899 
L 239.701105 277.18297 
L 244.172482 279.545223 
L 248.643859 281.670528 
L 253.115236 283.581738 
L 258.480889 285.621908 
L 263.846542 287.416475 
L 269.212194 288.994576 
L 275.472122 290.596479 
L 281.73205 291.974957 
L 288.886253 293.316661 
L 296.934732 294.57529 
L 304.983211 295.613807 
L 313.925965 296.55686 
L 324.65727 297.454159 
L 336.282851 298.201877 
L 350.591258 298.883176 
L 367.582491 299.44831 
L 388.150826 299.896225 
L 414.979088 300.243004 
L 452.538656 300.487783 
L 491.886775 300.602525 
L 491.886775 300.602525 
" clip-path="url(#pcf9d07c5f8)" style="fill: none; stroke: #9e3303; stroke-width: 1.5; stroke-linecap: square"/>
   </g>
   <g id="patch_3">
    <path d="M 44.749063 313.958125 
L 44.749063 22.318125 
" style="fill: none; stroke: #000000; stroke-width: 0.8; stroke-linejoin: miter; stroke-linecap: square"/>
   </g>
   <g id="patch_4">
    <path d="M 491.886775 313.958125 
L 491.886775 22.318125 
" style="fill: none; stroke: #000000; stroke-width: 0.8; stroke-linejoin: miter; stroke-linecap: square"/>
   </g>
   <g id="patch_5">
    <path d="M 44.749063 313.958125 
L 491.886775 313.958125 
" style="fill: none; stroke: #000000; stroke-width: 0.8; stroke-linejoin: miter; stroke-linecap: square"/>
   </g>
   <g id="patch_6">
    <path d="M 44.749063 22.318125 
L 491.886775 22.318125 
" style="fill: none; stroke: #000000; stroke-width: 0.8; stroke-linejoin: miter; stroke-linecap: square"/>
   </g>
   <g id="text_15">
    <!-- Prior vs Posterior for κ -->
    <g transform="translate(201.930731 16.318125) scale(0.12 -0.12)">
     <defs>
      <path id="DejaVuSans-50" d="M 1259 4147 
L 1259 2394 
L 2053 2394 
Q 2494 2394 2734 2622 
Q 2975 2850 2975 3272 
Q 2975 3691 2734 3919 
Q 2494 4147 2053 4147 
L 1259 4147 
z
M 628 4666 
L 2053 4666 
Q 2838 4666 3239 4311 
Q 3641 3956 3641 3272 
Q 3641 2581 3239 2228 
Q 2838 1875 2053 1875 
L 1259 1875 
L 1259 0 
L 628 0 
L 628 4666 
z
" transform="scale(0.015625)"/>
      <path id="DejaVuSans-72" d="M 2631 2963 
Q 2534 3019 2420 3045 
Q 2306 3072 2169 3072 
Q 1681 3072 1420 2755 
Q 1159 2438 1159 1844 
L 1159 0 
L 581 0 
L 581 3500 
L 1159 3500 
L 1159 2956 
Q 1341 3275 1631 3429 
Q 1922 3584 2338 3584 
Q 2397 3584 2469 3576 
Q 2541 3569 2628 3553 
L 2631 2963 
z
" transform="scale(0.015625)"/>
      <path id="DejaVuSans-6f" d="M 1959 3097 
Q 1497 3097 1228 2736 
Q 959 2375 959 1747 
Q 959 1119 1226 758 
Q 1494 397 1959 397 
Q 2419 397 2687 759 
Q 2956 1122 2956 1747 
Q 2956 2369 2687 2733 
Q 2419 3097 1959 3097 
z
M 1959 3584 
Q 2709 3584 3137 3096 
Q 3566 2609 3566 1747 
Q 3566 888 3137 398 
Q 2709 -91 1959 -91 
Q 1206 -91 779 398 
Q 353 888 353 1747 
Q 353 2609 779 3096 
Q 1206 3584 1959 3584 
z
" transform="scale(0.015625)"/>
      <path id="DejaVuSans-20" transform="scale(0.015625)"/>
      <path id="DejaVuSans-76" d="M 191 3500 
L 800 3500 
L 1894 563 
L 2988 3500 
L 3597 3500 
L 2284 0 
L 1503 0 
L 191 3500 
z
" transform="scale(0.015625)"/>
      <path id="DejaVuSans-66" d="M 2375 4863 
L 2375 4384 
L 1825 4384 
Q 1516 4384 1395 4259 
Q 1275 4134 1275 3809 
L 1275 3500 
L 2222 3500 
L 2222 3053 
L 1275 3053 
L 1275 0 
L 697 0 
L 697 3053 
L 147 3053 
L 147 3500 
L 697 3500 
L 697 3744 
Q 697 4328 969 4595 
Q 1241 4863 1831 4863 
L 2375 4863 
z
" transform="scale(0.015625)"/>
     </defs>
     <use xlink:href="#DejaVuSans-50"/>
     <use xlink:href="#DejaVuSans-72" transform="translate(58.552734 0)"/>
     <use xlink:href="#DejaVuSans-69" transform="translate(99.666016 0)"/>
     <use xlink:href="#DejaVuSans-6f" transform="translate(127.449219 0)"/>
     <use xlink:href="#DejaVuSans-72" transform="translate(188.630859 0)"/>
     <use xlink:href="#DejaVuSans-20" transform="translate(229.744141 0)"/>
     <use xlink:href="#DejaVuSans-76" transform="translate(261.53125 0)"/>
     <use xlink:href="#DejaVuSans-73" transform="translate(320.710938 0)"/>
     <use xlink:href="#DejaVuSans-20" transform="translate(372.810547 0)"/>
     <use xlink:href="#DejaVuSans-50" transform="translate(404.597656 0)"/>
     <use xlink:href="#DejaVuSans-6f" transform="translate(461.275391 0)"/>
     <use xlink:href="#DejaVuSans-73" transform="translate(522.457031 0)"/>
     <use xlink:href="#DejaVuSans-74" transform="translate(574.556641 0)"/>
     <use xlink:href="#DejaVuSans-65" transform="translate(613.765625 0)"/>
     <use xlink:href="#DejaVuSans-72" transform="translate(675.289062 0)"/>
     <use xlink:href="#DejaVuSans-69" transform="translate(716.402344 0)"/>
     <use xlink:href="#DejaVuSans-6f" transform="translate(744.185547 0)"/>
     <use xlink:href="#DejaVuSans-72" transform="translate(805.367188 0)"/>
     <use xlink:href="#DejaVuSans-20" transform="translate(846.480469 0)"/>
     <use xlink:href="#DejaVuSans-66" transform="translate(878.267578 0)"/>
     <use xlink:href="#DejaVuSans-6f" transform="translate(913.472656 0)"/>
     <use xlink:href="#DejaVuSans-72" transform="translate(974.654297 0)"/>
     <use xlink:href="#DejaVuSans-20" transform="translate(1015.767578 0)"/>
     <use xlink:href="#DejaVuSans-3ba" transform="translate(1047.554688 0)"/>
    </g>
   </g>
   <g id="legend_1">
    <g id="patch_7">
     <path d="M 364.833025 99.173125 
L 486.286775 99.173125 
Q 487.886775 99.173125 487.886775 97.573125 
L 487.886775 27.918125 
Q 487.886775 26.318125 486.286775 26.318125 
L 364.833025 26.318125 
Q 363.233025 26.318125 363.233025 27.918125 
L 363.233025 97.573125 
Q 363.233025 99.173125 364.833025 99.173125 
z
" style="fill: #ffffff; opacity: 0.8; stroke: #cccccc; stroke-linejoin: miter"/>
    </g>
    <g id="line2d_31">
     <path d="M 366.433025 32.796875 
L 374.433025 32.796875 
L 382.433025 32.796875 
" style="fill: none; stroke-dasharray: 7.4,3.2; stroke-dashoffset: 0; stroke: #000000; stroke-width: 2"/>
    </g>
    <g id="text_16">
     <!-- Prior: LogNormal(0, 0.5) -->
     <g transform="translate(388.833025 35.596875) scale(0.08 -0.08)">
      <defs>
       <path id="DejaVuSans-3a" d="M 750 794 
L 1409 794 
L 1409 0 
L 750 0 
L 750 794 
z
M 750 3309 
L 1409 3309 
L 1409 2516 
L 750 2516 
L 750 3309 
z
" transform="scale(0.015625)"/>
       <path id="DejaVuSans-4c" d="M 628 4666 
L 1259 4666 
L 1259 531 
L 3531 531 
L 3531 0 
L 628 0 
L 628 4666 
z
" transform="scale(0.015625)"/>
       <path id="DejaVuSans-67" d="M 2906 1791 
Q 2906 2416 2648 2759 
Q 2391 3103 1925 3103 
Q 1463 3103 1205 2759 
Q 947 2416 947 1791 
Q 947 1169 1205 825 
Q 1463 481 1925 481 
Q 2391 481 2648 825 
Q 2906 1169 2906 1791 
z
M 3481 434 
Q 3481 -459 3084 -895 
Q 2688 -1331 1869 -1331 
Q 1566 -1331 1297 -1286 
Q 1028 -1241 775 -1147 
L 775 -588 
Q 1028 -725 1275 -790 
Q 1522 -856 1778 -856 
Q 2344 -856 2625 -561 
Q 2906 -266 2906 331 
L 2906 616 
Q 2728 306 2450 153 
Q 2172 0 1784 0 
Q 1141 0 747 490 
Q 353 981 353 1791 
Q 353 2603 747 3093 
Q 1141 3584 1784 3584 
Q 2172 3584 2450 3431 
Q 2728 3278 2906 2969 
L 2906 3500 
L 3481 3500 
L 3481 434 
z
" transform="scale(0.015625)"/>
       <path id="DejaVuSans-4e" d="M 628 4666 
L 1478 4666 
L 3547 763 
L 3547 4666 
L 4159 4666 
L 4159 0 
L 3309 0 
L 1241 3903 
L 1241 0 
L 628 0 
L 628 4666 
z
" transform="scale(0.015625)"/>
       <path id="DejaVuSans-6d" d="M 3328 2828 
Q 3544 3216 3844 3400 
Q 4144 3584 4550 3584 
Q 5097 3584 5394 3201 
Q 5691 2819 5691 2113 
L 5691 0 
L 5113 0 
L 5113 2094 
Q 5113 2597 4934 2840 
Q 4756 3084 4391 3084 
Q 3944 3084 3684 2787 
Q 3425 2491 3425 1978 
L 3425 0 
L 2847 0 
L 2847 2094 
Q 2847 2600 2669 2842 
Q 2491 3084 2119 3084 
Q 1678 3084 1418 2786 
Q 1159 2488 1159 1978 
L 1159 0 
L 581 0 
L 581 3500 
L 1159 3500 
L 1159 2956 
Q 1356 3278 1631 3431 
Q 1906 3584 2284 3584 
Q 2666 3584 2933 3390 
Q 3200 3197 3328 2828 
z
" transform="scale(0.015625)"/>
       <path id="DejaVuSans-61" d="M 2194 1759 
Q 1497 1759 1228 1600 
Q 959 1441 959 1056 
Q 959 750 1161 570 
Q 1363 391 1709 391 
Q 2188 391 2477 730 
Q 2766 1069 2766 1631 
L 2766 1759 
L 2194 1759 
z
M 3341 1997 
L 3341 0 
L 2766 0 
L 2766 531 
Q 2569 213 2275 61 
Q 1981 -91 1556 -91 
Q 1019 -91 701 211 
Q 384 513 384 1019 
Q 384 1609 779 1909 
Q 1175 2209 1959 2209 
L 2766 2209 
L 2766 2266 
Q 2766 2663 2505 2880 
Q 2244 3097 1772 3097 
Q 1472 3097 1187 3025 
Q 903 2953 641 2809 
L 641 3341 
Q 956 3463 1253 3523 
Q 1550 3584 1831 3584 
Q 2591 3584 2966 3190 
Q 3341 2797 3341 1997 
z
" transform="scale(0.015625)"/>
       <path id="DejaVuSans-6c" d="M 603 4863 
L 1178 4863 
L 1178 0 
L 603 0 
L 603 4863 
z
" transform="scale(0.015625)"/>
       <path id="DejaVuSans-28" d="M 1984 4856 
Q 1566 4138 1362 3434 
Q 1159 2731 1159 2009 
Q 1159 1288 1364 580 
Q 1569 -128 1984 -844 
L 1484 -844 
Q 1016 -109 783 600 
Q 550 1309 550 2009 
Q 550 2706 781 3412 
Q 1013 4119 1484 4856 
L 1984 4856 
z
" transform="scale(0.015625)"/>
       <path id="DejaVuSans-2c" d="M 750 794 
L 1409 794 
L 1409 256 
L 897 -744 
L 494 -744 
L 750 256 
L 750 794 
z
" transform="scale(0.015625)"/>
       <path id="DejaVuSans-29" d="M 513 4856 
L 1013 4856 
Q 1481 4119 1714 3412 
Q 1947 2706 1947 2009 
Q 1947 1309 1714 600 
Q 1481 -109 1013 -844 
L 513 -844 
Q 928 -128 1133 580 
Q 1338 1288 1338 2009 
Q 1338 2731 1133 3434 
Q 928 4138 513 4856 
z
" transform="scale(0.015625)"/>
      </defs>
      <use xlink:href="#DejaVuSans-50"/>
      <use xlink:href="#DejaVuSans-72" transform="translate(58.552734 0)"/>
      <use xlink:href="#DejaVuSans-69" transform="translate(99.666016 0)"/>
      <use xlink:href="#DejaVuSans-6f" transform="translate(127.449219 0)"/>
      <use xlink:href="#DejaVuSans-72" transform="translate(188.630859 0)"/>
      <use xlink:href="#DejaVuSans-3a" transform="translate(227.994141 0)"/>
      <use xlink:href="#DejaVuSans-20" transform="translate(261.685547 0)"/>
      <use xlink:href="#DejaVuSans-4c" transform="translate(293.472656 0)"/>
      <use xlink:href="#DejaVuSans-6f" transform="translate(347.435547 0)"/>
      <use xlink:href="#DejaVuSans-67" transform="translate(408.617188 0)"/>
      <use xlink:href="#DejaVuSans-4e" transform="translate(472.09375 0)"/>
      <use xlink:href="#DejaVuSans-6f" transform="translate(546.898438 0)"/>
      <use xlink:href="#DejaVuSans-72" transform="translate(608.080078 0)"/>
      <use xlink:href="#DejaVuSans-6d" transform="translate(647.443359 0)"/>
      <use xlink:href="#DejaVuSans-61" transform="translate(744.855469 0)"/>
      <use xlink:href="#DejaVuSans-6c" transform="translate(806.134766 0)"/>
      <use xlink:href="#DejaVuSans-28" transform="translate(833.917969 0)"/>
      <use xlink:href="#DejaVuSans-30" transform="translate(872.931641 0)"/>
      <use xlink:href="#DejaVuSans-2c" transform="translate(936.554688 0)"/>
      <use xlink:href="#DejaVuSans-20" transform="translate(968.341797 0)"/>
      <use xlink:href="#DejaVuSans-30" transform="translate(1000.128906 0)"/>
      <use xlink:href="#DejaVuSans-2e" transform="translate(1063.751953 0)"/>
      <use xlink:href="#DejaVuSans-35" transform="translate(1095.539062 0)"/>
      <use xlink:href="#DejaVuSans-29" transform="translate(1159.162109 0)"/>
     </g>
    </g>
    <g id="line2d_32">
     <path d="M 366.433025 44.539375 
L 374.433025 44.539375 
L 382.433025 44.539375 
" style="fill: none; stroke: #fda762; stroke-width: 1.5; stroke-linecap: square"/>
    </g>
    <g id="text_17">
     <!-- Posterior (true κ=1.98) -->
     <g transform="translate(388.833025 47.339375) scale(0.08 -0.08)">
      <defs>
       <path id="DejaVuSans-75" d="M 544 1381 
L 544 3500 
L 1119 3500 
L 1119 1403 
Q 1119 906 1312 657 
Q 1506 409 1894 409 
Q 2359 409 2629 706 
Q 2900 1003 2900 1516 
L 2900 3500 
L 3475 3500 
L 3475 0 
L 2900 0 
L 2900 538 
Q 2691 219 2414 64 
Q 2138 -91 1772 -91 
Q 1169 -91 856 284 
Q 544 659 544 1381 
z
M 1991 3584 
L 1991 3584 
z
" transform="scale(0.015625)"/>
       <path id="DejaVuSans-3d" d="M 678 2906 
L 4684 2906 
L 4684 2381 
L 678 2381 
L 678 2906 
z
M 678 1631 
L 4684 1631 
L 4684 1100 
L 678 1100 
L 678 1631 
z
" transform="scale(0.015625)"/>
       <path id="DejaVuSans-39" d="M 703 97 
L 703 672 
Q 941 559 1184 500 
Q 1428 441 1663 441 
Q 2288 441 2617 861 
Q 2947 1281 2994 2138 
Q 2813 1869 2534 1725 
Q 2256 1581 1919 1581 
Q 1219 1581 811 2004 
Q 403 2428 403 3163 
Q 403 3881 828 4315 
Q 1253 4750 1959 4750 
Q 2769 4750 3195 4129 
Q 3622 3509 3622 2328 
Q 3622 1225 3098 567 
Q 2575 -91 1691 -91 
Q 1453 -91 1209 -44 
Q 966 3 703 97 
z
M 1959 2075 
Q 2384 2075 2632 2365 
Q 2881 2656 2881 3163 
Q 2881 3666 2632 3958 
Q 2384 4250 1959 4250 
Q 1534 4250 1286 3958 
Q 1038 3666 1038 3163 
Q 1038 2656 1286 2365 
Q 1534 2075 1959 2075 
z
" transform="scale(0.015625)"/>
      </defs>
      <use xlink:href="#DejaVuSans-50"/>
      <use xlink:href="#DejaVuSans-6f" transform="translate(56.677734 0)"/>
      <use xlink:href="#DejaVuSans-73" transform="translate(117.859375 0)"/>
      <use xlink:href="#DejaVuSans-74" transform="translate(169.958984 0)"/>
      <use xlink:href="#DejaVuSans-65" transform="translate(209.167969 0)"/>
      <use xlink:href="#DejaVuSans-72" transform="translate(270.691406 0)"/>
      <use xlink:href="#DejaVuSans-69" transform="translate(311.804688 0)"/>
      <use xlink:href="#DejaVuSans-6f" transform="translate(339.587891 0)"/>
      <use xlink:href="#DejaVuSans-72" transform="translate(400.769531 0)"/>
      <use xlink:href="#DejaVuSans-20" transform="translate(441.882812 0)"/>
      <use xlink:href="#DejaVuSans-28" transform="translate(473.669922 0)"/>
      <use xlink:href="#DejaVuSans-74" transform="translate(512.683594 0)"/>
      <use xlink:href="#DejaVuSans-72" transform="translate(551.892578 0)"/>
      <use xlink:href="#DejaVuSans-75" transform="translate(593.005859 0)"/>
      <use xlink:href="#DejaVuSans-65" transform="translate(656.384766 0)"/>
      <use xlink:href="#DejaVuSans-20" transform="translate(717.908203 0)"/>
      <use xlink:href="#DejaVuSans-3ba" transform="translate(749.695312 0)"/>
      <use xlink:href="#DejaVuSans-3d" transform="translate(808.630859 0)"/>
      <use xlink:href="#DejaVuSans-31" transform="translate(892.419922 0)"/>
      <use xlink:href="#DejaVuSans-2e" transform="translate(956.042969 0)"/>
      <use xlink:href="#DejaVuSans-39" transform="translate(987.830078 0)"/>
      <use xlink:href="#DejaVuSans-38" transform="translate(1051.453125 0)"/>
      <use xlink:href="#DejaVuSans-29" transform="translate(1115.076172 0)"/>
     </g>
    </g>
    <g id="line2d_33">
     <path d="M 366.433025 56.281875 
L 374.433025 56.281875 
L 382.433025 56.281875 
" style="fill: none; stroke: #fb8634; stroke-width: 1.5; stroke-linecap: square"/>
    </g>
    <g id="text_18">
     <!-- Posterior (true κ=1.31) -->
     <g transform="translate(388.833025 59.081875) scale(0.08 -0.08)">
      <use xlink:href="#DejaVuSans-50"/>
      <use xlink:href="#DejaVuSans-6f" transform="translate(56.677734 0)"/>
      <use xlink:href="#DejaVuSans-73" transform="translate(117.859375 0)"/>
      <use xlink:href="#DejaVuSans-74" transform="translate(169.958984 0)"/>
      <use xlink:href="#DejaVuSans-65" transform="translate(209.167969 0)"/>
      <use xlink:href="#DejaVuSans-72" transform="translate(270.691406 0)"/>
      <use xlink:href="#DejaVuSans-69" transform="translate(311.804688 0)"/>
      <use xlink:href="#DejaVuSans-6f" transform="translate(339.587891 0)"/>
      <use xlink:href="#DejaVuSans-72" transform="translate(400.769531 0)"/>
      <use xlink:href="#DejaVuSans-20" transform="translate(441.882812 0)"/>
      <use xlink:href="#DejaVuSans-28" transform="translate(473.669922 0)"/>
      <use xlink:href="#DejaVuSans-74" transform="translate(512.683594 0)"/>
      <use xlink:href="#DejaVuSans-72" transform="translate(551.892578 0)"/>
      <use xlink:href="#DejaVuSans-75" transform="translate(593.005859 0)"/>
      <use xlink:href="#DejaVuSans-65" transform="translate(656.384766 0)"/>
      <use xlink:href="#DejaVuSans-20" transform="translate(717.908203 0)"/>
      <use xlink:href="#DejaVuSans-3ba" transform="translate(749.695312 0)"/>
      <use xlink:href="#DejaVuSans-3d" transform="translate(808.630859 0)"/>
      <use xlink:href="#DejaVuSans-31" transform="translate(892.419922 0)"/>
      <use xlink:href="#DejaVuSans-2e" transform="translate(956.042969 0)"/>
      <use xlink:href="#DejaVuSans-33" transform="translate(987.830078 0)"/>
      <use xlink:href="#DejaVuSans-31" transform="translate(1051.453125 0)"/>
      <use xlink:href="#DejaVuSans-29" transform="translate(1115.076172 0)"/>
     </g>
    </g>
    <g id="line2d_34">
     <path d="M 366.433025 68.024375 
L 374.433025 68.024375 
L 382.433025 68.024375 
" style="fill: none; stroke: #ec620f; stroke-width: 1.5; stroke-linecap: square"/>
    </g>
    <g id="text_19">
     <!-- Posterior (true κ=1.01) -->
     <g transform="translate(388.833025 70.824375) scale(0.08 -0.08)">
      <use xlink:href="#DejaVuSans-50"/>
      <use xlink:href="#DejaVuSans-6f" transform="translate(56.677734 0)"/>
      <use xlink:href="#DejaVuSans-73" transform="translate(117.859375 0)"/>
      <use xlink:href="#DejaVuSans-74" transform="translate(169.958984 0)"/>
      <use xlink:href="#DejaVuSans-65" transform="translate(209.167969 0)"/>
      <use xlink:href="#DejaVuSans-72" transform="translate(270.691406 0)"/>
      <use xlink:href="#DejaVuSans-69" transform="translate(311.804688 0)"/>
      <use xlink:href="#DejaVuSans-6f" transform="translate(339.587891 0)"/>
      <use xlink:href="#DejaVuSans-72" transform="translate(400.769531 0)"/>
      <use xlink:href="#DejaVuSans-20" transform="translate(441.882812 0)"/>
      <use xlink:href="#DejaVuSans-28" transform="translate(473.669922 0)"/>
      <use xlink:href="#DejaVuSans-74" transform="translate(512.683594 0)"/>
      <use xlink:href="#DejaVuSans-72" transform="translate(551.892578 0)"/>
      <use xlink:href="#DejaVuSans-75" transform="translate(593.005859 0)"/>
      <use xlink:href="#DejaVuSans-65" transform="translate(656.384766 0)"/>
      <use xlink:href="#DejaVuSans-20" transform="translate(717.908203 0)"/>
      <use xlink:href="#DejaVuSans-3ba" transform="translate(749.695312 0)"/>
      <use xlink:href="#DejaVuSans-3d" transform="translate(808.630859 0)"/>
      <use xlink:href="#DejaVuSans-31" transform="translate(892.419922 0)"/>
      <use xlink:href="#DejaVuSans-2e" transform="translate(956.042969 0)"/>
      <use xlink:href="#DejaVuSans-30" transform="translate(987.830078 0)"/>
      <use xlink:href="#DejaVuSans-31" transform="translate(1051.453125 0)"/>
      <use xlink:href="#DejaVuSans-29" transform="translate(1115.076172 0)"/>
     </g>
    </g>
    <g id="line2d_35">
     <path d="M 366.433025 79.766875 
L 374.433025 79.766875 
L 382.433025 79.766875 
" style="fill: none; stroke: #ce4401; stroke-width: 1.5; stroke-linecap: square"/>
    </g>
    <g id="text_20">
     <!-- Posterior (true κ=1.10) -->
     <g transform="translate(388.833025 82.566875) scale(0.08 -0.08)">
      <use xlink:href="#DejaVuSans-50"/>
      <use xlink:href="#DejaVuSans-6f" transform="translate(56.677734 0)"/>
      <use xlink:href="#DejaVuSans-73" transform="translate(117.859375 0)"/>
      <use xlink:href="#DejaVuSans-74" transform="translate(169.958984 0)"/>
      <use xlink:href="#DejaVuSans-65" transform="translate(209.167969 0)"/>
      <use xlink:href="#DejaVuSans-72" transform="translate(270.691406 0)"/>
      <use xlink:href="#DejaVuSans-69" transform="translate(311.804688 0)"/>
      <use xlink:href="#DejaVuSans-6f" transform="translate(339.587891 0)"/>
      <use xlink:href="#DejaVuSans-72" transform="translate(400.769531 0)"/>
      <use xlink:href="#DejaVuSans-20" transform="translate(441.882812 0)"/>
      <use xlink:href="#DejaVuSans-28" transform="translate(473.669922 0)"/>
      <use xlink:href="#DejaVuSans-74" transform="translate(512.683594 0)"/>
      <use xlink:href="#DejaVuSans-72" transform="translate(551.892578 0)"/>
      <use xlink:href="#DejaVuSans-75" transform="translate(593.005859 0)"/>
      <use xlink:href="#DejaVuSans-65" transform="translate(656.384766 0)"/>
      <use xlink:href="#DejaVuSans-20" transform="translate(717.908203 0)"/>
      <use xlink:href="#DejaVuSans-3ba" transform="translate(749.695312 0)"/>
      <use xlink:href="#DejaVuSans-3d" transform="translate(808.630859 0)"/>
      <use xlink:href="#DejaVuSans-31" transform="translate(892.419922 0)"/>
      <use xlink:href="#DejaVuSans-2e" transform="translate(956.042969 0)"/>
      <use xlink:href="#DejaVuSans-31" transform="translate(987.830078 0)"/>
      <use xlink:href="#DejaVuSans-30" transform="translate(1051.453125 0)"/>
      <use xlink:href="#DejaVuSans-29" transform="translate(1115.076172 0)"/>
     </g>
    </g>
    <g id="line2d_36">
     <path d="M 366.433025 91.509375 
L 374.433025 91.509375 
L 382.433025 91.509375 
" style="fill: none; stroke: #9e3303; stroke-width: 1.5; stroke-linecap: square"/>
    </g>
    <g id="text_21">
     <!-- Posterior (true κ=0.53) -->
     <g transform="translate(388.833025 94.309375) scale(0.08 -0.08)">
      <use xlink:href="#DejaVuSans-50"/>
      <use xlink:href="#DejaVuSans-6f" transform="translate(56.677734 0)"/>
      <use xlink:href="#DejaVuSans-73" transform="translate(117.859375 0)"/>
      <use xlink:href="#DejaVuSans-74" transform="translate(169.958984 0)"/>
      <use xlink:href="#DejaVuSans-65" transform="translate(209.167969 0)"/>
      <use xlink:href="#DejaVuSans-72" transform="translate(270.691406 0)"/>
      <use xlink:href="#DejaVuSans-69" transform="translate(311.804688 0)"/>
      <use xlink:href="#DejaVuSans-6f" transform="translate(339.587891 0)"/>
      <use xlink:href="#DejaVuSans-72" transform="translate(400.769531 0)"/>
      <use xlink:href="#DejaVuSans-20" transform="translate(441.882812 0)"/>
      <use xlink:href="#DejaVuSans-28" transform="translate(473.669922 0)"/>
      <use xlink:href="#DejaVuSans-74" transform="translate(512.683594 0)"/>
      <use xlink:href="#DejaVuSans-72" transform="translate(551.892578 0)"/>
      <use xlink:href="#DejaVuSans-75" transform="translate(593.005859 0)"/>
      <use xlink:href="#DejaVuSans-65" transform="translate(656.384766 0)"/>
      <use xlink:href="#DejaVuSans-20" transform="translate(717.908203 0)"/>
      <use xlink:href="#DejaVuSans-3ba" transform="translate(749.695312 0)"/>
      <use xlink:href="#DejaVuSans-3d" transform="translate(808.630859 0)"/>
      <use xlink:href="#DejaVuSans-30" transform="translate(892.419922 0)"/>
      <use xlink:href="#DejaVuSans-2e" transform="translate(956.042969 0)"/>
      <use xlink:href="#DejaVuSans-35" transform="translate(987.830078 0)"/>
      <use xlink:href="#DejaVuSans-33" transform="translate(1051.453125 0)"/>
      <use xlink:href="#DejaVuSans-29" transform="translate(1115.076172 0)"/>
     </g>
    </g>
   </g>
  </g>
  <g id="axes_2">
   <g id="patch_8">
    <path d="M 540.626775 313.958125 
L 987.764487 313.958125 
L 987.764487 22.318125 
L 540.626775 22.318125 
z
" style="fill: #ffffff"/>
   </g>
   <g id="patch_9">
    <path d="M 560.951216 313.958125 
L 588.050472 313.958125 
L 588.050472 286.182887 
L 560.951216 286.182887 
z
" clip-path="url(#p68659d7377)" style="fill: #ff8c00; opacity: 0.7; stroke: #ffffff; stroke-linejoin: miter"/>
   </g>
   <g id="patch_10">
    <path d="M 588.050472 313.958125 
L 615.149727 313.958125 
L 615.149727 313.958125 
L 588.050472 313.958125 
z
" clip-path="url(#p68659d7377)" style="fill: #ff8c00; opacity: 0.7; stroke: #ffffff; stroke-linejoin: miter"/>
   </g>
   <g id="patch_11">
    <path d="M 615.149727 313.958125 
L 642.248982 313.958125 
L 642.248982 258.407649 
L 615.149727 258.407649 
z
" clip-path="url(#p68659d7377)" style="fill: #ff8c00; opacity: 0.7; stroke: #ffffff; stroke-linejoin: miter"/>
   </g>
   <g id="patch_12">
    <path d="M 642.248982 313.958125 
L 669.348238 313.958125 
L 669.348238 286.182887 
L 642.248982 286.182887 
z
" clip-path="url(#p68659d7377)" style="fill: #ff8c00; opacity: 0.7; stroke: #ffffff; stroke-linejoin: miter"/>
   </g>
   <g id="patch_13">
    <path d="M 669.348238 313.958125 
L 696.447493 313.958125 
L 696.447493 258.407649 
L 669.348238 258.407649 
z
" clip-path="url(#p68659d7377)" style="fill: #ff8c00; opacity: 0.7; stroke: #ffffff; stroke-linejoin: miter"/>
   </g>
   <g id="patch_14">
    <path d="M 696.447493 313.958125 
L 723.546748 313.958125 
L 723.546748 175.081935 
L 696.447493 175.081935 
z
" clip-path="url(#p68659d7377)" style="fill: #ff8c00; opacity: 0.7; stroke: #ffffff; stroke-linejoin: miter"/>
   </g>
   <g id="patch_15">
    <path d="M 723.546748 313.958125 
L 750.646003 313.958125 
L 750.646003 91.75622 
L 723.546748 91.75622 
z
" clip-path="url(#p68659d7377)" style="fill: #ff8c00; opacity: 0.7; stroke: #ffffff; stroke-linejoin: miter"/>
   </g>
   <g id="patch_16">
    <path d="M 750.646003 313.958125 
L 777.745259 313.958125 
L 777.745259 36.205744 
L 750.646003 36.205744 
z
" clip-path="url(#p68659d7377)" style="fill: #ff8c00; opacity: 0.7; stroke: #ffffff; stroke-linejoin: miter"/>
   </g>
   <g id="patch_17">
    <path d="M 777.745259 313.958125 
L 804.844514 313.958125 
L 804.844514 36.205744 
L 777.745259 36.205744 
z
" clip-path="url(#p68659d7377)" style="fill: #ff8c00; opacity: 0.7; stroke: #ffffff; stroke-linejoin: miter"/>
   </g>
   <g id="patch_18">
    <path d="M 804.844514 313.958125 
L 831.943769 313.958125 
L 831.943769 147.306696 
L 804.844514 147.306696 
z
" clip-path="url(#p68659d7377)" style="fill: #ff8c00; opacity: 0.7; stroke: #ffffff; stroke-linejoin: miter"/>
   </g>
   <g id="patch_19">
    <path d="M 831.943769 313.958125 
L 859.043025 313.958125 
L 859.043025 258.407649 
L 831.943769 258.407649 
z
" clip-path="url(#p68659d7377)" style="fill: #ff8c00; opacity: 0.7; stroke: #ffffff; stroke-linejoin: miter"/>
   </g>
   <g id="patch_20">
    <path d="M 859.043025 313.958125 
L 886.14228 313.958125 
L 886.14228 313.958125 
L 859.043025 313.958125 
z
" clip-path="url(#p68659d7377)" style="fill: #ff8c00; opacity: 0.7; stroke: #ffffff; stroke-linejoin: miter"/>
   </g>
   <g id="patch_21">
    <path d="M 886.14228 313.958125 
L 913.241535 313.958125 
L 913.241535 313.958125 
L 886.14228 313.958125 
z
" clip-path="url(#p68659d7377)" style="fill: #ff8c00; opacity: 0.7; stroke: #ffffff; stroke-linejoin: miter"/>
   </g>
   <g id="patch_22">
    <path d="M 913.241535 313.958125 
L 940.340791 313.958125 
L 940.340791 313.958125 
L 913.241535 313.958125 
z
" clip-path="url(#p68659d7377)" style="fill: #ff8c00; opacity: 0.7; stroke: #ffffff; stroke-linejoin: miter"/>
   </g>
   <g id="patch_23">
    <path d="M 940.340791 313.958125 
L 967.440046 313.958125 
L 967.440046 230.632411 
L 940.340791 230.632411 
z
" clip-path="url(#p68659d7377)" style="fill: #ff8c00; opacity: 0.7; stroke: #ffffff; stroke-linejoin: miter"/>
   </g>
   <g id="matplotlib.axis_3">
    <g id="xtick_7">
     <g id="line2d_37">
      <path d="M 567.239722 313.958125 
L 567.239722 22.318125 
" clip-path="url(#p68659d7377)" style="fill: none; stroke: #b0b0b0; stroke-opacity: 0.3; stroke-width: 0.8; stroke-linecap: square"/>
     </g>
     <g id="line2d_38">
      <g>
       <use xlink:href="#maed90b0590" x="567.239722" y="313.958125" style="stroke: #000000; stroke-width: 0.8"/>
      </g>
     </g>
     <g id="text_22">
      <!-- 0.5 -->
      <g transform="translate(559.288159 328.556563) scale(0.1 -0.1)">
       <use xlink:href="#DejaVuSans-30"/>
       <use xlink:href="#DejaVuSans-2e" transform="translate(63.623047 0)"/>
       <use xlink:href="#DejaVuSans-35" transform="translate(95.410156 0)"/>
      </g>
     </g>
    </g>
    <g id="xtick_8">
     <g id="line2d_39">
      <path d="M 619.410957 313.958125 
L 619.410957 22.318125 
" clip-path="url(#p68659d7377)" style="fill: none; stroke: #b0b0b0; stroke-opacity: 0.3; stroke-width: 0.8; stroke-linecap: square"/>
     </g>
     <g id="line2d_40">
      <g>
       <use xlink:href="#maed90b0590" x="619.410957" y="313.958125" style="stroke: #000000; stroke-width: 0.8"/>
      </g>
     </g>
     <g id="text_23">
      <!-- 0.6 -->
      <g transform="translate(611.459395 328.556563) scale(0.1 -0.1)">
       <use xlink:href="#DejaVuSans-30"/>
       <use xlink:href="#DejaVuSans-2e" transform="translate(63.623047 0)"/>
       <use xlink:href="#DejaVuSans-36" transform="translate(95.410156 0)"/>
      </g>
     </g>
    </g>
    <g id="xtick_9">
     <g id="line2d_41">
      <path d="M 671.582193 313.958125 
L 671.582193 22.318125 
" clip-path="url(#p68659d7377)" style="fill: none; stroke: #b0b0b0; stroke-opacity: 0.3; stroke-width: 0.8; stroke-linecap: square"/>
     </g>
     <g id="line2d_42">
      <g>
       <use xlink:href="#maed90b0590" x="671.582193" y="313.958125" style="stroke: #000000; stroke-width: 0.8"/>
      </g>
     </g>
     <g id="text_24">
      <!-- 0.7 -->
      <g transform="translate(663.63063 328.556563) scale(0.1 -0.1)">
       <defs>
        <path id="DejaVuSans-37" d="M 525 4666 
L 3525 4666 
L 3525 4397 
L 1831 0 
L 1172 0 
L 2766 4134 
L 525 4134 
L 525 4666 
z
" transform="scale(0.015625)"/>
       </defs>
       <use xlink:href="#DejaVuSans-30"/>
       <use xlink:href="#DejaVuSans-2e" transform="translate(63.623047 0)"/>
       <use xlink:href="#DejaVuSans-37" transform="translate(95.410156 0)"/>
      </g>
     </g>
    </g>
    <g id="xtick_10">
     <g id="line2d_43">
      <path d="M 723.753428 313.958125 
L 723.753428 22.318125 
" clip-path="url(#p68659d7377)" style="fill: none; stroke: #b0b0b0; stroke-opacity: 0.3; stroke-width: 0.8; stroke-linecap: square"/>
     </g>
     <g id="line2d_44">
      <g>
       <use xlink:href="#maed90b0590" x="723.753428" y="313.958125" style="stroke: #000000; stroke-width: 0.8"/>
      </g>
     </g>
     <g id="text_25">
      <!-- 0.8 -->
      <g transform="translate(715.801866 328.556563) scale(0.1 -0.1)">
       <use xlink:href="#DejaVuSans-30"/>
       <use xlink:href="#DejaVuSans-2e" transform="translate(63.623047 0)"/>
       <use xlink:href="#DejaVuSans-38" transform="translate(95.410156 0)"/>
      </g>
     </g>
    </g>
    <g id="xtick_11">
     <g id="line2d_45">
      <path d="M 775.924664 313.958125 
L 775.924664 22.318125 
" clip-path="url(#p68659d7377)" style="fill: none; stroke: #b0b0b0; stroke-opacity: 0.3; stroke-width: 0.8; stroke-linecap: square"/>
     </g>
     <g id="line2d_46">
      <g>
       <use xlink:href="#maed90b0590" x="775.924664" y="313.958125" style="stroke: #000000; stroke-width: 0.8"/>
      </g>
     </g>
     <g id="text_26">
      <!-- 0.9 -->
      <g transform="translate(767.973101 328.556563) scale(0.1 -0.1)">
       <use xlink:href="#DejaVuSans-30"/>
       <use xlink:href="#DejaVuSans-2e" transform="translate(63.623047 0)"/>
       <use xlink:href="#DejaVuSans-39" transform="translate(95.410156 0)"/>
      </g>
     </g>
    </g>
    <g id="xtick_12">
     <g id="line2d_47">
      <path d="M 828.095899 313.958125 
L 828.095899 22.318125 
" clip-path="url(#p68659d7377)" style="fill: none; stroke: #b0b0b0; stroke-opacity: 0.3; stroke-width: 0.8; stroke-linecap: square"/>
     </g>
     <g id="line2d_48">
      <g>
       <use xlink:href="#maed90b0590" x="828.095899" y="313.958125" style="stroke: #000000; stroke-width: 0.8"/>
      </g>
     </g>
     <g id="text_27">
      <!-- 1.0 -->
      <g transform="translate(820.144337 328.556563) scale(0.1 -0.1)">
       <use xlink:href="#DejaVuSans-31"/>
       <use xlink:href="#DejaVuSans-2e" transform="translate(63.623047 0)"/>
       <use xlink:href="#DejaVuSans-30" transform="translate(95.410156 0)"/>
      </g>
     </g>
    </g>
    <g id="xtick_13">
     <g id="line2d_49">
      <path d="M 880.267134 313.958125 
L 880.267134 22.318125 
" clip-path="url(#p68659d7377)" style="fill: none; stroke: #b0b0b0; stroke-opacity: 0.3; stroke-width: 0.8; stroke-linecap: square"/>
     </g>
     <g id="line2d_50">
      <g>
       <use xlink:href="#maed90b0590" x="880.267134" y="313.958125" style="stroke: #000000; stroke-width: 0.8"/>
      </g>
     </g>
     <g id="text_28">
      <!-- 1.1 -->
      <g transform="translate(872.315572 328.556563) scale(0.1 -0.1)">
       <use xlink:href="#DejaVuSans-31"/>
       <use xlink:href="#DejaVuSans-2e" transform="translate(63.623047 0)"/>
       <use xlink:href="#DejaVuSans-31" transform="translate(95.410156 0)"/>
      </g>
     </g>
    </g>
    <g id="xtick_14">
     <g id="line2d_51">
      <path d="M 932.43837 313.958125 
L 932.43837 22.318125 
" clip-path="url(#p68659d7377)" style="fill: none; stroke: #b0b0b0; stroke-opacity: 0.3; stroke-width: 0.8; stroke-linecap: square"/>
     </g>
     <g id="line2d_52">
      <g>
       <use xlink:href="#maed90b0590" x="932.43837" y="313.958125" style="stroke: #000000; stroke-width: 0.8"/>
      </g>
     </g>
     <g id="text_29">
      <!-- 1.2 -->
      <g transform="translate(924.486807 328.556563) scale(0.1 -0.1)">
       <use xlink:href="#DejaVuSans-31"/>
       <use xlink:href="#DejaVuSans-2e" transform="translate(63.623047 0)"/>
       <use xlink:href="#DejaVuSans-32" transform="translate(95.410156 0)"/>
      </g>
     </g>
    </g>
    <g id="xtick_15">
     <g id="line2d_53">
      <path d="M 984.609605 313.958125 
L 984.609605 22.318125 
" clip-path="url(#p68659d7377)" style="fill: none; stroke: #b0b0b0; stroke-opacity: 0.3; stroke-width: 0.8; stroke-linecap: square"/>
     </g>
     <g id="line2d_54">
      <g>
       <use xlink:href="#maed90b0590" x="984.609605" y="313.958125" style="stroke: #000000; stroke-width: 0.8"/>
      </g>
     </g>
     <g id="text_30">
      <!-- 1.3 -->
      <g transform="translate(976.658043 328.556563) scale(0.1 -0.1)">
       <use xlink:href="#DejaVuSans-31"/>
       <use xlink:href="#DejaVuSans-2e" transform="translate(63.623047 0)"/>
       <use xlink:href="#DejaVuSans-33" transform="translate(95.410156 0)"/>
      </g>
     </g>
    </g>
    <g id="text_31">
     <!-- Posterior / Prior Width Ratio -->
     <g transform="translate(688.318834 342.994531) scale(0.11 -0.11)">
      <defs>
       <path id="DejaVuSans-2f" d="M 1625 4666 
L 2156 4666 
L 531 -594 
L 0 -594 
L 1625 4666 
z
" transform="scale(0.015625)"/>
       <path id="DejaVuSans-57" d="M 213 4666 
L 850 4666 
L 1831 722 
L 2809 4666 
L 3519 4666 
L 4500 722 
L 5478 4666 
L 6119 4666 
L 4947 0 
L 4153 0 
L 3169 4050 
L 2175 0 
L 1381 0 
L 213 4666 
z
" transform="scale(0.015625)"/>
       <path id="DejaVuSans-64" d="M 2906 2969 
L 2906 4863 
L 3481 4863 
L 3481 0 
L 2906 0 
L 2906 525 
Q 2725 213 2448 61 
Q 2172 -91 1784 -91 
Q 1150 -91 751 415 
Q 353 922 353 1747 
Q 353 2572 751 3078 
Q 1150 3584 1784 3584 
Q 2172 3584 2448 3432 
Q 2725 3281 2906 2969 
z
M 947 1747 
Q 947 1113 1208 752 
Q 1469 391 1925 391 
Q 2381 391 2643 752 
Q 2906 1113 2906 1747 
Q 2906 2381 2643 2742 
Q 2381 3103 1925 3103 
Q 1469 3103 1208 2742 
Q 947 2381 947 1747 
z
" transform="scale(0.015625)"/>
       <path id="DejaVuSans-68" d="M 3513 2113 
L 3513 0 
L 2938 0 
L 2938 2094 
Q 2938 2591 2744 2837 
Q 2550 3084 2163 3084 
Q 1697 3084 1428 2787 
Q 1159 2491 1159 1978 
L 1159 0 
L 581 0 
L 581 4863 
L 1159 4863 
L 1159 2956 
Q 1366 3272 1645 3428 
Q 1925 3584 2291 3584 
Q 2894 3584 3203 3211 
Q 3513 2838 3513 2113 
z
" transform="scale(0.015625)"/>
       <path id="DejaVuSans-52" d="M 2841 2188 
Q 3044 2119 3236 1894 
Q 3428 1669 3622 1275 
L 4263 0 
L 3584 0 
L 2988 1197 
Q 2756 1666 2539 1819 
Q 2322 1972 1947 1972 
L 1259 1972 
L 1259 0 
L 628 0 
L 628 4666 
L 2053 4666 
Q 2853 4666 3247 4331 
Q 3641 3997 3641 3322 
Q 3641 2881 3436 2590 
Q 3231 2300 2841 2188 
z
M 1259 4147 
L 1259 2491 
L 2053 2491 
Q 2509 2491 2742 2702 
Q 2975 2913 2975 3322 
Q 2975 3731 2742 3939 
Q 2509 4147 2053 4147 
L 1259 4147 
z
" transform="scale(0.015625)"/>
      </defs>
      <use xlink:href="#DejaVuSans-50"/>
      <use xlink:href="#DejaVuSans-6f" transform="translate(56.677734 0)"/>
      <use xlink:href="#DejaVuSans-73" transform="translate(117.859375 0)"/>
      <use xlink:href="#DejaVuSans-74" transform="translate(169.958984 0)"/>
      <use xlink:href="#DejaVuSans-65" transform="translate(209.167969 0)"/>
      <use xlink:href="#DejaVuSans-72" transform="translate(270.691406 0)"/>
      <use xlink:href="#DejaVuSans-69" transform="translate(311.804688 0)"/>
      <use xlink:href="#DejaVuSans-6f" transform="translate(339.587891 0)"/>
      <use xlink:href="#DejaVuSans-72" transform="translate(400.769531 0)"/>
      <use xlink:href="#DejaVuSans-20" transform="translate(441.882812 0)"/>
      <use xlink:href="#DejaVuSans-2f" transform="translate(473.669922 0)"/>
      <use xlink:href="#DejaVuSans-20" transform="translate(507.361328 0)"/>
      <use xlink:href="#DejaVuSans-50" transform="translate(539.148438 0)"/>
      <use xlink:href="#DejaVuSans-72" transform="translate(597.701172 0)"/>
      <use xlink:href="#DejaVuSans-69" transform="translate(638.814453 0)"/>
      <use xlink:href="#DejaVuSans-6f" transform="translate(666.597656 0)"/>
      <use xlink:href="#DejaVuSans-72" transform="translate(727.779297 0)"/>
      <use xlink:href="#DejaVuSans-20" transform="translate(768.892578 0)"/>
      <use xlink:href="#DejaVuSans-57" transform="translate(800.679688 0)"/>
      <use xlink:href="#DejaVuSans-69" transform="translate(897.306641 0)"/>
      <use xlink:href="#DejaVuSans-64" transform="translate(925.089844 0)"/>
      <use xlink:href="#DejaVuSans-74" transform="translate(988.566406 0)"/>
      <use xlink:href="#DejaVuSans-68" transform="translate(1027.775391 0)"/>
      <use xlink:href="#DejaVuSans-20" transform="translate(1091.154297 0)"/>
      <use xlink:href="#DejaVuSans-52" transform="translate(1122.941406 0)"/>
      <use xlink:href="#DejaVuSans-61" transform="translate(1190.173828 0)"/>
      <use xlink:href="#DejaVuSans-74" transform="translate(1251.453125 0)"/>
      <use xlink:href="#DejaVuSans-69" transform="translate(1290.662109 0)"/>
      <use xlink:href="#DejaVuSans-6f" transform="translate(1318.445312 0)"/>
     </g>
    </g>
   </g>
   <g id="matplotlib.axis_4">
    <g id="ytick_7">
     <g id="line2d_55">
      <path d="M 540.626775 313.958125 
L 987.764487 313.958125 
" clip-path="url(#p68659d7377)" style="fill: none; stroke: #b0b0b0; stroke-opacity: 0.3; stroke-width: 0.8; stroke-linecap: square"/>
     </g>
     <g id="line2d_56">
      <g>
       <use xlink:href="#m2213bec329" x="540.626775" y="313.958125" style="stroke: #000000; stroke-width: 0.8"/>
      </g>
     </g>
     <g id="text_32">
      <!-- 0 -->
      <g transform="translate(527.264275 317.757344) scale(0.1 -0.1)">
       <use xlink:href="#DejaVuSans-30"/>
      </g>
     </g>
    </g>
    <g id="ytick_8">
     <g id="line2d_57">
      <path d="M 540.626775 258.407649 
L 987.764487 258.407649 
" clip-path="url(#p68659d7377)" style="fill: none; stroke: #b0b0b0; stroke-opacity: 0.3; stroke-width: 0.8; stroke-linecap: square"/>
     </g>
     <g id="line2d_58">
      <g>
       <use xlink:href="#m2213bec329" x="540.626775" y="258.407649" style="stroke: #000000; stroke-width: 0.8"/>
      </g>
     </g>
     <g id="text_33">
      <!-- 2 -->
      <g transform="translate(527.264275 262.206868) scale(0.1 -0.1)">
       <use xlink:href="#DejaVuSans-32"/>
      </g>
     </g>
    </g>
    <g id="ytick_9">
     <g id="line2d_59">
      <path d="M 540.626775 202.857173 
L 987.764487 202.857173 
" clip-path="url(#p68659d7377)" style="fill: none; stroke: #b0b0b0; stroke-opacity: 0.3; stroke-width: 0.8; stroke-linecap: square"/>
     </g>
     <g id="line2d_60">
      <g>
       <use xlink:href="#m2213bec329" x="540.626775" y="202.857173" style="stroke: #000000; stroke-width: 0.8"/>
      </g>
     </g>
     <g id="text_34">
      <!-- 4 -->
      <g transform="translate(527.264275 206.656391) scale(0.1 -0.1)">
       <use xlink:href="#DejaVuSans-34"/>
      </g>
     </g>
    </g>
    <g id="ytick_10">
     <g id="line2d_61">
      <path d="M 540.626775 147.306696 
L 987.764487 147.306696 
" clip-path="url(#p68659d7377)" style="fill: none; stroke: #b0b0b0; stroke-opacity: 0.3; stroke-width: 0.8; stroke-linecap: square"/>
     </g>
     <g id="line2d_62">
      <g>
       <use xlink:href="#m2213bec329" x="540.626775" y="147.306696" style="stroke: #000000; stroke-width: 0.8"/>
      </g>
     </g>
     <g id="text_35">
      <!-- 6 -->
      <g transform="translate(527.264275 151.105915) scale(0.1 -0.1)">
       <use xlink:href="#DejaVuSans-36"/>
      </g>
     </g>
    </g>
    <g id="ytick_11">
     <g id="line2d_63">
      <path d="M 540.626775 91.75622 
L 987.764487 91.75622 
" clip-path="url(#p68659d7377)" style="fill: none; stroke: #b0b0b0; stroke-opacity: 0.3; stroke-width: 0.8; stroke-linecap: square"/>
     </g>
     <g id="line2d_64">
      <g>
       <use xlink:href="#m2213bec329" x="540.626775" y="91.75622" style="stroke: #000000; stroke-width: 0.8"/>
      </g>
     </g>
     <g id="text_36">
      <!-- 8 -->
      <g transform="translate(527.264275 95.555439) scale(0.1 -0.1)">
       <use xlink:href="#DejaVuSans-38"/>
      </g>
     </g>
    </g>
    <g id="ytick_12">
     <g id="line2d_65">
      <path d="M 540.626775 36.205744 
L 987.764487 36.205744 
" clip-path="url(#p68659d7377)" style="fill: none; stroke: #b0b0b0; stroke-opacity: 0.3; stroke-width: 0.8; stroke-linecap: square"/>
     </g>
     <g id="line2d_66">
      <g>
       <use xlink:href="#m2213bec329" x="540.626775" y="36.205744" style="stroke: #000000; stroke-width: 0.8"/>
      </g>
     </g>
     <g id="text_37">
      <!-- 10 -->
      <g transform="translate(520.901775 40.004963) scale(0.1 -0.1)">
       <use xlink:href="#DejaVuSans-31"/>
       <use xlink:href="#DejaVuSans-30" transform="translate(63.623047 0)"/>
      </g>
     </g>
    </g>
    <g id="text_38">
     <!-- Count -->
     <g transform="translate(514.614119 184.471406) rotate(-90) scale(0.11 -0.11)">
      <defs>
       <path id="DejaVuSans-43" d="M 4122 4306 
L 4122 3641 
Q 3803 3938 3442 4084 
Q 3081 4231 2675 4231 
Q 1875 4231 1450 3742 
Q 1025 3253 1025 2328 
Q 1025 1406 1450 917 
Q 1875 428 2675 428 
Q 3081 428 3442 575 
Q 3803 722 4122 1019 
L 4122 359 
Q 3791 134 3420 21 
Q 3050 -91 2638 -91 
Q 1578 -91 968 557 
Q 359 1206 359 2328 
Q 359 3453 968 4101 
Q 1578 4750 2638 4750 
Q 3056 4750 3426 4639 
Q 3797 4528 4122 4306 
z
" transform="scale(0.015625)"/>
      </defs>
      <use xlink:href="#DejaVuSans-43"/>
      <use xlink:href="#DejaVuSans-6f" transform="translate(69.824219 0)"/>
      <use xlink:href="#DejaVuSans-75" transform="translate(131.005859 0)"/>
      <use xlink:href="#DejaVuSans-6e" transform="translate(194.384766 0)"/>
      <use xlink:href="#DejaVuSans-74" transform="translate(257.763672 0)"/>
     </g>
    </g>
   </g>
   <g id="line2d_67">
    <path d="M 828.095899 313.958125 
L 828.095899 22.318125 
" clip-path="url(#p68659d7377)" style="fill: none; stroke-dasharray: 7.4,3.2; stroke-dashoffset: 0; stroke: #ff0000; stroke-width: 2"/>
   </g>
   <g id="line2d_68">
    <path d="M 765.397899 313.958125 
L 765.397899 22.318125 
" clip-path="url(#p68659d7377)" style="fill: none; stroke: #000000; stroke-width: 2; stroke-linecap: square"/>
   </g>
   <g id="patch_24">
    <path d="M 540.626775 313.958125 
L 540.626775 22.318125 
" style="fill: none; stroke: #000000; stroke-width: 0.8; stroke-linejoin: miter; stroke-linecap: square"/>
   </g>
   <g id="patch_25">
    <path d="M 987.764487 313.958125 
L 987.764487 22.318125 
" style="fill: none; stroke: #000000; stroke-width: 0.8; stroke-linejoin: miter; stroke-linecap: square"/>
   </g>
   <g id="patch_26">
    <path d="M 540.626775 313.958125 
L 987.764487 313.958125 
" style="fill: none; stroke: #000000; stroke-width: 0.8; stroke-linejoin: miter; stroke-linecap: square"/>
   </g>
   <g id="patch_27">
    <path d="M 540.626775 22.318125 
L 987.764487 22.318125 
" style="fill: none; stroke: #000000; stroke-width: 0.8; stroke-linejoin: miter; stroke-linecap: square"/>
   </g>
   <g id="text_39">
    <!-- κ Posterior Contraction -->
    <g transform="translate(695.382194 16.318125) scale(0.12 -0.12)">
     <defs>
      <path id="DejaVuSans-63" d="M 3122 3366 
L 3122 2828 
Q 2878 2963 2633 3030 
Q 2388 3097 2138 3097 
Q 1578 3097 1268 2742 
Q 959 2388 959 1747 
Q 959 1106 1268 751 
Q 1578 397 2138 397 
Q 2388 397 2633 464 
Q 2878 531 3122 666 
L 3122 134 
Q 2881 22 2623 -34 
Q 2366 -91 2075 -91 
Q 1284 -91 818 406 
Q 353 903 353 1747 
Q 353 2603 823 3093 
Q 1294 3584 2113 3584 
Q 2378 3584 2631 3529 
Q 2884 3475 3122 3366 
z
" transform="scale(0.015625)"/>
     </defs>
     <use xlink:href="#DejaVuSans-3ba"/>
     <use xlink:href="#DejaVuSans-20" transform="translate(58.935547 0)"/>
     <use xlink:href="#DejaVuSans-50" transform="translate(90.722656 0)"/>
     <use xlink:href="#DejaVuSans-6f" transform="translate(147.400391 0)"/>
     <use xlink:href="#DejaVuSans-73" transform="translate(208.582031 0)"/>
     <use xlink:href="#DejaVuSans-74" transform="translate(260.681641 0)"/>
     <use xlink:href="#DejaVuSans-65" transform="translate(299.890625 0)"/>
     <use xlink:href="#DejaVuSans-72" transform="translate(361.414062 0)"/>
     <use xlink:href="#DejaVuSans-69" transform="translate(402.527344 0)"/>
     <use xlink:href="#DejaVuSans-6f" transform="translate(430.310547 0)"/>
     <use xlink:href="#DejaVuSans-72" transform="translate(491.492188 0)"/>
     <use xlink:href="#DejaVuSans-20" transform="translate(532.605469 0)"/>
     <use xlink:href="#DejaVuSans-43" transform="translate(564.392578 0)"/>
     <use xlink:href="#DejaVuSans-6f" transform="translate(634.216797 0)"/>
     <use xlink:href="#DejaVuSans-6e" transform="translate(695.398438 0)"/>
     <use xlink:href="#DejaVuSans-74" transform="translate(758.777344 0)"/>
     <use xlink:href="#DejaVuSans-72" transform="translate(797.986328 0)"/>
     <use xlink:href="#DejaVuSans-61" transform="translate(839.099609 0)"/>
     <use xlink:href="#DejaVuSans-63" transform="translate(900.378906 0)"/>
     <use xlink:href="#DejaVuSans-74" transform="translate(955.359375 0)"/>
     <use xlink:href="#DejaVuSans-69" transform="translate(994.568359 0)"/>
     <use xlink:href="#DejaVuSans-6f" transform="translate(1022.351562 0)"/>
     <use xlink:href="#DejaVuSans-6e" transform="translate(1083.533203 0)"/>
    </g>
   </g>
   <g id="legend_2">
    <g id="patch_28">
     <path d="M 886.473706 55.93875 
L 981.464487 55.93875 
Q 983.264487 55.93875 983.264487 54.13875 
L 983.264487 28.618125 
Q 983.264487 26.818125 981.464487 26.818125 
L 886.473706 26.818125 
Q 884.673706 26.818125 884.673706 28.618125 
L 884.673706 54.13875 
Q 884.673706 55.93875 886.473706 55.93875 
z
" style="fill: #ffffff; opacity: 0.8; stroke: #cccccc; stroke-linejoin: miter"/>
    </g>
    <g id="line2d_69">
     <path d="M 888.273706 34.106719 
L 897.273706 34.106719 
L 906.273706 34.106719 
" style="fill: none; stroke-dasharray: 7.4,3.2; stroke-dashoffset: 0; stroke: #ff0000; stroke-width: 2"/>
    </g>
    <g id="text_40">
     <!-- No contraction -->
     <g transform="translate(913.473706 37.256719) scale(0.09 -0.09)">
      <use xlink:href="#DejaVuSans-4e"/>
      <use xlink:href="#DejaVuSans-6f" transform="translate(74.804688 0)"/>
      <use xlink:href="#DejaVuSans-20" transform="translate(135.986328 0)"/>
      <use xlink:href="#DejaVuSans-63" transform="translate(167.773438 0)"/>
      <use xlink:href="#DejaVuSans-6f" transform="translate(222.753906 0)"/>
      <use xlink:href="#DejaVuSans-6e" transform="translate(283.935547 0)"/>
      <use xlink:href="#DejaVuSans-74" transform="translate(347.314453 0)"/>
      <use xlink:href="#DejaVuSans-72" transform="translate(386.523438 0)"/>
      <use xlink:href="#DejaVuSans-61" transform="translate(427.636719 0)"/>
      <use xlink:href="#DejaVuSans-63" transform="translate(488.916016 0)"/>
      <use xlink:href="#DejaVuSans-74" transform="translate(543.896484 0)"/>
      <use xlink:href="#DejaVuSans-69" transform="translate(583.105469 0)"/>
      <use xlink:href="#DejaVuSans-6f" transform="translate(610.888672 0)"/>
      <use xlink:href="#DejaVuSans-6e" transform="translate(672.070312 0)"/>
     </g>
    </g>
    <g id="line2d_70">
     <path d="M 888.273706 47.317031 
L 897.273706 47.317031 
L 906.273706 47.317031 
" style="fill: none; stroke: #000000; stroke-width: 2; stroke-linecap: square"/>
    </g>
    <g id="text_41">
     <!-- Median: 0.88 -->
     <g transform="translate(913.473706 50.467031) scale(0.09 -0.09)">
      <defs>
       <path id="DejaVuSans-4d" d="M 628 4666 
L 1569 4666 
L 2759 1491 
L 3956 4666 
L 4897 4666 
L 4897 0 
L 4281 0 
L 4281 4097 
L 3078 897 
L 2444 897 
L 1241 4097 
L 1241 0 
L 628 0 
L 628 4666 
z
" transform="scale(0.015625)"/>
      </defs>
      <use xlink:href="#DejaVuSans-4d"/>
      <use xlink:href="#DejaVuSans-65" transform="translate(86.279297 0)"/>
      <use xlink:href="#DejaVuSans-64" transform="translate(147.802734 0)"/>
      <use xlink:href="#DejaVuSans-69" transform="translate(211.279297 0)"/>
      <use xlink:href="#DejaVuSans-61" transform="translate(239.0625 0)"/>
      <use xlink:href="#DejaVuSans-6e" transform="translate(300.341797 0)"/>
      <use xlink:href="#DejaVuSans-3a" transform="translate(363.720703 0)"/>
      <use xlink:href="#DejaVuSans-20" transform="translate(397.412109 0)"/>
      <use xlink:href="#DejaVuSans-30" transform="translate(429.199219 0)"/>
      <use xlink:href="#DejaVuSans-2e" transform="translate(492.822266 0)"/>
      <use xlink:href="#DejaVuSans-38" transform="translate(524.609375 0)"/>
      <use xlink:href="#DejaVuSans-38" transform="translate(588.232422 0)"/>
     </g>
    </g>
   </g>
  </g>
 </g>
 <defs>
  <clipPath id="pcf9d07c5f8">
   <rect x="44.749063" y="22.318125" width="447.137712" height="291.64"/>
  </clipPath>
  <clipPath id="p68659d7377">
   <rect x="540.626775" y="22.318125" width="447.137712" height="291.64"/>
  </clipPath>
 </defs>
</svg>
