<?xml version="1.0" encoding="utf-8" standalone="no"?>
<!DOCTYPE svg PUBLIC "-//W3C//DTD SVG 1.1//EN"
  "http://www.w3.org/Graphics/SVG/1.1/DTD/svg11.dtd">
<svg xmlns:xlink="http://www.w3.org/1999/xlink" width="566.254063pt" height="278.602031pt" viewBox="0 0 566.254063 278.602031" xmlns="http://www.w3.org/2000/svg" version="1.1">
 <metadata>
  <rdf:RDF xmlns:dc="http://purl.org/dc/elements/1.1/" xmlns:cc="http://creativecommons.org/ns#" xmlns:rdf="http://www.w3.org/1999/02/22-rdf-syntax-ns#">
   <cc:Work>
    <dc:type rdf:resource="http://purl.org/dc/dcmitype/StillImage"/>
    <dc:date>2026-02-17T00:03:39.016890</dc:date>
    <dc:format>image/svg+xml</dc:format>
    <dc:creator>
     <cc:Agent>
      <dc:title>Matplotlib v3.10.8, https://matplotlib.org/</dc:title>
     </cc:Agent>
    </dc:creator>
   </cc:Work>
  </rdf:RDF>
 </metadata>
 <defs>
  <style type="text/css">*{stroke-linejoin: round; stroke-linecap: butt}</style>
 </defs>
 <g id="figure_1">
  <g id="patch_1">
   <path d="M 0 278.602031 
L 566.254063 278.602031 
L 566.254063 0 
L 0 0 
z
" style="fill: #ffffff"/>
  </g>
  <g id="axes_1">
   <g id="patch_2">
    <path d="M 57.474063 240.077969 
L 559.054062 240.077969 
L 559.054062 23.077969 
L 57.474063 23.077969 
z
" style="fill: #ffffff"/>
   </g>
   <g id="FillBetweenPolyCollection_1">
    <defs>
     <path id="m2506ccf0a5" d="M 80.273153 -48.387699 
L 80.273153 -52.538541 
L 81.798176 -52.730867 
L 83.323199 -52.928256 
L 84.848222 -53.129933 
L 86.373245 -53.335338 
L 87.898267 -53.544136 
L 89.42329 -53.756199 
L 90.948313 -53.971582 
L 92.473336 -54.19048 
L 93.998359 -54.413171 
L 95.523381 -54.639958 
L 97.048404 -54.871106 
L 98.573427 -55.106781 
L 100.09845 -55.346994 
L 101.623473 -55.591563 
L 103.148495 -55.840079 
L 104.673518 -56.091905 
L 106.198541 -56.346177 
L 107.723564 -56.601839 
L 109.248587 -56.857689 
L 110.773609 -57.112439 
L 112.298632 -57.364799 
L 113.823655 -57.613551 
L 115.348678 -57.857648 
L 116.873701 -58.096288 
L 118.398723 -58.328998 
L 119.923746 -58.555691 
L 121.448769 -58.776716 
L 122.973792 -58.992875 
L 124.498815 -59.205428 
L 126.023838 -59.41606 
L 127.54886 -59.626833 
L 129.073883 -59.840113 
L 130.598906 -60.058471 
L 132.123929 -60.28458 
L 133.648952 -60.521093 
L 135.173974 -60.770523 
L 136.698997 -61.035127 
L 138.22402 -61.316791 
L 139.749043 -61.616944 
L 141.274066 -61.936481 
L 142.799088 -62.275711 
L 144.324111 -62.634343 
L 145.849134 -63.011483 
L 147.374157 -63.405671 
L 148.89918 -63.814941 
L 150.424202 -64.236895 
L 151.949225 -64.668807 
L 153.474248 -65.10773 
L 154.999271 -65.550612 
L 156.524294 -65.994418 
L 158.049316 -66.436237 
L 159.574339 -66.873391 
L 161.099362 -67.303523 
L 162.624385 -67.724668 
L 164.149408 -68.135309 
L 165.67443 -68.534408 
L 167.199453 -68.921425 
L 168.724476 -69.29631 
L 170.249499 -69.659488 
L 171.774522 -70.011823 
L 173.299544 -70.354577 
L 174.824567 -70.68936 
L 176.34959 -71.018077 
L 177.874613 -71.342871 
L 179.399636 -71.666068 
L 180.924658 -71.990127 
L 182.449681 -72.317586 
L 183.974704 -72.651019 
L 185.499727 -72.99299 
L 187.02475 -73.346017 
L 188.549772 -73.712533 
L 190.074795 -74.094855 
L 191.599818 -74.495149 
L 193.124841 -74.915409 
L 194.649864 -75.357428 
L 196.174886 -75.822781 
L 197.699909 -76.31281 
L 199.224932 -76.828613 
L 200.749955 -77.371048 
L 202.274978 -77.940736 
L 203.8 -78.538079 
L 205.325023 -79.163283 
L 206.850046 -79.81639 
L 208.375069 -80.497319 
L 209.900092 -81.205909 
L 211.425114 -81.941971 
L 212.950137 -82.705329 
L 214.47516 -83.495878 
L 216.000183 -84.313618 
L 217.525206 -85.1587 
L 219.050229 -86.031447 
L 220.575251 -86.93238 
L 222.100274 -87.862224 
L 223.625297 -88.821904 
L 225.15032 -89.812539 
L 226.675343 -90.83541 
L 228.200365 -91.891936 
L 229.725388 -92.983629 
L 231.250411 -94.112047 
L 232.775434 -95.278739 
L 234.300457 -96.485185 
L 235.825479 -97.732736 
L 237.350502 -99.02254 
L 238.875525 -100.355476 
L 240.400548 -101.732082 
L 241.925571 -103.152483 
L 243.450593 -104.616328 
L 244.975616 -106.122725 
L 246.500639 -107.670197 
L 248.025662 -109.256639 
L 249.550685 -110.879307 
L 251.075707 -112.534821 
L 252.60073 -114.219196 
L 254.125753 -115.927901 
L 255.650776 -117.65595 
L 257.175799 -119.398023 
L 258.700821 -121.148604 
L 260.225844 -122.902155 
L 261.750867 -124.653293 
L 263.27589 -126.39698 
L 264.800913 -128.128707 
L 266.325935 -129.844671 
L 267.850958 -131.541924 
L 269.375981 -133.218492 
L 270.901004 -134.873453 
L 272.426027 -136.50698 
L 273.951049 -138.120321 
L 275.476072 -139.715741 
L 277.001095 -141.296417 
L 278.526118 -142.86629 
L 280.051141 -144.429883 
L 281.576163 -145.992092 
L 283.101186 -147.557969 
L 284.626209 -149.132492 
L 286.151232 -150.720347 
L 287.676255 -152.325717 
L 289.201277 -153.952111 
L 290.7263 -155.602204 
L 292.251323 -157.277731 
L 293.776346 -158.979415 
L 295.301369 -160.706938 
L 296.826391 -162.458954 
L 298.351414 -164.23315 
L 299.876437 -166.026337 
L 301.40146 -167.834587 
L 302.926483 -169.653391 
L 304.451505 -171.477845 
L 305.976528 -173.302848 
L 307.501551 -175.12332 
L 309.026574 -176.934404 
L 310.551597 -178.731677 
L 312.07662 -180.511337 
L 313.601642 -182.270365 
L 315.126665 -184.006661 
L 316.651688 -185.719142 
L 318.176711 -187.4078 
L 319.701734 -189.073709 
L 321.226756 -190.718995 
L 322.751779 -192.34675 
L 324.276802 -193.960915 
L 325.801825 -195.566108 
L 327.326848 -197.167432 
L 328.85187 -198.77025 
L 330.376893 -200.379942 
L 331.901916 -202.001656 
L 333.426939 -203.640058 
L 334.951962 -205.299093 
L 336.476984 -206.981765 
L 338.002007 -208.689948 
L 339.52703 -210.42423 
L 341.052053 -212.183799 
L 342.577076 -213.966379 
L 344.102098 -215.768212 
L 345.627121 -217.584091 
L 347.152144 -219.407453 
L 348.677167 -221.230511 
L 350.20219 -223.044441 
L 351.727212 -224.839602 
L 353.252235 -226.605796 
L 354.777258 -228.332552 
L 356.302281 -230.009423 
L 357.827304 -231.626293 
L 359.352326 -233.173665 
L 360.877349 -234.642943 
L 362.402372 -236.026674 
L 363.927395 -237.318744 
L 365.452418 -238.514526 
L 366.97744 -239.610964 
L 368.502463 -240.606588 
L 370.027486 -241.501465 
L 371.552509 -242.297075 
L 373.077532 -242.996132 
L 374.602554 -243.602349 
L 376.127577 -244.120167 
L 377.6526 -244.554452 
L 379.177623 -244.910197 
L 380.702646 -245.192226 
L 382.227668 -245.404931 
L 383.752691 -245.552056 
L 385.277714 -245.636539 
L 386.802737 -245.660426 
L 388.32776 -245.624852 
L 389.852782 -245.530098 
L 391.377805 -245.375714 
L 392.902828 -245.16069 
L 394.427851 -244.883672 
L 395.952874 -244.543188 
L 397.477896 -244.137874 
L 399.002919 -243.666676 
L 400.527942 -243.128999 
L 402.052965 -242.5248 
L 403.577988 -241.85461 
L 405.103011 -241.119469 
L 406.628033 -240.320793 
L 408.153056 -239.460163 
L 409.678079 -238.539072 
L 411.203102 -237.55863 
L 412.728125 -236.519271 
L 414.253147 -235.420479 
L 415.77817 -234.260555 
L 417.303193 -233.036471 
L 418.828216 -231.743804 
L 420.353239 -230.376788 
L 421.878261 -228.92847 
L 423.403284 -227.390985 
L 424.928307 -225.755917 
L 426.45333 -224.014751 
L 427.978353 -222.159364 
L 429.503375 -220.182539 
L 431.028398 -218.078467 
L 432.553421 -215.843194 
L 434.078444 -213.474988 
L 435.603467 -210.9746 
L 437.128489 -208.345403 
L 438.653512 -205.593392 
L 440.178535 -202.727045 
L 441.703558 -199.757067 
L 443.228581 -196.696014 
L 444.753603 -193.557838 
L 446.278626 -190.35737 
L 447.803649 -187.10978 
L 449.328672 -183.830049 
L 450.853695 -180.532473 
L 452.378717 -177.230239 
L 453.90374 -173.935076 
L 455.428763 -170.657018 
L 456.953786 -167.404267 
L 458.478809 -164.183162 
L 460.003831 -160.998249 
L 461.528854 -157.852436 
L 463.053877 -154.747212 
L 464.5789 -151.682917 
L 466.103923 -148.659035 
L 467.628945 -145.674487 
L 469.153968 -142.727914 
L 470.678991 -139.817919 
L 472.204014 -136.943274 
L 473.729037 -134.103063 
L 475.254059 -131.296784 
L 476.779082 -128.524382 
L 478.304105 -125.786249 
L 479.829128 -123.083175 
L 481.354151 -120.416276 
L 482.879173 -117.786909 
L 484.404196 -115.196573 
L 485.929219 -112.646831 
L 487.454242 -110.139231 
L 488.979265 -107.675256 
L 490.504287 -105.256297 
L 492.02931 -102.88365 
L 493.554333 -100.558523 
L 495.079356 -98.282074 
L 496.604379 -96.055451 
L 498.129402 -93.87983 
L 499.654424 -91.756458 
L 501.179447 -89.686684 
L 502.70447 -87.671968 
L 504.229493 -85.713887 
L 505.754516 -83.814105 
L 507.279538 -81.97434 
L 508.804561 -80.196308 
L 510.329584 -78.481656 
L 511.854607 -76.831891 
L 513.37963 -75.248308 
L 514.904652 -73.731913 
L 516.429675 -72.283367 
L 517.954698 -70.902931 
L 519.479721 -69.590433 
L 521.004744 -68.34525 
L 522.529766 -67.166302 
L 524.054789 -66.052073 
L 525.579812 -65.000642 
L 527.104835 -64.009725 
L 528.629858 -63.076734 
L 530.15488 -62.198836 
L 531.679903 -61.37303 
L 533.204926 -60.596212 
L 534.729949 -59.865243 
L 536.254972 -59.177023 
L 536.254972 -48.387699 
L 536.254972 -48.387699 
L 534.729949 -48.387699 
L 533.204926 -48.387699 
L 531.679903 -48.387699 
L 530.15488 -48.387699 
L 528.629858 -48.387699 
L 527.104835 -48.387699 
L 525.579812 -48.387699 
L 524.054789 -48.387699 
L 522.529766 -48.387699 
L 521.004744 -48.387699 
L 519.479721 -48.387699 
L 517.954698 -48.387699 
L 516.429675 -48.387699 
L 514.904652 -48.387699 
L 513.37963 -48.387699 
L 511.854607 -48.387699 
L 510.329584 -48.387699 
L 508.804561 -48.387699 
L 507.279538 -48.387699 
L 505.754516 -48.387699 
L 504.229493 -48.387699 
L 502.70447 -48.387699 
L 501.179447 -48.387699 
L 499.654424 -48.387699 
L 498.129402 -48.387699 
L 496.604379 -48.387699 
L 495.079356 -48.387699 
L 493.554333 -48.387699 
L 492.02931 -48.387699 
L 490.504287 -48.387699 
L 488.979265 -48.387699 
L 487.454242 -48.387699 
L 485.929219 -48.387699 
L 484.404196 -48.387699 
L 482.879173 -48.387699 
L 481.354151 -48.387699 
L 479.829128 -48.387699 
L 478.304105 -48.387699 
L 476.779082 -48.387699 
L 475.254059 -48.387699 
L 473.729037 -48.387699 
L 472.204014 -48.387699 
L 470.678991 -48.387699 
L 469.153968 -48.387699 
L 467.628945 -48.387699 
L 466.103923 -48.387699 
L 464.5789 -48.387699 
L 463.053877 -48.387699 
L 461.528854 -48.387699 
L 460.003831 -48.387699 
L 458.478809 -48.387699 
L 456.953786 -48.387699 
L 455.428763 -48.387699 
L 453.90374 -48.387699 
L 452.378717 -48.387699 
L 450.853695 -48.387699 
L 449.328672 -48.387699 
L 447.803649 -48.387699 
L 446.278626 -48.387699 
L 444.753603 -48.387699 
L 443.228581 -48.387699 
L 441.703558 -48.387699 
L 440.178535 -48.387699 
L 438.653512 -48.387699 
L 437.128489 -48.387699 
L 435.603467 -48.387699 
L 434.078444 -48.387699 
L 432.553421 -48.387699 
L 431.028398 -48.387699 
L 429.503375 -48.387699 
L 427.978353 -48.387699 
L 426.45333 -48.387699 
L 424.928307 -48.387699 
L 423.403284 -48.387699 
L 421.878261 -48.387699 
L 420.353239 -48.387699 
L 418.828216 -48.387699 
L 417.303193 -48.387699 
L 415.77817 -48.387699 
L 414.253147 -48.387699 
L 412.728125 -48.387699 
L 411.203102 -48.387699 
L 409.678079 -48.387699 
L 408.153056 -48.387699 
L 406.628033 -48.387699 
L 405.103011 -48.387699 
L 403.577988 -48.387699 
L 402.052965 -48.387699 
L 400.527942 -48.387699 
L 399.002919 -48.387699 
L 397.477896 -48.387699 
L 395.952874 -48.387699 
L 394.427851 -48.387699 
L 392.902828 -48.387699 
L 391.377805 -48.387699 
L 389.852782 -48.387699 
L 388.32776 -48.387699 
L 386.802737 -48.387699 
L 385.277714 -48.387699 
L 383.752691 -48.387699 
L 382.227668 -48.387699 
L 380.702646 -48.387699 
L 379.177623 -48.387699 
L 377.6526 -48.387699 
L 376.127577 -48.387699 
L 374.602554 -48.387699 
L 373.077532 -48.387699 
L 371.552509 -48.387699 
L 370.027486 -48.387699 
L 368.502463 -48.387699 
L 366.97744 -48.387699 
L 365.452418 -48.387699 
L 363.927395 -48.387699 
L 362.402372 -48.387699 
L 360.877349 -48.387699 
L 359.352326 -48.387699 
L 357.827304 -48.387699 
L 356.302281 -48.387699 
L 354.777258 -48.387699 
L 353.252235 -48.387699 
L 351.727212 -48.387699 
L 350.20219 -48.387699 
L 348.677167 -48.387699 
L 347.152144 -48.387699 
L 345.627121 -48.387699 
L 344.102098 -48.387699 
L 342.577076 -48.387699 
L 341.052053 -48.387699 
L 339.52703 -48.387699 
L 338.002007 -48.387699 
L 336.476984 -48.387699 
L 334.951962 -48.387699 
L 333.426939 -48.387699 
L 331.901916 -48.387699 
L 330.376893 -48.387699 
L 328.85187 -48.387699 
L 327.326848 -48.387699 
L 325.801825 -48.387699 
L 324.276802 -48.387699 
L 322.751779 -48.387699 
L 321.226756 -48.387699 
L 319.701734 -48.387699 
L 318.176711 -48.387699 
L 316.651688 -48.387699 
L 315.126665 -48.387699 
L 313.601642 -48.387699 
L 312.07662 -48.387699 
L 310.551597 -48.387699 
L 309.026574 -48.387699 
L 307.501551 -48.387699 
L 305.976528 -48.387699 
L 304.451505 -48.387699 
L 302.926483 -48.387699 
L 301.40146 -48.387699 
L 299.876437 -48.387699 
L 298.351414 -48.387699 
L 296.826391 -48.387699 
L 295.301369 -48.387699 
L 293.776346 -48.387699 
L 292.251323 -48.387699 
L 290.7263 -48.387699 
L 289.201277 -48.387699 
L 287.676255 -48.387699 
L 286.151232 -48.387699 
L 284.626209 -48.387699 
L 283.101186 -48.387699 
L 281.576163 -48.387699 
L 280.051141 -48.387699 
L 278.526118 -48.387699 
L 277.001095 -48.387699 
L 275.476072 -48.387699 
L 273.951049 -48.387699 
L 272.426027 -48.387699 
L 270.901004 -48.387699 
L 269.375981 -48.387699 
L 267.850958 -48.387699 
L 266.325935 -48.387699 
L 264.800913 -48.387699 
L 263.27589 -48.387699 
L 261.750867 -48.387699 
L 260.225844 -48.387699 
L 258.700821 -48.387699 
L 257.175799 -48.387699 
L 255.650776 -48.387699 
L 254.125753 -48.387699 
L 252.60073 -48.387699 
L 251.075707 -48.387699 
L 249.550685 -48.387699 
L 248.025662 -48.387699 
L 246.500639 -48.387699 
L 244.975616 -48.387699 
L 243.450593 -48.387699 
L 241.925571 -48.387699 
L 240.400548 -48.387699 
L 238.875525 -48.387699 
L 237.350502 -48.387699 
L 235.825479 -48.387699 
L 234.300457 -48.387699 
L 232.775434 -48.387699 
L 231.250411 -48.387699 
L 229.725388 -48.387699 
L 228.200365 -48.387699 
L 226.675343 -48.387699 
L 225.15032 -48.387699 
L 223.625297 -48.387699 
L 222.100274 -48.387699 
L 220.575251 -48.387699 
L 219.050229 -48.387699 
L 217.525206 -48.387699 
L 216.000183 -48.387699 
L 214.47516 -48.387699 
L 212.950137 -48.387699 
L 211.425114 -48.387699 
L 209.900092 -48.387699 
L 208.375069 -48.387699 
L 206.850046 -48.387699 
L 205.325023 -48.387699 
L 203.8 -48.387699 
L 202.274978 -48.387699 
L 200.749955 -48.387699 
L 199.224932 -48.387699 
L 197.699909 -48.387699 
L 196.174886 -48.387699 
L 194.649864 -48.387699 
L 193.124841 -48.387699 
L 191.599818 -48.387699 
L 190.074795 -48.387699 
L 188.549772 -48.387699 
L 187.02475 -48.387699 
L 185.499727 -48.387699 
L 183.974704 -48.387699 
L 182.449681 -48.387699 
L 180.924658 -48.387699 
L 179.399636 -48.387699 
L 177.874613 -48.387699 
L 176.34959 -48.387699 
L 174.824567 -48.387699 
L 173.299544 -48.387699 
L 171.774522 -48.387699 
L 170.249499 -48.387699 
L 168.724476 -48.387699 
L 167.199453 -48.387699 
L 165.67443 -48.387699 
L 164.149408 -48.387699 
L 162.624385 -48.387699 
L 161.099362 -48.387699 
L 159.574339 -48.387699 
L 158.049316 -48.387699 
L 156.524294 -48.387699 
L 154.999271 -48.387699 
L 153.474248 -48.387699 
L 151.949225 -48.387699 
L 150.424202 -48.387699 
L 148.89918 -48.387699 
L 147.374157 -48.387699 
L 145.849134 -48.387699 
L 144.324111 -48.387699 
L 142.799088 -48.387699 
L 141.274066 -48.387699 
L 139.749043 -48.387699 
L 138.22402 -48.387699 
L 136.698997 -48.387699 
L 135.173974 -48.387699 
L 133.648952 -48.387699 
L 132.123929 -48.387699 
L 130.598906 -48.387699 
L 129.073883 -48.387699 
L 127.54886 -48.387699 
L 126.023838 -48.387699 
L 124.498815 -48.387699 
L 122.973792 -48.387699 
L 121.448769 -48.387699 
L 119.923746 -48.387699 
L 118.398723 -48.387699 
L 116.873701 -48.387699 
L 115.348678 -48.387699 
L 113.823655 -48.387699 
L 112.298632 -48.387699 
L 110.773609 -48.387699 
L 109.248587 -48.387699 
L 107.723564 -48.387699 
L 106.198541 -48.387699 
L 104.673518 -48.387699 
L 103.148495 -48.387699 
L 101.623473 -48.387699 
L 100.09845 -48.387699 
L 98.573427 -48.387699 
L 97.048404 -48.387699 
L 95.523381 -48.387699 
L 93.998359 -48.387699 
L 92.473336 -48.387699 
L 90.948313 -48.387699 
L 89.42329 -48.387699 
L 87.898267 -48.387699 
L 86.373245 -48.387699 
L 84.848222 -48.387699 
L 83.323199 -48.387699 
L 81.798176 -48.387699 
L 80.273153 -48.387699 
z
" style="stroke: #2c5282; stroke-opacity: 0.3"/>
    </defs>
    <g clip-path="url(#p14128594e7)">
     <use xlink:href="#m2506ccf0a5" x="0" y="278.602031" style="fill: #2c5282; fill-opacity: 0.3; stroke: #2c5282; stroke-opacity: 0.3"/>
    </g>
   </g>
   <g id="FillBetweenPolyCollection_2">
    <defs>
     <path id="mec2bcd4ec4" d="M 200.749955 -48.387699 
L 200.749955 -77.371048 
L 202.274978 -77.940736 
L 203.8 -78.538079 
L 205.325023 -79.163283 
L 206.850046 -79.81639 
L 208.375069 -80.497319 
L 209.900092 -81.205909 
L 211.425114 -81.941971 
L 212.950137 -82.705329 
L 214.47516 -83.495878 
L 216.000183 -84.313618 
L 217.525206 -85.1587 
L 219.050229 -86.031447 
L 220.575251 -86.93238 
L 222.100274 -87.862224 
L 223.625297 -88.821904 
L 225.15032 -89.812539 
L 226.675343 -90.83541 
L 228.200365 -91.891936 
L 229.725388 -92.983629 
L 231.250411 -94.112047 
L 232.775434 -95.278739 
L 234.300457 -96.485185 
L 235.825479 -97.732736 
L 237.350502 -99.02254 
L 238.875525 -100.355476 
L 240.400548 -101.732082 
L 241.925571 -103.152483 
L 243.450593 -104.616328 
L 244.975616 -106.122725 
L 246.500639 -107.670197 
L 248.025662 -109.256639 
L 249.550685 -110.879307 
L 251.075707 -112.534821 
L 252.60073 -114.219196 
L 254.125753 -115.927901 
L 255.650776 -117.65595 
L 257.175799 -119.398023 
L 258.700821 -121.148604 
L 260.225844 -122.902155 
L 261.750867 -124.653293 
L 263.27589 -126.39698 
L 264.800913 -128.128707 
L 266.325935 -129.844671 
L 267.850958 -131.541924 
L 269.375981 -133.218492 
L 270.901004 -134.873453 
L 272.426027 -136.50698 
L 273.951049 -138.120321 
L 275.476072 -139.715741 
L 277.001095 -141.296417 
L 278.526118 -142.86629 
L 280.051141 -144.429883 
L 281.576163 -145.992092 
L 283.101186 -147.557969 
L 284.626209 -149.132492 
L 286.151232 -150.720347 
L 287.676255 -152.325717 
L 289.201277 -153.952111 
L 290.7263 -155.602204 
L 292.251323 -157.277731 
L 293.776346 -158.979415 
L 295.301369 -160.706938 
L 296.826391 -162.458954 
L 298.351414 -164.23315 
L 299.876437 -166.026337 
L 301.40146 -167.834587 
L 302.926483 -169.653391 
L 304.451505 -171.477845 
L 305.976528 -173.302848 
L 307.501551 -175.12332 
L 309.026574 -176.934404 
L 310.551597 -178.731677 
L 312.07662 -180.511337 
L 313.601642 -182.270365 
L 315.126665 -184.006661 
L 316.651688 -185.719142 
L 318.176711 -187.4078 
L 319.701734 -189.073709 
L 321.226756 -190.718995 
L 322.751779 -192.34675 
L 324.276802 -193.960915 
L 325.801825 -195.566108 
L 327.326848 -197.167432 
L 328.85187 -198.77025 
L 330.376893 -200.379942 
L 331.901916 -202.001656 
L 333.426939 -203.640058 
L 334.951962 -205.299093 
L 336.476984 -206.981765 
L 338.002007 -208.689948 
L 339.52703 -210.42423 
L 341.052053 -212.183799 
L 342.577076 -213.966379 
L 344.102098 -215.768212 
L 345.627121 -217.584091 
L 347.152144 -219.407453 
L 348.677167 -221.230511 
L 350.20219 -223.044441 
L 351.727212 -224.839602 
L 353.252235 -226.605796 
L 354.777258 -228.332552 
L 356.302281 -230.009423 
L 357.827304 -231.626293 
L 359.352326 -233.173665 
L 360.877349 -234.642943 
L 362.402372 -236.026674 
L 363.927395 -237.318744 
L 365.452418 -238.514526 
L 366.97744 -239.610964 
L 368.502463 -240.606588 
L 370.027486 -241.501465 
L 371.552509 -242.297075 
L 373.077532 -242.996132 
L 374.602554 -243.602349 
L 376.127577 -244.120167 
L 377.6526 -244.554452 
L 379.177623 -244.910197 
L 380.702646 -245.192226 
L 382.227668 -245.404931 
L 383.752691 -245.552056 
L 385.277714 -245.636539 
L 386.802737 -245.660426 
L 388.32776 -245.624852 
L 389.852782 -245.530098 
L 391.377805 -245.375714 
L 392.902828 -245.16069 
L 394.427851 -244.883672 
L 395.952874 -244.543188 
L 397.477896 -244.137874 
L 399.002919 -243.666676 
L 400.527942 -243.128999 
L 402.052965 -242.5248 
L 403.577988 -241.85461 
L 405.103011 -241.119469 
L 406.628033 -240.320793 
L 408.153056 -239.460163 
L 409.678079 -238.539072 
L 411.203102 -237.55863 
L 412.728125 -236.519271 
L 414.253147 -235.420479 
L 415.77817 -234.260555 
L 417.303193 -233.036471 
L 418.828216 -231.743804 
L 420.353239 -230.376788 
L 421.878261 -228.92847 
L 423.403284 -227.390985 
L 424.928307 -225.755917 
L 426.45333 -224.014751 
L 427.978353 -222.159364 
L 429.503375 -220.182539 
L 431.028398 -218.078467 
L 432.553421 -215.843194 
L 434.078444 -213.474988 
L 435.603467 -210.9746 
L 437.128489 -208.345403 
L 438.653512 -205.593392 
L 440.178535 -202.727045 
L 441.703558 -199.757067 
L 443.228581 -196.696014 
L 444.753603 -193.557838 
L 446.278626 -190.35737 
L 447.803649 -187.10978 
L 449.328672 -183.830049 
L 450.853695 -180.532473 
L 452.378717 -177.230239 
L 453.90374 -173.935076 
L 455.428763 -170.657018 
L 456.953786 -167.404267 
L 458.478809 -164.183162 
L 460.003831 -160.998249 
L 461.528854 -157.852436 
L 463.053877 -154.747212 
L 464.5789 -151.682917 
L 466.103923 -148.659035 
L 467.628945 -145.674487 
L 469.153968 -142.727914 
L 470.678991 -139.817919 
L 472.204014 -136.943274 
L 473.729037 -134.103063 
L 475.254059 -131.296784 
L 476.779082 -128.524382 
L 478.304105 -125.786249 
L 479.829128 -123.083175 
L 479.829128 -48.387699 
L 479.829128 -48.387699 
L 478.304105 -48.387699 
L 476.779082 -48.387699 
L 475.254059 -48.387699 
L 473.729037 -48.387699 
L 472.204014 -48.387699 
L 470.678991 -48.387699 
L 469.153968 -48.387699 
L 467.628945 -48.387699 
L 466.103923 -48.387699 
L 464.5789 -48.387699 
L 463.053877 -48.387699 
L 461.528854 -48.387699 
L 460.003831 -48.387699 
L 458.478809 -48.387699 
L 456.953786 -48.387699 
L 455.428763 -48.387699 
L 453.90374 -48.387699 
L 452.378717 -48.387699 
L 450.853695 -48.387699 
L 449.328672 -48.387699 
L 447.803649 -48.387699 
L 446.278626 -48.387699 
L 444.753603 -48.387699 
L 443.228581 -48.387699 
L 441.703558 -48.387699 
L 440.178535 -48.387699 
L 438.653512 -48.387699 
L 437.128489 -48.387699 
L 435.603467 -48.387699 
L 434.078444 -48.387699 
L 432.553421 -48.387699 
L 431.028398 -48.387699 
L 429.503375 -48.387699 
L 427.978353 -48.387699 
L 426.45333 -48.387699 
L 424.928307 -48.387699 
L 423.403284 -48.387699 
L 421.878261 -48.387699 
L 420.353239 -48.387699 
L 418.828216 -48.387699 
L 417.303193 -48.387699 
L 415.77817 -48.387699 
L 414.253147 -48.387699 
L 412.728125 -48.387699 
L 411.203102 -48.387699 
L 409.678079 -48.387699 
L 408.153056 -48.387699 
L 406.628033 -48.387699 
L 405.103011 -48.387699 
L 403.577988 -48.387699 
L 402.052965 -48.387699 
L 400.527942 -48.387699 
L 399.002919 -48.387699 
L 397.477896 -48.387699 
L 395.952874 -48.387699 
L 394.427851 -48.387699 
L 392.902828 -48.387699 
L 391.377805 -48.387699 
L 389.852782 -48.387699 
L 388.32776 -48.387699 
L 386.802737 -48.387699 
L 385.277714 -48.387699 
L 383.752691 -48.387699 
L 382.227668 -48.387699 
L 380.702646 -48.387699 
L 379.177623 -48.387699 
L 377.6526 -48.387699 
L 376.127577 -48.387699 
L 374.602554 -48.387699 
L 373.077532 -48.387699 
L 371.552509 -48.387699 
L 370.027486 -48.387699 
L 368.502463 -48.387699 
L 366.97744 -48.387699 
L 365.452418 -48.387699 
L 363.927395 -48.387699 
L 362.402372 -48.387699 
L 360.877349 -48.387699 
L 359.352326 -48.387699 
L 357.827304 -48.387699 
L 356.302281 -48.387699 
L 354.777258 -48.387699 
L 353.252235 -48.387699 
L 351.727212 -48.387699 
L 350.20219 -48.387699 
L 348.677167 -48.387699 
L 347.152144 -48.387699 
L 345.627121 -48.387699 
L 344.102098 -48.387699 
L 342.577076 -48.387699 
L 341.052053 -48.387699 
L 339.52703 -48.387699 
L 338.002007 -48.387699 
L 336.476984 -48.387699 
L 334.951962 -48.387699 
L 333.426939 -48.387699 
L 331.901916 -48.387699 
L 330.376893 -48.387699 
L 328.85187 -48.387699 
L 327.326848 -48.387699 
L 325.801825 -48.387699 
L 324.276802 -48.387699 
L 322.751779 -48.387699 
L 321.226756 -48.387699 
L 319.701734 -48.387699 
L 318.176711 -48.387699 
L 316.651688 -48.387699 
L 315.126665 -48.387699 
L 313.601642 -48.387699 
L 312.07662 -48.387699 
L 310.551597 -48.387699 
L 309.026574 -48.387699 
L 307.501551 -48.387699 
L 305.976528 -48.387699 
L 304.451505 -48.387699 
L 302.926483 -48.387699 
L 301.40146 -48.387699 
L 299.876437 -48.387699 
L 298.351414 -48.387699 
L 296.826391 -48.387699 
L 295.301369 -48.387699 
L 293.776346 -48.387699 
L 292.251323 -48.387699 
L 290.7263 -48.387699 
L 289.201277 -48.387699 
L 287.676255 -48.387699 
L 286.151232 -48.387699 
L 284.626209 -48.387699 
L 283.101186 -48.387699 
L 281.576163 -48.387699 
L 280.051141 -48.387699 
L 278.526118 -48.387699 
L 277.001095 -48.387699 
L 275.476072 -48.387699 
L 273.951049 -48.387699 
L 272.426027 -48.387699 
L 270.901004 -48.387699 
L 269.375981 -48.387699 
L 267.850958 -48.387699 
L 266.325935 -48.387699 
L 264.800913 -48.387699 
L 263.27589 -48.387699 
L 261.750867 -48.387699 
L 260.225844 -48.387699 
L 258.700821 -48.387699 
L 257.175799 -48.387699 
L 255.650776 -48.387699 
L 254.125753 -48.387699 
L 252.60073 -48.387699 
L 251.075707 -48.387699 
L 249.550685 -48.387699 
L 248.025662 -48.387699 
L 246.500639 -48.387699 
L 244.975616 -48.387699 
L 243.450593 -48.387699 
L 241.925571 -48.387699 
L 240.400548 -48.387699 
L 238.875525 -48.387699 
L 237.350502 -48.387699 
L 235.825479 -48.387699 
L 234.300457 -48.387699 
L 232.775434 -48.387699 
L 231.250411 -48.387699 
L 229.725388 -48.387699 
L 228.200365 -48.387699 
L 226.675343 -48.387699 
L 225.15032 -48.387699 
L 223.625297 -48.387699 
L 222.100274 -48.387699 
L 220.575251 -48.387699 
L 219.050229 -48.387699 
L 217.525206 -48.387699 
L 216.000183 -48.387699 
L 214.47516 -48.387699 
L 212.950137 -48.387699 
L 211.425114 -48.387699 
L 209.900092 -48.387699 
L 208.375069 -48.387699 
L 206.850046 -48.387699 
L 205.325023 -48.387699 
L 203.8 -48.387699 
L 202.274978 -48.387699 
L 200.749955 -48.387699 
z
" style="stroke: #ed8936; stroke-opacity: 0.15"/>
    </defs>
    <g clip-path="url(#p14128594e7)">
     <use xlink:href="#mec2bcd4ec4" x="0" y="278.602031" style="fill: #ed8936; fill-opacity: 0.15; stroke: #ed8936; stroke-opacity: 0.15"/>
    </g>
   </g>
   <g id="matplotlib.axis_1">
    <g id="xtick_1">
     <g id="line2d_1">
      <path d="M 129.37434 240.077969 
L 129.37434 23.077969 
" clip-path="url(#p14128594e7)" style="fill: none; stroke: #e2e8f0; stroke-opacity: 0.5; stroke-width: 0.5; stroke-linecap: square"/>
     </g>
     <g id="line2d_2">
      <defs>
       <path id="m0303574195" d="M 0 0 
L 0 3.5 
" style="stroke: #2d3748; stroke-width: 0.8"/>
      </defs>
      <g>
       <use xlink:href="#m0303574195" x="129.37434" y="240.077969" style="fill: #2d3748; stroke: #2d3748; stroke-width: 0.8"/>
      </g>
     </g>
     <g id="text_1">
      <!-- −80 -->
      <g style="fill: #2d3748" transform="translate(118.821997 254.676406) scale(0.1 -0.1)">
       <defs>
        <path id="DejaVuSans-2212" d="M 678 2272 
L 4684 2272 
L 4684 1741 
L 678 1741 
L 678 2272 
z
" transform="scale(0.015625)"/>
        <path id="DejaVuSans-38" d="M 2034 2216 
Q 1584 2216 1326 1975 
Q 1069 1734 1069 1313 
Q 1069 891 1326 650 
Q 1584 409 2034 409 
Q 2484 409 2743 651 
Q 3003 894 3003 1313 
Q 3003 1734 2745 1975 
Q 2488 2216 2034 2216 
z
M 1403 2484 
Q 997 2584 770 2862 
Q 544 3141 544 3541 
Q 544 4100 942 4425 
Q 1341 4750 2034 4750 
Q 2731 4750 3128 4425 
Q 3525 4100 3525 3541 
Q 3525 3141 3298 2862 
Q 3072 2584 2669 2484 
Q 3125 2378 3379 2068 
Q 3634 1759 3634 1313 
Q 3634 634 3220 271 
Q 2806 -91 2034 -91 
Q 1263 -91 848 271 
Q 434 634 434 1313 
Q 434 1759 690 2068 
Q 947 2378 1403 2484 
z
M 1172 3481 
Q 1172 3119 1398 2916 
Q 1625 2713 2034 2713 
Q 2441 2713 2670 2916 
Q 2900 3119 2900 3481 
Q 2900 3844 2670 4047 
Q 2441 4250 2034 4250 
Q 1625 4250 1398 4047 
Q 1172 3844 1172 3481 
z
" transform="scale(0.015625)"/>
        <path id="DejaVuSans-30" d="M 2034 4250 
Q 1547 4250 1301 3770 
Q 1056 3291 1056 2328 
Q 1056 1369 1301 889 
Q 1547 409 2034 409 
Q 2525 409 2770 889 
Q 3016 1369 3016 2328 
Q 3016 3291 2770 3770 
Q 2525 4250 2034 4250 
z
M 2034 4750 
Q 2819 4750 3233 4129 
Q 3647 3509 3647 2328 
Q 3647 1150 3233 529 
Q 2819 -91 2034 -91 
Q 1250 -91 836 529 
Q 422 1150 422 2328 
Q 422 3509 836 4129 
Q 1250 4750 2034 4750 
z
" transform="scale(0.015625)"/>
       </defs>
       <use xlink:href="#DejaVuSans-2212"/>
       <use xlink:href="#DejaVuSans-38" transform="translate(83.789062 0)"/>
       <use xlink:href="#DejaVuSans-30" transform="translate(147.412109 0)"/>
      </g>
     </g>
    </g>
    <g id="xtick_2">
     <g id="line2d_3">
      <path d="M 227.272173 240.077969 
L 227.272173 23.077969 
" clip-path="url(#p14128594e7)" style="fill: none; stroke: #e2e8f0; stroke-opacity: 0.5; stroke-width: 0.5; stroke-linecap: square"/>
     </g>
     <g id="line2d_4">
      <g>
       <use xlink:href="#m0303574195" x="227.272173" y="240.077969" style="fill: #2d3748; stroke: #2d3748; stroke-width: 0.8"/>
      </g>
     </g>
     <g id="text_2">
      <!-- −60 -->
      <g style="fill: #2d3748" transform="translate(216.719829 254.676406) scale(0.1 -0.1)">
       <defs>
        <path id="DejaVuSans-36" d="M 2113 2584 
Q 1688 2584 1439 2293 
Q 1191 2003 1191 1497 
Q 1191 994 1439 701 
Q 1688 409 2113 409 
Q 2538 409 2786 701 
Q 3034 994 3034 1497 
Q 3034 2003 2786 2293 
Q 2538 2584 2113 2584 
z
M 3366 4563 
L 3366 3988 
Q 3128 4100 2886 4159 
Q 2644 4219 2406 4219 
Q 1781 4219 1451 3797 
Q 1122 3375 1075 2522 
Q 1259 2794 1537 2939 
Q 1816 3084 2150 3084 
Q 2853 3084 3261 2657 
Q 3669 2231 3669 1497 
Q 3669 778 3244 343 
Q 2819 -91 2113 -91 
Q 1303 -91 875 529 
Q 447 1150 447 2328 
Q 447 3434 972 4092 
Q 1497 4750 2381 4750 
Q 2619 4750 2861 4703 
Q 3103 4656 3366 4563 
z
" transform="scale(0.015625)"/>
       </defs>
       <use xlink:href="#DejaVuSans-2212"/>
       <use xlink:href="#DejaVuSans-36" transform="translate(83.789062 0)"/>
       <use xlink:href="#DejaVuSans-30" transform="translate(147.412109 0)"/>
      </g>
     </g>
    </g>
    <g id="xtick_3">
     <g id="line2d_5">
      <path d="M 325.170006 240.077969 
L 325.170006 23.077969 
" clip-path="url(#p14128594e7)" style="fill: none; stroke: #e2e8f0; stroke-opacity: 0.5; stroke-width: 0.5; stroke-linecap: square"/>
     </g>
     <g id="line2d_6">
      <g>
       <use xlink:href="#m0303574195" x="325.170006" y="240.077969" style="fill: #2d3748; stroke: #2d3748; stroke-width: 0.8"/>
      </g>
     </g>
     <g id="text_3">
      <!-- −40 -->
      <g style="fill: #2d3748" transform="translate(314.617662 254.676406) scale(0.1 -0.1)">
       <defs>
        <path id="DejaVuSans-34" d="M 2419 4116 
L 825 1625 
L 2419 1625 
L 2419 4116 
z
M 2253 4666 
L 3047 4666 
L 3047 1625 
L 3713 1625 
L 3713 1100 
L 3047 1100 
L 3047 0 
L 2419 0 
L 2419 1100 
L 313 1100 
L 313 1709 
L 2253 4666 
z
" transform="scale(0.015625)"/>
       </defs>
       <use xlink:href="#DejaVuSans-2212"/>
       <use xlink:href="#DejaVuSans-34" transform="translate(83.789062 0)"/>
       <use xlink:href="#DejaVuSans-30" transform="translate(147.412109 0)"/>
      </g>
     </g>
    </g>
    <g id="xtick_4">
     <g id="line2d_7">
      <path d="M 423.067838 240.077969 
L 423.067838 23.077969 
" clip-path="url(#p14128594e7)" style="fill: none; stroke: #e2e8f0; stroke-opacity: 0.5; stroke-width: 0.5; stroke-linecap: square"/>
     </g>
     <g id="line2d_8">
      <g>
       <use xlink:href="#m0303574195" x="423.067838" y="240.077969" style="fill: #2d3748; stroke: #2d3748; stroke-width: 0.8"/>
      </g>
     </g>
     <g id="text_4">
      <!-- −20 -->
      <g style="fill: #2d3748" transform="translate(412.515495 254.676406) scale(0.1 -0.1)">
       <defs>
        <path id="DejaVuSans-32" d="M 1228 531 
L 3431 531 
L 3431 0 
L 469 0 
L 469 531 
Q 828 903 1448 1529 
Q 2069 2156 2228 2338 
Q 2531 2678 2651 2914 
Q 2772 3150 2772 3378 
Q 2772 3750 2511 3984 
Q 2250 4219 1831 4219 
Q 1534 4219 1204 4116 
Q 875 4013 500 3803 
L 500 4441 
Q 881 4594 1212 4672 
Q 1544 4750 1819 4750 
Q 2544 4750 2975 4387 
Q 3406 4025 3406 3419 
Q 3406 3131 3298 2873 
Q 3191 2616 2906 2266 
Q 2828 2175 2409 1742 
Q 1991 1309 1228 531 
z
" transform="scale(0.015625)"/>
       </defs>
       <use xlink:href="#DejaVuSans-2212"/>
       <use xlink:href="#DejaVuSans-32" transform="translate(83.789062 0)"/>
       <use xlink:href="#DejaVuSans-30" transform="translate(147.412109 0)"/>
      </g>
     </g>
    </g>
    <g id="xtick_5">
     <g id="line2d_9">
      <path d="M 520.965671 240.077969 
L 520.965671 23.077969 
" clip-path="url(#p14128594e7)" style="fill: none; stroke: #e2e8f0; stroke-opacity: 0.5; stroke-width: 0.5; stroke-linecap: square"/>
     </g>
     <g id="line2d_10">
      <g>
       <use xlink:href="#m0303574195" x="520.965671" y="240.077969" style="fill: #2d3748; stroke: #2d3748; stroke-width: 0.8"/>
      </g>
     </g>
     <g id="text_5">
      <!-- 0 -->
      <g style="fill: #2d3748" transform="translate(517.784421 254.676406) scale(0.1 -0.1)">
       <use xlink:href="#DejaVuSans-30"/>
      </g>
     </g>
    </g>
    <g id="text_6">
     <!-- Slope (Δα / ΔT) -->
     <g style="fill: #2d3748" transform="translate(267.105156 269.114375) scale(0.11 -0.11)">
      <defs>
       <path id="DejaVuSans-53" d="M 3425 4513 
L 3425 3897 
Q 3066 4069 2747 4153 
Q 2428 4238 2131 4238 
Q 1616 4238 1336 4038 
Q 1056 3838 1056 3469 
Q 1056 3159 1242 3001 
Q 1428 2844 1947 2747 
L 2328 2669 
Q 3034 2534 3370 2195 
Q 3706 1856 3706 1288 
Q 3706 609 3251 259 
Q 2797 -91 1919 -91 
Q 1588 -91 1214 -16 
Q 841 59 441 206 
L 441 856 
Q 825 641 1194 531 
Q 1563 422 1919 422 
Q 2459 422 2753 634 
Q 3047 847 3047 1241 
Q 3047 1584 2836 1778 
Q 2625 1972 2144 2069 
L 1759 2144 
Q 1053 2284 737 2584 
Q 422 2884 422 3419 
Q 422 4038 858 4394 
Q 1294 4750 2059 4750 
Q 2388 4750 2728 4690 
Q 3069 4631 3425 4513 
z
" transform="scale(0.015625)"/>
       <path id="DejaVuSans-6c" d="M 603 4863 
L 1178 4863 
L 1178 0 
L 603 0 
L 603 4863 
z
" transform="scale(0.015625)"/>
       <path id="DejaVuSans-6f" d="M 1959 3097 
Q 1497 3097 1228 2736 
Q 959 2375 959 1747 
Q 959 1119 1226 758 
Q 1494 397 1959 397 
Q 2419 397 2687 759 
Q 2956 1122 2956 1747 
Q 2956 2369 2687 2733 
Q 2419 3097 1959 3097 
z
M 1959 3584 
Q 2709 3584 3137 3096 
Q 3566 2609 3566 1747 
Q 3566 888 3137 398 
Q 2709 -91 1959 -91 
Q 1206 -91 779 398 
Q 353 888 353 1747 
Q 353 2609 779 3096 
Q 1206 3584 1959 3584 
z
" transform="scale(0.015625)"/>
       <path id="DejaVuSans-70" d="M 1159 525 
L 1159 -1331 
L 581 -1331 
L 581 3500 
L 1159 3500 
L 1159 2969 
Q 1341 3281 1617 3432 
Q 1894 3584 2278 3584 
Q 2916 3584 3314 3078 
Q 3713 2572 3713 1747 
Q 3713 922 3314 415 
Q 2916 -91 2278 -91 
Q 1894 -91 1617 61 
Q 1341 213 1159 525 
z
M 3116 1747 
Q 3116 2381 2855 2742 
Q 2594 3103 2138 3103 
Q 1681 3103 1420 2742 
Q 1159 2381 1159 1747 
Q 1159 1113 1420 752 
Q 1681 391 2138 391 
Q 2594 391 2855 752 
Q 3116 1113 3116 1747 
z
" transform="scale(0.015625)"/>
       <path id="DejaVuSans-65" d="M 3597 1894 
L 3597 1613 
L 953 1613 
Q 991 1019 1311 708 
Q 1631 397 2203 397 
Q 2534 397 2845 478 
Q 3156 559 3463 722 
L 3463 178 
Q 3153 47 2828 -22 
Q 2503 -91 2169 -91 
Q 1331 -91 842 396 
Q 353 884 353 1716 
Q 353 2575 817 3079 
Q 1281 3584 2069 3584 
Q 2775 3584 3186 3129 
Q 3597 2675 3597 1894 
z
M 3022 2063 
Q 3016 2534 2758 2815 
Q 2500 3097 2075 3097 
Q 1594 3097 1305 2825 
Q 1016 2553 972 2059 
L 3022 2063 
z
" transform="scale(0.015625)"/>
       <path id="DejaVuSans-20" transform="scale(0.015625)"/>
       <path id="DejaVuSans-28" d="M 1984 4856 
Q 1566 4138 1362 3434 
Q 1159 2731 1159 2009 
Q 1159 1288 1364 580 
Q 1569 -128 1984 -844 
L 1484 -844 
Q 1016 -109 783 600 
Q 550 1309 550 2009 
Q 550 2706 781 3412 
Q 1013 4119 1484 4856 
L 1984 4856 
z
" transform="scale(0.015625)"/>
       <path id="DejaVuSans-394" d="M 2188 4044 
L 906 525 
L 3472 525 
L 2188 4044 
z
M 50 0 
L 1831 4666 
L 2547 4666 
L 4325 0 
L 50 0 
z
" transform="scale(0.015625)"/>
       <path id="DejaVuSans-3b1" d="M 2644 1628 
L 2506 2350 
Q 2366 3091 1809 3091 
Q 1391 3091 1200 2747 
Q 959 2316 959 1747 
Q 959 1059 1194 731 
Q 1431 397 1809 397 
Q 2228 397 2453 1063 
L 2644 1628 
z
M 2966 2584 
L 3275 3500 
L 3788 3500 
L 3147 1603 
L 3272 919 
Q 3300 766 3409 638 
Q 3538 488 3638 488 
L 3913 488 
L 3913 0 
L 3569 0 
Q 3275 0 3013 263 
Q 2884 394 2831 669 
Q 2688 322 2394 50 
Q 2256 -78 1809 -78 
Q 1075 -78 719 397 
Q 353 888 353 1747 
Q 353 2666 750 3097 
Q 1191 3578 1809 3578 
Q 2781 3578 2966 2584 
z
" transform="scale(0.015625)"/>
       <path id="DejaVuSans-2f" d="M 1625 4666 
L 2156 4666 
L 531 -594 
L 0 -594 
L 1625 4666 
z
" transform="scale(0.015625)"/>
       <path id="DejaVuSans-54" d="M -19 4666 
L 3928 4666 
L 3928 4134 
L 2272 4134 
L 2272 0 
L 1638 0 
L 1638 4134 
L -19 4134 
L -19 4666 
z
" transform="scale(0.015625)"/>
       <path id="DejaVuSans-29" d="M 513 4856 
L 1013 4856 
Q 1481 4119 1714 3412 
Q 1947 2706 1947 2009 
Q 1947 1309 1714 600 
Q 1481 -109 1013 -844 
L 513 -844 
Q 928 -128 1133 580 
Q 1338 1288 1338 2009 
Q 1338 2731 1133 3434 
Q 928 4138 513 4856 
z
" transform="scale(0.015625)"/>
      </defs>
      <use xlink:href="#DejaVuSans-53"/>
      <use xlink:href="#DejaVuSans-6c" transform="translate(63.476562 0)"/>
      <use xlink:href="#DejaVuSans-6f" transform="translate(91.259766 0)"/>
      <use xlink:href="#DejaVuSans-70" transform="translate(152.441406 0)"/>
      <use xlink:href="#DejaVuSans-65" transform="translate(215.917969 0)"/>
      <use xlink:href="#DejaVuSans-20" transform="translate(277.441406 0)"/>
      <use xlink:href="#DejaVuSans-28" transform="translate(309.228516 0)"/>
      <use xlink:href="#DejaVuSans-394" transform="translate(348.242188 0)"/>
      <use xlink:href="#DejaVuSans-3b1" transform="translate(416.650391 0)"/>
      <use xlink:href="#DejaVuSans-20" transform="translate(482.568359 0)"/>
      <use xlink:href="#DejaVuSans-2f" transform="translate(514.355469 0)"/>
      <use xlink:href="#DejaVuSans-20" transform="translate(548.046875 0)"/>
      <use xlink:href="#DejaVuSans-394" transform="translate(579.833984 0)"/>
      <use xlink:href="#DejaVuSans-54" transform="translate(648.242188 0)"/>
      <use xlink:href="#DejaVuSans-29" transform="translate(709.326172 0)"/>
     </g>
    </g>
   </g>
   <g id="matplotlib.axis_2">
    <g id="ytick_1">
     <g id="line2d_11">
      <path d="M 57.474063 230.214332 
L 559.054062 230.214332 
" clip-path="url(#p14128594e7)" style="fill: none; stroke: #e2e8f0; stroke-opacity: 0.5; stroke-width: 0.5; stroke-linecap: square"/>
     </g>
     <g id="line2d_12">
      <defs>
       <path id="mda21666fe3" d="M 0 0 
L -3.5 0 
" style="stroke: #2d3748; stroke-width: 0.8"/>
      </defs>
      <g>
       <use xlink:href="#mda21666fe3" x="57.474063" y="230.214332" style="fill: #2d3748; stroke: #2d3748; stroke-width: 0.8"/>
      </g>
     </g>
     <g id="text_7">
      <!-- 0.000 -->
      <g style="fill: #2d3748" transform="translate(21.845938 234.013551) scale(0.1 -0.1)">
       <defs>
        <path id="DejaVuSans-2e" d="M 684 794 
L 1344 794 
L 1344 0 
L 684 0 
L 684 794 
z
" transform="scale(0.015625)"/>
       </defs>
       <use xlink:href="#DejaVuSans-30"/>
       <use xlink:href="#DejaVuSans-2e" transform="translate(63.623047 0)"/>
       <use xlink:href="#DejaVuSans-30" transform="translate(95.410156 0)"/>
       <use xlink:href="#DejaVuSans-30" transform="translate(159.033203 0)"/>
       <use xlink:href="#DejaVuSans-30" transform="translate(222.65625 0)"/>
      </g>
     </g>
    </g>
    <g id="ytick_2">
     <g id="line2d_13">
      <path d="M 57.474063 189.805522 
L 559.054062 189.805522 
" clip-path="url(#p14128594e7)" style="fill: none; stroke: #e2e8f0; stroke-opacity: 0.5; stroke-width: 0.5; stroke-linecap: square"/>
     </g>
     <g id="line2d_14">
      <g>
       <use xlink:href="#mda21666fe3" x="57.474063" y="189.805522" style="fill: #2d3748; stroke: #2d3748; stroke-width: 0.8"/>
      </g>
     </g>
     <g id="text_8">
      <!-- 0.005 -->
      <g style="fill: #2d3748" transform="translate(21.845938 193.604741) scale(0.1 -0.1)">
       <defs>
        <path id="DejaVuSans-35" d="M 691 4666 
L 3169 4666 
L 3169 4134 
L 1269 4134 
L 1269 2991 
Q 1406 3038 1543 3061 
Q 1681 3084 1819 3084 
Q 2600 3084 3056 2656 
Q 3513 2228 3513 1497 
Q 3513 744 3044 326 
Q 2575 -91 1722 -91 
Q 1428 -91 1123 -41 
Q 819 9 494 109 
L 494 744 
Q 775 591 1075 516 
Q 1375 441 1709 441 
Q 2250 441 2565 725 
Q 2881 1009 2881 1497 
Q 2881 1984 2565 2268 
Q 2250 2553 1709 2553 
Q 1456 2553 1204 2497 
Q 953 2441 691 2322 
L 691 4666 
z
" transform="scale(0.015625)"/>
       </defs>
       <use xlink:href="#DejaVuSans-30"/>
       <use xlink:href="#DejaVuSans-2e" transform="translate(63.623047 0)"/>
       <use xlink:href="#DejaVuSans-30" transform="translate(95.410156 0)"/>
       <use xlink:href="#DejaVuSans-30" transform="translate(159.033203 0)"/>
       <use xlink:href="#DejaVuSans-35" transform="translate(222.65625 0)"/>
      </g>
     </g>
    </g>
    <g id="ytick_3">
     <g id="line2d_15">
      <path d="M 57.474063 149.396711 
L 559.054062 149.396711 
" clip-path="url(#p14128594e7)" style="fill: none; stroke: #e2e8f0; stroke-opacity: 0.5; stroke-width: 0.5; stroke-linecap: square"/>
     </g>
     <g id="line2d_16">
      <g>
       <use xlink:href="#mda21666fe3" x="57.474063" y="149.396711" style="fill: #2d3748; stroke: #2d3748; stroke-width: 0.8"/>
      </g>
     </g>
     <g id="text_9">
      <!-- 0.010 -->
      <g style="fill: #2d3748" transform="translate(21.845938 153.19593) scale(0.1 -0.1)">
       <defs>
        <path id="DejaVuSans-31" d="M 794 531 
L 1825 531 
L 1825 4091 
L 703 3866 
L 703 4441 
L 1819 4666 
L 2450 4666 
L 2450 531 
L 3481 531 
L 3481 0 
L 794 0 
L 794 531 
z
" transform="scale(0.015625)"/>
       </defs>
       <use xlink:href="#DejaVuSans-30"/>
       <use xlink:href="#DejaVuSans-2e" transform="translate(63.623047 0)"/>
       <use xlink:href="#DejaVuSans-30" transform="translate(95.410156 0)"/>
       <use xlink:href="#DejaVuSans-31" transform="translate(159.033203 0)"/>
       <use xlink:href="#DejaVuSans-30" transform="translate(222.65625 0)"/>
      </g>
     </g>
    </g>
    <g id="ytick_4">
     <g id="line2d_17">
      <path d="M 57.474063 108.987901 
L 559.054062 108.987901 
" clip-path="url(#p14128594e7)" style="fill: none; stroke: #e2e8f0; stroke-opacity: 0.5; stroke-width: 0.5; stroke-linecap: square"/>
     </g>
     <g id="line2d_18">
      <g>
       <use xlink:href="#mda21666fe3" x="57.474063" y="108.987901" style="fill: #2d3748; stroke: #2d3748; stroke-width: 0.8"/>
      </g>
     </g>
     <g id="text_10">
      <!-- 0.015 -->
      <g style="fill: #2d3748" transform="translate(21.845938 112.78712) scale(0.1 -0.1)">
       <use xlink:href="#DejaVuSans-30"/>
       <use xlink:href="#DejaVuSans-2e" transform="translate(63.623047 0)"/>
       <use xlink:href="#DejaVuSans-30" transform="translate(95.410156 0)"/>
       <use xlink:href="#DejaVuSans-31" transform="translate(159.033203 0)"/>
       <use xlink:href="#DejaVuSans-35" transform="translate(222.65625 0)"/>
      </g>
     </g>
    </g>
    <g id="ytick_5">
     <g id="line2d_19">
      <path d="M 57.474063 68.57909 
L 559.054062 68.57909 
" clip-path="url(#p14128594e7)" style="fill: none; stroke: #e2e8f0; stroke-opacity: 0.5; stroke-width: 0.5; stroke-linecap: square"/>
     </g>
     <g id="line2d_20">
      <g>
       <use xlink:href="#mda21666fe3" x="57.474063" y="68.57909" style="fill: #2d3748; stroke: #2d3748; stroke-width: 0.8"/>
      </g>
     </g>
     <g id="text_11">
      <!-- 0.020 -->
      <g style="fill: #2d3748" transform="translate(21.845938 72.378309) scale(0.1 -0.1)">
       <use xlink:href="#DejaVuSans-30"/>
       <use xlink:href="#DejaVuSans-2e" transform="translate(63.623047 0)"/>
       <use xlink:href="#DejaVuSans-30" transform="translate(95.410156 0)"/>
       <use xlink:href="#DejaVuSans-32" transform="translate(159.033203 0)"/>
       <use xlink:href="#DejaVuSans-30" transform="translate(222.65625 0)"/>
      </g>
     </g>
    </g>
    <g id="ytick_6">
     <g id="line2d_21">
      <path d="M 57.474063 28.17028 
L 559.054062 28.17028 
" clip-path="url(#p14128594e7)" style="fill: none; stroke: #e2e8f0; stroke-opacity: 0.5; stroke-width: 0.5; stroke-linecap: square"/>
     </g>
     <g id="line2d_22">
      <g>
       <use xlink:href="#mda21666fe3" x="57.474063" y="28.17028" style="fill: #2d3748; stroke: #2d3748; stroke-width: 0.8"/>
      </g>
     </g>
     <g id="text_12">
      <!-- 0.025 -->
      <g style="fill: #2d3748" transform="translate(21.845938 31.969499) scale(0.1 -0.1)">
       <use xlink:href="#DejaVuSans-30"/>
       <use xlink:href="#DejaVuSans-2e" transform="translate(63.623047 0)"/>
       <use xlink:href="#DejaVuSans-30" transform="translate(95.410156 0)"/>
       <use xlink:href="#DejaVuSans-32" transform="translate(159.033203 0)"/>
       <use xlink:href="#DejaVuSans-35" transform="translate(222.65625 0)"/>
      </g>
     </g>
    </g>
    <g id="text_13">
     <!-- Density -->
     <g style="fill: #2d3748" transform="translate(15.558281 152.487422) rotate(-90) scale(0.11 -0.11)">
      <defs>
       <path id="DejaVuSans-44" d="M 1259 4147 
L 1259 519 
L 2022 519 
Q 2988 519 3436 956 
Q 3884 1394 3884 2338 
Q 3884 3275 3436 3711 
Q 2988 4147 2022 4147 
L 1259 4147 
z
M 628 4666 
L 1925 4666 
Q 3281 4666 3915 4102 
Q 4550 3538 4550 2338 
Q 4550 1131 3912 565 
Q 3275 0 1925 0 
L 628 0 
L 628 4666 
z
" transform="scale(0.015625)"/>
       <path id="DejaVuSans-6e" d="M 3513 2113 
L 3513 0 
L 2938 0 
L 2938 2094 
Q 2938 2591 2744 2837 
Q 2550 3084 2163 3084 
Q 1697 3084 1428 2787 
Q 1159 2491 1159 1978 
L 1159 0 
L 581 0 
L 581 3500 
L 1159 3500 
L 1159 2956 
Q 1366 3272 1645 3428 
Q 1925 3584 2291 3584 
Q 2894 3584 3203 3211 
Q 3513 2838 3513 2113 
z
" transform="scale(0.015625)"/>
       <path id="DejaVuSans-73" d="M 2834 3397 
L 2834 2853 
Q 2591 2978 2328 3040 
Q 2066 3103 1784 3103 
Q 1356 3103 1142 2972 
Q 928 2841 928 2578 
Q 928 2378 1081 2264 
Q 1234 2150 1697 2047 
L 1894 2003 
Q 2506 1872 2764 1633 
Q 3022 1394 3022 966 
Q 3022 478 2636 193 
Q 2250 -91 1575 -91 
Q 1294 -91 989 -36 
Q 684 19 347 128 
L 347 722 
Q 666 556 975 473 
Q 1284 391 1588 391 
Q 1994 391 2212 530 
Q 2431 669 2431 922 
Q 2431 1156 2273 1281 
Q 2116 1406 1581 1522 
L 1381 1569 
Q 847 1681 609 1914 
Q 372 2147 372 2553 
Q 372 3047 722 3315 
Q 1072 3584 1716 3584 
Q 2034 3584 2315 3537 
Q 2597 3491 2834 3397 
z
" transform="scale(0.015625)"/>
       <path id="DejaVuSans-69" d="M 603 3500 
L 1178 3500 
L 1178 0 
L 603 0 
L 603 3500 
z
M 603 4863 
L 1178 4863 
L 1178 4134 
L 603 4134 
L 603 4863 
z
" transform="scale(0.015625)"/>
       <path id="DejaVuSans-74" d="M 1172 4494 
L 1172 3500 
L 2356 3500 
L 2356 3053 
L 1172 3053 
L 1172 1153 
Q 1172 725 1289 603 
Q 1406 481 1766 481 
L 2356 481 
L 2356 0 
L 1766 0 
Q 1100 0 847 248 
Q 594 497 594 1153 
L 594 3053 
L 172 3053 
L 172 3500 
L 594 3500 
L 594 4494 
L 1172 4494 
z
" transform="scale(0.015625)"/>
       <path id="DejaVuSans-79" d="M 2059 -325 
Q 1816 -950 1584 -1140 
Q 1353 -1331 966 -1331 
L 506 -1331 
L 506 -850 
L 844 -850 
Q 1081 -850 1212 -737 
Q 1344 -625 1503 -206 
L 1606 56 
L 191 3500 
L 800 3500 
L 1894 763 
L 2988 3500 
L 3597 3500 
L 2059 -325 
z
" transform="scale(0.015625)"/>
      </defs>
      <use xlink:href="#DejaVuSans-44"/>
      <use xlink:href="#DejaVuSans-65" transform="translate(77.001953 0)"/>
      <use xlink:href="#DejaVuSans-6e" transform="translate(138.525391 0)"/>
      <use xlink:href="#DejaVuSans-73" transform="translate(201.904297 0)"/>
      <use xlink:href="#DejaVuSans-69" transform="translate(254.003906 0)"/>
      <use xlink:href="#DejaVuSans-74" transform="translate(281.787109 0)"/>
      <use xlink:href="#DejaVuSans-79" transform="translate(320.996094 0)"/>
     </g>
    </g>
   </g>
   <g id="line2d_23">
    <path d="M 80.273153 226.06349 
L 90.948313 224.630449 
L 101.623473 223.010469 
L 122.973792 219.609156 
L 135.173974 217.831508 
L 141.274066 216.665551 
L 147.374157 215.19636 
L 154.999271 213.051419 
L 164.149408 210.466722 
L 170.249499 208.942543 
L 179.399636 206.935963 
L 188.549772 204.889498 
L 193.124841 203.686623 
L 197.699909 202.289221 
L 202.274978 200.661295 
L 206.850046 198.785642 
L 211.425114 196.660061 
L 216.000183 194.288413 
L 220.575251 191.669651 
L 225.15032 188.789493 
L 229.725388 185.618402 
L 234.300457 182.116846 
L 238.875525 178.246555 
L 243.450593 173.985703 
L 248.025662 169.345392 
L 252.60073 164.382835 
L 260.225844 155.699876 
L 267.850958 147.060107 
L 273.951049 140.481711 
L 284.626209 129.469539 
L 290.7263 122.999828 
L 296.826391 116.143077 
L 304.451505 107.124186 
L 313.601642 96.331666 
L 319.701734 89.528322 
L 327.326848 81.434599 
L 334.951962 73.302939 
L 341.052053 66.418232 
L 350.20219 55.55759 
L 354.777258 50.26948 
L 357.827304 46.975738 
L 360.877349 43.959088 
L 363.927395 41.283288 
L 366.97744 38.991068 
L 370.027486 37.100566 
L 373.077532 35.605899 
L 376.127577 34.481865 
L 379.177623 33.691834 
L 382.227668 33.1971 
L 385.277714 32.965492 
L 388.32776 32.977179 
L 391.377805 33.226317 
L 394.427851 33.71836 
L 397.477896 34.464157 
L 400.527942 35.473033 
L 403.577988 36.747421 
L 406.628033 38.281238 
L 409.678079 40.06296 
L 412.728125 42.08276 
L 415.77817 44.341476 
L 418.828216 46.858227 
L 421.878261 49.673561 
L 424.928307 52.846114 
L 427.978353 56.442668 
L 431.028398 60.523564 
L 434.078444 65.127043 
L 437.128489 70.256628 
L 440.178535 75.874987 
L 443.228581 81.906017 
L 447.803649 91.492252 
L 461.528854 120.749596 
L 467.628945 132.927544 
L 473.729037 144.498968 
L 479.829128 155.518856 
L 484.404196 163.405458 
L 488.979265 170.926776 
L 493.554333 178.043509 
L 498.129402 184.722202 
L 502.70447 190.930063 
L 507.279538 196.627691 
L 510.329584 200.120376 
L 513.37963 203.353723 
L 516.429675 206.318664 
L 519.479721 209.011598 
L 522.529766 211.43573 
L 525.579812 213.601389 
L 528.629858 215.525298 
L 531.679903 217.229001 
L 534.729949 218.736788 
L 536.254972 219.425009 
L 536.254972 219.425009 
" clip-path="url(#p14128594e7)" style="fill: none; stroke: #2c5282; stroke-width: 2; stroke-linecap: square"/>
   </g>
   <g id="line2d_24">
    <path d="M 370.285701 240.077969 
L 370.285701 23.077969 
" clip-path="url(#p14128594e7)" style="fill: none; stroke: #ed8936; stroke-width: 2; stroke-linecap: square"/>
   </g>
   <g id="line2d_25">
    <path d="M 520.965671 240.077969 
L 520.965671 23.077969 
" clip-path="url(#p14128594e7)" style="fill: none; stroke-dasharray: 7.4,3.2; stroke-dashoffset: 0; stroke: #808080; stroke-opacity: 0.5; stroke-width: 2"/>
   </g>
   <g id="line2d_26">
    <path d="M 200.224603 240.077969 
L 200.224603 23.077969 
" clip-path="url(#p14128594e7)" style="fill: none; stroke-dasharray: 2,3.3; stroke-dashoffset: 0; stroke: #ed8936; stroke-opacity: 0.6; stroke-width: 2"/>
   </g>
   <g id="line2d_27">
    <path d="M 480.108414 240.077969 
L 480.108414 23.077969 
" clip-path="url(#p14128594e7)" style="fill: none; stroke-dasharray: 2,3.3; stroke-dashoffset: 0; stroke: #ed8936; stroke-opacity: 0.6; stroke-width: 2"/>
   </g>
   <g id="patch_3">
    <path d="M 57.474063 240.077969 
L 57.474063 23.077969 
" style="fill: none; stroke: #2d3748; stroke-width: 0.8; stroke-linejoin: miter; stroke-linecap: square"/>
   </g>
   <g id="patch_4">
    <path d="M 57.474063 240.077969 
L 559.054062 240.077969 
" style="fill: none; stroke: #2d3748; stroke-width: 0.8; stroke-linejoin: miter; stroke-linecap: square"/>
   </g>
   <g id="text_14">
    <!-- Posterior Distribution of Temperature–Sensitivity Slope -->
    <g style="fill: #2d3748" transform="translate(130.798828 17.077969) scale(0.13 -0.13)">
     <defs>
      <path id="DejaVuSans-50" d="M 1259 4147 
L 1259 2394 
L 2053 2394 
Q 2494 2394 2734 2622 
Q 2975 2850 2975 3272 
Q 2975 3691 2734 3919 
Q 2494 4147 2053 4147 
L 1259 4147 
z
M 628 4666 
L 2053 4666 
Q 2838 4666 3239 4311 
Q 3641 3956 3641 3272 
Q 3641 2581 3239 2228 
Q 2838 1875 2053 1875 
L 1259 1875 
L 1259 0 
L 628 0 
L 628 4666 
z
" transform="scale(0.015625)"/>
      <path id="DejaVuSans-72" d="M 2631 2963 
Q 2534 3019 2420 3045 
Q 2306 3072 2169 3072 
Q 1681 3072 1420 2755 
Q 1159 2438 1159 1844 
L 1159 0 
L 581 0 
L 581 3500 
L 1159 3500 
L 1159 2956 
Q 1341 3275 1631 3429 
Q 1922 3584 2338 3584 
Q 2397 3584 2469 3576 
Q 2541 3569 2628 3553 
L 2631 2963 
z
" transform="scale(0.015625)"/>
      <path id="DejaVuSans-62" d="M 3116 1747 
Q 3116 2381 2855 2742 
Q 2594 3103 2138 3103 
Q 1681 3103 1420 2742 
Q 1159 2381 1159 1747 
Q 1159 1113 1420 752 
Q 1681 391 2138 391 
Q 2594 391 2855 752 
Q 3116 1113 3116 1747 
z
M 1159 2969 
Q 1341 3281 1617 3432 
Q 1894 3584 2278 3584 
Q 2916 3584 3314 3078 
Q 3713 2572 3713 1747 
Q 3713 922 3314 415 
Q 2916 -91 2278 -91 
Q 1894 -91 1617 61 
Q 1341 213 1159 525 
L 1159 0 
L 581 0 
L 581 4863 
L 1159 4863 
L 1159 2969 
z
" transform="scale(0.015625)"/>
      <path id="DejaVuSans-75" d="M 544 1381 
L 544 3500 
L 1119 3500 
L 1119 1403 
Q 1119 906 1312 657 
Q 1506 409 1894 409 
Q 2359 409 2629 706 
Q 2900 1003 2900 1516 
L 2900 3500 
L 3475 3500 
L 3475 0 
L 2900 0 
L 2900 538 
Q 2691 219 2414 64 
Q 2138 -91 1772 -91 
Q 1169 -91 856 284 
Q 544 659 544 1381 
z
M 1991 3584 
L 1991 3584 
z
" transform="scale(0.015625)"/>
      <path id="DejaVuSans-66" d="M 2375 4863 
L 2375 4384 
L 1825 4384 
Q 1516 4384 1395 4259 
Q 1275 4134 1275 3809 
L 1275 3500 
L 2222 3500 
L 2222 3053 
L 1275 3053 
L 1275 0 
L 697 0 
L 697 3053 
L 147 3053 
L 147 3500 
L 697 3500 
L 697 3744 
Q 697 4328 969 4595 
Q 1241 4863 1831 4863 
L 2375 4863 
z
" transform="scale(0.015625)"/>
      <path id="DejaVuSans-6d" d="M 3328 2828 
Q 3544 3216 3844 3400 
Q 4144 3584 4550 3584 
Q 5097 3584 5394 3201 
Q 5691 2819 5691 2113 
L 5691 0 
L 5113 0 
L 5113 2094 
Q 5113 2597 4934 2840 
Q 4756 3084 4391 3084 
Q 3944 3084 3684 2787 
Q 3425 2491 3425 1978 
L 3425 0 
L 2847 0 
L 2847 2094 
Q 2847 2600 2669 2842 
Q 2491 3084 2119 3084 
Q 1678 3084 1418 2786 
Q 1159 2488 1159 1978 
L 1159 0 
L 581 0 
L 581 3500 
L 1159 3500 
L 1159 2956 
Q 1356 3278 1631 3431 
Q 1906 3584 2284 3584 
Q 2666 3584 2933 3390 
Q 3200 3197 3328 2828 
z
" transform="scale(0.015625)"/>
      <path id="DejaVuSans-61" d="M 2194 1759 
Q 1497 1759 1228 1600 
Q 959 1441 959 1056 
Q 959 750 1161 570 
Q 1363 391 1709 391 
Q 2188 391 2477 730 
Q 2766 1069 2766 1631 
L 2766 1759 
L 2194 1759 
z
M 3341 1997 
L 3341 0 
L 2766 0 
L 2766 531 
Q 2569 213 2275 61 
Q 1981 -91 1556 -91 
Q 1019 -91 701 211 
Q 384 513 384 1019 
Q 384 1609 779 1909 
Q 1175 2209 1959 2209 
L 2766 2209 
L 2766 2266 
Q 2766 2663 2505 2880 
Q 2244 3097 1772 3097 
Q 1472 3097 1187 3025 
Q 903 2953 641 2809 
L 641 3341 
Q 956 3463 1253 3523 
Q 1550 3584 1831 3584 
Q 2591 3584 2966 3190 
Q 3341 2797 3341 1997 
z
" transform="scale(0.015625)"/>
      <path id="DejaVuSans-2013" d="M 313 1978 
L 2888 1978 
L 2888 1528 
L 313 1528 
L 313 1978 
z
" transform="scale(0.015625)"/>
      <path id="DejaVuSans-76" d="M 191 3500 
L 800 3500 
L 1894 563 
L 2988 3500 
L 3597 3500 
L 2284 0 
L 1503 0 
L 191 3500 
z
" transform="scale(0.015625)"/>
     </defs>
     <use xlink:href="#DejaVuSans-50"/>
     <use xlink:href="#DejaVuSans-6f" transform="translate(56.677734 0)"/>
     <use xlink:href="#DejaVuSans-73" transform="translate(117.859375 0)"/>
     <use xlink:href="#DejaVuSans-74" transform="translate(169.958984 0)"/>
     <use xlink:href="#DejaVuSans-65" transform="translate(209.167969 0)"/>
     <use xlink:href="#DejaVuSans-72" transform="translate(270.691406 0)"/>
     <use xlink:href="#DejaVuSans-69" transform="translate(311.804688 0)"/>
     <use xlink:href="#DejaVuSans-6f" transform="translate(339.587891 0)"/>
     <use xlink:href="#DejaVuSans-72" transform="translate(400.769531 0)"/>
     <use xlink:href="#DejaVuSans-20" transform="translate(441.882812 0)"/>
     <use xlink:href="#DejaVuSans-44" transform="translate(473.669922 0)"/>
     <use xlink:href="#DejaVuSans-69" transform="translate(550.671875 0)"/>
     <use xlink:href="#DejaVuSans-73" transform="translate(578.455078 0)"/>
     <use xlink:href="#DejaVuSans-74" transform="translate(630.554688 0)"/>
     <use xlink:href="#DejaVuSans-72" transform="translate(669.763672 0)"/>
     <use xlink:href="#DejaVuSans-69" transform="translate(710.876953 0)"/>
     <use xlink:href="#DejaVuSans-62" transform="translate(738.660156 0)"/>
     <use xlink:href="#DejaVuSans-75" transform="translate(802.136719 0)"/>
     <use xlink:href="#DejaVuSans-74" transform="translate(865.515625 0)"/>
     <use xlink:href="#DejaVuSans-69" transform="translate(904.724609 0)"/>
     <use xlink:href="#DejaVuSans-6f" transform="translate(932.507812 0)"/>
     <use xlink:href="#DejaVuSans-6e" transform="translate(993.689453 0)"/>
     <use xlink:href="#DejaVuSans-20" transform="translate(1057.068359 0)"/>
     <use xlink:href="#DejaVuSans-6f" transform="translate(1088.855469 0)"/>
     <use xlink:href="#DejaVuSans-66" transform="translate(1150.037109 0)"/>
     <use xlink:href="#DejaVuSans-20" transform="translate(1185.242188 0)"/>
     <use xlink:href="#DejaVuSans-54" transform="translate(1217.029297 0)"/>
     <use xlink:href="#DejaVuSans-65" transform="translate(1261.113281 0)"/>
     <use xlink:href="#DejaVuSans-6d" transform="translate(1322.636719 0)"/>
     <use xlink:href="#DejaVuSans-70" transform="translate(1420.048828 0)"/>
     <use xlink:href="#DejaVuSans-65" transform="translate(1483.525391 0)"/>
     <use xlink:href="#DejaVuSans-72" transform="translate(1545.048828 0)"/>
     <use xlink:href="#DejaVuSans-61" transform="translate(1586.162109 0)"/>
     <use xlink:href="#DejaVuSans-74" transform="translate(1647.441406 0)"/>
     <use xlink:href="#DejaVuSans-75" transform="translate(1686.650391 0)"/>
     <use xlink:href="#DejaVuSans-72" transform="translate(1750.029297 0)"/>
     <use xlink:href="#DejaVuSans-65" transform="translate(1788.892578 0)"/>
     <use xlink:href="#DejaVuSans-2013" transform="translate(1850.416016 0)"/>
     <use xlink:href="#DejaVuSans-53" transform="translate(1900.416016 0)"/>
     <use xlink:href="#DejaVuSans-65" transform="translate(1963.892578 0)"/>
     <use xlink:href="#DejaVuSans-6e" transform="translate(2025.416016 0)"/>
     <use xlink:href="#DejaVuSans-73" transform="translate(2088.794922 0)"/>
     <use xlink:href="#DejaVuSans-69" transform="translate(2140.894531 0)"/>
     <use xlink:href="#DejaVuSans-74" transform="translate(2168.677734 0)"/>
     <use xlink:href="#DejaVuSans-69" transform="translate(2207.886719 0)"/>
     <use xlink:href="#DejaVuSans-76" transform="translate(2235.669922 0)"/>
     <use xlink:href="#DejaVuSans-69" transform="translate(2294.849609 0)"/>
     <use xlink:href="#DejaVuSans-74" transform="translate(2322.632812 0)"/>
     <use xlink:href="#DejaVuSans-79" transform="translate(2361.841797 0)"/>
     <use xlink:href="#DejaVuSans-20" transform="translate(2421.021484 0)"/>
     <use xlink:href="#DejaVuSans-53" transform="translate(2452.808594 0)"/>
     <use xlink:href="#DejaVuSans-6c" transform="translate(2516.285156 0)"/>
     <use xlink:href="#DejaVuSans-6f" transform="translate(2544.068359 0)"/>
     <use xlink:href="#DejaVuSans-70" transform="translate(2605.25 0)"/>
     <use xlink:href="#DejaVuSans-65" transform="translate(2668.726562 0)"/>
    </g>
   </g>
   <g id="legend_1">
    <g id="patch_5">
     <path d="M 64.474063 60.434219 
L 173.456875 60.434219 
Q 175.456875 60.434219 175.456875 58.434219 
L 175.456875 30.077969 
Q 175.456875 28.077969 173.456875 28.077969 
L 64.474063 28.077969 
Q 62.474063 28.077969 62.474063 30.077969 
L 62.474063 58.434219 
Q 62.474063 60.434219 64.474063 60.434219 
z
" style="fill: #ffffff; opacity: 0.9; stroke: #e2e8f0; stroke-linejoin: miter"/>
    </g>
    <g id="line2d_28">
     <path d="M 66.474063 36.176406 
L 76.474063 36.176406 
L 86.474063 36.176406 
" style="fill: none; stroke: #ed8936; stroke-width: 2; stroke-linecap: square"/>
    </g>
    <g id="text_15">
     <!-- Median = -30.8 -->
     <g style="fill: #2d3748" transform="translate(94.474063 39.676406) scale(0.1 -0.1)">
      <defs>
       <path id="DejaVuSans-4d" d="M 628 4666 
L 1569 4666 
L 2759 1491 
L 3956 4666 
L 4897 4666 
L 4897 0 
L 4281 0 
L 4281 4097 
L 3078 897 
L 2444 897 
L 1241 4097 
L 1241 0 
L 628 0 
L 628 4666 
z
" transform="scale(0.015625)"/>
       <path id="DejaVuSans-64" d="M 2906 2969 
L 2906 4863 
L 3481 4863 
L 3481 0 
L 2906 0 
L 2906 525 
Q 2725 213 2448 61 
Q 2172 -91 1784 -91 
Q 1150 -91 751 415 
Q 353 922 353 1747 
Q 353 2572 751 3078 
Q 1150 3584 1784 3584 
Q 2172 3584 2448 3432 
Q 2725 3281 2906 2969 
z
M 947 1747 
Q 947 1113 1208 752 
Q 1469 391 1925 391 
Q 2381 391 2643 752 
Q 2906 1113 2906 1747 
Q 2906 2381 2643 2742 
Q 2381 3103 1925 3103 
Q 1469 3103 1208 2742 
Q 947 2381 947 1747 
z
" transform="scale(0.015625)"/>
       <path id="DejaVuSans-3d" d="M 678 2906 
L 4684 2906 
L 4684 2381 
L 678 2381 
L 678 2906 
z
M 678 1631 
L 4684 1631 
L 4684 1100 
L 678 1100 
L 678 1631 
z
" transform="scale(0.015625)"/>
       <path id="DejaVuSans-2d" d="M 313 2009 
L 1997 2009 
L 1997 1497 
L 313 1497 
L 313 2009 
z
" transform="scale(0.015625)"/>
       <path id="DejaVuSans-33" d="M 2597 2516 
Q 3050 2419 3304 2112 
Q 3559 1806 3559 1356 
Q 3559 666 3084 287 
Q 2609 -91 1734 -91 
Q 1441 -91 1130 -33 
Q 819 25 488 141 
L 488 750 
Q 750 597 1062 519 
Q 1375 441 1716 441 
Q 2309 441 2620 675 
Q 2931 909 2931 1356 
Q 2931 1769 2642 2001 
Q 2353 2234 1838 2234 
L 1294 2234 
L 1294 2753 
L 1863 2753 
Q 2328 2753 2575 2939 
Q 2822 3125 2822 3475 
Q 2822 3834 2567 4026 
Q 2313 4219 1838 4219 
Q 1578 4219 1281 4162 
Q 984 4106 628 3988 
L 628 4550 
Q 988 4650 1302 4700 
Q 1616 4750 1894 4750 
Q 2613 4750 3031 4423 
Q 3450 4097 3450 3541 
Q 3450 3153 3228 2886 
Q 3006 2619 2597 2516 
z
" transform="scale(0.015625)"/>
      </defs>
      <use xlink:href="#DejaVuSans-4d"/>
      <use xlink:href="#DejaVuSans-65" transform="translate(86.279297 0)"/>
      <use xlink:href="#DejaVuSans-64" transform="translate(147.802734 0)"/>
      <use xlink:href="#DejaVuSans-69" transform="translate(211.279297 0)"/>
      <use xlink:href="#DejaVuSans-61" transform="translate(239.0625 0)"/>
      <use xlink:href="#DejaVuSans-6e" transform="translate(300.341797 0)"/>
      <use xlink:href="#DejaVuSans-20" transform="translate(363.720703 0)"/>
      <use xlink:href="#DejaVuSans-3d" transform="translate(395.507812 0)"/>
      <use xlink:href="#DejaVuSans-20" transform="translate(479.296875 0)"/>
      <use xlink:href="#DejaVuSans-2d" transform="translate(511.083984 0)"/>
      <use xlink:href="#DejaVuSans-33" transform="translate(547.167969 0)"/>
      <use xlink:href="#DejaVuSans-30" transform="translate(610.791016 0)"/>
      <use xlink:href="#DejaVuSans-2e" transform="translate(674.414062 0)"/>
      <use xlink:href="#DejaVuSans-38" transform="translate(706.201172 0)"/>
     </g>
    </g>
    <g id="line2d_29">
     <path d="M 66.474063 50.854531 
L 76.474063 50.854531 
L 86.474063 50.854531 
" style="fill: none; stroke-dasharray: 7.4,3.2; stroke-dashoffset: 0; stroke: #808080; stroke-opacity: 0.5; stroke-width: 2"/>
    </g>
    <g id="text_16">
     <!-- No effect -->
     <g style="fill: #2d3748" transform="translate(94.474063 54.354531) scale(0.1 -0.1)">
      <defs>
       <path id="DejaVuSans-4e" d="M 628 4666 
L 1478 4666 
L 3547 763 
L 3547 4666 
L 4159 4666 
L 4159 0 
L 3309 0 
L 1241 3903 
L 1241 0 
L 628 0 
L 628 4666 
z
" transform="scale(0.015625)"/>
       <path id="DejaVuSans-63" d="M 3122 3366 
L 3122 2828 
Q 2878 2963 2633 3030 
Q 2388 3097 2138 3097 
Q 1578 3097 1268 2742 
Q 959 2388 959 1747 
Q 959 1106 1268 751 
Q 1578 397 2138 397 
Q 2388 397 2633 464 
Q 2878 531 3122 666 
L 3122 134 
Q 2881 22 2623 -34 
Q 2366 -91 2075 -91 
Q 1284 -91 818 406 
Q 353 903 353 1747 
Q 353 2603 823 3093 
Q 1294 3584 2113 3584 
Q 2378 3584 2631 3529 
Q 2884 3475 3122 3366 
z
" transform="scale(0.015625)"/>
      </defs>
      <use xlink:href="#DejaVuSans-4e"/>
      <use xlink:href="#DejaVuSans-6f" transform="translate(74.804688 0)"/>
      <use xlink:href="#DejaVuSans-20" transform="translate(135.986328 0)"/>
      <use xlink:href="#DejaVuSans-65" transform="translate(167.773438 0)"/>
      <use xlink:href="#DejaVuSans-66" transform="translate(229.296875 0)"/>
      <use xlink:href="#DejaVuSans-66" transform="translate(264.501953 0)"/>
      <use xlink:href="#DejaVuSans-65" transform="translate(299.707031 0)"/>
      <use xlink:href="#DejaVuSans-63" transform="translate(361.230469 0)"/>
      <use xlink:href="#DejaVuSans-74" transform="translate(416.210938 0)"/>
     </g>
    </g>
   </g>
  </g>
 </g>
 <defs>
  <clipPath id="p14128594e7">
   <rect x="57.474063" y="23.077969" width="501.58" height="217"/>
  </clipPath>
 </defs>
</svg>
