<?xml version="1.0" encoding="utf-8" standalone="no"?>
<!DOCTYPE svg PUBLIC "-//W3C//DTD SVG 1.1//EN"
  "http://www.w3.org/Graphics/SVG/1.1/DTD/svg11.dtd">
<svg xmlns:xlink="http://www.w3.org/1999/xlink" width="854.2525pt" height="314.322187pt" viewBox="0 0 854.2525 314.322187" xmlns="http://www.w3.org/2000/svg" version="1.1">
 <metadata>
  <rdf:RDF xmlns:dc="http://purl.org/dc/elements/1.1/" xmlns:cc="http://creativecommons.org/ns#" xmlns:rdf="http://www.w3.org/1999/02/22-rdf-syntax-ns#">
   <cc:Work>
    <dc:type rdf:resource="http://purl.org/dc/dcmitype/StillImage"/>
    <dc:date>2026-03-07T02:25:59.354401</dc:date>
    <dc:format>image/svg+xml</dc:format>
    <dc:creator>
     <cc:Agent>
      <dc:title>Matplotlib v3.10.8, https://matplotlib.org/</dc:title>
     </cc:Agent>
    </dc:creator>
   </cc:Work>
  </rdf:RDF>
 </metadata>
 <defs>
  <style type="text/css">*{stroke-linejoin: round; stroke-linecap: butt}</style>
 </defs>
 <g id="figure_1">
  <g id="patch_1">
   <path d="M 0 314.322187 
L 854.2525 314.322187 
L 854.2525 0 
L 0 0 
z
" style="fill: #ffffff"/>
  </g>
  <g id="axes_1">
   <g id="patch_2">
    <path d="M 41.570938 275.798125 
L 415.425937 275.798125 
L 415.425937 22.318125 
L 41.570938 22.318125 
z
" style="fill: #ffffff"/>
   </g>
   <g id="patch_3">
    <path d="M 58.564347 275.798125 
L 75.557756 275.798125 
L 75.557756 155.093363 
L 58.564347 155.093363 
z
" clip-path="url(#p87e02bc95b)" style="fill: #2c5282; opacity: 0.7; stroke: #ffffff; stroke-linejoin: miter"/>
   </g>
   <g id="patch_4">
    <path d="M 75.557756 275.798125 
L 92.551165 275.798125 
L 92.551165 155.093363 
L 75.557756 155.093363 
z
" clip-path="url(#p87e02bc95b)" style="fill: #2c5282; opacity: 0.7; stroke: #ffffff; stroke-linejoin: miter"/>
   </g>
   <g id="patch_5">
    <path d="M 92.551165 275.798125 
L 109.544574 275.798125 
L 109.544574 170.181458 
L 92.551165 170.181458 
z
" clip-path="url(#p87e02bc95b)" style="fill: #2c5282; opacity: 0.7; stroke: #ffffff; stroke-linejoin: miter"/>
   </g>
   <g id="patch_6">
    <path d="M 109.544574 275.798125 
L 126.537983 275.798125 
L 126.537983 79.652887 
L 109.544574 79.652887 
z
" clip-path="url(#p87e02bc95b)" style="fill: #2c5282; opacity: 0.7; stroke: #ffffff; stroke-linejoin: miter"/>
   </g>
   <g id="patch_7">
    <path d="M 126.537983 275.798125 
L 143.531392 275.798125 
L 143.531392 124.917173 
L 126.537983 124.917173 
z
" clip-path="url(#p87e02bc95b)" style="fill: #2c5282; opacity: 0.7; stroke: #ffffff; stroke-linejoin: miter"/>
   </g>
   <g id="patch_8">
    <path d="M 143.531392 275.798125 
L 160.524801 275.798125 
L 160.524801 155.093363 
L 143.531392 155.093363 
z
" clip-path="url(#p87e02bc95b)" style="fill: #2c5282; opacity: 0.7; stroke: #ffffff; stroke-linejoin: miter"/>
   </g>
   <g id="patch_9">
    <path d="M 160.524801 275.798125 
L 177.51821 275.798125 
L 177.51821 170.181458 
L 160.524801 170.181458 
z
" clip-path="url(#p87e02bc95b)" style="fill: #2c5282; opacity: 0.7; stroke: #ffffff; stroke-linejoin: miter"/>
   </g>
   <g id="patch_10">
    <path d="M 177.51821 275.798125 
L 194.511619 275.798125 
L 194.511619 155.093363 
L 177.51821 155.093363 
z
" clip-path="url(#p87e02bc95b)" style="fill: #2c5282; opacity: 0.7; stroke: #ffffff; stroke-linejoin: miter"/>
   </g>
   <g id="patch_11">
    <path d="M 194.511619 275.798125 
L 211.505028 275.798125 
L 211.505028 94.740982 
L 194.511619 94.740982 
z
" clip-path="url(#p87e02bc95b)" style="fill: #2c5282; opacity: 0.7; stroke: #ffffff; stroke-linejoin: miter"/>
   </g>
   <g id="patch_12">
    <path d="M 211.505028 275.798125 
L 228.498437 275.798125 
L 228.498437 170.181458 
L 211.505028 170.181458 
z
" clip-path="url(#p87e02bc95b)" style="fill: #2c5282; opacity: 0.7; stroke: #ffffff; stroke-linejoin: miter"/>
   </g>
   <g id="patch_13">
    <path d="M 228.498437 275.798125 
L 245.491847 275.798125 
L 245.491847 94.740982 
L 228.498437 94.740982 
z
" clip-path="url(#p87e02bc95b)" style="fill: #2c5282; opacity: 0.7; stroke: #ffffff; stroke-linejoin: miter"/>
   </g>
   <g id="patch_14">
    <path d="M 245.491847 275.798125 
L 262.485256 275.798125 
L 262.485256 34.388601 
L 245.491847 34.388601 
z
" clip-path="url(#p87e02bc95b)" style="fill: #2c5282; opacity: 0.7; stroke: #ffffff; stroke-linejoin: miter"/>
   </g>
   <g id="patch_15">
    <path d="M 262.485256 275.798125 
L 279.478665 275.798125 
L 279.478665 155.093363 
L 262.485256 155.093363 
z
" clip-path="url(#p87e02bc95b)" style="fill: #2c5282; opacity: 0.7; stroke: #ffffff; stroke-linejoin: miter"/>
   </g>
   <g id="patch_16">
    <path d="M 279.478665 275.798125 
L 296.472074 275.798125 
L 296.472074 200.357649 
L 279.478665 200.357649 
z
" clip-path="url(#p87e02bc95b)" style="fill: #2c5282; opacity: 0.7; stroke: #ffffff; stroke-linejoin: miter"/>
   </g>
   <g id="patch_17">
    <path d="M 296.472074 275.798125 
L 313.465483 275.798125 
L 313.465483 124.917173 
L 296.472074 124.917173 
z
" clip-path="url(#p87e02bc95b)" style="fill: #2c5282; opacity: 0.7; stroke: #ffffff; stroke-linejoin: miter"/>
   </g>
   <g id="patch_18">
    <path d="M 313.465483 275.798125 
L 330.458892 275.798125 
L 330.458892 140.005268 
L 313.465483 140.005268 
z
" clip-path="url(#p87e02bc95b)" style="fill: #2c5282; opacity: 0.7; stroke: #ffffff; stroke-linejoin: miter"/>
   </g>
   <g id="patch_19">
    <path d="M 330.458892 275.798125 
L 347.452301 275.798125 
L 347.452301 109.829077 
L 330.458892 109.829077 
z
" clip-path="url(#p87e02bc95b)" style="fill: #2c5282; opacity: 0.7; stroke: #ffffff; stroke-linejoin: miter"/>
   </g>
   <g id="patch_20">
    <path d="M 347.452301 275.798125 
L 364.44571 275.798125 
L 364.44571 64.564792 
L 347.452301 64.564792 
z
" clip-path="url(#p87e02bc95b)" style="fill: #2c5282; opacity: 0.7; stroke: #ffffff; stroke-linejoin: miter"/>
   </g>
   <g id="patch_21">
    <path d="M 364.44571 275.798125 
L 381.439119 275.798125 
L 381.439119 109.829077 
L 364.44571 109.829077 
z
" clip-path="url(#p87e02bc95b)" style="fill: #2c5282; opacity: 0.7; stroke: #ffffff; stroke-linejoin: miter"/>
   </g>
   <g id="patch_22">
    <path d="M 381.439119 275.798125 
L 398.432528 275.798125 
L 398.432528 34.388601 
L 381.439119 34.388601 
z
" clip-path="url(#p87e02bc95b)" style="fill: #2c5282; opacity: 0.7; stroke: #ffffff; stroke-linejoin: miter"/>
   </g>
   <g id="matplotlib.axis_1">
    <g id="xtick_1">
     <g id="line2d_1">
      <path d="M 55.131335 275.798125 
L 55.131335 22.318125 
" clip-path="url(#p87e02bc95b)" style="fill: none; stroke: #e2e8f0; stroke-opacity: 0.3; stroke-width: 0.5; stroke-linecap: square"/>
     </g>
     <g id="line2d_2">
      <defs>
       <path id="m464639763c" d="M 0 0 
L 0 3.5 
" style="stroke: #2d3748; stroke-width: 0.8"/>
      </defs>
      <g>
       <use xlink:href="#m464639763c" x="55.131335" y="275.798125" style="fill: #2d3748; stroke: #2d3748; stroke-width: 0.8"/>
      </g>
     </g>
     <g id="text_1">
      <!-- 0 -->
      <g style="fill: #2d3748" transform="translate(51.950085 290.396562) scale(0.1 -0.1)">
       <defs>
        <path id="DejaVuSans-30" d="M 2034 4250 
Q 1547 4250 1301 3770 
Q 1056 3291 1056 2328 
Q 1056 1369 1301 889 
Q 1547 409 2034 409 
Q 2525 409 2770 889 
Q 3016 1369 3016 2328 
Q 3016 3291 2770 3770 
Q 2525 4250 2034 4250 
z
M 2034 4750 
Q 2819 4750 3233 4129 
Q 3647 3509 3647 2328 
Q 3647 1150 3233 529 
Q 2819 -91 2034 -91 
Q 1250 -91 836 529 
Q 422 1150 422 2328 
Q 422 3509 836 4129 
Q 1250 4750 2034 4750 
z
" transform="scale(0.015625)"/>
       </defs>
       <use xlink:href="#DejaVuSans-30"/>
      </g>
     </g>
    </g>
    <g id="xtick_2">
     <g id="line2d_3">
      <path d="M 98.043984 275.798125 
L 98.043984 22.318125 
" clip-path="url(#p87e02bc95b)" style="fill: none; stroke: #e2e8f0; stroke-opacity: 0.3; stroke-width: 0.5; stroke-linecap: square"/>
     </g>
     <g id="line2d_4">
      <g>
       <use xlink:href="#m464639763c" x="98.043984" y="275.798125" style="fill: #2d3748; stroke: #2d3748; stroke-width: 0.8"/>
      </g>
     </g>
     <g id="text_2">
      <!-- 25 -->
      <g style="fill: #2d3748" transform="translate(91.681484 290.396562) scale(0.1 -0.1)">
       <defs>
        <path id="DejaVuSans-32" d="M 1228 531 
L 3431 531 
L 3431 0 
L 469 0 
L 469 531 
Q 828 903 1448 1529 
Q 2069 2156 2228 2338 
Q 2531 2678 2651 2914 
Q 2772 3150 2772 3378 
Q 2772 3750 2511 3984 
Q 2250 4219 1831 4219 
Q 1534 4219 1204 4116 
Q 875 4013 500 3803 
L 500 4441 
Q 881 4594 1212 4672 
Q 1544 4750 1819 4750 
Q 2544 4750 2975 4387 
Q 3406 4025 3406 3419 
Q 3406 3131 3298 2873 
Q 3191 2616 2906 2266 
Q 2828 2175 2409 1742 
Q 1991 1309 1228 531 
z
" transform="scale(0.015625)"/>
        <path id="DejaVuSans-35" d="M 691 4666 
L 3169 4666 
L 3169 4134 
L 1269 4134 
L 1269 2991 
Q 1406 3038 1543 3061 
Q 1681 3084 1819 3084 
Q 2600 3084 3056 2656 
Q 3513 2228 3513 1497 
Q 3513 744 3044 326 
Q 2575 -91 1722 -91 
Q 1428 -91 1123 -41 
Q 819 9 494 109 
L 494 744 
Q 775 591 1075 516 
Q 1375 441 1709 441 
Q 2250 441 2565 725 
Q 2881 1009 2881 1497 
Q 2881 1984 2565 2268 
Q 2250 2553 1709 2553 
Q 1456 2553 1204 2497 
Q 953 2441 691 2322 
L 691 4666 
z
" transform="scale(0.015625)"/>
       </defs>
       <use xlink:href="#DejaVuSans-32"/>
       <use xlink:href="#DejaVuSans-35" transform="translate(63.623047 0)"/>
      </g>
     </g>
    </g>
    <g id="xtick_3">
     <g id="line2d_5">
      <path d="M 140.956633 275.798125 
L 140.956633 22.318125 
" clip-path="url(#p87e02bc95b)" style="fill: none; stroke: #e2e8f0; stroke-opacity: 0.3; stroke-width: 0.5; stroke-linecap: square"/>
     </g>
     <g id="line2d_6">
      <g>
       <use xlink:href="#m464639763c" x="140.956633" y="275.798125" style="fill: #2d3748; stroke: #2d3748; stroke-width: 0.8"/>
      </g>
     </g>
     <g id="text_3">
      <!-- 50 -->
      <g style="fill: #2d3748" transform="translate(134.594133 290.396562) scale(0.1 -0.1)">
       <use xlink:href="#DejaVuSans-35"/>
       <use xlink:href="#DejaVuSans-30" transform="translate(63.623047 0)"/>
      </g>
     </g>
    </g>
    <g id="xtick_4">
     <g id="line2d_7">
      <path d="M 183.869282 275.798125 
L 183.869282 22.318125 
" clip-path="url(#p87e02bc95b)" style="fill: none; stroke: #e2e8f0; stroke-opacity: 0.3; stroke-width: 0.5; stroke-linecap: square"/>
     </g>
     <g id="line2d_8">
      <g>
       <use xlink:href="#m464639763c" x="183.869282" y="275.798125" style="fill: #2d3748; stroke: #2d3748; stroke-width: 0.8"/>
      </g>
     </g>
     <g id="text_4">
      <!-- 75 -->
      <g style="fill: #2d3748" transform="translate(177.506782 290.396562) scale(0.1 -0.1)">
       <defs>
        <path id="DejaVuSans-37" d="M 525 4666 
L 3525 4666 
L 3525 4397 
L 1831 0 
L 1172 0 
L 2766 4134 
L 525 4134 
L 525 4666 
z
" transform="scale(0.015625)"/>
       </defs>
       <use xlink:href="#DejaVuSans-37"/>
       <use xlink:href="#DejaVuSans-35" transform="translate(63.623047 0)"/>
      </g>
     </g>
    </g>
    <g id="xtick_5">
     <g id="line2d_9">
      <path d="M 226.781932 275.798125 
L 226.781932 22.318125 
" clip-path="url(#p87e02bc95b)" style="fill: none; stroke: #e2e8f0; stroke-opacity: 0.3; stroke-width: 0.5; stroke-linecap: square"/>
     </g>
     <g id="line2d_10">
      <g>
       <use xlink:href="#m464639763c" x="226.781932" y="275.798125" style="fill: #2d3748; stroke: #2d3748; stroke-width: 0.8"/>
      </g>
     </g>
     <g id="text_5">
      <!-- 100 -->
      <g style="fill: #2d3748" transform="translate(217.238182 290.396562) scale(0.1 -0.1)">
       <defs>
        <path id="DejaVuSans-31" d="M 794 531 
L 1825 531 
L 1825 4091 
L 703 3866 
L 703 4441 
L 1819 4666 
L 2450 4666 
L 2450 531 
L 3481 531 
L 3481 0 
L 794 0 
L 794 531 
z
" transform="scale(0.015625)"/>
       </defs>
       <use xlink:href="#DejaVuSans-31"/>
       <use xlink:href="#DejaVuSans-30" transform="translate(63.623047 0)"/>
       <use xlink:href="#DejaVuSans-30" transform="translate(127.246094 0)"/>
      </g>
     </g>
    </g>
    <g id="xtick_6">
     <g id="line2d_11">
      <path d="M 269.694581 275.798125 
L 269.694581 22.318125 
" clip-path="url(#p87e02bc95b)" style="fill: none; stroke: #e2e8f0; stroke-opacity: 0.3; stroke-width: 0.5; stroke-linecap: square"/>
     </g>
     <g id="line2d_12">
      <g>
       <use xlink:href="#m464639763c" x="269.694581" y="275.798125" style="fill: #2d3748; stroke: #2d3748; stroke-width: 0.8"/>
      </g>
     </g>
     <g id="text_6">
      <!-- 125 -->
      <g style="fill: #2d3748" transform="translate(260.150831 290.396562) scale(0.1 -0.1)">
       <use xlink:href="#DejaVuSans-31"/>
       <use xlink:href="#DejaVuSans-32" transform="translate(63.623047 0)"/>
       <use xlink:href="#DejaVuSans-35" transform="translate(127.246094 0)"/>
      </g>
     </g>
    </g>
    <g id="xtick_7">
     <g id="line2d_13">
      <path d="M 312.60723 275.798125 
L 312.60723 22.318125 
" clip-path="url(#p87e02bc95b)" style="fill: none; stroke: #e2e8f0; stroke-opacity: 0.3; stroke-width: 0.5; stroke-linecap: square"/>
     </g>
     <g id="line2d_14">
      <g>
       <use xlink:href="#m464639763c" x="312.60723" y="275.798125" style="fill: #2d3748; stroke: #2d3748; stroke-width: 0.8"/>
      </g>
     </g>
     <g id="text_7">
      <!-- 150 -->
      <g style="fill: #2d3748" transform="translate(303.06348 290.396562) scale(0.1 -0.1)">
       <use xlink:href="#DejaVuSans-31"/>
       <use xlink:href="#DejaVuSans-35" transform="translate(63.623047 0)"/>
       <use xlink:href="#DejaVuSans-30" transform="translate(127.246094 0)"/>
      </g>
     </g>
    </g>
    <g id="xtick_8">
     <g id="line2d_15">
      <path d="M 355.519879 275.798125 
L 355.519879 22.318125 
" clip-path="url(#p87e02bc95b)" style="fill: none; stroke: #e2e8f0; stroke-opacity: 0.3; stroke-width: 0.5; stroke-linecap: square"/>
     </g>
     <g id="line2d_16">
      <g>
       <use xlink:href="#m464639763c" x="355.519879" y="275.798125" style="fill: #2d3748; stroke: #2d3748; stroke-width: 0.8"/>
      </g>
     </g>
     <g id="text_8">
      <!-- 175 -->
      <g style="fill: #2d3748" transform="translate(345.976129 290.396562) scale(0.1 -0.1)">
       <use xlink:href="#DejaVuSans-31"/>
       <use xlink:href="#DejaVuSans-37" transform="translate(63.623047 0)"/>
       <use xlink:href="#DejaVuSans-35" transform="translate(127.246094 0)"/>
      </g>
     </g>
    </g>
    <g id="xtick_9">
     <g id="line2d_17">
      <path d="M 398.432528 275.798125 
L 398.432528 22.318125 
" clip-path="url(#p87e02bc95b)" style="fill: none; stroke: #e2e8f0; stroke-opacity: 0.3; stroke-width: 0.5; stroke-linecap: square"/>
     </g>
     <g id="line2d_18">
      <g>
       <use xlink:href="#m464639763c" x="398.432528" y="275.798125" style="fill: #2d3748; stroke: #2d3748; stroke-width: 0.8"/>
      </g>
     </g>
     <g id="text_9">
      <!-- 200 -->
      <g style="fill: #2d3748" transform="translate(388.888778 290.396562) scale(0.1 -0.1)">
       <use xlink:href="#DejaVuSans-32"/>
       <use xlink:href="#DejaVuSans-30" transform="translate(63.623047 0)"/>
       <use xlink:href="#DejaVuSans-30" transform="translate(127.246094 0)"/>
      </g>
     </g>
    </g>
    <g id="text_10">
     <!-- Rank -->
     <g style="fill: #2d3748" transform="translate(214.759609 304.834531) scale(0.11 -0.11)">
      <defs>
       <path id="DejaVuSans-52" d="M 2841 2188 
Q 3044 2119 3236 1894 
Q 3428 1669 3622 1275 
L 4263 0 
L 3584 0 
L 2988 1197 
Q 2756 1666 2539 1819 
Q 2322 1972 1947 1972 
L 1259 1972 
L 1259 0 
L 628 0 
L 628 4666 
L 2053 4666 
Q 2853 4666 3247 4331 
Q 3641 3997 3641 3322 
Q 3641 2881 3436 2590 
Q 3231 2300 2841 2188 
z
M 1259 4147 
L 1259 2491 
L 2053 2491 
Q 2509 2491 2742 2702 
Q 2975 2913 2975 3322 
Q 2975 3731 2742 3939 
Q 2509 4147 2053 4147 
L 1259 4147 
z
" transform="scale(0.015625)"/>
       <path id="DejaVuSans-61" d="M 2194 1759 
Q 1497 1759 1228 1600 
Q 959 1441 959 1056 
Q 959 750 1161 570 
Q 1363 391 1709 391 
Q 2188 391 2477 730 
Q 2766 1069 2766 1631 
L 2766 1759 
L 2194 1759 
z
M 3341 1997 
L 3341 0 
L 2766 0 
L 2766 531 
Q 2569 213 2275 61 
Q 1981 -91 1556 -91 
Q 1019 -91 701 211 
Q 384 513 384 1019 
Q 384 1609 779 1909 
Q 1175 2209 1959 2209 
L 2766 2209 
L 2766 2266 
Q 2766 2663 2505 2880 
Q 2244 3097 1772 3097 
Q 1472 3097 1187 3025 
Q 903 2953 641 2809 
L 641 3341 
Q 956 3463 1253 3523 
Q 1550 3584 1831 3584 
Q 2591 3584 2966 3190 
Q 3341 2797 3341 1997 
z
" transform="scale(0.015625)"/>
       <path id="DejaVuSans-6e" d="M 3513 2113 
L 3513 0 
L 2938 0 
L 2938 2094 
Q 2938 2591 2744 2837 
Q 2550 3084 2163 3084 
Q 1697 3084 1428 2787 
Q 1159 2491 1159 1978 
L 1159 0 
L 581 0 
L 581 3500 
L 1159 3500 
L 1159 2956 
Q 1366 3272 1645 3428 
Q 1925 3584 2291 3584 
Q 2894 3584 3203 3211 
Q 3513 2838 3513 2113 
z
" transform="scale(0.015625)"/>
       <path id="DejaVuSans-6b" d="M 581 4863 
L 1159 4863 
L 1159 1991 
L 2875 3500 
L 3609 3500 
L 1753 1863 
L 3688 0 
L 2938 0 
L 1159 1709 
L 1159 0 
L 581 0 
L 581 4863 
z
" transform="scale(0.015625)"/>
      </defs>
      <use xlink:href="#DejaVuSans-52"/>
      <use xlink:href="#DejaVuSans-61" transform="translate(67.232422 0)"/>
      <use xlink:href="#DejaVuSans-6e" transform="translate(128.511719 0)"/>
      <use xlink:href="#DejaVuSans-6b" transform="translate(191.890625 0)"/>
     </g>
    </g>
   </g>
   <g id="matplotlib.axis_2">
    <g id="ytick_1">
     <g id="line2d_19">
      <path d="M 41.570938 275.798125 
L 415.425937 275.798125 
" clip-path="url(#p87e02bc95b)" style="fill: none; stroke: #e2e8f0; stroke-opacity: 0.3; stroke-width: 0.5; stroke-linecap: square"/>
     </g>
     <g id="line2d_20">
      <defs>
       <path id="mc4da10da01" d="M 0 0 
L -3.5 0 
" style="stroke: #2d3748; stroke-width: 0.8"/>
      </defs>
      <g>
       <use xlink:href="#mc4da10da01" x="41.570938" y="275.798125" style="fill: #2d3748; stroke: #2d3748; stroke-width: 0.8"/>
      </g>
     </g>
     <g id="text_11">
      <!-- 0 -->
      <g style="fill: #2d3748" transform="translate(28.208438 279.597344) scale(0.1 -0.1)">
       <use xlink:href="#DejaVuSans-30"/>
      </g>
     </g>
    </g>
    <g id="ytick_2">
     <g id="line2d_21">
      <path d="M 41.570938 245.621935 
L 415.425937 245.621935 
" clip-path="url(#p87e02bc95b)" style="fill: none; stroke: #e2e8f0; stroke-opacity: 0.3; stroke-width: 0.5; stroke-linecap: square"/>
     </g>
     <g id="line2d_22">
      <g>
       <use xlink:href="#mc4da10da01" x="41.570938" y="245.621935" style="fill: #2d3748; stroke: #2d3748; stroke-width: 0.8"/>
      </g>
     </g>
     <g id="text_12">
      <!-- 2 -->
      <g style="fill: #2d3748" transform="translate(28.208438 249.421153) scale(0.1 -0.1)">
       <use xlink:href="#DejaVuSans-32"/>
      </g>
     </g>
    </g>
    <g id="ytick_3">
     <g id="line2d_23">
      <path d="M 41.570938 215.445744 
L 415.425937 215.445744 
" clip-path="url(#p87e02bc95b)" style="fill: none; stroke: #e2e8f0; stroke-opacity: 0.3; stroke-width: 0.5; stroke-linecap: square"/>
     </g>
     <g id="line2d_24">
      <g>
       <use xlink:href="#mc4da10da01" x="41.570938" y="215.445744" style="fill: #2d3748; stroke: #2d3748; stroke-width: 0.8"/>
      </g>
     </g>
     <g id="text_13">
      <!-- 4 -->
      <g style="fill: #2d3748" transform="translate(28.208438 219.244963) scale(0.1 -0.1)">
       <defs>
        <path id="DejaVuSans-34" d="M 2419 4116 
L 825 1625 
L 2419 1625 
L 2419 4116 
z
M 2253 4666 
L 3047 4666 
L 3047 1625 
L 3713 1625 
L 3713 1100 
L 3047 1100 
L 3047 0 
L 2419 0 
L 2419 1100 
L 313 1100 
L 313 1709 
L 2253 4666 
z
" transform="scale(0.015625)"/>
       </defs>
       <use xlink:href="#DejaVuSans-34"/>
      </g>
     </g>
    </g>
    <g id="ytick_4">
     <g id="line2d_25">
      <path d="M 41.570938 185.269554 
L 415.425937 185.269554 
" clip-path="url(#p87e02bc95b)" style="fill: none; stroke: #e2e8f0; stroke-opacity: 0.3; stroke-width: 0.5; stroke-linecap: square"/>
     </g>
     <g id="line2d_26">
      <g>
       <use xlink:href="#mc4da10da01" x="41.570938" y="185.269554" style="fill: #2d3748; stroke: #2d3748; stroke-width: 0.8"/>
      </g>
     </g>
     <g id="text_14">
      <!-- 6 -->
      <g style="fill: #2d3748" transform="translate(28.208438 189.068772) scale(0.1 -0.1)">
       <defs>
        <path id="DejaVuSans-36" d="M 2113 2584 
Q 1688 2584 1439 2293 
Q 1191 2003 1191 1497 
Q 1191 994 1439 701 
Q 1688 409 2113 409 
Q 2538 409 2786 701 
Q 3034 994 3034 1497 
Q 3034 2003 2786 2293 
Q 2538 2584 2113 2584 
z
M 3366 4563 
L 3366 3988 
Q 3128 4100 2886 4159 
Q 2644 4219 2406 4219 
Q 1781 4219 1451 3797 
Q 1122 3375 1075 2522 
Q 1259 2794 1537 2939 
Q 1816 3084 2150 3084 
Q 2853 3084 3261 2657 
Q 3669 2231 3669 1497 
Q 3669 778 3244 343 
Q 2819 -91 2113 -91 
Q 1303 -91 875 529 
Q 447 1150 447 2328 
Q 447 3434 972 4092 
Q 1497 4750 2381 4750 
Q 2619 4750 2861 4703 
Q 3103 4656 3366 4563 
z
" transform="scale(0.015625)"/>
       </defs>
       <use xlink:href="#DejaVuSans-36"/>
      </g>
     </g>
    </g>
    <g id="ytick_5">
     <g id="line2d_27">
      <path d="M 41.570938 155.093363 
L 415.425937 155.093363 
" clip-path="url(#p87e02bc95b)" style="fill: none; stroke: #e2e8f0; stroke-opacity: 0.3; stroke-width: 0.5; stroke-linecap: square"/>
     </g>
     <g id="line2d_28">
      <g>
       <use xlink:href="#mc4da10da01" x="41.570938" y="155.093363" style="fill: #2d3748; stroke: #2d3748; stroke-width: 0.8"/>
      </g>
     </g>
     <g id="text_15">
      <!-- 8 -->
      <g style="fill: #2d3748" transform="translate(28.208438 158.892582) scale(0.1 -0.1)">
       <defs>
        <path id="DejaVuSans-38" d="M 2034 2216 
Q 1584 2216 1326 1975 
Q 1069 1734 1069 1313 
Q 1069 891 1326 650 
Q 1584 409 2034 409 
Q 2484 409 2743 651 
Q 3003 894 3003 1313 
Q 3003 1734 2745 1975 
Q 2488 2216 2034 2216 
z
M 1403 2484 
Q 997 2584 770 2862 
Q 544 3141 544 3541 
Q 544 4100 942 4425 
Q 1341 4750 2034 4750 
Q 2731 4750 3128 4425 
Q 3525 4100 3525 3541 
Q 3525 3141 3298 2862 
Q 3072 2584 2669 2484 
Q 3125 2378 3379 2068 
Q 3634 1759 3634 1313 
Q 3634 634 3220 271 
Q 2806 -91 2034 -91 
Q 1263 -91 848 271 
Q 434 634 434 1313 
Q 434 1759 690 2068 
Q 947 2378 1403 2484 
z
M 1172 3481 
Q 1172 3119 1398 2916 
Q 1625 2713 2034 2713 
Q 2441 2713 2670 2916 
Q 2900 3119 2900 3481 
Q 2900 3844 2670 4047 
Q 2441 4250 2034 4250 
Q 1625 4250 1398 4047 
Q 1172 3844 1172 3481 
z
" transform="scale(0.015625)"/>
       </defs>
       <use xlink:href="#DejaVuSans-38"/>
      </g>
     </g>
    </g>
    <g id="ytick_6">
     <g id="line2d_29">
      <path d="M 41.570938 124.917173 
L 415.425937 124.917173 
" clip-path="url(#p87e02bc95b)" style="fill: none; stroke: #e2e8f0; stroke-opacity: 0.3; stroke-width: 0.5; stroke-linecap: square"/>
     </g>
     <g id="line2d_30">
      <g>
       <use xlink:href="#mc4da10da01" x="41.570938" y="124.917173" style="fill: #2d3748; stroke: #2d3748; stroke-width: 0.8"/>
      </g>
     </g>
     <g id="text_16">
      <!-- 10 -->
      <g style="fill: #2d3748" transform="translate(21.845938 128.716391) scale(0.1 -0.1)">
       <use xlink:href="#DejaVuSans-31"/>
       <use xlink:href="#DejaVuSans-30" transform="translate(63.623047 0)"/>
      </g>
     </g>
    </g>
    <g id="ytick_7">
     <g id="line2d_31">
      <path d="M 41.570938 94.740982 
L 415.425937 94.740982 
" clip-path="url(#p87e02bc95b)" style="fill: none; stroke: #e2e8f0; stroke-opacity: 0.3; stroke-width: 0.5; stroke-linecap: square"/>
     </g>
     <g id="line2d_32">
      <g>
       <use xlink:href="#mc4da10da01" x="41.570938" y="94.740982" style="fill: #2d3748; stroke: #2d3748; stroke-width: 0.8"/>
      </g>
     </g>
     <g id="text_17">
      <!-- 12 -->
      <g style="fill: #2d3748" transform="translate(21.845938 98.540201) scale(0.1 -0.1)">
       <use xlink:href="#DejaVuSans-31"/>
       <use xlink:href="#DejaVuSans-32" transform="translate(63.623047 0)"/>
      </g>
     </g>
    </g>
    <g id="ytick_8">
     <g id="line2d_33">
      <path d="M 41.570938 64.564792 
L 415.425937 64.564792 
" clip-path="url(#p87e02bc95b)" style="fill: none; stroke: #e2e8f0; stroke-opacity: 0.3; stroke-width: 0.5; stroke-linecap: square"/>
     </g>
     <g id="line2d_34">
      <g>
       <use xlink:href="#mc4da10da01" x="41.570938" y="64.564792" style="fill: #2d3748; stroke: #2d3748; stroke-width: 0.8"/>
      </g>
     </g>
     <g id="text_18">
      <!-- 14 -->
      <g style="fill: #2d3748" transform="translate(21.845938 68.36401) scale(0.1 -0.1)">
       <use xlink:href="#DejaVuSans-31"/>
       <use xlink:href="#DejaVuSans-34" transform="translate(63.623047 0)"/>
      </g>
     </g>
    </g>
    <g id="ytick_9">
     <g id="line2d_35">
      <path d="M 41.570938 34.388601 
L 415.425937 34.388601 
" clip-path="url(#p87e02bc95b)" style="fill: none; stroke: #e2e8f0; stroke-opacity: 0.3; stroke-width: 0.5; stroke-linecap: square"/>
     </g>
     <g id="line2d_36">
      <g>
       <use xlink:href="#mc4da10da01" x="41.570938" y="34.388601" style="fill: #2d3748; stroke: #2d3748; stroke-width: 0.8"/>
      </g>
     </g>
     <g id="text_19">
      <!-- 16 -->
      <g style="fill: #2d3748" transform="translate(21.845938 38.18782) scale(0.1 -0.1)">
       <use xlink:href="#DejaVuSans-31"/>
       <use xlink:href="#DejaVuSans-36" transform="translate(63.623047 0)"/>
      </g>
     </g>
    </g>
    <g id="text_20">
     <!-- Count -->
     <g style="fill: #2d3748" transform="translate(15.558281 165.391406) rotate(-90) scale(0.11 -0.11)">
      <defs>
       <path id="DejaVuSans-43" d="M 4122 4306 
L 4122 3641 
Q 3803 3938 3442 4084 
Q 3081 4231 2675 4231 
Q 1875 4231 1450 3742 
Q 1025 3253 1025 2328 
Q 1025 1406 1450 917 
Q 1875 428 2675 428 
Q 3081 428 3442 575 
Q 3803 722 4122 1019 
L 4122 359 
Q 3791 134 3420 21 
Q 3050 -91 2638 -91 
Q 1578 -91 968 557 
Q 359 1206 359 2328 
Q 359 3453 968 4101 
Q 1578 4750 2638 4750 
Q 3056 4750 3426 4639 
Q 3797 4528 4122 4306 
z
" transform="scale(0.015625)"/>
       <path id="DejaVuSans-6f" d="M 1959 3097 
Q 1497 3097 1228 2736 
Q 959 2375 959 1747 
Q 959 1119 1226 758 
Q 1494 397 1959 397 
Q 2419 397 2687 759 
Q 2956 1122 2956 1747 
Q 2956 2369 2687 2733 
Q 2419 3097 1959 3097 
z
M 1959 3584 
Q 2709 3584 3137 3096 
Q 3566 2609 3566 1747 
Q 3566 888 3137 398 
Q 2709 -91 1959 -91 
Q 1206 -91 779 398 
Q 353 888 353 1747 
Q 353 2609 779 3096 
Q 1206 3584 1959 3584 
z
" transform="scale(0.015625)"/>
       <path id="DejaVuSans-75" d="M 544 1381 
L 544 3500 
L 1119 3500 
L 1119 1403 
Q 1119 906 1312 657 
Q 1506 409 1894 409 
Q 2359 409 2629 706 
Q 2900 1003 2900 1516 
L 2900 3500 
L 3475 3500 
L 3475 0 
L 2900 0 
L 2900 538 
Q 2691 219 2414 64 
Q 2138 -91 1772 -91 
Q 1169 -91 856 284 
Q 544 659 544 1381 
z
M 1991 3584 
L 1991 3584 
z
" transform="scale(0.015625)"/>
       <path id="DejaVuSans-74" d="M 1172 4494 
L 1172 3500 
L 2356 3500 
L 2356 3053 
L 1172 3053 
L 1172 1153 
Q 1172 725 1289 603 
Q 1406 481 1766 481 
L 2356 481 
L 2356 0 
L 1766 0 
Q 1100 0 847 248 
Q 594 497 594 1153 
L 594 3053 
L 172 3053 
L 172 3500 
L 594 3500 
L 594 4494 
L 1172 4494 
z
" transform="scale(0.015625)"/>
      </defs>
      <use xlink:href="#DejaVuSans-43"/>
      <use xlink:href="#DejaVuSans-6f" transform="translate(69.824219 0)"/>
      <use xlink:href="#DejaVuSans-75" transform="translate(131.005859 0)"/>
      <use xlink:href="#DejaVuSans-6e" transform="translate(194.384766 0)"/>
      <use xlink:href="#DejaVuSans-74" transform="translate(257.763672 0)"/>
     </g>
    </g>
   </g>
   <g id="line2d_37">
    <path d="M 41.570938 124.917173 
L 415.425937 124.917173 
" clip-path="url(#p87e02bc95b)" style="fill: none; stroke-dasharray: 7.4,3.2; stroke-dashoffset: 0; stroke: #ff0000; stroke-width: 2"/>
   </g>
   <g id="patch_23">
    <path d="M 41.570938 275.798125 
L 41.570938 22.318125 
" style="fill: none; stroke: #2d3748; stroke-width: 0.8; stroke-linejoin: miter; stroke-linecap: square"/>
   </g>
   <g id="patch_24">
    <path d="M 41.570938 275.798125 
L 415.425937 275.798125 
" style="fill: none; stroke: #2d3748; stroke-width: 0.8; stroke-linejoin: miter; stroke-linecap: square"/>
   </g>
   <g id="text_21">
    <!-- α Rank Histogram -->
    <g style="fill: #2d3748" transform="translate(174.616562 16.318125) scale(0.12 -0.12)">
     <defs>
      <path id="DejaVuSans-3b1" d="M 2644 1628 
L 2506 2350 
Q 2366 3091 1809 3091 
Q 1391 3091 1200 2747 
Q 959 2316 959 1747 
Q 959 1059 1194 731 
Q 1431 397 1809 397 
Q 2228 397 2453 1063 
L 2644 1628 
z
M 2966 2584 
L 3275 3500 
L 3788 3500 
L 3147 1603 
L 3272 919 
Q 3300 766 3409 638 
Q 3538 488 3638 488 
L 3913 488 
L 3913 0 
L 3569 0 
Q 3275 0 3013 263 
Q 2884 394 2831 669 
Q 2688 322 2394 50 
Q 2256 -78 1809 -78 
Q 1075 -78 719 397 
Q 353 888 353 1747 
Q 353 2666 750 3097 
Q 1191 3578 1809 3578 
Q 2781 3578 2966 2584 
z
" transform="scale(0.015625)"/>
      <path id="DejaVuSans-20" transform="scale(0.015625)"/>
      <path id="DejaVuSans-48" d="M 628 4666 
L 1259 4666 
L 1259 2753 
L 3553 2753 
L 3553 4666 
L 4184 4666 
L 4184 0 
L 3553 0 
L 3553 2222 
L 1259 2222 
L 1259 0 
L 628 0 
L 628 4666 
z
" transform="scale(0.015625)"/>
      <path id="DejaVuSans-69" d="M 603 3500 
L 1178 3500 
L 1178 0 
L 603 0 
L 603 3500 
z
M 603 4863 
L 1178 4863 
L 1178 4134 
L 603 4134 
L 603 4863 
z
" transform="scale(0.015625)"/>
      <path id="DejaVuSans-73" d="M 2834 3397 
L 2834 2853 
Q 2591 2978 2328 3040 
Q 2066 3103 1784 3103 
Q 1356 3103 1142 2972 
Q 928 2841 928 2578 
Q 928 2378 1081 2264 
Q 1234 2150 1697 2047 
L 1894 2003 
Q 2506 1872 2764 1633 
Q 3022 1394 3022 966 
Q 3022 478 2636 193 
Q 2250 -91 1575 -91 
Q 1294 -91 989 -36 
Q 684 19 347 128 
L 347 722 
Q 666 556 975 473 
Q 1284 391 1588 391 
Q 1994 391 2212 530 
Q 2431 669 2431 922 
Q 2431 1156 2273 1281 
Q 2116 1406 1581 1522 
L 1381 1569 
Q 847 1681 609 1914 
Q 372 2147 372 2553 
Q 372 3047 722 3315 
Q 1072 3584 1716 3584 
Q 2034 3584 2315 3537 
Q 2597 3491 2834 3397 
z
" transform="scale(0.015625)"/>
      <path id="DejaVuSans-67" d="M 2906 1791 
Q 2906 2416 2648 2759 
Q 2391 3103 1925 3103 
Q 1463 3103 1205 2759 
Q 947 2416 947 1791 
Q 947 1169 1205 825 
Q 1463 481 1925 481 
Q 2391 481 2648 825 
Q 2906 1169 2906 1791 
z
M 3481 434 
Q 3481 -459 3084 -895 
Q 2688 -1331 1869 -1331 
Q 1566 -1331 1297 -1286 
Q 1028 -1241 775 -1147 
L 775 -588 
Q 1028 -725 1275 -790 
Q 1522 -856 1778 -856 
Q 2344 -856 2625 -561 
Q 2906 -266 2906 331 
L 2906 616 
Q 2728 306 2450 153 
Q 2172 0 1784 0 
Q 1141 0 747 490 
Q 353 981 353 1791 
Q 353 2603 747 3093 
Q 1141 3584 1784 3584 
Q 2172 3584 2450 3431 
Q 2728 3278 2906 2969 
L 2906 3500 
L 3481 3500 
L 3481 434 
z
" transform="scale(0.015625)"/>
      <path id="DejaVuSans-72" d="M 2631 2963 
Q 2534 3019 2420 3045 
Q 2306 3072 2169 3072 
Q 1681 3072 1420 2755 
Q 1159 2438 1159 1844 
L 1159 0 
L 581 0 
L 581 3500 
L 1159 3500 
L 1159 2956 
Q 1341 3275 1631 3429 
Q 1922 3584 2338 3584 
Q 2397 3584 2469 3576 
Q 2541 3569 2628 3553 
L 2631 2963 
z
" transform="scale(0.015625)"/>
      <path id="DejaVuSans-6d" d="M 3328 2828 
Q 3544 3216 3844 3400 
Q 4144 3584 4550 3584 
Q 5097 3584 5394 3201 
Q 5691 2819 5691 2113 
L 5691 0 
L 5113 0 
L 5113 2094 
Q 5113 2597 4934 2840 
Q 4756 3084 4391 3084 
Q 3944 3084 3684 2787 
Q 3425 2491 3425 1978 
L 3425 0 
L 2847 0 
L 2847 2094 
Q 2847 2600 2669 2842 
Q 2491 3084 2119 3084 
Q 1678 3084 1418 2786 
Q 1159 2488 1159 1978 
L 1159 0 
L 581 0 
L 581 3500 
L 1159 3500 
L 1159 2956 
Q 1356 3278 1631 3431 
Q 1906 3584 2284 3584 
Q 2666 3584 2933 3390 
Q 3200 3197 3328 2828 
z
" transform="scale(0.015625)"/>
     </defs>
     <use xlink:href="#DejaVuSans-3b1"/>
     <use xlink:href="#DejaVuSans-20" transform="translate(65.917969 0)"/>
     <use xlink:href="#DejaVuSans-52" transform="translate(97.705078 0)"/>
     <use xlink:href="#DejaVuSans-61" transform="translate(164.9375 0)"/>
     <use xlink:href="#DejaVuSans-6e" transform="translate(226.216797 0)"/>
     <use xlink:href="#DejaVuSans-6b" transform="translate(289.595703 0)"/>
     <use xlink:href="#DejaVuSans-20" transform="translate(347.505859 0)"/>
     <use xlink:href="#DejaVuSans-48" transform="translate(379.292969 0)"/>
     <use xlink:href="#DejaVuSans-69" transform="translate(454.488281 0)"/>
     <use xlink:href="#DejaVuSans-73" transform="translate(482.271484 0)"/>
     <use xlink:href="#DejaVuSans-74" transform="translate(534.371094 0)"/>
     <use xlink:href="#DejaVuSans-6f" transform="translate(573.580078 0)"/>
     <use xlink:href="#DejaVuSans-67" transform="translate(634.761719 0)"/>
     <use xlink:href="#DejaVuSans-72" transform="translate(698.238281 0)"/>
     <use xlink:href="#DejaVuSans-61" transform="translate(739.351562 0)"/>
     <use xlink:href="#DejaVuSans-6d" transform="translate(800.630859 0)"/>
    </g>
   </g>
   <g id="legend_1">
    <g id="patch_25">
     <path d="M 48.570938 44.99625 
L 168.26625 44.99625 
Q 170.26625 44.99625 170.26625 42.99625 
L 170.26625 29.318125 
Q 170.26625 27.318125 168.26625 27.318125 
L 48.570938 27.318125 
Q 46.570938 27.318125 46.570938 29.318125 
L 46.570938 42.99625 
Q 46.570938 44.99625 48.570938 44.99625 
z
" style="fill: #ffffff; opacity: 0.9; stroke: #e2e8f0; stroke-linejoin: miter"/>
    </g>
    <g id="line2d_38">
     <path d="M 50.570938 35.416563 
L 60.570938 35.416563 
L 70.570938 35.416563 
" style="fill: none; stroke-dasharray: 7.4,3.2; stroke-dashoffset: 0; stroke: #ff0000; stroke-width: 2"/>
    </g>
    <g id="text_22">
     <!-- Uniform (E=10.0) -->
     <g style="fill: #2d3748" transform="translate(78.570938 38.916563) scale(0.1 -0.1)">
      <defs>
       <path id="DejaVuSans-55" d="M 556 4666 
L 1191 4666 
L 1191 1831 
Q 1191 1081 1462 751 
Q 1734 422 2344 422 
Q 2950 422 3222 751 
Q 3494 1081 3494 1831 
L 3494 4666 
L 4128 4666 
L 4128 1753 
Q 4128 841 3676 375 
Q 3225 -91 2344 -91 
Q 1459 -91 1007 375 
Q 556 841 556 1753 
L 556 4666 
z
" transform="scale(0.015625)"/>
       <path id="DejaVuSans-66" d="M 2375 4863 
L 2375 4384 
L 1825 4384 
Q 1516 4384 1395 4259 
Q 1275 4134 1275 3809 
L 1275 3500 
L 2222 3500 
L 2222 3053 
L 1275 3053 
L 1275 0 
L 697 0 
L 697 3053 
L 147 3053 
L 147 3500 
L 697 3500 
L 697 3744 
Q 697 4328 969 4595 
Q 1241 4863 1831 4863 
L 2375 4863 
z
" transform="scale(0.015625)"/>
       <path id="DejaVuSans-28" d="M 1984 4856 
Q 1566 4138 1362 3434 
Q 1159 2731 1159 2009 
Q 1159 1288 1364 580 
Q 1569 -128 1984 -844 
L 1484 -844 
Q 1016 -109 783 600 
Q 550 1309 550 2009 
Q 550 2706 781 3412 
Q 1013 4119 1484 4856 
L 1984 4856 
z
" transform="scale(0.015625)"/>
       <path id="DejaVuSans-45" d="M 628 4666 
L 3578 4666 
L 3578 4134 
L 1259 4134 
L 1259 2753 
L 3481 2753 
L 3481 2222 
L 1259 2222 
L 1259 531 
L 3634 531 
L 3634 0 
L 628 0 
L 628 4666 
z
" transform="scale(0.015625)"/>
       <path id="DejaVuSans-3d" d="M 678 2906 
L 4684 2906 
L 4684 2381 
L 678 2381 
L 678 2906 
z
M 678 1631 
L 4684 1631 
L 4684 1100 
L 678 1100 
L 678 1631 
z
" transform="scale(0.015625)"/>
       <path id="DejaVuSans-2e" d="M 684 794 
L 1344 794 
L 1344 0 
L 684 0 
L 684 794 
z
" transform="scale(0.015625)"/>
       <path id="DejaVuSans-29" d="M 513 4856 
L 1013 4856 
Q 1481 4119 1714 3412 
Q 1947 2706 1947 2009 
Q 1947 1309 1714 600 
Q 1481 -109 1013 -844 
L 513 -844 
Q 928 -128 1133 580 
Q 1338 1288 1338 2009 
Q 1338 2731 1133 3434 
Q 928 4138 513 4856 
z
" transform="scale(0.015625)"/>
      </defs>
      <use xlink:href="#DejaVuSans-55"/>
      <use xlink:href="#DejaVuSans-6e" transform="translate(73.193359 0)"/>
      <use xlink:href="#DejaVuSans-69" transform="translate(136.572266 0)"/>
      <use xlink:href="#DejaVuSans-66" transform="translate(164.355469 0)"/>
      <use xlink:href="#DejaVuSans-6f" transform="translate(199.560547 0)"/>
      <use xlink:href="#DejaVuSans-72" transform="translate(260.742188 0)"/>
      <use xlink:href="#DejaVuSans-6d" transform="translate(300.105469 0)"/>
      <use xlink:href="#DejaVuSans-20" transform="translate(397.517578 0)"/>
      <use xlink:href="#DejaVuSans-28" transform="translate(429.304688 0)"/>
      <use xlink:href="#DejaVuSans-45" transform="translate(468.318359 0)"/>
      <use xlink:href="#DejaVuSans-3d" transform="translate(531.501953 0)"/>
      <use xlink:href="#DejaVuSans-31" transform="translate(615.291016 0)"/>
      <use xlink:href="#DejaVuSans-30" transform="translate(678.914062 0)"/>
      <use xlink:href="#DejaVuSans-2e" transform="translate(742.537109 0)"/>
      <use xlink:href="#DejaVuSans-30" transform="translate(774.324219 0)"/>
      <use xlink:href="#DejaVuSans-29" transform="translate(837.947266 0)"/>
     </g>
    </g>
   </g>
  </g>
  <g id="axes_2">
   <g id="patch_26">
    <path d="M 465.245937 275.798125 
L 839.100937 275.798125 
L 839.100937 22.318125 
L 465.245937 22.318125 
z
" style="fill: #ffffff"/>
   </g>
   <g id="FillBetweenPolyCollection_1">
    <defs>
     <path id="m79fd9ab34f" d="M 465.245937 -62.866325 
L 465.245937 -14.1818 
L 839.100937 -267.6618 
L 839.100937 -316.346325 
L 839.100937 -316.346325 
L 465.245937 -62.866325 
z
" style="stroke: #ff0000; stroke-opacity: 0.15"/>
    </defs>
    <g clip-path="url(#p7cf8f41fe4)">
     <use xlink:href="#m79fd9ab34f" x="0" y="314.322187" style="fill: #ff0000; fill-opacity: 0.15; stroke: #ff0000; stroke-opacity: 0.15"/>
    </g>
   </g>
   <g id="matplotlib.axis_3">
    <g id="xtick_10">
     <g id="line2d_39">
      <path d="M 465.245937 275.798125 
L 465.245937 22.318125 
" clip-path="url(#p7cf8f41fe4)" style="fill: none; stroke: #e2e8f0; stroke-opacity: 0.3; stroke-width: 0.5; stroke-linecap: square"/>
     </g>
     <g id="line2d_40">
      <g>
       <use xlink:href="#m464639763c" x="465.245937" y="275.798125" style="fill: #2d3748; stroke: #2d3748; stroke-width: 0.8"/>
      </g>
     </g>
     <g id="text_23">
      <!-- 0.0 -->
      <g style="fill: #2d3748" transform="translate(457.294375 290.396562) scale(0.1 -0.1)">
       <use xlink:href="#DejaVuSans-30"/>
       <use xlink:href="#DejaVuSans-2e" transform="translate(63.623047 0)"/>
       <use xlink:href="#DejaVuSans-30" transform="translate(95.410156 0)"/>
      </g>
     </g>
    </g>
    <g id="xtick_11">
     <g id="line2d_41">
      <path d="M 540.016937 275.798125 
L 540.016937 22.318125 
" clip-path="url(#p7cf8f41fe4)" style="fill: none; stroke: #e2e8f0; stroke-opacity: 0.3; stroke-width: 0.5; stroke-linecap: square"/>
     </g>
     <g id="line2d_42">
      <g>
       <use xlink:href="#m464639763c" x="540.016937" y="275.798125" style="fill: #2d3748; stroke: #2d3748; stroke-width: 0.8"/>
      </g>
     </g>
     <g id="text_24">
      <!-- 0.2 -->
      <g style="fill: #2d3748" transform="translate(532.065375 290.396562) scale(0.1 -0.1)">
       <use xlink:href="#DejaVuSans-30"/>
       <use xlink:href="#DejaVuSans-2e" transform="translate(63.623047 0)"/>
       <use xlink:href="#DejaVuSans-32" transform="translate(95.410156 0)"/>
      </g>
     </g>
    </g>
    <g id="xtick_12">
     <g id="line2d_43">
      <path d="M 614.787937 275.798125 
L 614.787937 22.318125 
" clip-path="url(#p7cf8f41fe4)" style="fill: none; stroke: #e2e8f0; stroke-opacity: 0.3; stroke-width: 0.5; stroke-linecap: square"/>
     </g>
     <g id="line2d_44">
      <g>
       <use xlink:href="#m464639763c" x="614.787937" y="275.798125" style="fill: #2d3748; stroke: #2d3748; stroke-width: 0.8"/>
      </g>
     </g>
     <g id="text_25">
      <!-- 0.4 -->
      <g style="fill: #2d3748" transform="translate(606.836375 290.396562) scale(0.1 -0.1)">
       <use xlink:href="#DejaVuSans-30"/>
       <use xlink:href="#DejaVuSans-2e" transform="translate(63.623047 0)"/>
       <use xlink:href="#DejaVuSans-34" transform="translate(95.410156 0)"/>
      </g>
     </g>
    </g>
    <g id="xtick_13">
     <g id="line2d_45">
      <path d="M 689.558937 275.798125 
L 689.558937 22.318125 
" clip-path="url(#p7cf8f41fe4)" style="fill: none; stroke: #e2e8f0; stroke-opacity: 0.3; stroke-width: 0.5; stroke-linecap: square"/>
     </g>
     <g id="line2d_46">
      <g>
       <use xlink:href="#m464639763c" x="689.558937" y="275.798125" style="fill: #2d3748; stroke: #2d3748; stroke-width: 0.8"/>
      </g>
     </g>
     <g id="text_26">
      <!-- 0.6 -->
      <g style="fill: #2d3748" transform="translate(681.607375 290.396562) scale(0.1 -0.1)">
       <use xlink:href="#DejaVuSans-30"/>
       <use xlink:href="#DejaVuSans-2e" transform="translate(63.623047 0)"/>
       <use xlink:href="#DejaVuSans-36" transform="translate(95.410156 0)"/>
      </g>
     </g>
    </g>
    <g id="xtick_14">
     <g id="line2d_47">
      <path d="M 764.329937 275.798125 
L 764.329937 22.318125 
" clip-path="url(#p7cf8f41fe4)" style="fill: none; stroke: #e2e8f0; stroke-opacity: 0.3; stroke-width: 0.5; stroke-linecap: square"/>
     </g>
     <g id="line2d_48">
      <g>
       <use xlink:href="#m464639763c" x="764.329937" y="275.798125" style="fill: #2d3748; stroke: #2d3748; stroke-width: 0.8"/>
      </g>
     </g>
     <g id="text_27">
      <!-- 0.8 -->
      <g style="fill: #2d3748" transform="translate(756.378375 290.396562) scale(0.1 -0.1)">
       <use xlink:href="#DejaVuSans-30"/>
       <use xlink:href="#DejaVuSans-2e" transform="translate(63.623047 0)"/>
       <use xlink:href="#DejaVuSans-38" transform="translate(95.410156 0)"/>
      </g>
     </g>
    </g>
    <g id="xtick_15">
     <g id="line2d_49">
      <path d="M 839.100937 275.798125 
L 839.100937 22.318125 
" clip-path="url(#p7cf8f41fe4)" style="fill: none; stroke: #e2e8f0; stroke-opacity: 0.3; stroke-width: 0.5; stroke-linecap: square"/>
     </g>
     <g id="line2d_50">
      <g>
       <use xlink:href="#m464639763c" x="839.100937" y="275.798125" style="fill: #2d3748; stroke: #2d3748; stroke-width: 0.8"/>
      </g>
     </g>
     <g id="text_28">
      <!-- 1.0 -->
      <g style="fill: #2d3748" transform="translate(831.149375 290.396562) scale(0.1 -0.1)">
       <use xlink:href="#DejaVuSans-31"/>
       <use xlink:href="#DejaVuSans-2e" transform="translate(63.623047 0)"/>
       <use xlink:href="#DejaVuSans-30" transform="translate(95.410156 0)"/>
      </g>
     </g>
    </g>
    <g id="text_29">
     <!-- Normalized Rank -->
     <g style="fill: #2d3748" transform="translate(605.495625 304.834531) scale(0.11 -0.11)">
      <defs>
       <path id="DejaVuSans-4e" d="M 628 4666 
L 1478 4666 
L 3547 763 
L 3547 4666 
L 4159 4666 
L 4159 0 
L 3309 0 
L 1241 3903 
L 1241 0 
L 628 0 
L 628 4666 
z
" transform="scale(0.015625)"/>
       <path id="DejaVuSans-6c" d="M 603 4863 
L 1178 4863 
L 1178 0 
L 603 0 
L 603 4863 
z
" transform="scale(0.015625)"/>
       <path id="DejaVuSans-7a" d="M 353 3500 
L 3084 3500 
L 3084 2975 
L 922 459 
L 3084 459 
L 3084 0 
L 275 0 
L 275 525 
L 2438 3041 
L 353 3041 
L 353 3500 
z
" transform="scale(0.015625)"/>
       <path id="DejaVuSans-65" d="M 3597 1894 
L 3597 1613 
L 953 1613 
Q 991 1019 1311 708 
Q 1631 397 2203 397 
Q 2534 397 2845 478 
Q 3156 559 3463 722 
L 3463 178 
Q 3153 47 2828 -22 
Q 2503 -91 2169 -91 
Q 1331 -91 842 396 
Q 353 884 353 1716 
Q 353 2575 817 3079 
Q 1281 3584 2069 3584 
Q 2775 3584 3186 3129 
Q 3597 2675 3597 1894 
z
M 3022 2063 
Q 3016 2534 2758 2815 
Q 2500 3097 2075 3097 
Q 1594 3097 1305 2825 
Q 1016 2553 972 2059 
L 3022 2063 
z
" transform="scale(0.015625)"/>
       <path id="DejaVuSans-64" d="M 2906 2969 
L 2906 4863 
L 3481 4863 
L 3481 0 
L 2906 0 
L 2906 525 
Q 2725 213 2448 61 
Q 2172 -91 1784 -91 
Q 1150 -91 751 415 
Q 353 922 353 1747 
Q 353 2572 751 3078 
Q 1150 3584 1784 3584 
Q 2172 3584 2448 3432 
Q 2725 3281 2906 2969 
z
M 947 1747 
Q 947 1113 1208 752 
Q 1469 391 1925 391 
Q 2381 391 2643 752 
Q 2906 1113 2906 1747 
Q 2906 2381 2643 2742 
Q 2381 3103 1925 3103 
Q 1469 3103 1208 2742 
Q 947 2381 947 1747 
z
" transform="scale(0.015625)"/>
      </defs>
      <use xlink:href="#DejaVuSans-4e"/>
      <use xlink:href="#DejaVuSans-6f" transform="translate(74.804688 0)"/>
      <use xlink:href="#DejaVuSans-72" transform="translate(135.986328 0)"/>
      <use xlink:href="#DejaVuSans-6d" transform="translate(175.349609 0)"/>
      <use xlink:href="#DejaVuSans-61" transform="translate(272.761719 0)"/>
      <use xlink:href="#DejaVuSans-6c" transform="translate(334.041016 0)"/>
      <use xlink:href="#DejaVuSans-69" transform="translate(361.824219 0)"/>
      <use xlink:href="#DejaVuSans-7a" transform="translate(389.607422 0)"/>
      <use xlink:href="#DejaVuSans-65" transform="translate(442.097656 0)"/>
      <use xlink:href="#DejaVuSans-64" transform="translate(503.621094 0)"/>
      <use xlink:href="#DejaVuSans-20" transform="translate(567.097656 0)"/>
      <use xlink:href="#DejaVuSans-52" transform="translate(598.884766 0)"/>
      <use xlink:href="#DejaVuSans-61" transform="translate(666.117188 0)"/>
      <use xlink:href="#DejaVuSans-6e" transform="translate(727.396484 0)"/>
      <use xlink:href="#DejaVuSans-6b" transform="translate(790.775391 0)"/>
     </g>
    </g>
   </g>
   <g id="matplotlib.axis_4">
    <g id="ytick_10">
     <g id="line2d_51">
      <path d="M 465.245937 275.798125 
L 839.100937 275.798125 
" clip-path="url(#p7cf8f41fe4)" style="fill: none; stroke: #e2e8f0; stroke-opacity: 0.3; stroke-width: 0.5; stroke-linecap: square"/>
     </g>
     <g id="line2d_52">
      <g>
       <use xlink:href="#mc4da10da01" x="465.245937" y="275.798125" style="fill: #2d3748; stroke: #2d3748; stroke-width: 0.8"/>
      </g>
     </g>
     <g id="text_30">
      <!-- 0.0 -->
      <g style="fill: #2d3748" transform="translate(442.342812 279.597344) scale(0.1 -0.1)">
       <use xlink:href="#DejaVuSans-30"/>
       <use xlink:href="#DejaVuSans-2e" transform="translate(63.623047 0)"/>
       <use xlink:href="#DejaVuSans-30" transform="translate(95.410156 0)"/>
      </g>
     </g>
    </g>
    <g id="ytick_11">
     <g id="line2d_53">
      <path d="M 465.245937 225.102125 
L 839.100937 225.102125 
" clip-path="url(#p7cf8f41fe4)" style="fill: none; stroke: #e2e8f0; stroke-opacity: 0.3; stroke-width: 0.5; stroke-linecap: square"/>
     </g>
     <g id="line2d_54">
      <g>
       <use xlink:href="#mc4da10da01" x="465.245937" y="225.102125" style="fill: #2d3748; stroke: #2d3748; stroke-width: 0.8"/>
      </g>
     </g>
     <g id="text_31">
      <!-- 0.2 -->
      <g style="fill: #2d3748" transform="translate(442.342812 228.901344) scale(0.1 -0.1)">
       <use xlink:href="#DejaVuSans-30"/>
       <use xlink:href="#DejaVuSans-2e" transform="translate(63.623047 0)"/>
       <use xlink:href="#DejaVuSans-32" transform="translate(95.410156 0)"/>
      </g>
     </g>
    </g>
    <g id="ytick_12">
     <g id="line2d_55">
      <path d="M 465.245937 174.406125 
L 839.100937 174.406125 
" clip-path="url(#p7cf8f41fe4)" style="fill: none; stroke: #e2e8f0; stroke-opacity: 0.3; stroke-width: 0.5; stroke-linecap: square"/>
     </g>
     <g id="line2d_56">
      <g>
       <use xlink:href="#mc4da10da01" x="465.245937" y="174.406125" style="fill: #2d3748; stroke: #2d3748; stroke-width: 0.8"/>
      </g>
     </g>
     <g id="text_32">
      <!-- 0.4 -->
      <g style="fill: #2d3748" transform="translate(442.342812 178.205344) scale(0.1 -0.1)">
       <use xlink:href="#DejaVuSans-30"/>
       <use xlink:href="#DejaVuSans-2e" transform="translate(63.623047 0)"/>
       <use xlink:href="#DejaVuSans-34" transform="translate(95.410156 0)"/>
      </g>
     </g>
    </g>
    <g id="ytick_13">
     <g id="line2d_57">
      <path d="M 465.245937 123.710125 
L 839.100937 123.710125 
" clip-path="url(#p7cf8f41fe4)" style="fill: none; stroke: #e2e8f0; stroke-opacity: 0.3; stroke-width: 0.5; stroke-linecap: square"/>
     </g>
     <g id="line2d_58">
      <g>
       <use xlink:href="#mc4da10da01" x="465.245937" y="123.710125" style="fill: #2d3748; stroke: #2d3748; stroke-width: 0.8"/>
      </g>
     </g>
     <g id="text_33">
      <!-- 0.6 -->
      <g style="fill: #2d3748" transform="translate(442.342812 127.509344) scale(0.1 -0.1)">
       <use xlink:href="#DejaVuSans-30"/>
       <use xlink:href="#DejaVuSans-2e" transform="translate(63.623047 0)"/>
       <use xlink:href="#DejaVuSans-36" transform="translate(95.410156 0)"/>
      </g>
     </g>
    </g>
    <g id="ytick_14">
     <g id="line2d_59">
      <path d="M 465.245937 73.014125 
L 839.100937 73.014125 
" clip-path="url(#p7cf8f41fe4)" style="fill: none; stroke: #e2e8f0; stroke-opacity: 0.3; stroke-width: 0.5; stroke-linecap: square"/>
     </g>
     <g id="line2d_60">
      <g>
       <use xlink:href="#mc4da10da01" x="465.245937" y="73.014125" style="fill: #2d3748; stroke: #2d3748; stroke-width: 0.8"/>
      </g>
     </g>
     <g id="text_34">
      <!-- 0.8 -->
      <g style="fill: #2d3748" transform="translate(442.342812 76.813344) scale(0.1 -0.1)">
       <use xlink:href="#DejaVuSans-30"/>
       <use xlink:href="#DejaVuSans-2e" transform="translate(63.623047 0)"/>
       <use xlink:href="#DejaVuSans-38" transform="translate(95.410156 0)"/>
      </g>
     </g>
    </g>
    <g id="ytick_15">
     <g id="line2d_61">
      <path d="M 465.245937 22.318125 
L 839.100937 22.318125 
" clip-path="url(#p7cf8f41fe4)" style="fill: none; stroke: #e2e8f0; stroke-opacity: 0.3; stroke-width: 0.5; stroke-linecap: square"/>
     </g>
     <g id="line2d_62">
      <g>
       <use xlink:href="#mc4da10da01" x="465.245937" y="22.318125" style="fill: #2d3748; stroke: #2d3748; stroke-width: 0.8"/>
      </g>
     </g>
     <g id="text_35">
      <!-- 1.0 -->
      <g style="fill: #2d3748" transform="translate(442.342812 26.117344) scale(0.1 -0.1)">
       <use xlink:href="#DejaVuSans-31"/>
       <use xlink:href="#DejaVuSans-2e" transform="translate(63.623047 0)"/>
       <use xlink:href="#DejaVuSans-30" transform="translate(95.410156 0)"/>
      </g>
     </g>
    </g>
    <g id="text_36">
     <!-- ECDF -->
     <g style="fill: #2d3748" transform="translate(436.055156 163.772344) rotate(-90) scale(0.11 -0.11)">
      <defs>
       <path id="DejaVuSans-44" d="M 1259 4147 
L 1259 519 
L 2022 519 
Q 2988 519 3436 956 
Q 3884 1394 3884 2338 
Q 3884 3275 3436 3711 
Q 2988 4147 2022 4147 
L 1259 4147 
z
M 628 4666 
L 1925 4666 
Q 3281 4666 3915 4102 
Q 4550 3538 4550 2338 
Q 4550 1131 3912 565 
Q 3275 0 1925 0 
L 628 0 
L 628 4666 
z
" transform="scale(0.015625)"/>
       <path id="DejaVuSans-46" d="M 628 4666 
L 3309 4666 
L 3309 4134 
L 1259 4134 
L 1259 2759 
L 3109 2759 
L 3109 2228 
L 1259 2228 
L 1259 0 
L 628 0 
L 628 4666 
z
" transform="scale(0.015625)"/>
      </defs>
      <use xlink:href="#DejaVuSans-45"/>
      <use xlink:href="#DejaVuSans-43" transform="translate(63.183594 0)"/>
      <use xlink:href="#DejaVuSans-44" transform="translate(133.007812 0)"/>
      <use xlink:href="#DejaVuSans-46" transform="translate(210.009766 0)"/>
     </g>
    </g>
   </g>
   <g id="line2d_63">
    <path d="M 468.984487 274.530725 
L 470.853762 274.530725 
L 470.853762 273.263325 
L 472.723037 273.263325 
L 472.723037 271.995925 
L 474.592312 271.995925 
L 474.592312 270.728525 
L 476.461587 270.728525 
L 476.461587 269.461125 
L 478.330862 269.461125 
L 478.330862 268.193725 
L 482.069412 268.193725 
L 482.069412 266.926325 
L 485.807962 266.926325 
L 485.807962 265.658925 
L 487.677237 265.658925 
L 487.677237 263.124125 
L 491.415787 263.124125 
L 491.415787 261.856725 
L 497.023612 261.856725 
L 497.023612 259.321925 
L 498.892887 259.321925 
L 498.892887 258.054525 
L 500.762162 258.054525 
L 500.762162 256.787125 
L 502.631437 256.787125 
L 502.631437 255.519725 
L 506.369987 255.519725 
L 506.369987 254.252325 
L 508.239262 254.252325 
L 508.239262 252.984925 
L 511.977812 252.984925 
L 511.977812 251.717525 
L 515.716362 251.717525 
L 515.716362 250.450125 
L 517.585637 250.450125 
L 517.585637 249.182725 
L 521.324187 249.182725 
L 521.324187 247.915325 
L 523.193462 247.915325 
L 523.193462 246.647925 
L 528.801287 246.647925 
L 528.801287 245.380525 
L 530.670562 245.380525 
L 530.670562 242.845725 
L 532.539837 242.845725 
L 532.539837 241.578325 
L 534.409112 241.578325 
L 534.409112 240.310925 
L 536.278387 240.310925 
L 536.278387 235.241325 
L 538.147662 235.241325 
L 538.147662 233.973925 
L 540.016937 233.973925 
L 540.016937 232.706525 
L 541.886212 232.706525 
L 541.886212 230.171725 
L 543.755487 230.171725 
L 543.755487 228.904325 
L 547.494037 228.904325 
L 547.494037 227.636925 
L 551.232587 227.636925 
L 551.232587 226.369525 
L 553.101862 226.369525 
L 553.101862 225.102125 
L 554.971137 225.102125 
L 554.971137 223.834725 
L 556.840412 223.834725 
L 556.840412 221.299925 
L 558.709687 221.299925 
L 558.709687 217.497725 
L 564.317512 217.497725 
L 564.317512 216.230325 
L 566.186787 216.230325 
L 566.186787 214.962925 
L 569.925337 214.962925 
L 569.925337 212.428125 
L 575.533162 212.428125 
L 575.533162 211.160725 
L 577.402437 211.160725 
L 577.402437 207.358525 
L 583.010262 207.358525 
L 583.010262 206.091125 
L 586.748812 206.091125 
L 586.748812 203.556325 
L 590.487362 203.556325 
L 590.487362 202.288925 
L 596.095187 202.288925 
L 596.095187 199.754125 
L 597.964462 199.754125 
L 597.964462 198.486725 
L 605.441562 198.486725 
L 605.441562 193.417125 
L 607.310837 193.417125 
L 607.310837 190.882325 
L 614.787937 190.882325 
L 614.787937 189.614925 
L 616.657213 189.614925 
L 616.657213 188.347525 
L 618.526487 188.347525 
L 618.526487 187.080125 
L 622.265037 187.080125 
L 622.265037 184.545325 
L 624.134312 184.545325 
L 624.134312 183.277925 
L 626.003587 183.277925 
L 626.003587 179.475725 
L 629.742137 179.475725 
L 629.742137 176.940925 
L 631.611412 176.940925 
L 631.611412 173.138725 
L 637.219237 173.138725 
L 637.219237 171.871325 
L 640.957787 171.871325 
L 640.957787 169.336525 
L 650.304162 169.336525 
L 650.304162 164.266925 
L 654.042712 164.266925 
L 654.042712 161.732125 
L 659.650537 161.732125 
L 659.650537 160.464725 
L 661.519812 160.464725 
L 661.519812 159.197325 
L 663.389087 159.197325 
L 663.389087 156.662525 
L 665.258362 156.662525 
L 665.258362 155.395125 
L 667.127637 155.395125 
L 667.127637 154.127725 
L 668.996913 154.127725 
L 668.996913 151.592925 
L 670.866188 151.592925 
L 670.866188 149.058125 
L 674.604737 149.058125 
L 674.604737 146.523325 
L 676.474012 146.523325 
L 676.474012 145.255925 
L 678.343287 145.255925 
L 678.343287 143.988525 
L 680.212562 143.988525 
L 680.212562 142.721125 
L 682.081837 142.721125 
L 682.081837 140.186325 
L 683.951112 140.186325 
L 683.951112 136.384125 
L 685.820387 136.384125 
L 685.820387 135.116725 
L 687.689662 135.116725 
L 687.689662 133.849325 
L 689.558937 133.849325 
L 689.558937 128.779725 
L 691.428212 128.779725 
L 691.428212 124.977525 
L 695.166763 124.977525 
L 695.166763 122.442725 
L 697.036038 122.442725 
L 697.036038 121.175325 
L 704.513137 121.175325 
L 704.513137 119.907925 
L 706.382412 119.907925 
L 706.382412 118.640525 
L 711.990237 118.640525 
L 711.990237 117.373125 
L 713.859512 117.373125 
L 713.859512 116.105725 
L 721.336613 116.105725 
L 721.336613 113.570925 
L 725.075162 113.570925 
L 725.075162 112.303525 
L 728.813712 112.303525 
L 728.813712 111.036125 
L 730.682987 111.036125 
L 730.682987 108.501325 
L 732.552262 108.501325 
L 732.552262 107.233925 
L 734.421537 107.233925 
L 734.421537 105.966525 
L 736.290812 105.966525 
L 736.290812 102.164325 
L 738.160087 102.164325 
L 738.160087 100.896925 
L 745.637187 100.896925 
L 745.637187 99.629525 
L 747.506462 99.629525 
L 747.506462 97.094725 
L 749.375738 97.094725 
L 749.375738 94.559925 
L 753.114288 94.559925 
L 753.114288 93.292525 
L 758.722112 93.292525 
L 758.722112 92.025125 
L 760.591387 92.025125 
L 760.591387 90.757725 
L 762.460663 90.757725 
L 762.460663 89.490325 
L 764.329937 89.490325 
L 764.329937 88.222925 
L 768.068487 88.222925 
L 768.068487 86.955525 
L 773.676312 86.955525 
L 773.676312 85.688125 
L 777.414863 85.688125 
L 777.414863 80.618525 
L 779.284138 80.618525 
L 779.284138 75.548925 
L 781.153412 75.548925 
L 781.153412 74.281525 
L 784.891962 74.281525 
L 784.891962 71.746725 
L 786.761237 71.746725 
L 786.761237 69.211925 
L 790.499787 69.211925 
L 790.499787 67.944525 
L 792.369062 67.944525 
L 792.369062 64.142325 
L 794.238337 64.142325 
L 794.238337 60.340125 
L 796.107612 60.340125 
L 796.107612 59.072725 
L 797.976887 59.072725 
L 797.976887 57.805325 
L 801.715438 57.805325 
L 801.715438 56.537925 
L 805.453988 56.537925 
L 805.453988 55.270525 
L 809.192538 55.270525 
L 809.192538 54.003125 
L 811.061812 54.003125 
L 811.061812 52.735725 
L 812.931087 52.735725 
L 812.931087 48.933525 
L 814.800363 48.933525 
L 814.800363 46.398725 
L 816.669637 46.398725 
L 816.669637 45.131325 
L 818.538912 45.131325 
L 818.538912 43.863925 
L 820.408187 43.863925 
L 820.408187 42.596525 
L 824.146737 42.596525 
L 824.146737 38.794325 
L 826.016012 38.794325 
L 826.016012 36.259525 
L 829.754563 36.259525 
L 829.754563 34.992125 
L 831.623838 34.992125 
L 831.623838 29.922525 
L 833.493113 29.922525 
L 833.493113 27.387725 
L 835.362387 27.387725 
L 835.362387 23.585525 
L 839.100937 23.585525 
L 839.100937 22.318125 
L 839.100937 22.318125 
" clip-path="url(#p7cf8f41fe4)" style="fill: none; stroke: #2c5282; stroke-width: 2; stroke-linecap: square"/>
   </g>
   <g id="line2d_64">
    <path d="M 465.245937 275.798125 
L 839.100937 22.318125 
" clip-path="url(#p7cf8f41fe4)" style="fill: none; stroke-dasharray: 7.4,3.2; stroke-dashoffset: 0; stroke: #ff0000; stroke-width: 2"/>
   </g>
   <g id="patch_27">
    <path d="M 465.245937 275.798125 
L 465.245937 22.318125 
" style="fill: none; stroke: #2d3748; stroke-width: 0.8; stroke-linejoin: miter; stroke-linecap: square"/>
   </g>
   <g id="patch_28">
    <path d="M 465.245937 275.798125 
L 839.100937 275.798125 
" style="fill: none; stroke: #2d3748; stroke-width: 0.8; stroke-linejoin: miter; stroke-linecap: square"/>
   </g>
   <g id="text_37">
    <!-- α ECDF -->
    <g style="fill: #2d3748" transform="translate(630.259375 16.318125) scale(0.12 -0.12)">
     <use xlink:href="#DejaVuSans-3b1"/>
     <use xlink:href="#DejaVuSans-20" transform="translate(65.917969 0)"/>
     <use xlink:href="#DejaVuSans-45" transform="translate(97.705078 0)"/>
     <use xlink:href="#DejaVuSans-43" transform="translate(160.888672 0)"/>
     <use xlink:href="#DejaVuSans-44" transform="translate(230.712891 0)"/>
     <use xlink:href="#DejaVuSans-46" transform="translate(307.714844 0)"/>
    </g>
   </g>
   <g id="legend_2">
    <g id="patch_29">
     <path d="M 471.545937 69.399375 
L 608.386719 69.399375 
Q 610.186719 69.399375 610.186719 67.599375 
L 610.186719 28.618125 
Q 610.186719 26.818125 608.386719 26.818125 
L 471.545937 26.818125 
Q 469.745937 26.818125 469.745937 28.618125 
L 469.745937 67.599375 
Q 469.745937 69.399375 471.545937 69.399375 
z
" style="fill: #ffffff; opacity: 0.9; stroke: #e2e8f0; stroke-linejoin: miter"/>
    </g>
    <g id="line2d_65">
     <path d="M 473.345937 34.106719 
L 482.345937 34.106719 
L 482.345937 34.106719 
L 491.345937 34.106719 
L 491.345937 34.106719 
" style="fill: none; stroke: #2c5282; stroke-width: 2; stroke-linecap: square"/>
    </g>
    <g id="text_38">
     <!-- m_01 -->
     <g style="fill: #2d3748" transform="translate(498.545937 37.256719) scale(0.09 -0.09)">
      <defs>
       <path id="DejaVuSans-5f" d="M 3263 -1063 
L 3263 -1509 
L -63 -1509 
L -63 -1063 
L 3263 -1063 
z
" transform="scale(0.015625)"/>
      </defs>
      <use xlink:href="#DejaVuSans-6d"/>
      <use xlink:href="#DejaVuSans-5f" transform="translate(97.412109 0)"/>
      <use xlink:href="#DejaVuSans-30" transform="translate(147.412109 0)"/>
      <use xlink:href="#DejaVuSans-31" transform="translate(211.035156 0)"/>
     </g>
    </g>
    <g id="line2d_66">
     <path d="M 473.345937 47.567344 
L 482.345937 47.567344 
L 491.345937 47.567344 
" style="fill: none; stroke-dasharray: 7.4,3.2; stroke-dashoffset: 0; stroke: #ff0000; stroke-width: 2"/>
    </g>
    <g id="text_39">
     <!-- Uniform -->
     <g style="fill: #2d3748" transform="translate(498.545937 50.717344) scale(0.09 -0.09)">
      <use xlink:href="#DejaVuSans-55"/>
      <use xlink:href="#DejaVuSans-6e" transform="translate(73.193359 0)"/>
      <use xlink:href="#DejaVuSans-69" transform="translate(136.572266 0)"/>
      <use xlink:href="#DejaVuSans-66" transform="translate(164.355469 0)"/>
      <use xlink:href="#DejaVuSans-6f" transform="translate(199.560547 0)"/>
      <use xlink:href="#DejaVuSans-72" transform="translate(260.742188 0)"/>
      <use xlink:href="#DejaVuSans-6d" transform="translate(300.105469 0)"/>
     </g>
    </g>
    <g id="patch_30">
     <path d="M 473.345937 63.927656 
L 491.345937 63.927656 
L 491.345937 57.627656 
L 473.345937 57.627656 
z
" style="fill: #ff0000; fill-opacity: 0.15; stroke: #ff0000; stroke-opacity: 0.15; stroke-linejoin: miter"/>
    </g>
    <g id="text_40">
     <!-- 95% KS band (ε=0.096) -->
     <g style="fill: #2d3748" transform="translate(498.545937 63.927656) scale(0.09 -0.09)">
      <defs>
       <path id="DejaVuSans-39" d="M 703 97 
L 703 672 
Q 941 559 1184 500 
Q 1428 441 1663 441 
Q 2288 441 2617 861 
Q 2947 1281 2994 2138 
Q 2813 1869 2534 1725 
Q 2256 1581 1919 1581 
Q 1219 1581 811 2004 
Q 403 2428 403 3163 
Q 403 3881 828 4315 
Q 1253 4750 1959 4750 
Q 2769 4750 3195 4129 
Q 3622 3509 3622 2328 
Q 3622 1225 3098 567 
Q 2575 -91 1691 -91 
Q 1453 -91 1209 -44 
Q 966 3 703 97 
z
M 1959 2075 
Q 2384 2075 2632 2365 
Q 2881 2656 2881 3163 
Q 2881 3666 2632 3958 
Q 2384 4250 1959 4250 
Q 1534 4250 1286 3958 
Q 1038 3666 1038 3163 
Q 1038 2656 1286 2365 
Q 1534 2075 1959 2075 
z
" transform="scale(0.015625)"/>
       <path id="DejaVuSans-25" d="M 4653 2053 
Q 4381 2053 4226 1822 
Q 4072 1591 4072 1178 
Q 4072 772 4226 539 
Q 4381 306 4653 306 
Q 4919 306 5073 539 
Q 5228 772 5228 1178 
Q 5228 1588 5073 1820 
Q 4919 2053 4653 2053 
z
M 4653 2450 
Q 5147 2450 5437 2106 
Q 5728 1763 5728 1178 
Q 5728 594 5436 251 
Q 5144 -91 4653 -91 
Q 4153 -91 3862 251 
Q 3572 594 3572 1178 
Q 3572 1766 3864 2108 
Q 4156 2450 4653 2450 
z
M 1428 4353 
Q 1159 4353 1004 4120 
Q 850 3888 850 3481 
Q 850 3069 1003 2837 
Q 1156 2606 1428 2606 
Q 1700 2606 1854 2837 
Q 2009 3069 2009 3481 
Q 2009 3884 1853 4118 
Q 1697 4353 1428 4353 
z
M 4250 4750 
L 4750 4750 
L 1831 -91 
L 1331 -91 
L 4250 4750 
z
M 1428 4750 
Q 1922 4750 2215 4408 
Q 2509 4066 2509 3481 
Q 2509 2891 2217 2550 
Q 1925 2209 1428 2209 
Q 931 2209 642 2551 
Q 353 2894 353 3481 
Q 353 4063 643 4406 
Q 934 4750 1428 4750 
z
" transform="scale(0.015625)"/>
       <path id="DejaVuSans-4b" d="M 628 4666 
L 1259 4666 
L 1259 2694 
L 3353 4666 
L 4166 4666 
L 1850 2491 
L 4331 0 
L 3500 0 
L 1259 2247 
L 1259 0 
L 628 0 
L 628 4666 
z
" transform="scale(0.015625)"/>
       <path id="DejaVuSans-53" d="M 3425 4513 
L 3425 3897 
Q 3066 4069 2747 4153 
Q 2428 4238 2131 4238 
Q 1616 4238 1336 4038 
Q 1056 3838 1056 3469 
Q 1056 3159 1242 3001 
Q 1428 2844 1947 2747 
L 2328 2669 
Q 3034 2534 3370 2195 
Q 3706 1856 3706 1288 
Q 3706 609 3251 259 
Q 2797 -91 1919 -91 
Q 1588 -91 1214 -16 
Q 841 59 441 206 
L 441 856 
Q 825 641 1194 531 
Q 1563 422 1919 422 
Q 2459 422 2753 634 
Q 3047 847 3047 1241 
Q 3047 1584 2836 1778 
Q 2625 1972 2144 2069 
L 1759 2144 
Q 1053 2284 737 2584 
Q 422 2884 422 3419 
Q 422 4038 858 4394 
Q 1294 4750 2059 4750 
Q 2388 4750 2728 4690 
Q 3069 4631 3425 4513 
z
" transform="scale(0.015625)"/>
       <path id="DejaVuSans-62" d="M 3116 1747 
Q 3116 2381 2855 2742 
Q 2594 3103 2138 3103 
Q 1681 3103 1420 2742 
Q 1159 2381 1159 1747 
Q 1159 1113 1420 752 
Q 1681 391 2138 391 
Q 2594 391 2855 752 
Q 3116 1113 3116 1747 
z
M 1159 2969 
Q 1341 3281 1617 3432 
Q 1894 3584 2278 3584 
Q 2916 3584 3314 3078 
Q 3713 2572 3713 1747 
Q 3713 922 3314 415 
Q 2916 -91 2278 -91 
Q 1894 -91 1617 61 
Q 1341 213 1159 525 
L 1159 0 
L 581 0 
L 581 4863 
L 1159 4863 
L 1159 2969 
z
" transform="scale(0.015625)"/>
       <path id="DejaVuSans-3b5" d="M 1234 1888 
Q 884 1963 697 2166 
Q 509 2366 509 2656 
Q 509 3097 866 3344 
Q 1219 3588 1831 3588 
Q 2069 3588 2334 3550 
Q 2600 3513 2906 3438 
L 2906 2916 
Q 2603 3006 2353 3047 
Q 2100 3088 1878 3088 
Q 1506 3088 1291 2944 
Q 1072 2800 1072 2600 
Q 1072 2381 1284 2241 
Q 1494 2103 1856 2103 
L 2341 2103 
L 2341 1628 
L 1878 1628 
Q 1450 1628 1225 1469 
Q 981 1294 981 1019 
Q 981 738 1244 563 
Q 1509 388 1981 388 
Q 2272 388 2538 444 
Q 2803 503 3025 619 
L 3025 84 
Q 2744 -3 2481 -47 
Q 2216 -91 1966 -91 
Q 1222 -91 819 194 
Q 416 478 416 1019 
Q 416 1356 631 1584 
Q 847 1813 1234 1888 
z
" transform="scale(0.015625)"/>
      </defs>
      <use xlink:href="#DejaVuSans-39"/>
      <use xlink:href="#DejaVuSans-35" transform="translate(63.623047 0)"/>
      <use xlink:href="#DejaVuSans-25" transform="translate(127.246094 0)"/>
      <use xlink:href="#DejaVuSans-20" transform="translate(222.265625 0)"/>
      <use xlink:href="#DejaVuSans-4b" transform="translate(254.052734 0)"/>
      <use xlink:href="#DejaVuSans-53" transform="translate(319.628906 0)"/>
      <use xlink:href="#DejaVuSans-20" transform="translate(383.105469 0)"/>
      <use xlink:href="#DejaVuSans-62" transform="translate(414.892578 0)"/>
      <use xlink:href="#DejaVuSans-61" transform="translate(478.369141 0)"/>
      <use xlink:href="#DejaVuSans-6e" transform="translate(539.648438 0)"/>
      <use xlink:href="#DejaVuSans-64" transform="translate(603.027344 0)"/>
      <use xlink:href="#DejaVuSans-20" transform="translate(666.503906 0)"/>
      <use xlink:href="#DejaVuSans-28" transform="translate(698.291016 0)"/>
      <use xlink:href="#DejaVuSans-3b5" transform="translate(737.304688 0)"/>
      <use xlink:href="#DejaVuSans-3d" transform="translate(791.357422 0)"/>
      <use xlink:href="#DejaVuSans-30" transform="translate(875.146484 0)"/>
      <use xlink:href="#DejaVuSans-2e" transform="translate(938.769531 0)"/>
      <use xlink:href="#DejaVuSans-30" transform="translate(970.556641 0)"/>
      <use xlink:href="#DejaVuSans-39" transform="translate(1034.179688 0)"/>
      <use xlink:href="#DejaVuSans-36" transform="translate(1097.802734 0)"/>
      <use xlink:href="#DejaVuSans-29" transform="translate(1161.425781 0)"/>
     </g>
    </g>
   </g>
  </g>
 </g>
 <defs>
  <clipPath id="p87e02bc95b">
   <rect x="41.570938" y="22.318125" width="373.855" height="253.48"/>
  </clipPath>
  <clipPath id="p7cf8f41fe4">
   <rect x="465.245937" y="22.318125" width="373.855" height="253.48"/>
  </clipPath>
 </defs>
</svg>
