<?xml version="1.0" encoding="utf-8" standalone="no"?>
<!DOCTYPE svg PUBLIC "-//W3C//DTD SVG 1.1//EN"
  "http://www.w3.org/Graphics/SVG/1.1/DTD/svg11.dtd">
<svg xmlns:xlink="http://www.w3.org/1999/xlink" width="710.087358pt" height="314.465937pt" viewBox="0 0 710.087358 314.465937" xmlns="http://www.w3.org/2000/svg" version="1.1">
 <metadata>
  <rdf:RDF xmlns:dc="http://purl.org/dc/elements/1.1/" xmlns:cc="http://creativecommons.org/ns#" xmlns:rdf="http://www.w3.org/1999/02/22-rdf-syntax-ns#">
   <cc:Work>
    <dc:type rdf:resource="http://purl.org/dc/dcmitype/StillImage"/>
    <dc:date>2026-03-07T02:26:00.089996</dc:date>
    <dc:format>image/svg+xml</dc:format>
    <dc:creator>
     <cc:Agent>
      <dc:title>Matplotlib v3.10.8, https://matplotlib.org/</dc:title>
     </cc:Agent>
    </dc:creator>
   </cc:Work>
  </rdf:RDF>
 </metadata>
 <defs>
  <style type="text/css">*{stroke-linejoin: round; stroke-linecap: butt}</style>
 </defs>
 <g id="figure_1">
  <g id="patch_1">
   <path d="M 0 314.465937 
L 710.087358 314.465937 
L 710.087358 0 
L 0 0 
z
" style="fill: #ffffff"/>
  </g>
  <g id="axes_1">
   <g id="patch_2">
    <path d="M 44.749063 275.873125 
L 694.515136 275.873125 
L 694.515136 22.393125 
L 44.749063 22.393125 
z
" style="fill: #ffffff"/>
   </g>
   <g id="patch_3">
    <path d="M 74.283884 275.873125 
L 79.216631 275.873125 
L 79.216631 238.178227 
L 74.283884 238.178227 
z
" clip-path="url(#p34c4c508f9)" style="fill: #2c5282; opacity: 0.7; stroke: #ffffff; stroke-linejoin: miter"/>
   </g>
   <g id="patch_4">
    <path d="M 80.449818 275.873125 
L 85.382564 275.873125 
L 85.382564 78.548568 
L 80.449818 78.548568 
z
" clip-path="url(#p34c4c508f9)" style="fill: #2c5282; opacity: 0.7; stroke: #ffffff; stroke-linejoin: miter"/>
   </g>
   <g id="patch_5">
    <path d="M 86.615751 275.873125 
L 91.548498 275.873125 
L 91.548498 36.206052 
L 86.615751 36.206052 
z
" clip-path="url(#p34c4c508f9)" style="fill: #2c5282; opacity: 0.7; stroke: #ffffff; stroke-linejoin: miter"/>
   </g>
   <g id="patch_6">
    <path d="M 92.781685 275.873125 
L 97.714431 275.873125 
L 97.714431 68.233213 
L 92.781685 68.233213 
z
" clip-path="url(#p34c4c508f9)" style="fill: #2c5282; opacity: 0.7; stroke: #ffffff; stroke-linejoin: miter"/>
   </g>
   <g id="patch_7">
    <path d="M 98.947618 275.873125 
L 103.880365 275.873125 
L 103.880365 92.942808 
L 98.947618 92.942808 
z
" clip-path="url(#p34c4c508f9)" style="fill: #2c5282; opacity: 0.7; stroke: #ffffff; stroke-linejoin: miter"/>
   </g>
   <g id="patch_8">
    <path d="M 105.113552 275.873125 
L 110.046298 275.873125 
L 110.046298 213.379363 
L 105.113552 213.379363 
z
" clip-path="url(#p34c4c508f9)" style="fill: #2c5282; opacity: 0.7; stroke: #ffffff; stroke-linejoin: miter"/>
   </g>
   <g id="patch_9">
    <path d="M 111.279485 275.873125 
L 116.212232 275.873125 
L 116.212232 196.145732 
L 111.279485 196.145732 
z
" clip-path="url(#p34c4c508f9)" style="fill: #2c5282; opacity: 0.7; stroke: #ffffff; stroke-linejoin: miter"/>
   </g>
   <g id="patch_10">
    <path d="M 117.445419 275.873125 
L 122.378165 275.873125 
L 122.378165 215.619069 
L 117.445419 215.619069 
z
" clip-path="url(#p34c4c508f9)" style="fill: #2c5282; opacity: 0.7; stroke: #ffffff; stroke-linejoin: miter"/>
   </g>
   <g id="patch_11">
    <path d="M 123.611352 275.873125 
L 128.544099 275.873125 
L 128.544099 45.30055 
L 123.611352 45.30055 
z
" clip-path="url(#p34c4c508f9)" style="fill: #2c5282; opacity: 0.7; stroke: #ffffff; stroke-linejoin: miter"/>
   </g>
   <g id="patch_12">
    <path d="M 129.777286 275.873125 
L 134.710032 275.873125 
L 134.710032 53.308593 
L 129.777286 53.308593 
z
" clip-path="url(#p34c4c508f9)" style="fill: #2c5282; opacity: 0.7; stroke: #ffffff; stroke-linejoin: miter"/>
   </g>
   <g id="patch_13">
    <path d="M 135.943219 275.873125 
L 140.875966 275.873125 
L 140.875966 89.94928 
L 135.943219 89.94928 
z
" clip-path="url(#p34c4c508f9)" style="fill: #2c5282; opacity: 0.7; stroke: #ffffff; stroke-linejoin: miter"/>
   </g>
   <g id="patch_14">
    <path d="M 142.109153 275.873125 
L 147.041899 275.873125 
L 147.041899 261.205547 
L 142.109153 261.205547 
z
" clip-path="url(#p34c4c508f9)" style="fill: #2c5282; opacity: 0.7; stroke: #ffffff; stroke-linejoin: miter"/>
   </g>
   <g id="patch_15">
    <path d="M 148.275086 275.873125 
L 153.207833 275.873125 
L 153.207833 134.864396 
L 148.275086 134.864396 
z
" clip-path="url(#p34c4c508f9)" style="fill: #2c5282; opacity: 0.7; stroke: #ffffff; stroke-linejoin: miter"/>
   </g>
   <g id="patch_16">
    <path d="M 154.44102 275.873125 
L 159.373766 275.873125 
L 159.373766 198.771149 
L 154.44102 198.771149 
z
" clip-path="url(#p34c4c508f9)" style="fill: #2c5282; opacity: 0.7; stroke: #ffffff; stroke-linejoin: miter"/>
   </g>
   <g id="patch_17">
    <path d="M 160.606953 275.873125 
L 165.5397 275.873125 
L 165.5397 229.730138 
L 160.606953 229.730138 
z
" clip-path="url(#p34c4c508f9)" style="fill: #2c5282; opacity: 0.7; stroke: #ffffff; stroke-linejoin: miter"/>
   </g>
   <g id="patch_18">
    <path d="M 166.772887 275.873125 
L 171.705633 275.873125 
L 171.705633 46.723831 
L 166.772887 46.723831 
z
" clip-path="url(#p34c4c508f9)" style="fill: #2c5282; opacity: 0.7; stroke: #ffffff; stroke-linejoin: miter"/>
   </g>
   <g id="patch_19">
    <path d="M 172.93882 275.873125 
L 177.871567 275.873125 
L 177.871567 131.549711 
L 172.93882 131.549711 
z
" clip-path="url(#p34c4c508f9)" style="fill: #2c5282; opacity: 0.7; stroke: #ffffff; stroke-linejoin: miter"/>
   </g>
   <g id="patch_20">
    <path d="M 179.104754 275.873125 
L 184.0375 275.873125 
L 184.0375 258.94269 
L 179.104754 258.94269 
z
" clip-path="url(#p34c4c508f9)" style="fill: #2c5282; opacity: 0.7; stroke: #ffffff; stroke-linejoin: miter"/>
   </g>
   <g id="patch_21">
    <path d="M 185.270687 275.873125 
L 190.203434 275.873125 
L 190.203434 179.331378 
L 185.270687 179.331378 
z
" clip-path="url(#p34c4c508f9)" style="fill: #2c5282; opacity: 0.7; stroke: #ffffff; stroke-linejoin: miter"/>
   </g>
   <g id="patch_22">
    <path d="M 191.436621 275.873125 
L 196.369368 275.873125 
L 196.369368 128.235034 
L 191.436621 128.235034 
z
" clip-path="url(#p34c4c508f9)" style="fill: #2c5282; opacity: 0.7; stroke: #ffffff; stroke-linejoin: miter"/>
   </g>
   <g id="patch_23">
    <path d="M 197.602554 275.873125 
L 202.535301 275.873125 
L 202.535301 148.047751 
L 197.602554 148.047751 
z
" clip-path="url(#p34c4c508f9)" style="fill: #2c5282; opacity: 0.7; stroke: #ffffff; stroke-linejoin: miter"/>
   </g>
   <g id="patch_24">
    <path d="M 203.768488 275.873125 
L 208.701235 275.873125 
L 208.701235 118.330876 
L 203.768488 118.330876 
z
" clip-path="url(#p34c4c508f9)" style="fill: #2c5282; opacity: 0.7; stroke: #ffffff; stroke-linejoin: miter"/>
   </g>
   <g id="patch_25">
    <path d="M 209.934421 275.873125 
L 214.867168 275.873125 
L 214.867168 234.956506 
L 209.934421 234.956506 
z
" clip-path="url(#p34c4c508f9)" style="fill: #2c5282; opacity: 0.7; stroke: #ffffff; stroke-linejoin: miter"/>
   </g>
   <g id="patch_26">
    <path d="M 216.100355 275.873125 
L 221.033102 275.873125 
L 221.033102 92.942808 
L 216.100355 92.942808 
z
" clip-path="url(#p34c4c508f9)" style="fill: #2c5282; opacity: 0.7; stroke: #ffffff; stroke-linejoin: miter"/>
   </g>
   <g id="patch_27">
    <path d="M 222.266288 275.873125 
L 227.199035 275.873125 
L 227.199035 198.771149 
L 222.266288 198.771149 
z
" clip-path="url(#p34c4c508f9)" style="fill: #2c5282; opacity: 0.7; stroke: #ffffff; stroke-linejoin: miter"/>
   </g>
   <g id="patch_28">
    <path d="M 228.432222 275.873125 
L 233.364969 275.873125 
L 233.364969 229.730138 
L 228.432222 229.730138 
z
" clip-path="url(#p34c4c508f9)" style="fill: #2c5282; opacity: 0.7; stroke: #ffffff; stroke-linejoin: miter"/>
   </g>
   <g id="patch_29">
    <path d="M 234.598155 275.873125 
L 239.530902 275.873125 
L 239.530902 131.549711 
L 234.598155 131.549711 
z
" clip-path="url(#p34c4c508f9)" style="fill: #2c5282; opacity: 0.7; stroke: #ffffff; stroke-linejoin: miter"/>
   </g>
   <g id="patch_30">
    <path d="M 240.764089 275.873125 
L 245.696836 275.873125 
L 245.696836 151.306859 
L 240.764089 151.306859 
z
" clip-path="url(#p34c4c508f9)" style="fill: #2c5282; opacity: 0.7; stroke: #ffffff; stroke-linejoin: miter"/>
   </g>
   <g id="patch_31">
    <path d="M 246.930022 275.873125 
L 251.862769 275.873125 
L 251.862769 241.197009 
L 246.930022 241.197009 
z
" clip-path="url(#p34c4c508f9)" style="fill: #2c5282; opacity: 0.7; stroke: #ffffff; stroke-linejoin: miter"/>
   </g>
   <g id="patch_32">
    <path d="M 253.095956 275.873125 
L 258.028703 275.873125 
L 258.028703 105.372355 
L 253.095956 105.372355 
z
" clip-path="url(#p34c4c508f9)" style="fill: #2c5282; opacity: 0.7; stroke: #ffffff; stroke-linejoin: miter"/>
   </g>
   <g id="patch_33">
    <path d="M 259.261889 275.873125 
L 264.194636 275.873125 
L 264.194636 105.372355 
L 259.261889 105.372355 
z
" clip-path="url(#p34c4c508f9)" style="fill: #2c5282; opacity: 0.7; stroke: #ffffff; stroke-linejoin: miter"/>
   </g>
   <g id="patch_34">
    <path d="M 265.427823 275.873125 
L 270.36057 275.873125 
L 270.36057 42.715144 
L 265.427823 42.715144 
z
" clip-path="url(#p34c4c508f9)" style="fill: #2c5282; opacity: 0.7; stroke: #ffffff; stroke-linejoin: miter"/>
   </g>
   <g id="patch_35">
    <path d="M 271.593756 275.873125 
L 276.526503 275.873125 
L 276.526503 95.985955 
L 271.593756 95.985955 
z
" clip-path="url(#p34c4c508f9)" style="fill: #2c5282; opacity: 0.7; stroke: #ffffff; stroke-linejoin: miter"/>
   </g>
   <g id="patch_36">
    <path d="M 277.75969 275.873125 
L 282.692437 275.873125 
L 282.692437 203.860948 
L 277.75969 203.860948 
z
" clip-path="url(#p34c4c508f9)" style="fill: #2c5282; opacity: 0.7; stroke: #ffffff; stroke-linejoin: miter"/>
   </g>
   <g id="patch_37">
    <path d="M 283.925623 275.873125 
L 288.85837 275.873125 
L 288.85837 108.572926 
L 283.925623 108.572926 
z
" clip-path="url(#p34c4c508f9)" style="fill: #2c5282; opacity: 0.7; stroke: #ffffff; stroke-linejoin: miter"/>
   </g>
   <g id="patch_38">
    <path d="M 290.091557 275.873125 
L 295.024304 275.873125 
L 295.024304 157.757723 
L 290.091557 157.757723 
z
" clip-path="url(#p34c4c508f9)" style="fill: #2c5282; opacity: 0.7; stroke: #ffffff; stroke-linejoin: miter"/>
   </g>
   <g id="patch_39">
    <path d="M 296.25749 275.873125 
L 301.190237 275.873125 
L 301.190237 78.548568 
L 296.25749 78.548568 
z
" clip-path="url(#p34c4c508f9)" style="fill: #2c5282; opacity: 0.7; stroke: #ffffff; stroke-linejoin: miter"/>
   </g>
   <g id="patch_40">
    <path d="M 302.423424 275.873125 
L 307.356171 275.873125 
L 307.356171 167.220951 
L 302.423424 167.220951 
z
" clip-path="url(#p34c4c508f9)" style="fill: #2c5282; opacity: 0.7; stroke: #ffffff; stroke-linejoin: miter"/>
   </g>
   <g id="patch_41">
    <path d="M 308.589357 275.873125 
L 313.522104 275.873125 
L 313.522104 148.047751 
L 308.589357 148.047751 
z
" clip-path="url(#p34c4c508f9)" style="fill: #2c5282; opacity: 0.7; stroke: #ffffff; stroke-linejoin: miter"/>
   </g>
   <g id="patch_42">
    <path d="M 314.755291 275.873125 
L 319.688038 275.873125 
L 319.688038 176.36502 
L 314.755291 176.36502 
z
" clip-path="url(#p34c4c508f9)" style="fill: #2c5282; opacity: 0.7; stroke: #ffffff; stroke-linejoin: miter"/>
   </g>
   <g id="patch_43">
    <path d="M 320.921224 275.873125 
L 325.853971 275.873125 
L 325.853971 111.802355 
L 320.921224 111.802355 
z
" clip-path="url(#p34c4c508f9)" style="fill: #2c5282; opacity: 0.7; stroke: #ffffff; stroke-linejoin: miter"/>
   </g>
   <g id="patch_44">
    <path d="M 327.087158 275.873125 
L 332.019905 275.873125 
L 332.019905 87.009321 
L 327.087158 87.009321 
z
" clip-path="url(#p34c4c508f9)" style="fill: #2c5282; opacity: 0.7; stroke: #ffffff; stroke-linejoin: miter"/>
   </g>
   <g id="patch_45">
    <path d="M 333.253091 275.873125 
L 338.185838 275.873125 
L 338.185838 187.958607 
L 333.253091 187.958607 
z
" clip-path="url(#p34c4c508f9)" style="fill: #2c5282; opacity: 0.7; stroke: #ffffff; stroke-linejoin: miter"/>
   </g>
   <g id="patch_46">
    <path d="M 339.419025 275.873125 
L 344.351772 275.873125 
L 344.351772 157.757723 
L 339.419025 157.757723 
z
" clip-path="url(#p34c4c508f9)" style="fill: #2c5282; opacity: 0.7; stroke: #ffffff; stroke-linejoin: miter"/>
   </g>
   <g id="patch_47">
    <path d="M 345.584958 275.873125 
L 350.517705 275.873125 
L 350.517705 144.770493 
L 345.584958 144.770493 
z
" clip-path="url(#p34c4c508f9)" style="fill: #2c5282; opacity: 0.7; stroke: #ffffff; stroke-linejoin: miter"/>
   </g>
   <g id="patch_48">
    <path d="M 351.750892 275.873125 
L 356.683639 275.873125 
L 356.683639 193.467789 
L 351.750892 193.467789 
z
" clip-path="url(#p34c4c508f9)" style="fill: #2c5282; opacity: 0.7; stroke: #ffffff; stroke-linejoin: miter"/>
   </g>
   <g id="patch_49">
    <path d="M 357.916825 275.873125 
L 362.849572 275.873125 
L 362.849572 249.106494 
L 357.916825 249.106494 
z
" clip-path="url(#p34c4c508f9)" style="fill: #2c5282; opacity: 0.7; stroke: #ffffff; stroke-linejoin: miter"/>
   </g>
   <g id="patch_50">
    <path d="M 364.082759 275.873125 
L 369.015506 275.873125 
L 369.015506 105.372355 
L 364.082759 105.372355 
z
" clip-path="url(#p34c4c508f9)" style="fill: #2c5282; opacity: 0.7; stroke: #ffffff; stroke-linejoin: miter"/>
   </g>
   <g id="patch_51">
    <path d="M 370.248692 275.873125 
L 375.181439 275.873125 
L 375.181439 208.731567 
L 370.248692 208.731567 
z
" clip-path="url(#p34c4c508f9)" style="fill: #2c5282; opacity: 0.7; stroke: #ffffff; stroke-linejoin: miter"/>
   </g>
   <g id="patch_52">
    <path d="M 376.414626 275.873125 
L 381.347373 275.873125 
L 381.347373 258.124024 
L 376.414626 258.124024 
z
" clip-path="url(#p34c4c508f9)" style="fill: #2c5282; opacity: 0.7; stroke: #ffffff; stroke-linejoin: miter"/>
   </g>
   <g id="patch_53">
    <path d="M 382.580559 275.873125 
L 387.513306 275.873125 
L 387.513306 108.572926 
L 382.580559 108.572926 
z
" clip-path="url(#p34c4c508f9)" style="fill: #2c5282; opacity: 0.7; stroke: #ffffff; stroke-linejoin: miter"/>
   </g>
   <g id="patch_54">
    <path d="M 388.746493 275.873125 
L 393.67924 275.873125 
L 393.67924 55.179049 
L 388.746493 55.179049 
z
" clip-path="url(#p34c4c508f9)" style="fill: #2c5282; opacity: 0.7; stroke: #ffffff; stroke-linejoin: miter"/>
   </g>
   <g id="patch_55">
    <path d="M 394.912427 275.873125 
L 399.845173 275.873125 
L 399.845173 134.864396 
L 394.912427 134.864396 
z
" clip-path="url(#p34c4c508f9)" style="fill: #2c5282; opacity: 0.7; stroke: #ffffff; stroke-linejoin: miter"/>
   </g>
   <g id="patch_56">
    <path d="M 401.07836 275.873125 
L 406.011107 275.873125 
L 406.011107 157.757723 
L 401.07836 157.757723 
z
" clip-path="url(#p34c4c508f9)" style="fill: #2c5282; opacity: 0.7; stroke: #ffffff; stroke-linejoin: miter"/>
   </g>
   <g id="patch_57">
    <path d="M 407.244294 275.873125 
L 412.17704 275.873125 
L 412.17704 115.056412 
L 407.244294 115.056412 
z
" clip-path="url(#p34c4c508f9)" style="fill: #2c5282; opacity: 0.7; stroke: #ffffff; stroke-linejoin: miter"/>
   </g>
   <g id="patch_58">
    <path d="M 413.410227 275.873125 
L 418.342974 275.873125 
L 418.342974 157.757723 
L 413.410227 157.757723 
z
" clip-path="url(#p34c4c508f9)" style="fill: #2c5282; opacity: 0.7; stroke: #ffffff; stroke-linejoin: miter"/>
   </g>
   <g id="patch_59">
    <path d="M 419.576161 275.873125 
L 424.508907 275.873125 
L 424.508907 92.942808 
L 419.576161 92.942808 
z
" clip-path="url(#p34c4c508f9)" style="fill: #2c5282; opacity: 0.7; stroke: #ffffff; stroke-linejoin: miter"/>
   </g>
   <g id="patch_60">
    <path d="M 425.742094 275.873125 
L 430.674841 275.873125 
L 430.674841 239.712572 
L 425.742094 239.712572 
z
" clip-path="url(#p34c4c508f9)" style="fill: #2c5282; opacity: 0.7; stroke: #ffffff; stroke-linejoin: miter"/>
   </g>
   <g id="patch_61">
    <path d="M 431.908028 275.873125 
L 436.840774 275.873125 
L 436.840774 219.92976 
L 431.908028 219.92976 
z
" clip-path="url(#p34c4c508f9)" style="fill: #2c5282; opacity: 0.7; stroke: #ffffff; stroke-linejoin: miter"/>
   </g>
   <g id="patch_62">
    <path d="M 438.073961 275.873125 
L 443.006708 275.873125 
L 443.006708 213.379363 
L 438.073961 213.379363 
z
" clip-path="url(#p34c4c508f9)" style="fill: #2c5282; opacity: 0.7; stroke: #ffffff; stroke-linejoin: miter"/>
   </g>
   <g id="patch_63">
    <path d="M 444.239895 275.873125 
L 449.172641 275.873125 
L 449.172641 45.30055 
L 444.239895 45.30055 
z
" clip-path="url(#p34c4c508f9)" style="fill: #2c5282; opacity: 0.7; stroke: #ffffff; stroke-linejoin: miter"/>
   </g>
   <g id="patch_64">
    <path d="M 450.405828 275.873125 
L 455.338575 275.873125 
L 455.338575 102.204871 
L 450.405828 102.204871 
z
" clip-path="url(#p34c4c508f9)" style="fill: #2c5282; opacity: 0.7; stroke: #ffffff; stroke-linejoin: miter"/>
   </g>
   <g id="patch_65">
    <path d="M 456.571762 275.873125 
L 461.504508 275.873125 
L 461.504508 170.307659 
L 456.571762 170.307659 
z
" clip-path="url(#p34c4c508f9)" style="fill: #2c5282; opacity: 0.7; stroke: #ffffff; stroke-linejoin: miter"/>
   </g>
   <g id="patch_66">
    <path d="M 462.737695 275.873125 
L 467.670442 275.873125 
L 467.670442 95.985955 
L 462.737695 95.985955 
z
" clip-path="url(#p34c4c508f9)" style="fill: #2c5282; opacity: 0.7; stroke: #ffffff; stroke-linejoin: miter"/>
   </g>
   <g id="patch_67">
    <path d="M 468.903629 275.873125 
L 473.836375 275.873125 
L 473.836375 92.942808 
L 468.903629 92.942808 
z
" clip-path="url(#p34c4c508f9)" style="fill: #2c5282; opacity: 0.7; stroke: #ffffff; stroke-linejoin: miter"/>
   </g>
   <g id="patch_68">
    <path d="M 475.069562 275.873125 
L 480.002309 275.873125 
L 480.002309 206.323928 
L 475.069562 206.323928 
z
" clip-path="url(#p34c4c508f9)" style="fill: #2c5282; opacity: 0.7; stroke: #ffffff; stroke-linejoin: miter"/>
   </g>
   <g id="patch_69">
    <path d="M 481.235496 275.873125 
L 486.168242 275.873125 
L 486.168242 190.738356 
L 481.235496 190.738356 
z
" clip-path="url(#p34c4c508f9)" style="fill: #2c5282; opacity: 0.7; stroke: #ffffff; stroke-linejoin: miter"/>
   </g>
   <g id="patch_70">
    <path d="M 487.401429 275.873125 
L 492.334176 275.873125 
L 492.334176 75.859871 
L 487.401429 75.859871 
z
" clip-path="url(#p34c4c508f9)" style="fill: #2c5282; opacity: 0.7; stroke: #ffffff; stroke-linejoin: miter"/>
   </g>
   <g id="patch_71">
    <path d="M 493.567363 275.873125 
L 498.500109 275.873125 
L 498.500109 238.178227 
L 493.567363 238.178227 
z
" clip-path="url(#p34c4c508f9)" style="fill: #2c5282; opacity: 0.7; stroke: #ffffff; stroke-linejoin: miter"/>
   </g>
   <g id="patch_72">
    <path d="M 499.733296 275.873125 
L 504.666043 275.873125 
L 504.666043 124.924309 
L 499.733296 124.924309 
z
" clip-path="url(#p34c4c508f9)" style="fill: #2c5282; opacity: 0.7; stroke: #ffffff; stroke-linejoin: miter"/>
   </g>
   <g id="patch_73">
    <path d="M 505.89923 275.873125 
L 510.831977 275.873125 
L 510.831977 261.205547 
L 505.89923 261.205547 
z
" clip-path="url(#p34c4c508f9)" style="fill: #2c5282; opacity: 0.7; stroke: #ffffff; stroke-linejoin: miter"/>
   </g>
   <g id="patch_74">
    <path d="M 512.065163 275.873125 
L 516.99791 275.873125 
L 516.99791 249.106494 
L 512.065163 249.106494 
z
" clip-path="url(#p34c4c508f9)" style="fill: #2c5282; opacity: 0.7; stroke: #ffffff; stroke-linejoin: miter"/>
   </g>
   <g id="patch_75">
    <path d="M 518.231097 275.873125 
L 523.163844 275.873125 
L 523.163844 42.715144 
L 518.231097 42.715144 
z
" clip-path="url(#p34c4c508f9)" style="fill: #2c5282; opacity: 0.7; stroke: #ffffff; stroke-linejoin: miter"/>
   </g>
   <g id="patch_76">
    <path d="M 524.39703 275.873125 
L 529.329777 275.873125 
L 529.329777 160.943375 
L 524.39703 160.943375 
z
" clip-path="url(#p34c4c508f9)" style="fill: #2c5282; opacity: 0.7; stroke: #ffffff; stroke-linejoin: miter"/>
   </g>
   <g id="patch_77">
    <path d="M 530.562964 275.873125 
L 535.495711 275.873125 
L 535.495711 255.460579 
L 530.562964 255.460579 
z
" clip-path="url(#p34c4c508f9)" style="fill: #2c5282; opacity: 0.7; stroke: #ffffff; stroke-linejoin: miter"/>
   </g>
   <g id="patch_78">
    <path d="M 536.728897 275.873125 
L 541.661644 275.873125 
L 541.661644 87.009321 
L 536.728897 87.009321 
z
" clip-path="url(#p34c4c508f9)" style="fill: #2c5282; opacity: 0.7; stroke: #ffffff; stroke-linejoin: miter"/>
   </g>
   <g id="patch_79">
    <path d="M 542.894831 275.873125 
L 547.827578 275.873125 
L 547.827578 75.859871 
L 542.894831 75.859871 
z
" clip-path="url(#p34c4c508f9)" style="fill: #2c5282; opacity: 0.7; stroke: #ffffff; stroke-linejoin: miter"/>
   </g>
   <g id="patch_80">
    <path d="M 549.060764 275.873125 
L 553.993511 275.873125 
L 553.993511 34.463601 
L 549.060764 34.463601 
z
" clip-path="url(#p34c4c508f9)" style="fill: #2c5282; opacity: 0.7; stroke: #ffffff; stroke-linejoin: miter"/>
   </g>
   <g id="patch_81">
    <path d="M 555.226698 275.873125 
L 560.159445 275.873125 
L 560.159445 255.460579 
L 555.226698 255.460579 
z
" clip-path="url(#p34c4c508f9)" style="fill: #2c5282; opacity: 0.7; stroke: #ffffff; stroke-linejoin: miter"/>
   </g>
   <g id="patch_82">
    <path d="M 561.392631 275.873125 
L 566.325378 275.873125 
L 566.325378 36.206052 
L 561.392631 36.206052 
z
" clip-path="url(#p34c4c508f9)" style="fill: #2c5282; opacity: 0.7; stroke: #ffffff; stroke-linejoin: miter"/>
   </g>
   <g id="patch_83">
    <path d="M 567.558565 275.873125 
L 572.491312 275.873125 
L 572.491312 151.306859 
L 567.558565 151.306859 
z
" clip-path="url(#p34c4c508f9)" style="fill: #2c5282; opacity: 0.7; stroke: #ffffff; stroke-linejoin: miter"/>
   </g>
   <g id="patch_84">
    <path d="M 573.724498 275.873125 
L 578.657245 275.873125 
L 578.657245 157.757723 
L 573.724498 157.757723 
z
" clip-path="url(#p34c4c508f9)" style="fill: #2c5282; opacity: 0.7; stroke: #ffffff; stroke-linejoin: miter"/>
   </g>
   <g id="patch_85">
    <path d="M 579.890432 275.873125 
L 584.823179 275.873125 
L 584.823179 78.548568 
L 579.890432 78.548568 
z
" clip-path="url(#p34c4c508f9)" style="fill: #2c5282; opacity: 0.7; stroke: #ffffff; stroke-linejoin: miter"/>
   </g>
   <g id="patch_86">
    <path d="M 586.056365 275.873125 
L 590.989112 275.873125 
L 590.989112 84.126769 
L 586.056365 84.126769 
z
" clip-path="url(#p34c4c508f9)" style="fill: #2c5282; opacity: 0.7; stroke: #ffffff; stroke-linejoin: miter"/>
   </g>
   <g id="patch_87">
    <path d="M 592.222299 275.873125 
L 597.155046 275.873125 
L 597.155046 206.323928 
L 592.222299 206.323928 
z
" clip-path="url(#p34c4c508f9)" style="fill: #2c5282; opacity: 0.7; stroke: #ffffff; stroke-linejoin: miter"/>
   </g>
   <g id="patch_88">
    <path d="M 598.388232 275.873125 
L 603.320979 275.873125 
L 603.320979 63.542144 
L 598.388232 63.542144 
z
" clip-path="url(#p34c4c508f9)" style="fill: #2c5282; opacity: 0.7; stroke: #ffffff; stroke-linejoin: miter"/>
   </g>
   <g id="patch_89">
    <path d="M 604.554166 275.873125 
L 609.486913 275.873125 
L 609.486913 219.92976 
L 604.554166 219.92976 
z
" clip-path="url(#p34c4c508f9)" style="fill: #2c5282; opacity: 0.7; stroke: #ffffff; stroke-linejoin: miter"/>
   </g>
   <g id="patch_90">
    <path d="M 610.720099 275.873125 
L 615.652846 275.873125 
L 615.652846 273.432749 
L 610.720099 273.432749 
z
" clip-path="url(#p34c4c508f9)" style="fill: #ed8936; opacity: 0.7; stroke: #ffffff; stroke-linejoin: miter"/>
   </g>
   <g id="patch_91">
    <path d="M 616.886033 275.873125 
L 621.81878 275.873125 
L 621.81878 151.306859 
L 616.886033 151.306859 
z
" clip-path="url(#p34c4c508f9)" style="fill: #2c5282; opacity: 0.7; stroke: #ffffff; stroke-linejoin: miter"/>
   </g>
   <g id="patch_92">
    <path d="M 623.051966 275.873125 
L 627.984713 275.873125 
L 627.984713 49.836862 
L 623.051966 49.836862 
z
" clip-path="url(#p34c4c508f9)" style="fill: #2c5282; opacity: 0.7; stroke: #ffffff; stroke-linejoin: miter"/>
   </g>
   <g id="patch_93">
    <path d="M 629.2179 275.873125 
L 634.150647 275.873125 
L 634.150647 131.549711 
L 629.2179 131.549711 
z
" clip-path="url(#p34c4c508f9)" style="fill: #2c5282; opacity: 0.7; stroke: #ffffff; stroke-linejoin: miter"/>
   </g>
   <g id="patch_94">
    <path d="M 635.383833 275.873125 
L 640.31658 275.873125 
L 640.31658 92.942808 
L 635.383833 92.942808 
z
" clip-path="url(#p34c4c508f9)" style="fill: #2c5282; opacity: 0.7; stroke: #ffffff; stroke-linejoin: miter"/>
   </g>
   <g id="patch_95">
    <path d="M 641.549767 275.873125 
L 646.482514 275.873125 
L 646.482514 141.478482 
L 641.549767 141.478482 
z
" clip-path="url(#p34c4c508f9)" style="fill: #2c5282; opacity: 0.7; stroke: #ffffff; stroke-linejoin: miter"/>
   </g>
   <g id="patch_96">
    <path d="M 647.7157 275.873125 
L 652.648447 275.873125 
L 652.648447 73.242448 
L 647.7157 73.242448 
z
" clip-path="url(#p34c4c508f9)" style="fill: #2c5282; opacity: 0.7; stroke: #ffffff; stroke-linejoin: miter"/>
   </g>
   <g id="patch_97">
    <path d="M 653.881634 275.873125 
L 658.814381 275.873125 
L 658.814381 252.464139 
L 653.881634 252.464139 
z
" clip-path="url(#p34c4c508f9)" style="fill: #2c5282; opacity: 0.7; stroke: #ffffff; stroke-linejoin: miter"/>
   </g>
   <g id="patch_98">
    <path d="M 660.047567 275.873125 
L 664.980314 275.873125 
L 664.980314 203.860948 
L 660.047567 203.860948 
z
" clip-path="url(#p34c4c508f9)" style="fill: #2c5282; opacity: 0.7; stroke: #ffffff; stroke-linejoin: miter"/>
   </g>
   <g id="matplotlib.axis_1">
    <g id="xtick_1">
     <g id="line2d_1">
      <path d="M 76.750257 275.873125 
L 76.750257 22.393125 
" clip-path="url(#p34c4c508f9)" style="fill: none; stroke: #e2e8f0; stroke-opacity: 0.5; stroke-width: 0.5; stroke-linecap: square"/>
     </g>
     <g id="line2d_2">
      <defs>
       <path id="m47a2ce6a42" d="M 0 0 
L 0 3.5 
" style="stroke: #2d3748; stroke-width: 0.8"/>
      </defs>
      <g>
       <use xlink:href="#m47a2ce6a42" x="76.750257" y="275.873125" style="fill: #2d3748; stroke: #2d3748; stroke-width: 0.8"/>
      </g>
     </g>
     <g id="text_1">
      <!-- 0 -->
      <g style="fill: #2d3748" transform="translate(73.569007 290.471563) scale(0.1 -0.1)">
       <defs>
        <path id="DejaVuSans-30" d="M 2034 4250 
Q 1547 4250 1301 3770 
Q 1056 3291 1056 2328 
Q 1056 1369 1301 889 
Q 1547 409 2034 409 
Q 2525 409 2770 889 
Q 3016 1369 3016 2328 
Q 3016 3291 2770 3770 
Q 2525 4250 2034 4250 
z
M 2034 4750 
Q 2819 4750 3233 4129 
Q 3647 3509 3647 2328 
Q 3647 1150 3233 529 
Q 2819 -91 2034 -91 
Q 1250 -91 836 529 
Q 422 1150 422 2328 
Q 422 3509 836 4129 
Q 1250 4750 2034 4750 
z
" transform="scale(0.015625)"/>
       </defs>
       <use xlink:href="#DejaVuSans-30"/>
      </g>
     </g>
    </g>
    <g id="xtick_2">
     <g id="line2d_3">
      <path d="M 200.068928 275.873125 
L 200.068928 22.393125 
" clip-path="url(#p34c4c508f9)" style="fill: none; stroke: #e2e8f0; stroke-opacity: 0.5; stroke-width: 0.5; stroke-linecap: square"/>
     </g>
     <g id="line2d_4">
      <g>
       <use xlink:href="#m47a2ce6a42" x="200.068928" y="275.873125" style="fill: #2d3748; stroke: #2d3748; stroke-width: 0.8"/>
      </g>
     </g>
     <g id="text_2">
      <!-- 20 -->
      <g style="fill: #2d3748" transform="translate(193.706428 290.471563) scale(0.1 -0.1)">
       <defs>
        <path id="DejaVuSans-32" d="M 1228 531 
L 3431 531 
L 3431 0 
L 469 0 
L 469 531 
Q 828 903 1448 1529 
Q 2069 2156 2228 2338 
Q 2531 2678 2651 2914 
Q 2772 3150 2772 3378 
Q 2772 3750 2511 3984 
Q 2250 4219 1831 4219 
Q 1534 4219 1204 4116 
Q 875 4013 500 3803 
L 500 4441 
Q 881 4594 1212 4672 
Q 1544 4750 1819 4750 
Q 2544 4750 2975 4387 
Q 3406 4025 3406 3419 
Q 3406 3131 3298 2873 
Q 3191 2616 2906 2266 
Q 2828 2175 2409 1742 
Q 1991 1309 1228 531 
z
" transform="scale(0.015625)"/>
       </defs>
       <use xlink:href="#DejaVuSans-32"/>
       <use xlink:href="#DejaVuSans-30" transform="translate(63.623047 0)"/>
      </g>
     </g>
    </g>
    <g id="xtick_3">
     <g id="line2d_5">
      <path d="M 323.387598 275.873125 
L 323.387598 22.393125 
" clip-path="url(#p34c4c508f9)" style="fill: none; stroke: #e2e8f0; stroke-opacity: 0.5; stroke-width: 0.5; stroke-linecap: square"/>
     </g>
     <g id="line2d_6">
      <g>
       <use xlink:href="#m47a2ce6a42" x="323.387598" y="275.873125" style="fill: #2d3748; stroke: #2d3748; stroke-width: 0.8"/>
      </g>
     </g>
     <g id="text_3">
      <!-- 40 -->
      <g style="fill: #2d3748" transform="translate(317.025098 290.471563) scale(0.1 -0.1)">
       <defs>
        <path id="DejaVuSans-34" d="M 2419 4116 
L 825 1625 
L 2419 1625 
L 2419 4116 
z
M 2253 4666 
L 3047 4666 
L 3047 1625 
L 3713 1625 
L 3713 1100 
L 3047 1100 
L 3047 0 
L 2419 0 
L 2419 1100 
L 313 1100 
L 313 1709 
L 2253 4666 
z
" transform="scale(0.015625)"/>
       </defs>
       <use xlink:href="#DejaVuSans-34"/>
       <use xlink:href="#DejaVuSans-30" transform="translate(63.623047 0)"/>
      </g>
     </g>
    </g>
    <g id="xtick_4">
     <g id="line2d_7">
      <path d="M 446.706268 275.873125 
L 446.706268 22.393125 
" clip-path="url(#p34c4c508f9)" style="fill: none; stroke: #e2e8f0; stroke-opacity: 0.5; stroke-width: 0.5; stroke-linecap: square"/>
     </g>
     <g id="line2d_8">
      <g>
       <use xlink:href="#m47a2ce6a42" x="446.706268" y="275.873125" style="fill: #2d3748; stroke: #2d3748; stroke-width: 0.8"/>
      </g>
     </g>
     <g id="text_4">
      <!-- 60 -->
      <g style="fill: #2d3748" transform="translate(440.343768 290.471563) scale(0.1 -0.1)">
       <defs>
        <path id="DejaVuSans-36" d="M 2113 2584 
Q 1688 2584 1439 2293 
Q 1191 2003 1191 1497 
Q 1191 994 1439 701 
Q 1688 409 2113 409 
Q 2538 409 2786 701 
Q 3034 994 3034 1497 
Q 3034 2003 2786 2293 
Q 2538 2584 2113 2584 
z
M 3366 4563 
L 3366 3988 
Q 3128 4100 2886 4159 
Q 2644 4219 2406 4219 
Q 1781 4219 1451 3797 
Q 1122 3375 1075 2522 
Q 1259 2794 1537 2939 
Q 1816 3084 2150 3084 
Q 2853 3084 3261 2657 
Q 3669 2231 3669 1497 
Q 3669 778 3244 343 
Q 2819 -91 2113 -91 
Q 1303 -91 875 529 
Q 447 1150 447 2328 
Q 447 3434 972 4092 
Q 1497 4750 2381 4750 
Q 2619 4750 2861 4703 
Q 3103 4656 3366 4563 
z
" transform="scale(0.015625)"/>
       </defs>
       <use xlink:href="#DejaVuSans-36"/>
       <use xlink:href="#DejaVuSans-30" transform="translate(63.623047 0)"/>
      </g>
     </g>
    </g>
    <g id="xtick_5">
     <g id="line2d_9">
      <path d="M 570.024938 275.873125 
L 570.024938 22.393125 
" clip-path="url(#p34c4c508f9)" style="fill: none; stroke: #e2e8f0; stroke-opacity: 0.5; stroke-width: 0.5; stroke-linecap: square"/>
     </g>
     <g id="line2d_10">
      <g>
       <use xlink:href="#m47a2ce6a42" x="570.024938" y="275.873125" style="fill: #2d3748; stroke: #2d3748; stroke-width: 0.8"/>
      </g>
     </g>
     <g id="text_5">
      <!-- 80 -->
      <g style="fill: #2d3748" transform="translate(563.662438 290.471563) scale(0.1 -0.1)">
       <defs>
        <path id="DejaVuSans-38" d="M 2034 2216 
Q 1584 2216 1326 1975 
Q 1069 1734 1069 1313 
Q 1069 891 1326 650 
Q 1584 409 2034 409 
Q 2484 409 2743 651 
Q 3003 894 3003 1313 
Q 3003 1734 2745 1975 
Q 2488 2216 2034 2216 
z
M 1403 2484 
Q 997 2584 770 2862 
Q 544 3141 544 3541 
Q 544 4100 942 4425 
Q 1341 4750 2034 4750 
Q 2731 4750 3128 4425 
Q 3525 4100 3525 3541 
Q 3525 3141 3298 2862 
Q 3072 2584 2669 2484 
Q 3125 2378 3379 2068 
Q 3634 1759 3634 1313 
Q 3634 634 3220 271 
Q 2806 -91 2034 -91 
Q 1263 -91 848 271 
Q 434 634 434 1313 
Q 434 1759 690 2068 
Q 947 2378 1403 2484 
z
M 1172 3481 
Q 1172 3119 1398 2916 
Q 1625 2713 2034 2713 
Q 2441 2713 2670 2916 
Q 2900 3119 2900 3481 
Q 2900 3844 2670 4047 
Q 2441 4250 2034 4250 
Q 1625 4250 1398 4047 
Q 1172 3844 1172 3481 
z
" transform="scale(0.015625)"/>
       </defs>
       <use xlink:href="#DejaVuSans-38"/>
       <use xlink:href="#DejaVuSans-30" transform="translate(63.623047 0)"/>
      </g>
     </g>
    </g>
    <g id="xtick_6">
     <g id="line2d_11">
      <path d="M 693.343608 275.873125 
L 693.343608 22.393125 
" clip-path="url(#p34c4c508f9)" style="fill: none; stroke: #e2e8f0; stroke-opacity: 0.5; stroke-width: 0.5; stroke-linecap: square"/>
     </g>
     <g id="line2d_12">
      <g>
       <use xlink:href="#m47a2ce6a42" x="693.343608" y="275.873125" style="fill: #2d3748; stroke: #2d3748; stroke-width: 0.8"/>
      </g>
     </g>
     <g id="text_6">
      <!-- 100 -->
      <g style="fill: #2d3748" transform="translate(683.799858 290.471563) scale(0.1 -0.1)">
       <defs>
        <path id="DejaVuSans-31" d="M 794 531 
L 1825 531 
L 1825 4091 
L 703 3866 
L 703 4441 
L 1819 4666 
L 2450 4666 
L 2450 531 
L 3481 531 
L 3481 0 
L 794 0 
L 794 531 
z
" transform="scale(0.015625)"/>
       </defs>
       <use xlink:href="#DejaVuSans-31"/>
       <use xlink:href="#DejaVuSans-30" transform="translate(63.623047 0)"/>
       <use xlink:href="#DejaVuSans-30" transform="translate(127.246094 0)"/>
      </g>
     </g>
    </g>
    <g id="text_7">
     <!-- β Parameter Index -->
     <g style="fill: #2d3748" transform="translate(318.869677 304.978281) scale(0.11 -0.11)">
      <defs>
       <path id="DejaVuSans-3b2" d="M 1178 216 
L 1178 -1331 
L 600 -1331 
L 600 3478 
Q 600 4903 1931 4903 
Q 3288 4903 3288 3700 
Q 3288 2844 2750 2531 
Q 3625 2250 3625 1416 
Q 3625 -66 2119 -66 
Q 1456 -66 1178 216 
z
M 1178 966 
Q 1525 425 2141 425 
Q 3041 425 3041 1406 
Q 3041 2288 1591 2219 
L 1591 2750 
Q 2725 2750 2725 3750 
Q 2725 4434 1994 4434 
Q 1178 4434 1178 3459 
L 1178 966 
z
" transform="scale(0.015625)"/>
       <path id="DejaVuSans-20" transform="scale(0.015625)"/>
       <path id="DejaVuSans-50" d="M 1259 4147 
L 1259 2394 
L 2053 2394 
Q 2494 2394 2734 2622 
Q 2975 2850 2975 3272 
Q 2975 3691 2734 3919 
Q 2494 4147 2053 4147 
L 1259 4147 
z
M 628 4666 
L 2053 4666 
Q 2838 4666 3239 4311 
Q 3641 3956 3641 3272 
Q 3641 2581 3239 2228 
Q 2838 1875 2053 1875 
L 1259 1875 
L 1259 0 
L 628 0 
L 628 4666 
z
" transform="scale(0.015625)"/>
       <path id="DejaVuSans-61" d="M 2194 1759 
Q 1497 1759 1228 1600 
Q 959 1441 959 1056 
Q 959 750 1161 570 
Q 1363 391 1709 391 
Q 2188 391 2477 730 
Q 2766 1069 2766 1631 
L 2766 1759 
L 2194 1759 
z
M 3341 1997 
L 3341 0 
L 2766 0 
L 2766 531 
Q 2569 213 2275 61 
Q 1981 -91 1556 -91 
Q 1019 -91 701 211 
Q 384 513 384 1019 
Q 384 1609 779 1909 
Q 1175 2209 1959 2209 
L 2766 2209 
L 2766 2266 
Q 2766 2663 2505 2880 
Q 2244 3097 1772 3097 
Q 1472 3097 1187 3025 
Q 903 2953 641 2809 
L 641 3341 
Q 956 3463 1253 3523 
Q 1550 3584 1831 3584 
Q 2591 3584 2966 3190 
Q 3341 2797 3341 1997 
z
" transform="scale(0.015625)"/>
       <path id="DejaVuSans-72" d="M 2631 2963 
Q 2534 3019 2420 3045 
Q 2306 3072 2169 3072 
Q 1681 3072 1420 2755 
Q 1159 2438 1159 1844 
L 1159 0 
L 581 0 
L 581 3500 
L 1159 3500 
L 1159 2956 
Q 1341 3275 1631 3429 
Q 1922 3584 2338 3584 
Q 2397 3584 2469 3576 
Q 2541 3569 2628 3553 
L 2631 2963 
z
" transform="scale(0.015625)"/>
       <path id="DejaVuSans-6d" d="M 3328 2828 
Q 3544 3216 3844 3400 
Q 4144 3584 4550 3584 
Q 5097 3584 5394 3201 
Q 5691 2819 5691 2113 
L 5691 0 
L 5113 0 
L 5113 2094 
Q 5113 2597 4934 2840 
Q 4756 3084 4391 3084 
Q 3944 3084 3684 2787 
Q 3425 2491 3425 1978 
L 3425 0 
L 2847 0 
L 2847 2094 
Q 2847 2600 2669 2842 
Q 2491 3084 2119 3084 
Q 1678 3084 1418 2786 
Q 1159 2488 1159 1978 
L 1159 0 
L 581 0 
L 581 3500 
L 1159 3500 
L 1159 2956 
Q 1356 3278 1631 3431 
Q 1906 3584 2284 3584 
Q 2666 3584 2933 3390 
Q 3200 3197 3328 2828 
z
" transform="scale(0.015625)"/>
       <path id="DejaVuSans-65" d="M 3597 1894 
L 3597 1613 
L 953 1613 
Q 991 1019 1311 708 
Q 1631 397 2203 397 
Q 2534 397 2845 478 
Q 3156 559 3463 722 
L 3463 178 
Q 3153 47 2828 -22 
Q 2503 -91 2169 -91 
Q 1331 -91 842 396 
Q 353 884 353 1716 
Q 353 2575 817 3079 
Q 1281 3584 2069 3584 
Q 2775 3584 3186 3129 
Q 3597 2675 3597 1894 
z
M 3022 2063 
Q 3016 2534 2758 2815 
Q 2500 3097 2075 3097 
Q 1594 3097 1305 2825 
Q 1016 2553 972 2059 
L 3022 2063 
z
" transform="scale(0.015625)"/>
       <path id="DejaVuSans-74" d="M 1172 4494 
L 1172 3500 
L 2356 3500 
L 2356 3053 
L 1172 3053 
L 1172 1153 
Q 1172 725 1289 603 
Q 1406 481 1766 481 
L 2356 481 
L 2356 0 
L 1766 0 
Q 1100 0 847 248 
Q 594 497 594 1153 
L 594 3053 
L 172 3053 
L 172 3500 
L 594 3500 
L 594 4494 
L 1172 4494 
z
" transform="scale(0.015625)"/>
       <path id="DejaVuSans-49" d="M 628 4666 
L 1259 4666 
L 1259 0 
L 628 0 
L 628 4666 
z
" transform="scale(0.015625)"/>
       <path id="DejaVuSans-6e" d="M 3513 2113 
L 3513 0 
L 2938 0 
L 2938 2094 
Q 2938 2591 2744 2837 
Q 2550 3084 2163 3084 
Q 1697 3084 1428 2787 
Q 1159 2491 1159 1978 
L 1159 0 
L 581 0 
L 581 3500 
L 1159 3500 
L 1159 2956 
Q 1366 3272 1645 3428 
Q 1925 3584 2291 3584 
Q 2894 3584 3203 3211 
Q 3513 2838 3513 2113 
z
" transform="scale(0.015625)"/>
       <path id="DejaVuSans-64" d="M 2906 2969 
L 2906 4863 
L 3481 4863 
L 3481 0 
L 2906 0 
L 2906 525 
Q 2725 213 2448 61 
Q 2172 -91 1784 -91 
Q 1150 -91 751 415 
Q 353 922 353 1747 
Q 353 2572 751 3078 
Q 1150 3584 1784 3584 
Q 2172 3584 2448 3432 
Q 2725 3281 2906 2969 
z
M 947 1747 
Q 947 1113 1208 752 
Q 1469 391 1925 391 
Q 2381 391 2643 752 
Q 2906 1113 2906 1747 
Q 2906 2381 2643 2742 
Q 2381 3103 1925 3103 
Q 1469 3103 1208 2742 
Q 947 2381 947 1747 
z
" transform="scale(0.015625)"/>
       <path id="DejaVuSans-78" d="M 3513 3500 
L 2247 1797 
L 3578 0 
L 2900 0 
L 1881 1375 
L 863 0 
L 184 0 
L 1544 1831 
L 300 3500 
L 978 3500 
L 1906 2253 
L 2834 3500 
L 3513 3500 
z
" transform="scale(0.015625)"/>
      </defs>
      <use xlink:href="#DejaVuSans-3b2"/>
      <use xlink:href="#DejaVuSans-20" transform="translate(63.818359 0)"/>
      <use xlink:href="#DejaVuSans-50" transform="translate(95.605469 0)"/>
      <use xlink:href="#DejaVuSans-61" transform="translate(151.408203 0)"/>
      <use xlink:href="#DejaVuSans-72" transform="translate(212.6875 0)"/>
      <use xlink:href="#DejaVuSans-61" transform="translate(253.800781 0)"/>
      <use xlink:href="#DejaVuSans-6d" transform="translate(315.080078 0)"/>
      <use xlink:href="#DejaVuSans-65" transform="translate(412.492188 0)"/>
      <use xlink:href="#DejaVuSans-74" transform="translate(474.015625 0)"/>
      <use xlink:href="#DejaVuSans-65" transform="translate(513.224609 0)"/>
      <use xlink:href="#DejaVuSans-72" transform="translate(574.748047 0)"/>
      <use xlink:href="#DejaVuSans-20" transform="translate(615.861328 0)"/>
      <use xlink:href="#DejaVuSans-49" transform="translate(647.648438 0)"/>
      <use xlink:href="#DejaVuSans-6e" transform="translate(677.140625 0)"/>
      <use xlink:href="#DejaVuSans-64" transform="translate(740.519531 0)"/>
      <use xlink:href="#DejaVuSans-65" transform="translate(803.996094 0)"/>
      <use xlink:href="#DejaVuSans-78" transform="translate(863.769531 0)"/>
     </g>
    </g>
   </g>
   <g id="matplotlib.axis_2">
    <g id="ytick_1">
     <g id="line2d_13">
      <path d="M 44.749063 275.873125 
L 694.515136 275.873125 
" clip-path="url(#p34c4c508f9)" style="fill: none; stroke: #e2e8f0; stroke-opacity: 0.3; stroke-width: 0.5; stroke-linecap: square"/>
     </g>
     <g id="line2d_14">
      <defs>
       <path id="m6b452a0193" d="M 0 0 
L -3.5 0 
" style="stroke: #2d3748; stroke-width: 0.8"/>
      </defs>
      <g>
       <use xlink:href="#m6b452a0193" x="44.749063" y="275.873125" style="fill: #2d3748; stroke: #2d3748; stroke-width: 0.8"/>
      </g>
     </g>
     <g id="text_8">
      <!-- 0.0 -->
      <g style="fill: #2d3748" transform="translate(21.845938 279.672344) scale(0.1 -0.1)">
       <defs>
        <path id="DejaVuSans-2e" d="M 684 794 
L 1344 794 
L 1344 0 
L 684 0 
L 684 794 
z
" transform="scale(0.015625)"/>
       </defs>
       <use xlink:href="#DejaVuSans-30"/>
       <use xlink:href="#DejaVuSans-2e" transform="translate(63.623047 0)"/>
       <use xlink:href="#DejaVuSans-30" transform="translate(95.410156 0)"/>
      </g>
     </g>
    </g>
    <g id="ytick_2">
     <g id="line2d_15">
      <path d="M 44.749063 226.938971 
L 694.515136 226.938971 
" clip-path="url(#p34c4c508f9)" style="fill: none; stroke: #e2e8f0; stroke-opacity: 0.3; stroke-width: 0.5; stroke-linecap: square"/>
     </g>
     <g id="line2d_16">
      <g>
       <use xlink:href="#m6b452a0193" x="44.749063" y="226.938971" style="fill: #2d3748; stroke: #2d3748; stroke-width: 0.8"/>
      </g>
     </g>
     <g id="text_9">
      <!-- 0.2 -->
      <g style="fill: #2d3748" transform="translate(21.845938 230.73819) scale(0.1 -0.1)">
       <use xlink:href="#DejaVuSans-30"/>
       <use xlink:href="#DejaVuSans-2e" transform="translate(63.623047 0)"/>
       <use xlink:href="#DejaVuSans-32" transform="translate(95.410156 0)"/>
      </g>
     </g>
    </g>
    <g id="ytick_3">
     <g id="line2d_17">
      <path d="M 44.749063 178.004817 
L 694.515136 178.004817 
" clip-path="url(#p34c4c508f9)" style="fill: none; stroke: #e2e8f0; stroke-opacity: 0.3; stroke-width: 0.5; stroke-linecap: square"/>
     </g>
     <g id="line2d_18">
      <g>
       <use xlink:href="#m6b452a0193" x="44.749063" y="178.004817" style="fill: #2d3748; stroke: #2d3748; stroke-width: 0.8"/>
      </g>
     </g>
     <g id="text_10">
      <!-- 0.4 -->
      <g style="fill: #2d3748" transform="translate(21.845938 181.804036) scale(0.1 -0.1)">
       <use xlink:href="#DejaVuSans-30"/>
       <use xlink:href="#DejaVuSans-2e" transform="translate(63.623047 0)"/>
       <use xlink:href="#DejaVuSans-34" transform="translate(95.410156 0)"/>
      </g>
     </g>
    </g>
    <g id="ytick_4">
     <g id="line2d_19">
      <path d="M 44.749063 129.070663 
L 694.515136 129.070663 
" clip-path="url(#p34c4c508f9)" style="fill: none; stroke: #e2e8f0; stroke-opacity: 0.3; stroke-width: 0.5; stroke-linecap: square"/>
     </g>
     <g id="line2d_20">
      <g>
       <use xlink:href="#m6b452a0193" x="44.749063" y="129.070663" style="fill: #2d3748; stroke: #2d3748; stroke-width: 0.8"/>
      </g>
     </g>
     <g id="text_11">
      <!-- 0.6 -->
      <g style="fill: #2d3748" transform="translate(21.845938 132.869882) scale(0.1 -0.1)">
       <use xlink:href="#DejaVuSans-30"/>
       <use xlink:href="#DejaVuSans-2e" transform="translate(63.623047 0)"/>
       <use xlink:href="#DejaVuSans-36" transform="translate(95.410156 0)"/>
      </g>
     </g>
    </g>
    <g id="ytick_5">
     <g id="line2d_21">
      <path d="M 44.749063 80.13651 
L 694.515136 80.13651 
" clip-path="url(#p34c4c508f9)" style="fill: none; stroke: #e2e8f0; stroke-opacity: 0.3; stroke-width: 0.5; stroke-linecap: square"/>
     </g>
     <g id="line2d_22">
      <g>
       <use xlink:href="#m6b452a0193" x="44.749063" y="80.13651" style="fill: #2d3748; stroke: #2d3748; stroke-width: 0.8"/>
      </g>
     </g>
     <g id="text_12">
      <!-- 0.8 -->
      <g style="fill: #2d3748" transform="translate(21.845938 83.935728) scale(0.1 -0.1)">
       <use xlink:href="#DejaVuSans-30"/>
       <use xlink:href="#DejaVuSans-2e" transform="translate(63.623047 0)"/>
       <use xlink:href="#DejaVuSans-38" transform="translate(95.410156 0)"/>
      </g>
     </g>
    </g>
    <g id="ytick_6">
     <g id="line2d_23">
      <path d="M 44.749063 31.202356 
L 694.515136 31.202356 
" clip-path="url(#p34c4c508f9)" style="fill: none; stroke: #e2e8f0; stroke-opacity: 0.3; stroke-width: 0.5; stroke-linecap: square"/>
     </g>
     <g id="line2d_24">
      <g>
       <use xlink:href="#m6b452a0193" x="44.749063" y="31.202356" style="fill: #2d3748; stroke: #2d3748; stroke-width: 0.8"/>
      </g>
     </g>
     <g id="text_13">
      <!-- 1.0 -->
      <g style="fill: #2d3748" transform="translate(21.845938 35.001574) scale(0.1 -0.1)">
       <use xlink:href="#DejaVuSans-31"/>
       <use xlink:href="#DejaVuSans-2e" transform="translate(63.623047 0)"/>
       <use xlink:href="#DejaVuSans-30" transform="translate(95.410156 0)"/>
      </g>
     </g>
    </g>
    <g id="text_14">
     <!-- Chi-square p-value -->
     <g style="fill: #2d3748" transform="translate(15.558281 200.809063) rotate(-90) scale(0.11 -0.11)">
      <defs>
       <path id="DejaVuSans-43" d="M 4122 4306 
L 4122 3641 
Q 3803 3938 3442 4084 
Q 3081 4231 2675 4231 
Q 1875 4231 1450 3742 
Q 1025 3253 1025 2328 
Q 1025 1406 1450 917 
Q 1875 428 2675 428 
Q 3081 428 3442 575 
Q 3803 722 4122 1019 
L 4122 359 
Q 3791 134 3420 21 
Q 3050 -91 2638 -91 
Q 1578 -91 968 557 
Q 359 1206 359 2328 
Q 359 3453 968 4101 
Q 1578 4750 2638 4750 
Q 3056 4750 3426 4639 
Q 3797 4528 4122 4306 
z
" transform="scale(0.015625)"/>
       <path id="DejaVuSans-68" d="M 3513 2113 
L 3513 0 
L 2938 0 
L 2938 2094 
Q 2938 2591 2744 2837 
Q 2550 3084 2163 3084 
Q 1697 3084 1428 2787 
Q 1159 2491 1159 1978 
L 1159 0 
L 581 0 
L 581 4863 
L 1159 4863 
L 1159 2956 
Q 1366 3272 1645 3428 
Q 1925 3584 2291 3584 
Q 2894 3584 3203 3211 
Q 3513 2838 3513 2113 
z
" transform="scale(0.015625)"/>
       <path id="DejaVuSans-69" d="M 603 3500 
L 1178 3500 
L 1178 0 
L 603 0 
L 603 3500 
z
M 603 4863 
L 1178 4863 
L 1178 4134 
L 603 4134 
L 603 4863 
z
" transform="scale(0.015625)"/>
       <path id="DejaVuSans-2d" d="M 313 2009 
L 1997 2009 
L 1997 1497 
L 313 1497 
L 313 2009 
z
" transform="scale(0.015625)"/>
       <path id="DejaVuSans-73" d="M 2834 3397 
L 2834 2853 
Q 2591 2978 2328 3040 
Q 2066 3103 1784 3103 
Q 1356 3103 1142 2972 
Q 928 2841 928 2578 
Q 928 2378 1081 2264 
Q 1234 2150 1697 2047 
L 1894 2003 
Q 2506 1872 2764 1633 
Q 3022 1394 3022 966 
Q 3022 478 2636 193 
Q 2250 -91 1575 -91 
Q 1294 -91 989 -36 
Q 684 19 347 128 
L 347 722 
Q 666 556 975 473 
Q 1284 391 1588 391 
Q 1994 391 2212 530 
Q 2431 669 2431 922 
Q 2431 1156 2273 1281 
Q 2116 1406 1581 1522 
L 1381 1569 
Q 847 1681 609 1914 
Q 372 2147 372 2553 
Q 372 3047 722 3315 
Q 1072 3584 1716 3584 
Q 2034 3584 2315 3537 
Q 2597 3491 2834 3397 
z
" transform="scale(0.015625)"/>
       <path id="DejaVuSans-71" d="M 947 1747 
Q 947 1113 1208 752 
Q 1469 391 1925 391 
Q 2381 391 2643 752 
Q 2906 1113 2906 1747 
Q 2906 2381 2643 2742 
Q 2381 3103 1925 3103 
Q 1469 3103 1208 2742 
Q 947 2381 947 1747 
z
M 2906 525 
Q 2725 213 2448 61 
Q 2172 -91 1784 -91 
Q 1150 -91 751 415 
Q 353 922 353 1747 
Q 353 2572 751 3078 
Q 1150 3584 1784 3584 
Q 2172 3584 2448 3432 
Q 2725 3281 2906 2969 
L 2906 3500 
L 3481 3500 
L 3481 -1331 
L 2906 -1331 
L 2906 525 
z
" transform="scale(0.015625)"/>
       <path id="DejaVuSans-75" d="M 544 1381 
L 544 3500 
L 1119 3500 
L 1119 1403 
Q 1119 906 1312 657 
Q 1506 409 1894 409 
Q 2359 409 2629 706 
Q 2900 1003 2900 1516 
L 2900 3500 
L 3475 3500 
L 3475 0 
L 2900 0 
L 2900 538 
Q 2691 219 2414 64 
Q 2138 -91 1772 -91 
Q 1169 -91 856 284 
Q 544 659 544 1381 
z
M 1991 3584 
L 1991 3584 
z
" transform="scale(0.015625)"/>
       <path id="DejaVuSans-70" d="M 1159 525 
L 1159 -1331 
L 581 -1331 
L 581 3500 
L 1159 3500 
L 1159 2969 
Q 1341 3281 1617 3432 
Q 1894 3584 2278 3584 
Q 2916 3584 3314 3078 
Q 3713 2572 3713 1747 
Q 3713 922 3314 415 
Q 2916 -91 2278 -91 
Q 1894 -91 1617 61 
Q 1341 213 1159 525 
z
M 3116 1747 
Q 3116 2381 2855 2742 
Q 2594 3103 2138 3103 
Q 1681 3103 1420 2742 
Q 1159 2381 1159 1747 
Q 1159 1113 1420 752 
Q 1681 391 2138 391 
Q 2594 391 2855 752 
Q 3116 1113 3116 1747 
z
" transform="scale(0.015625)"/>
       <path id="DejaVuSans-76" d="M 191 3500 
L 800 3500 
L 1894 563 
L 2988 3500 
L 3597 3500 
L 2284 0 
L 1503 0 
L 191 3500 
z
" transform="scale(0.015625)"/>
       <path id="DejaVuSans-6c" d="M 603 4863 
L 1178 4863 
L 1178 0 
L 603 0 
L 603 4863 
z
" transform="scale(0.015625)"/>
      </defs>
      <use xlink:href="#DejaVuSans-43"/>
      <use xlink:href="#DejaVuSans-68" transform="translate(69.824219 0)"/>
      <use xlink:href="#DejaVuSans-69" transform="translate(133.203125 0)"/>
      <use xlink:href="#DejaVuSans-2d" transform="translate(160.986328 0)"/>
      <use xlink:href="#DejaVuSans-73" transform="translate(197.070312 0)"/>
      <use xlink:href="#DejaVuSans-71" transform="translate(249.169922 0)"/>
      <use xlink:href="#DejaVuSans-75" transform="translate(312.646484 0)"/>
      <use xlink:href="#DejaVuSans-61" transform="translate(376.025391 0)"/>
      <use xlink:href="#DejaVuSans-72" transform="translate(437.304688 0)"/>
      <use xlink:href="#DejaVuSans-65" transform="translate(476.167969 0)"/>
      <use xlink:href="#DejaVuSans-20" transform="translate(537.691406 0)"/>
      <use xlink:href="#DejaVuSans-70" transform="translate(569.478516 0)"/>
      <use xlink:href="#DejaVuSans-2d" transform="translate(632.955078 0)"/>
      <use xlink:href="#DejaVuSans-76" transform="translate(666.414062 0)"/>
      <use xlink:href="#DejaVuSans-61" transform="translate(725.59375 0)"/>
      <use xlink:href="#DejaVuSans-6c" transform="translate(786.873047 0)"/>
      <use xlink:href="#DejaVuSans-75" transform="translate(814.65625 0)"/>
      <use xlink:href="#DejaVuSans-65" transform="translate(878.035156 0)"/>
     </g>
    </g>
   </g>
   <g id="line2d_25">
    <path d="M 44.749063 263.639587 
L 694.515136 263.639587 
" clip-path="url(#p34c4c508f9)" style="fill: none; stroke-dasharray: 7.4,3.2; stroke-dashoffset: 0; stroke: #ff0000; stroke-width: 2"/>
   </g>
   <g id="patch_99">
    <path d="M 44.749063 275.873125 
L 44.749063 22.393125 
" style="fill: none; stroke: #2d3748; stroke-width: 0.8; stroke-linejoin: miter; stroke-linecap: square"/>
   </g>
   <g id="patch_100">
    <path d="M 44.749063 275.873125 
L 694.515136 275.873125 
" style="fill: none; stroke: #2d3748; stroke-width: 0.8; stroke-linejoin: miter; stroke-linecap: square"/>
   </g>
   <g id="text_15">
    <!-- β Parameter Calibration -->
    <g style="fill: #2d3748" transform="translate(298.128974 16.393125) scale(0.12 -0.12)">
     <defs>
      <path id="DejaVuSans-62" d="M 3116 1747 
Q 3116 2381 2855 2742 
Q 2594 3103 2138 3103 
Q 1681 3103 1420 2742 
Q 1159 2381 1159 1747 
Q 1159 1113 1420 752 
Q 1681 391 2138 391 
Q 2594 391 2855 752 
Q 3116 1113 3116 1747 
z
M 1159 2969 
Q 1341 3281 1617 3432 
Q 1894 3584 2278 3584 
Q 2916 3584 3314 3078 
Q 3713 2572 3713 1747 
Q 3713 922 3314 415 
Q 2916 -91 2278 -91 
Q 1894 -91 1617 61 
Q 1341 213 1159 525 
L 1159 0 
L 581 0 
L 581 4863 
L 1159 4863 
L 1159 2969 
z
" transform="scale(0.015625)"/>
      <path id="DejaVuSans-6f" d="M 1959 3097 
Q 1497 3097 1228 2736 
Q 959 2375 959 1747 
Q 959 1119 1226 758 
Q 1494 397 1959 397 
Q 2419 397 2687 759 
Q 2956 1122 2956 1747 
Q 2956 2369 2687 2733 
Q 2419 3097 1959 3097 
z
M 1959 3584 
Q 2709 3584 3137 3096 
Q 3566 2609 3566 1747 
Q 3566 888 3137 398 
Q 2709 -91 1959 -91 
Q 1206 -91 779 398 
Q 353 888 353 1747 
Q 353 2609 779 3096 
Q 1206 3584 1959 3584 
z
" transform="scale(0.015625)"/>
     </defs>
     <use xlink:href="#DejaVuSans-3b2"/>
     <use xlink:href="#DejaVuSans-20" transform="translate(63.818359 0)"/>
     <use xlink:href="#DejaVuSans-50" transform="translate(95.605469 0)"/>
     <use xlink:href="#DejaVuSans-61" transform="translate(151.408203 0)"/>
     <use xlink:href="#DejaVuSans-72" transform="translate(212.6875 0)"/>
     <use xlink:href="#DejaVuSans-61" transform="translate(253.800781 0)"/>
     <use xlink:href="#DejaVuSans-6d" transform="translate(315.080078 0)"/>
     <use xlink:href="#DejaVuSans-65" transform="translate(412.492188 0)"/>
     <use xlink:href="#DejaVuSans-74" transform="translate(474.015625 0)"/>
     <use xlink:href="#DejaVuSans-65" transform="translate(513.224609 0)"/>
     <use xlink:href="#DejaVuSans-72" transform="translate(574.748047 0)"/>
     <use xlink:href="#DejaVuSans-20" transform="translate(615.861328 0)"/>
     <use xlink:href="#DejaVuSans-43" transform="translate(647.648438 0)"/>
     <use xlink:href="#DejaVuSans-61" transform="translate(717.472656 0)"/>
     <use xlink:href="#DejaVuSans-6c" transform="translate(778.751953 0)"/>
     <use xlink:href="#DejaVuSans-69" transform="translate(806.535156 0)"/>
     <use xlink:href="#DejaVuSans-62" transform="translate(834.318359 0)"/>
     <use xlink:href="#DejaVuSans-72" transform="translate(897.794922 0)"/>
     <use xlink:href="#DejaVuSans-61" transform="translate(938.908203 0)"/>
     <use xlink:href="#DejaVuSans-74" transform="translate(1000.1875 0)"/>
     <use xlink:href="#DejaVuSans-69" transform="translate(1039.396484 0)"/>
     <use xlink:href="#DejaVuSans-6f" transform="translate(1067.179688 0)"/>
     <use xlink:href="#DejaVuSans-6e" transform="translate(1128.361328 0)"/>
    </g>
   </g>
   <g id="legend_1">
    <g id="patch_101">
     <path d="M 611.921386 45.07125 
L 687.515136 45.07125 
Q 689.515136 45.07125 689.515136 43.07125 
L 689.515136 29.393125 
Q 689.515136 27.393125 687.515136 27.393125 
L 611.921386 27.393125 
Q 609.921386 27.393125 609.921386 29.393125 
L 609.921386 43.07125 
Q 609.921386 45.07125 611.921386 45.07125 
z
" style="fill: #ffffff; opacity: 0.9; stroke: #e2e8f0; stroke-linejoin: miter"/>
    </g>
    <g id="line2d_26">
     <path d="M 613.921386 35.491563 
L 623.921386 35.491563 
L 633.921386 35.491563 
" style="fill: none; stroke-dasharray: 7.4,3.2; stroke-dashoffset: 0; stroke: #ff0000; stroke-width: 2"/>
    </g>
    <g id="text_16">
     <!-- α = 0.05 -->
     <g style="fill: #2d3748" transform="translate(641.921386 38.991563) scale(0.1 -0.1)">
      <defs>
       <path id="DejaVuSans-3b1" d="M 2644 1628 
L 2506 2350 
Q 2366 3091 1809 3091 
Q 1391 3091 1200 2747 
Q 959 2316 959 1747 
Q 959 1059 1194 731 
Q 1431 397 1809 397 
Q 2228 397 2453 1063 
L 2644 1628 
z
M 2966 2584 
L 3275 3500 
L 3788 3500 
L 3147 1603 
L 3272 919 
Q 3300 766 3409 638 
Q 3538 488 3638 488 
L 3913 488 
L 3913 0 
L 3569 0 
Q 3275 0 3013 263 
Q 2884 394 2831 669 
Q 2688 322 2394 50 
Q 2256 -78 1809 -78 
Q 1075 -78 719 397 
Q 353 888 353 1747 
Q 353 2666 750 3097 
Q 1191 3578 1809 3578 
Q 2781 3578 2966 2584 
z
" transform="scale(0.015625)"/>
       <path id="DejaVuSans-3d" d="M 678 2906 
L 4684 2906 
L 4684 2381 
L 678 2381 
L 678 2906 
z
M 678 1631 
L 4684 1631 
L 4684 1100 
L 678 1100 
L 678 1631 
z
" transform="scale(0.015625)"/>
       <path id="DejaVuSans-35" d="M 691 4666 
L 3169 4666 
L 3169 4134 
L 1269 4134 
L 1269 2991 
Q 1406 3038 1543 3061 
Q 1681 3084 1819 3084 
Q 2600 3084 3056 2656 
Q 3513 2228 3513 1497 
Q 3513 744 3044 326 
Q 2575 -91 1722 -91 
Q 1428 -91 1123 -41 
Q 819 9 494 109 
L 494 744 
Q 775 591 1075 516 
Q 1375 441 1709 441 
Q 2250 441 2565 725 
Q 2881 1009 2881 1497 
Q 2881 1984 2565 2268 
Q 2250 2553 1709 2553 
Q 1456 2553 1204 2497 
Q 953 2441 691 2322 
L 691 4666 
z
" transform="scale(0.015625)"/>
      </defs>
      <use xlink:href="#DejaVuSans-3b1"/>
      <use xlink:href="#DejaVuSans-20" transform="translate(65.917969 0)"/>
      <use xlink:href="#DejaVuSans-3d" transform="translate(97.705078 0)"/>
      <use xlink:href="#DejaVuSans-20" transform="translate(181.494141 0)"/>
      <use xlink:href="#DejaVuSans-30" transform="translate(213.28125 0)"/>
      <use xlink:href="#DejaVuSans-2e" transform="translate(276.904297 0)"/>
      <use xlink:href="#DejaVuSans-30" transform="translate(308.691406 0)"/>
      <use xlink:href="#DejaVuSans-35" transform="translate(372.314453 0)"/>
     </g>
    </g>
   </g>
  </g>
 </g>
 <defs>
  <clipPath id="p34c4c508f9">
   <rect x="44.749063" y="22.393125" width="649.766073" height="253.48"/>
  </clipPath>
 </defs>
</svg>
