<?xml version="1.0" encoding="utf-8" standalone="no"?>
<!DOCTYPE svg PUBLIC "-//W3C//DTD SVG 1.1//EN"
  "http://www.w3.org/Graphics/SVG/1.1/DTD/svg11.dtd">
<svg xmlns:xlink="http://www.w3.org/1999/xlink" width="784.8pt" height="425.077969pt" viewBox="0 0 784.8 425.077969" xmlns="http://www.w3.org/2000/svg" version="1.1">
 <metadata>
  <rdf:RDF xmlns:dc="http://purl.org/dc/elements/1.1/" xmlns:cc="http://creativecommons.org/ns#" xmlns:rdf="http://www.w3.org/1999/02/22-rdf-syntax-ns#">
   <cc:Work>
    <dc:type rdf:resource="http://purl.org/dc/dcmitype/StillImage"/>
    <dc:date>2026-04-08T08:36:11.394473</dc:date>
    <dc:format>image/svg+xml</dc:format>
    <dc:creator>
     <cc:Agent>
      <dc:title>Matplotlib v3.10.8, https://matplotlib.org/</dc:title>
     </cc:Agent>
    </dc:creator>
   </cc:Work>
  </rdf:RDF>
 </metadata>
 <defs>
  <style type="text/css">*{stroke-linejoin: round; stroke-linecap: butt}</style>
 </defs>
 <g id="figure_1">
  <g id="patch_1">
   <path d="M 0 425.077969 
L 784.8 425.077969 
L 784.8 0 
L 0 0 
z
" style="fill: #ffffff"/>
  </g>
  <g id="axes_1">
   <g id="patch_2">
    <path d="M 95.71399 106.988378 
Q 128.013774 165.362937 159.501618 222.270099 
" style="fill: none; stroke: #000000; stroke-width: 1.5; stroke-linecap: round"/>
    <path d="M 159.315003 217.801859 
L 159.501618 222.270099 
L 155.815056 219.738447 
" style="fill: none; stroke: #000000; stroke-width: 1.5; stroke-linecap: round"/>
   </g>
   <g id="patch_3">
    <path d="M 220.636823 107.230573 
Q 215.558316 165.359511 210.625771 221.817763 
" style="fill: none; stroke: #000000; stroke-width: 1.5; stroke-linecap: round"/>
    <path d="M 212.96632 218.007011 
L 210.625771 221.817763 
L 208.981499 217.658872 
" style="fill: none; stroke: #000000; stroke-width: 1.5; stroke-linecap: round"/>
   </g>
   <g id="patch_4">
    <path d="M 346.876364 107.241582 
Q 346.876364 123.276468 346.876364 137.634302 
" style="fill: none; stroke: #000000; stroke-width: 1.5; stroke-linecap: round"/>
    <path d="M 348.876364 133.634302 
L 346.876364 137.634302 
L 344.876364 133.634302 
" style="fill: none; stroke: #000000; stroke-width: 1.5; stroke-linecap: round"/>
   </g>
   <g id="patch_5">
    <path d="M 345.072983 190.277224 
Q 303.103379 210.453477 262.645241 229.903115 
" style="fill: none; stroke: #000000; stroke-width: 1.5; stroke-linecap: round"/>
    <path d="M 267.116838 229.972567 
L 262.645241 229.903115 
L 265.38376 226.367509 
" style="fill: none; stroke: #000000; stroke-width: 1.5; stroke-linecap: round"/>
   </g>
   <g id="patch_6">
    <path d="M 96.438869 190.481439 
Q 128.014489 210.454468 158.172801 229.530984 
" style="fill: none; stroke: #000000; stroke-width: 1.5; stroke-linecap: round"/>
    <path d="M 155.861476 225.702437 
L 158.172801 229.530984 
L 153.723168 229.082916 
" style="fill: none; stroke: #000000; stroke-width: 1.5; stroke-linecap: round"/>
   </g>
   <g id="patch_7">
    <path d="M 532.472727 107.237178 
Q 532.472727 117.26224 532.472727 125.61025 
" style="fill: none; stroke: #000000; stroke-width: 1.5; stroke-linecap: round"/>
    <path d="M 534.472727 121.61025 
L 532.472727 125.61025 
L 530.472727 121.61025 
" style="fill: none; stroke: #000000; stroke-width: 1.5; stroke-linecap: round"/>
   </g>
   <g id="patch_8">
    <path d="M 532.472727 179.384871 
Q 532.472727 201.434235 532.472727 221.806549 
" style="fill: none; stroke: #000000; stroke-width: 1.5; stroke-linecap: round"/>
    <path d="M 534.472727 217.806549 
L 532.472727 221.806549 
L 530.472727 217.806549 
" style="fill: none; stroke: #000000; stroke-width: 1.5; stroke-linecap: round"/>
   </g>
   <g id="patch_9">
    <path d="M 711.065455 179.384871 
Q 711.065455 201.434235 711.065455 221.806549 
" style="fill: none; stroke: #000000; stroke-width: 1.5; stroke-linecap: round"/>
    <path d="M 713.065455 217.806549 
L 711.065455 221.806549 
L 709.065455 217.806549 
" style="fill: none; stroke: #000000; stroke-width: 1.5; stroke-linecap: round"/>
   </g>
   <g id="patch_10">
    <path d="M 530.61602 274.332655 
Q 472.941648 297.631884 416.822237 320.302941 
" style="fill: none; stroke: #000000; stroke-width: 1.5; stroke-linecap: round"/>
    <path d="M 421.280171 320.659064 
L 416.822237 320.302941 
L 419.781895 316.950268 
" style="fill: none; stroke: #000000; stroke-width: 1.5; stroke-linecap: round"/>
   </g>
   <g id="patch_11">
    <path d="M 709.102895 273.976426 
Q 576.246481 300.637763 445.034336 326.969131 
" style="fill: none; stroke: #000000; stroke-width: 1.5; stroke-linecap: round"/>
    <path d="M 449.349657 328.143016 
L 445.034336 326.969131 
L 448.562637 324.221205 
" style="fill: none; stroke: #000000; stroke-width: 1.5; stroke-linecap: round"/>
   </g>
   <g id="patch_12">
    <path d="M 464.432639 345.730276 
Q 497.453926 345.730276 528.798162 345.730276 
" style="fill: none; stroke: #000000; stroke-width: 1.5; stroke-linecap: round"/>
    <path d="M 524.798162 343.730276 
L 528.798162 345.730276 
L 524.798162 347.730276 
" style="fill: none; stroke: #000000; stroke-width: 1.5; stroke-linecap: round"/>
   </g>
   <g id="patch_13">
    <path d="M 212.103813 274.464761 
Q 259.332714 297.6327 305.055965 320.062049 
" style="fill: none; stroke: #000000; stroke-width: 1.5; stroke-linecap: round"/>
    <path d="M 302.345599 316.504814 
L 305.055965 320.062049 
L 300.583958 320.096001 
" style="fill: none; stroke: #000000; stroke-width: 1.5; stroke-linecap: round"/>
   </g>
   <g id="patch_14">
    <path d="M 42.218182 105.237969 
L 147.272727 105.237969 
L 147.272727 57.139507 
L 42.218182 57.139507 
z
" clip-path="url(#p007c73b456)" style="fill: #d4e6f1; stroke: #000000; stroke-width: 1.5; stroke-linejoin: miter"/>
   </g>
   <g id="patch_15">
    <path d="M 168.283636 105.237969 
L 273.338182 105.237969 
L 273.338182 57.139507 
L 168.283636 57.139507 
z
" clip-path="url(#p007c73b456)" style="fill: #d4e6f1; stroke: #000000; stroke-width: 1.5; stroke-linejoin: miter"/>
   </g>
   <g id="patch_16">
    <path d="M 294.349091 105.237969 
L 399.403636 105.237969 
L 399.403636 57.139507 
L 294.349091 57.139507 
z
" clip-path="url(#p007c73b456)" style="fill: #d4e6f1; stroke: #000000; stroke-width: 1.5; stroke-linejoin: miter"/>
   </g>
   <g id="patch_17">
    <path d="M 42.218182 189.410276 
L 147.272727 189.410276 
L 147.272727 141.311815 
L 42.218182 141.311815 
z
" clip-path="url(#p007c73b456)" style="fill: #fdebd0; stroke: #000000; stroke-width: 1.5; stroke-linejoin: miter"/>
   </g>
   <g id="patch_18">
    <path d="M 294.349091 189.410276 
L 399.403636 189.410276 
L 399.403636 141.311815 
L 294.349091 141.311815 
z
" clip-path="url(#p007c73b456)" style="fill: #d4e6f1; stroke: #000000; stroke-width: 1.5; stroke-linejoin: miter"/>
   </g>
   <g id="patch_19">
    <path d="M 133.265455 273.582584 
L 287.345455 273.582584 
L 287.345455 225.484123 
L 133.265455 225.484123 
z
" clip-path="url(#p007c73b456)" style="fill: #abebc6; stroke: #000000; stroke-width: 1.5; stroke-linejoin: miter"/>
   </g>
   <g id="patch_20">
    <path d="M 462.436364 177.385661 
L 602.509091 177.385661 
L 602.509091 129.2872 
L 462.436364 129.2872 
z
" clip-path="url(#p007c73b456)" style="fill: #d4e6f1; stroke: #000000; stroke-width: 1.5; stroke-linejoin: miter"/>
   </g>
   <g id="patch_21">
    <path d="M 462.436364 105.237969 
L 602.509091 105.237969 
L 602.509091 57.139507 
L 462.436364 57.139507 
z
" clip-path="url(#p007c73b456)" style="fill: #fdebd0; stroke: #000000; stroke-width: 1.5; stroke-linejoin: miter"/>
   </g>
   <g id="patch_22">
    <path d="M 462.436364 273.582584 
L 602.509091 273.582584 
L 602.509091 225.484123 
L 462.436364 225.484123 
z
" clip-path="url(#p007c73b456)" style="fill: #abebc6; stroke: #000000; stroke-width: 1.5; stroke-linejoin: miter"/>
   </g>
   <g id="patch_23">
    <path d="M 658.538182 177.385661 
L 763.592727 177.385661 
L 763.592727 129.2872 
L 658.538182 129.2872 
z
" clip-path="url(#p007c73b456)" style="fill: #d4e6f1; stroke: #000000; stroke-width: 1.5; stroke-linejoin: miter"/>
   </g>
   <g id="patch_24">
    <path d="M 658.538182 273.582584 
L 763.592727 273.582584 
L 763.592727 225.484123 
L 658.538182 225.484123 
z
" clip-path="url(#p007c73b456)" style="fill: #abebc6; stroke: #000000; stroke-width: 1.5; stroke-linejoin: miter"/>
   </g>
   <g id="patch_25">
    <path d="M 287.345455 369.779507 
L 462.436364 369.779507 
L 462.436364 321.681046 
L 287.345455 321.681046 
z
" clip-path="url(#p007c73b456)" style="fill: #abebc6; stroke: #000000; stroke-width: 1.5; stroke-linejoin: miter"/>
   </g>
   <g id="patch_26">
    <path d="M 532.472727 369.779507 
L 742.581818 369.779507 
L 742.581818 321.681046 
L 532.472727 321.681046 
z
" clip-path="url(#p007c73b456)" style="fill: #f9e79f; stroke: #000000; stroke-width: 1.5; stroke-linejoin: miter"/>
   </g>
   <g id="text_1">
    <!-- $\gamma_0$ -->
    <g transform="translate(89.930455 78.614879) scale(0.09 -0.09)">
     <defs>
      <path id="DejaVuSans-Oblique-3b3" d="M 1491 2950 
L 1838 788 
L 3456 3500 
L 4066 3500 
L 1972 0 
L 1713 -1331 
L 1138 -1331 
L 1397 0 
L 988 2613 
Q 925 3006 628 3006 
L 475 3006 
L 569 3500 
L 788 3500 
Q 1403 3500 1491 2950 
z
" transform="scale(0.015625)"/>
      <path id="DejaVuSans-30" d="M 2034 4250 
Q 1547 4250 1301 3770 
Q 1056 3291 1056 2328 
Q 1056 1369 1301 889 
Q 1547 409 2034 409 
Q 2525 409 2770 889 
Q 3016 1369 3016 2328 
Q 3016 3291 2770 3770 
Q 2525 4250 2034 4250 
z
M 2034 4750 
Q 2819 4750 3233 4129 
Q 3647 3509 3647 2328 
Q 3647 1150 3233 529 
Q 2819 -91 2034 -91 
Q 1250 -91 836 529 
Q 422 1150 422 2328 
Q 422 3509 836 4129 
Q 1250 4750 2034 4750 
z
" transform="scale(0.015625)"/>
     </defs>
     <use xlink:href="#DejaVuSans-Oblique-3b3" transform="translate(0 0.3125)"/>
     <use xlink:href="#DejaVuSans-30" transform="translate(59.179688 -16.09375) scale(0.7)"/>
    </g>
    <!-- intercept -->
    <g transform="translate(74.497564 88.711191) scale(0.09 -0.09)">
     <defs>
      <path id="DejaVuSans-69" d="M 603 3500 
L 1178 3500 
L 1178 0 
L 603 0 
L 603 3500 
z
M 603 4863 
L 1178 4863 
L 1178 4134 
L 603 4134 
L 603 4863 
z
" transform="scale(0.015625)"/>
      <path id="DejaVuSans-6e" d="M 3513 2113 
L 3513 0 
L 2938 0 
L 2938 2094 
Q 2938 2591 2744 2837 
Q 2550 3084 2163 3084 
Q 1697 3084 1428 2787 
Q 1159 2491 1159 1978 
L 1159 0 
L 581 0 
L 581 3500 
L 1159 3500 
L 1159 2956 
Q 1366 3272 1645 3428 
Q 1925 3584 2291 3584 
Q 2894 3584 3203 3211 
Q 3513 2838 3513 2113 
z
" transform="scale(0.015625)"/>
      <path id="DejaVuSans-74" d="M 1172 4494 
L 1172 3500 
L 2356 3500 
L 2356 3053 
L 1172 3053 
L 1172 1153 
Q 1172 725 1289 603 
Q 1406 481 1766 481 
L 2356 481 
L 2356 0 
L 1766 0 
Q 1100 0 847 248 
Q 594 497 594 1153 
L 594 3053 
L 172 3053 
L 172 3500 
L 594 3500 
L 594 4494 
L 1172 4494 
z
" transform="scale(0.015625)"/>
      <path id="DejaVuSans-65" d="M 3597 1894 
L 3597 1613 
L 953 1613 
Q 991 1019 1311 708 
Q 1631 397 2203 397 
Q 2534 397 2845 478 
Q 3156 559 3463 722 
L 3463 178 
Q 3153 47 2828 -22 
Q 2503 -91 2169 -91 
Q 1331 -91 842 396 
Q 353 884 353 1716 
Q 353 2575 817 3079 
Q 1281 3584 2069 3584 
Q 2775 3584 3186 3129 
Q 3597 2675 3597 1894 
z
M 3022 2063 
Q 3016 2534 2758 2815 
Q 2500 3097 2075 3097 
Q 1594 3097 1305 2825 
Q 1016 2553 972 2059 
L 3022 2063 
z
" transform="scale(0.015625)"/>
      <path id="DejaVuSans-72" d="M 2631 2963 
Q 2534 3019 2420 3045 
Q 2306 3072 2169 3072 
Q 1681 3072 1420 2755 
Q 1159 2438 1159 1844 
L 1159 0 
L 581 0 
L 581 3500 
L 1159 3500 
L 1159 2956 
Q 1341 3275 1631 3429 
Q 1922 3584 2338 3584 
Q 2397 3584 2469 3576 
Q 2541 3569 2628 3553 
L 2631 2963 
z
" transform="scale(0.015625)"/>
      <path id="DejaVuSans-63" d="M 3122 3366 
L 3122 2828 
Q 2878 2963 2633 3030 
Q 2388 3097 2138 3097 
Q 1578 3097 1268 2742 
Q 959 2388 959 1747 
Q 959 1106 1268 751 
Q 1578 397 2138 397 
Q 2388 397 2633 464 
Q 2878 531 3122 666 
L 3122 134 
Q 2881 22 2623 -34 
Q 2366 -91 2075 -91 
Q 1284 -91 818 406 
Q 353 903 353 1747 
Q 353 2603 823 3093 
Q 1294 3584 2113 3584 
Q 2378 3584 2631 3529 
Q 2884 3475 3122 3366 
z
" transform="scale(0.015625)"/>
      <path id="DejaVuSans-70" d="M 1159 525 
L 1159 -1331 
L 581 -1331 
L 581 3500 
L 1159 3500 
L 1159 2969 
Q 1341 3281 1617 3432 
Q 1894 3584 2278 3584 
Q 2916 3584 3314 3078 
Q 3713 2572 3713 1747 
Q 3713 922 3314 415 
Q 2916 -91 2278 -91 
Q 1894 -91 1617 61 
Q 1341 213 1159 525 
z
M 3116 1747 
Q 3116 2381 2855 2742 
Q 2594 3103 2138 3103 
Q 1681 3103 1420 2742 
Q 1159 2381 1159 1747 
Q 1159 1113 1420 752 
Q 1681 391 2138 391 
Q 2594 391 2855 752 
Q 3116 1113 3116 1747 
z
" transform="scale(0.015625)"/>
     </defs>
     <use xlink:href="#DejaVuSans-69"/>
     <use xlink:href="#DejaVuSans-6e" transform="translate(27.783203 0)"/>
     <use xlink:href="#DejaVuSans-74" transform="translate(91.162109 0)"/>
     <use xlink:href="#DejaVuSans-65" transform="translate(130.371094 0)"/>
     <use xlink:href="#DejaVuSans-72" transform="translate(191.894531 0)"/>
     <use xlink:href="#DejaVuSans-63" transform="translate(230.757812 0)"/>
     <use xlink:href="#DejaVuSans-65" transform="translate(285.738281 0)"/>
     <use xlink:href="#DejaVuSans-70" transform="translate(347.261719 0)"/>
     <use xlink:href="#DejaVuSans-74" transform="translate(410.738281 0)"/>
    </g>
   </g>
   <g id="text_2">
    <!-- $\boldsymbol{\gamma}$ -->
    <g transform="translate(217.705909 78.614879) scale(0.09 -0.09)">
     <defs>
      <path id="DejaVuSans-BoldOblique-3b3" d="M 2034 2450 
L 2278 1100 
L 3613 3500 
L 4734 3500 
L 2625 0 
L 2366 -1331 
L 1247 -1331 
L 1506 0 
L 1041 2350 
Q 984 2625 900 2675 
Q 750 2766 638 2766 
L 425 2766 
L 566 3500 
L 1075 3500 
Q 1288 3500 1719 3269 
Q 1903 3169 2034 2450 
z
" transform="scale(0.015625)"/>
     </defs>
     <use xlink:href="#DejaVuSans-BoldOblique-3b3" transform="translate(0 0.3125)"/>
    </g>
    <!-- coefficients -->
    <g transform="translate(194.942237 88.711191) scale(0.09 -0.09)">
     <defs>
      <path id="DejaVuSans-6f" d="M 1959 3097 
Q 1497 3097 1228 2736 
Q 959 2375 959 1747 
Q 959 1119 1226 758 
Q 1494 397 1959 397 
Q 2419 397 2687 759 
Q 2956 1122 2956 1747 
Q 2956 2369 2687 2733 
Q 2419 3097 1959 3097 
z
M 1959 3584 
Q 2709 3584 3137 3096 
Q 3566 2609 3566 1747 
Q 3566 888 3137 398 
Q 2709 -91 1959 -91 
Q 1206 -91 779 398 
Q 353 888 353 1747 
Q 353 2609 779 3096 
Q 1206 3584 1959 3584 
z
" transform="scale(0.015625)"/>
      <path id="DejaVuSans-66" d="M 2375 4863 
L 2375 4384 
L 1825 4384 
Q 1516 4384 1395 4259 
Q 1275 4134 1275 3809 
L 1275 3500 
L 2222 3500 
L 2222 3053 
L 1275 3053 
L 1275 0 
L 697 0 
L 697 3053 
L 147 3053 
L 147 3500 
L 697 3500 
L 697 3744 
Q 697 4328 969 4595 
Q 1241 4863 1831 4863 
L 2375 4863 
z
" transform="scale(0.015625)"/>
      <path id="DejaVuSans-73" d="M 2834 3397 
L 2834 2853 
Q 2591 2978 2328 3040 
Q 2066 3103 1784 3103 
Q 1356 3103 1142 2972 
Q 928 2841 928 2578 
Q 928 2378 1081 2264 
Q 1234 2150 1697 2047 
L 1894 2003 
Q 2506 1872 2764 1633 
Q 3022 1394 3022 966 
Q 3022 478 2636 193 
Q 2250 -91 1575 -91 
Q 1294 -91 989 -36 
Q 684 19 347 128 
L 347 722 
Q 666 556 975 473 
Q 1284 391 1588 391 
Q 1994 391 2212 530 
Q 2431 669 2431 922 
Q 2431 1156 2273 1281 
Q 2116 1406 1581 1522 
L 1381 1569 
Q 847 1681 609 1914 
Q 372 2147 372 2553 
Q 372 3047 722 3315 
Q 1072 3584 1716 3584 
Q 2034 3584 2315 3537 
Q 2597 3491 2834 3397 
z
" transform="scale(0.015625)"/>
     </defs>
     <use xlink:href="#DejaVuSans-63"/>
     <use xlink:href="#DejaVuSans-6f" transform="translate(54.980469 0)"/>
     <use xlink:href="#DejaVuSans-65" transform="translate(116.162109 0)"/>
     <use xlink:href="#DejaVuSans-66" transform="translate(177.685547 0)"/>
     <use xlink:href="#DejaVuSans-66" transform="translate(212.890625 0)"/>
     <use xlink:href="#DejaVuSans-69" transform="translate(248.095703 0)"/>
     <use xlink:href="#DejaVuSans-63" transform="translate(275.878906 0)"/>
     <use xlink:href="#DejaVuSans-69" transform="translate(330.859375 0)"/>
     <use xlink:href="#DejaVuSans-65" transform="translate(358.642578 0)"/>
     <use xlink:href="#DejaVuSans-6e" transform="translate(420.166016 0)"/>
     <use xlink:href="#DejaVuSans-74" transform="translate(483.544922 0)"/>
     <use xlink:href="#DejaVuSans-73" transform="translate(522.753906 0)"/>
    </g>
   </g>
   <g id="text_3">
    <!-- $\sigma_{\mathrm{cell}}$ -->
    <g transform="translate(338.461364 78.63316) scale(0.09 -0.09)">
     <defs>
      <path id="DejaVuSans-Oblique-3c3" d="M 2219 3044 
Q 1744 3044 1422 2700 
Q 1081 2341 969 1747 
Q 844 1119 1044 756 
Q 1241 397 1706 397 
Q 2166 397 2503 759 
Q 2844 1122 2966 1747 
Q 3075 2319 2881 2700 
Q 2700 3044 2219 3044 
z
M 2309 3503 
L 4219 3500 
L 4106 2925 
L 3463 2925 
Q 3706 2438 3575 1747 
Q 3406 888 2884 400 
Q 2359 -91 1609 -91 
Q 856 -91 525 400 
Q 194 888 363 1747 
Q 528 2609 1050 3097 
Q 1484 3503 2309 3503 
z
" transform="scale(0.015625)"/>
      <path id="DejaVuSans-6c" d="M 603 4863 
L 1178 4863 
L 1178 0 
L 603 0 
L 603 4863 
z
" transform="scale(0.015625)"/>
     </defs>
     <use xlink:href="#DejaVuSans-Oblique-3c3" transform="translate(0 0.265625)"/>
     <use xlink:href="#DejaVuSans-63" transform="translate(63.378906 -16.140625) scale(0.7)"/>
     <use xlink:href="#DejaVuSans-65" transform="translate(101.865234 -16.140625) scale(0.7)"/>
     <use xlink:href="#DejaVuSans-6c" transform="translate(144.931641 -16.140625) scale(0.7)"/>
     <use xlink:href="#DejaVuSans-6c" transform="translate(164.379883 -16.140625) scale(0.7)"/>
    </g>
    <!-- residual SD -->
    <g transform="translate(321.295973 88.711191) scale(0.09 -0.09)">
     <defs>
      <path id="DejaVuSans-64" d="M 2906 2969 
L 2906 4863 
L 3481 4863 
L 3481 0 
L 2906 0 
L 2906 525 
Q 2725 213 2448 61 
Q 2172 -91 1784 -91 
Q 1150 -91 751 415 
Q 353 922 353 1747 
Q 353 2572 751 3078 
Q 1150 3584 1784 3584 
Q 2172 3584 2448 3432 
Q 2725 3281 2906 2969 
z
M 947 1747 
Q 947 1113 1208 752 
Q 1469 391 1925 391 
Q 2381 391 2643 752 
Q 2906 1113 2906 1747 
Q 2906 2381 2643 2742 
Q 2381 3103 1925 3103 
Q 1469 3103 1208 2742 
Q 947 2381 947 1747 
z
" transform="scale(0.015625)"/>
      <path id="DejaVuSans-75" d="M 544 1381 
L 544 3500 
L 1119 3500 
L 1119 1403 
Q 1119 906 1312 657 
Q 1506 409 1894 409 
Q 2359 409 2629 706 
Q 2900 1003 2900 1516 
L 2900 3500 
L 3475 3500 
L 3475 0 
L 2900 0 
L 2900 538 
Q 2691 219 2414 64 
Q 2138 -91 1772 -91 
Q 1169 -91 856 284 
Q 544 659 544 1381 
z
M 1991 3584 
L 1991 3584 
z
" transform="scale(0.015625)"/>
      <path id="DejaVuSans-61" d="M 2194 1759 
Q 1497 1759 1228 1600 
Q 959 1441 959 1056 
Q 959 750 1161 570 
Q 1363 391 1709 391 
Q 2188 391 2477 730 
Q 2766 1069 2766 1631 
L 2766 1759 
L 2194 1759 
z
M 3341 1997 
L 3341 0 
L 2766 0 
L 2766 531 
Q 2569 213 2275 61 
Q 1981 -91 1556 -91 
Q 1019 -91 701 211 
Q 384 513 384 1019 
Q 384 1609 779 1909 
Q 1175 2209 1959 2209 
L 2766 2209 
L 2766 2266 
Q 2766 2663 2505 2880 
Q 2244 3097 1772 3097 
Q 1472 3097 1187 3025 
Q 903 2953 641 2809 
L 641 3341 
Q 956 3463 1253 3523 
Q 1550 3584 1831 3584 
Q 2591 3584 2966 3190 
Q 3341 2797 3341 1997 
z
" transform="scale(0.015625)"/>
      <path id="DejaVuSans-20" transform="scale(0.015625)"/>
      <path id="DejaVuSans-53" d="M 3425 4513 
L 3425 3897 
Q 3066 4069 2747 4153 
Q 2428 4238 2131 4238 
Q 1616 4238 1336 4038 
Q 1056 3838 1056 3469 
Q 1056 3159 1242 3001 
Q 1428 2844 1947 2747 
L 2328 2669 
Q 3034 2534 3370 2195 
Q 3706 1856 3706 1288 
Q 3706 609 3251 259 
Q 2797 -91 1919 -91 
Q 1588 -91 1214 -16 
Q 841 59 441 206 
L 441 856 
Q 825 641 1194 531 
Q 1563 422 1919 422 
Q 2459 422 2753 634 
Q 3047 847 3047 1241 
Q 3047 1584 2836 1778 
Q 2625 1972 2144 2069 
L 1759 2144 
Q 1053 2284 737 2584 
Q 422 2884 422 3419 
Q 422 4038 858 4394 
Q 1294 4750 2059 4750 
Q 2388 4750 2728 4690 
Q 3069 4631 3425 4513 
z
" transform="scale(0.015625)"/>
      <path id="DejaVuSans-44" d="M 1259 4147 
L 1259 519 
L 2022 519 
Q 2988 519 3436 956 
Q 3884 1394 3884 2338 
Q 3884 3275 3436 3711 
Q 2988 4147 2022 4147 
L 1259 4147 
z
M 628 4666 
L 1925 4666 
Q 3281 4666 3915 4102 
Q 4550 3538 4550 2338 
Q 4550 1131 3912 565 
Q 3275 0 1925 0 
L 628 0 
L 628 4666 
z
" transform="scale(0.015625)"/>
     </defs>
     <use xlink:href="#DejaVuSans-72"/>
     <use xlink:href="#DejaVuSans-65" transform="translate(38.863281 0)"/>
     <use xlink:href="#DejaVuSans-73" transform="translate(100.386719 0)"/>
     <use xlink:href="#DejaVuSans-69" transform="translate(152.486328 0)"/>
     <use xlink:href="#DejaVuSans-64" transform="translate(180.269531 0)"/>
     <use xlink:href="#DejaVuSans-75" transform="translate(243.746094 0)"/>
     <use xlink:href="#DejaVuSans-61" transform="translate(307.125 0)"/>
     <use xlink:href="#DejaVuSans-6c" transform="translate(368.404297 0)"/>
     <use xlink:href="#DejaVuSans-20" transform="translate(396.1875 0)"/>
     <use xlink:href="#DejaVuSans-53" transform="translate(427.974609 0)"/>
     <use xlink:href="#DejaVuSans-44" transform="translate(491.451172 0)"/>
    </g>
   </g>
   <g id="text_4">
    <!-- $\mathbf{X}$ -->
    <g transform="translate(91.235455 162.805468) scale(0.09 -0.09)">
     <defs>
      <path id="DejaVuSans-Bold-58" d="M 3188 2381 
L 4806 0 
L 3553 0 
L 2463 1594 
L 1381 0 
L 122 0 
L 1741 2381 
L 184 4666 
L 1441 4666 
L 2463 3163 
L 3481 4666 
L 4744 4666 
L 3188 2381 
z
" transform="scale(0.015625)"/>
     </defs>
     <use xlink:href="#DejaVuSans-Bold-58" transform="translate(0 0.09375)"/>
    </g>
    <!-- design matrix -->
    <g transform="translate(63.717955 172.883499) scale(0.09 -0.09)">
     <defs>
      <path id="DejaVuSans-67" d="M 2906 1791 
Q 2906 2416 2648 2759 
Q 2391 3103 1925 3103 
Q 1463 3103 1205 2759 
Q 947 2416 947 1791 
Q 947 1169 1205 825 
Q 1463 481 1925 481 
Q 2391 481 2648 825 
Q 2906 1169 2906 1791 
z
M 3481 434 
Q 3481 -459 3084 -895 
Q 2688 -1331 1869 -1331 
Q 1566 -1331 1297 -1286 
Q 1028 -1241 775 -1147 
L 775 -588 
Q 1028 -725 1275 -790 
Q 1522 -856 1778 -856 
Q 2344 -856 2625 -561 
Q 2906 -266 2906 331 
L 2906 616 
Q 2728 306 2450 153 
Q 2172 0 1784 0 
Q 1141 0 747 490 
Q 353 981 353 1791 
Q 353 2603 747 3093 
Q 1141 3584 1784 3584 
Q 2172 3584 2450 3431 
Q 2728 3278 2906 2969 
L 2906 3500 
L 3481 3500 
L 3481 434 
z
" transform="scale(0.015625)"/>
      <path id="DejaVuSans-6d" d="M 3328 2828 
Q 3544 3216 3844 3400 
Q 4144 3584 4550 3584 
Q 5097 3584 5394 3201 
Q 5691 2819 5691 2113 
L 5691 0 
L 5113 0 
L 5113 2094 
Q 5113 2597 4934 2840 
Q 4756 3084 4391 3084 
Q 3944 3084 3684 2787 
Q 3425 2491 3425 1978 
L 3425 0 
L 2847 0 
L 2847 2094 
Q 2847 2600 2669 2842 
Q 2491 3084 2119 3084 
Q 1678 3084 1418 2786 
Q 1159 2488 1159 1978 
L 1159 0 
L 581 0 
L 581 3500 
L 1159 3500 
L 1159 2956 
Q 1356 3278 1631 3431 
Q 1906 3584 2284 3584 
Q 2666 3584 2933 3390 
Q 3200 3197 3328 2828 
z
" transform="scale(0.015625)"/>
      <path id="DejaVuSans-78" d="M 3513 3500 
L 2247 1797 
L 3578 0 
L 2900 0 
L 1881 1375 
L 863 0 
L 184 0 
L 1544 1831 
L 300 3500 
L 978 3500 
L 1906 2253 
L 2834 3500 
L 3513 3500 
z
" transform="scale(0.015625)"/>
     </defs>
     <use xlink:href="#DejaVuSans-64"/>
     <use xlink:href="#DejaVuSans-65" transform="translate(63.476562 0)"/>
     <use xlink:href="#DejaVuSans-73" transform="translate(125 0)"/>
     <use xlink:href="#DejaVuSans-69" transform="translate(177.099609 0)"/>
     <use xlink:href="#DejaVuSans-67" transform="translate(204.882812 0)"/>
     <use xlink:href="#DejaVuSans-6e" transform="translate(268.359375 0)"/>
     <use xlink:href="#DejaVuSans-20" transform="translate(331.738281 0)"/>
     <use xlink:href="#DejaVuSans-6d" transform="translate(363.525391 0)"/>
     <use xlink:href="#DejaVuSans-61" transform="translate(460.9375 0)"/>
     <use xlink:href="#DejaVuSans-74" transform="translate(522.216797 0)"/>
     <use xlink:href="#DejaVuSans-72" transform="translate(561.425781 0)"/>
     <use xlink:href="#DejaVuSans-69" transform="translate(602.539062 0)"/>
     <use xlink:href="#DejaVuSans-78" transform="translate(630.322266 0)"/>
    </g>
   </g>
   <g id="text_5">
    <!-- $z_j$ -->
    <g transform="translate(343.501364 161.887186) scale(0.09 -0.09)">
     <defs>
      <path id="DejaVuSans-Oblique-7a" d="M 744 3500 
L 3475 3500 
L 3372 2975 
L 738 459 
L 2913 459 
L 2822 0 
L -19 0 
L 84 525 
L 2719 3041 
L 653 3041 
L 744 3500 
z
" transform="scale(0.015625)"/>
      <path id="DejaVuSans-Oblique-6a" d="M 928 3500 
L 1503 3500 
L 813 -63 
L 809 -78 
Q 694 -675 544 -897 
Q 403 -1106 132 -1218 
Q -138 -1331 -506 -1331 
L -722 -1331 
L -628 -844 
L -481 -844 
Q -144 -844 -1 -703 
Q 141 -563 238 -63 
L 928 3500 
z
M 1197 4863 
L 1772 4863 
L 1631 4134 
L 1056 4134 
L 1197 4863 
z
" transform="scale(0.015625)"/>
     </defs>
     <use xlink:href="#DejaVuSans-Oblique-7a" transform="translate(0 0.3125)"/>
     <use xlink:href="#DejaVuSans-Oblique-6a" transform="translate(52.490234 -16.09375) scale(0.7)"/>
    </g>
    <!-- deviations -->
    <g transform="translate(323.615582 172.883499) scale(0.09 -0.09)">
     <defs>
      <path id="DejaVuSans-76" d="M 191 3500 
L 800 3500 
L 1894 563 
L 2988 3500 
L 3597 3500 
L 2284 0 
L 1503 0 
L 191 3500 
z
" transform="scale(0.015625)"/>
     </defs>
     <use xlink:href="#DejaVuSans-64"/>
     <use xlink:href="#DejaVuSans-65" transform="translate(63.476562 0)"/>
     <use xlink:href="#DejaVuSans-76" transform="translate(125 0)"/>
     <use xlink:href="#DejaVuSans-69" transform="translate(184.179688 0)"/>
     <use xlink:href="#DejaVuSans-61" transform="translate(211.962891 0)"/>
     <use xlink:href="#DejaVuSans-74" transform="translate(273.242188 0)"/>
     <use xlink:href="#DejaVuSans-69" transform="translate(312.451172 0)"/>
     <use xlink:href="#DejaVuSans-6f" transform="translate(340.234375 0)"/>
     <use xlink:href="#DejaVuSans-6e" transform="translate(401.416016 0)"/>
     <use xlink:href="#DejaVuSans-73" transform="translate(464.794922 0)"/>
    </g>
   </g>
   <g id="text_6">
    <!-- $\log(\alpha_j)$ → $\alpha_j$ -->
    <g transform="translate(185.060455 246.484181) scale(0.09 -0.09)">
     <defs>
      <path id="DejaVuSans-28" d="M 1984 4856 
Q 1566 4138 1362 3434 
Q 1159 2731 1159 2009 
Q 1159 1288 1364 580 
Q 1569 -128 1984 -844 
L 1484 -844 
Q 1016 -109 783 600 
Q 550 1309 550 2009 
Q 550 2706 781 3412 
Q 1013 4119 1484 4856 
L 1984 4856 
z
" transform="scale(0.015625)"/>
      <path id="DejaVuSans-Oblique-3b1" d="M 2619 1628 
L 2622 2350 
Q 2625 3088 2069 3091 
Q 1653 3094 1394 2747 
Q 1069 2319 959 1747 
Q 825 1059 994 731 
Q 1169 397 1547 397 
Q 1966 397 2319 1063 
L 2619 1628 
z
M 2166 3578 
Q 3141 3594 3128 2584 
Q 3128 2584 3616 3500 
L 4128 3500 
L 3119 1603 
L 3109 919 
Q 3109 766 3194 638 
Q 3291 488 3391 488 
L 3669 488 
L 3575 0 
L 3228 0 
Q 2934 0 2722 263 
Q 2622 394 2619 669 
Q 2416 334 2066 50 
Q 1900 -81 1453 -78 
Q 722 -72 456 397 
Q 184 884 353 1747 
Q 534 2675 1009 3097 
Q 1544 3569 2166 3578 
z
" transform="scale(0.015625)"/>
      <path id="DejaVuSans-29" d="M 513 4856 
L 1013 4856 
Q 1481 4119 1714 3412 
Q 1947 2706 1947 2009 
Q 1947 1309 1714 600 
Q 1481 -109 1013 -844 
L 513 -844 
Q 928 -128 1133 580 
Q 1338 1288 1338 2009 
Q 1338 2731 1133 3434 
Q 928 4138 513 4856 
z
" transform="scale(0.015625)"/>
      <path id="DejaVuSans-Bold-20" transform="scale(0.015625)"/>
      <path id="DejaVuSans-Bold-2192" d="M 5050 2225 
L 5050 1788 
L 3822 559 
L 3369 1013 
L 3988 1631 
L 366 1631 
L 366 2381 
L 3988 2381 
L 3369 3000 
L 3822 3453 
L 5050 2225 
z
" transform="scale(0.015625)"/>
     </defs>
     <use xlink:href="#DejaVuSans-6c" transform="translate(0 0.015625)"/>
     <use xlink:href="#DejaVuSans-6f" transform="translate(27.783203 0.015625)"/>
     <use xlink:href="#DejaVuSans-67" transform="translate(88.964844 0.015625)"/>
     <use xlink:href="#DejaVuSans-28" transform="translate(152.441406 0.015625)"/>
     <use xlink:href="#DejaVuSans-Oblique-3b1" transform="translate(191.455078 0.015625)"/>
     <use xlink:href="#DejaVuSans-Oblique-6a" transform="translate(257.373047 -16.390625) scale(0.7)"/>
     <use xlink:href="#DejaVuSans-29" transform="translate(279.555664 0.015625)"/>
     <use xlink:href="#DejaVuSans-Bold-20" transform="translate(318.569336 0.015625)"/>
     <use xlink:href="#DejaVuSans-Bold-2192" transform="translate(353.383789 0.015625)"/>
     <use xlink:href="#DejaVuSans-Bold-20" transform="translate(437.172852 0.015625)"/>
     <use xlink:href="#DejaVuSans-Oblique-3b1" transform="translate(471.987305 0.015625)"/>
     <use xlink:href="#DejaVuSans-Oblique-6a" transform="translate(537.905273 -16.390625) scale(0.7)"/>
    </g>
    <!-- cell sensitivity -->
    <g transform="translate(173.524986 257.480494) scale(0.09 -0.09)">
     <defs>
      <path id="DejaVuSans-Bold-63" d="M 3366 3391 
L 3366 2478 
Q 3138 2634 2908 2709 
Q 2678 2784 2431 2784 
Q 1963 2784 1702 2511 
Q 1441 2238 1441 1747 
Q 1441 1256 1702 982 
Q 1963 709 2431 709 
Q 2694 709 2930 787 
Q 3166 866 3366 1019 
L 3366 103 
Q 3103 6 2833 -42 
Q 2563 -91 2291 -91 
Q 1344 -91 809 395 
Q 275 881 275 1747 
Q 275 2613 809 3098 
Q 1344 3584 2291 3584 
Q 2566 3584 2833 3536 
Q 3100 3488 3366 3391 
z
" transform="scale(0.015625)"/>
      <path id="DejaVuSans-Bold-65" d="M 4031 1759 
L 4031 1441 
L 1416 1441 
Q 1456 1047 1700 850 
Q 1944 653 2381 653 
Q 2734 653 3104 758 
Q 3475 863 3866 1075 
L 3866 213 
Q 3469 63 3072 -14 
Q 2675 -91 2278 -91 
Q 1328 -91 801 392 
Q 275 875 275 1747 
Q 275 2603 792 3093 
Q 1309 3584 2216 3584 
Q 3041 3584 3536 3087 
Q 4031 2591 4031 1759 
z
M 2881 2131 
Q 2881 2450 2695 2645 
Q 2509 2841 2209 2841 
Q 1884 2841 1681 2658 
Q 1478 2475 1428 2131 
L 2881 2131 
z
" transform="scale(0.015625)"/>
      <path id="DejaVuSans-Bold-6c" d="M 538 4863 
L 1656 4863 
L 1656 0 
L 538 0 
L 538 4863 
z
" transform="scale(0.015625)"/>
      <path id="DejaVuSans-Bold-73" d="M 3272 3391 
L 3272 2541 
Q 2913 2691 2578 2766 
Q 2244 2841 1947 2841 
Q 1628 2841 1473 2761 
Q 1319 2681 1319 2516 
Q 1319 2381 1436 2309 
Q 1553 2238 1856 2203 
L 2053 2175 
Q 2913 2066 3209 1816 
Q 3506 1566 3506 1031 
Q 3506 472 3093 190 
Q 2681 -91 1863 -91 
Q 1516 -91 1145 -36 
Q 775 19 384 128 
L 384 978 
Q 719 816 1070 734 
Q 1422 653 1784 653 
Q 2113 653 2278 743 
Q 2444 834 2444 1013 
Q 2444 1163 2330 1236 
Q 2216 1309 1875 1350 
L 1678 1375 
Q 931 1469 631 1722 
Q 331 1975 331 2491 
Q 331 3047 712 3315 
Q 1094 3584 1881 3584 
Q 2191 3584 2531 3537 
Q 2872 3491 3272 3391 
z
" transform="scale(0.015625)"/>
      <path id="DejaVuSans-Bold-6e" d="M 4056 2131 
L 4056 0 
L 2931 0 
L 2931 347 
L 2931 1631 
Q 2931 2084 2911 2256 
Q 2891 2428 2841 2509 
Q 2775 2619 2662 2680 
Q 2550 2741 2406 2741 
Q 2056 2741 1856 2470 
Q 1656 2200 1656 1722 
L 1656 0 
L 538 0 
L 538 3500 
L 1656 3500 
L 1656 2988 
Q 1909 3294 2193 3439 
Q 2478 3584 2822 3584 
Q 3428 3584 3742 3212 
Q 4056 2841 4056 2131 
z
" transform="scale(0.015625)"/>
      <path id="DejaVuSans-Bold-69" d="M 538 3500 
L 1656 3500 
L 1656 0 
L 538 0 
L 538 3500 
z
M 538 4863 
L 1656 4863 
L 1656 3950 
L 538 3950 
L 538 4863 
z
" transform="scale(0.015625)"/>
      <path id="DejaVuSans-Bold-74" d="M 1759 4494 
L 1759 3500 
L 2913 3500 
L 2913 2700 
L 1759 2700 
L 1759 1216 
Q 1759 972 1856 886 
Q 1953 800 2241 800 
L 2816 800 
L 2816 0 
L 1856 0 
Q 1194 0 917 276 
Q 641 553 641 1216 
L 641 2700 
L 84 2700 
L 84 3500 
L 641 3500 
L 641 4494 
L 1759 4494 
z
" transform="scale(0.015625)"/>
      <path id="DejaVuSans-Bold-76" d="M 97 3500 
L 1216 3500 
L 2088 1081 
L 2956 3500 
L 4078 3500 
L 2700 0 
L 1472 0 
L 97 3500 
z
" transform="scale(0.015625)"/>
      <path id="DejaVuSans-Bold-79" d="M 78 3500 
L 1197 3500 
L 2138 1125 
L 2938 3500 
L 4056 3500 
L 2584 -331 
Q 2363 -916 2067 -1148 
Q 1772 -1381 1288 -1381 
L 641 -1381 
L 641 -647 
L 991 -647 
Q 1275 -647 1404 -556 
Q 1534 -466 1606 -231 
L 1638 -134 
L 78 3500 
z
" transform="scale(0.015625)"/>
     </defs>
     <use xlink:href="#DejaVuSans-Bold-63"/>
     <use xlink:href="#DejaVuSans-Bold-65" transform="translate(59.277344 0)"/>
     <use xlink:href="#DejaVuSans-Bold-6c" transform="translate(127.099609 0)"/>
     <use xlink:href="#DejaVuSans-Bold-6c" transform="translate(161.376953 0)"/>
     <use xlink:href="#DejaVuSans-Bold-20" transform="translate(195.654297 0)"/>
     <use xlink:href="#DejaVuSans-Bold-73" transform="translate(230.46875 0)"/>
     <use xlink:href="#DejaVuSans-Bold-65" transform="translate(289.990234 0)"/>
     <use xlink:href="#DejaVuSans-Bold-6e" transform="translate(357.8125 0)"/>
     <use xlink:href="#DejaVuSans-Bold-73" transform="translate(429.003906 0)"/>
     <use xlink:href="#DejaVuSans-Bold-69" transform="translate(488.525391 0)"/>
     <use xlink:href="#DejaVuSans-Bold-74" transform="translate(522.802734 0)"/>
     <use xlink:href="#DejaVuSans-Bold-69" transform="translate(570.605469 0)"/>
     <use xlink:href="#DejaVuSans-Bold-76" transform="translate(604.882812 0)"/>
     <use xlink:href="#DejaVuSans-Bold-69" transform="translate(670.068359 0)"/>
     <use xlink:href="#DejaVuSans-Bold-74" transform="translate(704.345703 0)"/>
     <use xlink:href="#DejaVuSans-Bold-79" transform="translate(752.148438 0)"/>
    </g>
   </g>
   <g id="text_7">
    <!-- $\boldsymbol{\beta}_j$ -->
    <g transform="translate(528.197727 150.412415) scale(0.09 -0.09)">
     <defs>
      <path id="DejaVuSans-BoldOblique-3b2" d="M 3119 3691 
Q 3119 4128 2691 4128 
Q 2350 4128 2178 3866 
Q 2003 3600 1909 3103 
L 1644 1747 
Q 1606 1544 1606 1344 
Q 1606 1144 1688 988 
Q 1828 722 2188 722 
Q 2588 722 2784 934 
Q 2978 1147 3003 1275 
Q 3022 1372 3022 1459 
Q 3022 1778 2772 1988 
Q 2600 2122 2050 2134 
L 2191 2847 
Q 2716 2925 2813 3038 
Q 3063 3309 3100 3503 
Q 3119 3603 3119 3691 
z
M -72 -1331 
L 778 3044 
Q 947 3922 1466 4369 
Q 1897 4741 2259 4844 
Q 2625 4950 2863 4950 
L 3147 4941 
Q 3766 4841 4050 4438 
Q 4175 4259 4175 4031 
Q 4175 3803 4134 3600 
Q 4078 3313 3831 3025 
Q 3588 2734 3269 2709 
Q 3706 2584 3966 2300 
Q 4222 2019 4222 1588 
Q 4222 850 3613 319 
Q 3141 -91 2441 -91 
Q 1738 -91 1403 506 
L 1047 -1331 
L -72 -1331 
z
" transform="scale(0.015625)"/>
     </defs>
     <use xlink:href="#DejaVuSans-BoldOblique-3b2" transform="translate(0 0.65625)"/>
     <use xlink:href="#DejaVuSans-Oblique-6a" transform="translate(72.539062 -15.75) scale(0.7)"/>
    </g>
    <!-- cell beliefs -->
    <g transform="translate(508.475774 161.408727) scale(0.09 -0.09)">
     <defs>
      <path id="DejaVuSans-62" d="M 3116 1747 
Q 3116 2381 2855 2742 
Q 2594 3103 2138 3103 
Q 1681 3103 1420 2742 
Q 1159 2381 1159 1747 
Q 1159 1113 1420 752 
Q 1681 391 2138 391 
Q 2594 391 2855 752 
Q 3116 1113 3116 1747 
z
M 1159 2969 
Q 1341 3281 1617 3432 
Q 1894 3584 2278 3584 
Q 2916 3584 3314 3078 
Q 3713 2572 3713 1747 
Q 3713 922 3314 415 
Q 2916 -91 2278 -91 
Q 1894 -91 1617 61 
Q 1341 213 1159 525 
L 1159 0 
L 581 0 
L 581 4863 
L 1159 4863 
L 1159 2969 
z
" transform="scale(0.015625)"/>
     </defs>
     <use xlink:href="#DejaVuSans-63"/>
     <use xlink:href="#DejaVuSans-65" transform="translate(54.980469 0)"/>
     <use xlink:href="#DejaVuSans-6c" transform="translate(116.503906 0)"/>
     <use xlink:href="#DejaVuSans-6c" transform="translate(144.287109 0)"/>
     <use xlink:href="#DejaVuSans-20" transform="translate(172.070312 0)"/>
     <use xlink:href="#DejaVuSans-62" transform="translate(203.857422 0)"/>
     <use xlink:href="#DejaVuSans-65" transform="translate(267.333984 0)"/>
     <use xlink:href="#DejaVuSans-6c" transform="translate(328.857422 0)"/>
     <use xlink:href="#DejaVuSans-69" transform="translate(356.640625 0)"/>
     <use xlink:href="#DejaVuSans-65" transform="translate(384.423828 0)"/>
     <use xlink:href="#DejaVuSans-66" transform="translate(445.947266 0)"/>
     <use xlink:href="#DejaVuSans-73" transform="translate(481.152344 0)"/>
    </g>
   </g>
   <g id="text_8">
    <!-- $\mathbf{w}_r$ -->
    <g transform="translate(526.847727 78.63316) scale(0.09 -0.09)">
     <defs>
      <path id="DejaVuSans-Bold-77" d="M 225 3500 
L 1313 3500 
L 1900 1088 
L 2491 3500 
L 3425 3500 
L 4013 1113 
L 4603 3500 
L 5691 3500 
L 4769 0 
L 3547 0 
L 2956 2406 
L 2369 0 
L 1147 0 
L 225 3500 
z
" transform="scale(0.015625)"/>
      <path id="DejaVuSans-Oblique-72" d="M 2853 2969 
Q 2766 3016 2653 3041 
Q 2541 3066 2413 3066 
Q 1953 3066 1609 2717 
Q 1266 2369 1153 1784 
L 800 0 
L 225 0 
L 909 3500 
L 1484 3500 
L 1375 2956 
Q 1603 3259 1920 3421 
Q 2238 3584 2597 3584 
Q 2691 3584 2781 3573 
Q 2872 3563 2963 3538 
L 2853 2969 
z
" transform="scale(0.015625)"/>
     </defs>
     <use xlink:href="#DejaVuSans-Bold-77" transform="translate(0 0.3125)"/>
     <use xlink:href="#DejaVuSans-Oblique-72" transform="translate(93.339844 -16.09375) scale(0.7)"/>
    </g>
    <!-- features -->
    <g transform="translate(513.884212 88.711191) scale(0.09 -0.09)">
     <use xlink:href="#DejaVuSans-66"/>
     <use xlink:href="#DejaVuSans-65" transform="translate(35.205078 0)"/>
     <use xlink:href="#DejaVuSans-61" transform="translate(96.728516 0)"/>
     <use xlink:href="#DejaVuSans-74" transform="translate(158.007812 0)"/>
     <use xlink:href="#DejaVuSans-75" transform="translate(197.216797 0)"/>
     <use xlink:href="#DejaVuSans-72" transform="translate(260.595703 0)"/>
     <use xlink:href="#DejaVuSans-65" transform="translate(299.458984 0)"/>
     <use xlink:href="#DejaVuSans-73" transform="translate(360.982422 0)"/>
    </g>
   </g>
   <g id="text_9">
    <!-- $\boldsymbol{\psi}_{r,j}$ -->
    <g transform="translate(524.912727 246.059494) scale(0.09 -0.09)">
     <defs>
      <path id="DejaVuSans-BoldOblique-3c8" d="M 3025 800 
Q 3522 1113 3666 1859 
L 3984 3500 
L 5103 3500 
L 4781 1838 
Q 4463 200 2872 0 
L 2613 -1331 
L 1500 -1331 
L 1759 0 
Q 506 166 506 1313 
Q 506 1553 563 1838 
L 884 3500 
L 2003 3500 
L 1684 1859 
Q 1644 1650 1644 1475 
Q 1644 1025 1913 800 
L 2438 3500 
L 3550 3500 
L 3025 800 
z
" transform="scale(0.015625)"/>
      <path id="DejaVuSans-2c" d="M 750 794 
L 1409 794 
L 1409 256 
L 897 -744 
L 494 -744 
L 750 256 
L 750 794 
z
" transform="scale(0.015625)"/>
     </defs>
     <use xlink:href="#DejaVuSans-BoldOblique-3c8" transform="translate(0 0.3125)"/>
     <use xlink:href="#DejaVuSans-Oblique-72" transform="translate(80.351562 -16.09375) scale(0.7)"/>
     <use xlink:href="#DejaVuSans-2c" transform="translate(109.130859 -16.09375) scale(0.7)"/>
     <use xlink:href="#DejaVuSans-Oblique-6a" transform="translate(145.019531 -16.09375) scale(0.7)"/>
    </g>
    <!-- subjective probs -->
    <g transform="translate(495.489759 257.055806) scale(0.09 -0.09)">
     <defs>
      <path id="DejaVuSans-6a" d="M 603 3500 
L 1178 3500 
L 1178 -63 
Q 1178 -731 923 -1031 
Q 669 -1331 103 -1331 
L -116 -1331 
L -116 -844 
L 38 -844 
Q 366 -844 484 -692 
Q 603 -541 603 -63 
L 603 3500 
z
M 603 4863 
L 1178 4863 
L 1178 4134 
L 603 4134 
L 603 4863 
z
" transform="scale(0.015625)"/>
     </defs>
     <use xlink:href="#DejaVuSans-73"/>
     <use xlink:href="#DejaVuSans-75" transform="translate(52.099609 0)"/>
     <use xlink:href="#DejaVuSans-62" transform="translate(115.478516 0)"/>
     <use xlink:href="#DejaVuSans-6a" transform="translate(178.955078 0)"/>
     <use xlink:href="#DejaVuSans-65" transform="translate(206.738281 0)"/>
     <use xlink:href="#DejaVuSans-63" transform="translate(268.261719 0)"/>
     <use xlink:href="#DejaVuSans-74" transform="translate(323.242188 0)"/>
     <use xlink:href="#DejaVuSans-69" transform="translate(362.451172 0)"/>
     <use xlink:href="#DejaVuSans-76" transform="translate(390.234375 0)"/>
     <use xlink:href="#DejaVuSans-65" transform="translate(449.414062 0)"/>
     <use xlink:href="#DejaVuSans-20" transform="translate(510.9375 0)"/>
     <use xlink:href="#DejaVuSans-70" transform="translate(542.724609 0)"/>
     <use xlink:href="#DejaVuSans-72" transform="translate(606.201172 0)"/>
     <use xlink:href="#DejaVuSans-6f" transform="translate(645.064453 0)"/>
     <use xlink:href="#DejaVuSans-62" transform="translate(706.246094 0)"/>
     <use xlink:href="#DejaVuSans-73" transform="translate(769.722656 0)"/>
    </g>
   </g>
   <g id="text_10">
    <!-- $\boldsymbol{\delta}$ -->
    <g transform="translate(707.960455 150.780852) scale(0.09 -0.09)">
     <defs>
      <path id="DejaVuSans-BoldOblique-3b4" d="M 3913 3950 
Q 3572 4169 2575 4169 
Q 2044 4169 1984 3863 
Q 1981 3841 1981 3822 
Q 1981 3563 2634 3463 
Q 4038 3244 4038 2159 
Q 4038 1963 3994 1734 
Q 3828 888 3222 400 
Q 2613 -91 1719 -91 
Q 822 -91 403 400 
Q 100 750 100 1288 
Q 100 2253 884 2900 
Q 1075 3056 1294 3156 
Q 959 3356 959 3722 
Q 959 3806 978 3900 
Q 1175 4913 2825 4913 
Q 3653 4913 4056 4694 
L 3913 3950 
z
M 2003 2750 
Q 1825 2681 1659 2506 
Q 1400 2234 1306 1744 
Q 1269 1553 1269 1350 
Q 1269 1147 1359 978 
Q 1513 703 1866 703 
Q 2222 703 2481 981 
Q 2744 1263 2834 1731 
Q 2866 1888 2866 2084 
Q 2866 2278 2747 2431 
Q 2572 2669 2269 2703 
Q 2128 2719 2003 2750 
z
" transform="scale(0.015625)"/>
     </defs>
     <use xlink:href="#DejaVuSans-BoldOblique-3b4" transform="translate(0 0.234375)"/>
    </g>
    <!-- increments -->
    <g transform="translate(685.859126 160.858883) scale(0.09 -0.09)">
     <use xlink:href="#DejaVuSans-69"/>
     <use xlink:href="#DejaVuSans-6e" transform="translate(27.783203 0)"/>
     <use xlink:href="#DejaVuSans-63" transform="translate(91.162109 0)"/>
     <use xlink:href="#DejaVuSans-72" transform="translate(146.142578 0)"/>
     <use xlink:href="#DejaVuSans-65" transform="translate(185.005859 0)"/>
     <use xlink:href="#DejaVuSans-6d" transform="translate(246.529297 0)"/>
     <use xlink:href="#DejaVuSans-65" transform="translate(343.941406 0)"/>
     <use xlink:href="#DejaVuSans-6e" transform="translate(405.464844 0)"/>
     <use xlink:href="#DejaVuSans-74" transform="translate(468.84375 0)"/>
     <use xlink:href="#DejaVuSans-73" transform="translate(508.052734 0)"/>
    </g>
   </g>
   <g id="text_11">
    <!-- $\boldsymbol{\upsilon}$ -->
    <g transform="translate(708.005455 246.977775) scale(0.09 -0.09)">
     <defs>
      <path id="DejaVuSans-BoldOblique-3c5" d="M 2991 2000 
Q 3059 2353 3059 2497 
Q 3059 3228 2797 3500 
L 3656 3500 
Q 3963 3203 4088 2706 
Q 4125 2566 4125 2391 
Q 4125 2213 4081 1994 
Q 3891 1006 3381 472 
Q 2875 -63 1781 -63 
Q 869 -63 609 175 
Q 347 409 347 806 
Q 347 953 381 1122 
L 844 3500 
L 1963 3500 
L 1491 1078 
Q 1478 1003 1478 909 
Q 1478 813 1556 728 
Q 1638 641 1969 641 
Q 2303 641 2669 1059 
Q 2847 1259 2991 2000 
z
" transform="scale(0.015625)"/>
     </defs>
     <use xlink:href="#DejaVuSans-BoldOblique-3c5" transform="translate(0 0.3125)"/>
    </g>
    <!-- utilities -->
    <g transform="translate(694.571548 257.055806) scale(0.09 -0.09)">
     <use xlink:href="#DejaVuSans-75"/>
     <use xlink:href="#DejaVuSans-74" transform="translate(63.378906 0)"/>
     <use xlink:href="#DejaVuSans-69" transform="translate(102.587891 0)"/>
     <use xlink:href="#DejaVuSans-6c" transform="translate(130.371094 0)"/>
     <use xlink:href="#DejaVuSans-69" transform="translate(158.154297 0)"/>
     <use xlink:href="#DejaVuSans-74" transform="translate(185.9375 0)"/>
     <use xlink:href="#DejaVuSans-69" transform="translate(225.146484 0)"/>
     <use xlink:href="#DejaVuSans-65" transform="translate(252.929688 0)"/>
     <use xlink:href="#DejaVuSans-73" transform="translate(314.453125 0)"/>
    </g>
   </g>
   <g id="text_12">
    <!-- $\eta_{r,m}$ -->
    <g transform="translate(365.935909 342.796417) scale(0.09 -0.09)">
     <defs>
      <path id="DejaVuSans-Oblique-3b7" d="M 3703 2113 
L 3034 -1331 
L 2459 -1331 
L 3125 2094 
Q 3222 2591 3075 2838 
Q 2931 3084 2544 3084 
Q 2078 3084 1750 2788 
Q 1425 2491 1325 1978 
L 941 0 
L 363 0 
L 1044 3500 
L 1622 3500 
L 1516 2956 
Q 1781 3272 2094 3428 
Q 2403 3584 2769 3584 
Q 3372 3584 3609 3213 
Q 3844 2838 3703 2113 
z
" transform="scale(0.015625)"/>
      <path id="DejaVuSans-Oblique-6d" d="M 5747 2113 
L 5338 0 
L 4763 0 
L 5166 2094 
Q 5191 2228 5203 2325 
Q 5216 2422 5216 2491 
Q 5216 2772 5059 2928 
Q 4903 3084 4622 3084 
Q 4203 3084 3875 2770 
Q 3547 2456 3450 1953 
L 3066 0 
L 2491 0 
L 2900 2094 
Q 2925 2209 2937 2307 
Q 2950 2406 2950 2484 
Q 2950 2769 2794 2926 
Q 2638 3084 2363 3084 
Q 1938 3084 1609 2770 
Q 1281 2456 1184 1953 
L 800 0 
L 225 0 
L 909 3500 
L 1484 3500 
L 1375 2956 
Q 1609 3263 1923 3423 
Q 2238 3584 2597 3584 
Q 2978 3584 3223 3384 
Q 3469 3184 3519 2828 
Q 3781 3197 4126 3390 
Q 4472 3584 4856 3584 
Q 5306 3584 5551 3325 
Q 5797 3066 5797 2591 
Q 5797 2488 5784 2364 
Q 5772 2241 5747 2113 
z
" transform="scale(0.015625)"/>
     </defs>
     <use xlink:href="#DejaVuSans-Oblique-3b7"/>
     <use xlink:href="#DejaVuSans-Oblique-72" transform="translate(63.378906 -16.40625) scale(0.7)"/>
     <use xlink:href="#DejaVuSans-2c" transform="translate(92.158203 -16.40625) scale(0.7)"/>
     <use xlink:href="#DejaVuSans-Oblique-6d" transform="translate(128.046875 -16.40625) scale(0.7)"/>
    </g>
    <!-- expected utilities -->
    <g transform="translate(330.598253 353.25273) scale(0.09 -0.09)">
     <defs>
      <path id="DejaVuSans-Bold-78" d="M 1422 1791 
L 159 3500 
L 1344 3500 
L 2059 2463 
L 2784 3500 
L 3969 3500 
L 2706 1797 
L 4031 0 
L 2847 0 
L 2059 1106 
L 1281 0 
L 97 0 
L 1422 1791 
z
" transform="scale(0.015625)"/>
      <path id="DejaVuSans-Bold-70" d="M 1656 506 
L 1656 -1331 
L 538 -1331 
L 538 3500 
L 1656 3500 
L 1656 2988 
Q 1888 3294 2169 3439 
Q 2450 3584 2816 3584 
Q 3463 3584 3878 3070 
Q 4294 2556 4294 1747 
Q 4294 938 3878 423 
Q 3463 -91 2816 -91 
Q 2450 -91 2169 54 
Q 1888 200 1656 506 
z
M 2400 2772 
Q 2041 2772 1848 2508 
Q 1656 2244 1656 1747 
Q 1656 1250 1848 986 
Q 2041 722 2400 722 
Q 2759 722 2948 984 
Q 3138 1247 3138 1747 
Q 3138 2247 2948 2509 
Q 2759 2772 2400 2772 
z
" transform="scale(0.015625)"/>
      <path id="DejaVuSans-Bold-64" d="M 2919 2988 
L 2919 4863 
L 4044 4863 
L 4044 0 
L 2919 0 
L 2919 506 
Q 2688 197 2409 53 
Q 2131 -91 1766 -91 
Q 1119 -91 703 423 
Q 288 938 288 1747 
Q 288 2556 703 3070 
Q 1119 3584 1766 3584 
Q 2128 3584 2408 3439 
Q 2688 3294 2919 2988 
z
M 2181 722 
Q 2541 722 2730 984 
Q 2919 1247 2919 1747 
Q 2919 2247 2730 2509 
Q 2541 2772 2181 2772 
Q 1825 2772 1636 2509 
Q 1447 2247 1447 1747 
Q 1447 1247 1636 984 
Q 1825 722 2181 722 
z
" transform="scale(0.015625)"/>
      <path id="DejaVuSans-Bold-75" d="M 500 1363 
L 500 3500 
L 1625 3500 
L 1625 3150 
Q 1625 2866 1622 2436 
Q 1619 2006 1619 1863 
Q 1619 1441 1641 1255 
Q 1663 1069 1716 984 
Q 1784 875 1895 815 
Q 2006 756 2150 756 
Q 2500 756 2700 1025 
Q 2900 1294 2900 1772 
L 2900 3500 
L 4019 3500 
L 4019 0 
L 2900 0 
L 2900 506 
Q 2647 200 2364 54 
Q 2081 -91 1741 -91 
Q 1134 -91 817 281 
Q 500 653 500 1363 
z
" transform="scale(0.015625)"/>
     </defs>
     <use xlink:href="#DejaVuSans-Bold-65"/>
     <use xlink:href="#DejaVuSans-Bold-78" transform="translate(67.822266 0)"/>
     <use xlink:href="#DejaVuSans-Bold-70" transform="translate(132.324219 0)"/>
     <use xlink:href="#DejaVuSans-Bold-65" transform="translate(203.90625 0)"/>
     <use xlink:href="#DejaVuSans-Bold-63" transform="translate(271.728516 0)"/>
     <use xlink:href="#DejaVuSans-Bold-74" transform="translate(331.005859 0)"/>
     <use xlink:href="#DejaVuSans-Bold-65" transform="translate(378.808594 0)"/>
     <use xlink:href="#DejaVuSans-Bold-64" transform="translate(446.630859 0)"/>
     <use xlink:href="#DejaVuSans-Bold-20" transform="translate(518.212891 0)"/>
     <use xlink:href="#DejaVuSans-Bold-75" transform="translate(553.027344 0)"/>
     <use xlink:href="#DejaVuSans-Bold-74" transform="translate(624.21875 0)"/>
     <use xlink:href="#DejaVuSans-Bold-69" transform="translate(672.021484 0)"/>
     <use xlink:href="#DejaVuSans-Bold-6c" transform="translate(706.298828 0)"/>
     <use xlink:href="#DejaVuSans-Bold-69" transform="translate(740.576172 0)"/>
     <use xlink:href="#DejaVuSans-Bold-74" transform="translate(774.853516 0)"/>
     <use xlink:href="#DejaVuSans-Bold-69" transform="translate(822.65625 0)"/>
     <use xlink:href="#DejaVuSans-Bold-65" transform="translate(856.933594 0)"/>
     <use xlink:href="#DejaVuSans-Bold-73" transform="translate(924.755859 0)"/>
    </g>
   </g>
   <g id="text_13">
    <!-- $P(y_m | \alpha_{\mathrm{cell}[m]}, \eta)$ -->
    <g transform="translate(604.722273 342.951105) scale(0.09 -0.09)">
     <defs>
      <path id="DejaVuSans-Oblique-50" d="M 1081 4666 
L 2541 4666 
Q 3178 4666 3512 4369 
Q 3847 4072 3847 3500 
Q 3847 2731 3353 2303 
Q 2859 1875 1966 1875 
L 1172 1875 
L 806 0 
L 172 0 
L 1081 4666 
z
M 1613 4147 
L 1275 2394 
L 2069 2394 
Q 2606 2394 2893 2669 
Q 3181 2944 3181 3456 
Q 3181 3784 2986 3965 
Q 2791 4147 2438 4147 
L 1613 4147 
z
" transform="scale(0.015625)"/>
      <path id="DejaVuSans-Oblique-79" d="M 1588 -325 
Q 1188 -997 936 -1164 
Q 684 -1331 294 -1331 
L -159 -1331 
L -63 -850 
L 269 -850 
Q 509 -850 678 -719 
Q 847 -588 1056 -206 
L 1234 128 
L 459 3500 
L 1069 3500 
L 1650 819 
L 3256 3500 
L 3859 3500 
L 1588 -325 
z
" transform="scale(0.015625)"/>
      <path id="DejaVuSans-7c" d="M 1344 4891 
L 1344 -1509 
L 813 -1509 
L 813 4891 
L 1344 4891 
z
" transform="scale(0.015625)"/>
      <path id="DejaVuSans-5b" d="M 550 4863 
L 1875 4863 
L 1875 4416 
L 1125 4416 
L 1125 -397 
L 1875 -397 
L 1875 -844 
L 550 -844 
L 550 4863 
z
" transform="scale(0.015625)"/>
      <path id="DejaVuSans-5d" d="M 1947 4863 
L 1947 -844 
L 622 -844 
L 622 -397 
L 1369 -397 
L 1369 4416 
L 622 4416 
L 622 4863 
L 1947 4863 
z
" transform="scale(0.015625)"/>
     </defs>
     <use xlink:href="#DejaVuSans-Oblique-50" transform="translate(0 0.578125)"/>
     <use xlink:href="#DejaVuSans-28" transform="translate(60.302734 0.578125)"/>
     <use xlink:href="#DejaVuSans-Oblique-79" transform="translate(99.316406 0.578125)"/>
     <use xlink:href="#DejaVuSans-Oblique-6d" transform="translate(158.496094 -15.828125) scale(0.7)"/>
     <use xlink:href="#DejaVuSans-7c" transform="translate(229.418945 0.578125)"/>
     <use xlink:href="#DejaVuSans-Oblique-3b1" transform="translate(263.110352 0.578125)"/>
     <use xlink:href="#DejaVuSans-63" transform="translate(329.02832 -15.828125) scale(0.7)"/>
     <use xlink:href="#DejaVuSans-65" transform="translate(367.514648 -15.828125) scale(0.7)"/>
     <use xlink:href="#DejaVuSans-6c" transform="translate(410.581055 -15.828125) scale(0.7)"/>
     <use xlink:href="#DejaVuSans-6c" transform="translate(430.029297 -15.828125) scale(0.7)"/>
     <use xlink:href="#DejaVuSans-5b" transform="translate(449.477539 -15.828125) scale(0.7)"/>
     <use xlink:href="#DejaVuSans-Oblique-6d" transform="translate(476.787109 -15.828125) scale(0.7)"/>
     <use xlink:href="#DejaVuSans-5d" transform="translate(544.975586 -15.828125) scale(0.7)"/>
     <use xlink:href="#DejaVuSans-2c" transform="translate(575.019531 0.578125)"/>
     <use xlink:href="#DejaVuSans-Oblique-3b7" transform="translate(626.289062 0.578125)"/>
     <use xlink:href="#DejaVuSans-29" transform="translate(689.667969 0.578125)"/>
    </g>
    <!-- choice probability -->
    <g transform="translate(592.012585 353.497417) scale(0.09 -0.09)">
     <defs>
      <path id="DejaVuSans-Bold-68" d="M 4056 2131 
L 4056 0 
L 2931 0 
L 2931 347 
L 2931 1625 
Q 2931 2084 2911 2256 
Q 2891 2428 2841 2509 
Q 2775 2619 2662 2680 
Q 2550 2741 2406 2741 
Q 2056 2741 1856 2470 
Q 1656 2200 1656 1722 
L 1656 0 
L 538 0 
L 538 4863 
L 1656 4863 
L 1656 2988 
Q 1909 3294 2193 3439 
Q 2478 3584 2822 3584 
Q 3428 3584 3742 3212 
Q 4056 2841 4056 2131 
z
" transform="scale(0.015625)"/>
      <path id="DejaVuSans-Bold-6f" d="M 2203 2784 
Q 1831 2784 1636 2517 
Q 1441 2250 1441 1747 
Q 1441 1244 1636 976 
Q 1831 709 2203 709 
Q 2569 709 2762 976 
Q 2956 1244 2956 1747 
Q 2956 2250 2762 2517 
Q 2569 2784 2203 2784 
z
M 2203 3584 
Q 3106 3584 3614 3096 
Q 4122 2609 4122 1747 
Q 4122 884 3614 396 
Q 3106 -91 2203 -91 
Q 1297 -91 786 396 
Q 275 884 275 1747 
Q 275 2609 786 3096 
Q 1297 3584 2203 3584 
z
" transform="scale(0.015625)"/>
      <path id="DejaVuSans-Bold-72" d="M 3138 2547 
Q 2991 2616 2845 2648 
Q 2700 2681 2553 2681 
Q 2122 2681 1889 2404 
Q 1656 2128 1656 1613 
L 1656 0 
L 538 0 
L 538 3500 
L 1656 3500 
L 1656 2925 
Q 1872 3269 2151 3426 
Q 2431 3584 2822 3584 
Q 2878 3584 2943 3579 
Q 3009 3575 3134 3559 
L 3138 2547 
z
" transform="scale(0.015625)"/>
      <path id="DejaVuSans-Bold-62" d="M 2400 722 
Q 2759 722 2948 984 
Q 3138 1247 3138 1747 
Q 3138 2247 2948 2509 
Q 2759 2772 2400 2772 
Q 2041 2772 1848 2508 
Q 1656 2244 1656 1747 
Q 1656 1250 1848 986 
Q 2041 722 2400 722 
z
M 1656 2988 
Q 1888 3294 2169 3439 
Q 2450 3584 2816 3584 
Q 3463 3584 3878 3070 
Q 4294 2556 4294 1747 
Q 4294 938 3878 423 
Q 3463 -91 2816 -91 
Q 2450 -91 2169 54 
Q 1888 200 1656 506 
L 1656 0 
L 538 0 
L 538 4863 
L 1656 4863 
L 1656 2988 
z
" transform="scale(0.015625)"/>
      <path id="DejaVuSans-Bold-61" d="M 2106 1575 
Q 1756 1575 1579 1456 
Q 1403 1338 1403 1106 
Q 1403 894 1545 773 
Q 1688 653 1941 653 
Q 2256 653 2472 879 
Q 2688 1106 2688 1447 
L 2688 1575 
L 2106 1575 
z
M 3816 1997 
L 3816 0 
L 2688 0 
L 2688 519 
Q 2463 200 2181 54 
Q 1900 -91 1497 -91 
Q 953 -91 614 226 
Q 275 544 275 1050 
Q 275 1666 698 1953 
Q 1122 2241 2028 2241 
L 2688 2241 
L 2688 2328 
Q 2688 2594 2478 2717 
Q 2269 2841 1825 2841 
Q 1466 2841 1156 2769 
Q 847 2697 581 2553 
L 581 3406 
Q 941 3494 1303 3539 
Q 1666 3584 2028 3584 
Q 2975 3584 3395 3211 
Q 3816 2838 3816 1997 
z
" transform="scale(0.015625)"/>
     </defs>
     <use xlink:href="#DejaVuSans-Bold-63"/>
     <use xlink:href="#DejaVuSans-Bold-68" transform="translate(59.277344 0)"/>
     <use xlink:href="#DejaVuSans-Bold-6f" transform="translate(130.46875 0)"/>
     <use xlink:href="#DejaVuSans-Bold-69" transform="translate(199.169922 0)"/>
     <use xlink:href="#DejaVuSans-Bold-63" transform="translate(233.447266 0)"/>
     <use xlink:href="#DejaVuSans-Bold-65" transform="translate(292.724609 0)"/>
     <use xlink:href="#DejaVuSans-Bold-20" transform="translate(360.546875 0)"/>
     <use xlink:href="#DejaVuSans-Bold-70" transform="translate(395.361328 0)"/>
     <use xlink:href="#DejaVuSans-Bold-72" transform="translate(466.943359 0)"/>
     <use xlink:href="#DejaVuSans-Bold-6f" transform="translate(516.259766 0)"/>
     <use xlink:href="#DejaVuSans-Bold-62" transform="translate(584.960938 0)"/>
     <use xlink:href="#DejaVuSans-Bold-61" transform="translate(656.542969 0)"/>
     <use xlink:href="#DejaVuSans-Bold-62" transform="translate(724.023438 0)"/>
     <use xlink:href="#DejaVuSans-Bold-69" transform="translate(795.605469 0)"/>
     <use xlink:href="#DejaVuSans-Bold-6c" transform="translate(829.882812 0)"/>
     <use xlink:href="#DejaVuSans-Bold-69" transform="translate(864.160156 0)"/>
     <use xlink:href="#DejaVuSans-Bold-74" transform="translate(898.4375 0)"/>
     <use xlink:href="#DejaVuSans-Bold-79" transform="translate(946.240234 0)"/>
    </g>
   </g>
   <g id="text_14">
    <!-- Regression (new) -->
    <g style="fill: #2874a6" transform="translate(161.28 45.114892) scale(0.1 -0.1)">
     <defs>
      <path id="DejaVuSans-Oblique-52" d="M 1613 4147 
L 1294 2491 
L 2106 2491 
Q 2584 2491 2879 2755 
Q 3175 3019 3175 3444 
Q 3175 3784 2976 3965 
Q 2778 4147 2406 4147 
L 1613 4147 
z
M 2772 2241 
Q 2972 2194 3105 2009 
Q 3238 1825 3413 1275 
L 3809 0 
L 3144 0 
L 2778 1197 
Q 2638 1659 2453 1815 
Q 2269 1972 1888 1972 
L 1191 1972 
L 806 0 
L 172 0 
L 1081 4666 
L 2503 4666 
Q 3150 4666 3495 4373 
Q 3841 4081 3841 3531 
Q 3841 3044 3547 2687 
Q 3253 2331 2772 2241 
z
" transform="scale(0.015625)"/>
      <path id="DejaVuSans-Oblique-65" d="M 3078 2063 
Q 3088 2113 3092 2166 
Q 3097 2219 3097 2272 
Q 3097 2653 2873 2875 
Q 2650 3097 2266 3097 
Q 1838 3097 1509 2826 
Q 1181 2556 1013 2059 
L 3078 2063 
z
M 3578 1613 
L 903 1613 
Q 884 1494 878 1425 
Q 872 1356 872 1306 
Q 872 872 1139 634 
Q 1406 397 1894 397 
Q 2269 397 2603 481 
Q 2938 566 3225 728 
L 3116 159 
Q 2806 34 2476 -28 
Q 2147 -91 1806 -91 
Q 1078 -91 686 257 
Q 294 606 294 1247 
Q 294 1794 489 2264 
Q 684 2734 1063 3103 
Q 1306 3334 1642 3459 
Q 1978 3584 2356 3584 
Q 2950 3584 3301 3228 
Q 3653 2872 3653 2272 
Q 3653 2128 3634 1964 
Q 3616 1800 3578 1613 
z
" transform="scale(0.015625)"/>
      <path id="DejaVuSans-Oblique-67" d="M 3816 3500 
L 3219 434 
Q 3047 -456 2561 -893 
Q 2075 -1331 1253 -1331 
Q 950 -1331 690 -1286 
Q 431 -1241 206 -1147 
L 313 -588 
Q 525 -725 762 -790 
Q 1000 -856 1269 -856 
Q 1816 -856 2167 -557 
Q 2519 -259 2631 300 
L 2681 563 
Q 2441 288 2122 144 
Q 1803 0 1434 0 
Q 903 0 598 351 
Q 294 703 294 1319 
Q 294 1803 478 2267 
Q 663 2731 997 3091 
Q 1219 3328 1514 3456 
Q 1809 3584 2131 3584 
Q 2484 3584 2746 3420 
Q 3009 3256 3138 2956 
L 3238 3500 
L 3816 3500 
z
M 2950 2216 
Q 2950 2641 2750 2872 
Q 2550 3103 2181 3103 
Q 1953 3103 1747 3012 
Q 1541 2922 1394 2759 
Q 1156 2491 1023 2127 
Q 891 1763 891 1375 
Q 891 944 1092 712 
Q 1294 481 1672 481 
Q 2219 481 2584 976 
Q 2950 1472 2950 2216 
z
" transform="scale(0.015625)"/>
      <path id="DejaVuSans-Oblique-73" d="M 3200 3397 
L 3091 2853 
Q 2863 2978 2609 3040 
Q 2356 3103 2088 3103 
Q 1634 3103 1373 2948 
Q 1113 2794 1113 2528 
Q 1113 2219 1719 2053 
Q 1766 2041 1788 2034 
L 1972 1978 
Q 2547 1819 2739 1644 
Q 2931 1469 2931 1166 
Q 2931 609 2489 259 
Q 2047 -91 1331 -91 
Q 1053 -91 747 -37 
Q 441 16 72 128 
L 184 722 
Q 500 559 806 475 
Q 1113 391 1394 391 
Q 1816 391 2080 572 
Q 2344 753 2344 1031 
Q 2344 1331 1650 1516 
L 1591 1531 
L 1394 1581 
Q 956 1697 753 1886 
Q 550 2075 550 2369 
Q 550 2928 970 3256 
Q 1391 3584 2113 3584 
Q 2397 3584 2667 3537 
Q 2938 3491 3200 3397 
z
" transform="scale(0.015625)"/>
      <path id="DejaVuSans-Oblique-69" d="M 1172 4863 
L 1747 4863 
L 1606 4134 
L 1031 4134 
L 1172 4863 
z
M 909 3500 
L 1484 3500 
L 800 0 
L 225 0 
L 909 3500 
z
" transform="scale(0.015625)"/>
      <path id="DejaVuSans-Oblique-6f" d="M 1625 -91 
Q 1009 -91 651 289 
Q 294 669 294 1325 
Q 294 1706 417 2101 
Q 541 2497 738 2766 
Q 1047 3184 1428 3384 
Q 1809 3584 2291 3584 
Q 2888 3584 3255 3212 
Q 3622 2841 3622 2241 
Q 3622 1825 3500 1412 
Q 3378 1000 3181 728 
Q 2875 309 2494 109 
Q 2113 -91 1625 -91 
z
M 891 1344 
Q 891 869 1089 633 
Q 1288 397 1691 397 
Q 2269 397 2648 901 
Q 3028 1406 3028 2181 
Q 3028 2634 2825 2865 
Q 2622 3097 2228 3097 
Q 1903 3097 1650 2945 
Q 1397 2794 1197 2484 
Q 1050 2253 970 1956 
Q 891 1659 891 1344 
z
" transform="scale(0.015625)"/>
      <path id="DejaVuSans-Oblique-6e" d="M 3566 2113 
L 3156 0 
L 2578 0 
L 2988 2091 
Q 3016 2238 3031 2350 
Q 3047 2463 3047 2528 
Q 3047 2791 2881 2937 
Q 2716 3084 2419 3084 
Q 1956 3084 1622 2776 
Q 1288 2469 1184 1941 
L 800 0 
L 225 0 
L 903 3500 
L 1478 3500 
L 1363 2950 
Q 1603 3253 1940 3418 
Q 2278 3584 2650 3584 
Q 3113 3584 3367 3334 
Q 3622 3084 3622 2631 
Q 3622 2519 3608 2391 
Q 3594 2263 3566 2113 
z
" transform="scale(0.015625)"/>
      <path id="DejaVuSans-Oblique-20" transform="scale(0.015625)"/>
      <path id="DejaVuSans-Oblique-28" d="M 2731 4856 
Q 1903 3822 1495 2892 
Q 1088 1963 1088 1100 
Q 1088 606 1206 120 
Q 1325 -366 1563 -844 
L 1063 -844 
Q 775 -306 634 201 
Q 494 709 494 1197 
Q 494 2125 923 3036 
Q 1353 3947 2222 4856 
L 2731 4856 
z
" transform="scale(0.015625)"/>
      <path id="DejaVuSans-Oblique-77" d="M 544 3500 
L 1113 3500 
L 1259 684 
L 2566 3500 
L 3231 3500 
L 3425 684 
L 4666 3500 
L 5241 3500 
L 3641 0 
L 2969 0 
L 2797 2900 
L 1459 0 
L 781 0 
L 544 3500 
z
" transform="scale(0.015625)"/>
      <path id="DejaVuSans-Oblique-29" d="M -397 -844 
Q 434 191 840 1120 
Q 1247 2050 1247 2913 
Q 1247 3406 1130 3892 
Q 1013 4378 775 4856 
L 1275 4856 
Q 1563 4316 1703 3812 
Q 1844 3309 1844 2822 
Q 1844 1891 1411 973 
Q 978 56 116 -844 
L -397 -844 
z
" transform="scale(0.015625)"/>
     </defs>
     <use xlink:href="#DejaVuSans-Oblique-52"/>
     <use xlink:href="#DejaVuSans-Oblique-65" transform="translate(69.482422 0)"/>
     <use xlink:href="#DejaVuSans-Oblique-67" transform="translate(131.005859 0)"/>
     <use xlink:href="#DejaVuSans-Oblique-72" transform="translate(194.482422 0)"/>
     <use xlink:href="#DejaVuSans-Oblique-65" transform="translate(235.595703 0)"/>
     <use xlink:href="#DejaVuSans-Oblique-73" transform="translate(297.119141 0)"/>
     <use xlink:href="#DejaVuSans-Oblique-73" transform="translate(349.21875 0)"/>
     <use xlink:href="#DejaVuSans-Oblique-69" transform="translate(401.318359 0)"/>
     <use xlink:href="#DejaVuSans-Oblique-6f" transform="translate(429.101562 0)"/>
     <use xlink:href="#DejaVuSans-Oblique-6e" transform="translate(490.283203 0)"/>
     <use xlink:href="#DejaVuSans-Oblique-20" transform="translate(553.662109 0)"/>
     <use xlink:href="#DejaVuSans-Oblique-28" transform="translate(585.449219 0)"/>
     <use xlink:href="#DejaVuSans-Oblique-6e" transform="translate(624.462891 0)"/>
     <use xlink:href="#DejaVuSans-Oblique-65" transform="translate(687.841797 0)"/>
     <use xlink:href="#DejaVuSans-Oblique-77" transform="translate(749.365234 0)"/>
     <use xlink:href="#DejaVuSans-Oblique-29" transform="translate(831.152344 0)"/>
    </g>
   </g>
   <g id="text_15">
    <!-- Beliefs (per-cell) -->
    <g style="fill: #2874a6" transform="translate(462.436364 45.114892) scale(0.1 -0.1)">
     <defs>
      <path id="DejaVuSans-Oblique-42" d="M 1081 4666 
L 2694 4666 
Q 3350 4666 3675 4422 
Q 4000 4178 4000 3688 
Q 4000 3238 3720 2911 
Q 3441 2584 2988 2516 
Q 3375 2428 3569 2181 
Q 3763 1934 3763 1522 
Q 3763 819 3242 409 
Q 2722 0 1819 0 
L 172 0 
L 1081 4666 
z
M 1234 2228 
L 903 519 
L 1919 519 
Q 2491 519 2800 781 
Q 3109 1044 3109 1522 
Q 3109 1891 2904 2059 
Q 2700 2228 2247 2228 
L 1234 2228 
z
M 1606 4147 
L 1331 2741 
L 2272 2741 
Q 2775 2741 3058 2959 
Q 3341 3178 3341 3566 
Q 3341 3869 3150 4008 
Q 2959 4147 2541 4147 
L 1606 4147 
z
" transform="scale(0.015625)"/>
      <path id="DejaVuSans-Oblique-6c" d="M 1172 4863 
L 1747 4863 
L 800 0 
L 225 0 
L 1172 4863 
z
" transform="scale(0.015625)"/>
      <path id="DejaVuSans-Oblique-66" d="M 3059 4863 
L 2969 4384 
L 2419 4384 
Q 2106 4384 1964 4261 
Q 1822 4138 1753 3809 
L 1691 3500 
L 2638 3500 
L 2553 3053 
L 1606 3053 
L 1013 0 
L 434 0 
L 1031 3053 
L 481 3053 
L 563 3500 
L 1113 3500 
L 1159 3744 
Q 1278 4363 1576 4613 
Q 1875 4863 2516 4863 
L 3059 4863 
z
" transform="scale(0.015625)"/>
      <path id="DejaVuSans-Oblique-70" d="M 3175 2156 
Q 3175 2616 2975 2859 
Q 2775 3103 2400 3103 
Q 2144 3103 1911 2972 
Q 1678 2841 1497 2591 
Q 1319 2344 1212 1994 
Q 1106 1644 1106 1300 
Q 1106 863 1306 627 
Q 1506 391 1875 391 
Q 2147 391 2380 519 
Q 2613 647 2778 891 
Q 2956 1147 3065 1494 
Q 3175 1841 3175 2156 
z
M 1394 2969 
Q 1625 3272 1939 3428 
Q 2253 3584 2638 3584 
Q 3175 3584 3472 3232 
Q 3769 2881 3769 2247 
Q 3769 1728 3584 1258 
Q 3400 788 3053 416 
Q 2822 169 2531 39 
Q 2241 -91 1919 -91 
Q 1547 -91 1294 64 
Q 1041 219 916 525 
L 556 -1331 
L -19 -1331 
L 922 3500 
L 1497 3500 
L 1394 2969 
z
" transform="scale(0.015625)"/>
      <path id="DejaVuSans-Oblique-2d" d="M 391 2009 
L 2075 2009 
L 1978 1497 
L 288 1497 
L 391 2009 
z
" transform="scale(0.015625)"/>
      <path id="DejaVuSans-Oblique-63" d="M 3431 3366 
L 3316 2797 
Q 3109 2947 2876 3022 
Q 2644 3097 2394 3097 
Q 2119 3097 1870 3000 
Q 1622 2903 1453 2725 
Q 1184 2453 1037 2087 
Q 891 1722 891 1331 
Q 891 859 1127 628 
Q 1363 397 1844 397 
Q 2081 397 2348 469 
Q 2616 541 2906 684 
L 2797 116 
Q 2547 13 2283 -39 
Q 2019 -91 1741 -91 
Q 1044 -91 669 257 
Q 294 606 294 1253 
Q 294 1797 489 2255 
Q 684 2713 1069 3078 
Q 1331 3328 1684 3456 
Q 2038 3584 2456 3584 
Q 2700 3584 2940 3529 
Q 3181 3475 3431 3366 
z
" transform="scale(0.015625)"/>
     </defs>
     <use xlink:href="#DejaVuSans-Oblique-42"/>
     <use xlink:href="#DejaVuSans-Oblique-65" transform="translate(68.603516 0)"/>
     <use xlink:href="#DejaVuSans-Oblique-6c" transform="translate(130.126953 0)"/>
     <use xlink:href="#DejaVuSans-Oblique-69" transform="translate(157.910156 0)"/>
     <use xlink:href="#DejaVuSans-Oblique-65" transform="translate(185.693359 0)"/>
     <use xlink:href="#DejaVuSans-Oblique-66" transform="translate(247.216797 0)"/>
     <use xlink:href="#DejaVuSans-Oblique-73" transform="translate(282.421875 0)"/>
     <use xlink:href="#DejaVuSans-Oblique-20" transform="translate(334.521484 0)"/>
     <use xlink:href="#DejaVuSans-Oblique-28" transform="translate(366.308594 0)"/>
     <use xlink:href="#DejaVuSans-Oblique-70" transform="translate(405.322266 0)"/>
     <use xlink:href="#DejaVuSans-Oblique-65" transform="translate(468.798828 0)"/>
     <use xlink:href="#DejaVuSans-Oblique-72" transform="translate(530.322266 0)"/>
     <use xlink:href="#DejaVuSans-Oblique-2d" transform="translate(565.935547 0)"/>
     <use xlink:href="#DejaVuSans-Oblique-63" transform="translate(602.019531 0)"/>
     <use xlink:href="#DejaVuSans-Oblique-65" transform="translate(657 0)"/>
     <use xlink:href="#DejaVuSans-Oblique-6c" transform="translate(718.523438 0)"/>
     <use xlink:href="#DejaVuSans-Oblique-6c" transform="translate(746.306641 0)"/>
     <use xlink:href="#DejaVuSans-Oblique-29" transform="translate(774.089844 0)"/>
    </g>
   </g>
   <g id="text_16">
    <!-- Utility (shared) -->
    <g style="fill: #2874a6" transform="translate(658.538182 45.114892) scale(0.1 -0.1)">
     <defs>
      <path id="DejaVuSans-Oblique-55" d="M 991 4666 
L 1625 4666 
L 1075 1831 
Q 1041 1641 1027 1517 
Q 1013 1394 1013 1300 
Q 1013 869 1253 645 
Q 1494 422 1959 422 
Q 2563 422 2898 753 
Q 3234 1084 3378 1831 
L 3928 4666 
L 4563 4666 
L 4000 1753 
Q 3816 809 3300 359 
Q 2784 -91 1888 -91 
Q 1188 -91 780 261 
Q 372 613 372 1216 
Q 372 1325 387 1461 
Q 403 1597 434 1753 
L 991 4666 
z
" transform="scale(0.015625)"/>
      <path id="DejaVuSans-Oblique-74" d="M 2706 3500 
L 2619 3053 
L 1472 3053 
L 1100 1153 
Q 1081 1047 1072 975 
Q 1063 903 1063 863 
Q 1063 663 1183 572 
Q 1303 481 1569 481 
L 2150 481 
L 2053 0 
L 1503 0 
Q 991 0 739 200 
Q 488 400 488 806 
Q 488 878 497 964 
Q 506 1050 525 1153 
L 897 3053 
L 409 3053 
L 500 3500 
L 978 3500 
L 1172 4494 
L 1747 4494 
L 1556 3500 
L 2706 3500 
z
" transform="scale(0.015625)"/>
      <path id="DejaVuSans-Oblique-68" d="M 3566 2113 
L 3156 0 
L 2578 0 
L 2988 2091 
Q 3016 2238 3031 2350 
Q 3047 2463 3047 2528 
Q 3047 2791 2881 2937 
Q 2716 3084 2419 3084 
Q 1956 3084 1617 2771 
Q 1278 2459 1178 1941 
L 800 0 
L 225 0 
L 1172 4863 
L 1747 4863 
L 1375 2950 
Q 1594 3244 1934 3414 
Q 2275 3584 2650 3584 
Q 3113 3584 3367 3334 
Q 3622 3084 3622 2631 
Q 3622 2519 3608 2391 
Q 3594 2263 3566 2113 
z
" transform="scale(0.015625)"/>
      <path id="DejaVuSans-Oblique-61" d="M 3438 1997 
L 3047 0 
L 2472 0 
L 2578 531 
Q 2325 219 2001 64 
Q 1678 -91 1281 -91 
Q 834 -91 548 182 
Q 263 456 263 884 
Q 263 1497 752 1853 
Q 1241 2209 2100 2209 
L 2900 2209 
L 2931 2363 
Q 2938 2388 2941 2417 
Q 2944 2447 2944 2509 
Q 2944 2788 2717 2942 
Q 2491 3097 2081 3097 
Q 1800 3097 1504 3025 
Q 1209 2953 897 2809 
L 997 3341 
Q 1322 3463 1633 3523 
Q 1944 3584 2234 3584 
Q 2853 3584 3176 3315 
Q 3500 3047 3500 2534 
Q 3500 2431 3484 2292 
Q 3469 2153 3438 1997 
z
M 2816 1759 
L 2241 1759 
Q 1534 1759 1195 1570 
Q 856 1381 856 984 
Q 856 709 1029 553 
Q 1203 397 1509 397 
Q 1978 397 2328 733 
Q 2678 1069 2791 1631 
L 2816 1759 
z
" transform="scale(0.015625)"/>
      <path id="DejaVuSans-Oblique-64" d="M 2675 525 
Q 2444 222 2128 65 
Q 1813 -91 1428 -91 
Q 903 -91 598 267 
Q 294 625 294 1247 
Q 294 1766 478 2236 
Q 663 2706 1013 3078 
Q 1244 3325 1534 3454 
Q 1825 3584 2144 3584 
Q 2481 3584 2739 3421 
Q 2997 3259 3138 2956 
L 3513 4863 
L 4091 4863 
L 3144 0 
L 2566 0 
L 2675 525 
z
M 891 1350 
Q 891 897 1095 644 
Q 1300 391 1663 391 
Q 1931 391 2161 520 
Q 2391 650 2566 903 
Q 2750 1166 2856 1509 
Q 2963 1853 2963 2188 
Q 2963 2622 2758 2865 
Q 2553 3109 2194 3109 
Q 1922 3109 1687 2981 
Q 1453 2853 1288 2613 
Q 1106 2353 998 2009 
Q 891 1666 891 1350 
z
" transform="scale(0.015625)"/>
     </defs>
     <use xlink:href="#DejaVuSans-Oblique-55"/>
     <use xlink:href="#DejaVuSans-Oblique-74" transform="translate(73.193359 0)"/>
     <use xlink:href="#DejaVuSans-Oblique-69" transform="translate(112.402344 0)"/>
     <use xlink:href="#DejaVuSans-Oblique-6c" transform="translate(140.185547 0)"/>
     <use xlink:href="#DejaVuSans-Oblique-69" transform="translate(167.96875 0)"/>
     <use xlink:href="#DejaVuSans-Oblique-74" transform="translate(195.751953 0)"/>
     <use xlink:href="#DejaVuSans-Oblique-79" transform="translate(234.960938 0)"/>
     <use xlink:href="#DejaVuSans-Oblique-20" transform="translate(294.140625 0)"/>
     <use xlink:href="#DejaVuSans-Oblique-28" transform="translate(325.927734 0)"/>
     <use xlink:href="#DejaVuSans-Oblique-73" transform="translate(364.941406 0)"/>
     <use xlink:href="#DejaVuSans-Oblique-68" transform="translate(417.041016 0)"/>
     <use xlink:href="#DejaVuSans-Oblique-61" transform="translate(480.419922 0)"/>
     <use xlink:href="#DejaVuSans-Oblique-72" transform="translate(541.699219 0)"/>
     <use xlink:href="#DejaVuSans-Oblique-65" transform="translate(582.8125 0)"/>
     <use xlink:href="#DejaVuSans-Oblique-64" transform="translate(644.335938 0)"/>
     <use xlink:href="#DejaVuSans-Oblique-29" transform="translate(707.8125 0)"/>
    </g>
   </g>
   <g id="text_17">
    <!-- Parameter Flow in h_m01 -->
    <g transform="translate(309.651953 17.077969) scale(0.13 -0.13)">
     <defs>
      <path id="DejaVuSans-50" d="M 1259 4147 
L 1259 2394 
L 2053 2394 
Q 2494 2394 2734 2622 
Q 2975 2850 2975 3272 
Q 2975 3691 2734 3919 
Q 2494 4147 2053 4147 
L 1259 4147 
z
M 628 4666 
L 2053 4666 
Q 2838 4666 3239 4311 
Q 3641 3956 3641 3272 
Q 3641 2581 3239 2228 
Q 2838 1875 2053 1875 
L 1259 1875 
L 1259 0 
L 628 0 
L 628 4666 
z
" transform="scale(0.015625)"/>
      <path id="DejaVuSans-46" d="M 628 4666 
L 3309 4666 
L 3309 4134 
L 1259 4134 
L 1259 2759 
L 3109 2759 
L 3109 2228 
L 1259 2228 
L 1259 0 
L 628 0 
L 628 4666 
z
" transform="scale(0.015625)"/>
      <path id="DejaVuSans-77" d="M 269 3500 
L 844 3500 
L 1563 769 
L 2278 3500 
L 2956 3500 
L 3675 769 
L 4391 3500 
L 4966 3500 
L 4050 0 
L 3372 0 
L 2619 2869 
L 1863 0 
L 1184 0 
L 269 3500 
z
" transform="scale(0.015625)"/>
      <path id="DejaVuSans-68" d="M 3513 2113 
L 3513 0 
L 2938 0 
L 2938 2094 
Q 2938 2591 2744 2837 
Q 2550 3084 2163 3084 
Q 1697 3084 1428 2787 
Q 1159 2491 1159 1978 
L 1159 0 
L 581 0 
L 581 4863 
L 1159 4863 
L 1159 2956 
Q 1366 3272 1645 3428 
Q 1925 3584 2291 3584 
Q 2894 3584 3203 3211 
Q 3513 2838 3513 2113 
z
" transform="scale(0.015625)"/>
      <path id="DejaVuSans-5f" d="M 3263 -1063 
L 3263 -1509 
L -63 -1509 
L -63 -1063 
L 3263 -1063 
z
" transform="scale(0.015625)"/>
      <path id="DejaVuSans-31" d="M 794 531 
L 1825 531 
L 1825 4091 
L 703 3866 
L 703 4441 
L 1819 4666 
L 2450 4666 
L 2450 531 
L 3481 531 
L 3481 0 
L 794 0 
L 794 531 
z
" transform="scale(0.015625)"/>
     </defs>
     <use xlink:href="#DejaVuSans-50"/>
     <use xlink:href="#DejaVuSans-61" transform="translate(55.802734 0)"/>
     <use xlink:href="#DejaVuSans-72" transform="translate(117.082031 0)"/>
     <use xlink:href="#DejaVuSans-61" transform="translate(158.195312 0)"/>
     <use xlink:href="#DejaVuSans-6d" transform="translate(219.474609 0)"/>
     <use xlink:href="#DejaVuSans-65" transform="translate(316.886719 0)"/>
     <use xlink:href="#DejaVuSans-74" transform="translate(378.410156 0)"/>
     <use xlink:href="#DejaVuSans-65" transform="translate(417.619141 0)"/>
     <use xlink:href="#DejaVuSans-72" transform="translate(479.142578 0)"/>
     <use xlink:href="#DejaVuSans-20" transform="translate(520.255859 0)"/>
     <use xlink:href="#DejaVuSans-46" transform="translate(552.042969 0)"/>
     <use xlink:href="#DejaVuSans-6c" transform="translate(609.5625 0)"/>
     <use xlink:href="#DejaVuSans-6f" transform="translate(637.345703 0)"/>
     <use xlink:href="#DejaVuSans-77" transform="translate(698.527344 0)"/>
     <use xlink:href="#DejaVuSans-20" transform="translate(780.314453 0)"/>
     <use xlink:href="#DejaVuSans-69" transform="translate(812.101562 0)"/>
     <use xlink:href="#DejaVuSans-6e" transform="translate(839.884766 0)"/>
     <use xlink:href="#DejaVuSans-20" transform="translate(903.263672 0)"/>
     <use xlink:href="#DejaVuSans-68" transform="translate(935.050781 0)"/>
     <use xlink:href="#DejaVuSans-5f" transform="translate(998.429688 0)"/>
     <use xlink:href="#DejaVuSans-6d" transform="translate(1048.429688 0)"/>
     <use xlink:href="#DejaVuSans-30" transform="translate(1145.841797 0)"/>
     <use xlink:href="#DejaVuSans-31" transform="translate(1209.464844 0)"/>
    </g>
   </g>
  </g>
 </g>
 <defs>
  <clipPath id="p007c73b456">
   <rect x="7.2" y="27.077969" width="770.4" height="390.8"/>
  </clipPath>
 </defs>
</svg>
