<?xml version="1.0" encoding="utf-8" standalone="no"?>
<!DOCTYPE svg PUBLIC "-//W3C//DTD SVG 1.1//EN"
  "http://www.w3.org/Graphics/SVG/1.1/DTD/svg11.dtd">
<svg xmlns:xlink="http://www.w3.org/1999/xlink" width="566.254063pt" height="278.602031pt" viewBox="0 0 566.254063 278.602031" xmlns="http://www.w3.org/2000/svg" version="1.1">
 <metadata>
  <rdf:RDF xmlns:dc="http://purl.org/dc/elements/1.1/" xmlns:cc="http://creativecommons.org/ns#" xmlns:rdf="http://www.w3.org/1999/02/22-rdf-syntax-ns#">
   <cc:Work>
    <dc:type rdf:resource="http://purl.org/dc/dcmitype/StillImage"/>
    <dc:date>2026-03-15T11:38:04.260626</dc:date>
    <dc:format>image/svg+xml</dc:format>
    <dc:creator>
     <cc:Agent>
      <dc:title>Matplotlib v3.10.8, https://matplotlib.org/</dc:title>
     </cc:Agent>
    </dc:creator>
   </cc:Work>
  </rdf:RDF>
 </metadata>
 <defs>
  <style type="text/css">*{stroke-linejoin: round; stroke-linecap: butt}</style>
 </defs>
 <g id="figure_1">
  <g id="patch_1">
   <path d="M 0 278.602031 
L 566.254063 278.602031 
L 566.254063 0 
L 0 0 
z
" style="fill: #ffffff"/>
  </g>
  <g id="axes_1">
   <g id="patch_2">
    <path d="M 57.474063 240.077969 
L 559.054062 240.077969 
L 559.054062 23.077969 
L 57.474063 23.077969 
z
" style="fill: #ffffff"/>
   </g>
   <g id="FillBetweenPolyCollection_1">
    <defs>
     <path id="md87acbf3aa" d="M 80.273153 -48.387699 
L 80.273153 -52.8433 
L 81.798176 -52.93737 
L 83.323199 -53.046472 
L 84.848222 -53.172251 
L 86.373245 -53.316108 
L 87.898267 -53.479171 
L 89.42329 -53.662267 
L 90.948313 -53.865906 
L 92.473336 -54.090274 
L 93.998359 -54.335241 
L 95.523381 -54.600375 
L 97.048404 -54.884969 
L 98.573427 -55.188072 
L 100.09845 -55.508533 
L 101.623473 -55.84504 
L 103.148495 -56.196164 
L 104.673518 -56.560409 
L 106.198541 -56.936245 
L 107.723564 -57.322155 
L 109.248587 -57.716667 
L 110.773609 -58.118387 
L 112.298632 -58.526026 
L 113.823655 -58.938432 
L 115.348678 -59.354612 
L 116.873701 -59.773761 
L 118.398723 -60.195287 
L 119.923746 -60.618841 
L 121.448769 -61.044339 
L 122.973792 -61.471995 
L 124.498815 -61.902338 
L 126.023838 -62.336237 
L 127.54886 -62.774912 
L 129.073883 -63.219938 
L 130.598906 -63.673242 
L 132.123929 -64.137085 
L 133.648952 -64.614035 
L 135.173974 -65.106924 
L 136.698997 -65.6188 
L 138.22402 -66.152859 
L 139.749043 -66.712377 
L 141.274066 -67.300632 
L 142.799088 -67.920819 
L 144.324111 -68.575968 
L 145.849134 -69.268861 
L 147.374157 -70.001949 
L 148.89918 -70.777275 
L 150.424202 -71.596409 
L 151.949225 -72.460379 
L 153.474248 -73.369622 
L 154.999271 -74.323945 
L 156.524294 -75.32249 
L 158.049316 -76.363725 
L 159.574339 -77.445442 
L 161.099362 -78.564781 
L 162.624385 -79.71827 
L 164.149408 -80.901887 
L 165.67443 -82.111144 
L 167.199453 -83.341204 
L 168.724476 -84.587005 
L 170.249499 -85.843417 
L 171.774522 -87.105406 
L 173.299544 -88.368217 
L 174.824567 -89.627547 
L 176.34959 -90.879727 
L 177.874613 -92.121878 
L 179.399636 -93.352045 
L 180.924658 -94.569305 
L 182.449681 -95.773826 
L 183.974704 -96.966884 
L 185.499727 -98.150828 
L 187.02475 -99.329004 
L 188.549772 -100.505627 
L 190.074795 -101.685612 
L 191.599818 -102.87438 
L 193.124841 -104.077641 
L 194.649864 -105.301167 
L 196.174886 -106.550574 
L 197.699909 -107.83111 
L 199.224932 -109.147477 
L 200.749955 -110.503683 
L 202.274978 -111.902926 
L 203.8 -113.347526 
L 205.325023 -114.838894 
L 206.850046 -116.377535 
L 208.375069 -117.963088 
L 209.900092 -119.594388 
L 211.425114 -121.269555 
L 212.950137 -122.98609 
L 214.47516 -124.740986 
L 216.000183 -126.530839 
L 217.525206 -128.351961 
L 219.050229 -130.200493 
L 220.575251 -132.072515 
L 222.100274 -133.964149 
L 223.625297 -135.871665 
L 225.15032 -137.791571 
L 226.675343 -139.720707 
L 228.200365 -141.656321 
L 229.725388 -143.596146 
L 231.250411 -145.538443 
L 232.775434 -147.482045 
L 234.300457 -149.426367 
L 235.825479 -151.371394 
L 237.350502 -153.317642 
L 238.875525 -155.266094 
L 240.400548 -157.21811 
L 241.925571 -159.17531 
L 243.450593 -161.139452 
L 244.975616 -163.112294 
L 246.500639 -165.095449 
L 248.025662 -167.090264 
L 249.550685 -169.0977 
L 251.075707 -171.118239 
L 252.60073 -173.151826 
L 254.125753 -175.197833 
L 255.650776 -177.255065 
L 257.175799 -179.321791 
L 258.700821 -181.395807 
L 260.225844 -183.47452 
L 261.750867 -185.555051 
L 263.27589 -187.634335 
L 264.800913 -189.709237 
L 266.325935 -191.77665 
L 267.850958 -193.833583 
L 269.375981 -195.877236 
L 270.901004 -197.905051 
L 272.426027 -199.914749 
L 273.951049 -201.904338 
L 275.476072 -203.872115 
L 277.001095 -205.81664 
L 278.526118 -207.736707 
L 280.051141 -209.631296 
L 281.576163 -211.499522 
L 283.101186 -213.340573 
L 284.626209 -215.153647 
L 286.151232 -216.937879 
L 287.676255 -218.692276 
L 289.201277 -220.415645 
L 290.7263 -222.106525 
L 292.251323 -223.763131 
L 293.776346 -225.383305 
L 295.301369 -226.964485 
L 296.826391 -228.503693 
L 298.351414 -229.997551 
L 299.876437 -231.442321 
L 301.40146 -232.833982 
L 302.926483 -234.168322 
L 304.451505 -235.441069 
L 305.976528 -236.648035 
L 307.501551 -237.785269 
L 309.026574 -238.849219 
L 310.551597 -239.836875 
L 312.07662 -240.745903 
L 313.601642 -241.574734 
L 315.126665 -242.322625 
L 316.651688 -242.989665 
L 318.176711 -243.57674 
L 319.701734 -244.085443 
L 321.226756 -244.517941 
L 322.751779 -244.876809 
L 324.276802 -245.164837 
L 325.801825 -245.384822 
L 327.326848 -245.539365 
L 328.85187 -245.630678 
L 330.376893 -245.660426 
L 331.901916 -245.629604 
L 333.426939 -245.538457 
L 334.951962 -245.386461 
L 336.476984 -245.17235 
L 338.002007 -244.894193 
L 339.52703 -244.549516 
L 341.052053 -244.135463 
L 342.577076 -243.648972 
L 344.102098 -243.086971 
L 345.627121 -242.446567 
L 347.152144 -241.725227 
L 348.677167 -240.92093 
L 350.20219 -240.032294 
L 351.727212 -239.058658 
L 353.252235 -238.000133 
L 354.777258 -236.857602 
L 356.302281 -235.632693 
L 357.827304 -234.327715 
L 359.352326 -232.945566 
L 360.877349 -231.489633 
L 362.402372 -229.963669 
L 363.927395 -228.371685 
L 365.452418 -226.717836 
L 366.97744 -225.006325 
L 368.502463 -223.241325 
L 370.027486 -221.426913 
L 371.552509 -219.567034 
L 373.077532 -217.665474 
L 374.602554 -215.725857 
L 376.127577 -213.751649 
L 377.6526 -211.746171 
L 379.177623 -209.712621 
L 380.702646 -207.654087 
L 382.227668 -205.573559 
L 383.752691 -203.473932 
L 385.277714 -201.357999 
L 386.802737 -199.228423 
L 388.32776 -197.087709 
L 389.852782 -194.938148 
L 391.377805 -192.781767 
L 392.902828 -190.620258 
L 394.427851 -188.454908 
L 395.952874 -186.286536 
L 397.477896 -184.115431 
L 399.002919 -181.941305 
L 400.527942 -179.763261 
L 402.052965 -177.579796 
L 403.577988 -175.388817 
L 405.103011 -173.187704 
L 406.628033 -170.973394 
L 408.153056 -168.742507 
L 409.678079 -166.4915 
L 411.203102 -164.216848 
L 412.728125 -161.915242 
L 414.253147 -159.583803 
L 415.77817 -157.220291 
L 417.303193 -154.823301 
L 418.828216 -152.392445 
L 420.353239 -149.928487 
L 421.878261 -147.433443 
L 423.403284 -144.910622 
L 424.928307 -142.364618 
L 426.45333 -139.801239 
L 427.978353 -137.227379 
L 429.503375 -134.650847 
L 431.028398 -132.08015 
L 432.553421 -129.52425 
L 434.078444 -126.992297 
L 435.603467 -124.493373 
L 437.128489 -122.036225 
L 438.653512 -119.629039 
L 440.178535 -117.279236 
L 441.703558 -114.993302 
L 443.228581 -112.77667 
L 444.753603 -110.63364 
L 446.278626 -108.567346 
L 447.803649 -106.579763 
L 449.328672 -104.671747 
L 450.853695 -102.843109 
L 452.378717 -101.092712 
L 453.90374 -99.41859 
L 455.428763 -97.818071 
L 456.953786 -96.287916 
L 458.478809 -94.824458 
L 460.003831 -93.423738 
L 461.528854 -92.08164 
L 463.053877 -90.794016 
L 464.5789 -89.556803 
L 466.103923 -88.366123 
L 467.628945 -87.218375 
L 469.153968 -86.1103 
L 470.678991 -85.039038 
L 472.204014 -84.002154 
L 473.729037 -82.997649 
L 475.254059 -82.023952 
L 476.779082 -81.079882 
L 478.304105 -80.164606 
L 479.829128 -79.277575 
L 481.354151 -78.418449 
L 482.879173 -77.587019 
L 484.404196 -76.783123 
L 485.929219 -76.00657 
L 487.454242 -75.257062 
L 488.979265 -74.534137 
L 490.504287 -73.837111 
L 492.02931 -73.165045 
L 493.554333 -72.516724 
L 495.079356 -71.890644 
L 496.604379 -71.285027 
L 498.129402 -70.69784 
L 499.654424 -70.126827 
L 501.179447 -69.569554 
L 502.70447 -69.023464 
L 504.229493 -68.485936 
L 505.754516 -67.954352 
L 507.279538 -67.426164 
L 508.804561 -66.898967 
L 510.329584 -66.370571 
L 511.854607 -65.839062 
L 513.37963 -65.302873 
L 514.904652 -64.760832 
L 516.429675 -64.212212 
L 517.954698 -63.65676 
L 519.479721 -63.094717 
L 521.004744 -62.526816 
L 522.529766 -61.954272 
L 524.054789 -61.378739 
L 525.579812 -60.802264 
L 527.104835 -60.227219 
L 528.629858 -59.656217 
L 530.15488 -59.092021 
L 531.679903 -58.537448 
L 533.204926 -57.995267 
L 534.729949 -57.468107 
L 536.254972 -56.958364 
L 536.254972 -48.387699 
L 536.254972 -48.387699 
L 534.729949 -48.387699 
L 533.204926 -48.387699 
L 531.679903 -48.387699 
L 530.15488 -48.387699 
L 528.629858 -48.387699 
L 527.104835 -48.387699 
L 525.579812 -48.387699 
L 524.054789 -48.387699 
L 522.529766 -48.387699 
L 521.004744 -48.387699 
L 519.479721 -48.387699 
L 517.954698 -48.387699 
L 516.429675 -48.387699 
L 514.904652 -48.387699 
L 513.37963 -48.387699 
L 511.854607 -48.387699 
L 510.329584 -48.387699 
L 508.804561 -48.387699 
L 507.279538 -48.387699 
L 505.754516 -48.387699 
L 504.229493 -48.387699 
L 502.70447 -48.387699 
L 501.179447 -48.387699 
L 499.654424 -48.387699 
L 498.129402 -48.387699 
L 496.604379 -48.387699 
L 495.079356 -48.387699 
L 493.554333 -48.387699 
L 492.02931 -48.387699 
L 490.504287 -48.387699 
L 488.979265 -48.387699 
L 487.454242 -48.387699 
L 485.929219 -48.387699 
L 484.404196 -48.387699 
L 482.879173 -48.387699 
L 481.354151 -48.387699 
L 479.829128 -48.387699 
L 478.304105 -48.387699 
L 476.779082 -48.387699 
L 475.254059 -48.387699 
L 473.729037 -48.387699 
L 472.204014 -48.387699 
L 470.678991 -48.387699 
L 469.153968 -48.387699 
L 467.628945 -48.387699 
L 466.103923 -48.387699 
L 464.5789 -48.387699 
L 463.053877 -48.387699 
L 461.528854 -48.387699 
L 460.003831 -48.387699 
L 458.478809 -48.387699 
L 456.953786 -48.387699 
L 455.428763 -48.387699 
L 453.90374 -48.387699 
L 452.378717 -48.387699 
L 450.853695 -48.387699 
L 449.328672 -48.387699 
L 447.803649 -48.387699 
L 446.278626 -48.387699 
L 444.753603 -48.387699 
L 443.228581 -48.387699 
L 441.703558 -48.387699 
L 440.178535 -48.387699 
L 438.653512 -48.387699 
L 437.128489 -48.387699 
L 435.603467 -48.387699 
L 434.078444 -48.387699 
L 432.553421 -48.387699 
L 431.028398 -48.387699 
L 429.503375 -48.387699 
L 427.978353 -48.387699 
L 426.45333 -48.387699 
L 424.928307 -48.387699 
L 423.403284 -48.387699 
L 421.878261 -48.387699 
L 420.353239 -48.387699 
L 418.828216 -48.387699 
L 417.303193 -48.387699 
L 415.77817 -48.387699 
L 414.253147 -48.387699 
L 412.728125 -48.387699 
L 411.203102 -48.387699 
L 409.678079 -48.387699 
L 408.153056 -48.387699 
L 406.628033 -48.387699 
L 405.103011 -48.387699 
L 403.577988 -48.387699 
L 402.052965 -48.387699 
L 400.527942 -48.387699 
L 399.002919 -48.387699 
L 397.477896 -48.387699 
L 395.952874 -48.387699 
L 394.427851 -48.387699 
L 392.902828 -48.387699 
L 391.377805 -48.387699 
L 389.852782 -48.387699 
L 388.32776 -48.387699 
L 386.802737 -48.387699 
L 385.277714 -48.387699 
L 383.752691 -48.387699 
L 382.227668 -48.387699 
L 380.702646 -48.387699 
L 379.177623 -48.387699 
L 377.6526 -48.387699 
L 376.127577 -48.387699 
L 374.602554 -48.387699 
L 373.077532 -48.387699 
L 371.552509 -48.387699 
L 370.027486 -48.387699 
L 368.502463 -48.387699 
L 366.97744 -48.387699 
L 365.452418 -48.387699 
L 363.927395 -48.387699 
L 362.402372 -48.387699 
L 360.877349 -48.387699 
L 359.352326 -48.387699 
L 357.827304 -48.387699 
L 356.302281 -48.387699 
L 354.777258 -48.387699 
L 353.252235 -48.387699 
L 351.727212 -48.387699 
L 350.20219 -48.387699 
L 348.677167 -48.387699 
L 347.152144 -48.387699 
L 345.627121 -48.387699 
L 344.102098 -48.387699 
L 342.577076 -48.387699 
L 341.052053 -48.387699 
L 339.52703 -48.387699 
L 338.002007 -48.387699 
L 336.476984 -48.387699 
L 334.951962 -48.387699 
L 333.426939 -48.387699 
L 331.901916 -48.387699 
L 330.376893 -48.387699 
L 328.85187 -48.387699 
L 327.326848 -48.387699 
L 325.801825 -48.387699 
L 324.276802 -48.387699 
L 322.751779 -48.387699 
L 321.226756 -48.387699 
L 319.701734 -48.387699 
L 318.176711 -48.387699 
L 316.651688 -48.387699 
L 315.126665 -48.387699 
L 313.601642 -48.387699 
L 312.07662 -48.387699 
L 310.551597 -48.387699 
L 309.026574 -48.387699 
L 307.501551 -48.387699 
L 305.976528 -48.387699 
L 304.451505 -48.387699 
L 302.926483 -48.387699 
L 301.40146 -48.387699 
L 299.876437 -48.387699 
L 298.351414 -48.387699 
L 296.826391 -48.387699 
L 295.301369 -48.387699 
L 293.776346 -48.387699 
L 292.251323 -48.387699 
L 290.7263 -48.387699 
L 289.201277 -48.387699 
L 287.676255 -48.387699 
L 286.151232 -48.387699 
L 284.626209 -48.387699 
L 283.101186 -48.387699 
L 281.576163 -48.387699 
L 280.051141 -48.387699 
L 278.526118 -48.387699 
L 277.001095 -48.387699 
L 275.476072 -48.387699 
L 273.951049 -48.387699 
L 272.426027 -48.387699 
L 270.901004 -48.387699 
L 269.375981 -48.387699 
L 267.850958 -48.387699 
L 266.325935 -48.387699 
L 264.800913 -48.387699 
L 263.27589 -48.387699 
L 261.750867 -48.387699 
L 260.225844 -48.387699 
L 258.700821 -48.387699 
L 257.175799 -48.387699 
L 255.650776 -48.387699 
L 254.125753 -48.387699 
L 252.60073 -48.387699 
L 251.075707 -48.387699 
L 249.550685 -48.387699 
L 248.025662 -48.387699 
L 246.500639 -48.387699 
L 244.975616 -48.387699 
L 243.450593 -48.387699 
L 241.925571 -48.387699 
L 240.400548 -48.387699 
L 238.875525 -48.387699 
L 237.350502 -48.387699 
L 235.825479 -48.387699 
L 234.300457 -48.387699 
L 232.775434 -48.387699 
L 231.250411 -48.387699 
L 229.725388 -48.387699 
L 228.200365 -48.387699 
L 226.675343 -48.387699 
L 225.15032 -48.387699 
L 223.625297 -48.387699 
L 222.100274 -48.387699 
L 220.575251 -48.387699 
L 219.050229 -48.387699 
L 217.525206 -48.387699 
L 216.000183 -48.387699 
L 214.47516 -48.387699 
L 212.950137 -48.387699 
L 211.425114 -48.387699 
L 209.900092 -48.387699 
L 208.375069 -48.387699 
L 206.850046 -48.387699 
L 205.325023 -48.387699 
L 203.8 -48.387699 
L 202.274978 -48.387699 
L 200.749955 -48.387699 
L 199.224932 -48.387699 
L 197.699909 -48.387699 
L 196.174886 -48.387699 
L 194.649864 -48.387699 
L 193.124841 -48.387699 
L 191.599818 -48.387699 
L 190.074795 -48.387699 
L 188.549772 -48.387699 
L 187.02475 -48.387699 
L 185.499727 -48.387699 
L 183.974704 -48.387699 
L 182.449681 -48.387699 
L 180.924658 -48.387699 
L 179.399636 -48.387699 
L 177.874613 -48.387699 
L 176.34959 -48.387699 
L 174.824567 -48.387699 
L 173.299544 -48.387699 
L 171.774522 -48.387699 
L 170.249499 -48.387699 
L 168.724476 -48.387699 
L 167.199453 -48.387699 
L 165.67443 -48.387699 
L 164.149408 -48.387699 
L 162.624385 -48.387699 
L 161.099362 -48.387699 
L 159.574339 -48.387699 
L 158.049316 -48.387699 
L 156.524294 -48.387699 
L 154.999271 -48.387699 
L 153.474248 -48.387699 
L 151.949225 -48.387699 
L 150.424202 -48.387699 
L 148.89918 -48.387699 
L 147.374157 -48.387699 
L 145.849134 -48.387699 
L 144.324111 -48.387699 
L 142.799088 -48.387699 
L 141.274066 -48.387699 
L 139.749043 -48.387699 
L 138.22402 -48.387699 
L 136.698997 -48.387699 
L 135.173974 -48.387699 
L 133.648952 -48.387699 
L 132.123929 -48.387699 
L 130.598906 -48.387699 
L 129.073883 -48.387699 
L 127.54886 -48.387699 
L 126.023838 -48.387699 
L 124.498815 -48.387699 
L 122.973792 -48.387699 
L 121.448769 -48.387699 
L 119.923746 -48.387699 
L 118.398723 -48.387699 
L 116.873701 -48.387699 
L 115.348678 -48.387699 
L 113.823655 -48.387699 
L 112.298632 -48.387699 
L 110.773609 -48.387699 
L 109.248587 -48.387699 
L 107.723564 -48.387699 
L 106.198541 -48.387699 
L 104.673518 -48.387699 
L 103.148495 -48.387699 
L 101.623473 -48.387699 
L 100.09845 -48.387699 
L 98.573427 -48.387699 
L 97.048404 -48.387699 
L 95.523381 -48.387699 
L 93.998359 -48.387699 
L 92.473336 -48.387699 
L 90.948313 -48.387699 
L 89.42329 -48.387699 
L 87.898267 -48.387699 
L 86.373245 -48.387699 
L 84.848222 -48.387699 
L 83.323199 -48.387699 
L 81.798176 -48.387699 
L 80.273153 -48.387699 
z
" style="stroke: #2c5282; stroke-opacity: 0.3"/>
    </defs>
    <g clip-path="url(#p3c8079b311)">
     <use xlink:href="#md87acbf3aa" x="0" y="278.602031" style="fill: #2c5282; fill-opacity: 0.3; stroke: #2c5282; stroke-opacity: 0.3"/>
    </g>
   </g>
   <g id="FillBetweenPolyCollection_2">
    <defs>
     <path id="m671eb6590a" d="M 183.974704 -48.387699 
L 183.974704 -96.966884 
L 185.499727 -98.150828 
L 187.02475 -99.329004 
L 188.549772 -100.505627 
L 190.074795 -101.685612 
L 191.599818 -102.87438 
L 193.124841 -104.077641 
L 194.649864 -105.301167 
L 196.174886 -106.550574 
L 197.699909 -107.83111 
L 199.224932 -109.147477 
L 200.749955 -110.503683 
L 202.274978 -111.902926 
L 203.8 -113.347526 
L 205.325023 -114.838894 
L 206.850046 -116.377535 
L 208.375069 -117.963088 
L 209.900092 -119.594388 
L 211.425114 -121.269555 
L 212.950137 -122.98609 
L 214.47516 -124.740986 
L 216.000183 -126.530839 
L 217.525206 -128.351961 
L 219.050229 -130.200493 
L 220.575251 -132.072515 
L 222.100274 -133.964149 
L 223.625297 -135.871665 
L 225.15032 -137.791571 
L 226.675343 -139.720707 
L 228.200365 -141.656321 
L 229.725388 -143.596146 
L 231.250411 -145.538443 
L 232.775434 -147.482045 
L 234.300457 -149.426367 
L 235.825479 -151.371394 
L 237.350502 -153.317642 
L 238.875525 -155.266094 
L 240.400548 -157.21811 
L 241.925571 -159.17531 
L 243.450593 -161.139452 
L 244.975616 -163.112294 
L 246.500639 -165.095449 
L 248.025662 -167.090264 
L 249.550685 -169.0977 
L 251.075707 -171.118239 
L 252.60073 -173.151826 
L 254.125753 -175.197833 
L 255.650776 -177.255065 
L 257.175799 -179.321791 
L 258.700821 -181.395807 
L 260.225844 -183.47452 
L 261.750867 -185.555051 
L 263.27589 -187.634335 
L 264.800913 -189.709237 
L 266.325935 -191.77665 
L 267.850958 -193.833583 
L 269.375981 -195.877236 
L 270.901004 -197.905051 
L 272.426027 -199.914749 
L 273.951049 -201.904338 
L 275.476072 -203.872115 
L 277.001095 -205.81664 
L 278.526118 -207.736707 
L 280.051141 -209.631296 
L 281.576163 -211.499522 
L 283.101186 -213.340573 
L 284.626209 -215.153647 
L 286.151232 -216.937879 
L 287.676255 -218.692276 
L 289.201277 -220.415645 
L 290.7263 -222.106525 
L 292.251323 -223.763131 
L 293.776346 -225.383305 
L 295.301369 -226.964485 
L 296.826391 -228.503693 
L 298.351414 -229.997551 
L 299.876437 -231.442321 
L 301.40146 -232.833982 
L 302.926483 -234.168322 
L 304.451505 -235.441069 
L 305.976528 -236.648035 
L 307.501551 -237.785269 
L 309.026574 -238.849219 
L 310.551597 -239.836875 
L 312.07662 -240.745903 
L 313.601642 -241.574734 
L 315.126665 -242.322625 
L 316.651688 -242.989665 
L 318.176711 -243.57674 
L 319.701734 -244.085443 
L 321.226756 -244.517941 
L 322.751779 -244.876809 
L 324.276802 -245.164837 
L 325.801825 -245.384822 
L 327.326848 -245.539365 
L 328.85187 -245.630678 
L 330.376893 -245.660426 
L 331.901916 -245.629604 
L 333.426939 -245.538457 
L 334.951962 -245.386461 
L 336.476984 -245.17235 
L 338.002007 -244.894193 
L 339.52703 -244.549516 
L 341.052053 -244.135463 
L 342.577076 -243.648972 
L 344.102098 -243.086971 
L 345.627121 -242.446567 
L 347.152144 -241.725227 
L 348.677167 -240.92093 
L 350.20219 -240.032294 
L 351.727212 -239.058658 
L 353.252235 -238.000133 
L 354.777258 -236.857602 
L 356.302281 -235.632693 
L 357.827304 -234.327715 
L 359.352326 -232.945566 
L 360.877349 -231.489633 
L 362.402372 -229.963669 
L 363.927395 -228.371685 
L 365.452418 -226.717836 
L 366.97744 -225.006325 
L 368.502463 -223.241325 
L 370.027486 -221.426913 
L 371.552509 -219.567034 
L 373.077532 -217.665474 
L 374.602554 -215.725857 
L 376.127577 -213.751649 
L 377.6526 -211.746171 
L 379.177623 -209.712621 
L 380.702646 -207.654087 
L 382.227668 -205.573559 
L 383.752691 -203.473932 
L 385.277714 -201.357999 
L 386.802737 -199.228423 
L 388.32776 -197.087709 
L 389.852782 -194.938148 
L 391.377805 -192.781767 
L 392.902828 -190.620258 
L 394.427851 -188.454908 
L 395.952874 -186.286536 
L 397.477896 -184.115431 
L 399.002919 -181.941305 
L 400.527942 -179.763261 
L 402.052965 -177.579796 
L 403.577988 -175.388817 
L 405.103011 -173.187704 
L 406.628033 -170.973394 
L 408.153056 -168.742507 
L 409.678079 -166.4915 
L 411.203102 -164.216848 
L 412.728125 -161.915242 
L 414.253147 -159.583803 
L 415.77817 -157.220291 
L 417.303193 -154.823301 
L 418.828216 -152.392445 
L 420.353239 -149.928487 
L 421.878261 -147.433443 
L 423.403284 -144.910622 
L 424.928307 -142.364618 
L 426.45333 -139.801239 
L 427.978353 -137.227379 
L 429.503375 -134.650847 
L 431.028398 -132.08015 
L 432.553421 -129.52425 
L 434.078444 -126.992297 
L 435.603467 -124.493373 
L 437.128489 -122.036225 
L 438.653512 -119.629039 
L 440.178535 -117.279236 
L 441.703558 -114.993302 
L 443.228581 -112.77667 
L 444.753603 -110.63364 
L 446.278626 -108.567346 
L 447.803649 -106.579763 
L 449.328672 -104.671747 
L 450.853695 -102.843109 
L 452.378717 -101.092712 
L 453.90374 -99.41859 
L 455.428763 -97.818071 
L 456.953786 -96.287916 
L 458.478809 -94.824458 
L 458.478809 -48.387699 
L 458.478809 -48.387699 
L 456.953786 -48.387699 
L 455.428763 -48.387699 
L 453.90374 -48.387699 
L 452.378717 -48.387699 
L 450.853695 -48.387699 
L 449.328672 -48.387699 
L 447.803649 -48.387699 
L 446.278626 -48.387699 
L 444.753603 -48.387699 
L 443.228581 -48.387699 
L 441.703558 -48.387699 
L 440.178535 -48.387699 
L 438.653512 -48.387699 
L 437.128489 -48.387699 
L 435.603467 -48.387699 
L 434.078444 -48.387699 
L 432.553421 -48.387699 
L 431.028398 -48.387699 
L 429.503375 -48.387699 
L 427.978353 -48.387699 
L 426.45333 -48.387699 
L 424.928307 -48.387699 
L 423.403284 -48.387699 
L 421.878261 -48.387699 
L 420.353239 -48.387699 
L 418.828216 -48.387699 
L 417.303193 -48.387699 
L 415.77817 -48.387699 
L 414.253147 -48.387699 
L 412.728125 -48.387699 
L 411.203102 -48.387699 
L 409.678079 -48.387699 
L 408.153056 -48.387699 
L 406.628033 -48.387699 
L 405.103011 -48.387699 
L 403.577988 -48.387699 
L 402.052965 -48.387699 
L 400.527942 -48.387699 
L 399.002919 -48.387699 
L 397.477896 -48.387699 
L 395.952874 -48.387699 
L 394.427851 -48.387699 
L 392.902828 -48.387699 
L 391.377805 -48.387699 
L 389.852782 -48.387699 
L 388.32776 -48.387699 
L 386.802737 -48.387699 
L 385.277714 -48.387699 
L 383.752691 -48.387699 
L 382.227668 -48.387699 
L 380.702646 -48.387699 
L 379.177623 -48.387699 
L 377.6526 -48.387699 
L 376.127577 -48.387699 
L 374.602554 -48.387699 
L 373.077532 -48.387699 
L 371.552509 -48.387699 
L 370.027486 -48.387699 
L 368.502463 -48.387699 
L 366.97744 -48.387699 
L 365.452418 -48.387699 
L 363.927395 -48.387699 
L 362.402372 -48.387699 
L 360.877349 -48.387699 
L 359.352326 -48.387699 
L 357.827304 -48.387699 
L 356.302281 -48.387699 
L 354.777258 -48.387699 
L 353.252235 -48.387699 
L 351.727212 -48.387699 
L 350.20219 -48.387699 
L 348.677167 -48.387699 
L 347.152144 -48.387699 
L 345.627121 -48.387699 
L 344.102098 -48.387699 
L 342.577076 -48.387699 
L 341.052053 -48.387699 
L 339.52703 -48.387699 
L 338.002007 -48.387699 
L 336.476984 -48.387699 
L 334.951962 -48.387699 
L 333.426939 -48.387699 
L 331.901916 -48.387699 
L 330.376893 -48.387699 
L 328.85187 -48.387699 
L 327.326848 -48.387699 
L 325.801825 -48.387699 
L 324.276802 -48.387699 
L 322.751779 -48.387699 
L 321.226756 -48.387699 
L 319.701734 -48.387699 
L 318.176711 -48.387699 
L 316.651688 -48.387699 
L 315.126665 -48.387699 
L 313.601642 -48.387699 
L 312.07662 -48.387699 
L 310.551597 -48.387699 
L 309.026574 -48.387699 
L 307.501551 -48.387699 
L 305.976528 -48.387699 
L 304.451505 -48.387699 
L 302.926483 -48.387699 
L 301.40146 -48.387699 
L 299.876437 -48.387699 
L 298.351414 -48.387699 
L 296.826391 -48.387699 
L 295.301369 -48.387699 
L 293.776346 -48.387699 
L 292.251323 -48.387699 
L 290.7263 -48.387699 
L 289.201277 -48.387699 
L 287.676255 -48.387699 
L 286.151232 -48.387699 
L 284.626209 -48.387699 
L 283.101186 -48.387699 
L 281.576163 -48.387699 
L 280.051141 -48.387699 
L 278.526118 -48.387699 
L 277.001095 -48.387699 
L 275.476072 -48.387699 
L 273.951049 -48.387699 
L 272.426027 -48.387699 
L 270.901004 -48.387699 
L 269.375981 -48.387699 
L 267.850958 -48.387699 
L 266.325935 -48.387699 
L 264.800913 -48.387699 
L 263.27589 -48.387699 
L 261.750867 -48.387699 
L 260.225844 -48.387699 
L 258.700821 -48.387699 
L 257.175799 -48.387699 
L 255.650776 -48.387699 
L 254.125753 -48.387699 
L 252.60073 -48.387699 
L 251.075707 -48.387699 
L 249.550685 -48.387699 
L 248.025662 -48.387699 
L 246.500639 -48.387699 
L 244.975616 -48.387699 
L 243.450593 -48.387699 
L 241.925571 -48.387699 
L 240.400548 -48.387699 
L 238.875525 -48.387699 
L 237.350502 -48.387699 
L 235.825479 -48.387699 
L 234.300457 -48.387699 
L 232.775434 -48.387699 
L 231.250411 -48.387699 
L 229.725388 -48.387699 
L 228.200365 -48.387699 
L 226.675343 -48.387699 
L 225.15032 -48.387699 
L 223.625297 -48.387699 
L 222.100274 -48.387699 
L 220.575251 -48.387699 
L 219.050229 -48.387699 
L 217.525206 -48.387699 
L 216.000183 -48.387699 
L 214.47516 -48.387699 
L 212.950137 -48.387699 
L 211.425114 -48.387699 
L 209.900092 -48.387699 
L 208.375069 -48.387699 
L 206.850046 -48.387699 
L 205.325023 -48.387699 
L 203.8 -48.387699 
L 202.274978 -48.387699 
L 200.749955 -48.387699 
L 199.224932 -48.387699 
L 197.699909 -48.387699 
L 196.174886 -48.387699 
L 194.649864 -48.387699 
L 193.124841 -48.387699 
L 191.599818 -48.387699 
L 190.074795 -48.387699 
L 188.549772 -48.387699 
L 187.02475 -48.387699 
L 185.499727 -48.387699 
L 183.974704 -48.387699 
z
" style="stroke: #ed8936; stroke-opacity: 0.15"/>
    </defs>
    <g clip-path="url(#p3c8079b311)">
     <use xlink:href="#m671eb6590a" x="0" y="278.602031" style="fill: #ed8936; fill-opacity: 0.15; stroke: #ed8936; stroke-opacity: 0.15"/>
    </g>
   </g>
   <g id="matplotlib.axis_1">
    <g id="xtick_1">
     <g id="line2d_1">
      <path d="M 75.719829 240.077969 
L 75.719829 23.077969 
" clip-path="url(#p3c8079b311)" style="fill: none; stroke: #e2e8f0; stroke-opacity: 0.5; stroke-width: 0.5; stroke-linecap: square"/>
     </g>
     <g id="line2d_2">
      <defs>
       <path id="m4e40bc1147" d="M 0 0 
L 0 3.5 
" style="stroke: #2d3748; stroke-width: 0.8"/>
      </defs>
      <g>
       <use xlink:href="#m4e40bc1147" x="75.719829" y="240.077969" style="fill: #2d3748; stroke: #2d3748; stroke-width: 0.8"/>
      </g>
     </g>
     <g id="text_1">
      <!-- −100 -->
      <g style="fill: #2d3748" transform="translate(61.986235 254.676406) scale(0.1 -0.1)">
       <defs>
        <path id="DejaVuSans-2212" d="M 678 2272 
L 4684 2272 
L 4684 1741 
L 678 1741 
L 678 2272 
z
" transform="scale(0.015625)"/>
        <path id="DejaVuSans-31" d="M 794 531 
L 1825 531 
L 1825 4091 
L 703 3866 
L 703 4441 
L 1819 4666 
L 2450 4666 
L 2450 531 
L 3481 531 
L 3481 0 
L 794 0 
L 794 531 
z
" transform="scale(0.015625)"/>
        <path id="DejaVuSans-30" d="M 2034 4250 
Q 1547 4250 1301 3770 
Q 1056 3291 1056 2328 
Q 1056 1369 1301 889 
Q 1547 409 2034 409 
Q 2525 409 2770 889 
Q 3016 1369 3016 2328 
Q 3016 3291 2770 3770 
Q 2525 4250 2034 4250 
z
M 2034 4750 
Q 2819 4750 3233 4129 
Q 3647 3509 3647 2328 
Q 3647 1150 3233 529 
Q 2819 -91 2034 -91 
Q 1250 -91 836 529 
Q 422 1150 422 2328 
Q 422 3509 836 4129 
Q 1250 4750 2034 4750 
z
" transform="scale(0.015625)"/>
       </defs>
       <use xlink:href="#DejaVuSans-2212"/>
       <use xlink:href="#DejaVuSans-31" transform="translate(83.789062 0)"/>
       <use xlink:href="#DejaVuSans-30" transform="translate(147.412109 0)"/>
       <use xlink:href="#DejaVuSans-30" transform="translate(211.035156 0)"/>
      </g>
     </g>
    </g>
    <g id="xtick_2">
     <g id="line2d_3">
      <path d="M 137.277352 240.077969 
L 137.277352 23.077969 
" clip-path="url(#p3c8079b311)" style="fill: none; stroke: #e2e8f0; stroke-opacity: 0.5; stroke-width: 0.5; stroke-linecap: square"/>
     </g>
     <g id="line2d_4">
      <g>
       <use xlink:href="#m4e40bc1147" x="137.277352" y="240.077969" style="fill: #2d3748; stroke: #2d3748; stroke-width: 0.8"/>
      </g>
     </g>
     <g id="text_2">
      <!-- −80 -->
      <g style="fill: #2d3748" transform="translate(126.725008 254.676406) scale(0.1 -0.1)">
       <defs>
        <path id="DejaVuSans-38" d="M 2034 2216 
Q 1584 2216 1326 1975 
Q 1069 1734 1069 1313 
Q 1069 891 1326 650 
Q 1584 409 2034 409 
Q 2484 409 2743 651 
Q 3003 894 3003 1313 
Q 3003 1734 2745 1975 
Q 2488 2216 2034 2216 
z
M 1403 2484 
Q 997 2584 770 2862 
Q 544 3141 544 3541 
Q 544 4100 942 4425 
Q 1341 4750 2034 4750 
Q 2731 4750 3128 4425 
Q 3525 4100 3525 3541 
Q 3525 3141 3298 2862 
Q 3072 2584 2669 2484 
Q 3125 2378 3379 2068 
Q 3634 1759 3634 1313 
Q 3634 634 3220 271 
Q 2806 -91 2034 -91 
Q 1263 -91 848 271 
Q 434 634 434 1313 
Q 434 1759 690 2068 
Q 947 2378 1403 2484 
z
M 1172 3481 
Q 1172 3119 1398 2916 
Q 1625 2713 2034 2713 
Q 2441 2713 2670 2916 
Q 2900 3119 2900 3481 
Q 2900 3844 2670 4047 
Q 2441 4250 2034 4250 
Q 1625 4250 1398 4047 
Q 1172 3844 1172 3481 
z
" transform="scale(0.015625)"/>
       </defs>
       <use xlink:href="#DejaVuSans-2212"/>
       <use xlink:href="#DejaVuSans-38" transform="translate(83.789062 0)"/>
       <use xlink:href="#DejaVuSans-30" transform="translate(147.412109 0)"/>
      </g>
     </g>
    </g>
    <g id="xtick_3">
     <g id="line2d_5">
      <path d="M 198.834875 240.077969 
L 198.834875 23.077969 
" clip-path="url(#p3c8079b311)" style="fill: none; stroke: #e2e8f0; stroke-opacity: 0.5; stroke-width: 0.5; stroke-linecap: square"/>
     </g>
     <g id="line2d_6">
      <g>
       <use xlink:href="#m4e40bc1147" x="198.834875" y="240.077969" style="fill: #2d3748; stroke: #2d3748; stroke-width: 0.8"/>
      </g>
     </g>
     <g id="text_3">
      <!-- −60 -->
      <g style="fill: #2d3748" transform="translate(188.282531 254.676406) scale(0.1 -0.1)">
       <defs>
        <path id="DejaVuSans-36" d="M 2113 2584 
Q 1688 2584 1439 2293 
Q 1191 2003 1191 1497 
Q 1191 994 1439 701 
Q 1688 409 2113 409 
Q 2538 409 2786 701 
Q 3034 994 3034 1497 
Q 3034 2003 2786 2293 
Q 2538 2584 2113 2584 
z
M 3366 4563 
L 3366 3988 
Q 3128 4100 2886 4159 
Q 2644 4219 2406 4219 
Q 1781 4219 1451 3797 
Q 1122 3375 1075 2522 
Q 1259 2794 1537 2939 
Q 1816 3084 2150 3084 
Q 2853 3084 3261 2657 
Q 3669 2231 3669 1497 
Q 3669 778 3244 343 
Q 2819 -91 2113 -91 
Q 1303 -91 875 529 
Q 447 1150 447 2328 
Q 447 3434 972 4092 
Q 1497 4750 2381 4750 
Q 2619 4750 2861 4703 
Q 3103 4656 3366 4563 
z
" transform="scale(0.015625)"/>
       </defs>
       <use xlink:href="#DejaVuSans-2212"/>
       <use xlink:href="#DejaVuSans-36" transform="translate(83.789062 0)"/>
       <use xlink:href="#DejaVuSans-30" transform="translate(147.412109 0)"/>
      </g>
     </g>
    </g>
    <g id="xtick_4">
     <g id="line2d_7">
      <path d="M 260.392398 240.077969 
L 260.392398 23.077969 
" clip-path="url(#p3c8079b311)" style="fill: none; stroke: #e2e8f0; stroke-opacity: 0.5; stroke-width: 0.5; stroke-linecap: square"/>
     </g>
     <g id="line2d_8">
      <g>
       <use xlink:href="#m4e40bc1147" x="260.392398" y="240.077969" style="fill: #2d3748; stroke: #2d3748; stroke-width: 0.8"/>
      </g>
     </g>
     <g id="text_4">
      <!-- −40 -->
      <g style="fill: #2d3748" transform="translate(249.840054 254.676406) scale(0.1 -0.1)">
       <defs>
        <path id="DejaVuSans-34" d="M 2419 4116 
L 825 1625 
L 2419 1625 
L 2419 4116 
z
M 2253 4666 
L 3047 4666 
L 3047 1625 
L 3713 1625 
L 3713 1100 
L 3047 1100 
L 3047 0 
L 2419 0 
L 2419 1100 
L 313 1100 
L 313 1709 
L 2253 4666 
z
" transform="scale(0.015625)"/>
       </defs>
       <use xlink:href="#DejaVuSans-2212"/>
       <use xlink:href="#DejaVuSans-34" transform="translate(83.789062 0)"/>
       <use xlink:href="#DejaVuSans-30" transform="translate(147.412109 0)"/>
      </g>
     </g>
    </g>
    <g id="xtick_5">
     <g id="line2d_9">
      <path d="M 321.94992 240.077969 
L 321.94992 23.077969 
" clip-path="url(#p3c8079b311)" style="fill: none; stroke: #e2e8f0; stroke-opacity: 0.5; stroke-width: 0.5; stroke-linecap: square"/>
     </g>
     <g id="line2d_10">
      <g>
       <use xlink:href="#m4e40bc1147" x="321.94992" y="240.077969" style="fill: #2d3748; stroke: #2d3748; stroke-width: 0.8"/>
      </g>
     </g>
     <g id="text_5">
      <!-- −20 -->
      <g style="fill: #2d3748" transform="translate(311.397577 254.676406) scale(0.1 -0.1)">
       <defs>
        <path id="DejaVuSans-32" d="M 1228 531 
L 3431 531 
L 3431 0 
L 469 0 
L 469 531 
Q 828 903 1448 1529 
Q 2069 2156 2228 2338 
Q 2531 2678 2651 2914 
Q 2772 3150 2772 3378 
Q 2772 3750 2511 3984 
Q 2250 4219 1831 4219 
Q 1534 4219 1204 4116 
Q 875 4013 500 3803 
L 500 4441 
Q 881 4594 1212 4672 
Q 1544 4750 1819 4750 
Q 2544 4750 2975 4387 
Q 3406 4025 3406 3419 
Q 3406 3131 3298 2873 
Q 3191 2616 2906 2266 
Q 2828 2175 2409 1742 
Q 1991 1309 1228 531 
z
" transform="scale(0.015625)"/>
       </defs>
       <use xlink:href="#DejaVuSans-2212"/>
       <use xlink:href="#DejaVuSans-32" transform="translate(83.789062 0)"/>
       <use xlink:href="#DejaVuSans-30" transform="translate(147.412109 0)"/>
      </g>
     </g>
    </g>
    <g id="xtick_6">
     <g id="line2d_11">
      <path d="M 383.507443 240.077969 
L 383.507443 23.077969 
" clip-path="url(#p3c8079b311)" style="fill: none; stroke: #e2e8f0; stroke-opacity: 0.5; stroke-width: 0.5; stroke-linecap: square"/>
     </g>
     <g id="line2d_12">
      <g>
       <use xlink:href="#m4e40bc1147" x="383.507443" y="240.077969" style="fill: #2d3748; stroke: #2d3748; stroke-width: 0.8"/>
      </g>
     </g>
     <g id="text_6">
      <!-- 0 -->
      <g style="fill: #2d3748" transform="translate(380.326193 254.676406) scale(0.1 -0.1)">
       <use xlink:href="#DejaVuSans-30"/>
      </g>
     </g>
    </g>
    <g id="xtick_7">
     <g id="line2d_13">
      <path d="M 445.064966 240.077969 
L 445.064966 23.077969 
" clip-path="url(#p3c8079b311)" style="fill: none; stroke: #e2e8f0; stroke-opacity: 0.5; stroke-width: 0.5; stroke-linecap: square"/>
     </g>
     <g id="line2d_14">
      <g>
       <use xlink:href="#m4e40bc1147" x="445.064966" y="240.077969" style="fill: #2d3748; stroke: #2d3748; stroke-width: 0.8"/>
      </g>
     </g>
     <g id="text_7">
      <!-- 20 -->
      <g style="fill: #2d3748" transform="translate(438.702466 254.676406) scale(0.1 -0.1)">
       <use xlink:href="#DejaVuSans-32"/>
       <use xlink:href="#DejaVuSans-30" transform="translate(63.623047 0)"/>
      </g>
     </g>
    </g>
    <g id="xtick_8">
     <g id="line2d_15">
      <path d="M 506.622489 240.077969 
L 506.622489 23.077969 
" clip-path="url(#p3c8079b311)" style="fill: none; stroke: #e2e8f0; stroke-opacity: 0.5; stroke-width: 0.5; stroke-linecap: square"/>
     </g>
     <g id="line2d_16">
      <g>
       <use xlink:href="#m4e40bc1147" x="506.622489" y="240.077969" style="fill: #2d3748; stroke: #2d3748; stroke-width: 0.8"/>
      </g>
     </g>
     <g id="text_8">
      <!-- 40 -->
      <g style="fill: #2d3748" transform="translate(500.259989 254.676406) scale(0.1 -0.1)">
       <use xlink:href="#DejaVuSans-34"/>
       <use xlink:href="#DejaVuSans-30" transform="translate(63.623047 0)"/>
      </g>
     </g>
    </g>
    <g id="text_9">
     <!-- Slope (Δα / ΔT) -->
     <g style="fill: #2d3748" transform="translate(267.105156 269.114375) scale(0.11 -0.11)">
      <defs>
       <path id="DejaVuSans-53" d="M 3425 4513 
L 3425 3897 
Q 3066 4069 2747 4153 
Q 2428 4238 2131 4238 
Q 1616 4238 1336 4038 
Q 1056 3838 1056 3469 
Q 1056 3159 1242 3001 
Q 1428 2844 1947 2747 
L 2328 2669 
Q 3034 2534 3370 2195 
Q 3706 1856 3706 1288 
Q 3706 609 3251 259 
Q 2797 -91 1919 -91 
Q 1588 -91 1214 -16 
Q 841 59 441 206 
L 441 856 
Q 825 641 1194 531 
Q 1563 422 1919 422 
Q 2459 422 2753 634 
Q 3047 847 3047 1241 
Q 3047 1584 2836 1778 
Q 2625 1972 2144 2069 
L 1759 2144 
Q 1053 2284 737 2584 
Q 422 2884 422 3419 
Q 422 4038 858 4394 
Q 1294 4750 2059 4750 
Q 2388 4750 2728 4690 
Q 3069 4631 3425 4513 
z
" transform="scale(0.015625)"/>
       <path id="DejaVuSans-6c" d="M 603 4863 
L 1178 4863 
L 1178 0 
L 603 0 
L 603 4863 
z
" transform="scale(0.015625)"/>
       <path id="DejaVuSans-6f" d="M 1959 3097 
Q 1497 3097 1228 2736 
Q 959 2375 959 1747 
Q 959 1119 1226 758 
Q 1494 397 1959 397 
Q 2419 397 2687 759 
Q 2956 1122 2956 1747 
Q 2956 2369 2687 2733 
Q 2419 3097 1959 3097 
z
M 1959 3584 
Q 2709 3584 3137 3096 
Q 3566 2609 3566 1747 
Q 3566 888 3137 398 
Q 2709 -91 1959 -91 
Q 1206 -91 779 398 
Q 353 888 353 1747 
Q 353 2609 779 3096 
Q 1206 3584 1959 3584 
z
" transform="scale(0.015625)"/>
       <path id="DejaVuSans-70" d="M 1159 525 
L 1159 -1331 
L 581 -1331 
L 581 3500 
L 1159 3500 
L 1159 2969 
Q 1341 3281 1617 3432 
Q 1894 3584 2278 3584 
Q 2916 3584 3314 3078 
Q 3713 2572 3713 1747 
Q 3713 922 3314 415 
Q 2916 -91 2278 -91 
Q 1894 -91 1617 61 
Q 1341 213 1159 525 
z
M 3116 1747 
Q 3116 2381 2855 2742 
Q 2594 3103 2138 3103 
Q 1681 3103 1420 2742 
Q 1159 2381 1159 1747 
Q 1159 1113 1420 752 
Q 1681 391 2138 391 
Q 2594 391 2855 752 
Q 3116 1113 3116 1747 
z
" transform="scale(0.015625)"/>
       <path id="DejaVuSans-65" d="M 3597 1894 
L 3597 1613 
L 953 1613 
Q 991 1019 1311 708 
Q 1631 397 2203 397 
Q 2534 397 2845 478 
Q 3156 559 3463 722 
L 3463 178 
Q 3153 47 2828 -22 
Q 2503 -91 2169 -91 
Q 1331 -91 842 396 
Q 353 884 353 1716 
Q 353 2575 817 3079 
Q 1281 3584 2069 3584 
Q 2775 3584 3186 3129 
Q 3597 2675 3597 1894 
z
M 3022 2063 
Q 3016 2534 2758 2815 
Q 2500 3097 2075 3097 
Q 1594 3097 1305 2825 
Q 1016 2553 972 2059 
L 3022 2063 
z
" transform="scale(0.015625)"/>
       <path id="DejaVuSans-20" transform="scale(0.015625)"/>
       <path id="DejaVuSans-28" d="M 1984 4856 
Q 1566 4138 1362 3434 
Q 1159 2731 1159 2009 
Q 1159 1288 1364 580 
Q 1569 -128 1984 -844 
L 1484 -844 
Q 1016 -109 783 600 
Q 550 1309 550 2009 
Q 550 2706 781 3412 
Q 1013 4119 1484 4856 
L 1984 4856 
z
" transform="scale(0.015625)"/>
       <path id="DejaVuSans-394" d="M 2188 4044 
L 906 525 
L 3472 525 
L 2188 4044 
z
M 50 0 
L 1831 4666 
L 2547 4666 
L 4325 0 
L 50 0 
z
" transform="scale(0.015625)"/>
       <path id="DejaVuSans-3b1" d="M 2644 1628 
L 2506 2350 
Q 2366 3091 1809 3091 
Q 1391 3091 1200 2747 
Q 959 2316 959 1747 
Q 959 1059 1194 731 
Q 1431 397 1809 397 
Q 2228 397 2453 1063 
L 2644 1628 
z
M 2966 2584 
L 3275 3500 
L 3788 3500 
L 3147 1603 
L 3272 919 
Q 3300 766 3409 638 
Q 3538 488 3638 488 
L 3913 488 
L 3913 0 
L 3569 0 
Q 3275 0 3013 263 
Q 2884 394 2831 669 
Q 2688 322 2394 50 
Q 2256 -78 1809 -78 
Q 1075 -78 719 397 
Q 353 888 353 1747 
Q 353 2666 750 3097 
Q 1191 3578 1809 3578 
Q 2781 3578 2966 2584 
z
" transform="scale(0.015625)"/>
       <path id="DejaVuSans-2f" d="M 1625 4666 
L 2156 4666 
L 531 -594 
L 0 -594 
L 1625 4666 
z
" transform="scale(0.015625)"/>
       <path id="DejaVuSans-54" d="M -19 4666 
L 3928 4666 
L 3928 4134 
L 2272 4134 
L 2272 0 
L 1638 0 
L 1638 4134 
L -19 4134 
L -19 4666 
z
" transform="scale(0.015625)"/>
       <path id="DejaVuSans-29" d="M 513 4856 
L 1013 4856 
Q 1481 4119 1714 3412 
Q 1947 2706 1947 2009 
Q 1947 1309 1714 600 
Q 1481 -109 1013 -844 
L 513 -844 
Q 928 -128 1133 580 
Q 1338 1288 1338 2009 
Q 1338 2731 1133 3434 
Q 928 4138 513 4856 
z
" transform="scale(0.015625)"/>
      </defs>
      <use xlink:href="#DejaVuSans-53"/>
      <use xlink:href="#DejaVuSans-6c" transform="translate(63.476562 0)"/>
      <use xlink:href="#DejaVuSans-6f" transform="translate(91.259766 0)"/>
      <use xlink:href="#DejaVuSans-70" transform="translate(152.441406 0)"/>
      <use xlink:href="#DejaVuSans-65" transform="translate(215.917969 0)"/>
      <use xlink:href="#DejaVuSans-20" transform="translate(277.441406 0)"/>
      <use xlink:href="#DejaVuSans-28" transform="translate(309.228516 0)"/>
      <use xlink:href="#DejaVuSans-394" transform="translate(348.242188 0)"/>
      <use xlink:href="#DejaVuSans-3b1" transform="translate(416.650391 0)"/>
      <use xlink:href="#DejaVuSans-20" transform="translate(482.568359 0)"/>
      <use xlink:href="#DejaVuSans-2f" transform="translate(514.355469 0)"/>
      <use xlink:href="#DejaVuSans-20" transform="translate(548.046875 0)"/>
      <use xlink:href="#DejaVuSans-394" transform="translate(579.833984 0)"/>
      <use xlink:href="#DejaVuSans-54" transform="translate(648.242188 0)"/>
      <use xlink:href="#DejaVuSans-29" transform="translate(709.326172 0)"/>
     </g>
    </g>
   </g>
   <g id="matplotlib.axis_2">
    <g id="ytick_1">
     <g id="line2d_17">
      <path d="M 57.474063 230.214332 
L 559.054062 230.214332 
" clip-path="url(#p3c8079b311)" style="fill: none; stroke: #e2e8f0; stroke-opacity: 0.5; stroke-width: 0.5; stroke-linecap: square"/>
     </g>
     <g id="line2d_18">
      <defs>
       <path id="m426767127a" d="M 0 0 
L -3.5 0 
" style="stroke: #2d3748; stroke-width: 0.8"/>
      </defs>
      <g>
       <use xlink:href="#m426767127a" x="57.474063" y="230.214332" style="fill: #2d3748; stroke: #2d3748; stroke-width: 0.8"/>
      </g>
     </g>
     <g id="text_10">
      <!-- 0.000 -->
      <g style="fill: #2d3748" transform="translate(21.845938 234.013551) scale(0.1 -0.1)">
       <defs>
        <path id="DejaVuSans-2e" d="M 684 794 
L 1344 794 
L 1344 0 
L 684 0 
L 684 794 
z
" transform="scale(0.015625)"/>
       </defs>
       <use xlink:href="#DejaVuSans-30"/>
       <use xlink:href="#DejaVuSans-2e" transform="translate(63.623047 0)"/>
       <use xlink:href="#DejaVuSans-30" transform="translate(95.410156 0)"/>
       <use xlink:href="#DejaVuSans-30" transform="translate(159.033203 0)"/>
       <use xlink:href="#DejaVuSans-30" transform="translate(222.65625 0)"/>
      </g>
     </g>
    </g>
    <g id="ytick_2">
     <g id="line2d_19">
      <path d="M 57.474063 203.907342 
L 559.054062 203.907342 
" clip-path="url(#p3c8079b311)" style="fill: none; stroke: #e2e8f0; stroke-opacity: 0.5; stroke-width: 0.5; stroke-linecap: square"/>
     </g>
     <g id="line2d_20">
      <g>
       <use xlink:href="#m426767127a" x="57.474063" y="203.907342" style="fill: #2d3748; stroke: #2d3748; stroke-width: 0.8"/>
      </g>
     </g>
     <g id="text_11">
      <!-- 0.002 -->
      <g style="fill: #2d3748" transform="translate(21.845938 207.706561) scale(0.1 -0.1)">
       <use xlink:href="#DejaVuSans-30"/>
       <use xlink:href="#DejaVuSans-2e" transform="translate(63.623047 0)"/>
       <use xlink:href="#DejaVuSans-30" transform="translate(95.410156 0)"/>
       <use xlink:href="#DejaVuSans-30" transform="translate(159.033203 0)"/>
       <use xlink:href="#DejaVuSans-32" transform="translate(222.65625 0)"/>
      </g>
     </g>
    </g>
    <g id="ytick_3">
     <g id="line2d_21">
      <path d="M 57.474063 177.600352 
L 559.054062 177.600352 
" clip-path="url(#p3c8079b311)" style="fill: none; stroke: #e2e8f0; stroke-opacity: 0.5; stroke-width: 0.5; stroke-linecap: square"/>
     </g>
     <g id="line2d_22">
      <g>
       <use xlink:href="#m426767127a" x="57.474063" y="177.600352" style="fill: #2d3748; stroke: #2d3748; stroke-width: 0.8"/>
      </g>
     </g>
     <g id="text_12">
      <!-- 0.004 -->
      <g style="fill: #2d3748" transform="translate(21.845938 181.399571) scale(0.1 -0.1)">
       <use xlink:href="#DejaVuSans-30"/>
       <use xlink:href="#DejaVuSans-2e" transform="translate(63.623047 0)"/>
       <use xlink:href="#DejaVuSans-30" transform="translate(95.410156 0)"/>
       <use xlink:href="#DejaVuSans-30" transform="translate(159.033203 0)"/>
       <use xlink:href="#DejaVuSans-34" transform="translate(222.65625 0)"/>
      </g>
     </g>
    </g>
    <g id="ytick_4">
     <g id="line2d_23">
      <path d="M 57.474063 151.293362 
L 559.054062 151.293362 
" clip-path="url(#p3c8079b311)" style="fill: none; stroke: #e2e8f0; stroke-opacity: 0.5; stroke-width: 0.5; stroke-linecap: square"/>
     </g>
     <g id="line2d_24">
      <g>
       <use xlink:href="#m426767127a" x="57.474063" y="151.293362" style="fill: #2d3748; stroke: #2d3748; stroke-width: 0.8"/>
      </g>
     </g>
     <g id="text_13">
      <!-- 0.006 -->
      <g style="fill: #2d3748" transform="translate(21.845938 155.092581) scale(0.1 -0.1)">
       <use xlink:href="#DejaVuSans-30"/>
       <use xlink:href="#DejaVuSans-2e" transform="translate(63.623047 0)"/>
       <use xlink:href="#DejaVuSans-30" transform="translate(95.410156 0)"/>
       <use xlink:href="#DejaVuSans-30" transform="translate(159.033203 0)"/>
       <use xlink:href="#DejaVuSans-36" transform="translate(222.65625 0)"/>
      </g>
     </g>
    </g>
    <g id="ytick_5">
     <g id="line2d_25">
      <path d="M 57.474063 124.986372 
L 559.054062 124.986372 
" clip-path="url(#p3c8079b311)" style="fill: none; stroke: #e2e8f0; stroke-opacity: 0.5; stroke-width: 0.5; stroke-linecap: square"/>
     </g>
     <g id="line2d_26">
      <g>
       <use xlink:href="#m426767127a" x="57.474063" y="124.986372" style="fill: #2d3748; stroke: #2d3748; stroke-width: 0.8"/>
      </g>
     </g>
     <g id="text_14">
      <!-- 0.008 -->
      <g style="fill: #2d3748" transform="translate(21.845938 128.785591) scale(0.1 -0.1)">
       <use xlink:href="#DejaVuSans-30"/>
       <use xlink:href="#DejaVuSans-2e" transform="translate(63.623047 0)"/>
       <use xlink:href="#DejaVuSans-30" transform="translate(95.410156 0)"/>
       <use xlink:href="#DejaVuSans-30" transform="translate(159.033203 0)"/>
       <use xlink:href="#DejaVuSans-38" transform="translate(222.65625 0)"/>
      </g>
     </g>
    </g>
    <g id="ytick_6">
     <g id="line2d_27">
      <path d="M 57.474063 98.679382 
L 559.054062 98.679382 
" clip-path="url(#p3c8079b311)" style="fill: none; stroke: #e2e8f0; stroke-opacity: 0.5; stroke-width: 0.5; stroke-linecap: square"/>
     </g>
     <g id="line2d_28">
      <g>
       <use xlink:href="#m426767127a" x="57.474063" y="98.679382" style="fill: #2d3748; stroke: #2d3748; stroke-width: 0.8"/>
      </g>
     </g>
     <g id="text_15">
      <!-- 0.010 -->
      <g style="fill: #2d3748" transform="translate(21.845938 102.478601) scale(0.1 -0.1)">
       <use xlink:href="#DejaVuSans-30"/>
       <use xlink:href="#DejaVuSans-2e" transform="translate(63.623047 0)"/>
       <use xlink:href="#DejaVuSans-30" transform="translate(95.410156 0)"/>
       <use xlink:href="#DejaVuSans-31" transform="translate(159.033203 0)"/>
       <use xlink:href="#DejaVuSans-30" transform="translate(222.65625 0)"/>
      </g>
     </g>
    </g>
    <g id="ytick_7">
     <g id="line2d_29">
      <path d="M 57.474063 72.372392 
L 559.054062 72.372392 
" clip-path="url(#p3c8079b311)" style="fill: none; stroke: #e2e8f0; stroke-opacity: 0.5; stroke-width: 0.5; stroke-linecap: square"/>
     </g>
     <g id="line2d_30">
      <g>
       <use xlink:href="#m426767127a" x="57.474063" y="72.372392" style="fill: #2d3748; stroke: #2d3748; stroke-width: 0.8"/>
      </g>
     </g>
     <g id="text_16">
      <!-- 0.012 -->
      <g style="fill: #2d3748" transform="translate(21.845938 76.171611) scale(0.1 -0.1)">
       <use xlink:href="#DejaVuSans-30"/>
       <use xlink:href="#DejaVuSans-2e" transform="translate(63.623047 0)"/>
       <use xlink:href="#DejaVuSans-30" transform="translate(95.410156 0)"/>
       <use xlink:href="#DejaVuSans-31" transform="translate(159.033203 0)"/>
       <use xlink:href="#DejaVuSans-32" transform="translate(222.65625 0)"/>
      </g>
     </g>
    </g>
    <g id="ytick_8">
     <g id="line2d_31">
      <path d="M 57.474063 46.065402 
L 559.054062 46.065402 
" clip-path="url(#p3c8079b311)" style="fill: none; stroke: #e2e8f0; stroke-opacity: 0.5; stroke-width: 0.5; stroke-linecap: square"/>
     </g>
     <g id="line2d_32">
      <g>
       <use xlink:href="#m426767127a" x="57.474063" y="46.065402" style="fill: #2d3748; stroke: #2d3748; stroke-width: 0.8"/>
      </g>
     </g>
     <g id="text_17">
      <!-- 0.014 -->
      <g style="fill: #2d3748" transform="translate(21.845938 49.864621) scale(0.1 -0.1)">
       <use xlink:href="#DejaVuSans-30"/>
       <use xlink:href="#DejaVuSans-2e" transform="translate(63.623047 0)"/>
       <use xlink:href="#DejaVuSans-30" transform="translate(95.410156 0)"/>
       <use xlink:href="#DejaVuSans-31" transform="translate(159.033203 0)"/>
       <use xlink:href="#DejaVuSans-34" transform="translate(222.65625 0)"/>
      </g>
     </g>
    </g>
    <g id="text_18">
     <!-- Density -->
     <g style="fill: #2d3748" transform="translate(15.558281 152.487422) rotate(-90) scale(0.11 -0.11)">
      <defs>
       <path id="DejaVuSans-44" d="M 1259 4147 
L 1259 519 
L 2022 519 
Q 2988 519 3436 956 
Q 3884 1394 3884 2338 
Q 3884 3275 3436 3711 
Q 2988 4147 2022 4147 
L 1259 4147 
z
M 628 4666 
L 1925 4666 
Q 3281 4666 3915 4102 
Q 4550 3538 4550 2338 
Q 4550 1131 3912 565 
Q 3275 0 1925 0 
L 628 0 
L 628 4666 
z
" transform="scale(0.015625)"/>
       <path id="DejaVuSans-6e" d="M 3513 2113 
L 3513 0 
L 2938 0 
L 2938 2094 
Q 2938 2591 2744 2837 
Q 2550 3084 2163 3084 
Q 1697 3084 1428 2787 
Q 1159 2491 1159 1978 
L 1159 0 
L 581 0 
L 581 3500 
L 1159 3500 
L 1159 2956 
Q 1366 3272 1645 3428 
Q 1925 3584 2291 3584 
Q 2894 3584 3203 3211 
Q 3513 2838 3513 2113 
z
" transform="scale(0.015625)"/>
       <path id="DejaVuSans-73" d="M 2834 3397 
L 2834 2853 
Q 2591 2978 2328 3040 
Q 2066 3103 1784 3103 
Q 1356 3103 1142 2972 
Q 928 2841 928 2578 
Q 928 2378 1081 2264 
Q 1234 2150 1697 2047 
L 1894 2003 
Q 2506 1872 2764 1633 
Q 3022 1394 3022 966 
Q 3022 478 2636 193 
Q 2250 -91 1575 -91 
Q 1294 -91 989 -36 
Q 684 19 347 128 
L 347 722 
Q 666 556 975 473 
Q 1284 391 1588 391 
Q 1994 391 2212 530 
Q 2431 669 2431 922 
Q 2431 1156 2273 1281 
Q 2116 1406 1581 1522 
L 1381 1569 
Q 847 1681 609 1914 
Q 372 2147 372 2553 
Q 372 3047 722 3315 
Q 1072 3584 1716 3584 
Q 2034 3584 2315 3537 
Q 2597 3491 2834 3397 
z
" transform="scale(0.015625)"/>
       <path id="DejaVuSans-69" d="M 603 3500 
L 1178 3500 
L 1178 0 
L 603 0 
L 603 3500 
z
M 603 4863 
L 1178 4863 
L 1178 4134 
L 603 4134 
L 603 4863 
z
" transform="scale(0.015625)"/>
       <path id="DejaVuSans-74" d="M 1172 4494 
L 1172 3500 
L 2356 3500 
L 2356 3053 
L 1172 3053 
L 1172 1153 
Q 1172 725 1289 603 
Q 1406 481 1766 481 
L 2356 481 
L 2356 0 
L 1766 0 
Q 1100 0 847 248 
Q 594 497 594 1153 
L 594 3053 
L 172 3053 
L 172 3500 
L 594 3500 
L 594 4494 
L 1172 4494 
z
" transform="scale(0.015625)"/>
       <path id="DejaVuSans-79" d="M 2059 -325 
Q 1816 -950 1584 -1140 
Q 1353 -1331 966 -1331 
L 506 -1331 
L 506 -850 
L 844 -850 
Q 1081 -850 1212 -737 
Q 1344 -625 1503 -206 
L 1606 56 
L 191 3500 
L 800 3500 
L 1894 763 
L 2988 3500 
L 3597 3500 
L 2059 -325 
z
" transform="scale(0.015625)"/>
      </defs>
      <use xlink:href="#DejaVuSans-44"/>
      <use xlink:href="#DejaVuSans-65" transform="translate(77.001953 0)"/>
      <use xlink:href="#DejaVuSans-6e" transform="translate(138.525391 0)"/>
      <use xlink:href="#DejaVuSans-73" transform="translate(201.904297 0)"/>
      <use xlink:href="#DejaVuSans-69" transform="translate(254.003906 0)"/>
      <use xlink:href="#DejaVuSans-74" transform="translate(281.787109 0)"/>
      <use xlink:href="#DejaVuSans-79" transform="translate(320.996094 0)"/>
     </g>
    </g>
   </g>
   <g id="line2d_33">
    <path d="M 80.273153 225.758731 
L 86.373245 225.285924 
L 90.948313 224.736125 
L 95.523381 224.001656 
L 101.623473 222.756991 
L 107.723564 221.279876 
L 118.398723 218.406744 
L 130.598906 214.928789 
L 136.698997 212.983231 
L 141.274066 211.301399 
L 145.849134 209.33317 
L 148.89918 207.824756 
L 151.949225 206.141653 
L 154.999271 204.278086 
L 159.574339 201.156589 
L 164.149408 197.700145 
L 170.249499 192.758615 
L 180.924658 184.032726 
L 199.224932 169.454554 
L 203.8 165.254505 
L 208.375069 160.638943 
L 212.950137 155.615941 
L 217.525206 150.250071 
L 223.625297 142.730366 
L 237.350502 125.284389 
L 248.025662 111.511767 
L 255.650776 101.346966 
L 273.951049 76.697693 
L 280.051141 68.970735 
L 286.151232 61.664153 
L 290.7263 56.495506 
L 295.301369 51.637546 
L 299.876437 47.15971 
L 302.926483 44.433709 
L 305.976528 41.953996 
L 309.026574 39.752813 
L 312.07662 37.856128 
L 315.126665 36.279406 
L 318.176711 35.025291 
L 321.226756 34.084091 
L 324.276802 33.437194 
L 327.326848 33.062667 
L 330.376893 32.941605 
L 333.426939 33.063574 
L 336.476984 33.429681 
L 339.52703 34.052515 
L 342.577076 34.953059 
L 345.627121 36.155464 
L 348.677167 37.681101 
L 351.727212 39.543373 
L 354.777258 41.744429 
L 357.827304 44.274316 
L 360.877349 47.112399 
L 363.927395 50.230347 
L 366.97744 53.595706 
L 371.552509 59.034997 
L 376.127577 64.850382 
L 382.227668 73.028472 
L 389.852782 83.663883 
L 405.103011 105.414327 
L 411.203102 114.385183 
L 417.303193 123.77873 
L 423.403284 133.691409 
L 438.653512 158.972992 
L 443.228581 165.825362 
L 446.278626 170.034685 
L 449.328672 173.930284 
L 452.378717 177.509319 
L 455.428763 180.78396 
L 458.478809 183.777573 
L 461.528854 186.520391 
L 464.5789 189.045228 
L 469.153968 192.491731 
L 473.729037 195.604382 
L 478.304105 198.437425 
L 482.879173 201.015012 
L 487.454242 203.344969 
L 492.02931 205.436986 
L 496.604379 207.317004 
L 502.70447 209.578567 
L 522.529766 216.64776 
L 534.729949 221.133924 
L 536.254972 221.643667 
L 536.254972 221.643667 
" clip-path="url(#p3c8079b311)" style="fill: none; stroke: #2c5282; stroke-width: 2; stroke-linecap: square"/>
   </g>
   <g id="line2d_34">
    <path d="M 325.732671 240.077969 
L 325.732671 23.077969 
" clip-path="url(#p3c8079b311)" style="fill: none; stroke: #ed8936; stroke-width: 2; stroke-linecap: square"/>
   </g>
   <g id="line2d_35">
    <path d="M 383.507443 240.077969 
L 383.507443 23.077969 
" clip-path="url(#p3c8079b311)" style="fill: none; stroke-dasharray: 7.4,3.2; stroke-dashoffset: 0; stroke: #808080; stroke-opacity: 0.5; stroke-width: 2"/>
   </g>
   <g id="line2d_36">
    <path d="M 182.52942 240.077969 
L 182.52942 23.077969 
" clip-path="url(#p3c8079b311)" style="fill: none; stroke-dasharray: 2,3.3; stroke-dashoffset: 0; stroke: #ed8936; stroke-opacity: 0.6; stroke-width: 2"/>
   </g>
   <g id="line2d_37">
    <path d="M 458.909601 240.077969 
L 458.909601 23.077969 
" clip-path="url(#p3c8079b311)" style="fill: none; stroke-dasharray: 2,3.3; stroke-dashoffset: 0; stroke: #ed8936; stroke-opacity: 0.6; stroke-width: 2"/>
   </g>
   <g id="patch_3">
    <path d="M 57.474063 240.077969 
L 57.474063 23.077969 
" style="fill: none; stroke: #2d3748; stroke-width: 0.8; stroke-linejoin: miter; stroke-linecap: square"/>
   </g>
   <g id="patch_4">
    <path d="M 57.474063 240.077969 
L 559.054063 240.077969 
" style="fill: none; stroke: #2d3748; stroke-width: 0.8; stroke-linejoin: miter; stroke-linecap: square"/>
   </g>
   <g id="text_19">
    <!-- Posterior Distribution of Temperature–Sensitivity Slope -->
    <g style="fill: #2d3748" transform="translate(130.798828 17.077969) scale(0.13 -0.13)">
     <defs>
      <path id="DejaVuSans-50" d="M 1259 4147 
L 1259 2394 
L 2053 2394 
Q 2494 2394 2734 2622 
Q 2975 2850 2975 3272 
Q 2975 3691 2734 3919 
Q 2494 4147 2053 4147 
L 1259 4147 
z
M 628 4666 
L 2053 4666 
Q 2838 4666 3239 4311 
Q 3641 3956 3641 3272 
Q 3641 2581 3239 2228 
Q 2838 1875 2053 1875 
L 1259 1875 
L 1259 0 
L 628 0 
L 628 4666 
z
" transform="scale(0.015625)"/>
      <path id="DejaVuSans-72" d="M 2631 2963 
Q 2534 3019 2420 3045 
Q 2306 3072 2169 3072 
Q 1681 3072 1420 2755 
Q 1159 2438 1159 1844 
L 1159 0 
L 581 0 
L 581 3500 
L 1159 3500 
L 1159 2956 
Q 1341 3275 1631 3429 
Q 1922 3584 2338 3584 
Q 2397 3584 2469 3576 
Q 2541 3569 2628 3553 
L 2631 2963 
z
" transform="scale(0.015625)"/>
      <path id="DejaVuSans-62" d="M 3116 1747 
Q 3116 2381 2855 2742 
Q 2594 3103 2138 3103 
Q 1681 3103 1420 2742 
Q 1159 2381 1159 1747 
Q 1159 1113 1420 752 
Q 1681 391 2138 391 
Q 2594 391 2855 752 
Q 3116 1113 3116 1747 
z
M 1159 2969 
Q 1341 3281 1617 3432 
Q 1894 3584 2278 3584 
Q 2916 3584 3314 3078 
Q 3713 2572 3713 1747 
Q 3713 922 3314 415 
Q 2916 -91 2278 -91 
Q 1894 -91 1617 61 
Q 1341 213 1159 525 
L 1159 0 
L 581 0 
L 581 4863 
L 1159 4863 
L 1159 2969 
z
" transform="scale(0.015625)"/>
      <path id="DejaVuSans-75" d="M 544 1381 
L 544 3500 
L 1119 3500 
L 1119 1403 
Q 1119 906 1312 657 
Q 1506 409 1894 409 
Q 2359 409 2629 706 
Q 2900 1003 2900 1516 
L 2900 3500 
L 3475 3500 
L 3475 0 
L 2900 0 
L 2900 538 
Q 2691 219 2414 64 
Q 2138 -91 1772 -91 
Q 1169 -91 856 284 
Q 544 659 544 1381 
z
M 1991 3584 
L 1991 3584 
z
" transform="scale(0.015625)"/>
      <path id="DejaVuSans-66" d="M 2375 4863 
L 2375 4384 
L 1825 4384 
Q 1516 4384 1395 4259 
Q 1275 4134 1275 3809 
L 1275 3500 
L 2222 3500 
L 2222 3053 
L 1275 3053 
L 1275 0 
L 697 0 
L 697 3053 
L 147 3053 
L 147 3500 
L 697 3500 
L 697 3744 
Q 697 4328 969 4595 
Q 1241 4863 1831 4863 
L 2375 4863 
z
" transform="scale(0.015625)"/>
      <path id="DejaVuSans-6d" d="M 3328 2828 
Q 3544 3216 3844 3400 
Q 4144 3584 4550 3584 
Q 5097 3584 5394 3201 
Q 5691 2819 5691 2113 
L 5691 0 
L 5113 0 
L 5113 2094 
Q 5113 2597 4934 2840 
Q 4756 3084 4391 3084 
Q 3944 3084 3684 2787 
Q 3425 2491 3425 1978 
L 3425 0 
L 2847 0 
L 2847 2094 
Q 2847 2600 2669 2842 
Q 2491 3084 2119 3084 
Q 1678 3084 1418 2786 
Q 1159 2488 1159 1978 
L 1159 0 
L 581 0 
L 581 3500 
L 1159 3500 
L 1159 2956 
Q 1356 3278 1631 3431 
Q 1906 3584 2284 3584 
Q 2666 3584 2933 3390 
Q 3200 3197 3328 2828 
z
" transform="scale(0.015625)"/>
      <path id="DejaVuSans-61" d="M 2194 1759 
Q 1497 1759 1228 1600 
Q 959 1441 959 1056 
Q 959 750 1161 570 
Q 1363 391 1709 391 
Q 2188 391 2477 730 
Q 2766 1069 2766 1631 
L 2766 1759 
L 2194 1759 
z
M 3341 1997 
L 3341 0 
L 2766 0 
L 2766 531 
Q 2569 213 2275 61 
Q 1981 -91 1556 -91 
Q 1019 -91 701 211 
Q 384 513 384 1019 
Q 384 1609 779 1909 
Q 1175 2209 1959 2209 
L 2766 2209 
L 2766 2266 
Q 2766 2663 2505 2880 
Q 2244 3097 1772 3097 
Q 1472 3097 1187 3025 
Q 903 2953 641 2809 
L 641 3341 
Q 956 3463 1253 3523 
Q 1550 3584 1831 3584 
Q 2591 3584 2966 3190 
Q 3341 2797 3341 1997 
z
" transform="scale(0.015625)"/>
      <path id="DejaVuSans-2013" d="M 313 1978 
L 2888 1978 
L 2888 1528 
L 313 1528 
L 313 1978 
z
" transform="scale(0.015625)"/>
      <path id="DejaVuSans-76" d="M 191 3500 
L 800 3500 
L 1894 563 
L 2988 3500 
L 3597 3500 
L 2284 0 
L 1503 0 
L 191 3500 
z
" transform="scale(0.015625)"/>
     </defs>
     <use xlink:href="#DejaVuSans-50"/>
     <use xlink:href="#DejaVuSans-6f" transform="translate(56.677734 0)"/>
     <use xlink:href="#DejaVuSans-73" transform="translate(117.859375 0)"/>
     <use xlink:href="#DejaVuSans-74" transform="translate(169.958984 0)"/>
     <use xlink:href="#DejaVuSans-65" transform="translate(209.167969 0)"/>
     <use xlink:href="#DejaVuSans-72" transform="translate(270.691406 0)"/>
     <use xlink:href="#DejaVuSans-69" transform="translate(311.804688 0)"/>
     <use xlink:href="#DejaVuSans-6f" transform="translate(339.587891 0)"/>
     <use xlink:href="#DejaVuSans-72" transform="translate(400.769531 0)"/>
     <use xlink:href="#DejaVuSans-20" transform="translate(441.882812 0)"/>
     <use xlink:href="#DejaVuSans-44" transform="translate(473.669922 0)"/>
     <use xlink:href="#DejaVuSans-69" transform="translate(550.671875 0)"/>
     <use xlink:href="#DejaVuSans-73" transform="translate(578.455078 0)"/>
     <use xlink:href="#DejaVuSans-74" transform="translate(630.554688 0)"/>
     <use xlink:href="#DejaVuSans-72" transform="translate(669.763672 0)"/>
     <use xlink:href="#DejaVuSans-69" transform="translate(710.876953 0)"/>
     <use xlink:href="#DejaVuSans-62" transform="translate(738.660156 0)"/>
     <use xlink:href="#DejaVuSans-75" transform="translate(802.136719 0)"/>
     <use xlink:href="#DejaVuSans-74" transform="translate(865.515625 0)"/>
     <use xlink:href="#DejaVuSans-69" transform="translate(904.724609 0)"/>
     <use xlink:href="#DejaVuSans-6f" transform="translate(932.507812 0)"/>
     <use xlink:href="#DejaVuSans-6e" transform="translate(993.689453 0)"/>
     <use xlink:href="#DejaVuSans-20" transform="translate(1057.068359 0)"/>
     <use xlink:href="#DejaVuSans-6f" transform="translate(1088.855469 0)"/>
     <use xlink:href="#DejaVuSans-66" transform="translate(1150.037109 0)"/>
     <use xlink:href="#DejaVuSans-20" transform="translate(1185.242188 0)"/>
     <use xlink:href="#DejaVuSans-54" transform="translate(1217.029297 0)"/>
     <use xlink:href="#DejaVuSans-65" transform="translate(1261.113281 0)"/>
     <use xlink:href="#DejaVuSans-6d" transform="translate(1322.636719 0)"/>
     <use xlink:href="#DejaVuSans-70" transform="translate(1420.048828 0)"/>
     <use xlink:href="#DejaVuSans-65" transform="translate(1483.525391 0)"/>
     <use xlink:href="#DejaVuSans-72" transform="translate(1545.048828 0)"/>
     <use xlink:href="#DejaVuSans-61" transform="translate(1586.162109 0)"/>
     <use xlink:href="#DejaVuSans-74" transform="translate(1647.441406 0)"/>
     <use xlink:href="#DejaVuSans-75" transform="translate(1686.650391 0)"/>
     <use xlink:href="#DejaVuSans-72" transform="translate(1750.029297 0)"/>
     <use xlink:href="#DejaVuSans-65" transform="translate(1788.892578 0)"/>
     <use xlink:href="#DejaVuSans-2013" transform="translate(1850.416016 0)"/>
     <use xlink:href="#DejaVuSans-53" transform="translate(1900.416016 0)"/>
     <use xlink:href="#DejaVuSans-65" transform="translate(1963.892578 0)"/>
     <use xlink:href="#DejaVuSans-6e" transform="translate(2025.416016 0)"/>
     <use xlink:href="#DejaVuSans-73" transform="translate(2088.794922 0)"/>
     <use xlink:href="#DejaVuSans-69" transform="translate(2140.894531 0)"/>
     <use xlink:href="#DejaVuSans-74" transform="translate(2168.677734 0)"/>
     <use xlink:href="#DejaVuSans-69" transform="translate(2207.886719 0)"/>
     <use xlink:href="#DejaVuSans-76" transform="translate(2235.669922 0)"/>
     <use xlink:href="#DejaVuSans-69" transform="translate(2294.849609 0)"/>
     <use xlink:href="#DejaVuSans-74" transform="translate(2322.632812 0)"/>
     <use xlink:href="#DejaVuSans-79" transform="translate(2361.841797 0)"/>
     <use xlink:href="#DejaVuSans-20" transform="translate(2421.021484 0)"/>
     <use xlink:href="#DejaVuSans-53" transform="translate(2452.808594 0)"/>
     <use xlink:href="#DejaVuSans-6c" transform="translate(2516.285156 0)"/>
     <use xlink:href="#DejaVuSans-6f" transform="translate(2544.068359 0)"/>
     <use xlink:href="#DejaVuSans-70" transform="translate(2605.25 0)"/>
     <use xlink:href="#DejaVuSans-65" transform="translate(2668.726562 0)"/>
    </g>
   </g>
   <g id="legend_1">
    <g id="patch_5">
     <path d="M 64.474063 60.434219 
L 173.456875 60.434219 
Q 175.456875 60.434219 175.456875 58.434219 
L 175.456875 30.077969 
Q 175.456875 28.077969 173.456875 28.077969 
L 64.474063 28.077969 
Q 62.474063 28.077969 62.474063 30.077969 
L 62.474063 58.434219 
Q 62.474063 60.434219 64.474063 60.434219 
z
" style="fill: #ffffff; opacity: 0.9; stroke: #e2e8f0; stroke-linejoin: miter"/>
    </g>
    <g id="line2d_38">
     <path d="M 66.474063 36.176406 
L 76.474063 36.176406 
L 86.474063 36.176406 
" style="fill: none; stroke: #ed8936; stroke-width: 2; stroke-linecap: square"/>
    </g>
    <g id="text_20">
     <!-- Median = -18.8 -->
     <g style="fill: #2d3748" transform="translate(94.474063 39.676406) scale(0.1 -0.1)">
      <defs>
       <path id="DejaVuSans-4d" d="M 628 4666 
L 1569 4666 
L 2759 1491 
L 3956 4666 
L 4897 4666 
L 4897 0 
L 4281 0 
L 4281 4097 
L 3078 897 
L 2444 897 
L 1241 4097 
L 1241 0 
L 628 0 
L 628 4666 
z
" transform="scale(0.015625)"/>
       <path id="DejaVuSans-64" d="M 2906 2969 
L 2906 4863 
L 3481 4863 
L 3481 0 
L 2906 0 
L 2906 525 
Q 2725 213 2448 61 
Q 2172 -91 1784 -91 
Q 1150 -91 751 415 
Q 353 922 353 1747 
Q 353 2572 751 3078 
Q 1150 3584 1784 3584 
Q 2172 3584 2448 3432 
Q 2725 3281 2906 2969 
z
M 947 1747 
Q 947 1113 1208 752 
Q 1469 391 1925 391 
Q 2381 391 2643 752 
Q 2906 1113 2906 1747 
Q 2906 2381 2643 2742 
Q 2381 3103 1925 3103 
Q 1469 3103 1208 2742 
Q 947 2381 947 1747 
z
" transform="scale(0.015625)"/>
       <path id="DejaVuSans-3d" d="M 678 2906 
L 4684 2906 
L 4684 2381 
L 678 2381 
L 678 2906 
z
M 678 1631 
L 4684 1631 
L 4684 1100 
L 678 1100 
L 678 1631 
z
" transform="scale(0.015625)"/>
       <path id="DejaVuSans-2d" d="M 313 2009 
L 1997 2009 
L 1997 1497 
L 313 1497 
L 313 2009 
z
" transform="scale(0.015625)"/>
      </defs>
      <use xlink:href="#DejaVuSans-4d"/>
      <use xlink:href="#DejaVuSans-65" transform="translate(86.279297 0)"/>
      <use xlink:href="#DejaVuSans-64" transform="translate(147.802734 0)"/>
      <use xlink:href="#DejaVuSans-69" transform="translate(211.279297 0)"/>
      <use xlink:href="#DejaVuSans-61" transform="translate(239.0625 0)"/>
      <use xlink:href="#DejaVuSans-6e" transform="translate(300.341797 0)"/>
      <use xlink:href="#DejaVuSans-20" transform="translate(363.720703 0)"/>
      <use xlink:href="#DejaVuSans-3d" transform="translate(395.507812 0)"/>
      <use xlink:href="#DejaVuSans-20" transform="translate(479.296875 0)"/>
      <use xlink:href="#DejaVuSans-2d" transform="translate(511.083984 0)"/>
      <use xlink:href="#DejaVuSans-31" transform="translate(547.167969 0)"/>
      <use xlink:href="#DejaVuSans-38" transform="translate(610.791016 0)"/>
      <use xlink:href="#DejaVuSans-2e" transform="translate(674.414062 0)"/>
      <use xlink:href="#DejaVuSans-38" transform="translate(706.201172 0)"/>
     </g>
    </g>
    <g id="line2d_39">
     <path d="M 66.474063 50.854531 
L 76.474063 50.854531 
L 86.474063 50.854531 
" style="fill: none; stroke-dasharray: 7.4,3.2; stroke-dashoffset: 0; stroke: #808080; stroke-opacity: 0.5; stroke-width: 2"/>
    </g>
    <g id="text_21">
     <!-- No effect -->
     <g style="fill: #2d3748" transform="translate(94.474063 54.354531) scale(0.1 -0.1)">
      <defs>
       <path id="DejaVuSans-4e" d="M 628 4666 
L 1478 4666 
L 3547 763 
L 3547 4666 
L 4159 4666 
L 4159 0 
L 3309 0 
L 1241 3903 
L 1241 0 
L 628 0 
L 628 4666 
z
" transform="scale(0.015625)"/>
       <path id="DejaVuSans-63" d="M 3122 3366 
L 3122 2828 
Q 2878 2963 2633 3030 
Q 2388 3097 2138 3097 
Q 1578 3097 1268 2742 
Q 959 2388 959 1747 
Q 959 1106 1268 751 
Q 1578 397 2138 397 
Q 2388 397 2633 464 
Q 2878 531 3122 666 
L 3122 134 
Q 2881 22 2623 -34 
Q 2366 -91 2075 -91 
Q 1284 -91 818 406 
Q 353 903 353 1747 
Q 353 2603 823 3093 
Q 1294 3584 2113 3584 
Q 2378 3584 2631 3529 
Q 2884 3475 3122 3366 
z
" transform="scale(0.015625)"/>
      </defs>
      <use xlink:href="#DejaVuSans-4e"/>
      <use xlink:href="#DejaVuSans-6f" transform="translate(74.804688 0)"/>
      <use xlink:href="#DejaVuSans-20" transform="translate(135.986328 0)"/>
      <use xlink:href="#DejaVuSans-65" transform="translate(167.773438 0)"/>
      <use xlink:href="#DejaVuSans-66" transform="translate(229.296875 0)"/>
      <use xlink:href="#DejaVuSans-66" transform="translate(264.501953 0)"/>
      <use xlink:href="#DejaVuSans-65" transform="translate(299.707031 0)"/>
      <use xlink:href="#DejaVuSans-63" transform="translate(361.230469 0)"/>
      <use xlink:href="#DejaVuSans-74" transform="translate(416.210938 0)"/>
     </g>
    </g>
   </g>
  </g>
 </g>
 <defs>
  <clipPath id="p3c8079b311">
   <rect x="57.474063" y="23.077969" width="501.58" height="217"/>
  </clipPath>
 </defs>
</svg>
