<?xml version="1.0" encoding="utf-8" standalone="no"?>
<!DOCTYPE svg PUBLIC "-//W3C//DTD SVG 1.1//EN"
  "http://www.w3.org/Graphics/SVG/1.1/DTD/svg11.dtd">
<svg xmlns:xlink="http://www.w3.org/1999/xlink" width="807.962306pt" height="358.960492pt" viewBox="0 0 807.962306 358.960492" xmlns="http://www.w3.org/2000/svg" version="1.1">
 <metadata>
  <rdf:RDF xmlns:dc="http://purl.org/dc/elements/1.1/" xmlns:cc="http://creativecommons.org/ns#" xmlns:rdf="http://www.w3.org/1999/02/22-rdf-syntax-ns#">
   <cc:Work>
    <dc:type rdf:resource="http://purl.org/dc/dcmitype/StillImage"/>
    <dc:date>2026-03-03T18:13:42.791498</dc:date>
    <dc:format>image/svg+xml</dc:format>
    <dc:creator>
     <cc:Agent>
      <dc:title>Matplotlib v3.10.8, https://matplotlib.org/</dc:title>
     </cc:Agent>
    </dc:creator>
   </cc:Work>
  </rdf:RDF>
 </metadata>
 <defs>
  <style type="text/css">*{stroke-linejoin: round; stroke-linecap: butt}</style>
 </defs>
 <g id="figure_1">
  <g id="patch_1">
   <path d="M -0 358.960492 
L 807.962306 358.960492 
L 807.962306 -0 
L -0 -0 
z
" style="fill: #ffffff"/>
  </g>
  <g id="axes_1">
   <g id="patch_2">
    <path d="M 23.880105 337.315097 
L 357.482201 337.315097 
L 190.681153 48.407207 
z
" clip-path="url(#p9deaeba26a)" style="fill: #808080; opacity: 0.05; stroke: #808080; stroke-linejoin: miter"/>
   </g>
   <g id="patch_3">
    <path d="M 107.280629 308.424308 
L 265.741625 265.088125 
L 182.341101 149.524969 
z
" clip-path="url(#p9deaeba26a)" style="fill: #228b22; opacity: 0.15; stroke: #228b22; stroke-linejoin: miter"/>
   </g>
   <g id="line2d_1">
    <path d="M 23.880105 337.315097 
L 357.482201 337.315097 
L 190.681153 48.407207 
L 23.880105 337.315097 
" clip-path="url(#p9deaeba26a)" style="fill: none; stroke: #000000; stroke-opacity: 0.5; stroke-width: 1.5; stroke-linecap: square"/>
   </g>
   <g id="line2d_2">
    <path d="M 107.280629 308.424308 
L 265.741625 265.088125 
L 182.341101 149.524969 
L 107.280629 308.424308 
" clip-path="url(#p9deaeba26a)" style="fill: none; stroke-dasharray: 5.55,2.4; stroke-dashoffset: 0; stroke: #008000; stroke-opacity: 0.7; stroke-width: 1.5"/>
   </g>
   <g id="text_1">
    <!-- e₁ -->
    <g transform="translate(23.220105 337.755097) scale(0.11 -0.11)">
     <defs>
      <path id="DejaVuSans-Bold-65" d="M 4031 1759 
L 4031 1441 
L 1416 1441 
Q 1456 1047 1700 850 
Q 1944 653 2381 653 
Q 2734 653 3104 758 
Q 3475 863 3866 1075 
L 3866 213 
Q 3469 63 3072 -14 
Q 2675 -91 2278 -91 
Q 1328 -91 801 392 
Q 275 875 275 1747 
Q 275 2603 792 3093 
Q 1309 3584 2216 3584 
Q 3041 3584 3536 3087 
Q 4031 2591 4031 1759 
z
M 2881 2131 
Q 2881 2450 2695 2645 
Q 2509 2841 2209 2841 
Q 1884 2841 1681 2658 
Q 1478 2475 1428 2131 
L 2881 2131 
z
" transform="scale(0.015625)"/>
      <path id="DejaVuSans-Bold-2081" d="M 441 490 
L 1088 490 
L 1088 2118 
L 384 1956 
L 384 2456 
L 1100 2609 
L 1806 2609 
L 1806 490 
L 2444 490 
L 2444 0 
L 441 0 
L 441 490 
z
" transform="scale(0.015625)"/>
     </defs>
     <use xlink:href="#DejaVuSans-Bold-65"/>
     <use xlink:href="#DejaVuSans-Bold-2081" transform="translate(67.822266 0)"/>
    </g>
   </g>
   <g id="text_2">
    <!-- e₂ -->
    <g transform="translate(357.812201 337.755097) scale(0.11 -0.11)">
     <defs>
      <path id="DejaVuSans-Bold-2082" d="M 1288 525 
L 2444 525 
L 2444 0 
L 341 0 
L 341 478 
L 1319 1309 
Q 1509 1475 1590 1600 
Q 1672 1725 1672 1850 
Q 1672 2006 1558 2103 
Q 1444 2200 1259 2200 
Q 1066 2200 844 2129 
Q 622 2059 359 1912 
L 359 2493 
Q 631 2578 886 2620 
Q 1141 2662 1375 2662 
Q 1869 2662 2150 2460 
Q 2431 2259 2431 1912 
Q 2431 1687 2320 1498 
Q 2209 1309 1894 1040 
L 1288 525 
z
" transform="scale(0.015625)"/>
     </defs>
     <use xlink:href="#DejaVuSans-Bold-65"/>
     <use xlink:href="#DejaVuSans-Bold-2082" transform="translate(67.822266 0)"/>
    </g>
   </g>
   <g id="text_3">
    <!-- e₃ -->
    <g transform="translate(191.011153 48.187207) scale(0.11 -0.11)">
     <defs>
      <path id="DejaVuSans-Bold-2083" d="M 1850 1412 
Q 2138 1356 2297 1184 
Q 2456 1012 2456 759 
Q 2456 356 2147 154 
Q 1838 -47 1209 -47 
Q 956 -47 725 -11 
Q 494 25 281 93 
L 281 637 
Q 488 525 688 467 
Q 888 409 1075 409 
Q 1372 409 1534 509 
Q 1697 609 1697 793 
Q 1697 993 1530 1088 
Q 1363 1184 1006 1184 
L 775 1184 
L 775 1612 
L 1038 1612 
Q 1344 1612 1484 1685 
Q 1625 1759 1625 1918 
Q 1625 2059 1503 2129 
Q 1381 2200 1131 2200 
Q 969 2200 776 2159 
Q 584 2118 366 2034 
L 366 2553 
Q 569 2606 805 2634 
Q 1041 2662 1313 2662 
Q 1834 2662 2111 2487 
Q 2388 2312 2388 1984 
Q 2388 1768 2247 1618 
Q 2106 1468 1850 1412 
z
" transform="scale(0.015625)"/>
     </defs>
     <use xlink:href="#DejaVuSans-Bold-65"/>
     <use xlink:href="#DejaVuSans-Bold-2083" transform="translate(67.822266 0)"/>
    </g>
   </g>
   <g id="text_4">
    <!-- π⁽1⁾ -->
    <g transform="translate(112.280629 303.424308) scale(0.1 -0.1)">
     <defs>
      <path id="DejaVuSans-3c0" d="M 231 3500 
L 3584 3500 
L 3584 2925 
L 3144 2925 
L 3144 775 
Q 3144 550 3220 451 
Q 3297 353 3469 353 
Q 3516 353 3584 361 
Q 3653 369 3675 372 
L 3675 -44 
Q 3566 -84 3450 -103 
Q 3334 -122 3219 -122 
Q 2844 -122 2700 83 
Q 2556 288 2556 838 
L 2556 2925 
L 1266 2925 
L 1266 0 
L 678 0 
L 678 2925 
L 231 2925 
L 231 3500 
z
" transform="scale(0.015625)"/>
      <path id="DejaVuSans-207d" d="M 1250 4806 
Q 988 4403 859 4009 
Q 731 3616 731 3212 
Q 731 2809 859 2412 
Q 988 2016 1250 1616 
L 934 1616 
Q 641 2025 494 2425 
Q 347 2822 347 3212 
Q 347 3603 494 4000 
Q 638 4394 934 4806 
L 1250 4806 
z
" transform="scale(0.015625)"/>
      <path id="DejaVuSans-31" d="M 794 531 
L 1825 531 
L 1825 4091 
L 703 3866 
L 703 4441 
L 1819 4666 
L 2450 4666 
L 2450 531 
L 3481 531 
L 3481 0 
L 794 0 
L 794 531 
z
" transform="scale(0.015625)"/>
      <path id="DejaVuSans-207e" d="M 322 4806 
L 638 4806 
Q 934 4394 1081 4000 
Q 1225 3603 1225 3212 
Q 1225 2822 1081 2425 
Q 934 2025 638 1616 
L 322 1616 
Q 584 2016 713 2413 
Q 844 2809 844 3212 
Q 844 3616 713 4009 
Q 584 4403 322 4806 
z
" transform="scale(0.015625)"/>
     </defs>
     <use xlink:href="#DejaVuSans-3c0"/>
     <use xlink:href="#DejaVuSans-207d" transform="translate(60.205078 0)"/>
     <use xlink:href="#DejaVuSans-31" transform="translate(84.765625 0)"/>
     <use xlink:href="#DejaVuSans-207e" transform="translate(148.388672 0)"/>
    </g>
   </g>
   <g id="text_5">
    <!-- π⁽2⁾ -->
    <g transform="translate(270.741625 260.088125) scale(0.1 -0.1)">
     <defs>
      <path id="DejaVuSans-32" d="M 1228 531 
L 3431 531 
L 3431 0 
L 469 0 
L 469 531 
Q 828 903 1448 1529 
Q 2069 2156 2228 2338 
Q 2531 2678 2651 2914 
Q 2772 3150 2772 3378 
Q 2772 3750 2511 3984 
Q 2250 4219 1831 4219 
Q 1534 4219 1204 4116 
Q 875 4013 500 3803 
L 500 4441 
Q 881 4594 1212 4672 
Q 1544 4750 1819 4750 
Q 2544 4750 2975 4387 
Q 3406 4025 3406 3419 
Q 3406 3131 3298 2873 
Q 3191 2616 2906 2266 
Q 2828 2175 2409 1742 
Q 1991 1309 1228 531 
z
" transform="scale(0.015625)"/>
     </defs>
     <use xlink:href="#DejaVuSans-3c0"/>
     <use xlink:href="#DejaVuSans-207d" transform="translate(60.205078 0)"/>
     <use xlink:href="#DejaVuSans-32" transform="translate(84.765625 0)"/>
     <use xlink:href="#DejaVuSans-207e" transform="translate(148.388672 0)"/>
    </g>
   </g>
   <g id="text_6">
    <!-- π⁽3⁾ -->
    <g transform="translate(187.341101 144.524969) scale(0.1 -0.1)">
     <defs>
      <path id="DejaVuSans-33" d="M 2597 2516 
Q 3050 2419 3304 2112 
Q 3559 1806 3559 1356 
Q 3559 666 3084 287 
Q 2609 -91 1734 -91 
Q 1441 -91 1130 -33 
Q 819 25 488 141 
L 488 750 
Q 750 597 1062 519 
Q 1375 441 1716 441 
Q 2309 441 2620 675 
Q 2931 909 2931 1356 
Q 2931 1769 2642 2001 
Q 2353 2234 1838 2234 
L 1294 2234 
L 1294 2753 
L 1863 2753 
Q 2328 2753 2575 2939 
Q 2822 3125 2822 3475 
Q 2822 3834 2567 4026 
Q 2313 4219 1838 4219 
Q 1578 4219 1281 4162 
Q 984 4106 628 3988 
L 628 4550 
Q 988 4650 1302 4700 
Q 1616 4750 1894 4750 
Q 2613 4750 3031 4423 
Q 3450 4097 3450 3541 
Q 3450 3153 3228 2886 
Q 3006 2619 2597 2516 
z
" transform="scale(0.015625)"/>
     </defs>
     <use xlink:href="#DejaVuSans-3c0"/>
     <use xlink:href="#DejaVuSans-207d" transform="translate(60.205078 0)"/>
     <use xlink:href="#DejaVuSans-33" transform="translate(84.765625 0)"/>
     <use xlink:href="#DejaVuSans-207e" transform="translate(148.388672 0)"/>
    </g>
   </g>
   <g id="text_7">
    <!-- Affinely Independent -->
    <g transform="translate(125.299903 15.558281) scale(0.11 -0.11)">
     <defs>
      <path id="DejaVuSans-Bold-41" d="M 3419 850 
L 1538 850 
L 1241 0 
L 31 0 
L 1759 4666 
L 3194 4666 
L 4922 0 
L 3713 0 
L 3419 850 
z
M 1838 1716 
L 3116 1716 
L 2478 3572 
L 1838 1716 
z
" transform="scale(0.015625)"/>
      <path id="DejaVuSans-Bold-66" d="M 2841 4863 
L 2841 4128 
L 2222 4128 
Q 1984 4128 1890 4042 
Q 1797 3956 1797 3744 
L 1797 3500 
L 2753 3500 
L 2753 2700 
L 1797 2700 
L 1797 0 
L 678 0 
L 678 2700 
L 122 2700 
L 122 3500 
L 678 3500 
L 678 3744 
Q 678 4316 997 4589 
Q 1316 4863 1984 4863 
L 2841 4863 
z
" transform="scale(0.015625)"/>
      <path id="DejaVuSans-Bold-69" d="M 538 3500 
L 1656 3500 
L 1656 0 
L 538 0 
L 538 3500 
z
M 538 4863 
L 1656 4863 
L 1656 3950 
L 538 3950 
L 538 4863 
z
" transform="scale(0.015625)"/>
      <path id="DejaVuSans-Bold-6e" d="M 4056 2131 
L 4056 0 
L 2931 0 
L 2931 347 
L 2931 1631 
Q 2931 2084 2911 2256 
Q 2891 2428 2841 2509 
Q 2775 2619 2662 2680 
Q 2550 2741 2406 2741 
Q 2056 2741 1856 2470 
Q 1656 2200 1656 1722 
L 1656 0 
L 538 0 
L 538 3500 
L 1656 3500 
L 1656 2988 
Q 1909 3294 2193 3439 
Q 2478 3584 2822 3584 
Q 3428 3584 3742 3212 
Q 4056 2841 4056 2131 
z
" transform="scale(0.015625)"/>
      <path id="DejaVuSans-Bold-6c" d="M 538 4863 
L 1656 4863 
L 1656 0 
L 538 0 
L 538 4863 
z
" transform="scale(0.015625)"/>
      <path id="DejaVuSans-Bold-79" d="M 78 3500 
L 1197 3500 
L 2138 1125 
L 2938 3500 
L 4056 3500 
L 2584 -331 
Q 2363 -916 2067 -1148 
Q 1772 -1381 1288 -1381 
L 641 -1381 
L 641 -647 
L 991 -647 
Q 1275 -647 1404 -556 
Q 1534 -466 1606 -231 
L 1638 -134 
L 78 3500 
z
" transform="scale(0.015625)"/>
      <path id="DejaVuSans-Bold-20" transform="scale(0.015625)"/>
      <path id="DejaVuSans-Bold-49" d="M 588 4666 
L 1791 4666 
L 1791 0 
L 588 0 
L 588 4666 
z
" transform="scale(0.015625)"/>
      <path id="DejaVuSans-Bold-64" d="M 2919 2988 
L 2919 4863 
L 4044 4863 
L 4044 0 
L 2919 0 
L 2919 506 
Q 2688 197 2409 53 
Q 2131 -91 1766 -91 
Q 1119 -91 703 423 
Q 288 938 288 1747 
Q 288 2556 703 3070 
Q 1119 3584 1766 3584 
Q 2128 3584 2408 3439 
Q 2688 3294 2919 2988 
z
M 2181 722 
Q 2541 722 2730 984 
Q 2919 1247 2919 1747 
Q 2919 2247 2730 2509 
Q 2541 2772 2181 2772 
Q 1825 2772 1636 2509 
Q 1447 2247 1447 1747 
Q 1447 1247 1636 984 
Q 1825 722 2181 722 
z
" transform="scale(0.015625)"/>
      <path id="DejaVuSans-Bold-70" d="M 1656 506 
L 1656 -1331 
L 538 -1331 
L 538 3500 
L 1656 3500 
L 1656 2988 
Q 1888 3294 2169 3439 
Q 2450 3584 2816 3584 
Q 3463 3584 3878 3070 
Q 4294 2556 4294 1747 
Q 4294 938 3878 423 
Q 3463 -91 2816 -91 
Q 2450 -91 2169 54 
Q 1888 200 1656 506 
z
M 2400 2772 
Q 2041 2772 1848 2508 
Q 1656 2244 1656 1747 
Q 1656 1250 1848 986 
Q 2041 722 2400 722 
Q 2759 722 2948 984 
Q 3138 1247 3138 1747 
Q 3138 2247 2948 2509 
Q 2759 2772 2400 2772 
z
" transform="scale(0.015625)"/>
      <path id="DejaVuSans-Bold-74" d="M 1759 4494 
L 1759 3500 
L 2913 3500 
L 2913 2700 
L 1759 2700 
L 1759 1216 
Q 1759 972 1856 886 
Q 1953 800 2241 800 
L 2816 800 
L 2816 0 
L 1856 0 
Q 1194 0 917 276 
Q 641 553 641 1216 
L 641 2700 
L 84 2700 
L 84 3500 
L 641 3500 
L 641 4494 
L 1759 4494 
z
" transform="scale(0.015625)"/>
     </defs>
     <use xlink:href="#DejaVuSans-Bold-41"/>
     <use xlink:href="#DejaVuSans-Bold-66" transform="translate(77.392578 0)"/>
     <use xlink:href="#DejaVuSans-Bold-66" transform="translate(120.898438 0)"/>
     <use xlink:href="#DejaVuSans-Bold-69" transform="translate(164.404297 0)"/>
     <use xlink:href="#DejaVuSans-Bold-6e" transform="translate(198.681641 0)"/>
     <use xlink:href="#DejaVuSans-Bold-65" transform="translate(269.873047 0)"/>
     <use xlink:href="#DejaVuSans-Bold-6c" transform="translate(337.695312 0)"/>
     <use xlink:href="#DejaVuSans-Bold-79" transform="translate(371.972656 0)"/>
     <use xlink:href="#DejaVuSans-Bold-20" transform="translate(437.158203 0)"/>
     <use xlink:href="#DejaVuSans-Bold-49" transform="translate(471.972656 0)"/>
     <use xlink:href="#DejaVuSans-Bold-6e" transform="translate(509.179688 0)"/>
     <use xlink:href="#DejaVuSans-Bold-64" transform="translate(580.371094 0)"/>
     <use xlink:href="#DejaVuSans-Bold-65" transform="translate(651.953125 0)"/>
     <use xlink:href="#DejaVuSans-Bold-70" transform="translate(719.775391 0)"/>
     <use xlink:href="#DejaVuSans-Bold-65" transform="translate(791.357422 0)"/>
     <use xlink:href="#DejaVuSans-Bold-6e" transform="translate(859.179688 0)"/>
     <use xlink:href="#DejaVuSans-Bold-64" transform="translate(930.371094 0)"/>
     <use xlink:href="#DejaVuSans-Bold-65" transform="translate(1001.953125 0)"/>
     <use xlink:href="#DejaVuSans-Bold-6e" transform="translate(1069.775391 0)"/>
     <use xlink:href="#DejaVuSans-Bold-74" transform="translate(1140.966797 0)"/>
    </g>
    <!-- (non-degenerate triangle) -->
    <g transform="translate(109.677325 27.961813) scale(0.11 -0.11)">
     <defs>
      <path id="DejaVuSans-Bold-28" d="M 2413 -844 
L 1484 -844 
Q 1006 -72 778 623 
Q 550 1319 550 2003 
Q 550 2688 779 3389 
Q 1009 4091 1484 4856 
L 2413 4856 
Q 2013 4116 1813 3408 
Q 1613 2700 1613 2009 
Q 1613 1319 1811 609 
Q 2009 -100 2413 -844 
z
" transform="scale(0.015625)"/>
      <path id="DejaVuSans-Bold-6f" d="M 2203 2784 
Q 1831 2784 1636 2517 
Q 1441 2250 1441 1747 
Q 1441 1244 1636 976 
Q 1831 709 2203 709 
Q 2569 709 2762 976 
Q 2956 1244 2956 1747 
Q 2956 2250 2762 2517 
Q 2569 2784 2203 2784 
z
M 2203 3584 
Q 3106 3584 3614 3096 
Q 4122 2609 4122 1747 
Q 4122 884 3614 396 
Q 3106 -91 2203 -91 
Q 1297 -91 786 396 
Q 275 884 275 1747 
Q 275 2609 786 3096 
Q 1297 3584 2203 3584 
z
" transform="scale(0.015625)"/>
      <path id="DejaVuSans-Bold-2d" d="M 347 2297 
L 2309 2297 
L 2309 1388 
L 347 1388 
L 347 2297 
z
" transform="scale(0.015625)"/>
      <path id="DejaVuSans-Bold-67" d="M 2919 594 
Q 2688 288 2409 144 
Q 2131 0 1766 0 
Q 1125 0 706 504 
Q 288 1009 288 1791 
Q 288 2575 706 3076 
Q 1125 3578 1766 3578 
Q 2131 3578 2409 3434 
Q 2688 3291 2919 2981 
L 2919 3500 
L 4044 3500 
L 4044 353 
Q 4044 -491 3511 -936 
Q 2978 -1381 1966 -1381 
Q 1638 -1381 1331 -1331 
Q 1025 -1281 716 -1178 
L 716 -306 
Q 1009 -475 1290 -558 
Q 1572 -641 1856 -641 
Q 2406 -641 2662 -400 
Q 2919 -159 2919 353 
L 2919 594 
z
M 2181 2772 
Q 1834 2772 1640 2515 
Q 1447 2259 1447 1791 
Q 1447 1309 1634 1061 
Q 1822 813 2181 813 
Q 2531 813 2725 1069 
Q 2919 1325 2919 1791 
Q 2919 2259 2725 2515 
Q 2531 2772 2181 2772 
z
" transform="scale(0.015625)"/>
      <path id="DejaVuSans-Bold-72" d="M 3138 2547 
Q 2991 2616 2845 2648 
Q 2700 2681 2553 2681 
Q 2122 2681 1889 2404 
Q 1656 2128 1656 1613 
L 1656 0 
L 538 0 
L 538 3500 
L 1656 3500 
L 1656 2925 
Q 1872 3269 2151 3426 
Q 2431 3584 2822 3584 
Q 2878 3584 2943 3579 
Q 3009 3575 3134 3559 
L 3138 2547 
z
" transform="scale(0.015625)"/>
      <path id="DejaVuSans-Bold-61" d="M 2106 1575 
Q 1756 1575 1579 1456 
Q 1403 1338 1403 1106 
Q 1403 894 1545 773 
Q 1688 653 1941 653 
Q 2256 653 2472 879 
Q 2688 1106 2688 1447 
L 2688 1575 
L 2106 1575 
z
M 3816 1997 
L 3816 0 
L 2688 0 
L 2688 519 
Q 2463 200 2181 54 
Q 1900 -91 1497 -91 
Q 953 -91 614 226 
Q 275 544 275 1050 
Q 275 1666 698 1953 
Q 1122 2241 2028 2241 
L 2688 2241 
L 2688 2328 
Q 2688 2594 2478 2717 
Q 2269 2841 1825 2841 
Q 1466 2841 1156 2769 
Q 847 2697 581 2553 
L 581 3406 
Q 941 3494 1303 3539 
Q 1666 3584 2028 3584 
Q 2975 3584 3395 3211 
Q 3816 2838 3816 1997 
z
" transform="scale(0.015625)"/>
      <path id="DejaVuSans-Bold-29" d="M 513 -844 
Q 913 -100 1113 609 
Q 1313 1319 1313 2009 
Q 1313 2700 1113 3408 
Q 913 4116 513 4856 
L 1441 4856 
Q 1916 4091 2145 3389 
Q 2375 2688 2375 2003 
Q 2375 1319 2147 623 
Q 1919 -72 1441 -844 
L 513 -844 
z
" transform="scale(0.015625)"/>
     </defs>
     <use xlink:href="#DejaVuSans-Bold-28"/>
     <use xlink:href="#DejaVuSans-Bold-6e" transform="translate(45.703125 0)"/>
     <use xlink:href="#DejaVuSans-Bold-6f" transform="translate(116.894531 0)"/>
     <use xlink:href="#DejaVuSans-Bold-6e" transform="translate(185.595703 0)"/>
     <use xlink:href="#DejaVuSans-Bold-2d" transform="translate(256.787109 0)"/>
     <use xlink:href="#DejaVuSans-Bold-64" transform="translate(298.291016 0)"/>
     <use xlink:href="#DejaVuSans-Bold-65" transform="translate(369.873047 0)"/>
     <use xlink:href="#DejaVuSans-Bold-67" transform="translate(437.695312 0)"/>
     <use xlink:href="#DejaVuSans-Bold-65" transform="translate(509.277344 0)"/>
     <use xlink:href="#DejaVuSans-Bold-6e" transform="translate(577.099609 0)"/>
     <use xlink:href="#DejaVuSans-Bold-65" transform="translate(648.291016 0)"/>
     <use xlink:href="#DejaVuSans-Bold-72" transform="translate(716.113281 0)"/>
     <use xlink:href="#DejaVuSans-Bold-61" transform="translate(765.429688 0)"/>
     <use xlink:href="#DejaVuSans-Bold-74" transform="translate(832.910156 0)"/>
     <use xlink:href="#DejaVuSans-Bold-65" transform="translate(880.712891 0)"/>
     <use xlink:href="#DejaVuSans-Bold-20" transform="translate(948.535156 0)"/>
     <use xlink:href="#DejaVuSans-Bold-74" transform="translate(983.349609 0)"/>
     <use xlink:href="#DejaVuSans-Bold-72" transform="translate(1031.152344 0)"/>
     <use xlink:href="#DejaVuSans-Bold-69" transform="translate(1080.46875 0)"/>
     <use xlink:href="#DejaVuSans-Bold-61" transform="translate(1114.746094 0)"/>
     <use xlink:href="#DejaVuSans-Bold-6e" transform="translate(1182.226562 0)"/>
     <use xlink:href="#DejaVuSans-Bold-67" transform="translate(1253.417969 0)"/>
     <use xlink:href="#DejaVuSans-Bold-6c" transform="translate(1325 0)"/>
     <use xlink:href="#DejaVuSans-Bold-65" transform="translate(1359.277344 0)"/>
     <use xlink:href="#DejaVuSans-Bold-29" transform="translate(1427.099609 0)"/>
    </g>
   </g>
   <g id="PathCollection_1">
    <defs>
     <path id="m75487f683e" d="M 0 5.477226 
C 1.452577 5.477226 2.845856 4.900111 3.872983 3.872983 
C 4.900111 2.845856 5.477226 1.452577 5.477226 0 
C 5.477226 -1.452577 4.900111 -2.845856 3.872983 -3.872983 
C 2.845856 -4.900111 1.452577 -5.477226 0 -5.477226 
C -1.452577 -5.477226 -2.845856 -4.900111 -3.872983 -3.872983 
C -4.900111 -2.845856 -5.477226 -1.452577 -5.477226 0 
C -5.477226 1.452577 -4.900111 2.845856 -3.872983 3.872983 
C -2.845856 4.900111 -1.452577 5.477226 0 5.477226 
z
" style="stroke: #ffffff; stroke-width: 1.5"/>
    </defs>
    <g clip-path="url(#p9deaeba26a)">
     <use xlink:href="#m75487f683e" x="107.280629" y="308.424308" style="fill: #228b22; stroke: #ffffff; stroke-width: 1.5"/>
    </g>
   </g>
   <g id="PathCollection_2">
    <g clip-path="url(#p9deaeba26a)">
     <use xlink:href="#m75487f683e" x="265.741625" y="265.088125" style="fill: #228b22; stroke: #ffffff; stroke-width: 1.5"/>
    </g>
   </g>
   <g id="PathCollection_3">
    <g clip-path="url(#p9deaeba26a)">
     <use xlink:href="#m75487f683e" x="182.341101" y="149.524969" style="fill: #228b22; stroke: #ffffff; stroke-width: 1.5"/>
    </g>
   </g>
  </g>
  <g id="axes_2">
   <g id="patch_4">
    <path d="M 450.480105 337.315097 
L 784.082201 337.315097 
L 617.281153 48.407207 
z
" clip-path="url(#p6c21560e31)" style="fill: #808080; opacity: 0.05; stroke: #808080; stroke-linejoin: miter"/>
   </g>
   <g id="line2d_3">
    <path d="M 450.480105 337.315097 
L 784.082201 337.315097 
L 617.281153 48.407207 
L 450.480105 337.315097 
" clip-path="url(#p6c21560e31)" style="fill: none; stroke: #000000; stroke-opacity: 0.5; stroke-width: 1.5; stroke-linecap: square"/>
   </g>
   <g id="line2d_4">
    <path d="M 567.240839 308.424308 
L 650.641363 221.751941 
" clip-path="url(#p6c21560e31)" style="fill: none; stroke-dasharray: 7.4,3.2; stroke-dashoffset: 0; stroke: #ff0000; stroke-opacity: 0.7; stroke-width: 2"/>
   </g>
   <g id="text_8">
    <!-- e₁ -->
    <g transform="translate(449.820105 337.755097) scale(0.11 -0.11)">
     <use xlink:href="#DejaVuSans-Bold-65"/>
     <use xlink:href="#DejaVuSans-Bold-2081" transform="translate(67.822266 0)"/>
    </g>
   </g>
   <g id="text_9">
    <!-- e₂ -->
    <g transform="translate(784.412201 337.755097) scale(0.11 -0.11)">
     <use xlink:href="#DejaVuSans-Bold-65"/>
     <use xlink:href="#DejaVuSans-Bold-2082" transform="translate(67.822266 0)"/>
    </g>
   </g>
   <g id="text_10">
    <!-- e₃ -->
    <g transform="translate(617.611153 48.187207) scale(0.11 -0.11)">
     <use xlink:href="#DejaVuSans-Bold-65"/>
     <use xlink:href="#DejaVuSans-Bold-2083" transform="translate(67.822266 0)"/>
    </g>
   </g>
   <g id="text_11">
    <!-- π⁽1⁾ -->
    <g transform="translate(572.240839 303.424308) scale(0.1 -0.1)">
     <use xlink:href="#DejaVuSans-3c0"/>
     <use xlink:href="#DejaVuSans-207d" transform="translate(60.205078 0)"/>
     <use xlink:href="#DejaVuSans-31" transform="translate(84.765625 0)"/>
     <use xlink:href="#DejaVuSans-207e" transform="translate(148.388672 0)"/>
    </g>
   </g>
   <g id="text_12">
    <!-- π⁽2⁾ -->
    <g transform="translate(613.941101 260.088125) scale(0.1 -0.1)">
     <use xlink:href="#DejaVuSans-3c0"/>
     <use xlink:href="#DejaVuSans-207d" transform="translate(60.205078 0)"/>
     <use xlink:href="#DejaVuSans-32" transform="translate(84.765625 0)"/>
     <use xlink:href="#DejaVuSans-207e" transform="translate(148.388672 0)"/>
    </g>
   </g>
   <g id="text_13">
    <!-- π⁽3⁾ -->
    <g transform="translate(655.641363 216.751941) scale(0.1 -0.1)">
     <use xlink:href="#DejaVuSans-3c0"/>
     <use xlink:href="#DejaVuSans-207d" transform="translate(60.205078 0)"/>
     <use xlink:href="#DejaVuSans-33" transform="translate(84.765625 0)"/>
     <use xlink:href="#DejaVuSans-207e" transform="translate(148.388672 0)"/>
    </g>
   </g>
   <g id="text_14">
    <!-- Affinely Dependent -->
    <g transform="translate(557.232325 15.558281) scale(0.11 -0.11)">
     <defs>
      <path id="DejaVuSans-Bold-44" d="M 1791 3756 
L 1791 909 
L 2222 909 
Q 2959 909 3348 1275 
Q 3738 1641 3738 2338 
Q 3738 3031 3350 3393 
Q 2963 3756 2222 3756 
L 1791 3756 
z
M 588 4666 
L 1856 4666 
Q 2919 4666 3439 4514 
Q 3959 4363 4331 4000 
Q 4659 3684 4818 3271 
Q 4978 2859 4978 2338 
Q 4978 1809 4818 1395 
Q 4659 981 4331 666 
Q 3956 303 3431 151 
Q 2906 0 1856 0 
L 588 0 
L 588 4666 
z
" transform="scale(0.015625)"/>
     </defs>
     <use xlink:href="#DejaVuSans-Bold-41"/>
     <use xlink:href="#DejaVuSans-Bold-66" transform="translate(77.392578 0)"/>
     <use xlink:href="#DejaVuSans-Bold-66" transform="translate(120.898438 0)"/>
     <use xlink:href="#DejaVuSans-Bold-69" transform="translate(164.404297 0)"/>
     <use xlink:href="#DejaVuSans-Bold-6e" transform="translate(198.681641 0)"/>
     <use xlink:href="#DejaVuSans-Bold-65" transform="translate(269.873047 0)"/>
     <use xlink:href="#DejaVuSans-Bold-6c" transform="translate(337.695312 0)"/>
     <use xlink:href="#DejaVuSans-Bold-79" transform="translate(371.972656 0)"/>
     <use xlink:href="#DejaVuSans-Bold-20" transform="translate(437.158203 0)"/>
     <use xlink:href="#DejaVuSans-Bold-44" transform="translate(471.972656 0)"/>
     <use xlink:href="#DejaVuSans-Bold-65" transform="translate(554.980469 0)"/>
     <use xlink:href="#DejaVuSans-Bold-70" transform="translate(622.802734 0)"/>
     <use xlink:href="#DejaVuSans-Bold-65" transform="translate(694.384766 0)"/>
     <use xlink:href="#DejaVuSans-Bold-6e" transform="translate(762.207031 0)"/>
     <use xlink:href="#DejaVuSans-Bold-64" transform="translate(833.398438 0)"/>
     <use xlink:href="#DejaVuSans-Bold-65" transform="translate(904.980469 0)"/>
     <use xlink:href="#DejaVuSans-Bold-6e" transform="translate(972.802734 0)"/>
     <use xlink:href="#DejaVuSans-Bold-74" transform="translate(1043.994141 0)"/>
    </g>
    <!-- (collinear — identification fails) -->
    <g transform="translate(519.655294 27.961813) scale(0.11 -0.11)">
     <defs>
      <path id="DejaVuSans-Bold-63" d="M 3366 3391 
L 3366 2478 
Q 3138 2634 2908 2709 
Q 2678 2784 2431 2784 
Q 1963 2784 1702 2511 
Q 1441 2238 1441 1747 
Q 1441 1256 1702 982 
Q 1963 709 2431 709 
Q 2694 709 2930 787 
Q 3166 866 3366 1019 
L 3366 103 
Q 3103 6 2833 -42 
Q 2563 -91 2291 -91 
Q 1344 -91 809 395 
Q 275 881 275 1747 
Q 275 2613 809 3098 
Q 1344 3584 2291 3584 
Q 2566 3584 2833 3536 
Q 3100 3488 3366 3391 
z
" transform="scale(0.015625)"/>
      <path id="DejaVuSans-Bold-2014" d="M 344 2156 
L 6056 2156 
L 6056 1350 
L 344 1350 
L 344 2156 
z
" transform="scale(0.015625)"/>
      <path id="DejaVuSans-Bold-73" d="M 3272 3391 
L 3272 2541 
Q 2913 2691 2578 2766 
Q 2244 2841 1947 2841 
Q 1628 2841 1473 2761 
Q 1319 2681 1319 2516 
Q 1319 2381 1436 2309 
Q 1553 2238 1856 2203 
L 2053 2175 
Q 2913 2066 3209 1816 
Q 3506 1566 3506 1031 
Q 3506 472 3093 190 
Q 2681 -91 1863 -91 
Q 1516 -91 1145 -36 
Q 775 19 384 128 
L 384 978 
Q 719 816 1070 734 
Q 1422 653 1784 653 
Q 2113 653 2278 743 
Q 2444 834 2444 1013 
Q 2444 1163 2330 1236 
Q 2216 1309 1875 1350 
L 1678 1375 
Q 931 1469 631 1722 
Q 331 1975 331 2491 
Q 331 3047 712 3315 
Q 1094 3584 1881 3584 
Q 2191 3584 2531 3537 
Q 2872 3491 3272 3391 
z
" transform="scale(0.015625)"/>
     </defs>
     <use xlink:href="#DejaVuSans-Bold-28"/>
     <use xlink:href="#DejaVuSans-Bold-63" transform="translate(45.703125 0)"/>
     <use xlink:href="#DejaVuSans-Bold-6f" transform="translate(104.980469 0)"/>
     <use xlink:href="#DejaVuSans-Bold-6c" transform="translate(173.681641 0)"/>
     <use xlink:href="#DejaVuSans-Bold-6c" transform="translate(207.958984 0)"/>
     <use xlink:href="#DejaVuSans-Bold-69" transform="translate(242.236328 0)"/>
     <use xlink:href="#DejaVuSans-Bold-6e" transform="translate(276.513672 0)"/>
     <use xlink:href="#DejaVuSans-Bold-65" transform="translate(347.705078 0)"/>
     <use xlink:href="#DejaVuSans-Bold-61" transform="translate(415.527344 0)"/>
     <use xlink:href="#DejaVuSans-Bold-72" transform="translate(483.007812 0)"/>
     <use xlink:href="#DejaVuSans-Bold-20" transform="translate(532.324219 0)"/>
     <use xlink:href="#DejaVuSans-Bold-2014" transform="translate(567.138672 0)"/>
     <use xlink:href="#DejaVuSans-Bold-20" transform="translate(667.138672 0)"/>
     <use xlink:href="#DejaVuSans-Bold-69" transform="translate(701.953125 0)"/>
     <use xlink:href="#DejaVuSans-Bold-64" transform="translate(736.230469 0)"/>
     <use xlink:href="#DejaVuSans-Bold-65" transform="translate(807.8125 0)"/>
     <use xlink:href="#DejaVuSans-Bold-6e" transform="translate(875.634766 0)"/>
     <use xlink:href="#DejaVuSans-Bold-74" transform="translate(946.826172 0)"/>
     <use xlink:href="#DejaVuSans-Bold-69" transform="translate(994.628906 0)"/>
     <use xlink:href="#DejaVuSans-Bold-66" transform="translate(1028.90625 0)"/>
     <use xlink:href="#DejaVuSans-Bold-69" transform="translate(1072.412109 0)"/>
     <use xlink:href="#DejaVuSans-Bold-63" transform="translate(1106.689453 0)"/>
     <use xlink:href="#DejaVuSans-Bold-61" transform="translate(1165.966797 0)"/>
     <use xlink:href="#DejaVuSans-Bold-74" transform="translate(1233.447266 0)"/>
     <use xlink:href="#DejaVuSans-Bold-69" transform="translate(1281.25 0)"/>
     <use xlink:href="#DejaVuSans-Bold-6f" transform="translate(1315.527344 0)"/>
     <use xlink:href="#DejaVuSans-Bold-6e" transform="translate(1384.228516 0)"/>
     <use xlink:href="#DejaVuSans-Bold-20" transform="translate(1455.419922 0)"/>
     <use xlink:href="#DejaVuSans-Bold-66" transform="translate(1490.234375 0)"/>
     <use xlink:href="#DejaVuSans-Bold-61" transform="translate(1533.740234 0)"/>
     <use xlink:href="#DejaVuSans-Bold-69" transform="translate(1601.220703 0)"/>
     <use xlink:href="#DejaVuSans-Bold-6c" transform="translate(1635.498047 0)"/>
     <use xlink:href="#DejaVuSans-Bold-73" transform="translate(1669.775391 0)"/>
     <use xlink:href="#DejaVuSans-Bold-29" transform="translate(1729.296875 0)"/>
    </g>
   </g>
   <g id="PathCollection_4">
    <defs>
     <path id="m0b92319935" d="M 0 5.477226 
C 1.452577 5.477226 2.845856 4.900111 3.872983 3.872983 
C 4.900111 2.845856 5.477226 1.452577 5.477226 0 
C 5.477226 -1.452577 4.900111 -2.845856 3.872983 -3.872983 
C 2.845856 -4.900111 1.452577 -5.477226 0 -5.477226 
C -1.452577 -5.477226 -2.845856 -4.900111 -3.872983 -3.872983 
C -4.900111 -2.845856 -5.477226 -1.452577 -5.477226 0 
C -5.477226 1.452577 -4.900111 2.845856 -3.872983 3.872983 
C -2.845856 4.900111 -1.452577 5.477226 0 5.477226 
z
" style="stroke: #ffffff; stroke-width: 1.5"/>
    </defs>
    <g clip-path="url(#p6c21560e31)">
     <use xlink:href="#m0b92319935" x="567.240839" y="308.424308" style="fill: #dc143c; stroke: #ffffff; stroke-width: 1.5"/>
    </g>
   </g>
   <g id="PathCollection_5">
    <g clip-path="url(#p6c21560e31)">
     <use xlink:href="#m0b92319935" x="608.941101" y="265.088125" style="fill: #dc143c; stroke: #ffffff; stroke-width: 1.5"/>
    </g>
   </g>
   <g id="PathCollection_6">
    <g clip-path="url(#p6c21560e31)">
     <use xlink:href="#m0b92319935" x="650.641363" y="221.751941" style="fill: #dc143c; stroke: #ffffff; stroke-width: 1.5"/>
    </g>
   </g>
  </g>
 </g>
 <defs>
  <clipPath id="p9deaeba26a">
   <rect x="7.2" y="33.961813" width="366.962306" height="317.798679"/>
  </clipPath>
  <clipPath id="p6c21560e31">
   <rect x="433.8" y="33.961813" width="366.962306" height="317.798679"/>
  </clipPath>
 </defs>
</svg>
