<?xml version="1.0" encoding="utf-8" standalone="no"?>
<!DOCTYPE svg PUBLIC "-//W3C//DTD SVG 1.1//EN"
  "http://www.w3.org/Graphics/SVG/1.1/DTD/svg11.dtd">
<svg xmlns:xlink="http://www.w3.org/1999/xlink" width="934.462386pt" height="350.81pt" viewBox="0 0 934.462386 350.81" xmlns="http://www.w3.org/2000/svg" version="1.1">
 <metadata>
  <rdf:RDF xmlns:dc="http://purl.org/dc/elements/1.1/" xmlns:cc="http://creativecommons.org/ns#" xmlns:rdf="http://www.w3.org/1999/02/22-rdf-syntax-ns#">
   <cc:Work>
    <dc:type rdf:resource="http://purl.org/dc/dcmitype/StillImage"/>
    <dc:date>2026-04-26T05:26:54.348371</dc:date>
    <dc:format>image/svg+xml</dc:format>
    <dc:creator>
     <cc:Agent>
      <dc:title>Matplotlib v3.10.8, https://matplotlib.org/</dc:title>
     </cc:Agent>
    </dc:creator>
   </cc:Work>
  </rdf:RDF>
 </metadata>
 <defs>
  <style type="text/css">*{stroke-linejoin: round; stroke-linecap: butt}</style>
 </defs>
 <g id="figure_1">
  <g id="patch_1">
   <path d="M 0 350.81 
L 934.462386 350.81 
L 934.462386 0 
L 0 0 
z
" style="fill: #ffffff"/>
  </g>
  <g id="axes_1">
   <g id="patch_2">
    <path d="M 42.53875 311.318125 
L 331.53875 311.318125 
L 331.53875 22.318125 
L 42.53875 22.318125 
z
" style="fill: #ffffff"/>
   </g>
   <g id="PathCollection_1">
    <defs>
     <path id="me3ba62b3df" d="M 0 3.872983 
C 1.027127 3.872983 2.012324 3.464901 2.738613 2.738613 
C 3.464901 2.012324 3.872983 1.027127 3.872983 0 
C 3.872983 -1.027127 3.464901 -2.012324 2.738613 -2.738613 
C 2.012324 -3.464901 1.027127 -3.872983 0 -3.872983 
C -1.027127 -3.872983 -2.012324 -3.464901 -2.738613 -2.738613 
C -3.464901 -2.012324 -3.872983 -1.027127 -3.872983 0 
C -3.872983 1.027127 -3.464901 2.012324 -2.738613 2.738613 
C -2.012324 3.464901 -1.027127 3.872983 0 3.872983 
z
" style="stroke: #ffffff; stroke-opacity: 0.7"/>
    </defs>
    <g clip-path="url(#pb9da4c61ae)">
     <use xlink:href="#me3ba62b3df" x="52.220926" y="296.15892" style="fill: #2c5282; fill-opacity: 0.7; stroke: #ffffff; stroke-opacity: 0.7"/>
     <use xlink:href="#me3ba62b3df" x="255.501318" y="53.078927" style="fill: #2c5282; fill-opacity: 0.7; stroke: #ffffff; stroke-opacity: 0.7"/>
     <use xlink:href="#me3ba62b3df" x="79.441219" y="268.508788" style="fill: #2c5282; fill-opacity: 0.7; stroke: #ffffff; stroke-opacity: 0.7"/>
     <use xlink:href="#me3ba62b3df" x="68.800642" y="280.729592" style="fill: #2c5282; fill-opacity: 0.7; stroke: #ffffff; stroke-opacity: 0.7"/>
     <use xlink:href="#me3ba62b3df" x="101.011004" y="224.689354" style="fill: #2c5282; fill-opacity: 0.7; stroke: #ffffff; stroke-opacity: 0.7"/>
     <use xlink:href="#me3ba62b3df" x="51.608072" y="300.779313" style="fill: #2c5282; fill-opacity: 0.7; stroke: #ffffff; stroke-opacity: 0.7"/>
     <use xlink:href="#me3ba62b3df" x="75.464479" y="285.817056" style="fill: #2c5282; fill-opacity: 0.7; stroke: #ffffff; stroke-opacity: 0.7"/>
     <use xlink:href="#me3ba62b3df" x="134.063911" y="154.287718" style="fill: #2c5282; fill-opacity: 0.7; stroke: #ffffff; stroke-opacity: 0.7"/>
     <use xlink:href="#me3ba62b3df" x="65.817041" y="283.10165" style="fill: #2c5282; fill-opacity: 0.7; stroke: #ffffff; stroke-opacity: 0.7"/>
     <use xlink:href="#me3ba62b3df" x="72.61061" y="277.879808" style="fill: #2c5282; fill-opacity: 0.7; stroke: #ffffff; stroke-opacity: 0.7"/>
     <use xlink:href="#me3ba62b3df" x="68.423954" y="296.621255" style="fill: #2c5282; fill-opacity: 0.7; stroke: #ffffff; stroke-opacity: 0.7"/>
     <use xlink:href="#me3ba62b3df" x="70.743942" y="281.398528" style="fill: #2c5282; fill-opacity: 0.7; stroke: #ffffff; stroke-opacity: 0.7"/>
     <use xlink:href="#me3ba62b3df" x="141.091726" y="215.600116" style="fill: #2c5282; fill-opacity: 0.7; stroke: #ffffff; stroke-opacity: 0.7"/>
     <use xlink:href="#me3ba62b3df" x="119.167642" y="218.415566" style="fill: #2c5282; fill-opacity: 0.7; stroke: #ffffff; stroke-opacity: 0.7"/>
     <use xlink:href="#me3ba62b3df" x="134.769052" y="228.473281" style="fill: #2c5282; fill-opacity: 0.7; stroke: #ffffff; stroke-opacity: 0.7"/>
     <use xlink:href="#me3ba62b3df" x="165.496786" y="174.564166" style="fill: #2c5282; fill-opacity: 0.7; stroke: #ffffff; stroke-opacity: 0.7"/>
     <use xlink:href="#me3ba62b3df" x="176.039539" y="148.576901" style="fill: #2c5282; fill-opacity: 0.7; stroke: #ffffff; stroke-opacity: 0.7"/>
     <use xlink:href="#me3ba62b3df" x="48.024175" y="295.869443" style="fill: #2c5282; fill-opacity: 0.7; stroke: #ffffff; stroke-opacity: 0.7"/>
     <use xlink:href="#me3ba62b3df" x="75.106373" y="277.804034" style="fill: #2c5282; fill-opacity: 0.7; stroke: #ffffff; stroke-opacity: 0.7"/>
     <use xlink:href="#me3ba62b3df" x="106.146252" y="249.129779" style="fill: #2c5282; fill-opacity: 0.7; stroke: #ffffff; stroke-opacity: 0.7"/>
    </g>
   </g>
   <g id="matplotlib.axis_1">
    <g id="xtick_1">
     <g id="line2d_1">
      <path d="M 52.36778 311.318125 
L 52.36778 22.318125 
" clip-path="url(#pb9da4c61ae)" style="fill: none; stroke: #e2e8f0; stroke-opacity: 0.5; stroke-width: 0.5; stroke-linecap: square"/>
     </g>
     <g id="line2d_2">
      <defs>
       <path id="m78771c9cfc" d="M 0 0 
L 0 3.5 
" style="stroke: #2d3748; stroke-width: 0.8"/>
      </defs>
      <g>
       <use xlink:href="#m78771c9cfc" x="52.36778" y="311.318125" style="fill: #2d3748; stroke: #2d3748; stroke-width: 0.8"/>
      </g>
     </g>
     <g id="text_1">
      <!-- 10 -->
      <g style="fill: #2d3748" transform="translate(46.00528 325.916562) scale(0.1 -0.1)">
       <defs>
        <path id="DejaVuSans-31" d="M 794 531 
L 1825 531 
L 1825 4091 
L 703 3866 
L 703 4441 
L 1819 4666 
L 2450 4666 
L 2450 531 
L 3481 531 
L 3481 0 
L 794 0 
L 794 531 
z
" transform="scale(0.015625)"/>
        <path id="DejaVuSans-30" d="M 2034 4250 
Q 1547 4250 1301 3770 
Q 1056 3291 1056 2328 
Q 1056 1369 1301 889 
Q 1547 409 2034 409 
Q 2525 409 2770 889 
Q 3016 1369 3016 2328 
Q 3016 3291 2770 3770 
Q 2525 4250 2034 4250 
z
M 2034 4750 
Q 2819 4750 3233 4129 
Q 3647 3509 3647 2328 
Q 3647 1150 3233 529 
Q 2819 -91 2034 -91 
Q 1250 -91 836 529 
Q 422 1150 422 2328 
Q 422 3509 836 4129 
Q 1250 4750 2034 4750 
z
" transform="scale(0.015625)"/>
       </defs>
       <use xlink:href="#DejaVuSans-31"/>
       <use xlink:href="#DejaVuSans-30" transform="translate(63.623047 0)"/>
      </g>
     </g>
    </g>
    <g id="xtick_2">
     <g id="line2d_3">
      <path d="M 111.565632 311.318125 
L 111.565632 22.318125 
" clip-path="url(#pb9da4c61ae)" style="fill: none; stroke: #e2e8f0; stroke-opacity: 0.5; stroke-width: 0.5; stroke-linecap: square"/>
     </g>
     <g id="line2d_4">
      <g>
       <use xlink:href="#m78771c9cfc" x="111.565632" y="311.318125" style="fill: #2d3748; stroke: #2d3748; stroke-width: 0.8"/>
      </g>
     </g>
     <g id="text_2">
      <!-- 20 -->
      <g style="fill: #2d3748" transform="translate(105.203132 325.916562) scale(0.1 -0.1)">
       <defs>
        <path id="DejaVuSans-32" d="M 1228 531 
L 3431 531 
L 3431 0 
L 469 0 
L 469 531 
Q 828 903 1448 1529 
Q 2069 2156 2228 2338 
Q 2531 2678 2651 2914 
Q 2772 3150 2772 3378 
Q 2772 3750 2511 3984 
Q 2250 4219 1831 4219 
Q 1534 4219 1204 4116 
Q 875 4013 500 3803 
L 500 4441 
Q 881 4594 1212 4672 
Q 1544 4750 1819 4750 
Q 2544 4750 2975 4387 
Q 3406 4025 3406 3419 
Q 3406 3131 3298 2873 
Q 3191 2616 2906 2266 
Q 2828 2175 2409 1742 
Q 1991 1309 1228 531 
z
" transform="scale(0.015625)"/>
       </defs>
       <use xlink:href="#DejaVuSans-32"/>
       <use xlink:href="#DejaVuSans-30" transform="translate(63.623047 0)"/>
      </g>
     </g>
    </g>
    <g id="xtick_3">
     <g id="line2d_5">
      <path d="M 170.763483 311.318125 
L 170.763483 22.318125 
" clip-path="url(#pb9da4c61ae)" style="fill: none; stroke: #e2e8f0; stroke-opacity: 0.5; stroke-width: 0.5; stroke-linecap: square"/>
     </g>
     <g id="line2d_6">
      <g>
       <use xlink:href="#m78771c9cfc" x="170.763483" y="311.318125" style="fill: #2d3748; stroke: #2d3748; stroke-width: 0.8"/>
      </g>
     </g>
     <g id="text_3">
      <!-- 30 -->
      <g style="fill: #2d3748" transform="translate(164.400983 325.916562) scale(0.1 -0.1)">
       <defs>
        <path id="DejaVuSans-33" d="M 2597 2516 
Q 3050 2419 3304 2112 
Q 3559 1806 3559 1356 
Q 3559 666 3084 287 
Q 2609 -91 1734 -91 
Q 1441 -91 1130 -33 
Q 819 25 488 141 
L 488 750 
Q 750 597 1062 519 
Q 1375 441 1716 441 
Q 2309 441 2620 675 
Q 2931 909 2931 1356 
Q 2931 1769 2642 2001 
Q 2353 2234 1838 2234 
L 1294 2234 
L 1294 2753 
L 1863 2753 
Q 2328 2753 2575 2939 
Q 2822 3125 2822 3475 
Q 2822 3834 2567 4026 
Q 2313 4219 1838 4219 
Q 1578 4219 1281 4162 
Q 984 4106 628 3988 
L 628 4550 
Q 988 4650 1302 4700 
Q 1616 4750 1894 4750 
Q 2613 4750 3031 4423 
Q 3450 4097 3450 3541 
Q 3450 3153 3228 2886 
Q 3006 2619 2597 2516 
z
" transform="scale(0.015625)"/>
       </defs>
       <use xlink:href="#DejaVuSans-33"/>
       <use xlink:href="#DejaVuSans-30" transform="translate(63.623047 0)"/>
      </g>
     </g>
    </g>
    <g id="xtick_4">
     <g id="line2d_7">
      <path d="M 229.961334 311.318125 
L 229.961334 22.318125 
" clip-path="url(#pb9da4c61ae)" style="fill: none; stroke: #e2e8f0; stroke-opacity: 0.5; stroke-width: 0.5; stroke-linecap: square"/>
     </g>
     <g id="line2d_8">
      <g>
       <use xlink:href="#m78771c9cfc" x="229.961334" y="311.318125" style="fill: #2d3748; stroke: #2d3748; stroke-width: 0.8"/>
      </g>
     </g>
     <g id="text_4">
      <!-- 40 -->
      <g style="fill: #2d3748" transform="translate(223.598834 325.916562) scale(0.1 -0.1)">
       <defs>
        <path id="DejaVuSans-34" d="M 2419 4116 
L 825 1625 
L 2419 1625 
L 2419 4116 
z
M 2253 4666 
L 3047 4666 
L 3047 1625 
L 3713 1625 
L 3713 1100 
L 3047 1100 
L 3047 0 
L 2419 0 
L 2419 1100 
L 313 1100 
L 313 1709 
L 2253 4666 
z
" transform="scale(0.015625)"/>
       </defs>
       <use xlink:href="#DejaVuSans-34"/>
       <use xlink:href="#DejaVuSans-30" transform="translate(63.623047 0)"/>
      </g>
     </g>
    </g>
    <g id="xtick_5">
     <g id="line2d_9">
      <path d="M 289.159186 311.318125 
L 289.159186 22.318125 
" clip-path="url(#pb9da4c61ae)" style="fill: none; stroke: #e2e8f0; stroke-opacity: 0.5; stroke-width: 0.5; stroke-linecap: square"/>
     </g>
     <g id="line2d_10">
      <g>
       <use xlink:href="#m78771c9cfc" x="289.159186" y="311.318125" style="fill: #2d3748; stroke: #2d3748; stroke-width: 0.8"/>
      </g>
     </g>
     <g id="text_5">
      <!-- 50 -->
      <g style="fill: #2d3748" transform="translate(282.796686 325.916562) scale(0.1 -0.1)">
       <defs>
        <path id="DejaVuSans-35" d="M 691 4666 
L 3169 4666 
L 3169 4134 
L 1269 4134 
L 1269 2991 
Q 1406 3038 1543 3061 
Q 1681 3084 1819 3084 
Q 2600 3084 3056 2656 
Q 3513 2228 3513 1497 
Q 3513 744 3044 326 
Q 2575 -91 1722 -91 
Q 1428 -91 1123 -41 
Q 819 9 494 109 
L 494 744 
Q 775 591 1075 516 
Q 1375 441 1709 441 
Q 2250 441 2565 725 
Q 2881 1009 2881 1497 
Q 2881 1984 2565 2268 
Q 2250 2553 1709 2553 
Q 1456 2553 1204 2497 
Q 953 2441 691 2322 
L 691 4666 
z
" transform="scale(0.015625)"/>
       </defs>
       <use xlink:href="#DejaVuSans-35"/>
       <use xlink:href="#DejaVuSans-30" transform="translate(63.623047 0)"/>
      </g>
     </g>
    </g>
    <g id="text_6">
     <!-- True α -->
     <g style="fill: #2d3748" transform="translate(168.435938 341.114375) scale(0.12 -0.12)">
      <defs>
       <path id="DejaVuSans-54" d="M -19 4666 
L 3928 4666 
L 3928 4134 
L 2272 4134 
L 2272 0 
L 1638 0 
L 1638 4134 
L -19 4134 
L -19 4666 
z
" transform="scale(0.015625)"/>
       <path id="DejaVuSans-72" d="M 2631 2963 
Q 2534 3019 2420 3045 
Q 2306 3072 2169 3072 
Q 1681 3072 1420 2755 
Q 1159 2438 1159 1844 
L 1159 0 
L 581 0 
L 581 3500 
L 1159 3500 
L 1159 2956 
Q 1341 3275 1631 3429 
Q 1922 3584 2338 3584 
Q 2397 3584 2469 3576 
Q 2541 3569 2628 3553 
L 2631 2963 
z
" transform="scale(0.015625)"/>
       <path id="DejaVuSans-75" d="M 544 1381 
L 544 3500 
L 1119 3500 
L 1119 1403 
Q 1119 906 1312 657 
Q 1506 409 1894 409 
Q 2359 409 2629 706 
Q 2900 1003 2900 1516 
L 2900 3500 
L 3475 3500 
L 3475 0 
L 2900 0 
L 2900 538 
Q 2691 219 2414 64 
Q 2138 -91 1772 -91 
Q 1169 -91 856 284 
Q 544 659 544 1381 
z
M 1991 3584 
L 1991 3584 
z
" transform="scale(0.015625)"/>
       <path id="DejaVuSans-65" d="M 3597 1894 
L 3597 1613 
L 953 1613 
Q 991 1019 1311 708 
Q 1631 397 2203 397 
Q 2534 397 2845 478 
Q 3156 559 3463 722 
L 3463 178 
Q 3153 47 2828 -22 
Q 2503 -91 2169 -91 
Q 1331 -91 842 396 
Q 353 884 353 1716 
Q 353 2575 817 3079 
Q 1281 3584 2069 3584 
Q 2775 3584 3186 3129 
Q 3597 2675 3597 1894 
z
M 3022 2063 
Q 3016 2534 2758 2815 
Q 2500 3097 2075 3097 
Q 1594 3097 1305 2825 
Q 1016 2553 972 2059 
L 3022 2063 
z
" transform="scale(0.015625)"/>
       <path id="DejaVuSans-20" transform="scale(0.015625)"/>
       <path id="DejaVuSans-3b1" d="M 2644 1628 
L 2506 2350 
Q 2366 3091 1809 3091 
Q 1391 3091 1200 2747 
Q 959 2316 959 1747 
Q 959 1059 1194 731 
Q 1431 397 1809 397 
Q 2228 397 2453 1063 
L 2644 1628 
z
M 2966 2584 
L 3275 3500 
L 3788 3500 
L 3147 1603 
L 3272 919 
Q 3300 766 3409 638 
Q 3538 488 3638 488 
L 3913 488 
L 3913 0 
L 3569 0 
Q 3275 0 3013 263 
Q 2884 394 2831 669 
Q 2688 322 2394 50 
Q 2256 -78 1809 -78 
Q 1075 -78 719 397 
Q 353 888 353 1747 
Q 353 2666 750 3097 
Q 1191 3578 1809 3578 
Q 2781 3578 2966 2584 
z
" transform="scale(0.015625)"/>
      </defs>
      <use xlink:href="#DejaVuSans-54"/>
      <use xlink:href="#DejaVuSans-72" transform="translate(46.333984 0)"/>
      <use xlink:href="#DejaVuSans-75" transform="translate(87.447266 0)"/>
      <use xlink:href="#DejaVuSans-65" transform="translate(150.826172 0)"/>
      <use xlink:href="#DejaVuSans-20" transform="translate(212.349609 0)"/>
      <use xlink:href="#DejaVuSans-3b1" transform="translate(244.136719 0)"/>
     </g>
    </g>
   </g>
   <g id="matplotlib.axis_2">
    <g id="ytick_1">
     <g id="line2d_11">
      <path d="M 42.53875 301.489095 
L 331.53875 301.489095 
" clip-path="url(#pb9da4c61ae)" style="fill: none; stroke: #e2e8f0; stroke-opacity: 0.5; stroke-width: 0.5; stroke-linecap: square"/>
     </g>
     <g id="line2d_12">
      <defs>
       <path id="m31dd3c4cac" d="M 0 0 
L -3.5 0 
" style="stroke: #2d3748; stroke-width: 0.8"/>
      </defs>
      <g>
       <use xlink:href="#m31dd3c4cac" x="42.53875" y="301.489095" style="fill: #2d3748; stroke: #2d3748; stroke-width: 0.8"/>
      </g>
     </g>
     <g id="text_7">
      <!-- 10 -->
      <g style="fill: #2d3748" transform="translate(22.81375 305.288314) scale(0.1 -0.1)">
       <use xlink:href="#DejaVuSans-31"/>
       <use xlink:href="#DejaVuSans-30" transform="translate(63.623047 0)"/>
      </g>
     </g>
    </g>
    <g id="ytick_2">
     <g id="line2d_13">
      <path d="M 42.53875 242.291243 
L 331.53875 242.291243 
" clip-path="url(#pb9da4c61ae)" style="fill: none; stroke: #e2e8f0; stroke-opacity: 0.5; stroke-width: 0.5; stroke-linecap: square"/>
     </g>
     <g id="line2d_14">
      <g>
       <use xlink:href="#m31dd3c4cac" x="42.53875" y="242.291243" style="fill: #2d3748; stroke: #2d3748; stroke-width: 0.8"/>
      </g>
     </g>
     <g id="text_8">
      <!-- 20 -->
      <g style="fill: #2d3748" transform="translate(22.81375 246.090462) scale(0.1 -0.1)">
       <use xlink:href="#DejaVuSans-32"/>
       <use xlink:href="#DejaVuSans-30" transform="translate(63.623047 0)"/>
      </g>
     </g>
    </g>
    <g id="ytick_3">
     <g id="line2d_15">
      <path d="M 42.53875 183.093392 
L 331.53875 183.093392 
" clip-path="url(#pb9da4c61ae)" style="fill: none; stroke: #e2e8f0; stroke-opacity: 0.5; stroke-width: 0.5; stroke-linecap: square"/>
     </g>
     <g id="line2d_16">
      <g>
       <use xlink:href="#m31dd3c4cac" x="42.53875" y="183.093392" style="fill: #2d3748; stroke: #2d3748; stroke-width: 0.8"/>
      </g>
     </g>
     <g id="text_9">
      <!-- 30 -->
      <g style="fill: #2d3748" transform="translate(22.81375 186.892611) scale(0.1 -0.1)">
       <use xlink:href="#DejaVuSans-33"/>
       <use xlink:href="#DejaVuSans-30" transform="translate(63.623047 0)"/>
      </g>
     </g>
    </g>
    <g id="ytick_4">
     <g id="line2d_17">
      <path d="M 42.53875 123.895541 
L 331.53875 123.895541 
" clip-path="url(#pb9da4c61ae)" style="fill: none; stroke: #e2e8f0; stroke-opacity: 0.5; stroke-width: 0.5; stroke-linecap: square"/>
     </g>
     <g id="line2d_18">
      <g>
       <use xlink:href="#m31dd3c4cac" x="42.53875" y="123.895541" style="fill: #2d3748; stroke: #2d3748; stroke-width: 0.8"/>
      </g>
     </g>
     <g id="text_10">
      <!-- 40 -->
      <g style="fill: #2d3748" transform="translate(22.81375 127.694759) scale(0.1 -0.1)">
       <use xlink:href="#DejaVuSans-34"/>
       <use xlink:href="#DejaVuSans-30" transform="translate(63.623047 0)"/>
      </g>
     </g>
    </g>
    <g id="ytick_5">
     <g id="line2d_19">
      <path d="M 42.53875 64.697689 
L 331.53875 64.697689 
" clip-path="url(#pb9da4c61ae)" style="fill: none; stroke: #e2e8f0; stroke-opacity: 0.5; stroke-width: 0.5; stroke-linecap: square"/>
     </g>
     <g id="line2d_20">
      <g>
       <use xlink:href="#m31dd3c4cac" x="42.53875" y="64.697689" style="fill: #2d3748; stroke: #2d3748; stroke-width: 0.8"/>
      </g>
     </g>
     <g id="text_11">
      <!-- 50 -->
      <g style="fill: #2d3748" transform="translate(22.81375 68.496908) scale(0.1 -0.1)">
       <use xlink:href="#DejaVuSans-35"/>
       <use xlink:href="#DejaVuSans-30" transform="translate(63.623047 0)"/>
      </g>
     </g>
    </g>
    <g id="text_12">
     <!-- Estimated α (posterior mean) -->
     <g style="fill: #2d3748" transform="translate(16.318125 255.423125) rotate(-90) scale(0.12 -0.12)">
      <defs>
       <path id="DejaVuSans-45" d="M 628 4666 
L 3578 4666 
L 3578 4134 
L 1259 4134 
L 1259 2753 
L 3481 2753 
L 3481 2222 
L 1259 2222 
L 1259 531 
L 3634 531 
L 3634 0 
L 628 0 
L 628 4666 
z
" transform="scale(0.015625)"/>
       <path id="DejaVuSans-73" d="M 2834 3397 
L 2834 2853 
Q 2591 2978 2328 3040 
Q 2066 3103 1784 3103 
Q 1356 3103 1142 2972 
Q 928 2841 928 2578 
Q 928 2378 1081 2264 
Q 1234 2150 1697 2047 
L 1894 2003 
Q 2506 1872 2764 1633 
Q 3022 1394 3022 966 
Q 3022 478 2636 193 
Q 2250 -91 1575 -91 
Q 1294 -91 989 -36 
Q 684 19 347 128 
L 347 722 
Q 666 556 975 473 
Q 1284 391 1588 391 
Q 1994 391 2212 530 
Q 2431 669 2431 922 
Q 2431 1156 2273 1281 
Q 2116 1406 1581 1522 
L 1381 1569 
Q 847 1681 609 1914 
Q 372 2147 372 2553 
Q 372 3047 722 3315 
Q 1072 3584 1716 3584 
Q 2034 3584 2315 3537 
Q 2597 3491 2834 3397 
z
" transform="scale(0.015625)"/>
       <path id="DejaVuSans-74" d="M 1172 4494 
L 1172 3500 
L 2356 3500 
L 2356 3053 
L 1172 3053 
L 1172 1153 
Q 1172 725 1289 603 
Q 1406 481 1766 481 
L 2356 481 
L 2356 0 
L 1766 0 
Q 1100 0 847 248 
Q 594 497 594 1153 
L 594 3053 
L 172 3053 
L 172 3500 
L 594 3500 
L 594 4494 
L 1172 4494 
z
" transform="scale(0.015625)"/>
       <path id="DejaVuSans-69" d="M 603 3500 
L 1178 3500 
L 1178 0 
L 603 0 
L 603 3500 
z
M 603 4863 
L 1178 4863 
L 1178 4134 
L 603 4134 
L 603 4863 
z
" transform="scale(0.015625)"/>
       <path id="DejaVuSans-6d" d="M 3328 2828 
Q 3544 3216 3844 3400 
Q 4144 3584 4550 3584 
Q 5097 3584 5394 3201 
Q 5691 2819 5691 2113 
L 5691 0 
L 5113 0 
L 5113 2094 
Q 5113 2597 4934 2840 
Q 4756 3084 4391 3084 
Q 3944 3084 3684 2787 
Q 3425 2491 3425 1978 
L 3425 0 
L 2847 0 
L 2847 2094 
Q 2847 2600 2669 2842 
Q 2491 3084 2119 3084 
Q 1678 3084 1418 2786 
Q 1159 2488 1159 1978 
L 1159 0 
L 581 0 
L 581 3500 
L 1159 3500 
L 1159 2956 
Q 1356 3278 1631 3431 
Q 1906 3584 2284 3584 
Q 2666 3584 2933 3390 
Q 3200 3197 3328 2828 
z
" transform="scale(0.015625)"/>
       <path id="DejaVuSans-61" d="M 2194 1759 
Q 1497 1759 1228 1600 
Q 959 1441 959 1056 
Q 959 750 1161 570 
Q 1363 391 1709 391 
Q 2188 391 2477 730 
Q 2766 1069 2766 1631 
L 2766 1759 
L 2194 1759 
z
M 3341 1997 
L 3341 0 
L 2766 0 
L 2766 531 
Q 2569 213 2275 61 
Q 1981 -91 1556 -91 
Q 1019 -91 701 211 
Q 384 513 384 1019 
Q 384 1609 779 1909 
Q 1175 2209 1959 2209 
L 2766 2209 
L 2766 2266 
Q 2766 2663 2505 2880 
Q 2244 3097 1772 3097 
Q 1472 3097 1187 3025 
Q 903 2953 641 2809 
L 641 3341 
Q 956 3463 1253 3523 
Q 1550 3584 1831 3584 
Q 2591 3584 2966 3190 
Q 3341 2797 3341 1997 
z
" transform="scale(0.015625)"/>
       <path id="DejaVuSans-64" d="M 2906 2969 
L 2906 4863 
L 3481 4863 
L 3481 0 
L 2906 0 
L 2906 525 
Q 2725 213 2448 61 
Q 2172 -91 1784 -91 
Q 1150 -91 751 415 
Q 353 922 353 1747 
Q 353 2572 751 3078 
Q 1150 3584 1784 3584 
Q 2172 3584 2448 3432 
Q 2725 3281 2906 2969 
z
M 947 1747 
Q 947 1113 1208 752 
Q 1469 391 1925 391 
Q 2381 391 2643 752 
Q 2906 1113 2906 1747 
Q 2906 2381 2643 2742 
Q 2381 3103 1925 3103 
Q 1469 3103 1208 2742 
Q 947 2381 947 1747 
z
" transform="scale(0.015625)"/>
       <path id="DejaVuSans-28" d="M 1984 4856 
Q 1566 4138 1362 3434 
Q 1159 2731 1159 2009 
Q 1159 1288 1364 580 
Q 1569 -128 1984 -844 
L 1484 -844 
Q 1016 -109 783 600 
Q 550 1309 550 2009 
Q 550 2706 781 3412 
Q 1013 4119 1484 4856 
L 1984 4856 
z
" transform="scale(0.015625)"/>
       <path id="DejaVuSans-70" d="M 1159 525 
L 1159 -1331 
L 581 -1331 
L 581 3500 
L 1159 3500 
L 1159 2969 
Q 1341 3281 1617 3432 
Q 1894 3584 2278 3584 
Q 2916 3584 3314 3078 
Q 3713 2572 3713 1747 
Q 3713 922 3314 415 
Q 2916 -91 2278 -91 
Q 1894 -91 1617 61 
Q 1341 213 1159 525 
z
M 3116 1747 
Q 3116 2381 2855 2742 
Q 2594 3103 2138 3103 
Q 1681 3103 1420 2742 
Q 1159 2381 1159 1747 
Q 1159 1113 1420 752 
Q 1681 391 2138 391 
Q 2594 391 2855 752 
Q 3116 1113 3116 1747 
z
" transform="scale(0.015625)"/>
       <path id="DejaVuSans-6f" d="M 1959 3097 
Q 1497 3097 1228 2736 
Q 959 2375 959 1747 
Q 959 1119 1226 758 
Q 1494 397 1959 397 
Q 2419 397 2687 759 
Q 2956 1122 2956 1747 
Q 2956 2369 2687 2733 
Q 2419 3097 1959 3097 
z
M 1959 3584 
Q 2709 3584 3137 3096 
Q 3566 2609 3566 1747 
Q 3566 888 3137 398 
Q 2709 -91 1959 -91 
Q 1206 -91 779 398 
Q 353 888 353 1747 
Q 353 2609 779 3096 
Q 1206 3584 1959 3584 
z
" transform="scale(0.015625)"/>
       <path id="DejaVuSans-6e" d="M 3513 2113 
L 3513 0 
L 2938 0 
L 2938 2094 
Q 2938 2591 2744 2837 
Q 2550 3084 2163 3084 
Q 1697 3084 1428 2787 
Q 1159 2491 1159 1978 
L 1159 0 
L 581 0 
L 581 3500 
L 1159 3500 
L 1159 2956 
Q 1366 3272 1645 3428 
Q 1925 3584 2291 3584 
Q 2894 3584 3203 3211 
Q 3513 2838 3513 2113 
z
" transform="scale(0.015625)"/>
       <path id="DejaVuSans-29" d="M 513 4856 
L 1013 4856 
Q 1481 4119 1714 3412 
Q 1947 2706 1947 2009 
Q 1947 1309 1714 600 
Q 1481 -109 1013 -844 
L 513 -844 
Q 928 -128 1133 580 
Q 1338 1288 1338 2009 
Q 1338 2731 1133 3434 
Q 928 4138 513 4856 
z
" transform="scale(0.015625)"/>
      </defs>
      <use xlink:href="#DejaVuSans-45"/>
      <use xlink:href="#DejaVuSans-73" transform="translate(63.183594 0)"/>
      <use xlink:href="#DejaVuSans-74" transform="translate(115.283203 0)"/>
      <use xlink:href="#DejaVuSans-69" transform="translate(154.492188 0)"/>
      <use xlink:href="#DejaVuSans-6d" transform="translate(182.275391 0)"/>
      <use xlink:href="#DejaVuSans-61" transform="translate(279.6875 0)"/>
      <use xlink:href="#DejaVuSans-74" transform="translate(340.966797 0)"/>
      <use xlink:href="#DejaVuSans-65" transform="translate(380.175781 0)"/>
      <use xlink:href="#DejaVuSans-64" transform="translate(441.699219 0)"/>
      <use xlink:href="#DejaVuSans-20" transform="translate(505.175781 0)"/>
      <use xlink:href="#DejaVuSans-3b1" transform="translate(536.962891 0)"/>
      <use xlink:href="#DejaVuSans-20" transform="translate(602.880859 0)"/>
      <use xlink:href="#DejaVuSans-28" transform="translate(634.667969 0)"/>
      <use xlink:href="#DejaVuSans-70" transform="translate(673.681641 0)"/>
      <use xlink:href="#DejaVuSans-6f" transform="translate(737.158203 0)"/>
      <use xlink:href="#DejaVuSans-73" transform="translate(798.339844 0)"/>
      <use xlink:href="#DejaVuSans-74" transform="translate(850.439453 0)"/>
      <use xlink:href="#DejaVuSans-65" transform="translate(889.648438 0)"/>
      <use xlink:href="#DejaVuSans-72" transform="translate(951.171875 0)"/>
      <use xlink:href="#DejaVuSans-69" transform="translate(992.285156 0)"/>
      <use xlink:href="#DejaVuSans-6f" transform="translate(1020.068359 0)"/>
      <use xlink:href="#DejaVuSans-72" transform="translate(1081.25 0)"/>
      <use xlink:href="#DejaVuSans-20" transform="translate(1122.363281 0)"/>
      <use xlink:href="#DejaVuSans-6d" transform="translate(1154.150391 0)"/>
      <use xlink:href="#DejaVuSans-65" transform="translate(1251.5625 0)"/>
      <use xlink:href="#DejaVuSans-61" transform="translate(1313.085938 0)"/>
      <use xlink:href="#DejaVuSans-6e" transform="translate(1374.365234 0)"/>
      <use xlink:href="#DejaVuSans-29" transform="translate(1437.744141 0)"/>
     </g>
    </g>
   </g>
   <g id="line2d_21">
    <path d="M 42.53875 311.318125 
L 331.53875 22.318125 
" clip-path="url(#pb9da4c61ae)" style="fill: none; stroke-dasharray: 7.4,3.2; stroke-dashoffset: 0; stroke: #ff0000; stroke-width: 2"/>
   </g>
   <g id="patch_3">
    <path d="M 42.53875 311.318125 
L 42.53875 22.318125 
" style="fill: none; stroke: #2d3748; stroke-width: 0.8; stroke-linejoin: miter; stroke-linecap: square"/>
   </g>
   <g id="patch_4">
    <path d="M 42.53875 311.318125 
L 331.53875 311.318125 
" style="fill: none; stroke: #2d3748; stroke-width: 0.8; stroke-linejoin: miter; stroke-linecap: square"/>
   </g>
   <g id="text_13">
    <!-- α Recovery: Bias=1.72, RMSE=3.57 -->
    <g style="fill: #2d3748" transform="translate(79.740938 16.318125) scale(0.12 -0.12)">
     <defs>
      <path id="DejaVuSans-52" d="M 2841 2188 
Q 3044 2119 3236 1894 
Q 3428 1669 3622 1275 
L 4263 0 
L 3584 0 
L 2988 1197 
Q 2756 1666 2539 1819 
Q 2322 1972 1947 1972 
L 1259 1972 
L 1259 0 
L 628 0 
L 628 4666 
L 2053 4666 
Q 2853 4666 3247 4331 
Q 3641 3997 3641 3322 
Q 3641 2881 3436 2590 
Q 3231 2300 2841 2188 
z
M 1259 4147 
L 1259 2491 
L 2053 2491 
Q 2509 2491 2742 2702 
Q 2975 2913 2975 3322 
Q 2975 3731 2742 3939 
Q 2509 4147 2053 4147 
L 1259 4147 
z
" transform="scale(0.015625)"/>
      <path id="DejaVuSans-63" d="M 3122 3366 
L 3122 2828 
Q 2878 2963 2633 3030 
Q 2388 3097 2138 3097 
Q 1578 3097 1268 2742 
Q 959 2388 959 1747 
Q 959 1106 1268 751 
Q 1578 397 2138 397 
Q 2388 397 2633 464 
Q 2878 531 3122 666 
L 3122 134 
Q 2881 22 2623 -34 
Q 2366 -91 2075 -91 
Q 1284 -91 818 406 
Q 353 903 353 1747 
Q 353 2603 823 3093 
Q 1294 3584 2113 3584 
Q 2378 3584 2631 3529 
Q 2884 3475 3122 3366 
z
" transform="scale(0.015625)"/>
      <path id="DejaVuSans-76" d="M 191 3500 
L 800 3500 
L 1894 563 
L 2988 3500 
L 3597 3500 
L 2284 0 
L 1503 0 
L 191 3500 
z
" transform="scale(0.015625)"/>
      <path id="DejaVuSans-79" d="M 2059 -325 
Q 1816 -950 1584 -1140 
Q 1353 -1331 966 -1331 
L 506 -1331 
L 506 -850 
L 844 -850 
Q 1081 -850 1212 -737 
Q 1344 -625 1503 -206 
L 1606 56 
L 191 3500 
L 800 3500 
L 1894 763 
L 2988 3500 
L 3597 3500 
L 2059 -325 
z
" transform="scale(0.015625)"/>
      <path id="DejaVuSans-3a" d="M 750 794 
L 1409 794 
L 1409 0 
L 750 0 
L 750 794 
z
M 750 3309 
L 1409 3309 
L 1409 2516 
L 750 2516 
L 750 3309 
z
" transform="scale(0.015625)"/>
      <path id="DejaVuSans-42" d="M 1259 2228 
L 1259 519 
L 2272 519 
Q 2781 519 3026 730 
Q 3272 941 3272 1375 
Q 3272 1813 3026 2020 
Q 2781 2228 2272 2228 
L 1259 2228 
z
M 1259 4147 
L 1259 2741 
L 2194 2741 
Q 2656 2741 2882 2914 
Q 3109 3088 3109 3444 
Q 3109 3797 2882 3972 
Q 2656 4147 2194 4147 
L 1259 4147 
z
M 628 4666 
L 2241 4666 
Q 2963 4666 3353 4366 
Q 3744 4066 3744 3513 
Q 3744 3084 3544 2831 
Q 3344 2578 2956 2516 
Q 3422 2416 3680 2098 
Q 3938 1781 3938 1306 
Q 3938 681 3513 340 
Q 3088 0 2303 0 
L 628 0 
L 628 4666 
z
" transform="scale(0.015625)"/>
      <path id="DejaVuSans-3d" d="M 678 2906 
L 4684 2906 
L 4684 2381 
L 678 2381 
L 678 2906 
z
M 678 1631 
L 4684 1631 
L 4684 1100 
L 678 1100 
L 678 1631 
z
" transform="scale(0.015625)"/>
      <path id="DejaVuSans-2e" d="M 684 794 
L 1344 794 
L 1344 0 
L 684 0 
L 684 794 
z
" transform="scale(0.015625)"/>
      <path id="DejaVuSans-37" d="M 525 4666 
L 3525 4666 
L 3525 4397 
L 1831 0 
L 1172 0 
L 2766 4134 
L 525 4134 
L 525 4666 
z
" transform="scale(0.015625)"/>
      <path id="DejaVuSans-2c" d="M 750 794 
L 1409 794 
L 1409 256 
L 897 -744 
L 494 -744 
L 750 256 
L 750 794 
z
" transform="scale(0.015625)"/>
      <path id="DejaVuSans-4d" d="M 628 4666 
L 1569 4666 
L 2759 1491 
L 3956 4666 
L 4897 4666 
L 4897 0 
L 4281 0 
L 4281 4097 
L 3078 897 
L 2444 897 
L 1241 4097 
L 1241 0 
L 628 0 
L 628 4666 
z
" transform="scale(0.015625)"/>
      <path id="DejaVuSans-53" d="M 3425 4513 
L 3425 3897 
Q 3066 4069 2747 4153 
Q 2428 4238 2131 4238 
Q 1616 4238 1336 4038 
Q 1056 3838 1056 3469 
Q 1056 3159 1242 3001 
Q 1428 2844 1947 2747 
L 2328 2669 
Q 3034 2534 3370 2195 
Q 3706 1856 3706 1288 
Q 3706 609 3251 259 
Q 2797 -91 1919 -91 
Q 1588 -91 1214 -16 
Q 841 59 441 206 
L 441 856 
Q 825 641 1194 531 
Q 1563 422 1919 422 
Q 2459 422 2753 634 
Q 3047 847 3047 1241 
Q 3047 1584 2836 1778 
Q 2625 1972 2144 2069 
L 1759 2144 
Q 1053 2284 737 2584 
Q 422 2884 422 3419 
Q 422 4038 858 4394 
Q 1294 4750 2059 4750 
Q 2388 4750 2728 4690 
Q 3069 4631 3425 4513 
z
" transform="scale(0.015625)"/>
     </defs>
     <use xlink:href="#DejaVuSans-3b1"/>
     <use xlink:href="#DejaVuSans-20" transform="translate(65.917969 0)"/>
     <use xlink:href="#DejaVuSans-52" transform="translate(97.705078 0)"/>
     <use xlink:href="#DejaVuSans-65" transform="translate(162.6875 0)"/>
     <use xlink:href="#DejaVuSans-63" transform="translate(224.210938 0)"/>
     <use xlink:href="#DejaVuSans-6f" transform="translate(279.191406 0)"/>
     <use xlink:href="#DejaVuSans-76" transform="translate(340.373047 0)"/>
     <use xlink:href="#DejaVuSans-65" transform="translate(399.552734 0)"/>
     <use xlink:href="#DejaVuSans-72" transform="translate(461.076172 0)"/>
     <use xlink:href="#DejaVuSans-79" transform="translate(502.189453 0)"/>
     <use xlink:href="#DejaVuSans-3a" transform="translate(554.119141 0)"/>
     <use xlink:href="#DejaVuSans-20" transform="translate(587.810547 0)"/>
     <use xlink:href="#DejaVuSans-42" transform="translate(619.597656 0)"/>
     <use xlink:href="#DejaVuSans-69" transform="translate(688.201172 0)"/>
     <use xlink:href="#DejaVuSans-61" transform="translate(715.984375 0)"/>
     <use xlink:href="#DejaVuSans-73" transform="translate(777.263672 0)"/>
     <use xlink:href="#DejaVuSans-3d" transform="translate(829.363281 0)"/>
     <use xlink:href="#DejaVuSans-31" transform="translate(913.152344 0)"/>
     <use xlink:href="#DejaVuSans-2e" transform="translate(976.775391 0)"/>
     <use xlink:href="#DejaVuSans-37" transform="translate(1008.5625 0)"/>
     <use xlink:href="#DejaVuSans-32" transform="translate(1072.185547 0)"/>
     <use xlink:href="#DejaVuSans-2c" transform="translate(1135.808594 0)"/>
     <use xlink:href="#DejaVuSans-20" transform="translate(1167.595703 0)"/>
     <use xlink:href="#DejaVuSans-52" transform="translate(1199.382812 0)"/>
     <use xlink:href="#DejaVuSans-4d" transform="translate(1268.865234 0)"/>
     <use xlink:href="#DejaVuSans-53" transform="translate(1355.144531 0)"/>
     <use xlink:href="#DejaVuSans-45" transform="translate(1418.621094 0)"/>
     <use xlink:href="#DejaVuSans-3d" transform="translate(1481.804688 0)"/>
     <use xlink:href="#DejaVuSans-33" transform="translate(1565.59375 0)"/>
     <use xlink:href="#DejaVuSans-2e" transform="translate(1629.216797 0)"/>
     <use xlink:href="#DejaVuSans-35" transform="translate(1661.003906 0)"/>
     <use xlink:href="#DejaVuSans-37" transform="translate(1724.626953 0)"/>
    </g>
   </g>
   <g id="legend_1">
    <g id="patch_5">
     <path d="M 49.53875 44.99625 
L 141.090313 44.99625 
Q 143.090313 44.99625 143.090313 42.99625 
L 143.090313 29.318125 
Q 143.090313 27.318125 141.090313 27.318125 
L 49.53875 27.318125 
Q 47.53875 27.318125 47.53875 29.318125 
L 47.53875 42.99625 
Q 47.53875 44.99625 49.53875 44.99625 
z
" style="fill: #ffffff; opacity: 0.9; stroke: #e2e8f0; stroke-linejoin: miter"/>
    </g>
    <g id="line2d_22">
     <path d="M 51.53875 35.416563 
L 61.53875 35.416563 
L 71.53875 35.416563 
" style="fill: none; stroke-dasharray: 7.4,3.2; stroke-dashoffset: 0; stroke: #ff0000; stroke-width: 2"/>
    </g>
    <g id="text_14">
     <!-- Identity line -->
     <g style="fill: #2d3748" transform="translate(79.53875 38.916563) scale(0.1 -0.1)">
      <defs>
       <path id="DejaVuSans-49" d="M 628 4666 
L 1259 4666 
L 1259 0 
L 628 0 
L 628 4666 
z
" transform="scale(0.015625)"/>
       <path id="DejaVuSans-6c" d="M 603 4863 
L 1178 4863 
L 1178 0 
L 603 0 
L 603 4863 
z
" transform="scale(0.015625)"/>
      </defs>
      <use xlink:href="#DejaVuSans-49"/>
      <use xlink:href="#DejaVuSans-64" transform="translate(29.492188 0)"/>
      <use xlink:href="#DejaVuSans-65" transform="translate(92.96875 0)"/>
      <use xlink:href="#DejaVuSans-6e" transform="translate(154.492188 0)"/>
      <use xlink:href="#DejaVuSans-74" transform="translate(217.871094 0)"/>
      <use xlink:href="#DejaVuSans-69" transform="translate(257.080078 0)"/>
      <use xlink:href="#DejaVuSans-74" transform="translate(284.863281 0)"/>
      <use xlink:href="#DejaVuSans-79" transform="translate(324.072266 0)"/>
      <use xlink:href="#DejaVuSans-20" transform="translate(383.251953 0)"/>
      <use xlink:href="#DejaVuSans-6c" transform="translate(415.039062 0)"/>
      <use xlink:href="#DejaVuSans-69" transform="translate(442.822266 0)"/>
      <use xlink:href="#DejaVuSans-6e" transform="translate(470.605469 0)"/>
      <use xlink:href="#DejaVuSans-65" transform="translate(533.984375 0)"/>
     </g>
    </g>
   </g>
  </g>
  <g id="axes_2">
   <g id="patch_6">
    <path d="M 439.229659 311.318125 
L 927.262386 311.318125 
L 927.262386 22.318125 
L 439.229659 22.318125 
z
" style="fill: #ffffff"/>
   </g>
   <g id="matplotlib.axis_3">
    <g id="xtick_6">
     <g id="line2d_23">
      <path d="M 461.412965 311.318125 
L 461.412965 22.318125 
" clip-path="url(#p562fd98e91)" style="fill: none; stroke: #e2e8f0; stroke-opacity: 0.3; stroke-width: 0.5; stroke-linecap: square"/>
     </g>
     <g id="line2d_24">
      <g>
       <use xlink:href="#m78771c9cfc" x="461.412965" y="311.318125" style="fill: #2d3748; stroke: #2d3748; stroke-width: 0.8"/>
      </g>
     </g>
     <g id="text_15">
      <!-- 0.0 -->
      <g style="fill: #2d3748" transform="translate(453.461402 325.916562) scale(0.1 -0.1)">
       <use xlink:href="#DejaVuSans-30"/>
       <use xlink:href="#DejaVuSans-2e" transform="translate(63.623047 0)"/>
       <use xlink:href="#DejaVuSans-30" transform="translate(95.410156 0)"/>
      </g>
     </g>
    </g>
    <g id="xtick_7">
     <g id="line2d_25">
      <path d="M 519.790085 311.318125 
L 519.790085 22.318125 
" clip-path="url(#p562fd98e91)" style="fill: none; stroke: #e2e8f0; stroke-opacity: 0.3; stroke-width: 0.5; stroke-linecap: square"/>
     </g>
     <g id="line2d_26">
      <g>
       <use xlink:href="#m78771c9cfc" x="519.790085" y="311.318125" style="fill: #2d3748; stroke: #2d3748; stroke-width: 0.8"/>
      </g>
     </g>
     <g id="text_16">
      <!-- 2.5 -->
      <g style="fill: #2d3748" transform="translate(511.838523 325.916562) scale(0.1 -0.1)">
       <use xlink:href="#DejaVuSans-32"/>
       <use xlink:href="#DejaVuSans-2e" transform="translate(63.623047 0)"/>
       <use xlink:href="#DejaVuSans-35" transform="translate(95.410156 0)"/>
      </g>
     </g>
    </g>
    <g id="xtick_8">
     <g id="line2d_27">
      <path d="M 578.167206 311.318125 
L 578.167206 22.318125 
" clip-path="url(#p562fd98e91)" style="fill: none; stroke: #e2e8f0; stroke-opacity: 0.3; stroke-width: 0.5; stroke-linecap: square"/>
     </g>
     <g id="line2d_28">
      <g>
       <use xlink:href="#m78771c9cfc" x="578.167206" y="311.318125" style="fill: #2d3748; stroke: #2d3748; stroke-width: 0.8"/>
      </g>
     </g>
     <g id="text_17">
      <!-- 5.0 -->
      <g style="fill: #2d3748" transform="translate(570.215643 325.916562) scale(0.1 -0.1)">
       <use xlink:href="#DejaVuSans-35"/>
       <use xlink:href="#DejaVuSans-2e" transform="translate(63.623047 0)"/>
       <use xlink:href="#DejaVuSans-30" transform="translate(95.410156 0)"/>
      </g>
     </g>
    </g>
    <g id="xtick_9">
     <g id="line2d_29">
      <path d="M 636.544326 311.318125 
L 636.544326 22.318125 
" clip-path="url(#p562fd98e91)" style="fill: none; stroke: #e2e8f0; stroke-opacity: 0.3; stroke-width: 0.5; stroke-linecap: square"/>
     </g>
     <g id="line2d_30">
      <g>
       <use xlink:href="#m78771c9cfc" x="636.544326" y="311.318125" style="fill: #2d3748; stroke: #2d3748; stroke-width: 0.8"/>
      </g>
     </g>
     <g id="text_18">
      <!-- 7.5 -->
      <g style="fill: #2d3748" transform="translate(628.592764 325.916562) scale(0.1 -0.1)">
       <use xlink:href="#DejaVuSans-37"/>
       <use xlink:href="#DejaVuSans-2e" transform="translate(63.623047 0)"/>
       <use xlink:href="#DejaVuSans-35" transform="translate(95.410156 0)"/>
      </g>
     </g>
    </g>
    <g id="xtick_10">
     <g id="line2d_31">
      <path d="M 694.921447 311.318125 
L 694.921447 22.318125 
" clip-path="url(#p562fd98e91)" style="fill: none; stroke: #e2e8f0; stroke-opacity: 0.3; stroke-width: 0.5; stroke-linecap: square"/>
     </g>
     <g id="line2d_32">
      <g>
       <use xlink:href="#m78771c9cfc" x="694.921447" y="311.318125" style="fill: #2d3748; stroke: #2d3748; stroke-width: 0.8"/>
      </g>
     </g>
     <g id="text_19">
      <!-- 10.0 -->
      <g style="fill: #2d3748" transform="translate(683.788634 325.916562) scale(0.1 -0.1)">
       <use xlink:href="#DejaVuSans-31"/>
       <use xlink:href="#DejaVuSans-30" transform="translate(63.623047 0)"/>
       <use xlink:href="#DejaVuSans-2e" transform="translate(127.246094 0)"/>
       <use xlink:href="#DejaVuSans-30" transform="translate(159.033203 0)"/>
      </g>
     </g>
    </g>
    <g id="xtick_11">
     <g id="line2d_33">
      <path d="M 753.298567 311.318125 
L 753.298567 22.318125 
" clip-path="url(#p562fd98e91)" style="fill: none; stroke: #e2e8f0; stroke-opacity: 0.3; stroke-width: 0.5; stroke-linecap: square"/>
     </g>
     <g id="line2d_34">
      <g>
       <use xlink:href="#m78771c9cfc" x="753.298567" y="311.318125" style="fill: #2d3748; stroke: #2d3748; stroke-width: 0.8"/>
      </g>
     </g>
     <g id="text_20">
      <!-- 12.5 -->
      <g style="fill: #2d3748" transform="translate(742.165755 325.916562) scale(0.1 -0.1)">
       <use xlink:href="#DejaVuSans-31"/>
       <use xlink:href="#DejaVuSans-32" transform="translate(63.623047 0)"/>
       <use xlink:href="#DejaVuSans-2e" transform="translate(127.246094 0)"/>
       <use xlink:href="#DejaVuSans-35" transform="translate(159.033203 0)"/>
      </g>
     </g>
    </g>
    <g id="xtick_12">
     <g id="line2d_35">
      <path d="M 811.675688 311.318125 
L 811.675688 22.318125 
" clip-path="url(#p562fd98e91)" style="fill: none; stroke: #e2e8f0; stroke-opacity: 0.3; stroke-width: 0.5; stroke-linecap: square"/>
     </g>
     <g id="line2d_36">
      <g>
       <use xlink:href="#m78771c9cfc" x="811.675688" y="311.318125" style="fill: #2d3748; stroke: #2d3748; stroke-width: 0.8"/>
      </g>
     </g>
     <g id="text_21">
      <!-- 15.0 -->
      <g style="fill: #2d3748" transform="translate(800.542875 325.916562) scale(0.1 -0.1)">
       <use xlink:href="#DejaVuSans-31"/>
       <use xlink:href="#DejaVuSans-35" transform="translate(63.623047 0)"/>
       <use xlink:href="#DejaVuSans-2e" transform="translate(127.246094 0)"/>
       <use xlink:href="#DejaVuSans-30" transform="translate(159.033203 0)"/>
      </g>
     </g>
    </g>
    <g id="xtick_13">
     <g id="line2d_37">
      <path d="M 870.052808 311.318125 
L 870.052808 22.318125 
" clip-path="url(#p562fd98e91)" style="fill: none; stroke: #e2e8f0; stroke-opacity: 0.3; stroke-width: 0.5; stroke-linecap: square"/>
     </g>
     <g id="line2d_38">
      <g>
       <use xlink:href="#m78771c9cfc" x="870.052808" y="311.318125" style="fill: #2d3748; stroke: #2d3748; stroke-width: 0.8"/>
      </g>
     </g>
     <g id="text_22">
      <!-- 17.5 -->
      <g style="fill: #2d3748" transform="translate(858.919996 325.916562) scale(0.1 -0.1)">
       <use xlink:href="#DejaVuSans-31"/>
       <use xlink:href="#DejaVuSans-37" transform="translate(63.623047 0)"/>
       <use xlink:href="#DejaVuSans-2e" transform="translate(127.246094 0)"/>
       <use xlink:href="#DejaVuSans-35" transform="translate(159.033203 0)"/>
      </g>
     </g>
    </g>
    <g id="text_23">
     <!-- Iteration -->
     <g style="fill: #2d3748" transform="translate(657.79571 341.114375) scale(0.12 -0.12)">
      <use xlink:href="#DejaVuSans-49"/>
      <use xlink:href="#DejaVuSans-74" transform="translate(29.492188 0)"/>
      <use xlink:href="#DejaVuSans-65" transform="translate(68.701172 0)"/>
      <use xlink:href="#DejaVuSans-72" transform="translate(130.224609 0)"/>
      <use xlink:href="#DejaVuSans-61" transform="translate(171.337891 0)"/>
      <use xlink:href="#DejaVuSans-74" transform="translate(232.617188 0)"/>
      <use xlink:href="#DejaVuSans-69" transform="translate(271.826172 0)"/>
      <use xlink:href="#DejaVuSans-6f" transform="translate(299.609375 0)"/>
      <use xlink:href="#DejaVuSans-6e" transform="translate(360.791016 0)"/>
     </g>
    </g>
   </g>
   <g id="matplotlib.axis_4">
    <g id="ytick_6">
     <g id="line2d_39">
      <path d="M 439.229659 288.088901 
L 927.262386 288.088901 
" clip-path="url(#p562fd98e91)" style="fill: none; stroke: #e2e8f0; stroke-opacity: 0.3; stroke-width: 0.5; stroke-linecap: square"/>
     </g>
     <g id="line2d_40">
      <g>
       <use xlink:href="#m31dd3c4cac" x="439.229659" y="288.088901" style="fill: #2d3748; stroke: #2d3748; stroke-width: 0.8"/>
      </g>
     </g>
     <g id="text_24">
      <!-- 10 -->
      <g style="fill: #2d3748" transform="translate(419.504659 291.88812) scale(0.1 -0.1)">
       <use xlink:href="#DejaVuSans-31"/>
       <use xlink:href="#DejaVuSans-30" transform="translate(63.623047 0)"/>
      </g>
     </g>
    </g>
    <g id="ytick_7">
     <g id="line2d_41">
      <path d="M 439.229659 249.765611 
L 927.262386 249.765611 
" clip-path="url(#p562fd98e91)" style="fill: none; stroke: #e2e8f0; stroke-opacity: 0.3; stroke-width: 0.5; stroke-linecap: square"/>
     </g>
     <g id="line2d_42">
      <g>
       <use xlink:href="#m31dd3c4cac" x="439.229659" y="249.765611" style="fill: #2d3748; stroke: #2d3748; stroke-width: 0.8"/>
      </g>
     </g>
     <g id="text_25">
      <!-- 20 -->
      <g style="fill: #2d3748" transform="translate(419.504659 253.564829) scale(0.1 -0.1)">
       <use xlink:href="#DejaVuSans-32"/>
       <use xlink:href="#DejaVuSans-30" transform="translate(63.623047 0)"/>
      </g>
     </g>
    </g>
    <g id="ytick_8">
     <g id="line2d_43">
      <path d="M 439.229659 211.44232 
L 927.262386 211.44232 
" clip-path="url(#p562fd98e91)" style="fill: none; stroke: #e2e8f0; stroke-opacity: 0.3; stroke-width: 0.5; stroke-linecap: square"/>
     </g>
     <g id="line2d_44">
      <g>
       <use xlink:href="#m31dd3c4cac" x="439.229659" y="211.44232" style="fill: #2d3748; stroke: #2d3748; stroke-width: 0.8"/>
      </g>
     </g>
     <g id="text_26">
      <!-- 30 -->
      <g style="fill: #2d3748" transform="translate(419.504659 215.241539) scale(0.1 -0.1)">
       <use xlink:href="#DejaVuSans-33"/>
       <use xlink:href="#DejaVuSans-30" transform="translate(63.623047 0)"/>
      </g>
     </g>
    </g>
    <g id="ytick_9">
     <g id="line2d_45">
      <path d="M 439.229659 173.11903 
L 927.262386 173.11903 
" clip-path="url(#p562fd98e91)" style="fill: none; stroke: #e2e8f0; stroke-opacity: 0.3; stroke-width: 0.5; stroke-linecap: square"/>
     </g>
     <g id="line2d_46">
      <g>
       <use xlink:href="#m31dd3c4cac" x="439.229659" y="173.11903" style="fill: #2d3748; stroke: #2d3748; stroke-width: 0.8"/>
      </g>
     </g>
     <g id="text_27">
      <!-- 40 -->
      <g style="fill: #2d3748" transform="translate(419.504659 176.918248) scale(0.1 -0.1)">
       <use xlink:href="#DejaVuSans-34"/>
       <use xlink:href="#DejaVuSans-30" transform="translate(63.623047 0)"/>
      </g>
     </g>
    </g>
    <g id="ytick_10">
     <g id="line2d_47">
      <path d="M 439.229659 134.795739 
L 927.262386 134.795739 
" clip-path="url(#p562fd98e91)" style="fill: none; stroke: #e2e8f0; stroke-opacity: 0.3; stroke-width: 0.5; stroke-linecap: square"/>
     </g>
     <g id="line2d_48">
      <g>
       <use xlink:href="#m31dd3c4cac" x="439.229659" y="134.795739" style="fill: #2d3748; stroke: #2d3748; stroke-width: 0.8"/>
      </g>
     </g>
     <g id="text_28">
      <!-- 50 -->
      <g style="fill: #2d3748" transform="translate(419.504659 138.594958) scale(0.1 -0.1)">
       <use xlink:href="#DejaVuSans-35"/>
       <use xlink:href="#DejaVuSans-30" transform="translate(63.623047 0)"/>
      </g>
     </g>
    </g>
    <g id="ytick_11">
     <g id="line2d_49">
      <path d="M 439.229659 96.472449 
L 927.262386 96.472449 
" clip-path="url(#p562fd98e91)" style="fill: none; stroke: #e2e8f0; stroke-opacity: 0.3; stroke-width: 0.5; stroke-linecap: square"/>
     </g>
     <g id="line2d_50">
      <g>
       <use xlink:href="#m31dd3c4cac" x="439.229659" y="96.472449" style="fill: #2d3748; stroke: #2d3748; stroke-width: 0.8"/>
      </g>
     </g>
     <g id="text_29">
      <!-- 60 -->
      <g style="fill: #2d3748" transform="translate(419.504659 100.271667) scale(0.1 -0.1)">
       <defs>
        <path id="DejaVuSans-36" d="M 2113 2584 
Q 1688 2584 1439 2293 
Q 1191 2003 1191 1497 
Q 1191 994 1439 701 
Q 1688 409 2113 409 
Q 2538 409 2786 701 
Q 3034 994 3034 1497 
Q 3034 2003 2786 2293 
Q 2538 2584 2113 2584 
z
M 3366 4563 
L 3366 3988 
Q 3128 4100 2886 4159 
Q 2644 4219 2406 4219 
Q 1781 4219 1451 3797 
Q 1122 3375 1075 2522 
Q 1259 2794 1537 2939 
Q 1816 3084 2150 3084 
Q 2853 3084 3261 2657 
Q 3669 2231 3669 1497 
Q 3669 778 3244 343 
Q 2819 -91 2113 -91 
Q 1303 -91 875 529 
Q 447 1150 447 2328 
Q 447 3434 972 4092 
Q 1497 4750 2381 4750 
Q 2619 4750 2861 4703 
Q 3103 4656 3366 4563 
z
" transform="scale(0.015625)"/>
       </defs>
       <use xlink:href="#DejaVuSans-36"/>
       <use xlink:href="#DejaVuSans-30" transform="translate(63.623047 0)"/>
      </g>
     </g>
    </g>
    <g id="ytick_12">
     <g id="line2d_51">
      <path d="M 439.229659 58.149158 
L 927.262386 58.149158 
" clip-path="url(#p562fd98e91)" style="fill: none; stroke: #e2e8f0; stroke-opacity: 0.3; stroke-width: 0.5; stroke-linecap: square"/>
     </g>
     <g id="line2d_52">
      <g>
       <use xlink:href="#m31dd3c4cac" x="439.229659" y="58.149158" style="fill: #2d3748; stroke: #2d3748; stroke-width: 0.8"/>
      </g>
     </g>
     <g id="text_30">
      <!-- 70 -->
      <g style="fill: #2d3748" transform="translate(419.504659 61.948377) scale(0.1 -0.1)">
       <use xlink:href="#DejaVuSans-37"/>
       <use xlink:href="#DejaVuSans-30" transform="translate(63.623047 0)"/>
      </g>
     </g>
    </g>
    <g id="text_31">
     <!-- α -->
     <g style="fill: #2d3748" transform="translate(413.009034 170.773438) rotate(-90) scale(0.12 -0.12)">
      <use xlink:href="#DejaVuSans-3b1"/>
     </g>
    </g>
   </g>
   <g id="line2d_53">
    <path d="M 461.412965 295.328401 
L 461.412965 271.222821 
" clip-path="url(#p562fd98e91)" style="fill: none; stroke: #228b22; stroke-opacity: 0.7; stroke-width: 2; stroke-linecap: square"/>
   </g>
   <g id="line2d_54">
    <path d="M 484.763813 195.067545 
L 484.763813 35.454489 
" clip-path="url(#p562fd98e91)" style="fill: none; stroke: #228b22; stroke-opacity: 0.7; stroke-width: 2; stroke-linecap: square"/>
   </g>
   <g id="line2d_55">
    <path d="M 508.114661 282.481821 
L 508.114661 247.032777 
" clip-path="url(#p562fd98e91)" style="fill: none; stroke: #228b22; stroke-opacity: 0.7; stroke-width: 2; stroke-linecap: square"/>
   </g>
   <g id="line2d_56">
    <path d="M 531.465509 288.133586 
L 531.465509 258.454267 
" clip-path="url(#p562fd98e91)" style="fill: none; stroke: #228b22; stroke-opacity: 0.7; stroke-width: 2; stroke-linecap: square"/>
   </g>
   <g id="line2d_57">
    <path d="M 554.816358 261.886501 
L 554.816358 208.512888 
" clip-path="url(#p562fd98e91)" style="fill: none; stroke: #228b22; stroke-opacity: 0.7; stroke-width: 2; stroke-linecap: square"/>
   </g>
   <g id="line2d_58">
    <path d="M 578.167206 298.181761 
L 578.167206 274.817929 
" clip-path="url(#p562fd98e91)" style="fill: none; stroke: #228b22; stroke-opacity: 0.7; stroke-width: 2; stroke-linecap: square"/>
   </g>
   <g id="line2d_59">
    <path d="M 601.518054 291.085131 
L 601.518054 261.566885 
" clip-path="url(#p562fd98e91)" style="fill: none; stroke: #228b22; stroke-opacity: 0.7; stroke-width: 2; stroke-linecap: square"/>
   </g>
   <g id="line2d_60">
    <path d="M 624.868902 231.310647 
L 624.868902 144.194143 
" clip-path="url(#p562fd98e91)" style="fill: none; stroke: #dc143c; stroke-opacity: 0.7; stroke-width: 2; stroke-linecap: square"/>
   </g>
   <g id="line2d_61">
    <path d="M 648.21975 288.967654 
L 648.21975 259.669882 
" clip-path="url(#p562fd98e91)" style="fill: none; stroke: #228b22; stroke-opacity: 0.7; stroke-width: 2; stroke-linecap: square"/>
   </g>
   <g id="line2d_62">
    <path d="M 671.570599 287.082148 
L 671.570599 255.158081 
" clip-path="url(#p562fd98e91)" style="fill: none; stroke: #228b22; stroke-opacity: 0.7; stroke-width: 2; stroke-linecap: square"/>
   </g>
   <g id="line2d_63">
    <path d="M 694.921447 296.175231 
L 694.921447 271.042318 
" clip-path="url(#p562fd98e91)" style="fill: none; stroke: #228b22; stroke-opacity: 0.7; stroke-width: 2; stroke-linecap: square"/>
   </g>
   <g id="line2d_64">
    <path d="M 718.272295 289.115276 
L 718.272295 257.185383 
" clip-path="url(#p562fd98e91)" style="fill: none; stroke: #228b22; stroke-opacity: 0.7; stroke-width: 2; stroke-linecap: square"/>
   </g>
   <g id="line2d_65">
    <path d="M 741.623143 258.068352 
L 741.623143 200.750505 
" clip-path="url(#p562fd98e91)" style="fill: none; stroke: #228b22; stroke-opacity: 0.7; stroke-width: 2; stroke-linecap: square"/>
   </g>
   <g id="line2d_66">
    <path d="M 764.973991 259.95654 
L 764.973991 203.873854 
" clip-path="url(#p562fd98e91)" style="fill: none; stroke: #228b22; stroke-opacity: 0.7; stroke-width: 2; stroke-linecap: square"/>
   </g>
   <g id="line2d_67">
    <path d="M 788.32484 262.734212 
L 788.32484 212.651037 
" clip-path="url(#p562fd98e91)" style="fill: none; stroke: #228b22; stroke-opacity: 0.7; stroke-width: 2; stroke-linecap: square"/>
   </g>
   <g id="line2d_68">
    <path d="M 811.675688 241.784785 
L 811.675688 156.738122 
" clip-path="url(#p562fd98e91)" style="fill: none; stroke: #228b22; stroke-opacity: 0.7; stroke-width: 2; stroke-linecap: square"/>
   </g>
   <g id="line2d_69">
    <path d="M 835.026536 229.202099 
L 835.026536 137.755064 
" clip-path="url(#p562fd98e91)" style="fill: none; stroke: #228b22; stroke-opacity: 0.7; stroke-width: 2; stroke-linecap: square"/>
   </g>
   <g id="line2d_70">
    <path d="M 858.377384 295.961846 
L 858.377384 270.112212 
" clip-path="url(#p562fd98e91)" style="fill: none; stroke: #228b22; stroke-opacity: 0.7; stroke-width: 2; stroke-linecap: square"/>
   </g>
   <g id="line2d_71">
    <path d="M 881.728232 287.087514 
L 881.728232 255.145051 
" clip-path="url(#p562fd98e91)" style="fill: none; stroke: #228b22; stroke-opacity: 0.7; stroke-width: 2; stroke-linecap: square"/>
   </g>
   <g id="line2d_72">
    <path d="M 905.079081 273.779368 
L 905.079081 229.340447 
" clip-path="url(#p562fd98e91)" style="fill: none; stroke: #228b22; stroke-opacity: 0.7; stroke-width: 2; stroke-linecap: square"/>
   </g>
   <g id="patch_7">
    <path d="M 439.229659 311.318125 
L 439.229659 22.318125 
" style="fill: none; stroke: #2d3748; stroke-width: 0.8; stroke-linejoin: miter; stroke-linecap: square"/>
   </g>
   <g id="patch_8">
    <path d="M 439.229659 311.318125 
L 927.262386 311.318125 
" style="fill: none; stroke: #2d3748; stroke-width: 0.8; stroke-linejoin: miter; stroke-linecap: square"/>
   </g>
   <g id="PathCollection_2">
    <defs>
     <path id="m06fd0f1a71" d="M 0 3.162278 
C 0.838646 3.162278 1.643056 2.82908 2.236068 2.236068 
C 2.82908 1.643056 3.162278 0.838646 3.162278 0 
C 3.162278 -0.838646 2.82908 -1.643056 2.236068 -2.236068 
C 1.643056 -2.82908 0.838646 -3.162278 0 -3.162278 
C -0.838646 -3.162278 -1.643056 -2.82908 -2.236068 -2.236068 
C -2.82908 -1.643056 -3.162278 -0.838646 -3.162278 0 
C -3.162278 0.838646 -2.82908 1.643056 -2.236068 2.236068 
C -1.643056 2.82908 -0.838646 3.162278 0 3.162278 
z
" style="stroke: #228b22"/>
    </defs>
    <g clip-path="url(#p562fd98e91)">
     <use xlink:href="#m06fd0f1a71" x="461.412965" y="284.638272" style="fill: #228b22; stroke: #228b22"/>
    </g>
   </g>
   <g id="PathCollection_3">
    <g clip-path="url(#p562fd98e91)">
     <use xlink:href="#m06fd0f1a71" x="484.763813" y="127.274027" style="fill: #228b22; stroke: #228b22"/>
    </g>
   </g>
   <g id="PathCollection_4">
    <g clip-path="url(#p562fd98e91)">
     <use xlink:href="#m06fd0f1a71" x="508.114661" y="266.73823" style="fill: #228b22; stroke: #228b22"/>
    </g>
   </g>
   <g id="PathCollection_5">
    <g clip-path="url(#p562fd98e91)">
     <use xlink:href="#m06fd0f1a71" x="531.465509" y="274.64969" style="fill: #228b22; stroke: #228b22"/>
    </g>
   </g>
   <g id="PathCollection_6">
    <g clip-path="url(#p562fd98e91)">
     <use xlink:href="#m06fd0f1a71" x="554.816358" y="238.370564" style="fill: #228b22; stroke: #228b22"/>
    </g>
   </g>
   <g id="PathCollection_7">
    <g clip-path="url(#p562fd98e91)">
     <use xlink:href="#m06fd0f1a71" x="578.167206" y="287.629405" style="fill: #228b22; stroke: #228b22"/>
    </g>
   </g>
   <g id="PathCollection_8">
    <g clip-path="url(#p562fd98e91)">
     <use xlink:href="#m06fd0f1a71" x="601.518054" y="277.943193" style="fill: #228b22; stroke: #228b22"/>
    </g>
   </g>
   <g id="PathCollection_9">
    <defs>
     <path id="m001d1f9ea2" d="M 0 3.162278 
C 0.838646 3.162278 1.643056 2.82908 2.236068 2.236068 
C 2.82908 1.643056 3.162278 0.838646 3.162278 0 
C 3.162278 -0.838646 2.82908 -1.643056 2.236068 -2.236068 
C 1.643056 -2.82908 0.838646 -3.162278 0 -3.162278 
C -0.838646 -3.162278 -1.643056 -2.82908 -2.236068 -2.236068 
C -2.82908 -1.643056 -3.162278 -0.838646 -3.162278 0 
C -3.162278 0.838646 -2.82908 1.643056 -2.236068 2.236068 
C -1.643056 2.82908 -0.838646 3.162278 0 3.162278 
z
" style="stroke: #dc143c"/>
    </defs>
    <g clip-path="url(#p562fd98e91)">
     <use xlink:href="#m001d1f9ea2" x="624.868902" y="192.794207" style="fill: #dc143c; stroke: #dc143c"/>
    </g>
   </g>
   <g id="PathCollection_10">
    <g clip-path="url(#p562fd98e91)">
     <use xlink:href="#m06fd0f1a71" x="648.21975" y="276.185304" style="fill: #228b22; stroke: #228b22"/>
    </g>
   </g>
   <g id="PathCollection_11">
    <g clip-path="url(#p562fd98e91)">
     <use xlink:href="#m06fd0f1a71" x="671.570599" y="272.804807" style="fill: #228b22; stroke: #228b22"/>
    </g>
   </g>
   <g id="PathCollection_12">
    <g clip-path="url(#p562fd98e91)">
     <use xlink:href="#m06fd0f1a71" x="694.921447" y="284.937577" style="fill: #228b22; stroke: #228b22"/>
    </g>
   </g>
   <g id="PathCollection_13">
    <g clip-path="url(#p562fd98e91)">
     <use xlink:href="#m06fd0f1a71" x="718.272295" y="275.082743" style="fill: #228b22; stroke: #228b22"/>
    </g>
   </g>
   <g id="PathCollection_14">
    <g clip-path="url(#p562fd98e91)">
     <use xlink:href="#m06fd0f1a71" x="741.623143" y="232.486405" style="fill: #228b22; stroke: #228b22"/>
    </g>
   </g>
   <g id="PathCollection_15">
    <g clip-path="url(#p562fd98e91)">
     <use xlink:href="#m06fd0f1a71" x="764.973991" y="234.309061" style="fill: #228b22; stroke: #228b22"/>
    </g>
   </g>
   <g id="PathCollection_16">
    <g clip-path="url(#p562fd98e91)">
     <use xlink:href="#m06fd0f1a71" x="788.32484" y="240.820188" style="fill: #228b22; stroke: #228b22"/>
    </g>
   </g>
   <g id="PathCollection_17">
    <g clip-path="url(#p562fd98e91)">
     <use xlink:href="#m06fd0f1a71" x="811.675688" y="205.9207" style="fill: #228b22; stroke: #228b22"/>
    </g>
   </g>
   <g id="PathCollection_18">
    <g clip-path="url(#p562fd98e91)">
     <use xlink:href="#m06fd0f1a71" x="835.026536" y="189.097159" style="fill: #228b22; stroke: #228b22"/>
    </g>
   </g>
   <g id="PathCollection_19">
    <g clip-path="url(#p562fd98e91)">
     <use xlink:href="#m06fd0f1a71" x="858.377384" y="284.450871" style="fill: #228b22; stroke: #228b22"/>
    </g>
   </g>
   <g id="PathCollection_20">
    <g clip-path="url(#p562fd98e91)">
     <use xlink:href="#m06fd0f1a71" x="881.728232" y="272.755753" style="fill: #228b22; stroke: #228b22"/>
    </g>
   </g>
   <g id="PathCollection_21">
    <g clip-path="url(#p562fd98e91)">
     <use xlink:href="#m06fd0f1a71" x="905.079081" y="254.192717" style="fill: #228b22; stroke: #228b22"/>
    </g>
   </g>
   <g id="text_32">
    <!-- α: 90% Credible Intervals (Coverage = 95%) -->
    <g style="fill: #2d3748" transform="translate(549.737585 16.318125) scale(0.12 -0.12)">
     <defs>
      <path id="DejaVuSans-39" d="M 703 97 
L 703 672 
Q 941 559 1184 500 
Q 1428 441 1663 441 
Q 2288 441 2617 861 
Q 2947 1281 2994 2138 
Q 2813 1869 2534 1725 
Q 2256 1581 1919 1581 
Q 1219 1581 811 2004 
Q 403 2428 403 3163 
Q 403 3881 828 4315 
Q 1253 4750 1959 4750 
Q 2769 4750 3195 4129 
Q 3622 3509 3622 2328 
Q 3622 1225 3098 567 
Q 2575 -91 1691 -91 
Q 1453 -91 1209 -44 
Q 966 3 703 97 
z
M 1959 2075 
Q 2384 2075 2632 2365 
Q 2881 2656 2881 3163 
Q 2881 3666 2632 3958 
Q 2384 4250 1959 4250 
Q 1534 4250 1286 3958 
Q 1038 3666 1038 3163 
Q 1038 2656 1286 2365 
Q 1534 2075 1959 2075 
z
" transform="scale(0.015625)"/>
      <path id="DejaVuSans-25" d="M 4653 2053 
Q 4381 2053 4226 1822 
Q 4072 1591 4072 1178 
Q 4072 772 4226 539 
Q 4381 306 4653 306 
Q 4919 306 5073 539 
Q 5228 772 5228 1178 
Q 5228 1588 5073 1820 
Q 4919 2053 4653 2053 
z
M 4653 2450 
Q 5147 2450 5437 2106 
Q 5728 1763 5728 1178 
Q 5728 594 5436 251 
Q 5144 -91 4653 -91 
Q 4153 -91 3862 251 
Q 3572 594 3572 1178 
Q 3572 1766 3864 2108 
Q 4156 2450 4653 2450 
z
M 1428 4353 
Q 1159 4353 1004 4120 
Q 850 3888 850 3481 
Q 850 3069 1003 2837 
Q 1156 2606 1428 2606 
Q 1700 2606 1854 2837 
Q 2009 3069 2009 3481 
Q 2009 3884 1853 4118 
Q 1697 4353 1428 4353 
z
M 4250 4750 
L 4750 4750 
L 1831 -91 
L 1331 -91 
L 4250 4750 
z
M 1428 4750 
Q 1922 4750 2215 4408 
Q 2509 4066 2509 3481 
Q 2509 2891 2217 2550 
Q 1925 2209 1428 2209 
Q 931 2209 642 2551 
Q 353 2894 353 3481 
Q 353 4063 643 4406 
Q 934 4750 1428 4750 
z
" transform="scale(0.015625)"/>
      <path id="DejaVuSans-43" d="M 4122 4306 
L 4122 3641 
Q 3803 3938 3442 4084 
Q 3081 4231 2675 4231 
Q 1875 4231 1450 3742 
Q 1025 3253 1025 2328 
Q 1025 1406 1450 917 
Q 1875 428 2675 428 
Q 3081 428 3442 575 
Q 3803 722 4122 1019 
L 4122 359 
Q 3791 134 3420 21 
Q 3050 -91 2638 -91 
Q 1578 -91 968 557 
Q 359 1206 359 2328 
Q 359 3453 968 4101 
Q 1578 4750 2638 4750 
Q 3056 4750 3426 4639 
Q 3797 4528 4122 4306 
z
" transform="scale(0.015625)"/>
      <path id="DejaVuSans-62" d="M 3116 1747 
Q 3116 2381 2855 2742 
Q 2594 3103 2138 3103 
Q 1681 3103 1420 2742 
Q 1159 2381 1159 1747 
Q 1159 1113 1420 752 
Q 1681 391 2138 391 
Q 2594 391 2855 752 
Q 3116 1113 3116 1747 
z
M 1159 2969 
Q 1341 3281 1617 3432 
Q 1894 3584 2278 3584 
Q 2916 3584 3314 3078 
Q 3713 2572 3713 1747 
Q 3713 922 3314 415 
Q 2916 -91 2278 -91 
Q 1894 -91 1617 61 
Q 1341 213 1159 525 
L 1159 0 
L 581 0 
L 581 4863 
L 1159 4863 
L 1159 2969 
z
" transform="scale(0.015625)"/>
      <path id="DejaVuSans-67" d="M 2906 1791 
Q 2906 2416 2648 2759 
Q 2391 3103 1925 3103 
Q 1463 3103 1205 2759 
Q 947 2416 947 1791 
Q 947 1169 1205 825 
Q 1463 481 1925 481 
Q 2391 481 2648 825 
Q 2906 1169 2906 1791 
z
M 3481 434 
Q 3481 -459 3084 -895 
Q 2688 -1331 1869 -1331 
Q 1566 -1331 1297 -1286 
Q 1028 -1241 775 -1147 
L 775 -588 
Q 1028 -725 1275 -790 
Q 1522 -856 1778 -856 
Q 2344 -856 2625 -561 
Q 2906 -266 2906 331 
L 2906 616 
Q 2728 306 2450 153 
Q 2172 0 1784 0 
Q 1141 0 747 490 
Q 353 981 353 1791 
Q 353 2603 747 3093 
Q 1141 3584 1784 3584 
Q 2172 3584 2450 3431 
Q 2728 3278 2906 2969 
L 2906 3500 
L 3481 3500 
L 3481 434 
z
" transform="scale(0.015625)"/>
     </defs>
     <use xlink:href="#DejaVuSans-3b1"/>
     <use xlink:href="#DejaVuSans-3a" transform="translate(65.917969 0)"/>
     <use xlink:href="#DejaVuSans-20" transform="translate(99.609375 0)"/>
     <use xlink:href="#DejaVuSans-39" transform="translate(131.396484 0)"/>
     <use xlink:href="#DejaVuSans-30" transform="translate(195.019531 0)"/>
     <use xlink:href="#DejaVuSans-25" transform="translate(258.642578 0)"/>
     <use xlink:href="#DejaVuSans-20" transform="translate(353.662109 0)"/>
     <use xlink:href="#DejaVuSans-43" transform="translate(385.449219 0)"/>
     <use xlink:href="#DejaVuSans-72" transform="translate(455.273438 0)"/>
     <use xlink:href="#DejaVuSans-65" transform="translate(494.136719 0)"/>
     <use xlink:href="#DejaVuSans-64" transform="translate(555.660156 0)"/>
     <use xlink:href="#DejaVuSans-69" transform="translate(619.136719 0)"/>
     <use xlink:href="#DejaVuSans-62" transform="translate(646.919922 0)"/>
     <use xlink:href="#DejaVuSans-6c" transform="translate(710.396484 0)"/>
     <use xlink:href="#DejaVuSans-65" transform="translate(738.179688 0)"/>
     <use xlink:href="#DejaVuSans-20" transform="translate(799.703125 0)"/>
     <use xlink:href="#DejaVuSans-49" transform="translate(831.490234 0)"/>
     <use xlink:href="#DejaVuSans-6e" transform="translate(860.982422 0)"/>
     <use xlink:href="#DejaVuSans-74" transform="translate(924.361328 0)"/>
     <use xlink:href="#DejaVuSans-65" transform="translate(963.570312 0)"/>
     <use xlink:href="#DejaVuSans-72" transform="translate(1025.09375 0)"/>
     <use xlink:href="#DejaVuSans-76" transform="translate(1066.207031 0)"/>
     <use xlink:href="#DejaVuSans-61" transform="translate(1125.386719 0)"/>
     <use xlink:href="#DejaVuSans-6c" transform="translate(1186.666016 0)"/>
     <use xlink:href="#DejaVuSans-73" transform="translate(1214.449219 0)"/>
     <use xlink:href="#DejaVuSans-20" transform="translate(1266.548828 0)"/>
     <use xlink:href="#DejaVuSans-28" transform="translate(1298.335938 0)"/>
     <use xlink:href="#DejaVuSans-43" transform="translate(1337.349609 0)"/>
     <use xlink:href="#DejaVuSans-6f" transform="translate(1407.173828 0)"/>
     <use xlink:href="#DejaVuSans-76" transform="translate(1468.355469 0)"/>
     <use xlink:href="#DejaVuSans-65" transform="translate(1527.535156 0)"/>
     <use xlink:href="#DejaVuSans-72" transform="translate(1589.058594 0)"/>
     <use xlink:href="#DejaVuSans-61" transform="translate(1630.171875 0)"/>
     <use xlink:href="#DejaVuSans-67" transform="translate(1691.451172 0)"/>
     <use xlink:href="#DejaVuSans-65" transform="translate(1754.927734 0)"/>
     <use xlink:href="#DejaVuSans-20" transform="translate(1816.451172 0)"/>
     <use xlink:href="#DejaVuSans-3d" transform="translate(1848.238281 0)"/>
     <use xlink:href="#DejaVuSans-20" transform="translate(1932.027344 0)"/>
     <use xlink:href="#DejaVuSans-39" transform="translate(1963.814453 0)"/>
     <use xlink:href="#DejaVuSans-35" transform="translate(2027.4375 0)"/>
     <use xlink:href="#DejaVuSans-25" transform="translate(2091.060547 0)"/>
     <use xlink:href="#DejaVuSans-29" transform="translate(2186.080078 0)"/>
    </g>
   </g>
   <g id="PathCollection_22">
    <defs>
     <path id="m1266752650" d="M -3.872983 3.872983 
L 3.872983 -3.872983 
M -3.872983 -3.872983 
L 3.872983 3.872983 
" style="stroke: #000000; stroke-width: 2"/>
    </defs>
    <g clip-path="url(#p562fd98e91)">
     <use xlink:href="#m1266752650" x="461.412965" y="288.183971" style="stroke: #000000; stroke-width: 2"/>
     <use xlink:href="#m1266752650" x="484.763813" y="156.585048" style="stroke: #000000; stroke-width: 2"/>
     <use xlink:href="#m1266752650" x="508.114661" y="270.562197" style="stroke: #000000; stroke-width: 2"/>
     <use xlink:href="#m1266752650" x="531.465509" y="277.450655" style="stroke: #000000; stroke-width: 2"/>
     <use xlink:href="#m1266752650" x="554.816358" y="256.598427" style="stroke: #000000; stroke-width: 2"/>
     <use xlink:href="#m1266752650" x="578.167206" y="288.580718" style="stroke: #000000; stroke-width: 2"/>
     <use xlink:href="#m1266752650" x="601.518054" y="273.136644" style="stroke: #000000; stroke-width: 2"/>
     <use xlink:href="#m1266752650" x="624.868902" y="235.200756" style="stroke: #000000; stroke-width: 2"/>
     <use xlink:href="#m1266752650" x="648.21975" y="279.382168" style="stroke: #000000; stroke-width: 2"/>
     <use xlink:href="#m1266752650" x="671.570599" y="274.984172" style="stroke: #000000; stroke-width: 2"/>
     <use xlink:href="#m1266752650" x="694.921447" y="277.694513" style="stroke: #000000; stroke-width: 2"/>
     <use xlink:href="#m1266752650" x="718.272295" y="276.192608" style="stroke: #000000; stroke-width: 2"/>
     <use xlink:href="#m1266752650" x="741.623143" y="230.651115" style="stroke: #000000; stroke-width: 2"/>
     <use xlink:href="#m1266752650" x="764.973991" y="244.844249" style="stroke: #000000; stroke-width: 2"/>
     <use xlink:href="#m1266752650" x="788.32484" y="234.744264" style="stroke: #000000; stroke-width: 2"/>
     <use xlink:href="#m1266752650" x="811.675688" y="214.851855" style="stroke: #000000; stroke-width: 2"/>
     <use xlink:href="#m1266752650" x="835.026536" y="208.026726" style="stroke: #000000; stroke-width: 2"/>
     <use xlink:href="#m1266752650" x="858.377384" y="290.900849" style="stroke: #000000; stroke-width: 2"/>
     <use xlink:href="#m1266752650" x="881.728232" y="273.368473" style="stroke: #000000; stroke-width: 2"/>
     <use xlink:href="#m1266752650" x="905.079081" y="253.273989" style="stroke: #000000; stroke-width: 2"/>
    </g>
   </g>
   <g id="legend_2">
    <g id="patch_9">
     <path d="M 836.534261 44.99625 
L 920.262386 44.99625 
Q 922.262386 44.99625 922.262386 42.99625 
L 922.262386 29.318125 
Q 922.262386 27.318125 920.262386 27.318125 
L 836.534261 27.318125 
Q 834.534261 27.318125 834.534261 29.318125 
L 834.534261 42.99625 
Q 834.534261 44.99625 836.534261 44.99625 
z
" style="fill: #ffffff; opacity: 0.9; stroke: #e2e8f0; stroke-linejoin: miter"/>
    </g>
    <g id="PathCollection_23">
     <g>
      <use xlink:href="#m1266752650" x="848.534261" y="36.291563" style="stroke: #000000; stroke-width: 2"/>
     </g>
    </g>
    <g id="text_33">
     <!-- True value -->
     <g style="fill: #2d3748" transform="translate(866.534261 38.916563) scale(0.1 -0.1)">
      <use xlink:href="#DejaVuSans-54"/>
      <use xlink:href="#DejaVuSans-72" transform="translate(46.333984 0)"/>
      <use xlink:href="#DejaVuSans-75" transform="translate(87.447266 0)"/>
      <use xlink:href="#DejaVuSans-65" transform="translate(150.826172 0)"/>
      <use xlink:href="#DejaVuSans-20" transform="translate(212.349609 0)"/>
      <use xlink:href="#DejaVuSans-76" transform="translate(244.136719 0)"/>
      <use xlink:href="#DejaVuSans-61" transform="translate(303.316406 0)"/>
      <use xlink:href="#DejaVuSans-6c" transform="translate(364.595703 0)"/>
      <use xlink:href="#DejaVuSans-75" transform="translate(392.378906 0)"/>
      <use xlink:href="#DejaVuSans-65" transform="translate(455.757812 0)"/>
     </g>
    </g>
   </g>
  </g>
 </g>
 <defs>
  <clipPath id="pb9da4c61ae">
   <rect x="42.53875" y="22.318125" width="289" height="289"/>
  </clipPath>
  <clipPath id="p562fd98e91">
   <rect x="439.229659" y="22.318125" width="488.032727" height="289"/>
  </clipPath>
 </defs>
</svg>
