<?xml version="1.0" encoding="utf-8" standalone="no"?>
<!DOCTYPE svg PUBLIC "-//W3C//DTD SVG 1.1//EN"
  "http://www.w3.org/Graphics/SVG/1.1/DTD/svg11.dtd">
<svg xmlns:xlink="http://www.w3.org/1999/xlink" width="856.882187pt" height="352.954375pt" viewBox="0 0 856.882187 352.954375" xmlns="http://www.w3.org/2000/svg" version="1.1">
 <metadata>
  <rdf:RDF xmlns:dc="http://purl.org/dc/elements/1.1/" xmlns:cc="http://creativecommons.org/ns#" xmlns:rdf="http://www.w3.org/1999/02/22-rdf-syntax-ns#">
   <cc:Work>
    <dc:type rdf:resource="http://purl.org/dc/dcmitype/StillImage"/>
    <dc:date>2026-01-03T13:13:40.046383</dc:date>
    <dc:format>image/svg+xml</dc:format>
    <dc:creator>
     <cc:Agent>
      <dc:title>Matplotlib v3.10.0, https://matplotlib.org/</dc:title>
     </cc:Agent>
    </dc:creator>
   </cc:Work>
  </rdf:RDF>
 </metadata>
 <defs>
  <style type="text/css">*{stroke-linejoin: round; stroke-linecap: butt}</style>
 </defs>
 <g id="figure_1">
  <g id="patch_1">
   <path d="M 0 352.954375 
L 856.882187 352.954375 
L 856.882187 0 
L 0 0 
z
" style="fill: #ffffff"/>
  </g>
  <g id="axes_1">
   <g id="patch_2">
    <path d="M 34.240625 315.398125 
L 415.130625 315.398125 
L 415.130625 22.318125 
L 34.240625 22.318125 
z
" style="fill: #ffffff"/>
   </g>
   <g id="patch_3">
    <path d="M 110.810123 315.398125 
L 116.896531 315.398125 
L 116.896531 205.396207 
L 110.810123 205.396207 
z
" clip-path="url(#p46de5dce34)" style="fill: #4682b4; opacity: 0.7; stroke: #ffffff; stroke-linejoin: miter"/>
   </g>
   <g id="patch_4">
    <path d="M 116.896531 315.398125 
L 122.982939 315.398125 
L 122.982939 187.143319 
L 116.896531 187.143319 
z
" clip-path="url(#p46de5dce34)" style="fill: #4682b4; opacity: 0.7; stroke: #ffffff; stroke-linejoin: miter"/>
   </g>
   <g id="patch_5">
    <path d="M 122.982939 315.398125 
L 129.069348 315.398125 
L 129.069348 215.249536 
L 122.982939 215.249536 
z
" clip-path="url(#p46de5dce34)" style="fill: #4682b4; opacity: 0.7; stroke: #ffffff; stroke-linejoin: miter"/>
   </g>
   <g id="patch_6">
    <path d="M 129.069348 315.398125 
L 135.155756 315.398125 
L 135.155756 82.47189 
L 129.069348 82.47189 
z
" clip-path="url(#p46de5dce34)" style="fill: #4682b4; opacity: 0.7; stroke: #ffffff; stroke-linejoin: miter"/>
   </g>
   <g id="patch_7">
    <path d="M 135.155756 315.398125 
L 141.242164 315.398125 
L 141.242164 36.274315 
L 135.155756 36.274315 
z
" clip-path="url(#p46de5dce34)" style="fill: #4682b4; opacity: 0.7; stroke: #ffffff; stroke-linejoin: miter"/>
   </g>
   <g id="patch_8">
    <path d="M 141.242164 315.398125 
L 147.328573 315.398125 
L 147.328573 107.509038 
L 141.242164 107.509038 
z
" clip-path="url(#p46de5dce34)" style="fill: #4682b4; opacity: 0.7; stroke: #ffffff; stroke-linejoin: miter"/>
   </g>
   <g id="patch_9">
    <path d="M 147.328573 315.398125 
L 153.414981 315.398125 
L 153.414981 158.875572 
L 147.328573 158.875572 
z
" clip-path="url(#p46de5dce34)" style="fill: #4682b4; opacity: 0.7; stroke: #ffffff; stroke-linejoin: miter"/>
   </g>
   <g id="patch_10">
    <path d="M 153.414981 315.398125 
L 159.501389 315.398125 
L 159.501389 180.19753 
L 153.414981 180.19753 
z
" clip-path="url(#p46de5dce34)" style="fill: #4682b4; opacity: 0.7; stroke: #ffffff; stroke-linejoin: miter"/>
   </g>
   <g id="patch_11">
    <path d="M 159.501389 315.398125 
L 165.587797 315.398125 
L 165.587797 127.054166 
L 159.501389 127.054166 
z
" clip-path="url(#p46de5dce34)" style="fill: #4682b4; opacity: 0.7; stroke: #ffffff; stroke-linejoin: miter"/>
   </g>
   <g id="patch_12">
    <path d="M 165.587797 315.398125 
L 171.674206 315.398125 
L 171.674206 74.556921 
L 165.587797 74.556921 
z
" clip-path="url(#p46de5dce34)" style="fill: #4682b4; opacity: 0.7; stroke: #ffffff; stroke-linejoin: miter"/>
   </g>
   <g id="patch_13">
    <path d="M 171.674206 315.398125 
L 177.760614 315.398125 
L 177.760614 129.477115 
L 171.674206 129.477115 
z
" clip-path="url(#p46de5dce34)" style="fill: #4682b4; opacity: 0.7; stroke: #ffffff; stroke-linejoin: miter"/>
   </g>
   <g id="patch_14">
    <path d="M 177.760614 315.398125 
L 183.847022 315.398125 
L 183.847022 165.982891 
L 177.760614 165.982891 
z
" clip-path="url(#p46de5dce34)" style="fill: #4682b4; opacity: 0.7; stroke: #ffffff; stroke-linejoin: miter"/>
   </g>
   <g id="patch_15">
    <path d="M 183.847022 315.398125 
L 189.933431 315.398125 
L 189.933431 191.020039 
L 183.847022 191.020039 
z
" clip-path="url(#p46de5dce34)" style="fill: #4682b4; opacity: 0.7; stroke: #ffffff; stroke-linejoin: miter"/>
   </g>
   <g id="patch_16">
    <path d="M 189.933431 315.398125 
L 196.019839 315.398125 
L 196.019839 212.341996 
L 189.933431 212.341996 
z
" clip-path="url(#p46de5dce34)" style="fill: #4682b4; opacity: 0.7; stroke: #ffffff; stroke-linejoin: miter"/>
   </g>
   <g id="patch_17">
    <path d="M 196.019839 315.398125 
L 202.106247 315.398125 
L 202.106247 230.433354 
L 196.019839 230.433354 
z
" clip-path="url(#p46de5dce34)" style="fill: #4682b4; opacity: 0.7; stroke: #ffffff; stroke-linejoin: miter"/>
   </g>
   <g id="patch_18">
    <path d="M 202.106247 315.398125 
L 208.192655 315.398125 
L 208.192655 242.225043 
L 202.106247 242.225043 
z
" clip-path="url(#p46de5dce34)" style="fill: #4682b4; opacity: 0.7; stroke: #ffffff; stroke-linejoin: miter"/>
   </g>
   <g id="patch_19">
    <path d="M 208.192655 315.398125 
L 214.279064 315.398125 
L 214.279064 254.178262 
L 208.192655 254.178262 
z
" clip-path="url(#p46de5dce34)" style="fill: #4682b4; opacity: 0.7; stroke: #ffffff; stroke-linejoin: miter"/>
   </g>
   <g id="patch_20">
    <path d="M 214.279064 315.398125 
L 220.365472 315.398125 
L 220.365472 266.29301 
L 214.279064 266.29301 
z
" clip-path="url(#p46de5dce34)" style="fill: #4682b4; opacity: 0.7; stroke: #ffffff; stroke-linejoin: miter"/>
   </g>
   <g id="patch_21">
    <path d="M 220.365472 315.398125 
L 226.45188 315.398125 
L 226.45188 172.444091 
L 220.365472 172.444091 
z
" clip-path="url(#p46de5dce34)" style="fill: #4682b4; opacity: 0.7; stroke: #ffffff; stroke-linejoin: miter"/>
   </g>
   <g id="patch_22">
    <path d="M 226.45188 315.398125 
L 232.538289 315.398125 
L 232.538289 95.071229 
L 226.45188 95.071229 
z
" clip-path="url(#p46de5dce34)" style="fill: #4682b4; opacity: 0.7; stroke: #ffffff; stroke-linejoin: miter"/>
   </g>
   <g id="patch_23">
    <path d="M 232.538289 315.398125 
L 238.624697 315.398125 
L 238.624697 159.521692 
L 232.538289 159.521692 
z
" clip-path="url(#p46de5dce34)" style="fill: #4682b4; opacity: 0.7; stroke: #ffffff; stroke-linejoin: miter"/>
   </g>
   <g id="patch_24">
    <path d="M 238.624697 315.398125 
L 244.711105 315.398125 
L 244.711105 193.604518 
L 238.624697 193.604518 
z
" clip-path="url(#p46de5dce34)" style="fill: #4682b4; opacity: 0.7; stroke: #ffffff; stroke-linejoin: miter"/>
   </g>
   <g id="patch_25">
    <path d="M 244.711105 315.398125 
L 250.797514 315.398125 
L 250.797514 222.033795 
L 244.711105 222.033795 
z
" clip-path="url(#p46de5dce34)" style="fill: #4682b4; opacity: 0.7; stroke: #ffffff; stroke-linejoin: miter"/>
   </g>
   <g id="patch_26">
    <path d="M 250.797514 315.398125 
L 256.883922 315.398125 
L 256.883922 240.448213 
L 250.797514 240.448213 
z
" clip-path="url(#p46de5dce34)" style="fill: #4682b4; opacity: 0.7; stroke: #ffffff; stroke-linejoin: miter"/>
   </g>
   <g id="patch_27">
    <path d="M 256.883922 315.398125 
L 262.97033 315.398125 
L 262.97033 249.009302 
L 256.883922 249.009302 
z
" clip-path="url(#p46de5dce34)" style="fill: #4682b4; opacity: 0.7; stroke: #ffffff; stroke-linejoin: miter"/>
   </g>
   <g id="patch_28">
    <path d="M 262.97033 315.398125 
L 269.056738 315.398125 
L 269.056738 259.993341 
L 262.97033 259.993341 
z
" clip-path="url(#p46de5dce34)" style="fill: #4682b4; opacity: 0.7; stroke: #ffffff; stroke-linejoin: miter"/>
   </g>
   <g id="patch_29">
    <path d="M 269.056738 315.398125 
L 275.143147 315.398125 
L 275.143147 261.770171 
L 269.056738 261.770171 
z
" clip-path="url(#p46de5dce34)" style="fill: #4682b4; opacity: 0.7; stroke: #ffffff; stroke-linejoin: miter"/>
   </g>
   <g id="patch_30">
    <path d="M 275.143147 315.398125 
L 281.229555 315.398125 
L 281.229555 273.07727 
L 275.143147 273.07727 
z
" clip-path="url(#p46de5dce34)" style="fill: #4682b4; opacity: 0.7; stroke: #ffffff; stroke-linejoin: miter"/>
   </g>
   <g id="patch_31">
    <path d="M 281.229555 315.398125 
L 287.315963 315.398125 
L 287.315963 277.277049 
L 281.229555 277.277049 
z
" clip-path="url(#p46de5dce34)" style="fill: #4682b4; opacity: 0.7; stroke: #ffffff; stroke-linejoin: miter"/>
   </g>
   <g id="patch_32">
    <path d="M 287.315963 315.398125 
L 293.402372 315.398125 
L 293.402372 281.315299 
L 287.315963 281.315299 
z
" clip-path="url(#p46de5dce34)" style="fill: #4682b4; opacity: 0.7; stroke: #ffffff; stroke-linejoin: miter"/>
   </g>
   <g id="patch_33">
    <path d="M 293.402372 315.398125 
L 299.48878 315.398125 
L 299.48878 284.545898 
L 293.402372 284.545898 
z
" clip-path="url(#p46de5dce34)" style="fill: #4682b4; opacity: 0.7; stroke: #ffffff; stroke-linejoin: miter"/>
   </g>
   <g id="patch_34">
    <path d="M 299.48878 315.398125 
L 305.575188 315.398125 
L 305.575188 291.491688 
L 299.48878 291.491688 
z
" clip-path="url(#p46de5dce34)" style="fill: #4682b4; opacity: 0.7; stroke: #ffffff; stroke-linejoin: miter"/>
   </g>
   <g id="patch_35">
    <path d="M 305.575188 315.398125 
L 311.661596 315.398125 
L 311.661596 291.168628 
L 305.575188 291.168628 
z
" clip-path="url(#p46de5dce34)" style="fill: #4682b4; opacity: 0.7; stroke: #ffffff; stroke-linejoin: miter"/>
   </g>
   <g id="patch_36">
    <path d="M 311.661596 315.398125 
L 317.748005 315.398125 
L 317.748005 295.045347 
L 311.661596 295.045347 
z
" clip-path="url(#p46de5dce34)" style="fill: #4682b4; opacity: 0.7; stroke: #ffffff; stroke-linejoin: miter"/>
   </g>
   <g id="patch_37">
    <path d="M 317.748005 315.398125 
L 323.834413 315.398125 
L 323.834413 297.468297 
L 317.748005 297.468297 
z
" clip-path="url(#p46de5dce34)" style="fill: #4682b4; opacity: 0.7; stroke: #ffffff; stroke-linejoin: miter"/>
   </g>
   <g id="patch_38">
    <path d="M 323.834413 315.398125 
L 329.920821 315.398125 
L 329.920821 296.176057 
L 323.834413 296.176057 
z
" clip-path="url(#p46de5dce34)" style="fill: #4682b4; opacity: 0.7; stroke: #ffffff; stroke-linejoin: miter"/>
   </g>
   <g id="patch_39">
    <path d="M 329.920821 315.398125 
L 336.00723 315.398125 
L 336.00723 299.729717 
L 329.920821 299.729717 
z
" clip-path="url(#p46de5dce34)" style="fill: #4682b4; opacity: 0.7; stroke: #ffffff; stroke-linejoin: miter"/>
   </g>
   <g id="patch_40">
    <path d="M 336.00723 315.398125 
L 342.093638 315.398125 
L 342.093638 297.145237 
L 336.00723 297.145237 
z
" clip-path="url(#p46de5dce34)" style="fill: #4682b4; opacity: 0.7; stroke: #ffffff; stroke-linejoin: miter"/>
   </g>
   <g id="patch_41">
    <path d="M 342.093638 315.398125 
L 348.180046 315.398125 
L 348.180046 301.183487 
L 342.093638 301.183487 
z
" clip-path="url(#p46de5dce34)" style="fill: #4682b4; opacity: 0.7; stroke: #ffffff; stroke-linejoin: miter"/>
   </g>
   <g id="patch_42">
    <path d="M 348.180046 315.398125 
L 354.266454 315.398125 
L 354.266454 303.767966 
L 348.180046 303.767966 
z
" clip-path="url(#p46de5dce34)" style="fill: #4682b4; opacity: 0.7; stroke: #ffffff; stroke-linejoin: miter"/>
   </g>
   <g id="patch_43">
    <path d="M 354.266454 315.398125 
L 360.352863 315.398125 
L 360.352863 300.214307 
L 354.266454 300.214307 
z
" clip-path="url(#p46de5dce34)" style="fill: #4682b4; opacity: 0.7; stroke: #ffffff; stroke-linejoin: miter"/>
   </g>
   <g id="patch_44">
    <path d="M 360.352863 315.398125 
L 366.439271 315.398125 
L 366.439271 299.891247 
L 360.352863 299.891247 
z
" clip-path="url(#p46de5dce34)" style="fill: #4682b4; opacity: 0.7; stroke: #ffffff; stroke-linejoin: miter"/>
   </g>
   <g id="patch_45">
    <path d="M 366.439271 315.398125 
L 372.525679 315.398125 
L 372.525679 304.737146 
L 366.439271 304.737146 
z
" clip-path="url(#p46de5dce34)" style="fill: #4682b4; opacity: 0.7; stroke: #ffffff; stroke-linejoin: miter"/>
   </g>
   <g id="patch_46">
    <path d="M 372.525679 315.398125 
L 378.612088 315.398125 
L 378.612088 306.513976 
L 372.525679 306.513976 
z
" clip-path="url(#p46de5dce34)" style="fill: #4682b4; opacity: 0.7; stroke: #ffffff; stroke-linejoin: miter"/>
   </g>
   <g id="patch_47">
    <path d="M 378.612088 315.398125 
L 384.698496 315.398125 
L 384.698496 304.737146 
L 378.612088 304.737146 
z
" clip-path="url(#p46de5dce34)" style="fill: #4682b4; opacity: 0.7; stroke: #ffffff; stroke-linejoin: miter"/>
   </g>
   <g id="patch_48">
    <path d="M 384.698496 315.398125 
L 390.784904 315.398125 
L 390.784904 301.829606 
L 384.698496 301.829606 
z
" clip-path="url(#p46de5dce34)" style="fill: #4682b4; opacity: 0.7; stroke: #ffffff; stroke-linejoin: miter"/>
   </g>
   <g id="patch_49">
    <path d="M 390.784904 315.398125 
L 396.871313 315.398125 
L 396.871313 304.252556 
L 390.784904 304.252556 
z
" clip-path="url(#p46de5dce34)" style="fill: #4682b4; opacity: 0.7; stroke: #ffffff; stroke-linejoin: miter"/>
   </g>
   <g id="patch_50">
    <path d="M 396.871313 315.398125 
L 402.957721 315.398125 
L 402.957721 304.091026 
L 396.871313 304.091026 
z
" clip-path="url(#p46de5dce34)" style="fill: #4682b4; opacity: 0.7; stroke: #ffffff; stroke-linejoin: miter"/>
   </g>
   <g id="patch_51">
    <path d="M 402.957721 315.398125 
L 409.044129 315.398125 
L 409.044129 301.668076 
L 402.957721 301.668076 
z
" clip-path="url(#p46de5dce34)" style="fill: #4682b4; opacity: 0.7; stroke: #ffffff; stroke-linejoin: miter"/>
   </g>
   <g id="patch_52">
    <path d="M 409.044129 315.398125 
L 415.130537 315.398125 
L 415.130537 293.753107 
L 409.044129 293.753107 
z
" clip-path="url(#p46de5dce34)" style="fill: #4682b4; opacity: 0.7; stroke: #ffffff; stroke-linejoin: miter"/>
   </g>
   <g id="matplotlib.axis_1">
    <g id="xtick_1">
     <g id="line2d_1">
      <defs>
       <path id="mfb3932b963" d="M 0 0 
L 0 3.5 
" style="stroke: #000000; stroke-width: 0.8"/>
      </defs>
      <g>
       <use xlink:href="#mfb3932b963" x="34.240625" y="315.398125" style="stroke: #000000; stroke-width: 0.8"/>
      </g>
     </g>
     <g id="text_1">
      <!-- 0.0 -->
      <g transform="translate(26.289063 329.996562) scale(0.1 -0.1)">
       <defs>
        <path id="DejaVuSans-30" d="M 2034 4250 
Q 1547 4250 1301 3770 
Q 1056 3291 1056 2328 
Q 1056 1369 1301 889 
Q 1547 409 2034 409 
Q 2525 409 2770 889 
Q 3016 1369 3016 2328 
Q 3016 3291 2770 3770 
Q 2525 4250 2034 4250 
z
M 2034 4750 
Q 2819 4750 3233 4129 
Q 3647 3509 3647 2328 
Q 3647 1150 3233 529 
Q 2819 -91 2034 -91 
Q 1250 -91 836 529 
Q 422 1150 422 2328 
Q 422 3509 836 4129 
Q 1250 4750 2034 4750 
z
" transform="scale(0.015625)"/>
        <path id="DejaVuSans-2e" d="M 684 794 
L 1344 794 
L 1344 0 
L 684 0 
L 684 794 
z
" transform="scale(0.015625)"/>
       </defs>
       <use xlink:href="#DejaVuSans-30"/>
       <use xlink:href="#DejaVuSans-2e" transform="translate(63.623047 0)"/>
       <use xlink:href="#DejaVuSans-30" transform="translate(95.410156 0)"/>
      </g>
     </g>
    </g>
    <g id="xtick_2">
     <g id="line2d_2">
      <g>
       <use xlink:href="#mfb3932b963" x="110.418625" y="315.398125" style="stroke: #000000; stroke-width: 0.8"/>
      </g>
     </g>
     <g id="text_2">
      <!-- 0.2 -->
      <g transform="translate(102.467063 329.996562) scale(0.1 -0.1)">
       <defs>
        <path id="DejaVuSans-32" d="M 1228 531 
L 3431 531 
L 3431 0 
L 469 0 
L 469 531 
Q 828 903 1448 1529 
Q 2069 2156 2228 2338 
Q 2531 2678 2651 2914 
Q 2772 3150 2772 3378 
Q 2772 3750 2511 3984 
Q 2250 4219 1831 4219 
Q 1534 4219 1204 4116 
Q 875 4013 500 3803 
L 500 4441 
Q 881 4594 1212 4672 
Q 1544 4750 1819 4750 
Q 2544 4750 2975 4387 
Q 3406 4025 3406 3419 
Q 3406 3131 3298 2873 
Q 3191 2616 2906 2266 
Q 2828 2175 2409 1742 
Q 1991 1309 1228 531 
z
" transform="scale(0.015625)"/>
       </defs>
       <use xlink:href="#DejaVuSans-30"/>
       <use xlink:href="#DejaVuSans-2e" transform="translate(63.623047 0)"/>
       <use xlink:href="#DejaVuSans-32" transform="translate(95.410156 0)"/>
      </g>
     </g>
    </g>
    <g id="xtick_3">
     <g id="line2d_3">
      <g>
       <use xlink:href="#mfb3932b963" x="186.596625" y="315.398125" style="stroke: #000000; stroke-width: 0.8"/>
      </g>
     </g>
     <g id="text_3">
      <!-- 0.4 -->
      <g transform="translate(178.645063 329.996562) scale(0.1 -0.1)">
       <defs>
        <path id="DejaVuSans-34" d="M 2419 4116 
L 825 1625 
L 2419 1625 
L 2419 4116 
z
M 2253 4666 
L 3047 4666 
L 3047 1625 
L 3713 1625 
L 3713 1100 
L 3047 1100 
L 3047 0 
L 2419 0 
L 2419 1100 
L 313 1100 
L 313 1709 
L 2253 4666 
z
" transform="scale(0.015625)"/>
       </defs>
       <use xlink:href="#DejaVuSans-30"/>
       <use xlink:href="#DejaVuSans-2e" transform="translate(63.623047 0)"/>
       <use xlink:href="#DejaVuSans-34" transform="translate(95.410156 0)"/>
      </g>
     </g>
    </g>
    <g id="xtick_4">
     <g id="line2d_4">
      <g>
       <use xlink:href="#mfb3932b963" x="262.774625" y="315.398125" style="stroke: #000000; stroke-width: 0.8"/>
      </g>
     </g>
     <g id="text_4">
      <!-- 0.6 -->
      <g transform="translate(254.823063 329.996562) scale(0.1 -0.1)">
       <defs>
        <path id="DejaVuSans-36" d="M 2113 2584 
Q 1688 2584 1439 2293 
Q 1191 2003 1191 1497 
Q 1191 994 1439 701 
Q 1688 409 2113 409 
Q 2538 409 2786 701 
Q 3034 994 3034 1497 
Q 3034 2003 2786 2293 
Q 2538 2584 2113 2584 
z
M 3366 4563 
L 3366 3988 
Q 3128 4100 2886 4159 
Q 2644 4219 2406 4219 
Q 1781 4219 1451 3797 
Q 1122 3375 1075 2522 
Q 1259 2794 1537 2939 
Q 1816 3084 2150 3084 
Q 2853 3084 3261 2657 
Q 3669 2231 3669 1497 
Q 3669 778 3244 343 
Q 2819 -91 2113 -91 
Q 1303 -91 875 529 
Q 447 1150 447 2328 
Q 447 3434 972 4092 
Q 1497 4750 2381 4750 
Q 2619 4750 2861 4703 
Q 3103 4656 3366 4563 
z
" transform="scale(0.015625)"/>
       </defs>
       <use xlink:href="#DejaVuSans-30"/>
       <use xlink:href="#DejaVuSans-2e" transform="translate(63.623047 0)"/>
       <use xlink:href="#DejaVuSans-36" transform="translate(95.410156 0)"/>
      </g>
     </g>
    </g>
    <g id="xtick_5">
     <g id="line2d_5">
      <g>
       <use xlink:href="#mfb3932b963" x="338.952625" y="315.398125" style="stroke: #000000; stroke-width: 0.8"/>
      </g>
     </g>
     <g id="text_5">
      <!-- 0.8 -->
      <g transform="translate(331.001062 329.996562) scale(0.1 -0.1)">
       <defs>
        <path id="DejaVuSans-38" d="M 2034 2216 
Q 1584 2216 1326 1975 
Q 1069 1734 1069 1313 
Q 1069 891 1326 650 
Q 1584 409 2034 409 
Q 2484 409 2743 651 
Q 3003 894 3003 1313 
Q 3003 1734 2745 1975 
Q 2488 2216 2034 2216 
z
M 1403 2484 
Q 997 2584 770 2862 
Q 544 3141 544 3541 
Q 544 4100 942 4425 
Q 1341 4750 2034 4750 
Q 2731 4750 3128 4425 
Q 3525 4100 3525 3541 
Q 3525 3141 3298 2862 
Q 3072 2584 2669 2484 
Q 3125 2378 3379 2068 
Q 3634 1759 3634 1313 
Q 3634 634 3220 271 
Q 2806 -91 2034 -91 
Q 1263 -91 848 271 
Q 434 634 434 1313 
Q 434 1759 690 2068 
Q 947 2378 1403 2484 
z
M 1172 3481 
Q 1172 3119 1398 2916 
Q 1625 2713 2034 2713 
Q 2441 2713 2670 2916 
Q 2900 3119 2900 3481 
Q 2900 3844 2670 4047 
Q 2441 4250 2034 4250 
Q 1625 4250 1398 4047 
Q 1172 3844 1172 3481 
z
" transform="scale(0.015625)"/>
       </defs>
       <use xlink:href="#DejaVuSans-30"/>
       <use xlink:href="#DejaVuSans-2e" transform="translate(63.623047 0)"/>
       <use xlink:href="#DejaVuSans-38" transform="translate(95.410156 0)"/>
      </g>
     </g>
    </g>
    <g id="xtick_6">
     <g id="line2d_6">
      <g>
       <use xlink:href="#mfb3932b963" x="415.130625" y="315.398125" style="stroke: #000000; stroke-width: 0.8"/>
      </g>
     </g>
     <g id="text_6">
      <!-- 1.0 -->
      <g transform="translate(407.179062 329.996562) scale(0.1 -0.1)">
       <defs>
        <path id="DejaVuSans-31" d="M 794 531 
L 1825 531 
L 1825 4091 
L 703 3866 
L 703 4441 
L 1819 4666 
L 2450 4666 
L 2450 531 
L 3481 531 
L 3481 0 
L 794 0 
L 794 531 
z
" transform="scale(0.015625)"/>
       </defs>
       <use xlink:href="#DejaVuSans-31"/>
       <use xlink:href="#DejaVuSans-2e" transform="translate(63.623047 0)"/>
       <use xlink:href="#DejaVuSans-30" transform="translate(95.410156 0)"/>
      </g>
     </g>
    </g>
    <g id="text_7">
     <!-- Maximum Choice Probability -->
     <g transform="translate(153.508281 343.674687) scale(0.1 -0.1)">
      <defs>
       <path id="DejaVuSans-4d" d="M 628 4666 
L 1569 4666 
L 2759 1491 
L 3956 4666 
L 4897 4666 
L 4897 0 
L 4281 0 
L 4281 4097 
L 3078 897 
L 2444 897 
L 1241 4097 
L 1241 0 
L 628 0 
L 628 4666 
z
" transform="scale(0.015625)"/>
       <path id="DejaVuSans-61" d="M 2194 1759 
Q 1497 1759 1228 1600 
Q 959 1441 959 1056 
Q 959 750 1161 570 
Q 1363 391 1709 391 
Q 2188 391 2477 730 
Q 2766 1069 2766 1631 
L 2766 1759 
L 2194 1759 
z
M 3341 1997 
L 3341 0 
L 2766 0 
L 2766 531 
Q 2569 213 2275 61 
Q 1981 -91 1556 -91 
Q 1019 -91 701 211 
Q 384 513 384 1019 
Q 384 1609 779 1909 
Q 1175 2209 1959 2209 
L 2766 2209 
L 2766 2266 
Q 2766 2663 2505 2880 
Q 2244 3097 1772 3097 
Q 1472 3097 1187 3025 
Q 903 2953 641 2809 
L 641 3341 
Q 956 3463 1253 3523 
Q 1550 3584 1831 3584 
Q 2591 3584 2966 3190 
Q 3341 2797 3341 1997 
z
" transform="scale(0.015625)"/>
       <path id="DejaVuSans-78" d="M 3513 3500 
L 2247 1797 
L 3578 0 
L 2900 0 
L 1881 1375 
L 863 0 
L 184 0 
L 1544 1831 
L 300 3500 
L 978 3500 
L 1906 2253 
L 2834 3500 
L 3513 3500 
z
" transform="scale(0.015625)"/>
       <path id="DejaVuSans-69" d="M 603 3500 
L 1178 3500 
L 1178 0 
L 603 0 
L 603 3500 
z
M 603 4863 
L 1178 4863 
L 1178 4134 
L 603 4134 
L 603 4863 
z
" transform="scale(0.015625)"/>
       <path id="DejaVuSans-6d" d="M 3328 2828 
Q 3544 3216 3844 3400 
Q 4144 3584 4550 3584 
Q 5097 3584 5394 3201 
Q 5691 2819 5691 2113 
L 5691 0 
L 5113 0 
L 5113 2094 
Q 5113 2597 4934 2840 
Q 4756 3084 4391 3084 
Q 3944 3084 3684 2787 
Q 3425 2491 3425 1978 
L 3425 0 
L 2847 0 
L 2847 2094 
Q 2847 2600 2669 2842 
Q 2491 3084 2119 3084 
Q 1678 3084 1418 2786 
Q 1159 2488 1159 1978 
L 1159 0 
L 581 0 
L 581 3500 
L 1159 3500 
L 1159 2956 
Q 1356 3278 1631 3431 
Q 1906 3584 2284 3584 
Q 2666 3584 2933 3390 
Q 3200 3197 3328 2828 
z
" transform="scale(0.015625)"/>
       <path id="DejaVuSans-75" d="M 544 1381 
L 544 3500 
L 1119 3500 
L 1119 1403 
Q 1119 906 1312 657 
Q 1506 409 1894 409 
Q 2359 409 2629 706 
Q 2900 1003 2900 1516 
L 2900 3500 
L 3475 3500 
L 3475 0 
L 2900 0 
L 2900 538 
Q 2691 219 2414 64 
Q 2138 -91 1772 -91 
Q 1169 -91 856 284 
Q 544 659 544 1381 
z
M 1991 3584 
L 1991 3584 
z
" transform="scale(0.015625)"/>
       <path id="DejaVuSans-20" transform="scale(0.015625)"/>
       <path id="DejaVuSans-43" d="M 4122 4306 
L 4122 3641 
Q 3803 3938 3442 4084 
Q 3081 4231 2675 4231 
Q 1875 4231 1450 3742 
Q 1025 3253 1025 2328 
Q 1025 1406 1450 917 
Q 1875 428 2675 428 
Q 3081 428 3442 575 
Q 3803 722 4122 1019 
L 4122 359 
Q 3791 134 3420 21 
Q 3050 -91 2638 -91 
Q 1578 -91 968 557 
Q 359 1206 359 2328 
Q 359 3453 968 4101 
Q 1578 4750 2638 4750 
Q 3056 4750 3426 4639 
Q 3797 4528 4122 4306 
z
" transform="scale(0.015625)"/>
       <path id="DejaVuSans-68" d="M 3513 2113 
L 3513 0 
L 2938 0 
L 2938 2094 
Q 2938 2591 2744 2837 
Q 2550 3084 2163 3084 
Q 1697 3084 1428 2787 
Q 1159 2491 1159 1978 
L 1159 0 
L 581 0 
L 581 4863 
L 1159 4863 
L 1159 2956 
Q 1366 3272 1645 3428 
Q 1925 3584 2291 3584 
Q 2894 3584 3203 3211 
Q 3513 2838 3513 2113 
z
" transform="scale(0.015625)"/>
       <path id="DejaVuSans-6f" d="M 1959 3097 
Q 1497 3097 1228 2736 
Q 959 2375 959 1747 
Q 959 1119 1226 758 
Q 1494 397 1959 397 
Q 2419 397 2687 759 
Q 2956 1122 2956 1747 
Q 2956 2369 2687 2733 
Q 2419 3097 1959 3097 
z
M 1959 3584 
Q 2709 3584 3137 3096 
Q 3566 2609 3566 1747 
Q 3566 888 3137 398 
Q 2709 -91 1959 -91 
Q 1206 -91 779 398 
Q 353 888 353 1747 
Q 353 2609 779 3096 
Q 1206 3584 1959 3584 
z
" transform="scale(0.015625)"/>
       <path id="DejaVuSans-63" d="M 3122 3366 
L 3122 2828 
Q 2878 2963 2633 3030 
Q 2388 3097 2138 3097 
Q 1578 3097 1268 2742 
Q 959 2388 959 1747 
Q 959 1106 1268 751 
Q 1578 397 2138 397 
Q 2388 397 2633 464 
Q 2878 531 3122 666 
L 3122 134 
Q 2881 22 2623 -34 
Q 2366 -91 2075 -91 
Q 1284 -91 818 406 
Q 353 903 353 1747 
Q 353 2603 823 3093 
Q 1294 3584 2113 3584 
Q 2378 3584 2631 3529 
Q 2884 3475 3122 3366 
z
" transform="scale(0.015625)"/>
       <path id="DejaVuSans-65" d="M 3597 1894 
L 3597 1613 
L 953 1613 
Q 991 1019 1311 708 
Q 1631 397 2203 397 
Q 2534 397 2845 478 
Q 3156 559 3463 722 
L 3463 178 
Q 3153 47 2828 -22 
Q 2503 -91 2169 -91 
Q 1331 -91 842 396 
Q 353 884 353 1716 
Q 353 2575 817 3079 
Q 1281 3584 2069 3584 
Q 2775 3584 3186 3129 
Q 3597 2675 3597 1894 
z
M 3022 2063 
Q 3016 2534 2758 2815 
Q 2500 3097 2075 3097 
Q 1594 3097 1305 2825 
Q 1016 2553 972 2059 
L 3022 2063 
z
" transform="scale(0.015625)"/>
       <path id="DejaVuSans-50" d="M 1259 4147 
L 1259 2394 
L 2053 2394 
Q 2494 2394 2734 2622 
Q 2975 2850 2975 3272 
Q 2975 3691 2734 3919 
Q 2494 4147 2053 4147 
L 1259 4147 
z
M 628 4666 
L 2053 4666 
Q 2838 4666 3239 4311 
Q 3641 3956 3641 3272 
Q 3641 2581 3239 2228 
Q 2838 1875 2053 1875 
L 1259 1875 
L 1259 0 
L 628 0 
L 628 4666 
z
" transform="scale(0.015625)"/>
       <path id="DejaVuSans-72" d="M 2631 2963 
Q 2534 3019 2420 3045 
Q 2306 3072 2169 3072 
Q 1681 3072 1420 2755 
Q 1159 2438 1159 1844 
L 1159 0 
L 581 0 
L 581 3500 
L 1159 3500 
L 1159 2956 
Q 1341 3275 1631 3429 
Q 1922 3584 2338 3584 
Q 2397 3584 2469 3576 
Q 2541 3569 2628 3553 
L 2631 2963 
z
" transform="scale(0.015625)"/>
       <path id="DejaVuSans-62" d="M 3116 1747 
Q 3116 2381 2855 2742 
Q 2594 3103 2138 3103 
Q 1681 3103 1420 2742 
Q 1159 2381 1159 1747 
Q 1159 1113 1420 752 
Q 1681 391 2138 391 
Q 2594 391 2855 752 
Q 3116 1113 3116 1747 
z
M 1159 2969 
Q 1341 3281 1617 3432 
Q 1894 3584 2278 3584 
Q 2916 3584 3314 3078 
Q 3713 2572 3713 1747 
Q 3713 922 3314 415 
Q 2916 -91 2278 -91 
Q 1894 -91 1617 61 
Q 1341 213 1159 525 
L 1159 0 
L 581 0 
L 581 4863 
L 1159 4863 
L 1159 2969 
z
" transform="scale(0.015625)"/>
       <path id="DejaVuSans-6c" d="M 603 4863 
L 1178 4863 
L 1178 0 
L 603 0 
L 603 4863 
z
" transform="scale(0.015625)"/>
       <path id="DejaVuSans-74" d="M 1172 4494 
L 1172 3500 
L 2356 3500 
L 2356 3053 
L 1172 3053 
L 1172 1153 
Q 1172 725 1289 603 
Q 1406 481 1766 481 
L 2356 481 
L 2356 0 
L 1766 0 
Q 1100 0 847 248 
Q 594 497 594 1153 
L 594 3053 
L 172 3053 
L 172 3500 
L 594 3500 
L 594 4494 
L 1172 4494 
z
" transform="scale(0.015625)"/>
       <path id="DejaVuSans-79" d="M 2059 -325 
Q 1816 -950 1584 -1140 
Q 1353 -1331 966 -1331 
L 506 -1331 
L 506 -850 
L 844 -850 
Q 1081 -850 1212 -737 
Q 1344 -625 1503 -206 
L 1606 56 
L 191 3500 
L 800 3500 
L 1894 763 
L 2988 3500 
L 3597 3500 
L 2059 -325 
z
" transform="scale(0.015625)"/>
      </defs>
      <use xlink:href="#DejaVuSans-4d"/>
      <use xlink:href="#DejaVuSans-61" transform="translate(86.279297 0)"/>
      <use xlink:href="#DejaVuSans-78" transform="translate(147.558594 0)"/>
      <use xlink:href="#DejaVuSans-69" transform="translate(206.738281 0)"/>
      <use xlink:href="#DejaVuSans-6d" transform="translate(234.521484 0)"/>
      <use xlink:href="#DejaVuSans-75" transform="translate(331.933594 0)"/>
      <use xlink:href="#DejaVuSans-6d" transform="translate(395.3125 0)"/>
      <use xlink:href="#DejaVuSans-20" transform="translate(492.724609 0)"/>
      <use xlink:href="#DejaVuSans-43" transform="translate(524.511719 0)"/>
      <use xlink:href="#DejaVuSans-68" transform="translate(594.335938 0)"/>
      <use xlink:href="#DejaVuSans-6f" transform="translate(657.714844 0)"/>
      <use xlink:href="#DejaVuSans-69" transform="translate(718.896484 0)"/>
      <use xlink:href="#DejaVuSans-63" transform="translate(746.679688 0)"/>
      <use xlink:href="#DejaVuSans-65" transform="translate(801.660156 0)"/>
      <use xlink:href="#DejaVuSans-20" transform="translate(863.183594 0)"/>
      <use xlink:href="#DejaVuSans-50" transform="translate(894.970703 0)"/>
      <use xlink:href="#DejaVuSans-72" transform="translate(953.523438 0)"/>
      <use xlink:href="#DejaVuSans-6f" transform="translate(992.386719 0)"/>
      <use xlink:href="#DejaVuSans-62" transform="translate(1053.568359 0)"/>
      <use xlink:href="#DejaVuSans-61" transform="translate(1117.044922 0)"/>
      <use xlink:href="#DejaVuSans-62" transform="translate(1178.324219 0)"/>
      <use xlink:href="#DejaVuSans-69" transform="translate(1241.800781 0)"/>
      <use xlink:href="#DejaVuSans-6c" transform="translate(1269.583984 0)"/>
      <use xlink:href="#DejaVuSans-69" transform="translate(1297.367188 0)"/>
      <use xlink:href="#DejaVuSans-74" transform="translate(1325.150391 0)"/>
      <use xlink:href="#DejaVuSans-79" transform="translate(1364.359375 0)"/>
     </g>
    </g>
   </g>
   <g id="matplotlib.axis_2">
    <g id="ytick_1">
     <g id="line2d_7">
      <defs>
       <path id="m4e596303b0" d="M 0 0 
L -3.5 0 
" style="stroke: #000000; stroke-width: 0.8"/>
      </defs>
      <g>
       <use xlink:href="#m4e596303b0" x="34.240625" y="315.398125" style="stroke: #000000; stroke-width: 0.8"/>
      </g>
     </g>
     <g id="text_8">
      <!-- 0 -->
      <g transform="translate(20.878125 319.197344) scale(0.1 -0.1)">
       <use xlink:href="#DejaVuSans-30"/>
      </g>
     </g>
    </g>
    <g id="ytick_2">
     <g id="line2d_8">
      <g>
       <use xlink:href="#m4e596303b0" x="34.240625" y="250.869165" style="stroke: #000000; stroke-width: 0.8"/>
      </g>
     </g>
     <g id="text_9">
      <!-- 1 -->
      <g transform="translate(20.878125 254.668384) scale(0.1 -0.1)">
       <use xlink:href="#DejaVuSans-31"/>
      </g>
     </g>
    </g>
    <g id="ytick_3">
     <g id="line2d_9">
      <g>
       <use xlink:href="#m4e596303b0" x="34.240625" y="186.340205" style="stroke: #000000; stroke-width: 0.8"/>
      </g>
     </g>
     <g id="text_10">
      <!-- 2 -->
      <g transform="translate(20.878125 190.139424) scale(0.1 -0.1)">
       <use xlink:href="#DejaVuSans-32"/>
      </g>
     </g>
    </g>
    <g id="ytick_4">
     <g id="line2d_10">
      <g>
       <use xlink:href="#m4e596303b0" x="34.240625" y="121.811245" style="stroke: #000000; stroke-width: 0.8"/>
      </g>
     </g>
     <g id="text_11">
      <!-- 3 -->
      <g transform="translate(20.878125 125.610464) scale(0.1 -0.1)">
       <defs>
        <path id="DejaVuSans-33" d="M 2597 2516 
Q 3050 2419 3304 2112 
Q 3559 1806 3559 1356 
Q 3559 666 3084 287 
Q 2609 -91 1734 -91 
Q 1441 -91 1130 -33 
Q 819 25 488 141 
L 488 750 
Q 750 597 1062 519 
Q 1375 441 1716 441 
Q 2309 441 2620 675 
Q 2931 909 2931 1356 
Q 2931 1769 2642 2001 
Q 2353 2234 1838 2234 
L 1294 2234 
L 1294 2753 
L 1863 2753 
Q 2328 2753 2575 2939 
Q 2822 3125 2822 3475 
Q 2822 3834 2567 4026 
Q 2313 4219 1838 4219 
Q 1578 4219 1281 4162 
Q 984 4106 628 3988 
L 628 4550 
Q 988 4650 1302 4700 
Q 1616 4750 1894 4750 
Q 2613 4750 3031 4423 
Q 3450 4097 3450 3541 
Q 3450 3153 3228 2886 
Q 3006 2619 2597 2516 
z
" transform="scale(0.015625)"/>
       </defs>
       <use xlink:href="#DejaVuSans-33"/>
      </g>
     </g>
    </g>
    <g id="ytick_5">
     <g id="line2d_11">
      <g>
       <use xlink:href="#m4e596303b0" x="34.240625" y="57.282285" style="stroke: #000000; stroke-width: 0.8"/>
      </g>
     </g>
     <g id="text_12">
      <!-- 4 -->
      <g transform="translate(20.878125 61.081503) scale(0.1 -0.1)">
       <use xlink:href="#DejaVuSans-34"/>
      </g>
     </g>
    </g>
    <g id="text_13">
     <!-- Density -->
     <g transform="translate(14.798438 187.866719) rotate(-90) scale(0.1 -0.1)">
      <defs>
       <path id="DejaVuSans-44" d="M 1259 4147 
L 1259 519 
L 2022 519 
Q 2988 519 3436 956 
Q 3884 1394 3884 2338 
Q 3884 3275 3436 3711 
Q 2988 4147 2022 4147 
L 1259 4147 
z
M 628 4666 
L 1925 4666 
Q 3281 4666 3915 4102 
Q 4550 3538 4550 2338 
Q 4550 1131 3912 565 
Q 3275 0 1925 0 
L 628 0 
L 628 4666 
z
" transform="scale(0.015625)"/>
       <path id="DejaVuSans-6e" d="M 3513 2113 
L 3513 0 
L 2938 0 
L 2938 2094 
Q 2938 2591 2744 2837 
Q 2550 3084 2163 3084 
Q 1697 3084 1428 2787 
Q 1159 2491 1159 1978 
L 1159 0 
L 581 0 
L 581 3500 
L 1159 3500 
L 1159 2956 
Q 1366 3272 1645 3428 
Q 1925 3584 2291 3584 
Q 2894 3584 3203 3211 
Q 3513 2838 3513 2113 
z
" transform="scale(0.015625)"/>
       <path id="DejaVuSans-73" d="M 2834 3397 
L 2834 2853 
Q 2591 2978 2328 3040 
Q 2066 3103 1784 3103 
Q 1356 3103 1142 2972 
Q 928 2841 928 2578 
Q 928 2378 1081 2264 
Q 1234 2150 1697 2047 
L 1894 2003 
Q 2506 1872 2764 1633 
Q 3022 1394 3022 966 
Q 3022 478 2636 193 
Q 2250 -91 1575 -91 
Q 1294 -91 989 -36 
Q 684 19 347 128 
L 347 722 
Q 666 556 975 473 
Q 1284 391 1588 391 
Q 1994 391 2212 530 
Q 2431 669 2431 922 
Q 2431 1156 2273 1281 
Q 2116 1406 1581 1522 
L 1381 1569 
Q 847 1681 609 1914 
Q 372 2147 372 2553 
Q 372 3047 722 3315 
Q 1072 3584 1716 3584 
Q 2034 3584 2315 3537 
Q 2597 3491 2834 3397 
z
" transform="scale(0.015625)"/>
      </defs>
      <use xlink:href="#DejaVuSans-44"/>
      <use xlink:href="#DejaVuSans-65" transform="translate(77.001953 0)"/>
      <use xlink:href="#DejaVuSans-6e" transform="translate(138.525391 0)"/>
      <use xlink:href="#DejaVuSans-73" transform="translate(201.904297 0)"/>
      <use xlink:href="#DejaVuSans-69" transform="translate(254.003906 0)"/>
      <use xlink:href="#DejaVuSans-74" transform="translate(281.787109 0)"/>
      <use xlink:href="#DejaVuSans-79" transform="translate(320.996094 0)"/>
     </g>
    </g>
   </g>
   <g id="patch_53">
    <path d="M 34.240625 315.398125 
L 34.240625 22.318125 
" style="fill: none; stroke: #000000; stroke-width: 0.8; stroke-linejoin: miter; stroke-linecap: square"/>
   </g>
   <g id="patch_54">
    <path d="M 415.130625 315.398125 
L 415.130625 22.318125 
" style="fill: none; stroke: #000000; stroke-width: 0.8; stroke-linejoin: miter; stroke-linecap: square"/>
   </g>
   <g id="patch_55">
    <path d="M 34.240625 315.398125 
L 415.130625 315.398125 
" style="fill: none; stroke: #000000; stroke-width: 0.8; stroke-linejoin: miter; stroke-linecap: square"/>
   </g>
   <g id="patch_56">
    <path d="M 34.240625 22.318125 
L 415.130625 22.318125 
" style="fill: none; stroke: #000000; stroke-width: 0.8; stroke-linejoin: miter; stroke-linecap: square"/>
   </g>
   <g id="text_14">
    <!-- Distribution of Max Choice Probability per Problem -->
    <g transform="translate(73.522188 16.318125) scale(0.12 -0.12)">
     <defs>
      <path id="DejaVuSans-66" d="M 2375 4863 
L 2375 4384 
L 1825 4384 
Q 1516 4384 1395 4259 
Q 1275 4134 1275 3809 
L 1275 3500 
L 2222 3500 
L 2222 3053 
L 1275 3053 
L 1275 0 
L 697 0 
L 697 3053 
L 147 3053 
L 147 3500 
L 697 3500 
L 697 3744 
Q 697 4328 969 4595 
Q 1241 4863 1831 4863 
L 2375 4863 
z
" transform="scale(0.015625)"/>
      <path id="DejaVuSans-70" d="M 1159 525 
L 1159 -1331 
L 581 -1331 
L 581 3500 
L 1159 3500 
L 1159 2969 
Q 1341 3281 1617 3432 
Q 1894 3584 2278 3584 
Q 2916 3584 3314 3078 
Q 3713 2572 3713 1747 
Q 3713 922 3314 415 
Q 2916 -91 2278 -91 
Q 1894 -91 1617 61 
Q 1341 213 1159 525 
z
M 3116 1747 
Q 3116 2381 2855 2742 
Q 2594 3103 2138 3103 
Q 1681 3103 1420 2742 
Q 1159 2381 1159 1747 
Q 1159 1113 1420 752 
Q 1681 391 2138 391 
Q 2594 391 2855 752 
Q 3116 1113 3116 1747 
z
" transform="scale(0.015625)"/>
     </defs>
     <use xlink:href="#DejaVuSans-44"/>
     <use xlink:href="#DejaVuSans-69" transform="translate(77.001953 0)"/>
     <use xlink:href="#DejaVuSans-73" transform="translate(104.785156 0)"/>
     <use xlink:href="#DejaVuSans-74" transform="translate(156.884766 0)"/>
     <use xlink:href="#DejaVuSans-72" transform="translate(196.09375 0)"/>
     <use xlink:href="#DejaVuSans-69" transform="translate(237.207031 0)"/>
     <use xlink:href="#DejaVuSans-62" transform="translate(264.990234 0)"/>
     <use xlink:href="#DejaVuSans-75" transform="translate(328.466797 0)"/>
     <use xlink:href="#DejaVuSans-74" transform="translate(391.845703 0)"/>
     <use xlink:href="#DejaVuSans-69" transform="translate(431.054688 0)"/>
     <use xlink:href="#DejaVuSans-6f" transform="translate(458.837891 0)"/>
     <use xlink:href="#DejaVuSans-6e" transform="translate(520.019531 0)"/>
     <use xlink:href="#DejaVuSans-20" transform="translate(583.398438 0)"/>
     <use xlink:href="#DejaVuSans-6f" transform="translate(615.185547 0)"/>
     <use xlink:href="#DejaVuSans-66" transform="translate(676.367188 0)"/>
     <use xlink:href="#DejaVuSans-20" transform="translate(711.572266 0)"/>
     <use xlink:href="#DejaVuSans-4d" transform="translate(743.359375 0)"/>
     <use xlink:href="#DejaVuSans-61" transform="translate(829.638672 0)"/>
     <use xlink:href="#DejaVuSans-78" transform="translate(890.917969 0)"/>
     <use xlink:href="#DejaVuSans-20" transform="translate(950.097656 0)"/>
     <use xlink:href="#DejaVuSans-43" transform="translate(981.884766 0)"/>
     <use xlink:href="#DejaVuSans-68" transform="translate(1051.708984 0)"/>
     <use xlink:href="#DejaVuSans-6f" transform="translate(1115.087891 0)"/>
     <use xlink:href="#DejaVuSans-69" transform="translate(1176.269531 0)"/>
     <use xlink:href="#DejaVuSans-63" transform="translate(1204.052734 0)"/>
     <use xlink:href="#DejaVuSans-65" transform="translate(1259.033203 0)"/>
     <use xlink:href="#DejaVuSans-20" transform="translate(1320.556641 0)"/>
     <use xlink:href="#DejaVuSans-50" transform="translate(1352.34375 0)"/>
     <use xlink:href="#DejaVuSans-72" transform="translate(1410.896484 0)"/>
     <use xlink:href="#DejaVuSans-6f" transform="translate(1449.759766 0)"/>
     <use xlink:href="#DejaVuSans-62" transform="translate(1510.941406 0)"/>
     <use xlink:href="#DejaVuSans-61" transform="translate(1574.417969 0)"/>
     <use xlink:href="#DejaVuSans-62" transform="translate(1635.697266 0)"/>
     <use xlink:href="#DejaVuSans-69" transform="translate(1699.173828 0)"/>
     <use xlink:href="#DejaVuSans-6c" transform="translate(1726.957031 0)"/>
     <use xlink:href="#DejaVuSans-69" transform="translate(1754.740234 0)"/>
     <use xlink:href="#DejaVuSans-74" transform="translate(1782.523438 0)"/>
     <use xlink:href="#DejaVuSans-79" transform="translate(1821.732422 0)"/>
     <use xlink:href="#DejaVuSans-20" transform="translate(1880.912109 0)"/>
     <use xlink:href="#DejaVuSans-70" transform="translate(1912.699219 0)"/>
     <use xlink:href="#DejaVuSans-65" transform="translate(1976.175781 0)"/>
     <use xlink:href="#DejaVuSans-72" transform="translate(2037.699219 0)"/>
     <use xlink:href="#DejaVuSans-20" transform="translate(2078.8125 0)"/>
     <use xlink:href="#DejaVuSans-50" transform="translate(2110.599609 0)"/>
     <use xlink:href="#DejaVuSans-72" transform="translate(2169.152344 0)"/>
     <use xlink:href="#DejaVuSans-6f" transform="translate(2208.015625 0)"/>
     <use xlink:href="#DejaVuSans-62" transform="translate(2269.197266 0)"/>
     <use xlink:href="#DejaVuSans-6c" transform="translate(2332.673828 0)"/>
     <use xlink:href="#DejaVuSans-65" transform="translate(2360.457031 0)"/>
     <use xlink:href="#DejaVuSans-6d" transform="translate(2421.980469 0)"/>
    </g>
   </g>
  </g>
  <g id="axes_2">
   <g id="patch_57">
    <path d="M 460.840625 315.398125 
L 841.730625 315.398125 
L 841.730625 22.318125 
L 460.840625 22.318125 
z
" style="fill: #ffffff"/>
   </g>
   <g id="patch_58">
    <path d="M 460.840666 315.398125 
L 468.458464 315.398125 
L 468.458464 267.156181 
L 460.840666 267.156181 
z
" clip-path="url(#p45ee8377d4)" style="fill: #ff7f50; opacity: 0.7; stroke: #ffffff; stroke-linejoin: miter"/>
   </g>
   <g id="patch_59">
    <path d="M 468.458464 315.398125 
L 476.076261 315.398125 
L 476.076261 283.735103 
L 468.458464 283.735103 
z
" clip-path="url(#p45ee8377d4)" style="fill: #ff7f50; opacity: 0.7; stroke: #ffffff; stroke-linejoin: miter"/>
   </g>
   <g id="patch_60">
    <path d="M 476.076261 315.398125 
L 483.694059 315.398125 
L 483.694059 281.221086 
L 476.076261 281.221086 
z
" clip-path="url(#p45ee8377d4)" style="fill: #ff7f50; opacity: 0.7; stroke: #ffffff; stroke-linejoin: miter"/>
   </g>
   <g id="patch_61">
    <path d="M 483.694059 315.398125 
L 491.311856 315.398125 
L 491.311856 276.328945 
L 483.694059 276.328945 
z
" clip-path="url(#p45ee8377d4)" style="fill: #ff7f50; opacity: 0.7; stroke: #ffffff; stroke-linejoin: miter"/>
   </g>
   <g id="patch_62">
    <path d="M 491.311856 315.398125 
L 498.929653 315.398125 
L 498.929653 269.806091 
L 491.311856 269.806091 
z
" clip-path="url(#p45ee8377d4)" style="fill: #ff7f50; opacity: 0.7; stroke: #ffffff; stroke-linejoin: miter"/>
   </g>
   <g id="patch_63">
    <path d="M 498.929653 315.398125 
L 506.547451 315.398125 
L 506.547451 262.128148 
L 498.929653 262.128148 
z
" clip-path="url(#p45ee8377d4)" style="fill: #ff7f50; opacity: 0.7; stroke: #ffffff; stroke-linejoin: miter"/>
   </g>
   <g id="patch_64">
    <path d="M 506.547451 315.398125 
L 514.165248 315.398125 
L 514.165248 244.054405 
L 506.547451 244.054405 
z
" clip-path="url(#p45ee8377d4)" style="fill: #ff7f50; opacity: 0.7; stroke: #ffffff; stroke-linejoin: miter"/>
   </g>
   <g id="patch_65">
    <path d="M 514.165248 315.398125 
L 521.783046 315.398125 
L 521.783046 215.109239 
L 514.165248 215.109239 
z
" clip-path="url(#p45ee8377d4)" style="fill: #ff7f50; opacity: 0.7; stroke: #ffffff; stroke-linejoin: miter"/>
   </g>
   <g id="patch_66">
    <path d="M 521.783046 315.398125 
L 529.400843 315.398125 
L 529.400843 172.710686 
L 521.783046 172.710686 
z
" clip-path="url(#p45ee8377d4)" style="fill: #ff7f50; opacity: 0.7; stroke: #ffffff; stroke-linejoin: miter"/>
   </g>
   <g id="patch_67">
    <path d="M 529.400843 315.398125 
L 537.01864 315.398125 
L 537.01864 87.675767 
L 529.400843 87.675767 
z
" clip-path="url(#p45ee8377d4)" style="fill: #ff7f50; opacity: 0.7; stroke: #ffffff; stroke-linejoin: miter"/>
   </g>
   <g id="patch_68">
    <path d="M 537.01864 315.398125 
L 544.636438 315.398125 
L 544.636438 68.141177 
L 537.01864 68.141177 
z
" clip-path="url(#p45ee8377d4)" style="fill: #ff7f50; opacity: 0.7; stroke: #ffffff; stroke-linejoin: miter"/>
   </g>
   <g id="patch_69">
    <path d="M 544.636438 315.398125 
L 552.254235 315.398125 
L 552.254235 77.279968 
L 544.636438 77.279968 
z
" clip-path="url(#p45ee8377d4)" style="fill: #ff7f50; opacity: 0.7; stroke: #ffffff; stroke-linejoin: miter"/>
   </g>
   <g id="patch_70">
    <path d="M 552.254235 315.398125 
L 559.872033 315.398125 
L 559.872033 36.274315 
L 552.254235 36.274315 
z
" clip-path="url(#p45ee8377d4)" style="fill: #ff7f50; opacity: 0.7; stroke: #ffffff; stroke-linejoin: miter"/>
   </g>
   <g id="patch_71">
    <path d="M 559.872033 315.398125 
L 567.48983 315.398125 
L 567.48983 118.013834 
L 559.872033 118.013834 
z
" clip-path="url(#p45ee8377d4)" style="fill: #ff7f50; opacity: 0.7; stroke: #ffffff; stroke-linejoin: miter"/>
   </g>
   <g id="patch_72">
    <path d="M 567.48983 315.398125 
L 575.107628 315.398125 
L 575.107628 174.205507 
L 567.48983 174.205507 
z
" clip-path="url(#p45ee8377d4)" style="fill: #ff7f50; opacity: 0.7; stroke: #ffffff; stroke-linejoin: miter"/>
   </g>
   <g id="patch_73">
    <path d="M 575.107628 315.398125 
L 582.725425 315.398125 
L 582.725425 185.994207 
L 575.107628 185.994207 
z
" clip-path="url(#p45ee8377d4)" style="fill: #ff7f50; opacity: 0.7; stroke: #ffffff; stroke-linejoin: miter"/>
   </g>
   <g id="patch_74">
    <path d="M 582.725425 315.398125 
L 590.343222 315.398125 
L 590.343222 172.336981 
L 582.725425 172.336981 
z
" clip-path="url(#p45ee8377d4)" style="fill: #ff7f50; opacity: 0.7; stroke: #ffffff; stroke-linejoin: miter"/>
   </g>
   <g id="patch_75">
    <path d="M 590.343222 315.398125 
L 597.96102 315.398125 
L 597.96102 203.320539 
L 590.343222 203.320539 
z
" clip-path="url(#p45ee8377d4)" style="fill: #ff7f50; opacity: 0.7; stroke: #ffffff; stroke-linejoin: miter"/>
   </g>
   <g id="patch_76">
    <path d="M 597.96102 315.398125 
L 605.578817 315.398125 
L 605.578817 241.268603 
L 597.96102 241.268603 
z
" clip-path="url(#p45ee8377d4)" style="fill: #ff7f50; opacity: 0.7; stroke: #ffffff; stroke-linejoin: miter"/>
   </g>
   <g id="patch_77">
    <path d="M 605.578817 315.398125 
L 613.196615 315.398125 
L 613.196615 258.187257 
L 605.578817 258.187257 
z
" clip-path="url(#p45ee8377d4)" style="fill: #ff7f50; opacity: 0.7; stroke: #ffffff; stroke-linejoin: miter"/>
   </g>
   <g id="patch_78">
    <path d="M 613.196615 315.398125 
L 620.814412 315.398125 
L 620.814412 267.597833 
L 613.196615 267.597833 
z
" clip-path="url(#p45ee8377d4)" style="fill: #ff7f50; opacity: 0.7; stroke: #ffffff; stroke-linejoin: miter"/>
   </g>
   <g id="patch_79">
    <path d="M 620.814412 315.398125 
L 628.43221 315.398125 
L 628.43221 273.203411 
L 620.814412 273.203411 
z
" clip-path="url(#p45ee8377d4)" style="fill: #ff7f50; opacity: 0.7; stroke: #ffffff; stroke-linejoin: miter"/>
   </g>
   <g id="patch_80">
    <path d="M 628.43221 315.398125 
L 636.050007 315.398125 
L 636.050007 272.489974 
L 628.43221 272.489974 
z
" clip-path="url(#p45ee8377d4)" style="fill: #ff7f50; opacity: 0.7; stroke: #ffffff; stroke-linejoin: miter"/>
   </g>
   <g id="patch_81">
    <path d="M 636.050007 315.398125 
L 643.667804 315.398125 
L 643.667804 267.122208 
L 636.050007 267.122208 
z
" clip-path="url(#p45ee8377d4)" style="fill: #ff7f50; opacity: 0.7; stroke: #ffffff; stroke-linejoin: miter"/>
   </g>
   <g id="patch_82">
    <path d="M 643.667804 315.398125 
L 651.285602 315.398125 
L 651.285602 246.432529 
L 643.667804 246.432529 
z
" clip-path="url(#p45ee8377d4)" style="fill: #ff7f50; opacity: 0.7; stroke: #ffffff; stroke-linejoin: miter"/>
   </g>
   <g id="patch_83">
    <path d="M 651.285602 315.398125 
L 658.903399 315.398125 
L 658.903399 248.572841 
L 651.285602 248.572841 
z
" clip-path="url(#p45ee8377d4)" style="fill: #ff7f50; opacity: 0.7; stroke: #ffffff; stroke-linejoin: miter"/>
   </g>
   <g id="patch_84">
    <path d="M 658.903399 315.398125 
L 666.521197 315.398125 
L 666.521197 275.071937 
L 658.903399 275.071937 
z
" clip-path="url(#p45ee8377d4)" style="fill: #ff7f50; opacity: 0.7; stroke: #ffffff; stroke-linejoin: miter"/>
   </g>
   <g id="patch_85">
    <path d="M 666.521197 315.398125 
L 674.138994 315.398125 
L 674.138994 285.875414 
L 666.521197 285.875414 
z
" clip-path="url(#p45ee8377d4)" style="fill: #ff7f50; opacity: 0.7; stroke: #ffffff; stroke-linejoin: miter"/>
   </g>
   <g id="patch_86">
    <path d="M 674.138994 315.398125 
L 681.756792 315.398125 
L 681.756792 294.198848 
L 674.138994 294.198848 
z
" clip-path="url(#p45ee8377d4)" style="fill: #ff7f50; opacity: 0.7; stroke: #ffffff; stroke-linejoin: miter"/>
   </g>
   <g id="patch_87">
    <path d="M 681.756792 315.398125 
L 689.374589 315.398125 
L 689.374589 297.358356 
L 681.756792 297.358356 
z
" clip-path="url(#p45ee8377d4)" style="fill: #ff7f50; opacity: 0.7; stroke: #ffffff; stroke-linejoin: miter"/>
   </g>
   <g id="patch_88">
    <path d="M 689.374589 315.398125 
L 696.992386 315.398125 
L 696.992386 300.755676 
L 689.374589 300.755676 
z
" clip-path="url(#p45ee8377d4)" style="fill: #ff7f50; opacity: 0.7; stroke: #ffffff; stroke-linejoin: miter"/>
   </g>
   <g id="patch_89">
    <path d="M 696.992386 315.398125 
L 704.610184 315.398125 
L 704.610184 302.556255 
L 696.992386 302.556255 
z
" clip-path="url(#p45ee8377d4)" style="fill: #ff7f50; opacity: 0.7; stroke: #ffffff; stroke-linejoin: miter"/>
   </g>
   <g id="patch_90">
    <path d="M 704.610184 315.398125 
L 712.227981 315.398125 
L 712.227981 304.628621 
L 704.610184 304.628621 
z
" clip-path="url(#p45ee8377d4)" style="fill: #ff7f50; opacity: 0.7; stroke: #ffffff; stroke-linejoin: miter"/>
   </g>
   <g id="patch_91">
    <path d="M 712.227981 315.398125 
L 719.845779 315.398125 
L 719.845779 306.395227 
L 712.227981 306.395227 
z
" clip-path="url(#p45ee8377d4)" style="fill: #ff7f50; opacity: 0.7; stroke: #ffffff; stroke-linejoin: miter"/>
   </g>
   <g id="patch_92">
    <path d="M 719.845779 315.398125 
L 727.463576 315.398125 
L 727.463576 307.040718 
L 719.845779 307.040718 
z
" clip-path="url(#p45ee8377d4)" style="fill: #ff7f50; opacity: 0.7; stroke: #ffffff; stroke-linejoin: miter"/>
   </g>
   <g id="patch_93">
    <path d="M 727.463576 315.398125 
L 735.081373 315.398125 
L 735.081373 309.384869 
L 727.463576 309.384869 
z
" clip-path="url(#p45ee8377d4)" style="fill: #ff7f50; opacity: 0.7; stroke: #ffffff; stroke-linejoin: miter"/>
   </g>
   <g id="patch_94">
    <path d="M 735.081373 315.398125 
L 742.699171 315.398125 
L 742.699171 309.622681 
L 735.081373 309.622681 
z
" clip-path="url(#p45ee8377d4)" style="fill: #ff7f50; opacity: 0.7; stroke: #ffffff; stroke-linejoin: miter"/>
   </g>
   <g id="patch_95">
    <path d="M 742.699171 315.398125 
L 750.316968 315.398125 
L 750.316968 310.709823 
L 742.699171 310.709823 
z
" clip-path="url(#p45ee8377d4)" style="fill: #ff7f50; opacity: 0.7; stroke: #ffffff; stroke-linejoin: miter"/>
   </g>
   <g id="patch_96">
    <path d="M 750.316968 315.398125 
L 757.934766 315.398125 
L 757.934766 310.438038 
L 750.316968 310.438038 
z
" clip-path="url(#p45ee8377d4)" style="fill: #ff7f50; opacity: 0.7; stroke: #ffffff; stroke-linejoin: miter"/>
   </g>
   <g id="patch_97">
    <path d="M 757.934766 315.398125 
L 765.552563 315.398125 
L 765.552563 310.947636 
L 757.934766 310.947636 
z
" clip-path="url(#p45ee8377d4)" style="fill: #ff7f50; opacity: 0.7; stroke: #ffffff; stroke-linejoin: miter"/>
   </g>
   <g id="patch_98">
    <path d="M 765.552563 315.398125 
L 773.170361 315.398125 
L 773.170361 311.355314 
L 765.552563 311.355314 
z
" clip-path="url(#p45ee8377d4)" style="fill: #ff7f50; opacity: 0.7; stroke: #ffffff; stroke-linejoin: miter"/>
   </g>
   <g id="patch_99">
    <path d="M 773.170361 315.398125 
L 780.788158 315.398125 
L 780.788158 312.238617 
L 773.170361 312.238617 
z
" clip-path="url(#p45ee8377d4)" style="fill: #ff7f50; opacity: 0.7; stroke: #ffffff; stroke-linejoin: miter"/>
   </g>
   <g id="patch_100">
    <path d="M 780.788158 315.398125 
L 788.405955 315.398125 
L 788.405955 311.355314 
L 780.788158 311.355314 
z
" clip-path="url(#p45ee8377d4)" style="fill: #ff7f50; opacity: 0.7; stroke: #ffffff; stroke-linejoin: miter"/>
   </g>
   <g id="patch_101">
    <path d="M 788.405955 315.398125 
L 796.023753 315.398125 
L 796.023753 311.966832 
L 788.405955 311.966832 
z
" clip-path="url(#p45ee8377d4)" style="fill: #ff7f50; opacity: 0.7; stroke: #ffffff; stroke-linejoin: miter"/>
   </g>
   <g id="patch_102">
    <path d="M 796.023753 315.398125 
L 803.64155 315.398125 
L 803.64155 312.510403 
L 796.023753 312.510403 
z
" clip-path="url(#p45ee8377d4)" style="fill: #ff7f50; opacity: 0.7; stroke: #ffffff; stroke-linejoin: miter"/>
   </g>
   <g id="patch_103">
    <path d="M 803.64155 315.398125 
L 811.259348 315.398125 
L 811.259348 312.884108 
L 803.64155 312.884108 
z
" clip-path="url(#p45ee8377d4)" style="fill: #ff7f50; opacity: 0.7; stroke: #ffffff; stroke-linejoin: miter"/>
   </g>
   <g id="patch_104">
    <path d="M 811.259348 315.398125 
L 818.877145 315.398125 
L 818.877145 312.102725 
L 811.259348 312.102725 
z
" clip-path="url(#p45ee8377d4)" style="fill: #ff7f50; opacity: 0.7; stroke: #ffffff; stroke-linejoin: miter"/>
   </g>
   <g id="patch_105">
    <path d="M 818.877145 315.398125 
L 826.494943 315.398125 
L 826.494943 312.204644 
L 818.877145 312.204644 
z
" clip-path="url(#p45ee8377d4)" style="fill: #ff7f50; opacity: 0.7; stroke: #ffffff; stroke-linejoin: miter"/>
   </g>
   <g id="patch_106">
    <path d="M 826.494943 315.398125 
L 834.11274 315.398125 
L 834.11274 312.102725 
L 826.494943 312.102725 
z
" clip-path="url(#p45ee8377d4)" style="fill: #ff7f50; opacity: 0.7; stroke: #ffffff; stroke-linejoin: miter"/>
   </g>
   <g id="patch_107">
    <path d="M 834.11274 315.398125 
L 841.730537 315.398125 
L 841.730537 310.166252 
L 834.11274 310.166252 
z
" clip-path="url(#p45ee8377d4)" style="fill: #ff7f50; opacity: 0.7; stroke: #ffffff; stroke-linejoin: miter"/>
   </g>
   <g id="matplotlib.axis_3">
    <g id="xtick_7">
     <g id="line2d_12">
      <g>
       <use xlink:href="#mfb3932b963" x="460.840625" y="315.398125" style="stroke: #000000; stroke-width: 0.8"/>
      </g>
     </g>
     <g id="text_15">
      <!-- 0.0 -->
      <g transform="translate(452.889062 329.996562) scale(0.1 -0.1)">
       <use xlink:href="#DejaVuSans-30"/>
       <use xlink:href="#DejaVuSans-2e" transform="translate(63.623047 0)"/>
       <use xlink:href="#DejaVuSans-30" transform="translate(95.410156 0)"/>
      </g>
     </g>
    </g>
    <g id="xtick_8">
     <g id="line2d_13">
      <g>
       <use xlink:href="#mfb3932b963" x="537.018625" y="315.398125" style="stroke: #000000; stroke-width: 0.8"/>
      </g>
     </g>
     <g id="text_16">
      <!-- 0.2 -->
      <g transform="translate(529.067063 329.996562) scale(0.1 -0.1)">
       <use xlink:href="#DejaVuSans-30"/>
       <use xlink:href="#DejaVuSans-2e" transform="translate(63.623047 0)"/>
       <use xlink:href="#DejaVuSans-32" transform="translate(95.410156 0)"/>
      </g>
     </g>
    </g>
    <g id="xtick_9">
     <g id="line2d_14">
      <g>
       <use xlink:href="#mfb3932b963" x="613.196625" y="315.398125" style="stroke: #000000; stroke-width: 0.8"/>
      </g>
     </g>
     <g id="text_17">
      <!-- 0.4 -->
      <g transform="translate(605.245063 329.996562) scale(0.1 -0.1)">
       <use xlink:href="#DejaVuSans-30"/>
       <use xlink:href="#DejaVuSans-2e" transform="translate(63.623047 0)"/>
       <use xlink:href="#DejaVuSans-34" transform="translate(95.410156 0)"/>
      </g>
     </g>
    </g>
    <g id="xtick_10">
     <g id="line2d_15">
      <g>
       <use xlink:href="#mfb3932b963" x="689.374625" y="315.398125" style="stroke: #000000; stroke-width: 0.8"/>
      </g>
     </g>
     <g id="text_18">
      <!-- 0.6 -->
      <g transform="translate(681.423063 329.996562) scale(0.1 -0.1)">
       <use xlink:href="#DejaVuSans-30"/>
       <use xlink:href="#DejaVuSans-2e" transform="translate(63.623047 0)"/>
       <use xlink:href="#DejaVuSans-36" transform="translate(95.410156 0)"/>
      </g>
     </g>
    </g>
    <g id="xtick_11">
     <g id="line2d_16">
      <g>
       <use xlink:href="#mfb3932b963" x="765.552625" y="315.398125" style="stroke: #000000; stroke-width: 0.8"/>
      </g>
     </g>
     <g id="text_19">
      <!-- 0.8 -->
      <g transform="translate(757.601063 329.996562) scale(0.1 -0.1)">
       <use xlink:href="#DejaVuSans-30"/>
       <use xlink:href="#DejaVuSans-2e" transform="translate(63.623047 0)"/>
       <use xlink:href="#DejaVuSans-38" transform="translate(95.410156 0)"/>
      </g>
     </g>
    </g>
    <g id="xtick_12">
     <g id="line2d_17">
      <g>
       <use xlink:href="#mfb3932b963" x="841.730625" y="315.398125" style="stroke: #000000; stroke-width: 0.8"/>
      </g>
     </g>
     <g id="text_20">
      <!-- 1.0 -->
      <g transform="translate(833.779063 329.996562) scale(0.1 -0.1)">
       <use xlink:href="#DejaVuSans-31"/>
       <use xlink:href="#DejaVuSans-2e" transform="translate(63.623047 0)"/>
       <use xlink:href="#DejaVuSans-30" transform="translate(95.410156 0)"/>
      </g>
     </g>
    </g>
    <g id="text_21">
     <!-- Choice Probability -->
     <g transform="translate(606.333281 343.674687) scale(0.1 -0.1)">
      <use xlink:href="#DejaVuSans-43"/>
      <use xlink:href="#DejaVuSans-68" transform="translate(69.824219 0)"/>
      <use xlink:href="#DejaVuSans-6f" transform="translate(133.203125 0)"/>
      <use xlink:href="#DejaVuSans-69" transform="translate(194.384766 0)"/>
      <use xlink:href="#DejaVuSans-63" transform="translate(222.167969 0)"/>
      <use xlink:href="#DejaVuSans-65" transform="translate(277.148438 0)"/>
      <use xlink:href="#DejaVuSans-20" transform="translate(338.671875 0)"/>
      <use xlink:href="#DejaVuSans-50" transform="translate(370.458984 0)"/>
      <use xlink:href="#DejaVuSans-72" transform="translate(429.011719 0)"/>
      <use xlink:href="#DejaVuSans-6f" transform="translate(467.875 0)"/>
      <use xlink:href="#DejaVuSans-62" transform="translate(529.056641 0)"/>
      <use xlink:href="#DejaVuSans-61" transform="translate(592.533203 0)"/>
      <use xlink:href="#DejaVuSans-62" transform="translate(653.8125 0)"/>
      <use xlink:href="#DejaVuSans-69" transform="translate(717.289062 0)"/>
      <use xlink:href="#DejaVuSans-6c" transform="translate(745.072266 0)"/>
      <use xlink:href="#DejaVuSans-69" transform="translate(772.855469 0)"/>
      <use xlink:href="#DejaVuSans-74" transform="translate(800.638672 0)"/>
      <use xlink:href="#DejaVuSans-79" transform="translate(839.847656 0)"/>
     </g>
    </g>
   </g>
   <g id="matplotlib.axis_4">
    <g id="ytick_6">
     <g id="line2d_18">
      <g>
       <use xlink:href="#m4e596303b0" x="460.840625" y="315.398125" style="stroke: #000000; stroke-width: 0.8"/>
      </g>
     </g>
     <g id="text_22">
      <!-- 0 -->
      <g transform="translate(447.478125 319.197344) scale(0.1 -0.1)">
       <use xlink:href="#DejaVuSans-30"/>
      </g>
     </g>
    </g>
    <g id="ytick_7">
     <g id="line2d_19">
      <g>
       <use xlink:href="#m4e596303b0" x="460.840625" y="256.284777" style="stroke: #000000; stroke-width: 0.8"/>
      </g>
     </g>
     <g id="text_23">
      <!-- 1 -->
      <g transform="translate(447.478125 260.083996) scale(0.1 -0.1)">
       <use xlink:href="#DejaVuSans-31"/>
      </g>
     </g>
    </g>
    <g id="ytick_8">
     <g id="line2d_20">
      <g>
       <use xlink:href="#m4e596303b0" x="460.840625" y="197.17143" style="stroke: #000000; stroke-width: 0.8"/>
      </g>
     </g>
     <g id="text_24">
      <!-- 2 -->
      <g transform="translate(447.478125 200.970648) scale(0.1 -0.1)">
       <use xlink:href="#DejaVuSans-32"/>
      </g>
     </g>
    </g>
    <g id="ytick_9">
     <g id="line2d_21">
      <g>
       <use xlink:href="#m4e596303b0" x="460.840625" y="138.058082" style="stroke: #000000; stroke-width: 0.8"/>
      </g>
     </g>
     <g id="text_25">
      <!-- 3 -->
      <g transform="translate(447.478125 141.857301) scale(0.1 -0.1)">
       <use xlink:href="#DejaVuSans-33"/>
      </g>
     </g>
    </g>
    <g id="ytick_10">
     <g id="line2d_22">
      <g>
       <use xlink:href="#m4e596303b0" x="460.840625" y="78.944734" style="stroke: #000000; stroke-width: 0.8"/>
      </g>
     </g>
     <g id="text_26">
      <!-- 4 -->
      <g transform="translate(447.478125 82.743953) scale(0.1 -0.1)">
       <use xlink:href="#DejaVuSans-34"/>
      </g>
     </g>
    </g>
    <g id="text_27">
     <!-- Density -->
     <g transform="translate(441.398438 187.866719) rotate(-90) scale(0.1 -0.1)">
      <use xlink:href="#DejaVuSans-44"/>
      <use xlink:href="#DejaVuSans-65" transform="translate(77.001953 0)"/>
      <use xlink:href="#DejaVuSans-6e" transform="translate(138.525391 0)"/>
      <use xlink:href="#DejaVuSans-73" transform="translate(201.904297 0)"/>
      <use xlink:href="#DejaVuSans-69" transform="translate(254.003906 0)"/>
      <use xlink:href="#DejaVuSans-74" transform="translate(281.787109 0)"/>
      <use xlink:href="#DejaVuSans-79" transform="translate(320.996094 0)"/>
     </g>
    </g>
   </g>
   <g id="patch_108">
    <path d="M 460.840625 315.398125 
L 460.840625 22.318125 
" style="fill: none; stroke: #000000; stroke-width: 0.8; stroke-linejoin: miter; stroke-linecap: square"/>
   </g>
   <g id="patch_109">
    <path d="M 841.730625 315.398125 
L 841.730625 22.318125 
" style="fill: none; stroke: #000000; stroke-width: 0.8; stroke-linejoin: miter; stroke-linecap: square"/>
   </g>
   <g id="patch_110">
    <path d="M 460.840625 315.398125 
L 841.730625 315.398125 
" style="fill: none; stroke: #000000; stroke-width: 0.8; stroke-linejoin: miter; stroke-linecap: square"/>
   </g>
   <g id="patch_111">
    <path d="M 460.840625 22.318125 
L 841.730625 22.318125 
" style="fill: none; stroke: #000000; stroke-width: 0.8; stroke-linejoin: miter; stroke-linecap: square"/>
   </g>
   <g id="text_28">
    <!-- Distribution of All Choice Probabilities -->
    <g transform="translate(538.465 16.318125) scale(0.12 -0.12)">
     <defs>
      <path id="DejaVuSans-41" d="M 2188 4044 
L 1331 1722 
L 3047 1722 
L 2188 4044 
z
M 1831 4666 
L 2547 4666 
L 4325 0 
L 3669 0 
L 3244 1197 
L 1141 1197 
L 716 0 
L 50 0 
L 1831 4666 
z
" transform="scale(0.015625)"/>
     </defs>
     <use xlink:href="#DejaVuSans-44"/>
     <use xlink:href="#DejaVuSans-69" transform="translate(77.001953 0)"/>
     <use xlink:href="#DejaVuSans-73" transform="translate(104.785156 0)"/>
     <use xlink:href="#DejaVuSans-74" transform="translate(156.884766 0)"/>
     <use xlink:href="#DejaVuSans-72" transform="translate(196.09375 0)"/>
     <use xlink:href="#DejaVuSans-69" transform="translate(237.207031 0)"/>
     <use xlink:href="#DejaVuSans-62" transform="translate(264.990234 0)"/>
     <use xlink:href="#DejaVuSans-75" transform="translate(328.466797 0)"/>
     <use xlink:href="#DejaVuSans-74" transform="translate(391.845703 0)"/>
     <use xlink:href="#DejaVuSans-69" transform="translate(431.054688 0)"/>
     <use xlink:href="#DejaVuSans-6f" transform="translate(458.837891 0)"/>
     <use xlink:href="#DejaVuSans-6e" transform="translate(520.019531 0)"/>
     <use xlink:href="#DejaVuSans-20" transform="translate(583.398438 0)"/>
     <use xlink:href="#DejaVuSans-6f" transform="translate(615.185547 0)"/>
     <use xlink:href="#DejaVuSans-66" transform="translate(676.367188 0)"/>
     <use xlink:href="#DejaVuSans-20" transform="translate(711.572266 0)"/>
     <use xlink:href="#DejaVuSans-41" transform="translate(743.359375 0)"/>
     <use xlink:href="#DejaVuSans-6c" transform="translate(811.767578 0)"/>
     <use xlink:href="#DejaVuSans-6c" transform="translate(839.550781 0)"/>
     <use xlink:href="#DejaVuSans-20" transform="translate(867.333984 0)"/>
     <use xlink:href="#DejaVuSans-43" transform="translate(899.121094 0)"/>
     <use xlink:href="#DejaVuSans-68" transform="translate(968.945312 0)"/>
     <use xlink:href="#DejaVuSans-6f" transform="translate(1032.324219 0)"/>
     <use xlink:href="#DejaVuSans-69" transform="translate(1093.505859 0)"/>
     <use xlink:href="#DejaVuSans-63" transform="translate(1121.289062 0)"/>
     <use xlink:href="#DejaVuSans-65" transform="translate(1176.269531 0)"/>
     <use xlink:href="#DejaVuSans-20" transform="translate(1237.792969 0)"/>
     <use xlink:href="#DejaVuSans-50" transform="translate(1269.580078 0)"/>
     <use xlink:href="#DejaVuSans-72" transform="translate(1328.132812 0)"/>
     <use xlink:href="#DejaVuSans-6f" transform="translate(1366.996094 0)"/>
     <use xlink:href="#DejaVuSans-62" transform="translate(1428.177734 0)"/>
     <use xlink:href="#DejaVuSans-61" transform="translate(1491.654297 0)"/>
     <use xlink:href="#DejaVuSans-62" transform="translate(1552.933594 0)"/>
     <use xlink:href="#DejaVuSans-69" transform="translate(1616.410156 0)"/>
     <use xlink:href="#DejaVuSans-6c" transform="translate(1644.193359 0)"/>
     <use xlink:href="#DejaVuSans-69" transform="translate(1671.976562 0)"/>
     <use xlink:href="#DejaVuSans-74" transform="translate(1699.759766 0)"/>
     <use xlink:href="#DejaVuSans-69" transform="translate(1738.96875 0)"/>
     <use xlink:href="#DejaVuSans-65" transform="translate(1766.751953 0)"/>
     <use xlink:href="#DejaVuSans-73" transform="translate(1828.275391 0)"/>
    </g>
   </g>
  </g>
 </g>
 <defs>
  <clipPath id="p46de5dce34">
   <rect x="34.240625" y="22.318125" width="380.89" height="293.08"/>
  </clipPath>
  <clipPath id="p45ee8377d4">
   <rect x="460.840625" y="22.318125" width="380.89" height="293.08"/>
  </clipPath>
 </defs>
</svg>
