<?xml version="1.0" encoding="utf-8" standalone="no"?>
<!DOCTYPE svg PUBLIC "-//W3C//DTD SVG 1.1//EN"
  "http://www.w3.org/Graphics/SVG/1.1/DTD/svg11.dtd">
<svg xmlns:xlink="http://www.w3.org/1999/xlink" width="854.253437pt" height="422.602031pt" viewBox="0 0 854.253437 422.602031" xmlns="http://www.w3.org/2000/svg" version="1.1">
 <metadata>
  <rdf:RDF xmlns:dc="http://purl.org/dc/elements/1.1/" xmlns:cc="http://creativecommons.org/ns#" xmlns:rdf="http://www.w3.org/1999/02/22-rdf-syntax-ns#">
   <cc:Work>
    <dc:type rdf:resource="http://purl.org/dc/dcmitype/StillImage"/>
    <dc:date>2026-04-05T20:18:56.814025</dc:date>
    <dc:format>image/svg+xml</dc:format>
    <dc:creator>
     <cc:Agent>
      <dc:title>Matplotlib v3.10.8, https://matplotlib.org/</dc:title>
     </cc:Agent>
    </dc:creator>
   </cc:Work>
  </rdf:RDF>
 </metadata>
 <defs>
  <style type="text/css">*{stroke-linejoin: round; stroke-linecap: butt}</style>
 </defs>
 <g id="figure_1">
  <g id="patch_1">
   <path d="M 0 422.602031 
L 854.253437 422.602031 
L 854.253437 0 
L 0 0 
z
" style="fill: #ffffff"/>
  </g>
  <g id="axes_1">
   <g id="patch_2">
    <path d="M 47.933438 384.077969 
L 847.053437 384.077969 
L 847.053437 23.077969 
L 47.933438 23.077969 
z
" style="fill: #ffffff"/>
   </g>
   <g id="matplotlib.axis_1">
    <g id="xtick_1">
     <g id="line2d_1">
      <path d="M 84.257074 384.077969 
L 84.257074 23.077969 
" clip-path="url(#p27672bf988)" style="fill: none; stroke: #e2e8f0; stroke-opacity: 0.3; stroke-width: 0.5; stroke-linecap: square"/>
     </g>
     <g id="line2d_2">
      <defs>
       <path id="mbd50c73d25" d="M 0 0 
L 0 3.5 
" style="stroke: #2d3748; stroke-width: 0.8"/>
      </defs>
      <g>
       <use xlink:href="#mbd50c73d25" x="84.257074" y="384.077969" style="fill: #2d3748; stroke: #2d3748; stroke-width: 0.8"/>
      </g>
     </g>
     <g id="text_1">
      <!-- 0.0 -->
      <g style="fill: #2d3748" transform="translate(76.305511 398.676406) scale(0.1 -0.1)">
       <defs>
        <path id="DejaVuSans-30" d="M 2034 4250 
Q 1547 4250 1301 3770 
Q 1056 3291 1056 2328 
Q 1056 1369 1301 889 
Q 1547 409 2034 409 
Q 2525 409 2770 889 
Q 3016 1369 3016 2328 
Q 3016 3291 2770 3770 
Q 2525 4250 2034 4250 
z
M 2034 4750 
Q 2819 4750 3233 4129 
Q 3647 3509 3647 2328 
Q 3647 1150 3233 529 
Q 2819 -91 2034 -91 
Q 1250 -91 836 529 
Q 422 1150 422 2328 
Q 422 3509 836 4129 
Q 1250 4750 2034 4750 
z
" transform="scale(0.015625)"/>
        <path id="DejaVuSans-2e" d="M 684 794 
L 1344 794 
L 1344 0 
L 684 0 
L 684 794 
z
" transform="scale(0.015625)"/>
       </defs>
       <use xlink:href="#DejaVuSans-30"/>
       <use xlink:href="#DejaVuSans-2e" transform="translate(63.623047 0)"/>
       <use xlink:href="#DejaVuSans-30" transform="translate(95.410156 0)"/>
      </g>
     </g>
    </g>
    <g id="xtick_2">
     <g id="line2d_3">
      <path d="M 181.120104 384.077969 
L 181.120104 23.077969 
" clip-path="url(#p27672bf988)" style="fill: none; stroke: #e2e8f0; stroke-opacity: 0.3; stroke-width: 0.5; stroke-linecap: square"/>
     </g>
     <g id="line2d_4">
      <g>
       <use xlink:href="#mbd50c73d25" x="181.120104" y="384.077969" style="fill: #2d3748; stroke: #2d3748; stroke-width: 0.8"/>
      </g>
     </g>
     <g id="text_2">
      <!-- 0.2 -->
      <g style="fill: #2d3748" transform="translate(173.168542 398.676406) scale(0.1 -0.1)">
       <defs>
        <path id="DejaVuSans-32" d="M 1228 531 
L 3431 531 
L 3431 0 
L 469 0 
L 469 531 
Q 828 903 1448 1529 
Q 2069 2156 2228 2338 
Q 2531 2678 2651 2914 
Q 2772 3150 2772 3378 
Q 2772 3750 2511 3984 
Q 2250 4219 1831 4219 
Q 1534 4219 1204 4116 
Q 875 4013 500 3803 
L 500 4441 
Q 881 4594 1212 4672 
Q 1544 4750 1819 4750 
Q 2544 4750 2975 4387 
Q 3406 4025 3406 3419 
Q 3406 3131 3298 2873 
Q 3191 2616 2906 2266 
Q 2828 2175 2409 1742 
Q 1991 1309 1228 531 
z
" transform="scale(0.015625)"/>
       </defs>
       <use xlink:href="#DejaVuSans-30"/>
       <use xlink:href="#DejaVuSans-2e" transform="translate(63.623047 0)"/>
       <use xlink:href="#DejaVuSans-32" transform="translate(95.410156 0)"/>
      </g>
     </g>
    </g>
    <g id="xtick_3">
     <g id="line2d_5">
      <path d="M 277.983134 384.077969 
L 277.983134 23.077969 
" clip-path="url(#p27672bf988)" style="fill: none; stroke: #e2e8f0; stroke-opacity: 0.3; stroke-width: 0.5; stroke-linecap: square"/>
     </g>
     <g id="line2d_6">
      <g>
       <use xlink:href="#mbd50c73d25" x="277.983134" y="384.077969" style="fill: #2d3748; stroke: #2d3748; stroke-width: 0.8"/>
      </g>
     </g>
     <g id="text_3">
      <!-- 0.4 -->
      <g style="fill: #2d3748" transform="translate(270.031572 398.676406) scale(0.1 -0.1)">
       <defs>
        <path id="DejaVuSans-34" d="M 2419 4116 
L 825 1625 
L 2419 1625 
L 2419 4116 
z
M 2253 4666 
L 3047 4666 
L 3047 1625 
L 3713 1625 
L 3713 1100 
L 3047 1100 
L 3047 0 
L 2419 0 
L 2419 1100 
L 313 1100 
L 313 1709 
L 2253 4666 
z
" transform="scale(0.015625)"/>
       </defs>
       <use xlink:href="#DejaVuSans-30"/>
       <use xlink:href="#DejaVuSans-2e" transform="translate(63.623047 0)"/>
       <use xlink:href="#DejaVuSans-34" transform="translate(95.410156 0)"/>
      </g>
     </g>
    </g>
    <g id="xtick_4">
     <g id="line2d_7">
      <path d="M 374.846165 384.077969 
L 374.846165 23.077969 
" clip-path="url(#p27672bf988)" style="fill: none; stroke: #e2e8f0; stroke-opacity: 0.3; stroke-width: 0.5; stroke-linecap: square"/>
     </g>
     <g id="line2d_8">
      <g>
       <use xlink:href="#mbd50c73d25" x="374.846165" y="384.077969" style="fill: #2d3748; stroke: #2d3748; stroke-width: 0.8"/>
      </g>
     </g>
     <g id="text_4">
      <!-- 0.6 -->
      <g style="fill: #2d3748" transform="translate(366.894602 398.676406) scale(0.1 -0.1)">
       <defs>
        <path id="DejaVuSans-36" d="M 2113 2584 
Q 1688 2584 1439 2293 
Q 1191 2003 1191 1497 
Q 1191 994 1439 701 
Q 1688 409 2113 409 
Q 2538 409 2786 701 
Q 3034 994 3034 1497 
Q 3034 2003 2786 2293 
Q 2538 2584 2113 2584 
z
M 3366 4563 
L 3366 3988 
Q 3128 4100 2886 4159 
Q 2644 4219 2406 4219 
Q 1781 4219 1451 3797 
Q 1122 3375 1075 2522 
Q 1259 2794 1537 2939 
Q 1816 3084 2150 3084 
Q 2853 3084 3261 2657 
Q 3669 2231 3669 1497 
Q 3669 778 3244 343 
Q 2819 -91 2113 -91 
Q 1303 -91 875 529 
Q 447 1150 447 2328 
Q 447 3434 972 4092 
Q 1497 4750 2381 4750 
Q 2619 4750 2861 4703 
Q 3103 4656 3366 4563 
z
" transform="scale(0.015625)"/>
       </defs>
       <use xlink:href="#DejaVuSans-30"/>
       <use xlink:href="#DejaVuSans-2e" transform="translate(63.623047 0)"/>
       <use xlink:href="#DejaVuSans-36" transform="translate(95.410156 0)"/>
      </g>
     </g>
    </g>
    <g id="xtick_5">
     <g id="line2d_9">
      <path d="M 471.709195 384.077969 
L 471.709195 23.077969 
" clip-path="url(#p27672bf988)" style="fill: none; stroke: #e2e8f0; stroke-opacity: 0.3; stroke-width: 0.5; stroke-linecap: square"/>
     </g>
     <g id="line2d_10">
      <g>
       <use xlink:href="#mbd50c73d25" x="471.709195" y="384.077969" style="fill: #2d3748; stroke: #2d3748; stroke-width: 0.8"/>
      </g>
     </g>
     <g id="text_5">
      <!-- 0.8 -->
      <g style="fill: #2d3748" transform="translate(463.757633 398.676406) scale(0.1 -0.1)">
       <defs>
        <path id="DejaVuSans-38" d="M 2034 2216 
Q 1584 2216 1326 1975 
Q 1069 1734 1069 1313 
Q 1069 891 1326 650 
Q 1584 409 2034 409 
Q 2484 409 2743 651 
Q 3003 894 3003 1313 
Q 3003 1734 2745 1975 
Q 2488 2216 2034 2216 
z
M 1403 2484 
Q 997 2584 770 2862 
Q 544 3141 544 3541 
Q 544 4100 942 4425 
Q 1341 4750 2034 4750 
Q 2731 4750 3128 4425 
Q 3525 4100 3525 3541 
Q 3525 3141 3298 2862 
Q 3072 2584 2669 2484 
Q 3125 2378 3379 2068 
Q 3634 1759 3634 1313 
Q 3634 634 3220 271 
Q 2806 -91 2034 -91 
Q 1263 -91 848 271 
Q 434 634 434 1313 
Q 434 1759 690 2068 
Q 947 2378 1403 2484 
z
M 1172 3481 
Q 1172 3119 1398 2916 
Q 1625 2713 2034 2713 
Q 2441 2713 2670 2916 
Q 2900 3119 2900 3481 
Q 2900 3844 2670 4047 
Q 2441 4250 2034 4250 
Q 1625 4250 1398 4047 
Q 1172 3844 1172 3481 
z
" transform="scale(0.015625)"/>
       </defs>
       <use xlink:href="#DejaVuSans-30"/>
       <use xlink:href="#DejaVuSans-2e" transform="translate(63.623047 0)"/>
       <use xlink:href="#DejaVuSans-38" transform="translate(95.410156 0)"/>
      </g>
     </g>
    </g>
    <g id="xtick_6">
     <g id="line2d_11">
      <path d="M 568.572225 384.077969 
L 568.572225 23.077969 
" clip-path="url(#p27672bf988)" style="fill: none; stroke: #e2e8f0; stroke-opacity: 0.3; stroke-width: 0.5; stroke-linecap: square"/>
     </g>
     <g id="line2d_12">
      <g>
       <use xlink:href="#mbd50c73d25" x="568.572225" y="384.077969" style="fill: #2d3748; stroke: #2d3748; stroke-width: 0.8"/>
      </g>
     </g>
     <g id="text_6">
      <!-- 1.0 -->
      <g style="fill: #2d3748" transform="translate(560.620663 398.676406) scale(0.1 -0.1)">
       <defs>
        <path id="DejaVuSans-31" d="M 794 531 
L 1825 531 
L 1825 4091 
L 703 3866 
L 703 4441 
L 1819 4666 
L 2450 4666 
L 2450 531 
L 3481 531 
L 3481 0 
L 794 0 
L 794 531 
z
" transform="scale(0.015625)"/>
       </defs>
       <use xlink:href="#DejaVuSans-31"/>
       <use xlink:href="#DejaVuSans-2e" transform="translate(63.623047 0)"/>
       <use xlink:href="#DejaVuSans-30" transform="translate(95.410156 0)"/>
      </g>
     </g>
    </g>
    <g id="xtick_7">
     <g id="line2d_13">
      <path d="M 665.435256 384.077969 
L 665.435256 23.077969 
" clip-path="url(#p27672bf988)" style="fill: none; stroke: #e2e8f0; stroke-opacity: 0.3; stroke-width: 0.5; stroke-linecap: square"/>
     </g>
     <g id="line2d_14">
      <g>
       <use xlink:href="#mbd50c73d25" x="665.435256" y="384.077969" style="fill: #2d3748; stroke: #2d3748; stroke-width: 0.8"/>
      </g>
     </g>
     <g id="text_7">
      <!-- 1.2 -->
      <g style="fill: #2d3748" transform="translate(657.483693 398.676406) scale(0.1 -0.1)">
       <use xlink:href="#DejaVuSans-31"/>
       <use xlink:href="#DejaVuSans-2e" transform="translate(63.623047 0)"/>
       <use xlink:href="#DejaVuSans-32" transform="translate(95.410156 0)"/>
      </g>
     </g>
    </g>
    <g id="xtick_8">
     <g id="line2d_15">
      <path d="M 762.298286 384.077969 
L 762.298286 23.077969 
" clip-path="url(#p27672bf988)" style="fill: none; stroke: #e2e8f0; stroke-opacity: 0.3; stroke-width: 0.5; stroke-linecap: square"/>
     </g>
     <g id="line2d_16">
      <g>
       <use xlink:href="#mbd50c73d25" x="762.298286" y="384.077969" style="fill: #2d3748; stroke: #2d3748; stroke-width: 0.8"/>
      </g>
     </g>
     <g id="text_8">
      <!-- 1.4 -->
      <g style="fill: #2d3748" transform="translate(754.346723 398.676406) scale(0.1 -0.1)">
       <use xlink:href="#DejaVuSans-31"/>
       <use xlink:href="#DejaVuSans-2e" transform="translate(63.623047 0)"/>
       <use xlink:href="#DejaVuSans-34" transform="translate(95.410156 0)"/>
      </g>
     </g>
    </g>
    <g id="text_9">
     <!-- Temperature -->
     <g style="fill: #2d3748" transform="translate(412.656953 413.114375) scale(0.11 -0.11)">
      <defs>
       <path id="DejaVuSans-54" d="M -19 4666 
L 3928 4666 
L 3928 4134 
L 2272 4134 
L 2272 0 
L 1638 0 
L 1638 4134 
L -19 4134 
L -19 4666 
z
" transform="scale(0.015625)"/>
       <path id="DejaVuSans-65" d="M 3597 1894 
L 3597 1613 
L 953 1613 
Q 991 1019 1311 708 
Q 1631 397 2203 397 
Q 2534 397 2845 478 
Q 3156 559 3463 722 
L 3463 178 
Q 3153 47 2828 -22 
Q 2503 -91 2169 -91 
Q 1331 -91 842 396 
Q 353 884 353 1716 
Q 353 2575 817 3079 
Q 1281 3584 2069 3584 
Q 2775 3584 3186 3129 
Q 3597 2675 3597 1894 
z
M 3022 2063 
Q 3016 2534 2758 2815 
Q 2500 3097 2075 3097 
Q 1594 3097 1305 2825 
Q 1016 2553 972 2059 
L 3022 2063 
z
" transform="scale(0.015625)"/>
       <path id="DejaVuSans-6d" d="M 3328 2828 
Q 3544 3216 3844 3400 
Q 4144 3584 4550 3584 
Q 5097 3584 5394 3201 
Q 5691 2819 5691 2113 
L 5691 0 
L 5113 0 
L 5113 2094 
Q 5113 2597 4934 2840 
Q 4756 3084 4391 3084 
Q 3944 3084 3684 2787 
Q 3425 2491 3425 1978 
L 3425 0 
L 2847 0 
L 2847 2094 
Q 2847 2600 2669 2842 
Q 2491 3084 2119 3084 
Q 1678 3084 1418 2786 
Q 1159 2488 1159 1978 
L 1159 0 
L 581 0 
L 581 3500 
L 1159 3500 
L 1159 2956 
Q 1356 3278 1631 3431 
Q 1906 3584 2284 3584 
Q 2666 3584 2933 3390 
Q 3200 3197 3328 2828 
z
" transform="scale(0.015625)"/>
       <path id="DejaVuSans-70" d="M 1159 525 
L 1159 -1331 
L 581 -1331 
L 581 3500 
L 1159 3500 
L 1159 2969 
Q 1341 3281 1617 3432 
Q 1894 3584 2278 3584 
Q 2916 3584 3314 3078 
Q 3713 2572 3713 1747 
Q 3713 922 3314 415 
Q 2916 -91 2278 -91 
Q 1894 -91 1617 61 
Q 1341 213 1159 525 
z
M 3116 1747 
Q 3116 2381 2855 2742 
Q 2594 3103 2138 3103 
Q 1681 3103 1420 2742 
Q 1159 2381 1159 1747 
Q 1159 1113 1420 752 
Q 1681 391 2138 391 
Q 2594 391 2855 752 
Q 3116 1113 3116 1747 
z
" transform="scale(0.015625)"/>
       <path id="DejaVuSans-72" d="M 2631 2963 
Q 2534 3019 2420 3045 
Q 2306 3072 2169 3072 
Q 1681 3072 1420 2755 
Q 1159 2438 1159 1844 
L 1159 0 
L 581 0 
L 581 3500 
L 1159 3500 
L 1159 2956 
Q 1341 3275 1631 3429 
Q 1922 3584 2338 3584 
Q 2397 3584 2469 3576 
Q 2541 3569 2628 3553 
L 2631 2963 
z
" transform="scale(0.015625)"/>
       <path id="DejaVuSans-61" d="M 2194 1759 
Q 1497 1759 1228 1600 
Q 959 1441 959 1056 
Q 959 750 1161 570 
Q 1363 391 1709 391 
Q 2188 391 2477 730 
Q 2766 1069 2766 1631 
L 2766 1759 
L 2194 1759 
z
M 3341 1997 
L 3341 0 
L 2766 0 
L 2766 531 
Q 2569 213 2275 61 
Q 1981 -91 1556 -91 
Q 1019 -91 701 211 
Q 384 513 384 1019 
Q 384 1609 779 1909 
Q 1175 2209 1959 2209 
L 2766 2209 
L 2766 2266 
Q 2766 2663 2505 2880 
Q 2244 3097 1772 3097 
Q 1472 3097 1187 3025 
Q 903 2953 641 2809 
L 641 3341 
Q 956 3463 1253 3523 
Q 1550 3584 1831 3584 
Q 2591 3584 2966 3190 
Q 3341 2797 3341 1997 
z
" transform="scale(0.015625)"/>
       <path id="DejaVuSans-74" d="M 1172 4494 
L 1172 3500 
L 2356 3500 
L 2356 3053 
L 1172 3053 
L 1172 1153 
Q 1172 725 1289 603 
Q 1406 481 1766 481 
L 2356 481 
L 2356 0 
L 1766 0 
Q 1100 0 847 248 
Q 594 497 594 1153 
L 594 3053 
L 172 3053 
L 172 3500 
L 594 3500 
L 594 4494 
L 1172 4494 
z
" transform="scale(0.015625)"/>
       <path id="DejaVuSans-75" d="M 544 1381 
L 544 3500 
L 1119 3500 
L 1119 1403 
Q 1119 906 1312 657 
Q 1506 409 1894 409 
Q 2359 409 2629 706 
Q 2900 1003 2900 1516 
L 2900 3500 
L 3475 3500 
L 3475 0 
L 2900 0 
L 2900 538 
Q 2691 219 2414 64 
Q 2138 -91 1772 -91 
Q 1169 -91 856 284 
Q 544 659 544 1381 
z
M 1991 3584 
L 1991 3584 
z
" transform="scale(0.015625)"/>
      </defs>
      <use xlink:href="#DejaVuSans-54"/>
      <use xlink:href="#DejaVuSans-65" transform="translate(44.083984 0)"/>
      <use xlink:href="#DejaVuSans-6d" transform="translate(105.607422 0)"/>
      <use xlink:href="#DejaVuSans-70" transform="translate(203.019531 0)"/>
      <use xlink:href="#DejaVuSans-65" transform="translate(266.496094 0)"/>
      <use xlink:href="#DejaVuSans-72" transform="translate(328.019531 0)"/>
      <use xlink:href="#DejaVuSans-61" transform="translate(369.132812 0)"/>
      <use xlink:href="#DejaVuSans-74" transform="translate(430.412109 0)"/>
      <use xlink:href="#DejaVuSans-75" transform="translate(469.621094 0)"/>
      <use xlink:href="#DejaVuSans-72" transform="translate(533 0)"/>
      <use xlink:href="#DejaVuSans-65" transform="translate(571.863281 0)"/>
     </g>
    </g>
   </g>
   <g id="matplotlib.axis_2">
    <g id="ytick_1">
     <g id="line2d_17">
      <path d="M 47.933438 380.317143 
L 847.053437 380.317143 
" clip-path="url(#p27672bf988)" style="fill: none; stroke: #e2e8f0; stroke-opacity: 0.3; stroke-width: 0.5; stroke-linecap: square"/>
     </g>
     <g id="line2d_18">
      <defs>
       <path id="m0efb3518f6" d="M 0 0 
L -3.5 0 
" style="stroke: #2d3748; stroke-width: 0.8"/>
      </defs>
      <g>
       <use xlink:href="#m0efb3518f6" x="47.933438" y="380.317143" style="fill: #2d3748; stroke: #2d3748; stroke-width: 0.8"/>
      </g>
     </g>
     <g id="text_10">
      <!-- 20 -->
      <g style="fill: #2d3748" transform="translate(28.208438 384.116362) scale(0.1 -0.1)">
       <use xlink:href="#DejaVuSans-32"/>
       <use xlink:href="#DejaVuSans-30" transform="translate(63.623047 0)"/>
      </g>
     </g>
    </g>
    <g id="ytick_2">
     <g id="line2d_19">
      <path d="M 47.933438 333.99312 
L 847.053437 333.99312 
" clip-path="url(#p27672bf988)" style="fill: none; stroke: #e2e8f0; stroke-opacity: 0.3; stroke-width: 0.5; stroke-linecap: square"/>
     </g>
     <g id="line2d_20">
      <g>
       <use xlink:href="#m0efb3518f6" x="47.933438" y="333.99312" style="fill: #2d3748; stroke: #2d3748; stroke-width: 0.8"/>
      </g>
     </g>
     <g id="text_11">
      <!-- 40 -->
      <g style="fill: #2d3748" transform="translate(28.208438 337.792339) scale(0.1 -0.1)">
       <use xlink:href="#DejaVuSans-34"/>
       <use xlink:href="#DejaVuSans-30" transform="translate(63.623047 0)"/>
      </g>
     </g>
    </g>
    <g id="ytick_3">
     <g id="line2d_21">
      <path d="M 47.933438 287.669097 
L 847.053437 287.669097 
" clip-path="url(#p27672bf988)" style="fill: none; stroke: #e2e8f0; stroke-opacity: 0.3; stroke-width: 0.5; stroke-linecap: square"/>
     </g>
     <g id="line2d_22">
      <g>
       <use xlink:href="#m0efb3518f6" x="47.933438" y="287.669097" style="fill: #2d3748; stroke: #2d3748; stroke-width: 0.8"/>
      </g>
     </g>
     <g id="text_12">
      <!-- 60 -->
      <g style="fill: #2d3748" transform="translate(28.208438 291.468316) scale(0.1 -0.1)">
       <use xlink:href="#DejaVuSans-36"/>
       <use xlink:href="#DejaVuSans-30" transform="translate(63.623047 0)"/>
      </g>
     </g>
    </g>
    <g id="ytick_4">
     <g id="line2d_23">
      <path d="M 47.933438 241.345074 
L 847.053437 241.345074 
" clip-path="url(#p27672bf988)" style="fill: none; stroke: #e2e8f0; stroke-opacity: 0.3; stroke-width: 0.5; stroke-linecap: square"/>
     </g>
     <g id="line2d_24">
      <g>
       <use xlink:href="#m0efb3518f6" x="47.933438" y="241.345074" style="fill: #2d3748; stroke: #2d3748; stroke-width: 0.8"/>
      </g>
     </g>
     <g id="text_13">
      <!-- 80 -->
      <g style="fill: #2d3748" transform="translate(28.208438 245.144293) scale(0.1 -0.1)">
       <use xlink:href="#DejaVuSans-38"/>
       <use xlink:href="#DejaVuSans-30" transform="translate(63.623047 0)"/>
      </g>
     </g>
    </g>
    <g id="ytick_5">
     <g id="line2d_25">
      <path d="M 47.933438 195.021051 
L 847.053437 195.021051 
" clip-path="url(#p27672bf988)" style="fill: none; stroke: #e2e8f0; stroke-opacity: 0.3; stroke-width: 0.5; stroke-linecap: square"/>
     </g>
     <g id="line2d_26">
      <g>
       <use xlink:href="#m0efb3518f6" x="47.933438" y="195.021051" style="fill: #2d3748; stroke: #2d3748; stroke-width: 0.8"/>
      </g>
     </g>
     <g id="text_14">
      <!-- 100 -->
      <g style="fill: #2d3748" transform="translate(21.845938 198.82027) scale(0.1 -0.1)">
       <use xlink:href="#DejaVuSans-31"/>
       <use xlink:href="#DejaVuSans-30" transform="translate(63.623047 0)"/>
       <use xlink:href="#DejaVuSans-30" transform="translate(127.246094 0)"/>
      </g>
     </g>
    </g>
    <g id="ytick_6">
     <g id="line2d_27">
      <path d="M 47.933438 148.697028 
L 847.053437 148.697028 
" clip-path="url(#p27672bf988)" style="fill: none; stroke: #e2e8f0; stroke-opacity: 0.3; stroke-width: 0.5; stroke-linecap: square"/>
     </g>
     <g id="line2d_28">
      <g>
       <use xlink:href="#m0efb3518f6" x="47.933438" y="148.697028" style="fill: #2d3748; stroke: #2d3748; stroke-width: 0.8"/>
      </g>
     </g>
     <g id="text_15">
      <!-- 120 -->
      <g style="fill: #2d3748" transform="translate(21.845938 152.496247) scale(0.1 -0.1)">
       <use xlink:href="#DejaVuSans-31"/>
       <use xlink:href="#DejaVuSans-32" transform="translate(63.623047 0)"/>
       <use xlink:href="#DejaVuSans-30" transform="translate(127.246094 0)"/>
      </g>
     </g>
    </g>
    <g id="ytick_7">
     <g id="line2d_29">
      <path d="M 47.933438 102.373005 
L 847.053437 102.373005 
" clip-path="url(#p27672bf988)" style="fill: none; stroke: #e2e8f0; stroke-opacity: 0.3; stroke-width: 0.5; stroke-linecap: square"/>
     </g>
     <g id="line2d_30">
      <g>
       <use xlink:href="#m0efb3518f6" x="47.933438" y="102.373005" style="fill: #2d3748; stroke: #2d3748; stroke-width: 0.8"/>
      </g>
     </g>
     <g id="text_16">
      <!-- 140 -->
      <g style="fill: #2d3748" transform="translate(21.845938 106.172224) scale(0.1 -0.1)">
       <use xlink:href="#DejaVuSans-31"/>
       <use xlink:href="#DejaVuSans-34" transform="translate(63.623047 0)"/>
       <use xlink:href="#DejaVuSans-30" transform="translate(127.246094 0)"/>
      </g>
     </g>
    </g>
    <g id="ytick_8">
     <g id="line2d_31">
      <path d="M 47.933438 56.048982 
L 847.053437 56.048982 
" clip-path="url(#p27672bf988)" style="fill: none; stroke: #e2e8f0; stroke-opacity: 0.3; stroke-width: 0.5; stroke-linecap: square"/>
     </g>
     <g id="line2d_32">
      <g>
       <use xlink:href="#m0efb3518f6" x="47.933438" y="56.048982" style="fill: #2d3748; stroke: #2d3748; stroke-width: 0.8"/>
      </g>
     </g>
     <g id="text_17">
      <!-- 160 -->
      <g style="fill: #2d3748" transform="translate(21.845938 59.848201) scale(0.1 -0.1)">
       <use xlink:href="#DejaVuSans-31"/>
       <use xlink:href="#DejaVuSans-36" transform="translate(63.623047 0)"/>
       <use xlink:href="#DejaVuSans-30" transform="translate(127.246094 0)"/>
      </g>
     </g>
    </g>
    <g id="text_18">
     <!-- Sensitivity (α) -->
     <g style="fill: #2d3748" transform="translate(15.558281 241.876875) rotate(-90) scale(0.11 -0.11)">
      <defs>
       <path id="DejaVuSans-53" d="M 3425 4513 
L 3425 3897 
Q 3066 4069 2747 4153 
Q 2428 4238 2131 4238 
Q 1616 4238 1336 4038 
Q 1056 3838 1056 3469 
Q 1056 3159 1242 3001 
Q 1428 2844 1947 2747 
L 2328 2669 
Q 3034 2534 3370 2195 
Q 3706 1856 3706 1288 
Q 3706 609 3251 259 
Q 2797 -91 1919 -91 
Q 1588 -91 1214 -16 
Q 841 59 441 206 
L 441 856 
Q 825 641 1194 531 
Q 1563 422 1919 422 
Q 2459 422 2753 634 
Q 3047 847 3047 1241 
Q 3047 1584 2836 1778 
Q 2625 1972 2144 2069 
L 1759 2144 
Q 1053 2284 737 2584 
Q 422 2884 422 3419 
Q 422 4038 858 4394 
Q 1294 4750 2059 4750 
Q 2388 4750 2728 4690 
Q 3069 4631 3425 4513 
z
" transform="scale(0.015625)"/>
       <path id="DejaVuSans-6e" d="M 3513 2113 
L 3513 0 
L 2938 0 
L 2938 2094 
Q 2938 2591 2744 2837 
Q 2550 3084 2163 3084 
Q 1697 3084 1428 2787 
Q 1159 2491 1159 1978 
L 1159 0 
L 581 0 
L 581 3500 
L 1159 3500 
L 1159 2956 
Q 1366 3272 1645 3428 
Q 1925 3584 2291 3584 
Q 2894 3584 3203 3211 
Q 3513 2838 3513 2113 
z
" transform="scale(0.015625)"/>
       <path id="DejaVuSans-73" d="M 2834 3397 
L 2834 2853 
Q 2591 2978 2328 3040 
Q 2066 3103 1784 3103 
Q 1356 3103 1142 2972 
Q 928 2841 928 2578 
Q 928 2378 1081 2264 
Q 1234 2150 1697 2047 
L 1894 2003 
Q 2506 1872 2764 1633 
Q 3022 1394 3022 966 
Q 3022 478 2636 193 
Q 2250 -91 1575 -91 
Q 1294 -91 989 -36 
Q 684 19 347 128 
L 347 722 
Q 666 556 975 473 
Q 1284 391 1588 391 
Q 1994 391 2212 530 
Q 2431 669 2431 922 
Q 2431 1156 2273 1281 
Q 2116 1406 1581 1522 
L 1381 1569 
Q 847 1681 609 1914 
Q 372 2147 372 2553 
Q 372 3047 722 3315 
Q 1072 3584 1716 3584 
Q 2034 3584 2315 3537 
Q 2597 3491 2834 3397 
z
" transform="scale(0.015625)"/>
       <path id="DejaVuSans-69" d="M 603 3500 
L 1178 3500 
L 1178 0 
L 603 0 
L 603 3500 
z
M 603 4863 
L 1178 4863 
L 1178 4134 
L 603 4134 
L 603 4863 
z
" transform="scale(0.015625)"/>
       <path id="DejaVuSans-76" d="M 191 3500 
L 800 3500 
L 1894 563 
L 2988 3500 
L 3597 3500 
L 2284 0 
L 1503 0 
L 191 3500 
z
" transform="scale(0.015625)"/>
       <path id="DejaVuSans-79" d="M 2059 -325 
Q 1816 -950 1584 -1140 
Q 1353 -1331 966 -1331 
L 506 -1331 
L 506 -850 
L 844 -850 
Q 1081 -850 1212 -737 
Q 1344 -625 1503 -206 
L 1606 56 
L 191 3500 
L 800 3500 
L 1894 763 
L 2988 3500 
L 3597 3500 
L 2059 -325 
z
" transform="scale(0.015625)"/>
       <path id="DejaVuSans-20" transform="scale(0.015625)"/>
       <path id="DejaVuSans-28" d="M 1984 4856 
Q 1566 4138 1362 3434 
Q 1159 2731 1159 2009 
Q 1159 1288 1364 580 
Q 1569 -128 1984 -844 
L 1484 -844 
Q 1016 -109 783 600 
Q 550 1309 550 2009 
Q 550 2706 781 3412 
Q 1013 4119 1484 4856 
L 1984 4856 
z
" transform="scale(0.015625)"/>
       <path id="DejaVuSans-3b1" d="M 2644 1628 
L 2506 2350 
Q 2366 3091 1809 3091 
Q 1391 3091 1200 2747 
Q 959 2316 959 1747 
Q 959 1059 1194 731 
Q 1431 397 1809 397 
Q 2228 397 2453 1063 
L 2644 1628 
z
M 2966 2584 
L 3275 3500 
L 3788 3500 
L 3147 1603 
L 3272 919 
Q 3300 766 3409 638 
Q 3538 488 3638 488 
L 3913 488 
L 3913 0 
L 3569 0 
Q 3275 0 3013 263 
Q 2884 394 2831 669 
Q 2688 322 2394 50 
Q 2256 -78 1809 -78 
Q 1075 -78 719 397 
Q 353 888 353 1747 
Q 353 2666 750 3097 
Q 1191 3578 1809 3578 
Q 2781 3578 2966 2584 
z
" transform="scale(0.015625)"/>
       <path id="DejaVuSans-29" d="M 513 4856 
L 1013 4856 
Q 1481 4119 1714 3412 
Q 1947 2706 1947 2009 
Q 1947 1309 1714 600 
Q 1481 -109 1013 -844 
L 513 -844 
Q 928 -128 1133 580 
Q 1338 1288 1338 2009 
Q 1338 2731 1133 3434 
Q 928 4138 513 4856 
z
" transform="scale(0.015625)"/>
      </defs>
      <use xlink:href="#DejaVuSans-53"/>
      <use xlink:href="#DejaVuSans-65" transform="translate(63.476562 0)"/>
      <use xlink:href="#DejaVuSans-6e" transform="translate(125 0)"/>
      <use xlink:href="#DejaVuSans-73" transform="translate(188.378906 0)"/>
      <use xlink:href="#DejaVuSans-69" transform="translate(240.478516 0)"/>
      <use xlink:href="#DejaVuSans-74" transform="translate(268.261719 0)"/>
      <use xlink:href="#DejaVuSans-69" transform="translate(307.470703 0)"/>
      <use xlink:href="#DejaVuSans-76" transform="translate(335.253906 0)"/>
      <use xlink:href="#DejaVuSans-69" transform="translate(394.433594 0)"/>
      <use xlink:href="#DejaVuSans-74" transform="translate(422.216797 0)"/>
      <use xlink:href="#DejaVuSans-79" transform="translate(461.425781 0)"/>
      <use xlink:href="#DejaVuSans-20" transform="translate(520.605469 0)"/>
      <use xlink:href="#DejaVuSans-28" transform="translate(552.392578 0)"/>
      <use xlink:href="#DejaVuSans-3b1" transform="translate(591.40625 0)"/>
      <use xlink:href="#DejaVuSans-29" transform="translate(657.324219 0)"/>
     </g>
    </g>
   </g>
   <g id="LineCollection_1">
    <path d="M 84.257074 317.108954 
L 84.257074 146.17998 
" clip-path="url(#p27672bf988)" style="fill: none; stroke: #2c5282; stroke-width: 2"/>
    <path d="M 229.551619 342.972231 
L 229.551619 222.01571 
" clip-path="url(#p27672bf988)" style="fill: none; stroke: #2c5282; stroke-width: 2"/>
    <path d="M 423.27768 337.15078 
L 423.27768 229.958836 
" clip-path="url(#p27672bf988)" style="fill: none; stroke: #2c5282; stroke-width: 2"/>
    <path d="M 568.572225 365.099005 
L 568.572225 291.517491 
" clip-path="url(#p27672bf988)" style="fill: none; stroke: #2c5282; stroke-width: 2"/>
    <path d="M 810.729801 367.668878 
L 810.729801 306.734206 
" clip-path="url(#p27672bf988)" style="fill: none; stroke: #2c5282; stroke-width: 2"/>
   </g>
   <g id="line2d_33">
    <defs>
     <path id="mc73aed174c" d="M 4 0 
L -4 -0 
" style="stroke: #2c5282; stroke-width: 1.5"/>
    </defs>
    <g clip-path="url(#p27672bf988)">
     <use xlink:href="#mc73aed174c" x="84.257074" y="317.108954" style="fill: #2c5282; stroke: #2c5282; stroke-width: 1.5"/>
     <use xlink:href="#mc73aed174c" x="229.551619" y="342.972231" style="fill: #2c5282; stroke: #2c5282; stroke-width: 1.5"/>
     <use xlink:href="#mc73aed174c" x="423.27768" y="337.15078" style="fill: #2c5282; stroke: #2c5282; stroke-width: 1.5"/>
     <use xlink:href="#mc73aed174c" x="568.572225" y="365.099005" style="fill: #2c5282; stroke: #2c5282; stroke-width: 1.5"/>
     <use xlink:href="#mc73aed174c" x="810.729801" y="367.668878" style="fill: #2c5282; stroke: #2c5282; stroke-width: 1.5"/>
    </g>
   </g>
   <g id="line2d_34">
    <g clip-path="url(#p27672bf988)">
     <use xlink:href="#mc73aed174c" x="84.257074" y="146.17998" style="fill: #2c5282; stroke: #2c5282; stroke-width: 1.5"/>
     <use xlink:href="#mc73aed174c" x="229.551619" y="222.01571" style="fill: #2c5282; stroke: #2c5282; stroke-width: 1.5"/>
     <use xlink:href="#mc73aed174c" x="423.27768" y="229.958836" style="fill: #2c5282; stroke: #2c5282; stroke-width: 1.5"/>
     <use xlink:href="#mc73aed174c" x="568.572225" y="291.517491" style="fill: #2c5282; stroke: #2c5282; stroke-width: 1.5"/>
     <use xlink:href="#mc73aed174c" x="810.729801" y="306.734206" style="fill: #2c5282; stroke: #2c5282; stroke-width: 1.5"/>
    </g>
   </g>
   <g id="LineCollection_2">
    <path d="M 84.257074 254.338761 
L 84.257074 39.48706 
" clip-path="url(#p27672bf988)" style="fill: none; stroke: #ed8936; stroke-width: 2"/>
    <path d="M 229.551619 258.405239 
L 229.551619 47.219596 
" clip-path="url(#p27672bf988)" style="fill: none; stroke: #ed8936; stroke-width: 2"/>
    <path d="M 423.27768 275.097224 
L 423.27768 68.478463 
" clip-path="url(#p27672bf988)" style="fill: none; stroke: #ed8936; stroke-width: 2"/>
    <path d="M 568.572225 294.438315 
L 568.572225 134.567671 
" clip-path="url(#p27672bf988)" style="fill: none; stroke: #ed8936; stroke-width: 2"/>
    <path d="M 810.729801 344.313233 
L 810.729801 240.581433 
" clip-path="url(#p27672bf988)" style="fill: none; stroke: #ed8936; stroke-width: 2"/>
   </g>
   <g id="line2d_35">
    <defs>
     <path id="m4bebe03a40" d="M 4 0 
L -4 -0 
" style="stroke: #ed8936; stroke-width: 1.5"/>
    </defs>
    <g clip-path="url(#p27672bf988)">
     <use xlink:href="#m4bebe03a40" x="84.257074" y="254.338761" style="fill: #ed8936; stroke: #ed8936; stroke-width: 1.5"/>
     <use xlink:href="#m4bebe03a40" x="229.551619" y="258.405239" style="fill: #ed8936; stroke: #ed8936; stroke-width: 1.5"/>
     <use xlink:href="#m4bebe03a40" x="423.27768" y="275.097224" style="fill: #ed8936; stroke: #ed8936; stroke-width: 1.5"/>
     <use xlink:href="#m4bebe03a40" x="568.572225" y="294.438315" style="fill: #ed8936; stroke: #ed8936; stroke-width: 1.5"/>
     <use xlink:href="#m4bebe03a40" x="810.729801" y="344.313233" style="fill: #ed8936; stroke: #ed8936; stroke-width: 1.5"/>
    </g>
   </g>
   <g id="line2d_36">
    <g clip-path="url(#p27672bf988)">
     <use xlink:href="#m4bebe03a40" x="84.257074" y="39.48706" style="fill: #ed8936; stroke: #ed8936; stroke-width: 1.5"/>
     <use xlink:href="#m4bebe03a40" x="229.551619" y="47.219596" style="fill: #ed8936; stroke: #ed8936; stroke-width: 1.5"/>
     <use xlink:href="#m4bebe03a40" x="423.27768" y="68.478463" style="fill: #ed8936; stroke: #ed8936; stroke-width: 1.5"/>
     <use xlink:href="#m4bebe03a40" x="568.572225" y="134.567671" style="fill: #ed8936; stroke: #ed8936; stroke-width: 1.5"/>
     <use xlink:href="#m4bebe03a40" x="810.729801" y="240.581433" style="fill: #ed8936; stroke: #ed8936; stroke-width: 1.5"/>
    </g>
   </g>
   <g id="LineCollection_3">
    <path d="M 84.257074 323.398655 
L 84.257074 163.940036 
" clip-path="url(#p27672bf988)" style="fill: none; stroke: #48bb78; stroke-width: 2"/>
    <path d="M 181.120104 343.826061 
L 181.120104 238.089122 
" clip-path="url(#p27672bf988)" style="fill: none; stroke: #48bb78; stroke-width: 2"/>
    <path d="M 326.41465 317.775757 
L 326.41465 145.27568 
" clip-path="url(#p27672bf988)" style="fill: none; stroke: #48bb78; stroke-width: 2"/>
    <path d="M 471.709195 322.165382 
L 471.709195 159.558889 
" clip-path="url(#p27672bf988)" style="fill: none; stroke: #48bb78; stroke-width: 2"/>
    <path d="M 568.572225 340.938898 
L 568.572225 232.672967 
" clip-path="url(#p27672bf988)" style="fill: none; stroke: #48bb78; stroke-width: 2"/>
   </g>
   <g id="line2d_37">
    <defs>
     <path id="m67179ec7bd" d="M 4 0 
L -4 -0 
" style="stroke: #48bb78; stroke-width: 1.5"/>
    </defs>
    <g clip-path="url(#p27672bf988)">
     <use xlink:href="#m67179ec7bd" x="84.257074" y="323.398655" style="fill: #48bb78; stroke: #48bb78; stroke-width: 1.5"/>
     <use xlink:href="#m67179ec7bd" x="181.120104" y="343.826061" style="fill: #48bb78; stroke: #48bb78; stroke-width: 1.5"/>
     <use xlink:href="#m67179ec7bd" x="326.41465" y="317.775757" style="fill: #48bb78; stroke: #48bb78; stroke-width: 1.5"/>
     <use xlink:href="#m67179ec7bd" x="471.709195" y="322.165382" style="fill: #48bb78; stroke: #48bb78; stroke-width: 1.5"/>
     <use xlink:href="#m67179ec7bd" x="568.572225" y="340.938898" style="fill: #48bb78; stroke: #48bb78; stroke-width: 1.5"/>
    </g>
   </g>
   <g id="line2d_38">
    <g clip-path="url(#p27672bf988)">
     <use xlink:href="#m67179ec7bd" x="84.257074" y="163.940036" style="fill: #48bb78; stroke: #48bb78; stroke-width: 1.5"/>
     <use xlink:href="#m67179ec7bd" x="181.120104" y="238.089122" style="fill: #48bb78; stroke: #48bb78; stroke-width: 1.5"/>
     <use xlink:href="#m67179ec7bd" x="326.41465" y="145.27568" style="fill: #48bb78; stroke: #48bb78; stroke-width: 1.5"/>
     <use xlink:href="#m67179ec7bd" x="471.709195" y="159.558889" style="fill: #48bb78; stroke: #48bb78; stroke-width: 1.5"/>
     <use xlink:href="#m67179ec7bd" x="568.572225" y="232.672967" style="fill: #48bb78; stroke: #48bb78; stroke-width: 1.5"/>
    </g>
   </g>
   <g id="LineCollection_4">
    <path d="M 84.257074 290.326424 
L 84.257074 131.969782 
" clip-path="url(#p27672bf988)" style="fill: none; stroke: #9f7aea; stroke-width: 2"/>
    <path d="M 181.120104 338.232011 
L 181.120104 231.774508 
" clip-path="url(#p27672bf988)" style="fill: none; stroke: #9f7aea; stroke-width: 2"/>
    <path d="M 326.41465 305.433258 
L 326.41465 113.363866 
" clip-path="url(#p27672bf988)" style="fill: none; stroke: #9f7aea; stroke-width: 2"/>
    <path d="M 471.709195 343.317465 
L 471.709195 240.217824 
" clip-path="url(#p27672bf988)" style="fill: none; stroke: #9f7aea; stroke-width: 2"/>
    <path d="M 568.572225 321.737431 
L 568.572225 195.485942 
" clip-path="url(#p27672bf988)" style="fill: none; stroke: #9f7aea; stroke-width: 2"/>
   </g>
   <g id="line2d_39">
    <defs>
     <path id="m1797d49d6d" d="M 4 0 
L -4 -0 
" style="stroke: #9f7aea; stroke-width: 1.5"/>
    </defs>
    <g clip-path="url(#p27672bf988)">
     <use xlink:href="#m1797d49d6d" x="84.257074" y="290.326424" style="fill: #9f7aea; stroke: #9f7aea; stroke-width: 1.5"/>
     <use xlink:href="#m1797d49d6d" x="181.120104" y="338.232011" style="fill: #9f7aea; stroke: #9f7aea; stroke-width: 1.5"/>
     <use xlink:href="#m1797d49d6d" x="326.41465" y="305.433258" style="fill: #9f7aea; stroke: #9f7aea; stroke-width: 1.5"/>
     <use xlink:href="#m1797d49d6d" x="471.709195" y="343.317465" style="fill: #9f7aea; stroke: #9f7aea; stroke-width: 1.5"/>
     <use xlink:href="#m1797d49d6d" x="568.572225" y="321.737431" style="fill: #9f7aea; stroke: #9f7aea; stroke-width: 1.5"/>
    </g>
   </g>
   <g id="line2d_40">
    <g clip-path="url(#p27672bf988)">
     <use xlink:href="#m1797d49d6d" x="84.257074" y="131.969782" style="fill: #9f7aea; stroke: #9f7aea; stroke-width: 1.5"/>
     <use xlink:href="#m1797d49d6d" x="181.120104" y="231.774508" style="fill: #9f7aea; stroke: #9f7aea; stroke-width: 1.5"/>
     <use xlink:href="#m1797d49d6d" x="326.41465" y="113.363866" style="fill: #9f7aea; stroke: #9f7aea; stroke-width: 1.5"/>
     <use xlink:href="#m1797d49d6d" x="471.709195" y="240.217824" style="fill: #9f7aea; stroke: #9f7aea; stroke-width: 1.5"/>
     <use xlink:href="#m1797d49d6d" x="568.572225" y="195.485942" style="fill: #9f7aea; stroke: #9f7aea; stroke-width: 1.5"/>
    </g>
   </g>
   <g id="line2d_41">
    <path d="M 84.257074 255.062427 
L 229.551619 299.569704 
L 423.27768 296.189492 
L 568.572225 336.114462 
L 810.729801 343.148241 
" clip-path="url(#p27672bf988)" style="fill: none; stroke: #2c5282; stroke-width: 2; stroke-linecap: square"/>
    <defs>
     <path id="m642ad509e2" d="M 0 4 
C 1.060812 4 2.078319 3.578535 2.828427 2.828427 
C 3.578535 2.078319 4 1.060812 4 0 
C 4 -1.060812 3.578535 -2.078319 2.828427 -2.828427 
C 2.078319 -3.578535 1.060812 -4 0 -4 
C -1.060812 -4 -2.078319 -3.578535 -2.828427 -2.828427 
C -3.578535 -2.078319 -4 -1.060812 -4 0 
C -4 1.060812 -3.578535 2.078319 -2.828427 2.828427 
C -2.078319 3.578535 -1.060812 4 0 4 
z
" style="stroke: #2c5282"/>
    </defs>
    <g clip-path="url(#p27672bf988)">
     <use xlink:href="#m642ad509e2" x="84.257074" y="255.062427" style="fill: #2c5282; stroke: #2c5282"/>
     <use xlink:href="#m642ad509e2" x="229.551619" y="299.569704" style="fill: #2c5282; stroke: #2c5282"/>
     <use xlink:href="#m642ad509e2" x="423.27768" y="296.189492" style="fill: #2c5282; stroke: #2c5282"/>
     <use xlink:href="#m642ad509e2" x="568.572225" y="336.114462" style="fill: #2c5282; stroke: #2c5282"/>
     <use xlink:href="#m642ad509e2" x="810.729801" y="343.148241" style="fill: #2c5282; stroke: #2c5282"/>
    </g>
   </g>
   <g id="line2d_42">
    <path d="M 84.257074 171.002219 
L 229.551619 179.03946 
L 423.27768 196.279139 
L 568.572225 231.971434 
L 810.729801 305.809528 
" clip-path="url(#p27672bf988)" style="fill: none; stroke: #ed8936; stroke-width: 2; stroke-linecap: square"/>
    <defs>
     <path id="mc2848bcb4f" d="M -4 4 
L 4 4 
L 4 -4 
L -4 -4 
z
" style="stroke: #ed8936; stroke-linejoin: miter"/>
    </defs>
    <g clip-path="url(#p27672bf988)">
     <use xlink:href="#mc2848bcb4f" x="84.257074" y="171.002219" style="fill: #ed8936; stroke: #ed8936; stroke-linejoin: miter"/>
     <use xlink:href="#mc2848bcb4f" x="229.551619" y="179.03946" style="fill: #ed8936; stroke: #ed8936; stroke-linejoin: miter"/>
     <use xlink:href="#mc2848bcb4f" x="423.27768" y="196.279139" style="fill: #ed8936; stroke: #ed8936; stroke-linejoin: miter"/>
     <use xlink:href="#mc2848bcb4f" x="568.572225" y="231.971434" style="fill: #ed8936; stroke: #ed8936; stroke-linejoin: miter"/>
     <use xlink:href="#mc2848bcb4f" x="810.729801" y="305.809528" style="fill: #ed8936; stroke: #ed8936; stroke-linejoin: miter"/>
    </g>
   </g>
   <g id="line2d_43">
    <path d="M 84.257074 263.264466 
L 181.120104 304.90834 
L 326.41465 257.088571 
L 471.709195 263.213725 
L 568.572225 298.110185 
" clip-path="url(#p27672bf988)" style="fill: none; stroke-dasharray: 7.4,3.2; stroke-dashoffset: 0; stroke: #48bb78; stroke-width: 2"/>
    <defs>
     <path id="m5f142cdd90" d="M 0 4 
C 1.060812 4 2.078319 3.578535 2.828427 2.828427 
C 3.578535 2.078319 4 1.060812 4 0 
C 4 -1.060812 3.578535 -2.078319 2.828427 -2.828427 
C 2.078319 -3.578535 1.060812 -4 0 -4 
C -1.060812 -4 -2.078319 -3.578535 -2.828427 -2.828427 
C -3.578535 -2.078319 -4 -1.060812 -4 0 
C -4 1.060812 -3.578535 2.078319 -2.828427 2.828427 
C -2.078319 3.578535 -1.060812 4 0 4 
z
" style="stroke: #48bb78"/>
    </defs>
    <g clip-path="url(#p27672bf988)">
     <use xlink:href="#m5f142cdd90" x="84.257074" y="263.264466" style="fill: #48bb78; stroke: #48bb78"/>
     <use xlink:href="#m5f142cdd90" x="181.120104" y="304.90834" style="fill: #48bb78; stroke: #48bb78"/>
     <use xlink:href="#m5f142cdd90" x="326.41465" y="257.088571" style="fill: #48bb78; stroke: #48bb78"/>
     <use xlink:href="#m5f142cdd90" x="471.709195" y="263.213725" style="fill: #48bb78; stroke: #48bb78"/>
     <use xlink:href="#m5f142cdd90" x="568.572225" y="298.110185" style="fill: #48bb78; stroke: #48bb78"/>
    </g>
   </g>
   <g id="line2d_44">
    <path d="M 84.257074 228.840415 
L 181.120104 296.739606 
L 326.41465 236.112257 
L 471.709195 303.823901 
L 568.572225 272.731395 
" clip-path="url(#p27672bf988)" style="fill: none; stroke-dasharray: 7.4,3.2; stroke-dashoffset: 0; stroke: #9f7aea; stroke-width: 2"/>
    <defs>
     <path id="m857969a1ea" d="M -4 4 
L 4 4 
L 4 -4 
L -4 -4 
z
" style="stroke: #9f7aea; stroke-linejoin: miter"/>
    </defs>
    <g clip-path="url(#p27672bf988)">
     <use xlink:href="#m857969a1ea" x="84.257074" y="228.840415" style="fill: #9f7aea; stroke: #9f7aea; stroke-linejoin: miter"/>
     <use xlink:href="#m857969a1ea" x="181.120104" y="296.739606" style="fill: #9f7aea; stroke: #9f7aea; stroke-linejoin: miter"/>
     <use xlink:href="#m857969a1ea" x="326.41465" y="236.112257" style="fill: #9f7aea; stroke: #9f7aea; stroke-linejoin: miter"/>
     <use xlink:href="#m857969a1ea" x="471.709195" y="303.823901" style="fill: #9f7aea; stroke: #9f7aea; stroke-linejoin: miter"/>
     <use xlink:href="#m857969a1ea" x="568.572225" y="272.731395" style="fill: #9f7aea; stroke: #9f7aea; stroke-linejoin: miter"/>
    </g>
   </g>
   <g id="patch_3">
    <path d="M 47.933438 384.077969 
L 47.933438 23.077969 
" style="fill: none; stroke: #2d3748; stroke-width: 0.8; stroke-linejoin: miter; stroke-linecap: square"/>
   </g>
   <g id="patch_4">
    <path d="M 47.933438 384.077969 
L 847.053437 384.077969 
" style="fill: none; stroke: #2d3748; stroke-width: 0.8; stroke-linejoin: miter; stroke-linecap: square"/>
   </g>
   <g id="text_19">
    <!-- Temperature–Sensitivity Trajectories: All Factorial Cells -->
    <g style="fill: #2d3748" transform="translate(270.256719 17.077969) scale(0.13 -0.13)">
     <defs>
      <path id="DejaVuSans-2013" d="M 313 1978 
L 2888 1978 
L 2888 1528 
L 313 1528 
L 313 1978 
z
" transform="scale(0.015625)"/>
      <path id="DejaVuSans-6a" d="M 603 3500 
L 1178 3500 
L 1178 -63 
Q 1178 -731 923 -1031 
Q 669 -1331 103 -1331 
L -116 -1331 
L -116 -844 
L 38 -844 
Q 366 -844 484 -692 
Q 603 -541 603 -63 
L 603 3500 
z
M 603 4863 
L 1178 4863 
L 1178 4134 
L 603 4134 
L 603 4863 
z
" transform="scale(0.015625)"/>
      <path id="DejaVuSans-63" d="M 3122 3366 
L 3122 2828 
Q 2878 2963 2633 3030 
Q 2388 3097 2138 3097 
Q 1578 3097 1268 2742 
Q 959 2388 959 1747 
Q 959 1106 1268 751 
Q 1578 397 2138 397 
Q 2388 397 2633 464 
Q 2878 531 3122 666 
L 3122 134 
Q 2881 22 2623 -34 
Q 2366 -91 2075 -91 
Q 1284 -91 818 406 
Q 353 903 353 1747 
Q 353 2603 823 3093 
Q 1294 3584 2113 3584 
Q 2378 3584 2631 3529 
Q 2884 3475 3122 3366 
z
" transform="scale(0.015625)"/>
      <path id="DejaVuSans-6f" d="M 1959 3097 
Q 1497 3097 1228 2736 
Q 959 2375 959 1747 
Q 959 1119 1226 758 
Q 1494 397 1959 397 
Q 2419 397 2687 759 
Q 2956 1122 2956 1747 
Q 2956 2369 2687 2733 
Q 2419 3097 1959 3097 
z
M 1959 3584 
Q 2709 3584 3137 3096 
Q 3566 2609 3566 1747 
Q 3566 888 3137 398 
Q 2709 -91 1959 -91 
Q 1206 -91 779 398 
Q 353 888 353 1747 
Q 353 2609 779 3096 
Q 1206 3584 1959 3584 
z
" transform="scale(0.015625)"/>
      <path id="DejaVuSans-3a" d="M 750 794 
L 1409 794 
L 1409 0 
L 750 0 
L 750 794 
z
M 750 3309 
L 1409 3309 
L 1409 2516 
L 750 2516 
L 750 3309 
z
" transform="scale(0.015625)"/>
      <path id="DejaVuSans-41" d="M 2188 4044 
L 1331 1722 
L 3047 1722 
L 2188 4044 
z
M 1831 4666 
L 2547 4666 
L 4325 0 
L 3669 0 
L 3244 1197 
L 1141 1197 
L 716 0 
L 50 0 
L 1831 4666 
z
" transform="scale(0.015625)"/>
      <path id="DejaVuSans-6c" d="M 603 4863 
L 1178 4863 
L 1178 0 
L 603 0 
L 603 4863 
z
" transform="scale(0.015625)"/>
      <path id="DejaVuSans-46" d="M 628 4666 
L 3309 4666 
L 3309 4134 
L 1259 4134 
L 1259 2759 
L 3109 2759 
L 3109 2228 
L 1259 2228 
L 1259 0 
L 628 0 
L 628 4666 
z
" transform="scale(0.015625)"/>
      <path id="DejaVuSans-43" d="M 4122 4306 
L 4122 3641 
Q 3803 3938 3442 4084 
Q 3081 4231 2675 4231 
Q 1875 4231 1450 3742 
Q 1025 3253 1025 2328 
Q 1025 1406 1450 917 
Q 1875 428 2675 428 
Q 3081 428 3442 575 
Q 3803 722 4122 1019 
L 4122 359 
Q 3791 134 3420 21 
Q 3050 -91 2638 -91 
Q 1578 -91 968 557 
Q 359 1206 359 2328 
Q 359 3453 968 4101 
Q 1578 4750 2638 4750 
Q 3056 4750 3426 4639 
Q 3797 4528 4122 4306 
z
" transform="scale(0.015625)"/>
     </defs>
     <use xlink:href="#DejaVuSans-54"/>
     <use xlink:href="#DejaVuSans-65" transform="translate(44.083984 0)"/>
     <use xlink:href="#DejaVuSans-6d" transform="translate(105.607422 0)"/>
     <use xlink:href="#DejaVuSans-70" transform="translate(203.019531 0)"/>
     <use xlink:href="#DejaVuSans-65" transform="translate(266.496094 0)"/>
     <use xlink:href="#DejaVuSans-72" transform="translate(328.019531 0)"/>
     <use xlink:href="#DejaVuSans-61" transform="translate(369.132812 0)"/>
     <use xlink:href="#DejaVuSans-74" transform="translate(430.412109 0)"/>
     <use xlink:href="#DejaVuSans-75" transform="translate(469.621094 0)"/>
     <use xlink:href="#DejaVuSans-72" transform="translate(533 0)"/>
     <use xlink:href="#DejaVuSans-65" transform="translate(571.863281 0)"/>
     <use xlink:href="#DejaVuSans-2013" transform="translate(633.386719 0)"/>
     <use xlink:href="#DejaVuSans-53" transform="translate(683.386719 0)"/>
     <use xlink:href="#DejaVuSans-65" transform="translate(746.863281 0)"/>
     <use xlink:href="#DejaVuSans-6e" transform="translate(808.386719 0)"/>
     <use xlink:href="#DejaVuSans-73" transform="translate(871.765625 0)"/>
     <use xlink:href="#DejaVuSans-69" transform="translate(923.865234 0)"/>
     <use xlink:href="#DejaVuSans-74" transform="translate(951.648438 0)"/>
     <use xlink:href="#DejaVuSans-69" transform="translate(990.857422 0)"/>
     <use xlink:href="#DejaVuSans-76" transform="translate(1018.640625 0)"/>
     <use xlink:href="#DejaVuSans-69" transform="translate(1077.820312 0)"/>
     <use xlink:href="#DejaVuSans-74" transform="translate(1105.603516 0)"/>
     <use xlink:href="#DejaVuSans-79" transform="translate(1144.8125 0)"/>
     <use xlink:href="#DejaVuSans-20" transform="translate(1203.992188 0)"/>
     <use xlink:href="#DejaVuSans-54" transform="translate(1235.779297 0)"/>
     <use xlink:href="#DejaVuSans-72" transform="translate(1282.113281 0)"/>
     <use xlink:href="#DejaVuSans-61" transform="translate(1323.226562 0)"/>
     <use xlink:href="#DejaVuSans-6a" transform="translate(1384.505859 0)"/>
     <use xlink:href="#DejaVuSans-65" transform="translate(1412.289062 0)"/>
     <use xlink:href="#DejaVuSans-63" transform="translate(1473.8125 0)"/>
     <use xlink:href="#DejaVuSans-74" transform="translate(1528.792969 0)"/>
     <use xlink:href="#DejaVuSans-6f" transform="translate(1568.001953 0)"/>
     <use xlink:href="#DejaVuSans-72" transform="translate(1629.183594 0)"/>
     <use xlink:href="#DejaVuSans-69" transform="translate(1670.296875 0)"/>
     <use xlink:href="#DejaVuSans-65" transform="translate(1698.080078 0)"/>
     <use xlink:href="#DejaVuSans-73" transform="translate(1759.603516 0)"/>
     <use xlink:href="#DejaVuSans-3a" transform="translate(1811.703125 0)"/>
     <use xlink:href="#DejaVuSans-20" transform="translate(1845.394531 0)"/>
     <use xlink:href="#DejaVuSans-41" transform="translate(1877.181641 0)"/>
     <use xlink:href="#DejaVuSans-6c" transform="translate(1945.589844 0)"/>
     <use xlink:href="#DejaVuSans-6c" transform="translate(1973.373047 0)"/>
     <use xlink:href="#DejaVuSans-20" transform="translate(2001.15625 0)"/>
     <use xlink:href="#DejaVuSans-46" transform="translate(2032.943359 0)"/>
     <use xlink:href="#DejaVuSans-61" transform="translate(2081.337891 0)"/>
     <use xlink:href="#DejaVuSans-63" transform="translate(2142.617188 0)"/>
     <use xlink:href="#DejaVuSans-74" transform="translate(2197.597656 0)"/>
     <use xlink:href="#DejaVuSans-6f" transform="translate(2236.806641 0)"/>
     <use xlink:href="#DejaVuSans-72" transform="translate(2297.988281 0)"/>
     <use xlink:href="#DejaVuSans-69" transform="translate(2339.101562 0)"/>
     <use xlink:href="#DejaVuSans-61" transform="translate(2366.884766 0)"/>
     <use xlink:href="#DejaVuSans-6c" transform="translate(2428.164062 0)"/>
     <use xlink:href="#DejaVuSans-20" transform="translate(2455.947266 0)"/>
     <use xlink:href="#DejaVuSans-43" transform="translate(2487.734375 0)"/>
     <use xlink:href="#DejaVuSans-65" transform="translate(2557.558594 0)"/>
     <use xlink:href="#DejaVuSans-6c" transform="translate(2619.082031 0)"/>
     <use xlink:href="#DejaVuSans-6c" transform="translate(2646.865234 0)"/>
     <use xlink:href="#DejaVuSans-73" transform="translate(2674.648438 0)"/>
    </g>
   </g>
   <g id="legend_1">
    <g id="patch_5">
     <path d="M 709.1925 89.790469 
L 840.053437 89.790469 
Q 842.053437 89.790469 842.053437 87.790469 
L 842.053437 30.077969 
Q 842.053437 28.077969 840.053437 28.077969 
L 709.1925 28.077969 
Q 707.1925 28.077969 707.1925 30.077969 
L 707.1925 87.790469 
Q 707.1925 89.790469 709.1925 89.790469 
z
" style="fill: #ffffff; opacity: 0.9; stroke: #e2e8f0; stroke-linejoin: miter"/>
    </g>
    <g id="LineCollection_5">
     <path d="M 721.1925 41.176406 
L 721.1925 31.176406 
" style="fill: none; stroke: #2c5282; stroke-width: 2"/>
    </g>
    <g id="line2d_45">
     <g>
      <use xlink:href="#mc73aed174c" x="721.1925" y="41.176406" style="fill: #2c5282; stroke: #2c5282; stroke-width: 1.5"/>
     </g>
    </g>
    <g id="line2d_46">
     <g>
      <use xlink:href="#mc73aed174c" x="721.1925" y="31.176406" style="fill: #2c5282; stroke: #2c5282; stroke-width: 1.5"/>
     </g>
    </g>
    <g id="line2d_47">
     <path d="M 711.1925 36.176406 
L 731.1925 36.176406 
" style="fill: none; stroke: #2c5282; stroke-width: 2; stroke-linecap: square"/>
    </g>
    <g id="line2d_48">
     <g>
      <use xlink:href="#m642ad509e2" x="721.1925" y="36.176406" style="fill: #2c5282; stroke: #2c5282"/>
     </g>
    </g>
    <g id="text_20">
     <!-- GPT-4o × Insurance -->
     <g style="fill: #2d3748" transform="translate(739.1925 39.676406) scale(0.1 -0.1)">
      <defs>
       <path id="DejaVuSans-47" d="M 3809 666 
L 3809 1919 
L 2778 1919 
L 2778 2438 
L 4434 2438 
L 4434 434 
Q 4069 175 3628 42 
Q 3188 -91 2688 -91 
Q 1594 -91 976 548 
Q 359 1188 359 2328 
Q 359 3472 976 4111 
Q 1594 4750 2688 4750 
Q 3144 4750 3555 4637 
Q 3966 4525 4313 4306 
L 4313 3634 
Q 3963 3931 3569 4081 
Q 3175 4231 2741 4231 
Q 1884 4231 1454 3753 
Q 1025 3275 1025 2328 
Q 1025 1384 1454 906 
Q 1884 428 2741 428 
Q 3075 428 3337 486 
Q 3600 544 3809 666 
z
" transform="scale(0.015625)"/>
       <path id="DejaVuSans-50" d="M 1259 4147 
L 1259 2394 
L 2053 2394 
Q 2494 2394 2734 2622 
Q 2975 2850 2975 3272 
Q 2975 3691 2734 3919 
Q 2494 4147 2053 4147 
L 1259 4147 
z
M 628 4666 
L 2053 4666 
Q 2838 4666 3239 4311 
Q 3641 3956 3641 3272 
Q 3641 2581 3239 2228 
Q 2838 1875 2053 1875 
L 1259 1875 
L 1259 0 
L 628 0 
L 628 4666 
z
" transform="scale(0.015625)"/>
       <path id="DejaVuSans-2d" d="M 313 2009 
L 1997 2009 
L 1997 1497 
L 313 1497 
L 313 2009 
z
" transform="scale(0.015625)"/>
       <path id="DejaVuSans-d7" d="M 4488 3438 
L 3059 2003 
L 4488 575 
L 4116 197 
L 2681 1631 
L 1247 197 
L 878 575 
L 2303 2003 
L 878 3438 
L 1247 3816 
L 2681 2381 
L 4116 3816 
L 4488 3438 
z
" transform="scale(0.015625)"/>
       <path id="DejaVuSans-49" d="M 628 4666 
L 1259 4666 
L 1259 0 
L 628 0 
L 628 4666 
z
" transform="scale(0.015625)"/>
      </defs>
      <use xlink:href="#DejaVuSans-47"/>
      <use xlink:href="#DejaVuSans-50" transform="translate(77.490234 0)"/>
      <use xlink:href="#DejaVuSans-54" transform="translate(137.792969 0)"/>
      <use xlink:href="#DejaVuSans-2d" transform="translate(189.751953 0)"/>
      <use xlink:href="#DejaVuSans-34" transform="translate(225.835938 0)"/>
      <use xlink:href="#DejaVuSans-6f" transform="translate(289.458984 0)"/>
      <use xlink:href="#DejaVuSans-20" transform="translate(350.640625 0)"/>
      <use xlink:href="#DejaVuSans-d7" transform="translate(382.427734 0)"/>
      <use xlink:href="#DejaVuSans-20" transform="translate(466.216797 0)"/>
      <use xlink:href="#DejaVuSans-49" transform="translate(498.003906 0)"/>
      <use xlink:href="#DejaVuSans-6e" transform="translate(527.496094 0)"/>
      <use xlink:href="#DejaVuSans-73" transform="translate(590.875 0)"/>
      <use xlink:href="#DejaVuSans-75" transform="translate(642.974609 0)"/>
      <use xlink:href="#DejaVuSans-72" transform="translate(706.353516 0)"/>
      <use xlink:href="#DejaVuSans-61" transform="translate(747.466797 0)"/>
      <use xlink:href="#DejaVuSans-6e" transform="translate(808.746094 0)"/>
      <use xlink:href="#DejaVuSans-63" transform="translate(872.125 0)"/>
      <use xlink:href="#DejaVuSans-65" transform="translate(927.105469 0)"/>
     </g>
    </g>
    <g id="LineCollection_6">
     <path d="M 721.1925 55.854531 
L 721.1925 45.854531 
" style="fill: none; stroke: #ed8936; stroke-width: 2"/>
    </g>
    <g id="line2d_49">
     <g>
      <use xlink:href="#m4bebe03a40" x="721.1925" y="55.854531" style="fill: #ed8936; stroke: #ed8936; stroke-width: 1.5"/>
     </g>
    </g>
    <g id="line2d_50">
     <g>
      <use xlink:href="#m4bebe03a40" x="721.1925" y="45.854531" style="fill: #ed8936; stroke: #ed8936; stroke-width: 1.5"/>
     </g>
    </g>
    <g id="line2d_51">
     <path d="M 711.1925 50.854531 
L 731.1925 50.854531 
" style="fill: none; stroke: #ed8936; stroke-width: 2; stroke-linecap: square"/>
    </g>
    <g id="line2d_52">
     <g>
      <use xlink:href="#mc2848bcb4f" x="721.1925" y="50.854531" style="fill: #ed8936; stroke: #ed8936; stroke-linejoin: miter"/>
     </g>
    </g>
    <g id="text_21">
     <!-- GPT-4o × Ellsberg -->
     <g style="fill: #2d3748" transform="translate(739.1925 54.354531) scale(0.1 -0.1)">
      <defs>
       <path id="DejaVuSans-45" d="M 628 4666 
L 3578 4666 
L 3578 4134 
L 1259 4134 
L 1259 2753 
L 3481 2753 
L 3481 2222 
L 1259 2222 
L 1259 531 
L 3634 531 
L 3634 0 
L 628 0 
L 628 4666 
z
" transform="scale(0.015625)"/>
       <path id="DejaVuSans-62" d="M 3116 1747 
Q 3116 2381 2855 2742 
Q 2594 3103 2138 3103 
Q 1681 3103 1420 2742 
Q 1159 2381 1159 1747 
Q 1159 1113 1420 752 
Q 1681 391 2138 391 
Q 2594 391 2855 752 
Q 3116 1113 3116 1747 
z
M 1159 2969 
Q 1341 3281 1617 3432 
Q 1894 3584 2278 3584 
Q 2916 3584 3314 3078 
Q 3713 2572 3713 1747 
Q 3713 922 3314 415 
Q 2916 -91 2278 -91 
Q 1894 -91 1617 61 
Q 1341 213 1159 525 
L 1159 0 
L 581 0 
L 581 4863 
L 1159 4863 
L 1159 2969 
z
" transform="scale(0.015625)"/>
       <path id="DejaVuSans-67" d="M 2906 1791 
Q 2906 2416 2648 2759 
Q 2391 3103 1925 3103 
Q 1463 3103 1205 2759 
Q 947 2416 947 1791 
Q 947 1169 1205 825 
Q 1463 481 1925 481 
Q 2391 481 2648 825 
Q 2906 1169 2906 1791 
z
M 3481 434 
Q 3481 -459 3084 -895 
Q 2688 -1331 1869 -1331 
Q 1566 -1331 1297 -1286 
Q 1028 -1241 775 -1147 
L 775 -588 
Q 1028 -725 1275 -790 
Q 1522 -856 1778 -856 
Q 2344 -856 2625 -561 
Q 2906 -266 2906 331 
L 2906 616 
Q 2728 306 2450 153 
Q 2172 0 1784 0 
Q 1141 0 747 490 
Q 353 981 353 1791 
Q 353 2603 747 3093 
Q 1141 3584 1784 3584 
Q 2172 3584 2450 3431 
Q 2728 3278 2906 2969 
L 2906 3500 
L 3481 3500 
L 3481 434 
z
" transform="scale(0.015625)"/>
      </defs>
      <use xlink:href="#DejaVuSans-47"/>
      <use xlink:href="#DejaVuSans-50" transform="translate(77.490234 0)"/>
      <use xlink:href="#DejaVuSans-54" transform="translate(137.792969 0)"/>
      <use xlink:href="#DejaVuSans-2d" transform="translate(189.751953 0)"/>
      <use xlink:href="#DejaVuSans-34" transform="translate(225.835938 0)"/>
      <use xlink:href="#DejaVuSans-6f" transform="translate(289.458984 0)"/>
      <use xlink:href="#DejaVuSans-20" transform="translate(350.640625 0)"/>
      <use xlink:href="#DejaVuSans-d7" transform="translate(382.427734 0)"/>
      <use xlink:href="#DejaVuSans-20" transform="translate(466.216797 0)"/>
      <use xlink:href="#DejaVuSans-45" transform="translate(498.003906 0)"/>
      <use xlink:href="#DejaVuSans-6c" transform="translate(561.1875 0)"/>
      <use xlink:href="#DejaVuSans-6c" transform="translate(588.970703 0)"/>
      <use xlink:href="#DejaVuSans-73" transform="translate(616.753906 0)"/>
      <use xlink:href="#DejaVuSans-62" transform="translate(668.853516 0)"/>
      <use xlink:href="#DejaVuSans-65" transform="translate(732.330078 0)"/>
      <use xlink:href="#DejaVuSans-72" transform="translate(793.853516 0)"/>
      <use xlink:href="#DejaVuSans-67" transform="translate(833.216797 0)"/>
     </g>
    </g>
    <g id="LineCollection_7">
     <path d="M 721.1925 70.532656 
L 721.1925 60.532656 
" style="fill: none; stroke: #48bb78; stroke-width: 2"/>
    </g>
    <g id="line2d_53">
     <g>
      <use xlink:href="#m67179ec7bd" x="721.1925" y="70.532656" style="fill: #48bb78; stroke: #48bb78; stroke-width: 1.5"/>
     </g>
    </g>
    <g id="line2d_54">
     <g>
      <use xlink:href="#m67179ec7bd" x="721.1925" y="60.532656" style="fill: #48bb78; stroke: #48bb78; stroke-width: 1.5"/>
     </g>
    </g>
    <g id="line2d_55">
     <path d="M 711.1925 65.532656 
L 731.1925 65.532656 
" style="fill: none; stroke-dasharray: 7.4,3.2; stroke-dashoffset: 0; stroke: #48bb78; stroke-width: 2"/>
    </g>
    <g id="line2d_56">
     <g>
      <use xlink:href="#m5f142cdd90" x="721.1925" y="65.532656" style="fill: #48bb78; stroke: #48bb78"/>
     </g>
    </g>
    <g id="text_22">
     <!-- Claude × Insurance -->
     <g style="fill: #2d3748" transform="translate(739.1925 69.032656) scale(0.1 -0.1)">
      <defs>
       <path id="DejaVuSans-64" d="M 2906 2969 
L 2906 4863 
L 3481 4863 
L 3481 0 
L 2906 0 
L 2906 525 
Q 2725 213 2448 61 
Q 2172 -91 1784 -91 
Q 1150 -91 751 415 
Q 353 922 353 1747 
Q 353 2572 751 3078 
Q 1150 3584 1784 3584 
Q 2172 3584 2448 3432 
Q 2725 3281 2906 2969 
z
M 947 1747 
Q 947 1113 1208 752 
Q 1469 391 1925 391 
Q 2381 391 2643 752 
Q 2906 1113 2906 1747 
Q 2906 2381 2643 2742 
Q 2381 3103 1925 3103 
Q 1469 3103 1208 2742 
Q 947 2381 947 1747 
z
" transform="scale(0.015625)"/>
      </defs>
      <use xlink:href="#DejaVuSans-43"/>
      <use xlink:href="#DejaVuSans-6c" transform="translate(69.824219 0)"/>
      <use xlink:href="#DejaVuSans-61" transform="translate(97.607422 0)"/>
      <use xlink:href="#DejaVuSans-75" transform="translate(158.886719 0)"/>
      <use xlink:href="#DejaVuSans-64" transform="translate(222.265625 0)"/>
      <use xlink:href="#DejaVuSans-65" transform="translate(285.742188 0)"/>
      <use xlink:href="#DejaVuSans-20" transform="translate(347.265625 0)"/>
      <use xlink:href="#DejaVuSans-d7" transform="translate(379.052734 0)"/>
      <use xlink:href="#DejaVuSans-20" transform="translate(462.841797 0)"/>
      <use xlink:href="#DejaVuSans-49" transform="translate(494.628906 0)"/>
      <use xlink:href="#DejaVuSans-6e" transform="translate(524.121094 0)"/>
      <use xlink:href="#DejaVuSans-73" transform="translate(587.5 0)"/>
      <use xlink:href="#DejaVuSans-75" transform="translate(639.599609 0)"/>
      <use xlink:href="#DejaVuSans-72" transform="translate(702.978516 0)"/>
      <use xlink:href="#DejaVuSans-61" transform="translate(744.091797 0)"/>
      <use xlink:href="#DejaVuSans-6e" transform="translate(805.371094 0)"/>
      <use xlink:href="#DejaVuSans-63" transform="translate(868.75 0)"/>
      <use xlink:href="#DejaVuSans-65" transform="translate(923.730469 0)"/>
     </g>
    </g>
    <g id="LineCollection_8">
     <path d="M 721.1925 85.210781 
L 721.1925 75.210781 
" style="fill: none; stroke: #9f7aea; stroke-width: 2"/>
    </g>
    <g id="line2d_57">
     <g>
      <use xlink:href="#m1797d49d6d" x="721.1925" y="85.210781" style="fill: #9f7aea; stroke: #9f7aea; stroke-width: 1.5"/>
     </g>
    </g>
    <g id="line2d_58">
     <g>
      <use xlink:href="#m1797d49d6d" x="721.1925" y="75.210781" style="fill: #9f7aea; stroke: #9f7aea; stroke-width: 1.5"/>
     </g>
    </g>
    <g id="line2d_59">
     <path d="M 711.1925 80.210781 
L 731.1925 80.210781 
" style="fill: none; stroke-dasharray: 7.4,3.2; stroke-dashoffset: 0; stroke: #9f7aea; stroke-width: 2"/>
    </g>
    <g id="line2d_60">
     <g>
      <use xlink:href="#m857969a1ea" x="721.1925" y="80.210781" style="fill: #9f7aea; stroke: #9f7aea; stroke-linejoin: miter"/>
     </g>
    </g>
    <g id="text_23">
     <!-- Claude × Ellsberg -->
     <g style="fill: #2d3748" transform="translate(739.1925 83.710781) scale(0.1 -0.1)">
      <use xlink:href="#DejaVuSans-43"/>
      <use xlink:href="#DejaVuSans-6c" transform="translate(69.824219 0)"/>
      <use xlink:href="#DejaVuSans-61" transform="translate(97.607422 0)"/>
      <use xlink:href="#DejaVuSans-75" transform="translate(158.886719 0)"/>
      <use xlink:href="#DejaVuSans-64" transform="translate(222.265625 0)"/>
      <use xlink:href="#DejaVuSans-65" transform="translate(285.742188 0)"/>
      <use xlink:href="#DejaVuSans-20" transform="translate(347.265625 0)"/>
      <use xlink:href="#DejaVuSans-d7" transform="translate(379.052734 0)"/>
      <use xlink:href="#DejaVuSans-20" transform="translate(462.841797 0)"/>
      <use xlink:href="#DejaVuSans-45" transform="translate(494.628906 0)"/>
      <use xlink:href="#DejaVuSans-6c" transform="translate(557.8125 0)"/>
      <use xlink:href="#DejaVuSans-6c" transform="translate(585.595703 0)"/>
      <use xlink:href="#DejaVuSans-73" transform="translate(613.378906 0)"/>
      <use xlink:href="#DejaVuSans-62" transform="translate(665.478516 0)"/>
      <use xlink:href="#DejaVuSans-65" transform="translate(728.955078 0)"/>
      <use xlink:href="#DejaVuSans-72" transform="translate(790.478516 0)"/>
      <use xlink:href="#DejaVuSans-67" transform="translate(829.841797 0)"/>
     </g>
    </g>
   </g>
  </g>
 </g>
 <defs>
  <clipPath id="p27672bf988">
   <rect x="47.933438" y="23.077969" width="799.12" height="361"/>
  </clipPath>
 </defs>
</svg>
