<?xml version="1.0" encoding="utf-8" standalone="no"?>
<!DOCTYPE svg PUBLIC "-//W3C//DTD SVG 1.1//EN"
  "http://www.w3.org/Graphics/SVG/1.1/DTD/svg11.dtd">
<svg xmlns:xlink="http://www.w3.org/1999/xlink" width="1144.899375pt" height="352.97pt" viewBox="0 0 1144.899375 352.97" xmlns="http://www.w3.org/2000/svg" version="1.1">
 <metadata>
  <rdf:RDF xmlns:dc="http://purl.org/dc/elements/1.1/" xmlns:cc="http://creativecommons.org/ns#" xmlns:rdf="http://www.w3.org/1999/02/22-rdf-syntax-ns#">
   <cc:Work>
    <dc:type rdf:resource="http://purl.org/dc/dcmitype/StillImage"/>
    <dc:date>2026-02-02T00:45:16.809872</dc:date>
    <dc:format>image/svg+xml</dc:format>
    <dc:creator>
     <cc:Agent>
      <dc:title>Matplotlib v3.10.8, https://matplotlib.org/</dc:title>
     </cc:Agent>
    </dc:creator>
   </cc:Work>
  </rdf:RDF>
 </metadata>
 <defs>
  <style type="text/css">*{stroke-linejoin: round; stroke-linecap: butt}</style>
 </defs>
 <g id="figure_1">
  <g id="patch_1">
   <path d="M 0 352.97 
L 1144.899375 352.97 
L 1144.899375 0 
L 0 0 
z
" style="fill: #ffffff"/>
  </g>
  <g id="axes_1">
   <g id="patch_2">
    <path d="M 52.079375 313.478125 
L 381.099375 313.478125 
L 381.099375 22.318125 
L 52.079375 22.318125 
z
" style="fill: #ffffff"/>
   </g>
   <g id="patch_3">
    <path d="M 67.03483 313.478125 
L 109.7647 313.478125 
L 109.7647 36.182887 
L 67.03483 36.182887 
z
" clip-path="url(#p61a7a72a24)" style="fill: #4682b4; opacity: 0.7"/>
   </g>
   <g id="patch_4">
    <path d="M 237.95431 313.478125 
L 280.68418 313.478125 
L 280.68418 36.182887 
L 237.95431 36.182887 
z
" clip-path="url(#p61a7a72a24)" style="fill: #4682b4; opacity: 0.7"/>
   </g>
   <g id="patch_5">
    <path d="M 109.7647 313.478125 
L 152.49457 313.478125 
L 152.49457 44.656571 
L 109.7647 44.656571 
z
" clip-path="url(#p61a7a72a24)" style="fill: #ff7f50; opacity: 0.7"/>
   </g>
   <g id="patch_6">
    <path d="M 280.68418 313.478125 
L 323.41405 313.478125 
L 323.41405 44.65657 
L 280.68418 44.65657 
z
" clip-path="url(#p61a7a72a24)" style="fill: #ff7f50; opacity: 0.7"/>
   </g>
   <g id="patch_7">
    <path d="M 152.49457 313.478125 
L 195.22444 313.478125 
L 195.22444 52.342263 
L 152.49457 52.342263 
z
" clip-path="url(#p61a7a72a24)" style="fill: #3cb371; opacity: 0.7"/>
   </g>
   <g id="patch_8">
    <path d="M 323.41405 313.478125 
L 366.14392 313.478125 
L 366.14392 52.342263 
L 323.41405 52.342263 
z
" clip-path="url(#p61a7a72a24)" style="fill: #3cb371; opacity: 0.7"/>
   </g>
   <g id="matplotlib.axis_1">
    <g id="xtick_1">
     <g id="line2d_1">
      <defs>
       <path id="mdd690cba7d" d="M 0 0 
L 0 3.5 
" style="stroke: #000000; stroke-width: 0.8"/>
      </defs>
      <g>
       <use xlink:href="#mdd690cba7d" x="131.129635" y="313.478125" style="stroke: #000000; stroke-width: 0.8"/>
      </g>
     </g>
     <g id="text_1">
      <!-- δ₁ -->
      <g transform="translate(126.065572 328.076563) scale(0.1 -0.1)">
       <defs>
        <path id="DejaVuSans-3b4" d="M 3138 4053 
Q 2819 4272 2072 4272 
Q 1281 4272 1281 3906 
Q 1281 3619 2106 3469 
Q 2756 3353 3122 3003 
Q 3566 2581 3566 1716 
Q 3566 888 3138 400 
Q 2709 -91 1959 -91 
Q 1213 -91 781 400 
Q 353 888 353 1747 
Q 353 2384 781 2900 
Q 947 3100 1181 3213 
Q 694 3459 694 3900 
Q 694 4750 2072 4750 
Q 2763 4750 3138 4531 
L 3138 4053 
z
M 1613 3056 
Q 1400 2966 1228 2738 
Q 959 2384 959 1747 
Q 959 1113 1225 756 
Q 1494 397 1959 397 
Q 2419 397 2687 759 
Q 2956 1122 2956 1716 
Q 2956 2338 2672 2638 
Q 2369 2959 1975 2994 
Q 1775 3013 1613 3056 
z
" transform="scale(0.015625)"/>
        <path id="DejaVuSans-2081" d="M 488 319 
L 1125 319 
L 1125 2229 
L 428 2101 
L 428 2463 
L 1147 2585 
L 1575 2585 
L 1575 319 
L 2216 319 
L 2216 -24 
L 488 -24 
L 488 319 
z
" transform="scale(0.015625)"/>
       </defs>
       <use xlink:href="#DejaVuSans-3b4"/>
       <use xlink:href="#DejaVuSans-2081" transform="translate(61.181641 0)"/>
      </g>
     </g>
    </g>
    <g id="xtick_2">
     <g id="line2d_2">
      <g>
       <use xlink:href="#mdd690cba7d" x="302.049115" y="313.478125" style="stroke: #000000; stroke-width: 0.8"/>
      </g>
     </g>
     <g id="text_2">
      <!-- δ₂ -->
      <g transform="translate(296.985053 328.076563) scale(0.1 -0.1)">
       <defs>
        <path id="DejaVuSans-2082" d="M 838 332 
L 2163 332 
L 2163 -24 
L 294 -24 
L 294 319 
Q 400 416 597 591 
Q 1672 1544 1672 1838 
Q 1672 2044 1509 2170 
Q 1347 2297 1081 2297 
Q 919 2297 728 2242 
Q 538 2188 313 2079 
L 313 2463 
Q 553 2551 761 2594 
Q 969 2638 1147 2638 
Q 1600 2638 1872 2432 
Q 2144 2226 2144 1888 
Q 2144 1454 1109 566 
Q 934 416 838 332 
z
" transform="scale(0.015625)"/>
       </defs>
       <use xlink:href="#DejaVuSans-3b4"/>
       <use xlink:href="#DejaVuSans-2082" transform="translate(61.181641 0)"/>
      </g>
     </g>
    </g>
    <g id="text_3">
     <!-- Parameter -->
     <g transform="translate(185.374375 343.274375) scale(0.12 -0.12)">
      <defs>
       <path id="DejaVuSans-50" d="M 1259 4147 
L 1259 2394 
L 2053 2394 
Q 2494 2394 2734 2622 
Q 2975 2850 2975 3272 
Q 2975 3691 2734 3919 
Q 2494 4147 2053 4147 
L 1259 4147 
z
M 628 4666 
L 2053 4666 
Q 2838 4666 3239 4311 
Q 3641 3956 3641 3272 
Q 3641 2581 3239 2228 
Q 2838 1875 2053 1875 
L 1259 1875 
L 1259 0 
L 628 0 
L 628 4666 
z
" transform="scale(0.015625)"/>
       <path id="DejaVuSans-61" d="M 2194 1759 
Q 1497 1759 1228 1600 
Q 959 1441 959 1056 
Q 959 750 1161 570 
Q 1363 391 1709 391 
Q 2188 391 2477 730 
Q 2766 1069 2766 1631 
L 2766 1759 
L 2194 1759 
z
M 3341 1997 
L 3341 0 
L 2766 0 
L 2766 531 
Q 2569 213 2275 61 
Q 1981 -91 1556 -91 
Q 1019 -91 701 211 
Q 384 513 384 1019 
Q 384 1609 779 1909 
Q 1175 2209 1959 2209 
L 2766 2209 
L 2766 2266 
Q 2766 2663 2505 2880 
Q 2244 3097 1772 3097 
Q 1472 3097 1187 3025 
Q 903 2953 641 2809 
L 641 3341 
Q 956 3463 1253 3523 
Q 1550 3584 1831 3584 
Q 2591 3584 2966 3190 
Q 3341 2797 3341 1997 
z
" transform="scale(0.015625)"/>
       <path id="DejaVuSans-72" d="M 2631 2963 
Q 2534 3019 2420 3045 
Q 2306 3072 2169 3072 
Q 1681 3072 1420 2755 
Q 1159 2438 1159 1844 
L 1159 0 
L 581 0 
L 581 3500 
L 1159 3500 
L 1159 2956 
Q 1341 3275 1631 3429 
Q 1922 3584 2338 3584 
Q 2397 3584 2469 3576 
Q 2541 3569 2628 3553 
L 2631 2963 
z
" transform="scale(0.015625)"/>
       <path id="DejaVuSans-6d" d="M 3328 2828 
Q 3544 3216 3844 3400 
Q 4144 3584 4550 3584 
Q 5097 3584 5394 3201 
Q 5691 2819 5691 2113 
L 5691 0 
L 5113 0 
L 5113 2094 
Q 5113 2597 4934 2840 
Q 4756 3084 4391 3084 
Q 3944 3084 3684 2787 
Q 3425 2491 3425 1978 
L 3425 0 
L 2847 0 
L 2847 2094 
Q 2847 2600 2669 2842 
Q 2491 3084 2119 3084 
Q 1678 3084 1418 2786 
Q 1159 2488 1159 1978 
L 1159 0 
L 581 0 
L 581 3500 
L 1159 3500 
L 1159 2956 
Q 1356 3278 1631 3431 
Q 1906 3584 2284 3584 
Q 2666 3584 2933 3390 
Q 3200 3197 3328 2828 
z
" transform="scale(0.015625)"/>
       <path id="DejaVuSans-65" d="M 3597 1894 
L 3597 1613 
L 953 1613 
Q 991 1019 1311 708 
Q 1631 397 2203 397 
Q 2534 397 2845 478 
Q 3156 559 3463 722 
L 3463 178 
Q 3153 47 2828 -22 
Q 2503 -91 2169 -91 
Q 1331 -91 842 396 
Q 353 884 353 1716 
Q 353 2575 817 3079 
Q 1281 3584 2069 3584 
Q 2775 3584 3186 3129 
Q 3597 2675 3597 1894 
z
M 3022 2063 
Q 3016 2534 2758 2815 
Q 2500 3097 2075 3097 
Q 1594 3097 1305 2825 
Q 1016 2553 972 2059 
L 3022 2063 
z
" transform="scale(0.015625)"/>
       <path id="DejaVuSans-74" d="M 1172 4494 
L 1172 3500 
L 2356 3500 
L 2356 3053 
L 1172 3053 
L 1172 1153 
Q 1172 725 1289 603 
Q 1406 481 1766 481 
L 2356 481 
L 2356 0 
L 1766 0 
Q 1100 0 847 248 
Q 594 497 594 1153 
L 594 3053 
L 172 3053 
L 172 3500 
L 594 3500 
L 594 4494 
L 1172 4494 
z
" transform="scale(0.015625)"/>
      </defs>
      <use xlink:href="#DejaVuSans-50"/>
      <use xlink:href="#DejaVuSans-61" transform="translate(55.802734 0)"/>
      <use xlink:href="#DejaVuSans-72" transform="translate(117.082031 0)"/>
      <use xlink:href="#DejaVuSans-61" transform="translate(158.195312 0)"/>
      <use xlink:href="#DejaVuSans-6d" transform="translate(219.474609 0)"/>
      <use xlink:href="#DejaVuSans-65" transform="translate(316.886719 0)"/>
      <use xlink:href="#DejaVuSans-74" transform="translate(378.410156 0)"/>
      <use xlink:href="#DejaVuSans-65" transform="translate(417.619141 0)"/>
      <use xlink:href="#DejaVuSans-72" transform="translate(479.142578 0)"/>
     </g>
    </g>
   </g>
   <g id="matplotlib.axis_2">
    <g id="ytick_1">
     <g id="line2d_3">
      <path d="M 52.079375 313.478125 
L 381.099375 313.478125 
" clip-path="url(#p61a7a72a24)" style="fill: none; stroke: #b0b0b0; stroke-opacity: 0.3; stroke-width: 0.8; stroke-linecap: square"/>
     </g>
     <g id="line2d_4">
      <defs>
       <path id="mefeb28faf1" d="M 0 0 
L -3.5 0 
" style="stroke: #000000; stroke-width: 0.8"/>
      </defs>
      <g>
       <use xlink:href="#mefeb28faf1" x="52.079375" y="313.478125" style="stroke: #000000; stroke-width: 0.8"/>
      </g>
     </g>
     <g id="text_4">
      <!-- 0.00 -->
      <g transform="translate(22.81375 317.277344) scale(0.1 -0.1)">
       <defs>
        <path id="DejaVuSans-30" d="M 2034 4250 
Q 1547 4250 1301 3770 
Q 1056 3291 1056 2328 
Q 1056 1369 1301 889 
Q 1547 409 2034 409 
Q 2525 409 2770 889 
Q 3016 1369 3016 2328 
Q 3016 3291 2770 3770 
Q 2525 4250 2034 4250 
z
M 2034 4750 
Q 2819 4750 3233 4129 
Q 3647 3509 3647 2328 
Q 3647 1150 3233 529 
Q 2819 -91 2034 -91 
Q 1250 -91 836 529 
Q 422 1150 422 2328 
Q 422 3509 836 4129 
Q 1250 4750 2034 4750 
z
" transform="scale(0.015625)"/>
        <path id="DejaVuSans-2e" d="M 684 794 
L 1344 794 
L 1344 0 
L 684 0 
L 684 794 
z
" transform="scale(0.015625)"/>
       </defs>
       <use xlink:href="#DejaVuSans-30"/>
       <use xlink:href="#DejaVuSans-2e" transform="translate(63.623047 0)"/>
       <use xlink:href="#DejaVuSans-30" transform="translate(95.410156 0)"/>
       <use xlink:href="#DejaVuSans-30" transform="translate(159.033203 0)"/>
      </g>
     </g>
    </g>
    <g id="ytick_2">
     <g id="line2d_5">
      <path d="M 52.079375 267.990232 
L 381.099375 267.990232 
" clip-path="url(#p61a7a72a24)" style="fill: none; stroke: #b0b0b0; stroke-opacity: 0.3; stroke-width: 0.8; stroke-linecap: square"/>
     </g>
     <g id="line2d_6">
      <g>
       <use xlink:href="#mefeb28faf1" x="52.079375" y="267.990232" style="stroke: #000000; stroke-width: 0.8"/>
      </g>
     </g>
     <g id="text_5">
      <!-- 0.05 -->
      <g transform="translate(22.81375 271.789451) scale(0.1 -0.1)">
       <defs>
        <path id="DejaVuSans-35" d="M 691 4666 
L 3169 4666 
L 3169 4134 
L 1269 4134 
L 1269 2991 
Q 1406 3038 1543 3061 
Q 1681 3084 1819 3084 
Q 2600 3084 3056 2656 
Q 3513 2228 3513 1497 
Q 3513 744 3044 326 
Q 2575 -91 1722 -91 
Q 1428 -91 1123 -41 
Q 819 9 494 109 
L 494 744 
Q 775 591 1075 516 
Q 1375 441 1709 441 
Q 2250 441 2565 725 
Q 2881 1009 2881 1497 
Q 2881 1984 2565 2268 
Q 2250 2553 1709 2553 
Q 1456 2553 1204 2497 
Q 953 2441 691 2322 
L 691 4666 
z
" transform="scale(0.015625)"/>
       </defs>
       <use xlink:href="#DejaVuSans-30"/>
       <use xlink:href="#DejaVuSans-2e" transform="translate(63.623047 0)"/>
       <use xlink:href="#DejaVuSans-30" transform="translate(95.410156 0)"/>
       <use xlink:href="#DejaVuSans-35" transform="translate(159.033203 0)"/>
      </g>
     </g>
    </g>
    <g id="ytick_3">
     <g id="line2d_7">
      <path d="M 52.079375 222.502339 
L 381.099375 222.502339 
" clip-path="url(#p61a7a72a24)" style="fill: none; stroke: #b0b0b0; stroke-opacity: 0.3; stroke-width: 0.8; stroke-linecap: square"/>
     </g>
     <g id="line2d_8">
      <g>
       <use xlink:href="#mefeb28faf1" x="52.079375" y="222.502339" style="stroke: #000000; stroke-width: 0.8"/>
      </g>
     </g>
     <g id="text_6">
      <!-- 0.10 -->
      <g transform="translate(22.81375 226.301557) scale(0.1 -0.1)">
       <defs>
        <path id="DejaVuSans-31" d="M 794 531 
L 1825 531 
L 1825 4091 
L 703 3866 
L 703 4441 
L 1819 4666 
L 2450 4666 
L 2450 531 
L 3481 531 
L 3481 0 
L 794 0 
L 794 531 
z
" transform="scale(0.015625)"/>
       </defs>
       <use xlink:href="#DejaVuSans-30"/>
       <use xlink:href="#DejaVuSans-2e" transform="translate(63.623047 0)"/>
       <use xlink:href="#DejaVuSans-31" transform="translate(95.410156 0)"/>
       <use xlink:href="#DejaVuSans-30" transform="translate(159.033203 0)"/>
      </g>
     </g>
    </g>
    <g id="ytick_4">
     <g id="line2d_9">
      <path d="M 52.079375 177.014446 
L 381.099375 177.014446 
" clip-path="url(#p61a7a72a24)" style="fill: none; stroke: #b0b0b0; stroke-opacity: 0.3; stroke-width: 0.8; stroke-linecap: square"/>
     </g>
     <g id="line2d_10">
      <g>
       <use xlink:href="#mefeb28faf1" x="52.079375" y="177.014446" style="stroke: #000000; stroke-width: 0.8"/>
      </g>
     </g>
     <g id="text_7">
      <!-- 0.15 -->
      <g transform="translate(22.81375 180.813664) scale(0.1 -0.1)">
       <use xlink:href="#DejaVuSans-30"/>
       <use xlink:href="#DejaVuSans-2e" transform="translate(63.623047 0)"/>
       <use xlink:href="#DejaVuSans-31" transform="translate(95.410156 0)"/>
       <use xlink:href="#DejaVuSans-35" transform="translate(159.033203 0)"/>
      </g>
     </g>
    </g>
    <g id="ytick_5">
     <g id="line2d_11">
      <path d="M 52.079375 131.526552 
L 381.099375 131.526552 
" clip-path="url(#p61a7a72a24)" style="fill: none; stroke: #b0b0b0; stroke-opacity: 0.3; stroke-width: 0.8; stroke-linecap: square"/>
     </g>
     <g id="line2d_12">
      <g>
       <use xlink:href="#mefeb28faf1" x="52.079375" y="131.526552" style="stroke: #000000; stroke-width: 0.8"/>
      </g>
     </g>
     <g id="text_8">
      <!-- 0.20 -->
      <g transform="translate(22.81375 135.325771) scale(0.1 -0.1)">
       <defs>
        <path id="DejaVuSans-32" d="M 1228 531 
L 3431 531 
L 3431 0 
L 469 0 
L 469 531 
Q 828 903 1448 1529 
Q 2069 2156 2228 2338 
Q 2531 2678 2651 2914 
Q 2772 3150 2772 3378 
Q 2772 3750 2511 3984 
Q 2250 4219 1831 4219 
Q 1534 4219 1204 4116 
Q 875 4013 500 3803 
L 500 4441 
Q 881 4594 1212 4672 
Q 1544 4750 1819 4750 
Q 2544 4750 2975 4387 
Q 3406 4025 3406 3419 
Q 3406 3131 3298 2873 
Q 3191 2616 2906 2266 
Q 2828 2175 2409 1742 
Q 1991 1309 1228 531 
z
" transform="scale(0.015625)"/>
       </defs>
       <use xlink:href="#DejaVuSans-30"/>
       <use xlink:href="#DejaVuSans-2e" transform="translate(63.623047 0)"/>
       <use xlink:href="#DejaVuSans-32" transform="translate(95.410156 0)"/>
       <use xlink:href="#DejaVuSans-30" transform="translate(159.033203 0)"/>
      </g>
     </g>
    </g>
    <g id="ytick_6">
     <g id="line2d_13">
      <path d="M 52.079375 86.038659 
L 381.099375 86.038659 
" clip-path="url(#p61a7a72a24)" style="fill: none; stroke: #b0b0b0; stroke-opacity: 0.3; stroke-width: 0.8; stroke-linecap: square"/>
     </g>
     <g id="line2d_14">
      <g>
       <use xlink:href="#mefeb28faf1" x="52.079375" y="86.038659" style="stroke: #000000; stroke-width: 0.8"/>
      </g>
     </g>
     <g id="text_9">
      <!-- 0.25 -->
      <g transform="translate(22.81375 89.837878) scale(0.1 -0.1)">
       <use xlink:href="#DejaVuSans-30"/>
       <use xlink:href="#DejaVuSans-2e" transform="translate(63.623047 0)"/>
       <use xlink:href="#DejaVuSans-32" transform="translate(95.410156 0)"/>
       <use xlink:href="#DejaVuSans-35" transform="translate(159.033203 0)"/>
      </g>
     </g>
    </g>
    <g id="ytick_7">
     <g id="line2d_15">
      <path d="M 52.079375 40.550766 
L 381.099375 40.550766 
" clip-path="url(#p61a7a72a24)" style="fill: none; stroke: #b0b0b0; stroke-opacity: 0.3; stroke-width: 0.8; stroke-linecap: square"/>
     </g>
     <g id="line2d_16">
      <g>
       <use xlink:href="#mefeb28faf1" x="52.079375" y="40.550766" style="stroke: #000000; stroke-width: 0.8"/>
      </g>
     </g>
     <g id="text_10">
      <!-- 0.30 -->
      <g transform="translate(22.81375 44.349985) scale(0.1 -0.1)">
       <defs>
        <path id="DejaVuSans-33" d="M 2597 2516 
Q 3050 2419 3304 2112 
Q 3559 1806 3559 1356 
Q 3559 666 3084 287 
Q 2609 -91 1734 -91 
Q 1441 -91 1130 -33 
Q 819 25 488 141 
L 488 750 
Q 750 597 1062 519 
Q 1375 441 1716 441 
Q 2309 441 2620 675 
Q 2931 909 2931 1356 
Q 2931 1769 2642 2001 
Q 2353 2234 1838 2234 
L 1294 2234 
L 1294 2753 
L 1863 2753 
Q 2328 2753 2575 2939 
Q 2822 3125 2822 3475 
Q 2822 3834 2567 4026 
Q 2313 4219 1838 4219 
Q 1578 4219 1281 4162 
Q 984 4106 628 3988 
L 628 4550 
Q 988 4650 1302 4700 
Q 1616 4750 1894 4750 
Q 2613 4750 3031 4423 
Q 3450 4097 3450 3541 
Q 3450 3153 3228 2886 
Q 3006 2619 2597 2516 
z
" transform="scale(0.015625)"/>
       </defs>
       <use xlink:href="#DejaVuSans-30"/>
       <use xlink:href="#DejaVuSans-2e" transform="translate(63.623047 0)"/>
       <use xlink:href="#DejaVuSans-33" transform="translate(95.410156 0)"/>
       <use xlink:href="#DejaVuSans-30" transform="translate(159.033203 0)"/>
      </g>
     </g>
    </g>
    <g id="text_11">
     <!-- RMSE -->
     <g transform="translate(16.318125 184.844375) rotate(-90) scale(0.12 -0.12)">
      <defs>
       <path id="DejaVuSans-52" d="M 2841 2188 
Q 3044 2119 3236 1894 
Q 3428 1669 3622 1275 
L 4263 0 
L 3584 0 
L 2988 1197 
Q 2756 1666 2539 1819 
Q 2322 1972 1947 1972 
L 1259 1972 
L 1259 0 
L 628 0 
L 628 4666 
L 2053 4666 
Q 2853 4666 3247 4331 
Q 3641 3997 3641 3322 
Q 3641 2881 3436 2590 
Q 3231 2300 2841 2188 
z
M 1259 4147 
L 1259 2491 
L 2053 2491 
Q 2509 2491 2742 2702 
Q 2975 2913 2975 3322 
Q 2975 3731 2742 3939 
Q 2509 4147 2053 4147 
L 1259 4147 
z
" transform="scale(0.015625)"/>
       <path id="DejaVuSans-4d" d="M 628 4666 
L 1569 4666 
L 2759 1491 
L 3956 4666 
L 4897 4666 
L 4897 0 
L 4281 0 
L 4281 4097 
L 3078 897 
L 2444 897 
L 1241 4097 
L 1241 0 
L 628 0 
L 628 4666 
z
" transform="scale(0.015625)"/>
       <path id="DejaVuSans-53" d="M 3425 4513 
L 3425 3897 
Q 3066 4069 2747 4153 
Q 2428 4238 2131 4238 
Q 1616 4238 1336 4038 
Q 1056 3838 1056 3469 
Q 1056 3159 1242 3001 
Q 1428 2844 1947 2747 
L 2328 2669 
Q 3034 2534 3370 2195 
Q 3706 1856 3706 1288 
Q 3706 609 3251 259 
Q 2797 -91 1919 -91 
Q 1588 -91 1214 -16 
Q 841 59 441 206 
L 441 856 
Q 825 641 1194 531 
Q 1563 422 1919 422 
Q 2459 422 2753 634 
Q 3047 847 3047 1241 
Q 3047 1584 2836 1778 
Q 2625 1972 2144 2069 
L 1759 2144 
Q 1053 2284 737 2584 
Q 422 2884 422 3419 
Q 422 4038 858 4394 
Q 1294 4750 2059 4750 
Q 2388 4750 2728 4690 
Q 3069 4631 3425 4513 
z
" transform="scale(0.015625)"/>
       <path id="DejaVuSans-45" d="M 628 4666 
L 3578 4666 
L 3578 4134 
L 1259 4134 
L 1259 2753 
L 3481 2753 
L 3481 2222 
L 1259 2222 
L 1259 531 
L 3634 531 
L 3634 0 
L 628 0 
L 628 4666 
z
" transform="scale(0.015625)"/>
      </defs>
      <use xlink:href="#DejaVuSans-52"/>
      <use xlink:href="#DejaVuSans-4d" transform="translate(69.482422 0)"/>
      <use xlink:href="#DejaVuSans-53" transform="translate(155.761719 0)"/>
      <use xlink:href="#DejaVuSans-45" transform="translate(219.238281 0)"/>
     </g>
    </g>
   </g>
   <g id="patch_9">
    <path d="M 52.079375 313.478125 
L 52.079375 22.318125 
" style="fill: none; stroke: #000000; stroke-width: 0.8; stroke-linejoin: miter; stroke-linecap: square"/>
   </g>
   <g id="patch_10">
    <path d="M 381.099375 313.478125 
L 381.099375 22.318125 
" style="fill: none; stroke: #000000; stroke-width: 0.8; stroke-linejoin: miter; stroke-linecap: square"/>
   </g>
   <g id="patch_11">
    <path d="M 52.079375 313.478125 
L 381.099375 313.478125 
" style="fill: none; stroke: #000000; stroke-width: 0.8; stroke-linejoin: miter; stroke-linecap: square"/>
   </g>
   <g id="patch_12">
    <path d="M 52.079375 22.318125 
L 381.099375 22.318125 
" style="fill: none; stroke: #000000; stroke-width: 0.8; stroke-linejoin: miter; stroke-linecap: square"/>
   </g>
   <g id="text_12">
    <!-- δ RMSE by Extension Type -->
    <g transform="translate(137.749375 16.318125) scale(0.12 -0.12)">
     <defs>
      <path id="DejaVuSans-20" transform="scale(0.015625)"/>
      <path id="DejaVuSans-62" d="M 3116 1747 
Q 3116 2381 2855 2742 
Q 2594 3103 2138 3103 
Q 1681 3103 1420 2742 
Q 1159 2381 1159 1747 
Q 1159 1113 1420 752 
Q 1681 391 2138 391 
Q 2594 391 2855 752 
Q 3116 1113 3116 1747 
z
M 1159 2969 
Q 1341 3281 1617 3432 
Q 1894 3584 2278 3584 
Q 2916 3584 3314 3078 
Q 3713 2572 3713 1747 
Q 3713 922 3314 415 
Q 2916 -91 2278 -91 
Q 1894 -91 1617 61 
Q 1341 213 1159 525 
L 1159 0 
L 581 0 
L 581 4863 
L 1159 4863 
L 1159 2969 
z
" transform="scale(0.015625)"/>
      <path id="DejaVuSans-79" d="M 2059 -325 
Q 1816 -950 1584 -1140 
Q 1353 -1331 966 -1331 
L 506 -1331 
L 506 -850 
L 844 -850 
Q 1081 -850 1212 -737 
Q 1344 -625 1503 -206 
L 1606 56 
L 191 3500 
L 800 3500 
L 1894 763 
L 2988 3500 
L 3597 3500 
L 2059 -325 
z
" transform="scale(0.015625)"/>
      <path id="DejaVuSans-78" d="M 3513 3500 
L 2247 1797 
L 3578 0 
L 2900 0 
L 1881 1375 
L 863 0 
L 184 0 
L 1544 1831 
L 300 3500 
L 978 3500 
L 1906 2253 
L 2834 3500 
L 3513 3500 
z
" transform="scale(0.015625)"/>
      <path id="DejaVuSans-6e" d="M 3513 2113 
L 3513 0 
L 2938 0 
L 2938 2094 
Q 2938 2591 2744 2837 
Q 2550 3084 2163 3084 
Q 1697 3084 1428 2787 
Q 1159 2491 1159 1978 
L 1159 0 
L 581 0 
L 581 3500 
L 1159 3500 
L 1159 2956 
Q 1366 3272 1645 3428 
Q 1925 3584 2291 3584 
Q 2894 3584 3203 3211 
Q 3513 2838 3513 2113 
z
" transform="scale(0.015625)"/>
      <path id="DejaVuSans-73" d="M 2834 3397 
L 2834 2853 
Q 2591 2978 2328 3040 
Q 2066 3103 1784 3103 
Q 1356 3103 1142 2972 
Q 928 2841 928 2578 
Q 928 2378 1081 2264 
Q 1234 2150 1697 2047 
L 1894 2003 
Q 2506 1872 2764 1633 
Q 3022 1394 3022 966 
Q 3022 478 2636 193 
Q 2250 -91 1575 -91 
Q 1294 -91 989 -36 
Q 684 19 347 128 
L 347 722 
Q 666 556 975 473 
Q 1284 391 1588 391 
Q 1994 391 2212 530 
Q 2431 669 2431 922 
Q 2431 1156 2273 1281 
Q 2116 1406 1581 1522 
L 1381 1569 
Q 847 1681 609 1914 
Q 372 2147 372 2553 
Q 372 3047 722 3315 
Q 1072 3584 1716 3584 
Q 2034 3584 2315 3537 
Q 2597 3491 2834 3397 
z
" transform="scale(0.015625)"/>
      <path id="DejaVuSans-69" d="M 603 3500 
L 1178 3500 
L 1178 0 
L 603 0 
L 603 3500 
z
M 603 4863 
L 1178 4863 
L 1178 4134 
L 603 4134 
L 603 4863 
z
" transform="scale(0.015625)"/>
      <path id="DejaVuSans-6f" d="M 1959 3097 
Q 1497 3097 1228 2736 
Q 959 2375 959 1747 
Q 959 1119 1226 758 
Q 1494 397 1959 397 
Q 2419 397 2687 759 
Q 2956 1122 2956 1747 
Q 2956 2369 2687 2733 
Q 2419 3097 1959 3097 
z
M 1959 3584 
Q 2709 3584 3137 3096 
Q 3566 2609 3566 1747 
Q 3566 888 3137 398 
Q 2709 -91 1959 -91 
Q 1206 -91 779 398 
Q 353 888 353 1747 
Q 353 2609 779 3096 
Q 1206 3584 1959 3584 
z
" transform="scale(0.015625)"/>
      <path id="DejaVuSans-54" d="M -19 4666 
L 3928 4666 
L 3928 4134 
L 2272 4134 
L 2272 0 
L 1638 0 
L 1638 4134 
L -19 4134 
L -19 4666 
z
" transform="scale(0.015625)"/>
      <path id="DejaVuSans-70" d="M 1159 525 
L 1159 -1331 
L 581 -1331 
L 581 3500 
L 1159 3500 
L 1159 2969 
Q 1341 3281 1617 3432 
Q 1894 3584 2278 3584 
Q 2916 3584 3314 3078 
Q 3713 2572 3713 1747 
Q 3713 922 3314 415 
Q 2916 -91 2278 -91 
Q 1894 -91 1617 61 
Q 1341 213 1159 525 
z
M 3116 1747 
Q 3116 2381 2855 2742 
Q 2594 3103 2138 3103 
Q 1681 3103 1420 2742 
Q 1159 2381 1159 1747 
Q 1159 1113 1420 752 
Q 1681 391 2138 391 
Q 2594 391 2855 752 
Q 3116 1113 3116 1747 
z
" transform="scale(0.015625)"/>
     </defs>
     <use xlink:href="#DejaVuSans-3b4"/>
     <use xlink:href="#DejaVuSans-20" transform="translate(61.181641 0)"/>
     <use xlink:href="#DejaVuSans-52" transform="translate(92.96875 0)"/>
     <use xlink:href="#DejaVuSans-4d" transform="translate(162.451172 0)"/>
     <use xlink:href="#DejaVuSans-53" transform="translate(248.730469 0)"/>
     <use xlink:href="#DejaVuSans-45" transform="translate(312.207031 0)"/>
     <use xlink:href="#DejaVuSans-20" transform="translate(375.390625 0)"/>
     <use xlink:href="#DejaVuSans-62" transform="translate(407.177734 0)"/>
     <use xlink:href="#DejaVuSans-79" transform="translate(470.654297 0)"/>
     <use xlink:href="#DejaVuSans-20" transform="translate(529.833984 0)"/>
     <use xlink:href="#DejaVuSans-45" transform="translate(561.621094 0)"/>
     <use xlink:href="#DejaVuSans-78" transform="translate(624.804688 0)"/>
     <use xlink:href="#DejaVuSans-74" transform="translate(683.984375 0)"/>
     <use xlink:href="#DejaVuSans-65" transform="translate(723.193359 0)"/>
     <use xlink:href="#DejaVuSans-6e" transform="translate(784.716797 0)"/>
     <use xlink:href="#DejaVuSans-73" transform="translate(848.095703 0)"/>
     <use xlink:href="#DejaVuSans-69" transform="translate(900.195312 0)"/>
     <use xlink:href="#DejaVuSans-6f" transform="translate(927.978516 0)"/>
     <use xlink:href="#DejaVuSans-6e" transform="translate(989.160156 0)"/>
     <use xlink:href="#DejaVuSans-20" transform="translate(1052.539062 0)"/>
     <use xlink:href="#DejaVuSans-54" transform="translate(1084.326172 0)"/>
     <use xlink:href="#DejaVuSans-79" transform="translate(1129.785156 0)"/>
     <use xlink:href="#DejaVuSans-70" transform="translate(1188.964844 0)"/>
     <use xlink:href="#DejaVuSans-65" transform="translate(1252.441406 0)"/>
    </g>
   </g>
   <g id="legend_1">
    <g id="patch_13">
     <path d="M 252.94 74.3525 
L 374.099375 74.3525 
Q 376.099375 74.3525 376.099375 72.3525 
L 376.099375 29.318125 
Q 376.099375 27.318125 374.099375 27.318125 
L 252.94 27.318125 
Q 250.94 27.318125 250.94 29.318125 
L 250.94 72.3525 
Q 250.94 74.3525 252.94 74.3525 
z
" style="fill: #ffffff; opacity: 0.8; stroke: #cccccc; stroke-linejoin: miter"/>
    </g>
    <g id="patch_14">
     <path d="M 254.94 38.916562 
L 274.94 38.916562 
L 274.94 31.916562 
L 254.94 31.916562 
z
" style="fill: #4682b4; opacity: 0.7"/>
    </g>
    <g id="text_13">
     <!-- M=25 (base) -->
     <g transform="translate(282.94 38.916562) scale(0.1 -0.1)">
      <defs>
       <path id="DejaVuSans-3d" d="M 678 2906 
L 4684 2906 
L 4684 2381 
L 678 2381 
L 678 2906 
z
M 678 1631 
L 4684 1631 
L 4684 1100 
L 678 1100 
L 678 1631 
z
" transform="scale(0.015625)"/>
       <path id="DejaVuSans-28" d="M 1984 4856 
Q 1566 4138 1362 3434 
Q 1159 2731 1159 2009 
Q 1159 1288 1364 580 
Q 1569 -128 1984 -844 
L 1484 -844 
Q 1016 -109 783 600 
Q 550 1309 550 2009 
Q 550 2706 781 3412 
Q 1013 4119 1484 4856 
L 1984 4856 
z
" transform="scale(0.015625)"/>
       <path id="DejaVuSans-29" d="M 513 4856 
L 1013 4856 
Q 1481 4119 1714 3412 
Q 1947 2706 1947 2009 
Q 1947 1309 1714 600 
Q 1481 -109 1013 -844 
L 513 -844 
Q 928 -128 1133 580 
Q 1338 1288 1338 2009 
Q 1338 2731 1133 3434 
Q 928 4138 513 4856 
z
" transform="scale(0.015625)"/>
      </defs>
      <use xlink:href="#DejaVuSans-4d"/>
      <use xlink:href="#DejaVuSans-3d" transform="translate(86.279297 0)"/>
      <use xlink:href="#DejaVuSans-32" transform="translate(170.068359 0)"/>
      <use xlink:href="#DejaVuSans-35" transform="translate(233.691406 0)"/>
      <use xlink:href="#DejaVuSans-20" transform="translate(297.314453 0)"/>
      <use xlink:href="#DejaVuSans-28" transform="translate(329.101562 0)"/>
      <use xlink:href="#DejaVuSans-62" transform="translate(368.115234 0)"/>
      <use xlink:href="#DejaVuSans-61" transform="translate(431.591797 0)"/>
      <use xlink:href="#DejaVuSans-73" transform="translate(492.871094 0)"/>
      <use xlink:href="#DejaVuSans-65" transform="translate(544.970703 0)"/>
      <use xlink:href="#DejaVuSans-29" transform="translate(606.494141 0)"/>
     </g>
    </g>
    <g id="patch_15">
     <path d="M 254.94 53.594688 
L 274.94 53.594688 
L 274.94 46.594688 
L 254.94 46.594688 
z
" style="fill: #ff7f50; opacity: 0.7"/>
    </g>
    <g id="text_14">
     <!-- M=50 (same alts) -->
     <g transform="translate(282.94 53.594688) scale(0.1 -0.1)">
      <defs>
       <path id="DejaVuSans-6c" d="M 603 4863 
L 1178 4863 
L 1178 0 
L 603 0 
L 603 4863 
z
" transform="scale(0.015625)"/>
      </defs>
      <use xlink:href="#DejaVuSans-4d"/>
      <use xlink:href="#DejaVuSans-3d" transform="translate(86.279297 0)"/>
      <use xlink:href="#DejaVuSans-35" transform="translate(170.068359 0)"/>
      <use xlink:href="#DejaVuSans-30" transform="translate(233.691406 0)"/>
      <use xlink:href="#DejaVuSans-20" transform="translate(297.314453 0)"/>
      <use xlink:href="#DejaVuSans-28" transform="translate(329.101562 0)"/>
      <use xlink:href="#DejaVuSans-73" transform="translate(368.115234 0)"/>
      <use xlink:href="#DejaVuSans-61" transform="translate(420.214844 0)"/>
      <use xlink:href="#DejaVuSans-6d" transform="translate(481.494141 0)"/>
      <use xlink:href="#DejaVuSans-65" transform="translate(578.90625 0)"/>
      <use xlink:href="#DejaVuSans-20" transform="translate(640.429688 0)"/>
      <use xlink:href="#DejaVuSans-61" transform="translate(672.216797 0)"/>
      <use xlink:href="#DejaVuSans-6c" transform="translate(733.496094 0)"/>
      <use xlink:href="#DejaVuSans-74" transform="translate(761.279297 0)"/>
      <use xlink:href="#DejaVuSans-73" transform="translate(800.488281 0)"/>
      <use xlink:href="#DejaVuSans-29" transform="translate(852.587891 0)"/>
     </g>
    </g>
    <g id="patch_16">
     <path d="M 254.94 68.272812 
L 274.94 68.272812 
L 274.94 61.272812 
L 254.94 61.272812 
z
" style="fill: #3cb371; opacity: 0.7"/>
    </g>
    <g id="text_15">
     <!-- M=50 (new alts) -->
     <g transform="translate(282.94 68.272812) scale(0.1 -0.1)">
      <defs>
       <path id="DejaVuSans-77" d="M 269 3500 
L 844 3500 
L 1563 769 
L 2278 3500 
L 2956 3500 
L 3675 769 
L 4391 3500 
L 4966 3500 
L 4050 0 
L 3372 0 
L 2619 2869 
L 1863 0 
L 1184 0 
L 269 3500 
z
" transform="scale(0.015625)"/>
      </defs>
      <use xlink:href="#DejaVuSans-4d"/>
      <use xlink:href="#DejaVuSans-3d" transform="translate(86.279297 0)"/>
      <use xlink:href="#DejaVuSans-35" transform="translate(170.068359 0)"/>
      <use xlink:href="#DejaVuSans-30" transform="translate(233.691406 0)"/>
      <use xlink:href="#DejaVuSans-20" transform="translate(297.314453 0)"/>
      <use xlink:href="#DejaVuSans-28" transform="translate(329.101562 0)"/>
      <use xlink:href="#DejaVuSans-6e" transform="translate(368.115234 0)"/>
      <use xlink:href="#DejaVuSans-65" transform="translate(431.494141 0)"/>
      <use xlink:href="#DejaVuSans-77" transform="translate(493.017578 0)"/>
      <use xlink:href="#DejaVuSans-20" transform="translate(574.804688 0)"/>
      <use xlink:href="#DejaVuSans-61" transform="translate(606.591797 0)"/>
      <use xlink:href="#DejaVuSans-6c" transform="translate(667.871094 0)"/>
      <use xlink:href="#DejaVuSans-74" transform="translate(695.654297 0)"/>
      <use xlink:href="#DejaVuSans-73" transform="translate(734.863281 0)"/>
      <use xlink:href="#DejaVuSans-29" transform="translate(786.962891 0)"/>
     </g>
    </g>
   </g>
  </g>
  <g id="axes_2">
   <g id="patch_17">
    <path d="M 430.379375 313.478125 
L 759.399375 313.478125 
L 759.399375 22.318125 
L 430.379375 22.318125 
z
" style="fill: #ffffff"/>
   </g>
   <g id="patch_18">
    <path d="M 445.33483 313.478125 
L 488.0647 313.478125 
L 488.0647 75.00422 
L 445.33483 75.00422 
z
" clip-path="url(#p21a079767d)" style="fill: #4682b4; opacity: 0.7"/>
   </g>
   <g id="patch_19">
    <path d="M 616.25431 313.478125 
L 658.98418 313.478125 
L 658.98418 75.00422 
L 616.25431 75.00422 
z
" clip-path="url(#p21a079767d)" style="fill: #4682b4; opacity: 0.7"/>
   </g>
   <g id="patch_20">
    <path d="M 488.0647 313.478125 
L 530.79457 313.478125 
L 530.79457 80.550125 
L 488.0647 80.550125 
z
" clip-path="url(#p21a079767d)" style="fill: #ff7f50; opacity: 0.7"/>
   </g>
   <g id="patch_21">
    <path d="M 658.98418 313.478125 
L 701.71405 313.478125 
L 701.71405 80.550125 
L 658.98418 80.550125 
z
" clip-path="url(#p21a079767d)" style="fill: #ff7f50; opacity: 0.7"/>
   </g>
   <g id="patch_22">
    <path d="M 530.79457 313.478125 
L 573.52444 313.478125 
L 573.52444 69.458315 
L 530.79457 69.458315 
z
" clip-path="url(#p21a079767d)" style="fill: #3cb371; opacity: 0.7"/>
   </g>
   <g id="patch_23">
    <path d="M 701.71405 313.478125 
L 744.44392 313.478125 
L 744.44392 69.458315 
L 701.71405 69.458315 
z
" clip-path="url(#p21a079767d)" style="fill: #3cb371; opacity: 0.7"/>
   </g>
   <g id="matplotlib.axis_3">
    <g id="xtick_3">
     <g id="line2d_17">
      <g>
       <use xlink:href="#mdd690cba7d" x="509.429635" y="313.478125" style="stroke: #000000; stroke-width: 0.8"/>
      </g>
     </g>
     <g id="text_16">
      <!-- δ₁ -->
      <g transform="translate(504.365572 328.076563) scale(0.1 -0.1)">
       <use xlink:href="#DejaVuSans-3b4"/>
       <use xlink:href="#DejaVuSans-2081" transform="translate(61.181641 0)"/>
      </g>
     </g>
    </g>
    <g id="xtick_4">
     <g id="line2d_18">
      <g>
       <use xlink:href="#mdd690cba7d" x="680.349115" y="313.478125" style="stroke: #000000; stroke-width: 0.8"/>
      </g>
     </g>
     <g id="text_17">
      <!-- δ₂ -->
      <g transform="translate(675.285053 328.076563) scale(0.1 -0.1)">
       <use xlink:href="#DejaVuSans-3b4"/>
       <use xlink:href="#DejaVuSans-2082" transform="translate(61.181641 0)"/>
      </g>
     </g>
    </g>
    <g id="text_18">
     <!-- Parameter -->
     <g transform="translate(563.674375 343.274375) scale(0.12 -0.12)">
      <use xlink:href="#DejaVuSans-50"/>
      <use xlink:href="#DejaVuSans-61" transform="translate(55.802734 0)"/>
      <use xlink:href="#DejaVuSans-72" transform="translate(117.082031 0)"/>
      <use xlink:href="#DejaVuSans-61" transform="translate(158.195312 0)"/>
      <use xlink:href="#DejaVuSans-6d" transform="translate(219.474609 0)"/>
      <use xlink:href="#DejaVuSans-65" transform="translate(316.886719 0)"/>
      <use xlink:href="#DejaVuSans-74" transform="translate(378.410156 0)"/>
      <use xlink:href="#DejaVuSans-65" transform="translate(417.619141 0)"/>
      <use xlink:href="#DejaVuSans-72" transform="translate(479.142578 0)"/>
     </g>
    </g>
   </g>
   <g id="matplotlib.axis_4">
    <g id="ytick_8">
     <g id="line2d_19">
      <path d="M 430.379375 313.478125 
L 759.399375 313.478125 
" clip-path="url(#p21a079767d)" style="fill: none; stroke: #b0b0b0; stroke-opacity: 0.3; stroke-width: 0.8; stroke-linecap: square"/>
     </g>
     <g id="line2d_20">
      <g>
       <use xlink:href="#mefeb28faf1" x="430.379375" y="313.478125" style="stroke: #000000; stroke-width: 0.8"/>
      </g>
     </g>
     <g id="text_19">
      <!-- 0.0 -->
      <g transform="translate(407.47625 317.277344) scale(0.1 -0.1)">
       <use xlink:href="#DejaVuSans-30"/>
       <use xlink:href="#DejaVuSans-2e" transform="translate(63.623047 0)"/>
       <use xlink:href="#DejaVuSans-30" transform="translate(95.410156 0)"/>
      </g>
     </g>
    </g>
    <g id="ytick_9">
     <g id="line2d_21">
      <path d="M 430.379375 258.019077 
L 759.399375 258.019077 
" clip-path="url(#p21a079767d)" style="fill: none; stroke: #b0b0b0; stroke-opacity: 0.3; stroke-width: 0.8; stroke-linecap: square"/>
     </g>
     <g id="line2d_22">
      <g>
       <use xlink:href="#mefeb28faf1" x="430.379375" y="258.019077" style="stroke: #000000; stroke-width: 0.8"/>
      </g>
     </g>
     <g id="text_20">
      <!-- 0.2 -->
      <g transform="translate(407.47625 261.818296) scale(0.1 -0.1)">
       <use xlink:href="#DejaVuSans-30"/>
       <use xlink:href="#DejaVuSans-2e" transform="translate(63.623047 0)"/>
       <use xlink:href="#DejaVuSans-32" transform="translate(95.410156 0)"/>
      </g>
     </g>
    </g>
    <g id="ytick_10">
     <g id="line2d_23">
      <path d="M 430.379375 202.56003 
L 759.399375 202.56003 
" clip-path="url(#p21a079767d)" style="fill: none; stroke: #b0b0b0; stroke-opacity: 0.3; stroke-width: 0.8; stroke-linecap: square"/>
     </g>
     <g id="line2d_24">
      <g>
       <use xlink:href="#mefeb28faf1" x="430.379375" y="202.56003" style="stroke: #000000; stroke-width: 0.8"/>
      </g>
     </g>
     <g id="text_21">
      <!-- 0.4 -->
      <g transform="translate(407.47625 206.359249) scale(0.1 -0.1)">
       <defs>
        <path id="DejaVuSans-34" d="M 2419 4116 
L 825 1625 
L 2419 1625 
L 2419 4116 
z
M 2253 4666 
L 3047 4666 
L 3047 1625 
L 3713 1625 
L 3713 1100 
L 3047 1100 
L 3047 0 
L 2419 0 
L 2419 1100 
L 313 1100 
L 313 1709 
L 2253 4666 
z
" transform="scale(0.015625)"/>
       </defs>
       <use xlink:href="#DejaVuSans-30"/>
       <use xlink:href="#DejaVuSans-2e" transform="translate(63.623047 0)"/>
       <use xlink:href="#DejaVuSans-34" transform="translate(95.410156 0)"/>
      </g>
     </g>
    </g>
    <g id="ytick_11">
     <g id="line2d_25">
      <path d="M 430.379375 147.100982 
L 759.399375 147.100982 
" clip-path="url(#p21a079767d)" style="fill: none; stroke: #b0b0b0; stroke-opacity: 0.3; stroke-width: 0.8; stroke-linecap: square"/>
     </g>
     <g id="line2d_26">
      <g>
       <use xlink:href="#mefeb28faf1" x="430.379375" y="147.100982" style="stroke: #000000; stroke-width: 0.8"/>
      </g>
     </g>
     <g id="text_22">
      <!-- 0.6 -->
      <g transform="translate(407.47625 150.900201) scale(0.1 -0.1)">
       <defs>
        <path id="DejaVuSans-36" d="M 2113 2584 
Q 1688 2584 1439 2293 
Q 1191 2003 1191 1497 
Q 1191 994 1439 701 
Q 1688 409 2113 409 
Q 2538 409 2786 701 
Q 3034 994 3034 1497 
Q 3034 2003 2786 2293 
Q 2538 2584 2113 2584 
z
M 3366 4563 
L 3366 3988 
Q 3128 4100 2886 4159 
Q 2644 4219 2406 4219 
Q 1781 4219 1451 3797 
Q 1122 3375 1075 2522 
Q 1259 2794 1537 2939 
Q 1816 3084 2150 3084 
Q 2853 3084 3261 2657 
Q 3669 2231 3669 1497 
Q 3669 778 3244 343 
Q 2819 -91 2113 -91 
Q 1303 -91 875 529 
Q 447 1150 447 2328 
Q 447 3434 972 4092 
Q 1497 4750 2381 4750 
Q 2619 4750 2861 4703 
Q 3103 4656 3366 4563 
z
" transform="scale(0.015625)"/>
       </defs>
       <use xlink:href="#DejaVuSans-30"/>
       <use xlink:href="#DejaVuSans-2e" transform="translate(63.623047 0)"/>
       <use xlink:href="#DejaVuSans-36" transform="translate(95.410156 0)"/>
      </g>
     </g>
    </g>
    <g id="ytick_12">
     <g id="line2d_27">
      <path d="M 430.379375 91.641935 
L 759.399375 91.641935 
" clip-path="url(#p21a079767d)" style="fill: none; stroke: #b0b0b0; stroke-opacity: 0.3; stroke-width: 0.8; stroke-linecap: square"/>
     </g>
     <g id="line2d_28">
      <g>
       <use xlink:href="#mefeb28faf1" x="430.379375" y="91.641935" style="stroke: #000000; stroke-width: 0.8"/>
      </g>
     </g>
     <g id="text_23">
      <!-- 0.8 -->
      <g transform="translate(407.47625 95.441153) scale(0.1 -0.1)">
       <defs>
        <path id="DejaVuSans-38" d="M 2034 2216 
Q 1584 2216 1326 1975 
Q 1069 1734 1069 1313 
Q 1069 891 1326 650 
Q 1584 409 2034 409 
Q 2484 409 2743 651 
Q 3003 894 3003 1313 
Q 3003 1734 2745 1975 
Q 2488 2216 2034 2216 
z
M 1403 2484 
Q 997 2584 770 2862 
Q 544 3141 544 3541 
Q 544 4100 942 4425 
Q 1341 4750 2034 4750 
Q 2731 4750 3128 4425 
Q 3525 4100 3525 3541 
Q 3525 3141 3298 2862 
Q 3072 2584 2669 2484 
Q 3125 2378 3379 2068 
Q 3634 1759 3634 1313 
Q 3634 634 3220 271 
Q 2806 -91 2034 -91 
Q 1263 -91 848 271 
Q 434 634 434 1313 
Q 434 1759 690 2068 
Q 947 2378 1403 2484 
z
M 1172 3481 
Q 1172 3119 1398 2916 
Q 1625 2713 2034 2713 
Q 2441 2713 2670 2916 
Q 2900 3119 2900 3481 
Q 2900 3844 2670 4047 
Q 2441 4250 2034 4250 
Q 1625 4250 1398 4047 
Q 1172 3844 1172 3481 
z
" transform="scale(0.015625)"/>
       </defs>
       <use xlink:href="#DejaVuSans-30"/>
       <use xlink:href="#DejaVuSans-2e" transform="translate(63.623047 0)"/>
       <use xlink:href="#DejaVuSans-38" transform="translate(95.410156 0)"/>
      </g>
     </g>
    </g>
    <g id="ytick_13">
     <g id="line2d_29">
      <path d="M 430.379375 36.182887 
L 759.399375 36.182887 
" clip-path="url(#p21a079767d)" style="fill: none; stroke: #b0b0b0; stroke-opacity: 0.3; stroke-width: 0.8; stroke-linecap: square"/>
     </g>
     <g id="line2d_30">
      <g>
       <use xlink:href="#mefeb28faf1" x="430.379375" y="36.182887" style="stroke: #000000; stroke-width: 0.8"/>
      </g>
     </g>
     <g id="text_24">
      <!-- 1.0 -->
      <g transform="translate(407.47625 39.982106) scale(0.1 -0.1)">
       <use xlink:href="#DejaVuSans-31"/>
       <use xlink:href="#DejaVuSans-2e" transform="translate(63.623047 0)"/>
       <use xlink:href="#DejaVuSans-30" transform="translate(95.410156 0)"/>
      </g>
     </g>
    </g>
    <g id="text_25">
     <!-- Coverage -->
     <g transform="translate(400.980625 196.646563) rotate(-90) scale(0.12 -0.12)">
      <defs>
       <path id="DejaVuSans-43" d="M 4122 4306 
L 4122 3641 
Q 3803 3938 3442 4084 
Q 3081 4231 2675 4231 
Q 1875 4231 1450 3742 
Q 1025 3253 1025 2328 
Q 1025 1406 1450 917 
Q 1875 428 2675 428 
Q 3081 428 3442 575 
Q 3803 722 4122 1019 
L 4122 359 
Q 3791 134 3420 21 
Q 3050 -91 2638 -91 
Q 1578 -91 968 557 
Q 359 1206 359 2328 
Q 359 3453 968 4101 
Q 1578 4750 2638 4750 
Q 3056 4750 3426 4639 
Q 3797 4528 4122 4306 
z
" transform="scale(0.015625)"/>
       <path id="DejaVuSans-76" d="M 191 3500 
L 800 3500 
L 1894 563 
L 2988 3500 
L 3597 3500 
L 2284 0 
L 1503 0 
L 191 3500 
z
" transform="scale(0.015625)"/>
       <path id="DejaVuSans-67" d="M 2906 1791 
Q 2906 2416 2648 2759 
Q 2391 3103 1925 3103 
Q 1463 3103 1205 2759 
Q 947 2416 947 1791 
Q 947 1169 1205 825 
Q 1463 481 1925 481 
Q 2391 481 2648 825 
Q 2906 1169 2906 1791 
z
M 3481 434 
Q 3481 -459 3084 -895 
Q 2688 -1331 1869 -1331 
Q 1566 -1331 1297 -1286 
Q 1028 -1241 775 -1147 
L 775 -588 
Q 1028 -725 1275 -790 
Q 1522 -856 1778 -856 
Q 2344 -856 2625 -561 
Q 2906 -266 2906 331 
L 2906 616 
Q 2728 306 2450 153 
Q 2172 0 1784 0 
Q 1141 0 747 490 
Q 353 981 353 1791 
Q 353 2603 747 3093 
Q 1141 3584 1784 3584 
Q 2172 3584 2450 3431 
Q 2728 3278 2906 2969 
L 2906 3500 
L 3481 3500 
L 3481 434 
z
" transform="scale(0.015625)"/>
      </defs>
      <use xlink:href="#DejaVuSans-43"/>
      <use xlink:href="#DejaVuSans-6f" transform="translate(69.824219 0)"/>
      <use xlink:href="#DejaVuSans-76" transform="translate(131.005859 0)"/>
      <use xlink:href="#DejaVuSans-65" transform="translate(190.185547 0)"/>
      <use xlink:href="#DejaVuSans-72" transform="translate(251.708984 0)"/>
      <use xlink:href="#DejaVuSans-61" transform="translate(292.822266 0)"/>
      <use xlink:href="#DejaVuSans-67" transform="translate(354.101562 0)"/>
      <use xlink:href="#DejaVuSans-65" transform="translate(417.578125 0)"/>
     </g>
    </g>
   </g>
   <g id="line2d_31">
    <path d="M 430.379375 63.912411 
L 759.399375 63.912411 
" clip-path="url(#p21a079767d)" style="fill: none; stroke-dasharray: 7.4,3.2; stroke-dashoffset: 0; stroke: #ff0000; stroke-width: 2"/>
   </g>
   <g id="patch_24">
    <path d="M 430.379375 313.478125 
L 430.379375 22.318125 
" style="fill: none; stroke: #000000; stroke-width: 0.8; stroke-linejoin: miter; stroke-linecap: square"/>
   </g>
   <g id="patch_25">
    <path d="M 759.399375 313.478125 
L 759.399375 22.318125 
" style="fill: none; stroke: #000000; stroke-width: 0.8; stroke-linejoin: miter; stroke-linecap: square"/>
   </g>
   <g id="patch_26">
    <path d="M 430.379375 313.478125 
L 759.399375 313.478125 
" style="fill: none; stroke: #000000; stroke-width: 0.8; stroke-linejoin: miter; stroke-linecap: square"/>
   </g>
   <g id="patch_27">
    <path d="M 430.379375 22.318125 
L 759.399375 22.318125 
" style="fill: none; stroke: #000000; stroke-width: 0.8; stroke-linejoin: miter; stroke-linecap: square"/>
   </g>
   <g id="text_26">
    <!-- δ 90% CI Coverage by Extension Type -->
    <g transform="translate(481.137812 16.318125) scale(0.12 -0.12)">
     <defs>
      <path id="DejaVuSans-39" d="M 703 97 
L 703 672 
Q 941 559 1184 500 
Q 1428 441 1663 441 
Q 2288 441 2617 861 
Q 2947 1281 2994 2138 
Q 2813 1869 2534 1725 
Q 2256 1581 1919 1581 
Q 1219 1581 811 2004 
Q 403 2428 403 3163 
Q 403 3881 828 4315 
Q 1253 4750 1959 4750 
Q 2769 4750 3195 4129 
Q 3622 3509 3622 2328 
Q 3622 1225 3098 567 
Q 2575 -91 1691 -91 
Q 1453 -91 1209 -44 
Q 966 3 703 97 
z
M 1959 2075 
Q 2384 2075 2632 2365 
Q 2881 2656 2881 3163 
Q 2881 3666 2632 3958 
Q 2384 4250 1959 4250 
Q 1534 4250 1286 3958 
Q 1038 3666 1038 3163 
Q 1038 2656 1286 2365 
Q 1534 2075 1959 2075 
z
" transform="scale(0.015625)"/>
      <path id="DejaVuSans-25" d="M 4653 2053 
Q 4381 2053 4226 1822 
Q 4072 1591 4072 1178 
Q 4072 772 4226 539 
Q 4381 306 4653 306 
Q 4919 306 5073 539 
Q 5228 772 5228 1178 
Q 5228 1588 5073 1820 
Q 4919 2053 4653 2053 
z
M 4653 2450 
Q 5147 2450 5437 2106 
Q 5728 1763 5728 1178 
Q 5728 594 5436 251 
Q 5144 -91 4653 -91 
Q 4153 -91 3862 251 
Q 3572 594 3572 1178 
Q 3572 1766 3864 2108 
Q 4156 2450 4653 2450 
z
M 1428 4353 
Q 1159 4353 1004 4120 
Q 850 3888 850 3481 
Q 850 3069 1003 2837 
Q 1156 2606 1428 2606 
Q 1700 2606 1854 2837 
Q 2009 3069 2009 3481 
Q 2009 3884 1853 4118 
Q 1697 4353 1428 4353 
z
M 4250 4750 
L 4750 4750 
L 1831 -91 
L 1331 -91 
L 4250 4750 
z
M 1428 4750 
Q 1922 4750 2215 4408 
Q 2509 4066 2509 3481 
Q 2509 2891 2217 2550 
Q 1925 2209 1428 2209 
Q 931 2209 642 2551 
Q 353 2894 353 3481 
Q 353 4063 643 4406 
Q 934 4750 1428 4750 
z
" transform="scale(0.015625)"/>
      <path id="DejaVuSans-49" d="M 628 4666 
L 1259 4666 
L 1259 0 
L 628 0 
L 628 4666 
z
" transform="scale(0.015625)"/>
     </defs>
     <use xlink:href="#DejaVuSans-3b4"/>
     <use xlink:href="#DejaVuSans-20" transform="translate(61.181641 0)"/>
     <use xlink:href="#DejaVuSans-39" transform="translate(92.96875 0)"/>
     <use xlink:href="#DejaVuSans-30" transform="translate(156.591797 0)"/>
     <use xlink:href="#DejaVuSans-25" transform="translate(220.214844 0)"/>
     <use xlink:href="#DejaVuSans-20" transform="translate(315.234375 0)"/>
     <use xlink:href="#DejaVuSans-43" transform="translate(347.021484 0)"/>
     <use xlink:href="#DejaVuSans-49" transform="translate(416.845703 0)"/>
     <use xlink:href="#DejaVuSans-20" transform="translate(446.337891 0)"/>
     <use xlink:href="#DejaVuSans-43" transform="translate(478.125 0)"/>
     <use xlink:href="#DejaVuSans-6f" transform="translate(547.949219 0)"/>
     <use xlink:href="#DejaVuSans-76" transform="translate(609.130859 0)"/>
     <use xlink:href="#DejaVuSans-65" transform="translate(668.310547 0)"/>
     <use xlink:href="#DejaVuSans-72" transform="translate(729.833984 0)"/>
     <use xlink:href="#DejaVuSans-61" transform="translate(770.947266 0)"/>
     <use xlink:href="#DejaVuSans-67" transform="translate(832.226562 0)"/>
     <use xlink:href="#DejaVuSans-65" transform="translate(895.703125 0)"/>
     <use xlink:href="#DejaVuSans-20" transform="translate(957.226562 0)"/>
     <use xlink:href="#DejaVuSans-62" transform="translate(989.013672 0)"/>
     <use xlink:href="#DejaVuSans-79" transform="translate(1052.490234 0)"/>
     <use xlink:href="#DejaVuSans-20" transform="translate(1111.669922 0)"/>
     <use xlink:href="#DejaVuSans-45" transform="translate(1143.457031 0)"/>
     <use xlink:href="#DejaVuSans-78" transform="translate(1206.640625 0)"/>
     <use xlink:href="#DejaVuSans-74" transform="translate(1265.820312 0)"/>
     <use xlink:href="#DejaVuSans-65" transform="translate(1305.029297 0)"/>
     <use xlink:href="#DejaVuSans-6e" transform="translate(1366.552734 0)"/>
     <use xlink:href="#DejaVuSans-73" transform="translate(1429.931641 0)"/>
     <use xlink:href="#DejaVuSans-69" transform="translate(1482.03125 0)"/>
     <use xlink:href="#DejaVuSans-6f" transform="translate(1509.814453 0)"/>
     <use xlink:href="#DejaVuSans-6e" transform="translate(1570.996094 0)"/>
     <use xlink:href="#DejaVuSans-20" transform="translate(1634.375 0)"/>
     <use xlink:href="#DejaVuSans-54" transform="translate(1666.162109 0)"/>
     <use xlink:href="#DejaVuSans-79" transform="translate(1711.621094 0)"/>
     <use xlink:href="#DejaVuSans-70" transform="translate(1770.800781 0)"/>
     <use xlink:href="#DejaVuSans-65" transform="translate(1834.277344 0)"/>
    </g>
   </g>
   <g id="legend_2">
    <g id="patch_28">
     <path d="M 631.24 308.478125 
L 752.399375 308.478125 
Q 754.399375 308.478125 754.399375 306.478125 
L 754.399375 248.765625 
Q 754.399375 246.765625 752.399375 246.765625 
L 631.24 246.765625 
Q 629.24 246.765625 629.24 248.765625 
L 629.24 306.478125 
Q 629.24 308.478125 631.24 308.478125 
z
" style="fill: #ffffff; opacity: 0.8; stroke: #cccccc; stroke-linejoin: miter"/>
    </g>
    <g id="line2d_32">
     <path d="M 633.24 254.864063 
L 643.24 254.864063 
L 653.24 254.864063 
" style="fill: none; stroke-dasharray: 7.4,3.2; stroke-dashoffset: 0; stroke: #ff0000; stroke-width: 2"/>
    </g>
    <g id="text_27">
     <!-- Target (90%) -->
     <g transform="translate(661.24 258.364063) scale(0.1 -0.1)">
      <use xlink:href="#DejaVuSans-54"/>
      <use xlink:href="#DejaVuSans-61" transform="translate(44.583984 0)"/>
      <use xlink:href="#DejaVuSans-72" transform="translate(105.863281 0)"/>
      <use xlink:href="#DejaVuSans-67" transform="translate(145.226562 0)"/>
      <use xlink:href="#DejaVuSans-65" transform="translate(208.703125 0)"/>
      <use xlink:href="#DejaVuSans-74" transform="translate(270.226562 0)"/>
      <use xlink:href="#DejaVuSans-20" transform="translate(309.435547 0)"/>
      <use xlink:href="#DejaVuSans-28" transform="translate(341.222656 0)"/>
      <use xlink:href="#DejaVuSans-39" transform="translate(380.236328 0)"/>
      <use xlink:href="#DejaVuSans-30" transform="translate(443.859375 0)"/>
      <use xlink:href="#DejaVuSans-25" transform="translate(507.482422 0)"/>
      <use xlink:href="#DejaVuSans-29" transform="translate(602.501953 0)"/>
     </g>
    </g>
    <g id="patch_29">
     <path d="M 633.24 273.042188 
L 653.24 273.042188 
L 653.24 266.042188 
L 633.24 266.042188 
z
" style="fill: #4682b4; opacity: 0.7"/>
    </g>
    <g id="text_28">
     <!-- M=25 (base) -->
     <g transform="translate(661.24 273.042188) scale(0.1 -0.1)">
      <use xlink:href="#DejaVuSans-4d"/>
      <use xlink:href="#DejaVuSans-3d" transform="translate(86.279297 0)"/>
      <use xlink:href="#DejaVuSans-32" transform="translate(170.068359 0)"/>
      <use xlink:href="#DejaVuSans-35" transform="translate(233.691406 0)"/>
      <use xlink:href="#DejaVuSans-20" transform="translate(297.314453 0)"/>
      <use xlink:href="#DejaVuSans-28" transform="translate(329.101562 0)"/>
      <use xlink:href="#DejaVuSans-62" transform="translate(368.115234 0)"/>
      <use xlink:href="#DejaVuSans-61" transform="translate(431.591797 0)"/>
      <use xlink:href="#DejaVuSans-73" transform="translate(492.871094 0)"/>
      <use xlink:href="#DejaVuSans-65" transform="translate(544.970703 0)"/>
      <use xlink:href="#DejaVuSans-29" transform="translate(606.494141 0)"/>
     </g>
    </g>
    <g id="patch_30">
     <path d="M 633.24 287.720313 
L 653.24 287.720313 
L 653.24 280.720313 
L 633.24 280.720313 
z
" style="fill: #ff7f50; opacity: 0.7"/>
    </g>
    <g id="text_29">
     <!-- M=50 (same alts) -->
     <g transform="translate(661.24 287.720313) scale(0.1 -0.1)">
      <use xlink:href="#DejaVuSans-4d"/>
      <use xlink:href="#DejaVuSans-3d" transform="translate(86.279297 0)"/>
      <use xlink:href="#DejaVuSans-35" transform="translate(170.068359 0)"/>
      <use xlink:href="#DejaVuSans-30" transform="translate(233.691406 0)"/>
      <use xlink:href="#DejaVuSans-20" transform="translate(297.314453 0)"/>
      <use xlink:href="#DejaVuSans-28" transform="translate(329.101562 0)"/>
      <use xlink:href="#DejaVuSans-73" transform="translate(368.115234 0)"/>
      <use xlink:href="#DejaVuSans-61" transform="translate(420.214844 0)"/>
      <use xlink:href="#DejaVuSans-6d" transform="translate(481.494141 0)"/>
      <use xlink:href="#DejaVuSans-65" transform="translate(578.90625 0)"/>
      <use xlink:href="#DejaVuSans-20" transform="translate(640.429688 0)"/>
      <use xlink:href="#DejaVuSans-61" transform="translate(672.216797 0)"/>
      <use xlink:href="#DejaVuSans-6c" transform="translate(733.496094 0)"/>
      <use xlink:href="#DejaVuSans-74" transform="translate(761.279297 0)"/>
      <use xlink:href="#DejaVuSans-73" transform="translate(800.488281 0)"/>
      <use xlink:href="#DejaVuSans-29" transform="translate(852.587891 0)"/>
     </g>
    </g>
    <g id="patch_31">
     <path d="M 633.24 302.398438 
L 653.24 302.398438 
L 653.24 295.398438 
L 633.24 295.398438 
z
" style="fill: #3cb371; opacity: 0.7"/>
    </g>
    <g id="text_30">
     <!-- M=50 (new alts) -->
     <g transform="translate(661.24 302.398438) scale(0.1 -0.1)">
      <use xlink:href="#DejaVuSans-4d"/>
      <use xlink:href="#DejaVuSans-3d" transform="translate(86.279297 0)"/>
      <use xlink:href="#DejaVuSans-35" transform="translate(170.068359 0)"/>
      <use xlink:href="#DejaVuSans-30" transform="translate(233.691406 0)"/>
      <use xlink:href="#DejaVuSans-20" transform="translate(297.314453 0)"/>
      <use xlink:href="#DejaVuSans-28" transform="translate(329.101562 0)"/>
      <use xlink:href="#DejaVuSans-6e" transform="translate(368.115234 0)"/>
      <use xlink:href="#DejaVuSans-65" transform="translate(431.494141 0)"/>
      <use xlink:href="#DejaVuSans-77" transform="translate(493.017578 0)"/>
      <use xlink:href="#DejaVuSans-20" transform="translate(574.804688 0)"/>
      <use xlink:href="#DejaVuSans-61" transform="translate(606.591797 0)"/>
      <use xlink:href="#DejaVuSans-6c" transform="translate(667.871094 0)"/>
      <use xlink:href="#DejaVuSans-74" transform="translate(695.654297 0)"/>
      <use xlink:href="#DejaVuSans-73" transform="translate(734.863281 0)"/>
      <use xlink:href="#DejaVuSans-29" transform="translate(786.962891 0)"/>
     </g>
    </g>
   </g>
  </g>
  <g id="axes_3">
   <g id="patch_32">
    <path d="M 808.679375 313.478125 
L 1137.699375 313.478125 
L 1137.699375 22.318125 
L 808.679375 22.318125 
z
" style="fill: #ffffff"/>
   </g>
   <g id="patch_33">
    <path d="M 823.63483 313.478125 
L 866.3647 313.478125 
L 866.3647 36.182888 
L 823.63483 36.182888 
z
" clip-path="url(#pa0731d5736)" style="fill: #4682b4; opacity: 0.7"/>
   </g>
   <g id="patch_34">
    <path d="M 994.55431 313.478125 
L 1037.28418 313.478125 
L 1037.28418 36.182887 
L 994.55431 36.182887 
z
" clip-path="url(#pa0731d5736)" style="fill: #4682b4; opacity: 0.7"/>
   </g>
   <g id="patch_35">
    <path d="M 866.3647 313.478125 
L 909.09457 313.478125 
L 909.09457 40.401102 
L 866.3647 40.401102 
z
" clip-path="url(#pa0731d5736)" style="fill: #ff7f50; opacity: 0.7"/>
   </g>
   <g id="patch_36">
    <path d="M 1037.28418 313.478125 
L 1080.01405 313.478125 
L 1080.01405 40.401148 
L 1037.28418 40.401148 
z
" clip-path="url(#pa0731d5736)" style="fill: #ff7f50; opacity: 0.7"/>
   </g>
   <g id="patch_37">
    <path d="M 909.09457 313.478125 
L 951.82444 313.478125 
L 951.82444 40.983899 
L 909.09457 40.983899 
z
" clip-path="url(#pa0731d5736)" style="fill: #3cb371; opacity: 0.7"/>
   </g>
   <g id="patch_38">
    <path d="M 1080.01405 313.478125 
L 1122.74392 313.478125 
L 1122.74392 40.983896 
L 1080.01405 40.983896 
z
" clip-path="url(#pa0731d5736)" style="fill: #3cb371; opacity: 0.7"/>
   </g>
   <g id="matplotlib.axis_5">
    <g id="xtick_5">
     <g id="line2d_33">
      <g>
       <use xlink:href="#mdd690cba7d" x="887.729635" y="313.478125" style="stroke: #000000; stroke-width: 0.8"/>
      </g>
     </g>
     <g id="text_31">
      <!-- δ₁ -->
      <g transform="translate(882.665572 328.076563) scale(0.1 -0.1)">
       <use xlink:href="#DejaVuSans-3b4"/>
       <use xlink:href="#DejaVuSans-2081" transform="translate(61.181641 0)"/>
      </g>
     </g>
    </g>
    <g id="xtick_6">
     <g id="line2d_34">
      <g>
       <use xlink:href="#mdd690cba7d" x="1058.649115" y="313.478125" style="stroke: #000000; stroke-width: 0.8"/>
      </g>
     </g>
     <g id="text_32">
      <!-- δ₂ -->
      <g transform="translate(1053.585053 328.076563) scale(0.1 -0.1)">
       <use xlink:href="#DejaVuSans-3b4"/>
       <use xlink:href="#DejaVuSans-2082" transform="translate(61.181641 0)"/>
      </g>
     </g>
    </g>
    <g id="text_33">
     <!-- Parameter -->
     <g transform="translate(941.974375 343.274375) scale(0.12 -0.12)">
      <use xlink:href="#DejaVuSans-50"/>
      <use xlink:href="#DejaVuSans-61" transform="translate(55.802734 0)"/>
      <use xlink:href="#DejaVuSans-72" transform="translate(117.082031 0)"/>
      <use xlink:href="#DejaVuSans-61" transform="translate(158.195312 0)"/>
      <use xlink:href="#DejaVuSans-6d" transform="translate(219.474609 0)"/>
      <use xlink:href="#DejaVuSans-65" transform="translate(316.886719 0)"/>
      <use xlink:href="#DejaVuSans-74" transform="translate(378.410156 0)"/>
      <use xlink:href="#DejaVuSans-65" transform="translate(417.619141 0)"/>
      <use xlink:href="#DejaVuSans-72" transform="translate(479.142578 0)"/>
     </g>
    </g>
   </g>
   <g id="matplotlib.axis_6">
    <g id="ytick_14">
     <g id="line2d_35">
      <path d="M 808.679375 313.478125 
L 1137.699375 313.478125 
" clip-path="url(#pa0731d5736)" style="fill: none; stroke: #b0b0b0; stroke-opacity: 0.3; stroke-width: 0.8; stroke-linecap: square"/>
     </g>
     <g id="line2d_36">
      <g>
       <use xlink:href="#mefeb28faf1" x="808.679375" y="313.478125" style="stroke: #000000; stroke-width: 0.8"/>
      </g>
     </g>
     <g id="text_34">
      <!-- 0.0 -->
      <g transform="translate(785.77625 317.277344) scale(0.1 -0.1)">
       <use xlink:href="#DejaVuSans-30"/>
       <use xlink:href="#DejaVuSans-2e" transform="translate(63.623047 0)"/>
       <use xlink:href="#DejaVuSans-30" transform="translate(95.410156 0)"/>
      </g>
     </g>
    </g>
    <g id="ytick_15">
     <g id="line2d_37">
      <path d="M 808.679375 251.315832 
L 1137.699375 251.315832 
" clip-path="url(#pa0731d5736)" style="fill: none; stroke: #b0b0b0; stroke-opacity: 0.3; stroke-width: 0.8; stroke-linecap: square"/>
     </g>
     <g id="line2d_38">
      <g>
       <use xlink:href="#mefeb28faf1" x="808.679375" y="251.315832" style="stroke: #000000; stroke-width: 0.8"/>
      </g>
     </g>
     <g id="text_35">
      <!-- 0.2 -->
      <g transform="translate(785.77625 255.115051) scale(0.1 -0.1)">
       <use xlink:href="#DejaVuSans-30"/>
       <use xlink:href="#DejaVuSans-2e" transform="translate(63.623047 0)"/>
       <use xlink:href="#DejaVuSans-32" transform="translate(95.410156 0)"/>
      </g>
     </g>
    </g>
    <g id="ytick_16">
     <g id="line2d_39">
      <path d="M 808.679375 189.15354 
L 1137.699375 189.15354 
" clip-path="url(#pa0731d5736)" style="fill: none; stroke: #b0b0b0; stroke-opacity: 0.3; stroke-width: 0.8; stroke-linecap: square"/>
     </g>
     <g id="line2d_40">
      <g>
       <use xlink:href="#mefeb28faf1" x="808.679375" y="189.15354" style="stroke: #000000; stroke-width: 0.8"/>
      </g>
     </g>
     <g id="text_36">
      <!-- 0.4 -->
      <g transform="translate(785.77625 192.952758) scale(0.1 -0.1)">
       <use xlink:href="#DejaVuSans-30"/>
       <use xlink:href="#DejaVuSans-2e" transform="translate(63.623047 0)"/>
       <use xlink:href="#DejaVuSans-34" transform="translate(95.410156 0)"/>
      </g>
     </g>
    </g>
    <g id="ytick_17">
     <g id="line2d_41">
      <path d="M 808.679375 126.991247 
L 1137.699375 126.991247 
" clip-path="url(#pa0731d5736)" style="fill: none; stroke: #b0b0b0; stroke-opacity: 0.3; stroke-width: 0.8; stroke-linecap: square"/>
     </g>
     <g id="line2d_42">
      <g>
       <use xlink:href="#mefeb28faf1" x="808.679375" y="126.991247" style="stroke: #000000; stroke-width: 0.8"/>
      </g>
     </g>
     <g id="text_37">
      <!-- 0.6 -->
      <g transform="translate(785.77625 130.790466) scale(0.1 -0.1)">
       <use xlink:href="#DejaVuSans-30"/>
       <use xlink:href="#DejaVuSans-2e" transform="translate(63.623047 0)"/>
       <use xlink:href="#DejaVuSans-36" transform="translate(95.410156 0)"/>
      </g>
     </g>
    </g>
    <g id="ytick_18">
     <g id="line2d_43">
      <path d="M 808.679375 64.828954 
L 1137.699375 64.828954 
" clip-path="url(#pa0731d5736)" style="fill: none; stroke: #b0b0b0; stroke-opacity: 0.3; stroke-width: 0.8; stroke-linecap: square"/>
     </g>
     <g id="line2d_44">
      <g>
       <use xlink:href="#mefeb28faf1" x="808.679375" y="64.828954" style="stroke: #000000; stroke-width: 0.8"/>
      </g>
     </g>
     <g id="text_38">
      <!-- 0.8 -->
      <g transform="translate(785.77625 68.628173) scale(0.1 -0.1)">
       <use xlink:href="#DejaVuSans-30"/>
       <use xlink:href="#DejaVuSans-2e" transform="translate(63.623047 0)"/>
       <use xlink:href="#DejaVuSans-38" transform="translate(95.410156 0)"/>
      </g>
     </g>
    </g>
    <g id="text_39">
     <!-- CI Width -->
     <g transform="translate(779.280625 193.192813) rotate(-90) scale(0.12 -0.12)">
      <defs>
       <path id="DejaVuSans-57" d="M 213 4666 
L 850 4666 
L 1831 722 
L 2809 4666 
L 3519 4666 
L 4500 722 
L 5478 4666 
L 6119 4666 
L 4947 0 
L 4153 0 
L 3169 4050 
L 2175 0 
L 1381 0 
L 213 4666 
z
" transform="scale(0.015625)"/>
       <path id="DejaVuSans-64" d="M 2906 2969 
L 2906 4863 
L 3481 4863 
L 3481 0 
L 2906 0 
L 2906 525 
Q 2725 213 2448 61 
Q 2172 -91 1784 -91 
Q 1150 -91 751 415 
Q 353 922 353 1747 
Q 353 2572 751 3078 
Q 1150 3584 1784 3584 
Q 2172 3584 2448 3432 
Q 2725 3281 2906 2969 
z
M 947 1747 
Q 947 1113 1208 752 
Q 1469 391 1925 391 
Q 2381 391 2643 752 
Q 2906 1113 2906 1747 
Q 2906 2381 2643 2742 
Q 2381 3103 1925 3103 
Q 1469 3103 1208 2742 
Q 947 2381 947 1747 
z
" transform="scale(0.015625)"/>
       <path id="DejaVuSans-68" d="M 3513 2113 
L 3513 0 
L 2938 0 
L 2938 2094 
Q 2938 2591 2744 2837 
Q 2550 3084 2163 3084 
Q 1697 3084 1428 2787 
Q 1159 2491 1159 1978 
L 1159 0 
L 581 0 
L 581 4863 
L 1159 4863 
L 1159 2956 
Q 1366 3272 1645 3428 
Q 1925 3584 2291 3584 
Q 2894 3584 3203 3211 
Q 3513 2838 3513 2113 
z
" transform="scale(0.015625)"/>
      </defs>
      <use xlink:href="#DejaVuSans-43"/>
      <use xlink:href="#DejaVuSans-49" transform="translate(69.824219 0)"/>
      <use xlink:href="#DejaVuSans-20" transform="translate(99.316406 0)"/>
      <use xlink:href="#DejaVuSans-57" transform="translate(131.103516 0)"/>
      <use xlink:href="#DejaVuSans-69" transform="translate(227.730469 0)"/>
      <use xlink:href="#DejaVuSans-64" transform="translate(255.513672 0)"/>
      <use xlink:href="#DejaVuSans-74" transform="translate(318.990234 0)"/>
      <use xlink:href="#DejaVuSans-68" transform="translate(358.199219 0)"/>
     </g>
    </g>
   </g>
   <g id="patch_39">
    <path d="M 808.679375 313.478125 
L 808.679375 22.318125 
" style="fill: none; stroke: #000000; stroke-width: 0.8; stroke-linejoin: miter; stroke-linecap: square"/>
   </g>
   <g id="patch_40">
    <path d="M 1137.699375 313.478125 
L 1137.699375 22.318125 
" style="fill: none; stroke: #000000; stroke-width: 0.8; stroke-linejoin: miter; stroke-linecap: square"/>
   </g>
   <g id="patch_41">
    <path d="M 808.679375 313.478125 
L 1137.699375 313.478125 
" style="fill: none; stroke: #000000; stroke-width: 0.8; stroke-linejoin: miter; stroke-linecap: square"/>
   </g>
   <g id="patch_42">
    <path d="M 808.679375 22.318125 
L 1137.699375 22.318125 
" style="fill: none; stroke: #000000; stroke-width: 0.8; stroke-linejoin: miter; stroke-linecap: square"/>
   </g>
   <g id="text_40">
    <!-- δ 90% CI Width by Extension Type -->
    <g transform="translate(870.758125 16.318125) scale(0.12 -0.12)">
     <use xlink:href="#DejaVuSans-3b4"/>
     <use xlink:href="#DejaVuSans-20" transform="translate(61.181641 0)"/>
     <use xlink:href="#DejaVuSans-39" transform="translate(92.96875 0)"/>
     <use xlink:href="#DejaVuSans-30" transform="translate(156.591797 0)"/>
     <use xlink:href="#DejaVuSans-25" transform="translate(220.214844 0)"/>
     <use xlink:href="#DejaVuSans-20" transform="translate(315.234375 0)"/>
     <use xlink:href="#DejaVuSans-43" transform="translate(347.021484 0)"/>
     <use xlink:href="#DejaVuSans-49" transform="translate(416.845703 0)"/>
     <use xlink:href="#DejaVuSans-20" transform="translate(446.337891 0)"/>
     <use xlink:href="#DejaVuSans-57" transform="translate(478.125 0)"/>
     <use xlink:href="#DejaVuSans-69" transform="translate(574.751953 0)"/>
     <use xlink:href="#DejaVuSans-64" transform="translate(602.535156 0)"/>
     <use xlink:href="#DejaVuSans-74" transform="translate(666.011719 0)"/>
     <use xlink:href="#DejaVuSans-68" transform="translate(705.220703 0)"/>
     <use xlink:href="#DejaVuSans-20" transform="translate(768.599609 0)"/>
     <use xlink:href="#DejaVuSans-62" transform="translate(800.386719 0)"/>
     <use xlink:href="#DejaVuSans-79" transform="translate(863.863281 0)"/>
     <use xlink:href="#DejaVuSans-20" transform="translate(923.042969 0)"/>
     <use xlink:href="#DejaVuSans-45" transform="translate(954.830078 0)"/>
     <use xlink:href="#DejaVuSans-78" transform="translate(1018.013672 0)"/>
     <use xlink:href="#DejaVuSans-74" transform="translate(1077.193359 0)"/>
     <use xlink:href="#DejaVuSans-65" transform="translate(1116.402344 0)"/>
     <use xlink:href="#DejaVuSans-6e" transform="translate(1177.925781 0)"/>
     <use xlink:href="#DejaVuSans-73" transform="translate(1241.304688 0)"/>
     <use xlink:href="#DejaVuSans-69" transform="translate(1293.404297 0)"/>
     <use xlink:href="#DejaVuSans-6f" transform="translate(1321.1875 0)"/>
     <use xlink:href="#DejaVuSans-6e" transform="translate(1382.369141 0)"/>
     <use xlink:href="#DejaVuSans-20" transform="translate(1445.748047 0)"/>
     <use xlink:href="#DejaVuSans-54" transform="translate(1477.535156 0)"/>
     <use xlink:href="#DejaVuSans-79" transform="translate(1522.994141 0)"/>
     <use xlink:href="#DejaVuSans-70" transform="translate(1582.173828 0)"/>
     <use xlink:href="#DejaVuSans-65" transform="translate(1645.650391 0)"/>
    </g>
   </g>
   <g id="legend_3">
    <g id="patch_43">
     <path d="M 1009.54 74.3525 
L 1130.699375 74.3525 
Q 1132.699375 74.3525 1132.699375 72.3525 
L 1132.699375 29.318125 
Q 1132.699375 27.318125 1130.699375 27.318125 
L 1009.54 27.318125 
Q 1007.54 27.318125 1007.54 29.318125 
L 1007.54 72.3525 
Q 1007.54 74.3525 1009.54 74.3525 
z
" style="fill: #ffffff; opacity: 0.8; stroke: #cccccc; stroke-linejoin: miter"/>
    </g>
    <g id="patch_44">
     <path d="M 1011.54 38.916562 
L 1031.54 38.916562 
L 1031.54 31.916562 
L 1011.54 31.916562 
z
" style="fill: #4682b4; opacity: 0.7"/>
    </g>
    <g id="text_41">
     <!-- M=25 (base) -->
     <g transform="translate(1039.54 38.916562) scale(0.1 -0.1)">
      <use xlink:href="#DejaVuSans-4d"/>
      <use xlink:href="#DejaVuSans-3d" transform="translate(86.279297 0)"/>
      <use xlink:href="#DejaVuSans-32" transform="translate(170.068359 0)"/>
      <use xlink:href="#DejaVuSans-35" transform="translate(233.691406 0)"/>
      <use xlink:href="#DejaVuSans-20" transform="translate(297.314453 0)"/>
      <use xlink:href="#DejaVuSans-28" transform="translate(329.101562 0)"/>
      <use xlink:href="#DejaVuSans-62" transform="translate(368.115234 0)"/>
      <use xlink:href="#DejaVuSans-61" transform="translate(431.591797 0)"/>
      <use xlink:href="#DejaVuSans-73" transform="translate(492.871094 0)"/>
      <use xlink:href="#DejaVuSans-65" transform="translate(544.970703 0)"/>
      <use xlink:href="#DejaVuSans-29" transform="translate(606.494141 0)"/>
     </g>
    </g>
    <g id="patch_45">
     <path d="M 1011.54 53.594688 
L 1031.54 53.594688 
L 1031.54 46.594688 
L 1011.54 46.594688 
z
" style="fill: #ff7f50; opacity: 0.7"/>
    </g>
    <g id="text_42">
     <!-- M=50 (same alts) -->
     <g transform="translate(1039.54 53.594688) scale(0.1 -0.1)">
      <use xlink:href="#DejaVuSans-4d"/>
      <use xlink:href="#DejaVuSans-3d" transform="translate(86.279297 0)"/>
      <use xlink:href="#DejaVuSans-35" transform="translate(170.068359 0)"/>
      <use xlink:href="#DejaVuSans-30" transform="translate(233.691406 0)"/>
      <use xlink:href="#DejaVuSans-20" transform="translate(297.314453 0)"/>
      <use xlink:href="#DejaVuSans-28" transform="translate(329.101562 0)"/>
      <use xlink:href="#DejaVuSans-73" transform="translate(368.115234 0)"/>
      <use xlink:href="#DejaVuSans-61" transform="translate(420.214844 0)"/>
      <use xlink:href="#DejaVuSans-6d" transform="translate(481.494141 0)"/>
      <use xlink:href="#DejaVuSans-65" transform="translate(578.90625 0)"/>
      <use xlink:href="#DejaVuSans-20" transform="translate(640.429688 0)"/>
      <use xlink:href="#DejaVuSans-61" transform="translate(672.216797 0)"/>
      <use xlink:href="#DejaVuSans-6c" transform="translate(733.496094 0)"/>
      <use xlink:href="#DejaVuSans-74" transform="translate(761.279297 0)"/>
      <use xlink:href="#DejaVuSans-73" transform="translate(800.488281 0)"/>
      <use xlink:href="#DejaVuSans-29" transform="translate(852.587891 0)"/>
     </g>
    </g>
    <g id="patch_46">
     <path d="M 1011.54 68.272812 
L 1031.54 68.272812 
L 1031.54 61.272812 
L 1011.54 61.272812 
z
" style="fill: #3cb371; opacity: 0.7"/>
    </g>
    <g id="text_43">
     <!-- M=50 (new alts) -->
     <g transform="translate(1039.54 68.272812) scale(0.1 -0.1)">
      <use xlink:href="#DejaVuSans-4d"/>
      <use xlink:href="#DejaVuSans-3d" transform="translate(86.279297 0)"/>
      <use xlink:href="#DejaVuSans-35" transform="translate(170.068359 0)"/>
      <use xlink:href="#DejaVuSans-30" transform="translate(233.691406 0)"/>
      <use xlink:href="#DejaVuSans-20" transform="translate(297.314453 0)"/>
      <use xlink:href="#DejaVuSans-28" transform="translate(329.101562 0)"/>
      <use xlink:href="#DejaVuSans-6e" transform="translate(368.115234 0)"/>
      <use xlink:href="#DejaVuSans-65" transform="translate(431.494141 0)"/>
      <use xlink:href="#DejaVuSans-77" transform="translate(493.017578 0)"/>
      <use xlink:href="#DejaVuSans-20" transform="translate(574.804688 0)"/>
      <use xlink:href="#DejaVuSans-61" transform="translate(606.591797 0)"/>
      <use xlink:href="#DejaVuSans-6c" transform="translate(667.871094 0)"/>
      <use xlink:href="#DejaVuSans-74" transform="translate(695.654297 0)"/>
      <use xlink:href="#DejaVuSans-73" transform="translate(734.863281 0)"/>
      <use xlink:href="#DejaVuSans-29" transform="translate(786.962891 0)"/>
     </g>
    </g>
   </g>
  </g>
 </g>
 <defs>
  <clipPath id="p61a7a72a24">
   <rect x="52.079375" y="22.318125" width="329.02" height="291.16"/>
  </clipPath>
  <clipPath id="p21a079767d">
   <rect x="430.379375" y="22.318125" width="329.02" height="291.16"/>
  </clipPath>
  <clipPath id="pa0731d5736">
   <rect x="808.679375" y="22.318125" width="329.02" height="291.16"/>
  </clipPath>
 </defs>
</svg>
