<?xml version="1.0" encoding="utf-8" standalone="no"?>
<!DOCTYPE svg PUBLIC "-//W3C//DTD SVG 1.1//EN"
  "http://www.w3.org/Graphics/SVG/1.1/DTD/svg11.dtd">
<svg xmlns:xlink="http://www.w3.org/1999/xlink" width="854.458389pt" height="350.602031pt" viewBox="0 0 854.458389 350.602031" xmlns="http://www.w3.org/2000/svg" version="1.1">
 <metadata>
  <rdf:RDF xmlns:dc="http://purl.org/dc/elements/1.1/" xmlns:cc="http://creativecommons.org/ns#" xmlns:rdf="http://www.w3.org/1999/02/22-rdf-syntax-ns#">
   <cc:Work>
    <dc:type rdf:resource="http://purl.org/dc/dcmitype/StillImage"/>
    <dc:date>2026-04-26T12:17:47.318707</dc:date>
    <dc:format>image/svg+xml</dc:format>
    <dc:creator>
     <cc:Agent>
      <dc:title>Matplotlib v3.10.8, https://matplotlib.org/</dc:title>
     </cc:Agent>
    </dc:creator>
   </cc:Work>
  </rdf:RDF>
 </metadata>
 <defs>
  <style type="text/css">*{stroke-linejoin: round; stroke-linecap: butt}</style>
 </defs>
 <g id="figure_1">
  <g id="patch_1">
   <path d="M 0 350.602031 
L 854.458389 350.602031 
L 854.458389 0 
L 0 0 
z
" style="fill: #ffffff"/>
  </g>
  <g id="axes_1">
   <g id="patch_2">
    <path d="M 50.946875 312.077969 
L 417.532116 312.077969 
L 417.532116 23.077969 
L 50.946875 23.077969 
z
" style="fill: #ffffff"/>
   </g>
   <g id="matplotlib.axis_1">
    <g id="xtick_1">
     <g id="line2d_1">
      <path d="M 66.969024 312.077969 
L 66.969024 23.077969 
" clip-path="url(#p29a07d51c2)" style="fill: none; stroke: #e2e8f0; stroke-opacity: 0.3; stroke-width: 0.5; stroke-linecap: square"/>
     </g>
     <g id="line2d_2">
      <defs>
       <path id="m4e769d804d" d="M 0 0 
L 0 3.5 
" style="stroke: #2d3748; stroke-width: 0.8"/>
      </defs>
      <g>
       <use xlink:href="#m4e769d804d" x="66.969024" y="312.077969" style="fill: #2d3748; stroke: #2d3748; stroke-width: 0.8"/>
      </g>
     </g>
     <g id="text_1">
      <!-- 25 -->
      <g style="fill: #2d3748" transform="translate(60.606524 326.676406) scale(0.1 -0.1)">
       <defs>
        <path id="DejaVuSans-32" d="M 1228 531 
L 3431 531 
L 3431 0 
L 469 0 
L 469 531 
Q 828 903 1448 1529 
Q 2069 2156 2228 2338 
Q 2531 2678 2651 2914 
Q 2772 3150 2772 3378 
Q 2772 3750 2511 3984 
Q 2250 4219 1831 4219 
Q 1534 4219 1204 4116 
Q 875 4013 500 3803 
L 500 4441 
Q 881 4594 1212 4672 
Q 1544 4750 1819 4750 
Q 2544 4750 2975 4387 
Q 3406 4025 3406 3419 
Q 3406 3131 3298 2873 
Q 3191 2616 2906 2266 
Q 2828 2175 2409 1742 
Q 1991 1309 1228 531 
z
" transform="scale(0.015625)"/>
        <path id="DejaVuSans-35" d="M 691 4666 
L 3169 4666 
L 3169 4134 
L 1269 4134 
L 1269 2991 
Q 1406 3038 1543 3061 
Q 1681 3084 1819 3084 
Q 2600 3084 3056 2656 
Q 3513 2228 3513 1497 
Q 3513 744 3044 326 
Q 2575 -91 1722 -91 
Q 1428 -91 1123 -41 
Q 819 9 494 109 
L 494 744 
Q 775 591 1075 516 
Q 1375 441 1709 441 
Q 2250 441 2565 725 
Q 2881 1009 2881 1497 
Q 2881 1984 2565 2268 
Q 2250 2553 1709 2553 
Q 1456 2553 1204 2497 
Q 953 2441 691 2322 
L 691 4666 
z
" transform="scale(0.015625)"/>
       </defs>
       <use xlink:href="#DejaVuSans-32"/>
       <use xlink:href="#DejaVuSans-35" transform="translate(63.623047 0)"/>
      </g>
     </g>
    </g>
    <g id="xtick_2">
     <g id="line2d_3">
      <path d="M 117.172375 312.077969 
L 117.172375 23.077969 
" clip-path="url(#p29a07d51c2)" style="fill: none; stroke: #e2e8f0; stroke-opacity: 0.3; stroke-width: 0.5; stroke-linecap: square"/>
     </g>
     <g id="line2d_4">
      <g>
       <use xlink:href="#m4e769d804d" x="117.172375" y="312.077969" style="fill: #2d3748; stroke: #2d3748; stroke-width: 0.8"/>
      </g>
     </g>
     <g id="text_2">
      <!-- 30 -->
      <g style="fill: #2d3748" transform="translate(110.809875 326.676406) scale(0.1 -0.1)">
       <defs>
        <path id="DejaVuSans-33" d="M 2597 2516 
Q 3050 2419 3304 2112 
Q 3559 1806 3559 1356 
Q 3559 666 3084 287 
Q 2609 -91 1734 -91 
Q 1441 -91 1130 -33 
Q 819 25 488 141 
L 488 750 
Q 750 597 1062 519 
Q 1375 441 1716 441 
Q 2309 441 2620 675 
Q 2931 909 2931 1356 
Q 2931 1769 2642 2001 
Q 2353 2234 1838 2234 
L 1294 2234 
L 1294 2753 
L 1863 2753 
Q 2328 2753 2575 2939 
Q 2822 3125 2822 3475 
Q 2822 3834 2567 4026 
Q 2313 4219 1838 4219 
Q 1578 4219 1281 4162 
Q 984 4106 628 3988 
L 628 4550 
Q 988 4650 1302 4700 
Q 1616 4750 1894 4750 
Q 2613 4750 3031 4423 
Q 3450 4097 3450 3541 
Q 3450 3153 3228 2886 
Q 3006 2619 2597 2516 
z
" transform="scale(0.015625)"/>
        <path id="DejaVuSans-30" d="M 2034 4250 
Q 1547 4250 1301 3770 
Q 1056 3291 1056 2328 
Q 1056 1369 1301 889 
Q 1547 409 2034 409 
Q 2525 409 2770 889 
Q 3016 1369 3016 2328 
Q 3016 3291 2770 3770 
Q 2525 4250 2034 4250 
z
M 2034 4750 
Q 2819 4750 3233 4129 
Q 3647 3509 3647 2328 
Q 3647 1150 3233 529 
Q 2819 -91 2034 -91 
Q 1250 -91 836 529 
Q 422 1150 422 2328 
Q 422 3509 836 4129 
Q 1250 4750 2034 4750 
z
" transform="scale(0.015625)"/>
       </defs>
       <use xlink:href="#DejaVuSans-33"/>
       <use xlink:href="#DejaVuSans-30" transform="translate(63.623047 0)"/>
      </g>
     </g>
    </g>
    <g id="xtick_3">
     <g id="line2d_5">
      <path d="M 167.375725 312.077969 
L 167.375725 23.077969 
" clip-path="url(#p29a07d51c2)" style="fill: none; stroke: #e2e8f0; stroke-opacity: 0.3; stroke-width: 0.5; stroke-linecap: square"/>
     </g>
     <g id="line2d_6">
      <g>
       <use xlink:href="#m4e769d804d" x="167.375725" y="312.077969" style="fill: #2d3748; stroke: #2d3748; stroke-width: 0.8"/>
      </g>
     </g>
     <g id="text_3">
      <!-- 35 -->
      <g style="fill: #2d3748" transform="translate(161.013225 326.676406) scale(0.1 -0.1)">
       <use xlink:href="#DejaVuSans-33"/>
       <use xlink:href="#DejaVuSans-35" transform="translate(63.623047 0)"/>
      </g>
     </g>
    </g>
    <g id="xtick_4">
     <g id="line2d_7">
      <path d="M 217.579076 312.077969 
L 217.579076 23.077969 
" clip-path="url(#p29a07d51c2)" style="fill: none; stroke: #e2e8f0; stroke-opacity: 0.3; stroke-width: 0.5; stroke-linecap: square"/>
     </g>
     <g id="line2d_8">
      <g>
       <use xlink:href="#m4e769d804d" x="217.579076" y="312.077969" style="fill: #2d3748; stroke: #2d3748; stroke-width: 0.8"/>
      </g>
     </g>
     <g id="text_4">
      <!-- 40 -->
      <g style="fill: #2d3748" transform="translate(211.216576 326.676406) scale(0.1 -0.1)">
       <defs>
        <path id="DejaVuSans-34" d="M 2419 4116 
L 825 1625 
L 2419 1625 
L 2419 4116 
z
M 2253 4666 
L 3047 4666 
L 3047 1625 
L 3713 1625 
L 3713 1100 
L 3047 1100 
L 3047 0 
L 2419 0 
L 2419 1100 
L 313 1100 
L 313 1709 
L 2253 4666 
z
" transform="scale(0.015625)"/>
       </defs>
       <use xlink:href="#DejaVuSans-34"/>
       <use xlink:href="#DejaVuSans-30" transform="translate(63.623047 0)"/>
      </g>
     </g>
    </g>
    <g id="xtick_5">
     <g id="line2d_9">
      <path d="M 267.782426 312.077969 
L 267.782426 23.077969 
" clip-path="url(#p29a07d51c2)" style="fill: none; stroke: #e2e8f0; stroke-opacity: 0.3; stroke-width: 0.5; stroke-linecap: square"/>
     </g>
     <g id="line2d_10">
      <g>
       <use xlink:href="#m4e769d804d" x="267.782426" y="312.077969" style="fill: #2d3748; stroke: #2d3748; stroke-width: 0.8"/>
      </g>
     </g>
     <g id="text_5">
      <!-- 45 -->
      <g style="fill: #2d3748" transform="translate(261.419926 326.676406) scale(0.1 -0.1)">
       <use xlink:href="#DejaVuSans-34"/>
       <use xlink:href="#DejaVuSans-35" transform="translate(63.623047 0)"/>
      </g>
     </g>
    </g>
    <g id="xtick_6">
     <g id="line2d_11">
      <path d="M 317.985777 312.077969 
L 317.985777 23.077969 
" clip-path="url(#p29a07d51c2)" style="fill: none; stroke: #e2e8f0; stroke-opacity: 0.3; stroke-width: 0.5; stroke-linecap: square"/>
     </g>
     <g id="line2d_12">
      <g>
       <use xlink:href="#m4e769d804d" x="317.985777" y="312.077969" style="fill: #2d3748; stroke: #2d3748; stroke-width: 0.8"/>
      </g>
     </g>
     <g id="text_6">
      <!-- 50 -->
      <g style="fill: #2d3748" transform="translate(311.623277 326.676406) scale(0.1 -0.1)">
       <use xlink:href="#DejaVuSans-35"/>
       <use xlink:href="#DejaVuSans-30" transform="translate(63.623047 0)"/>
      </g>
     </g>
    </g>
    <g id="xtick_7">
     <g id="line2d_13">
      <path d="M 368.189127 312.077969 
L 368.189127 23.077969 
" clip-path="url(#p29a07d51c2)" style="fill: none; stroke: #e2e8f0; stroke-opacity: 0.3; stroke-width: 0.5; stroke-linecap: square"/>
     </g>
     <g id="line2d_14">
      <g>
       <use xlink:href="#m4e769d804d" x="368.189127" y="312.077969" style="fill: #2d3748; stroke: #2d3748; stroke-width: 0.8"/>
      </g>
     </g>
     <g id="text_7">
      <!-- 55 -->
      <g style="fill: #2d3748" transform="translate(361.826627 326.676406) scale(0.1 -0.1)">
       <use xlink:href="#DejaVuSans-35"/>
       <use xlink:href="#DejaVuSans-35" transform="translate(63.623047 0)"/>
      </g>
     </g>
    </g>
    <g id="text_8">
     <!-- ω (risky sensitivity) -->
     <g style="fill: #2d3748" transform="translate(180.944495 341.114375) scale(0.11 -0.11)">
      <defs>
       <path id="DejaVuSans-3c9" d="M 1719 -91 
Q 422 -91 422 1766 
Q 422 2500 906 3500 
L 1525 3500 
Q 1078 2500 1078 1750 
Q 1078 397 1772 397 
Q 2406 397 2406 2078 
L 2938 2078 
Q 2938 397 3572 397 
Q 4266 397 4266 1750 
Q 4266 2500 3819 3500 
L 4438 3500 
Q 4922 2500 4922 1766 
Q 4922 -91 3625 -91 
Q 2775 -91 2672 844 
Q 2544 -91 1719 -91 
z
" transform="scale(0.015625)"/>
       <path id="DejaVuSans-20" transform="scale(0.015625)"/>
       <path id="DejaVuSans-28" d="M 1984 4856 
Q 1566 4138 1362 3434 
Q 1159 2731 1159 2009 
Q 1159 1288 1364 580 
Q 1569 -128 1984 -844 
L 1484 -844 
Q 1016 -109 783 600 
Q 550 1309 550 2009 
Q 550 2706 781 3412 
Q 1013 4119 1484 4856 
L 1984 4856 
z
" transform="scale(0.015625)"/>
       <path id="DejaVuSans-72" d="M 2631 2963 
Q 2534 3019 2420 3045 
Q 2306 3072 2169 3072 
Q 1681 3072 1420 2755 
Q 1159 2438 1159 1844 
L 1159 0 
L 581 0 
L 581 3500 
L 1159 3500 
L 1159 2956 
Q 1341 3275 1631 3429 
Q 1922 3584 2338 3584 
Q 2397 3584 2469 3576 
Q 2541 3569 2628 3553 
L 2631 2963 
z
" transform="scale(0.015625)"/>
       <path id="DejaVuSans-69" d="M 603 3500 
L 1178 3500 
L 1178 0 
L 603 0 
L 603 3500 
z
M 603 4863 
L 1178 4863 
L 1178 4134 
L 603 4134 
L 603 4863 
z
" transform="scale(0.015625)"/>
       <path id="DejaVuSans-73" d="M 2834 3397 
L 2834 2853 
Q 2591 2978 2328 3040 
Q 2066 3103 1784 3103 
Q 1356 3103 1142 2972 
Q 928 2841 928 2578 
Q 928 2378 1081 2264 
Q 1234 2150 1697 2047 
L 1894 2003 
Q 2506 1872 2764 1633 
Q 3022 1394 3022 966 
Q 3022 478 2636 193 
Q 2250 -91 1575 -91 
Q 1294 -91 989 -36 
Q 684 19 347 128 
L 347 722 
Q 666 556 975 473 
Q 1284 391 1588 391 
Q 1994 391 2212 530 
Q 2431 669 2431 922 
Q 2431 1156 2273 1281 
Q 2116 1406 1581 1522 
L 1381 1569 
Q 847 1681 609 1914 
Q 372 2147 372 2553 
Q 372 3047 722 3315 
Q 1072 3584 1716 3584 
Q 2034 3584 2315 3537 
Q 2597 3491 2834 3397 
z
" transform="scale(0.015625)"/>
       <path id="DejaVuSans-6b" d="M 581 4863 
L 1159 4863 
L 1159 1991 
L 2875 3500 
L 3609 3500 
L 1753 1863 
L 3688 0 
L 2938 0 
L 1159 1709 
L 1159 0 
L 581 0 
L 581 4863 
z
" transform="scale(0.015625)"/>
       <path id="DejaVuSans-79" d="M 2059 -325 
Q 1816 -950 1584 -1140 
Q 1353 -1331 966 -1331 
L 506 -1331 
L 506 -850 
L 844 -850 
Q 1081 -850 1212 -737 
Q 1344 -625 1503 -206 
L 1606 56 
L 191 3500 
L 800 3500 
L 1894 763 
L 2988 3500 
L 3597 3500 
L 2059 -325 
z
" transform="scale(0.015625)"/>
       <path id="DejaVuSans-65" d="M 3597 1894 
L 3597 1613 
L 953 1613 
Q 991 1019 1311 708 
Q 1631 397 2203 397 
Q 2534 397 2845 478 
Q 3156 559 3463 722 
L 3463 178 
Q 3153 47 2828 -22 
Q 2503 -91 2169 -91 
Q 1331 -91 842 396 
Q 353 884 353 1716 
Q 353 2575 817 3079 
Q 1281 3584 2069 3584 
Q 2775 3584 3186 3129 
Q 3597 2675 3597 1894 
z
M 3022 2063 
Q 3016 2534 2758 2815 
Q 2500 3097 2075 3097 
Q 1594 3097 1305 2825 
Q 1016 2553 972 2059 
L 3022 2063 
z
" transform="scale(0.015625)"/>
       <path id="DejaVuSans-6e" d="M 3513 2113 
L 3513 0 
L 2938 0 
L 2938 2094 
Q 2938 2591 2744 2837 
Q 2550 3084 2163 3084 
Q 1697 3084 1428 2787 
Q 1159 2491 1159 1978 
L 1159 0 
L 581 0 
L 581 3500 
L 1159 3500 
L 1159 2956 
Q 1366 3272 1645 3428 
Q 1925 3584 2291 3584 
Q 2894 3584 3203 3211 
Q 3513 2838 3513 2113 
z
" transform="scale(0.015625)"/>
       <path id="DejaVuSans-74" d="M 1172 4494 
L 1172 3500 
L 2356 3500 
L 2356 3053 
L 1172 3053 
L 1172 1153 
Q 1172 725 1289 603 
Q 1406 481 1766 481 
L 2356 481 
L 2356 0 
L 1766 0 
Q 1100 0 847 248 
Q 594 497 594 1153 
L 594 3053 
L 172 3053 
L 172 3500 
L 594 3500 
L 594 4494 
L 1172 4494 
z
" transform="scale(0.015625)"/>
       <path id="DejaVuSans-76" d="M 191 3500 
L 800 3500 
L 1894 563 
L 2988 3500 
L 3597 3500 
L 2284 0 
L 1503 0 
L 191 3500 
z
" transform="scale(0.015625)"/>
       <path id="DejaVuSans-29" d="M 513 4856 
L 1013 4856 
Q 1481 4119 1714 3412 
Q 1947 2706 1947 2009 
Q 1947 1309 1714 600 
Q 1481 -109 1013 -844 
L 513 -844 
Q 928 -128 1133 580 
Q 1338 1288 1338 2009 
Q 1338 2731 1133 3434 
Q 928 4138 513 4856 
z
" transform="scale(0.015625)"/>
      </defs>
      <use xlink:href="#DejaVuSans-3c9"/>
      <use xlink:href="#DejaVuSans-20" transform="translate(83.740234 0)"/>
      <use xlink:href="#DejaVuSans-28" transform="translate(115.527344 0)"/>
      <use xlink:href="#DejaVuSans-72" transform="translate(154.541016 0)"/>
      <use xlink:href="#DejaVuSans-69" transform="translate(195.654297 0)"/>
      <use xlink:href="#DejaVuSans-73" transform="translate(223.4375 0)"/>
      <use xlink:href="#DejaVuSans-6b" transform="translate(275.537109 0)"/>
      <use xlink:href="#DejaVuSans-79" transform="translate(329.822266 0)"/>
      <use xlink:href="#DejaVuSans-20" transform="translate(389.001953 0)"/>
      <use xlink:href="#DejaVuSans-73" transform="translate(420.789062 0)"/>
      <use xlink:href="#DejaVuSans-65" transform="translate(472.888672 0)"/>
      <use xlink:href="#DejaVuSans-6e" transform="translate(534.412109 0)"/>
      <use xlink:href="#DejaVuSans-73" transform="translate(597.791016 0)"/>
      <use xlink:href="#DejaVuSans-69" transform="translate(649.890625 0)"/>
      <use xlink:href="#DejaVuSans-74" transform="translate(677.673828 0)"/>
      <use xlink:href="#DejaVuSans-69" transform="translate(716.882812 0)"/>
      <use xlink:href="#DejaVuSans-76" transform="translate(744.666016 0)"/>
      <use xlink:href="#DejaVuSans-69" transform="translate(803.845703 0)"/>
      <use xlink:href="#DejaVuSans-74" transform="translate(831.628906 0)"/>
      <use xlink:href="#DejaVuSans-79" transform="translate(870.837891 0)"/>
      <use xlink:href="#DejaVuSans-29" transform="translate(930.017578 0)"/>
     </g>
    </g>
   </g>
   <g id="matplotlib.axis_2">
    <g id="ytick_1">
     <g id="line2d_15">
      <path d="M 50.946875 45.379237 
L 417.532116 45.379237 
" clip-path="url(#p29a07d51c2)" style="fill: none; stroke: #e2e8f0; stroke-opacity: 0.5; stroke-width: 0.5; stroke-linecap: square"/>
     </g>
     <g id="line2d_16">
      <defs>
       <path id="m5e4db0f106" d="M 0 0 
L -3.5 0 
" style="stroke: #2d3748; stroke-width: 0.8"/>
      </defs>
      <g>
       <use xlink:href="#m5e4db0f106" x="50.946875" y="45.379237" style="fill: #2d3748; stroke: #2d3748; stroke-width: 0.8"/>
      </g>
     </g>
     <g id="text_9">
      <!-- T = 0.0 -->
      <g style="fill: #2d3748" transform="translate(7.2 49.178456) scale(0.1 -0.1)">
       <defs>
        <path id="DejaVuSans-54" d="M -19 4666 
L 3928 4666 
L 3928 4134 
L 2272 4134 
L 2272 0 
L 1638 0 
L 1638 4134 
L -19 4134 
L -19 4666 
z
" transform="scale(0.015625)"/>
        <path id="DejaVuSans-3d" d="M 678 2906 
L 4684 2906 
L 4684 2381 
L 678 2381 
L 678 2906 
z
M 678 1631 
L 4684 1631 
L 4684 1100 
L 678 1100 
L 678 1631 
z
" transform="scale(0.015625)"/>
        <path id="DejaVuSans-2e" d="M 684 794 
L 1344 794 
L 1344 0 
L 684 0 
L 684 794 
z
" transform="scale(0.015625)"/>
       </defs>
       <use xlink:href="#DejaVuSans-54"/>
       <use xlink:href="#DejaVuSans-20" transform="translate(61.083984 0)"/>
       <use xlink:href="#DejaVuSans-3d" transform="translate(92.871094 0)"/>
       <use xlink:href="#DejaVuSans-20" transform="translate(176.660156 0)"/>
       <use xlink:href="#DejaVuSans-30" transform="translate(208.447266 0)"/>
       <use xlink:href="#DejaVuSans-2e" transform="translate(272.070312 0)"/>
       <use xlink:href="#DejaVuSans-30" transform="translate(303.857422 0)"/>
      </g>
     </g>
    </g>
    <g id="ytick_2">
     <g id="line2d_17">
      <path d="M 50.946875 106.478603 
L 417.532116 106.478603 
" clip-path="url(#p29a07d51c2)" style="fill: none; stroke: #e2e8f0; stroke-opacity: 0.5; stroke-width: 0.5; stroke-linecap: square"/>
     </g>
     <g id="line2d_18">
      <g>
       <use xlink:href="#m5e4db0f106" x="50.946875" y="106.478603" style="fill: #2d3748; stroke: #2d3748; stroke-width: 0.8"/>
      </g>
     </g>
     <g id="text_10">
      <!-- T = 0.3 -->
      <g style="fill: #2d3748" transform="translate(7.2 110.277822) scale(0.1 -0.1)">
       <use xlink:href="#DejaVuSans-54"/>
       <use xlink:href="#DejaVuSans-20" transform="translate(61.083984 0)"/>
       <use xlink:href="#DejaVuSans-3d" transform="translate(92.871094 0)"/>
       <use xlink:href="#DejaVuSans-20" transform="translate(176.660156 0)"/>
       <use xlink:href="#DejaVuSans-30" transform="translate(208.447266 0)"/>
       <use xlink:href="#DejaVuSans-2e" transform="translate(272.070312 0)"/>
       <use xlink:href="#DejaVuSans-33" transform="translate(303.857422 0)"/>
      </g>
     </g>
    </g>
    <g id="ytick_3">
     <g id="line2d_19">
      <path d="M 50.946875 167.577969 
L 417.532116 167.577969 
" clip-path="url(#p29a07d51c2)" style="fill: none; stroke: #e2e8f0; stroke-opacity: 0.5; stroke-width: 0.5; stroke-linecap: square"/>
     </g>
     <g id="line2d_20">
      <g>
       <use xlink:href="#m5e4db0f106" x="50.946875" y="167.577969" style="fill: #2d3748; stroke: #2d3748; stroke-width: 0.8"/>
      </g>
     </g>
     <g id="text_11">
      <!-- T = 0.7 -->
      <g style="fill: #2d3748" transform="translate(7.2 171.377187) scale(0.1 -0.1)">
       <defs>
        <path id="DejaVuSans-37" d="M 525 4666 
L 3525 4666 
L 3525 4397 
L 1831 0 
L 1172 0 
L 2766 4134 
L 525 4134 
L 525 4666 
z
" transform="scale(0.015625)"/>
       </defs>
       <use xlink:href="#DejaVuSans-54"/>
       <use xlink:href="#DejaVuSans-20" transform="translate(61.083984 0)"/>
       <use xlink:href="#DejaVuSans-3d" transform="translate(92.871094 0)"/>
       <use xlink:href="#DejaVuSans-20" transform="translate(176.660156 0)"/>
       <use xlink:href="#DejaVuSans-30" transform="translate(208.447266 0)"/>
       <use xlink:href="#DejaVuSans-2e" transform="translate(272.070312 0)"/>
       <use xlink:href="#DejaVuSans-37" transform="translate(303.857422 0)"/>
      </g>
     </g>
    </g>
    <g id="ytick_4">
     <g id="line2d_21">
      <path d="M 50.946875 228.677335 
L 417.532116 228.677335 
" clip-path="url(#p29a07d51c2)" style="fill: none; stroke: #e2e8f0; stroke-opacity: 0.5; stroke-width: 0.5; stroke-linecap: square"/>
     </g>
     <g id="line2d_22">
      <g>
       <use xlink:href="#m5e4db0f106" x="50.946875" y="228.677335" style="fill: #2d3748; stroke: #2d3748; stroke-width: 0.8"/>
      </g>
     </g>
     <g id="text_12">
      <!-- T = 1.0 -->
      <g style="fill: #2d3748" transform="translate(7.2 232.476553) scale(0.1 -0.1)">
       <defs>
        <path id="DejaVuSans-31" d="M 794 531 
L 1825 531 
L 1825 4091 
L 703 3866 
L 703 4441 
L 1819 4666 
L 2450 4666 
L 2450 531 
L 3481 531 
L 3481 0 
L 794 0 
L 794 531 
z
" transform="scale(0.015625)"/>
       </defs>
       <use xlink:href="#DejaVuSans-54"/>
       <use xlink:href="#DejaVuSans-20" transform="translate(61.083984 0)"/>
       <use xlink:href="#DejaVuSans-3d" transform="translate(92.871094 0)"/>
       <use xlink:href="#DejaVuSans-20" transform="translate(176.660156 0)"/>
       <use xlink:href="#DejaVuSans-31" transform="translate(208.447266 0)"/>
       <use xlink:href="#DejaVuSans-2e" transform="translate(272.070312 0)"/>
       <use xlink:href="#DejaVuSans-30" transform="translate(303.857422 0)"/>
      </g>
     </g>
    </g>
    <g id="ytick_5">
     <g id="line2d_23">
      <path d="M 50.946875 289.7767 
L 417.532116 289.7767 
" clip-path="url(#p29a07d51c2)" style="fill: none; stroke: #e2e8f0; stroke-opacity: 0.5; stroke-width: 0.5; stroke-linecap: square"/>
     </g>
     <g id="line2d_24">
      <g>
       <use xlink:href="#m5e4db0f106" x="50.946875" y="289.7767" style="fill: #2d3748; stroke: #2d3748; stroke-width: 0.8"/>
      </g>
     </g>
     <g id="text_13">
      <!-- T = 1.5 -->
      <g style="fill: #2d3748" transform="translate(7.2 293.575919) scale(0.1 -0.1)">
       <use xlink:href="#DejaVuSans-54"/>
       <use xlink:href="#DejaVuSans-20" transform="translate(61.083984 0)"/>
       <use xlink:href="#DejaVuSans-3d" transform="translate(92.871094 0)"/>
       <use xlink:href="#DejaVuSans-20" transform="translate(176.660156 0)"/>
       <use xlink:href="#DejaVuSans-31" transform="translate(208.447266 0)"/>
       <use xlink:href="#DejaVuSans-2e" transform="translate(272.070312 0)"/>
       <use xlink:href="#DejaVuSans-35" transform="translate(303.857422 0)"/>
      </g>
     </g>
    </g>
   </g>
   <g id="line2d_25">
    <path d="M 133.919228 36.214332 
L 349.865082 36.214332 
" clip-path="url(#p29a07d51c2)" style="fill: none; stroke: #2c5282; stroke-width: 1.5; stroke-linecap: square"/>
   </g>
   <g id="line2d_26">
    <path d="M 187.868881 36.214332 
L 274.899916 36.214332 
" clip-path="url(#p29a07d51c2)" style="fill: none; stroke: #2c5282; stroke-width: 4; stroke-linecap: square"/>
   </g>
   <g id="line2d_27">
    <defs>
     <path id="m5b1af910b7" d="M 0 3.5 
C 0.928211 3.5 1.81853 3.131218 2.474874 2.474874 
C 3.131218 1.81853 3.5 0.928211 3.5 0 
C 3.5 -0.928211 3.131218 -1.81853 2.474874 -2.474874 
C 1.81853 -3.131218 0.928211 -3.5 0 -3.5 
C -0.928211 -3.5 -1.81853 -3.131218 -2.474874 -2.474874 
C -3.131218 -1.81853 -3.5 -0.928211 -3.5 0 
C -3.5 0.928211 -3.131218 1.81853 -2.474874 2.474874 
C -1.81853 3.131218 -0.928211 3.5 0 3.5 
z
" style="stroke: #2c5282"/>
    </defs>
    <g clip-path="url(#p29a07d51c2)">
     <use xlink:href="#m5b1af910b7" x="228.693947" y="36.214332" style="fill: #2c5282; stroke: #2c5282"/>
    </g>
   </g>
   <g id="line2d_28">
    <path d="M 159.631928 54.544142 
L 387.742795 54.544142 
" clip-path="url(#p29a07d51c2)" style="fill: none; stroke: #ed8936; stroke-width: 1.5; stroke-linecap: square"/>
   </g>
   <g id="line2d_29">
    <path d="M 214.107354 54.544142 
L 307.822395 54.544142 
" clip-path="url(#p29a07d51c2)" style="fill: none; stroke: #ed8936; stroke-width: 4; stroke-linecap: square"/>
   </g>
   <g id="line2d_30">
    <defs>
     <path id="m35441fd041" d="M -3.5 3.5 
L 3.5 3.5 
L 3.5 -3.5 
L -3.5 -3.5 
z
" style="stroke: #ed8936; stroke-linejoin: miter"/>
    </defs>
    <g clip-path="url(#p29a07d51c2)">
     <use xlink:href="#m35441fd041" x="259.132103" y="54.544142" style="fill: #ed8936; stroke: #ed8936; stroke-linejoin: miter"/>
    </g>
   </g>
   <g id="line2d_31">
    <path d="M 145.440335 97.313698 
L 381.540738 97.313698 
" clip-path="url(#p29a07d51c2)" style="fill: none; stroke: #2c5282; stroke-width: 1.5; stroke-linecap: square"/>
   </g>
   <g id="line2d_32">
    <path d="M 201.501995 97.313698 
L 296.00848 97.313698 
" clip-path="url(#p29a07d51c2)" style="fill: none; stroke: #2c5282; stroke-width: 4; stroke-linecap: square"/>
   </g>
   <g id="line2d_33">
    <g clip-path="url(#p29a07d51c2)">
     <use xlink:href="#m5b1af910b7" x="244.514634" y="97.313698" style="fill: #2c5282; stroke: #2c5282"/>
    </g>
   </g>
   <g id="line2d_34">
    <path d="M 165.837034 115.643508 
L 400.86915 115.643508 
" clip-path="url(#p29a07d51c2)" style="fill: none; stroke: #ed8936; stroke-width: 1.5; stroke-linecap: square"/>
   </g>
   <g id="line2d_35">
    <path d="M 220.870967 115.643508 
L 316.130454 115.643508 
" clip-path="url(#p29a07d51c2)" style="fill: none; stroke: #ed8936; stroke-width: 4; stroke-linecap: square"/>
   </g>
   <g id="line2d_36">
    <g clip-path="url(#p29a07d51c2)">
     <use xlink:href="#m35441fd041" x="267.525691" y="115.643508" style="fill: #ed8936; stroke: #ed8936; stroke-linejoin: miter"/>
    </g>
   </g>
   <g id="line2d_37">
    <path d="M 125.654236 158.413064 
L 330.594095 158.413064 
" clip-path="url(#p29a07d51c2)" style="fill: none; stroke: #2c5282; stroke-width: 1.5; stroke-linecap: square"/>
   </g>
   <g id="line2d_38">
    <path d="M 174.306245 158.413064 
L 257.941982 158.413064 
" clip-path="url(#p29a07d51c2)" style="fill: none; stroke: #2c5282; stroke-width: 4; stroke-linecap: square"/>
   </g>
   <g id="line2d_39">
    <g clip-path="url(#p29a07d51c2)">
     <use xlink:href="#m5b1af910b7" x="215.003383" y="158.413064" style="fill: #2c5282; stroke: #2c5282"/>
    </g>
   </g>
   <g id="line2d_40">
    <path d="M 143.326635 176.742874 
L 353.632987 176.742874 
" clip-path="url(#p29a07d51c2)" style="fill: none; stroke: #ed8936; stroke-width: 1.5; stroke-linecap: square"/>
   </g>
   <g id="line2d_41">
    <path d="M 196.489519 176.742874 
L 279.986419 176.742874 
" clip-path="url(#p29a07d51c2)" style="fill: none; stroke: #ed8936; stroke-width: 4; stroke-linecap: square"/>
   </g>
   <g id="line2d_42">
    <g clip-path="url(#p29a07d51c2)">
     <use xlink:href="#m35441fd041" x="236.739134" y="176.742874" style="fill: #ed8936; stroke: #ed8936; stroke-linejoin: miter"/>
    </g>
   </g>
   <g id="line2d_43">
    <path d="M 81.530168 219.51243 
L 238.5952 219.51243 
" clip-path="url(#p29a07d51c2)" style="fill: none; stroke: #2c5282; stroke-width: 1.5; stroke-linecap: square"/>
   </g>
   <g id="line2d_44">
    <path d="M 121.403907 219.51243 
L 184.854677 219.51243 
" clip-path="url(#p29a07d51c2)" style="fill: none; stroke: #2c5282; stroke-width: 4; stroke-linecap: square"/>
   </g>
   <g id="line2d_45">
    <g clip-path="url(#p29a07d51c2)">
     <use xlink:href="#m5b1af910b7" x="150.564049" y="219.51243" style="fill: #2c5282; stroke: #2c5282"/>
    </g>
   </g>
   <g id="line2d_46">
    <path d="M 90.020703 237.842239 
L 251.333396 237.842239 
" clip-path="url(#p29a07d51c2)" style="fill: none; stroke: #ed8936; stroke-width: 1.5; stroke-linecap: square"/>
   </g>
   <g id="line2d_47">
    <path d="M 128.666685 237.842239 
L 196.612169 237.842239 
" clip-path="url(#p29a07d51c2)" style="fill: none; stroke: #ed8936; stroke-width: 4; stroke-linecap: square"/>
   </g>
   <g id="line2d_48">
    <g clip-path="url(#p29a07d51c2)">
     <use xlink:href="#m35441fd041" x="162.178931" y="237.842239" style="fill: #ed8936; stroke: #ed8936; stroke-linejoin: miter"/>
    </g>
   </g>
   <g id="line2d_49">
    <path d="M 67.60984 280.611795 
L 210.037202 280.611795 
" clip-path="url(#p29a07d51c2)" style="fill: none; stroke: #2c5282; stroke-width: 1.5; stroke-linecap: square"/>
   </g>
   <g id="line2d_50">
    <path d="M 103.633688 280.611795 
L 161.903824 280.611795 
" clip-path="url(#p29a07d51c2)" style="fill: none; stroke: #2c5282; stroke-width: 4; stroke-linecap: square"/>
   </g>
   <g id="line2d_51">
    <g clip-path="url(#p29a07d51c2)">
     <use xlink:href="#m5b1af910b7" x="131.573045" y="280.611795" style="fill: #2c5282; stroke: #2c5282"/>
    </g>
   </g>
   <g id="line2d_52">
    <path d="M 75.206167 298.941605 
L 218.51601 298.941605 
" clip-path="url(#p29a07d51c2)" style="fill: none; stroke: #ed8936; stroke-width: 1.5; stroke-linecap: square"/>
   </g>
   <g id="line2d_53">
    <path d="M 111.462976 298.941605 
L 170.214057 298.941605 
" clip-path="url(#p29a07d51c2)" style="fill: none; stroke: #ed8936; stroke-width: 4; stroke-linecap: square"/>
   </g>
   <g id="line2d_54">
    <g clip-path="url(#p29a07d51c2)">
     <use xlink:href="#m35441fd041" x="140.004643" y="298.941605" style="fill: #ed8936; stroke: #ed8936; stroke-linejoin: miter"/>
    </g>
   </g>
   <g id="patch_3">
    <path d="M 50.946875 312.077969 
L 50.946875 23.077969 
" style="fill: none; stroke: #2d3748; stroke-width: 0.8; stroke-linejoin: miter; stroke-linecap: square"/>
   </g>
   <g id="patch_4">
    <path d="M 50.946875 312.077969 
L 417.532116 312.077969 
" style="fill: none; stroke: #2d3748; stroke-width: 0.8; stroke-linejoin: miter; stroke-linecap: square"/>
   </g>
   <g id="text_14">
    <!-- Posterior ω by Temperature -->
    <g style="fill: #2d3748" transform="translate(144.73348 17.077969) scale(0.13 -0.13)">
     <defs>
      <path id="DejaVuSans-50" d="M 1259 4147 
L 1259 2394 
L 2053 2394 
Q 2494 2394 2734 2622 
Q 2975 2850 2975 3272 
Q 2975 3691 2734 3919 
Q 2494 4147 2053 4147 
L 1259 4147 
z
M 628 4666 
L 2053 4666 
Q 2838 4666 3239 4311 
Q 3641 3956 3641 3272 
Q 3641 2581 3239 2228 
Q 2838 1875 2053 1875 
L 1259 1875 
L 1259 0 
L 628 0 
L 628 4666 
z
" transform="scale(0.015625)"/>
      <path id="DejaVuSans-6f" d="M 1959 3097 
Q 1497 3097 1228 2736 
Q 959 2375 959 1747 
Q 959 1119 1226 758 
Q 1494 397 1959 397 
Q 2419 397 2687 759 
Q 2956 1122 2956 1747 
Q 2956 2369 2687 2733 
Q 2419 3097 1959 3097 
z
M 1959 3584 
Q 2709 3584 3137 3096 
Q 3566 2609 3566 1747 
Q 3566 888 3137 398 
Q 2709 -91 1959 -91 
Q 1206 -91 779 398 
Q 353 888 353 1747 
Q 353 2609 779 3096 
Q 1206 3584 1959 3584 
z
" transform="scale(0.015625)"/>
      <path id="DejaVuSans-62" d="M 3116 1747 
Q 3116 2381 2855 2742 
Q 2594 3103 2138 3103 
Q 1681 3103 1420 2742 
Q 1159 2381 1159 1747 
Q 1159 1113 1420 752 
Q 1681 391 2138 391 
Q 2594 391 2855 752 
Q 3116 1113 3116 1747 
z
M 1159 2969 
Q 1341 3281 1617 3432 
Q 1894 3584 2278 3584 
Q 2916 3584 3314 3078 
Q 3713 2572 3713 1747 
Q 3713 922 3314 415 
Q 2916 -91 2278 -91 
Q 1894 -91 1617 61 
Q 1341 213 1159 525 
L 1159 0 
L 581 0 
L 581 4863 
L 1159 4863 
L 1159 2969 
z
" transform="scale(0.015625)"/>
      <path id="DejaVuSans-6d" d="M 3328 2828 
Q 3544 3216 3844 3400 
Q 4144 3584 4550 3584 
Q 5097 3584 5394 3201 
Q 5691 2819 5691 2113 
L 5691 0 
L 5113 0 
L 5113 2094 
Q 5113 2597 4934 2840 
Q 4756 3084 4391 3084 
Q 3944 3084 3684 2787 
Q 3425 2491 3425 1978 
L 3425 0 
L 2847 0 
L 2847 2094 
Q 2847 2600 2669 2842 
Q 2491 3084 2119 3084 
Q 1678 3084 1418 2786 
Q 1159 2488 1159 1978 
L 1159 0 
L 581 0 
L 581 3500 
L 1159 3500 
L 1159 2956 
Q 1356 3278 1631 3431 
Q 1906 3584 2284 3584 
Q 2666 3584 2933 3390 
Q 3200 3197 3328 2828 
z
" transform="scale(0.015625)"/>
      <path id="DejaVuSans-70" d="M 1159 525 
L 1159 -1331 
L 581 -1331 
L 581 3500 
L 1159 3500 
L 1159 2969 
Q 1341 3281 1617 3432 
Q 1894 3584 2278 3584 
Q 2916 3584 3314 3078 
Q 3713 2572 3713 1747 
Q 3713 922 3314 415 
Q 2916 -91 2278 -91 
Q 1894 -91 1617 61 
Q 1341 213 1159 525 
z
M 3116 1747 
Q 3116 2381 2855 2742 
Q 2594 3103 2138 3103 
Q 1681 3103 1420 2742 
Q 1159 2381 1159 1747 
Q 1159 1113 1420 752 
Q 1681 391 2138 391 
Q 2594 391 2855 752 
Q 3116 1113 3116 1747 
z
" transform="scale(0.015625)"/>
      <path id="DejaVuSans-61" d="M 2194 1759 
Q 1497 1759 1228 1600 
Q 959 1441 959 1056 
Q 959 750 1161 570 
Q 1363 391 1709 391 
Q 2188 391 2477 730 
Q 2766 1069 2766 1631 
L 2766 1759 
L 2194 1759 
z
M 3341 1997 
L 3341 0 
L 2766 0 
L 2766 531 
Q 2569 213 2275 61 
Q 1981 -91 1556 -91 
Q 1019 -91 701 211 
Q 384 513 384 1019 
Q 384 1609 779 1909 
Q 1175 2209 1959 2209 
L 2766 2209 
L 2766 2266 
Q 2766 2663 2505 2880 
Q 2244 3097 1772 3097 
Q 1472 3097 1187 3025 
Q 903 2953 641 2809 
L 641 3341 
Q 956 3463 1253 3523 
Q 1550 3584 1831 3584 
Q 2591 3584 2966 3190 
Q 3341 2797 3341 1997 
z
" transform="scale(0.015625)"/>
      <path id="DejaVuSans-75" d="M 544 1381 
L 544 3500 
L 1119 3500 
L 1119 1403 
Q 1119 906 1312 657 
Q 1506 409 1894 409 
Q 2359 409 2629 706 
Q 2900 1003 2900 1516 
L 2900 3500 
L 3475 3500 
L 3475 0 
L 2900 0 
L 2900 538 
Q 2691 219 2414 64 
Q 2138 -91 1772 -91 
Q 1169 -91 856 284 
Q 544 659 544 1381 
z
M 1991 3584 
L 1991 3584 
z
" transform="scale(0.015625)"/>
     </defs>
     <use xlink:href="#DejaVuSans-50"/>
     <use xlink:href="#DejaVuSans-6f" transform="translate(56.677734 0)"/>
     <use xlink:href="#DejaVuSans-73" transform="translate(117.859375 0)"/>
     <use xlink:href="#DejaVuSans-74" transform="translate(169.958984 0)"/>
     <use xlink:href="#DejaVuSans-65" transform="translate(209.167969 0)"/>
     <use xlink:href="#DejaVuSans-72" transform="translate(270.691406 0)"/>
     <use xlink:href="#DejaVuSans-69" transform="translate(311.804688 0)"/>
     <use xlink:href="#DejaVuSans-6f" transform="translate(339.587891 0)"/>
     <use xlink:href="#DejaVuSans-72" transform="translate(400.769531 0)"/>
     <use xlink:href="#DejaVuSans-20" transform="translate(441.882812 0)"/>
     <use xlink:href="#DejaVuSans-3c9" transform="translate(473.669922 0)"/>
     <use xlink:href="#DejaVuSans-20" transform="translate(557.410156 0)"/>
     <use xlink:href="#DejaVuSans-62" transform="translate(589.197266 0)"/>
     <use xlink:href="#DejaVuSans-79" transform="translate(652.673828 0)"/>
     <use xlink:href="#DejaVuSans-20" transform="translate(711.853516 0)"/>
     <use xlink:href="#DejaVuSans-54" transform="translate(743.640625 0)"/>
     <use xlink:href="#DejaVuSans-65" transform="translate(787.724609 0)"/>
     <use xlink:href="#DejaVuSans-6d" transform="translate(849.248047 0)"/>
     <use xlink:href="#DejaVuSans-70" transform="translate(946.660156 0)"/>
     <use xlink:href="#DejaVuSans-65" transform="translate(1010.136719 0)"/>
     <use xlink:href="#DejaVuSans-72" transform="translate(1071.660156 0)"/>
     <use xlink:href="#DejaVuSans-61" transform="translate(1112.773438 0)"/>
     <use xlink:href="#DejaVuSans-74" transform="translate(1174.052734 0)"/>
     <use xlink:href="#DejaVuSans-75" transform="translate(1213.261719 0)"/>
     <use xlink:href="#DejaVuSans-72" transform="translate(1276.640625 0)"/>
     <use xlink:href="#DejaVuSans-65" transform="translate(1315.503906 0)"/>
    </g>
   </g>
   <g id="legend_1">
    <g id="patch_5">
     <path d="M 321.669459 109.539844 
L 411.232116 109.539844 
Q 413.032116 109.539844 413.032116 107.739844 
L 413.032116 29.377969 
Q 413.032116 27.577969 411.232116 27.577969 
L 321.669459 27.577969 
Q 319.869459 27.577969 319.869459 29.377969 
L 319.869459 107.739844 
Q 319.869459 109.539844 321.669459 109.539844 
z
" style="fill: #ffffff; opacity: 0.9; stroke: #e2e8f0; stroke-linejoin: miter"/>
    </g>
    <g id="line2d_55">
     <path d="M 323.469459 34.866562 
L 332.469459 34.866562 
L 341.469459 34.866562 
" style="fill: none; stroke: #2c5282; stroke-width: 1.5; stroke-linecap: square"/>
    </g>
    <g id="text_15">
     <!-- m₂₁ (free ω) -->
     <g style="fill: #2d3748" transform="translate(348.669459 38.016562) scale(0.09 -0.09)">
      <defs>
       <path id="DejaVuSans-2082" d="M 838 356 
L 2163 356 
L 2163 0 
L 294 0 
L 294 343 
Q 400 440 597 615 
Q 1672 1568 1672 1862 
Q 1672 2068 1509 2194 
Q 1347 2321 1081 2321 
Q 919 2321 728 2266 
Q 538 2212 313 2103 
L 313 2487 
Q 553 2575 761 2618 
Q 969 2662 1147 2662 
Q 1600 2662 1872 2456 
Q 2144 2250 2144 1912 
Q 2144 1478 1109 590 
Q 934 440 838 356 
z
" transform="scale(0.015625)"/>
       <path id="DejaVuSans-2081" d="M 488 343 
L 1125 343 
L 1125 2253 
L 428 2125 
L 428 2487 
L 1147 2609 
L 1575 2609 
L 1575 343 
L 2216 343 
L 2216 0 
L 488 0 
L 488 343 
z
" transform="scale(0.015625)"/>
       <path id="DejaVuSans-66" d="M 2375 4863 
L 2375 4384 
L 1825 4384 
Q 1516 4384 1395 4259 
Q 1275 4134 1275 3809 
L 1275 3500 
L 2222 3500 
L 2222 3053 
L 1275 3053 
L 1275 0 
L 697 0 
L 697 3053 
L 147 3053 
L 147 3500 
L 697 3500 
L 697 3744 
Q 697 4328 969 4595 
Q 1241 4863 1831 4863 
L 2375 4863 
z
" transform="scale(0.015625)"/>
      </defs>
      <use xlink:href="#DejaVuSans-6d"/>
      <use xlink:href="#DejaVuSans-2082" transform="translate(97.412109 0)"/>
      <use xlink:href="#DejaVuSans-2081" transform="translate(137.5 0)"/>
      <use xlink:href="#DejaVuSans-20" transform="translate(177.587891 0)"/>
      <use xlink:href="#DejaVuSans-28" transform="translate(209.375 0)"/>
      <use xlink:href="#DejaVuSans-66" transform="translate(248.388672 0)"/>
      <use xlink:href="#DejaVuSans-72" transform="translate(283.59375 0)"/>
      <use xlink:href="#DejaVuSans-65" transform="translate(322.457031 0)"/>
      <use xlink:href="#DejaVuSans-65" transform="translate(383.980469 0)"/>
      <use xlink:href="#DejaVuSans-20" transform="translate(445.503906 0)"/>
      <use xlink:href="#DejaVuSans-3c9" transform="translate(477.291016 0)"/>
      <use xlink:href="#DejaVuSans-29" transform="translate(561.03125 0)"/>
     </g>
    </g>
    <g id="line2d_56">
     <path d="M 323.469459 48.076875 
L 332.469459 48.076875 
L 341.469459 48.076875 
" style="fill: none; stroke: #2c5282; stroke-width: 4; stroke-linecap: square"/>
    </g>
    <g id="line2d_57">
     <g>
      <use xlink:href="#m5b1af910b7" x="332.469459" y="61.287187" style="fill: #2c5282; stroke: #2c5282"/>
     </g>
    </g>
    <g id="line2d_58">
     <path d="M 323.469459 74.4975 
L 332.469459 74.4975 
L 341.469459 74.4975 
" style="fill: none; stroke: #ed8936; stroke-width: 1.5; stroke-linecap: square"/>
    </g>
    <g id="text_16">
     <!-- m₃₁ (ω = κ·α) -->
     <g style="fill: #2d3748" transform="translate(348.669459 77.6475) scale(0.09 -0.09)">
      <defs>
       <path id="DejaVuSans-2083" d="M 1638 1412 
Q 1925 1356 2083 1185 
Q 2241 1015 2241 759 
Q 2241 371 1944 162 
Q 1647 -47 1094 -47 
Q 916 -47 720 -14 
Q 525 18 306 81 
L 306 459 
Q 469 375 655 334 
Q 841 293 1050 293 
Q 1391 293 1578 416 
Q 1766 540 1766 759 
Q 1766 990 1592 1109 
Q 1419 1228 1081 1228 
L 813 1228 
L 813 1565 
L 1106 1565 
Q 1400 1565 1551 1663 
Q 1703 1762 1703 1950 
Q 1703 2131 1547 2226 
Q 1391 2321 1094 2321 
Q 969 2321 809 2293 
Q 650 2265 397 2193 
L 397 2553 
Q 625 2606 825 2634 
Q 1025 2662 1197 2662 
Q 1647 2662 1911 2477 
Q 2175 2293 2175 1984 
Q 2175 1768 2034 1618 
Q 1894 1468 1638 1412 
z
" transform="scale(0.015625)"/>
       <path id="DejaVuSans-3ba" d="M 597 3500 
L 1191 3500 
L 1191 2047 
L 2700 3500 
L 3400 3500 
L 2022 2181 
L 3616 0 
L 2913 0 
L 1619 1806 
L 1191 1403 
L 1191 0 
L 597 0 
L 597 3500 
z
" transform="scale(0.015625)"/>
       <path id="DejaVuSans-b7" d="M 684 2619 
L 1344 2619 
L 1344 1825 
L 684 1825 
L 684 2619 
z
" transform="scale(0.015625)"/>
       <path id="DejaVuSans-3b1" d="M 2644 1628 
L 2506 2350 
Q 2366 3091 1809 3091 
Q 1391 3091 1200 2747 
Q 959 2316 959 1747 
Q 959 1059 1194 731 
Q 1431 397 1809 397 
Q 2228 397 2453 1063 
L 2644 1628 
z
M 2966 2584 
L 3275 3500 
L 3788 3500 
L 3147 1603 
L 3272 919 
Q 3300 766 3409 638 
Q 3538 488 3638 488 
L 3913 488 
L 3913 0 
L 3569 0 
Q 3275 0 3013 263 
Q 2884 394 2831 669 
Q 2688 322 2394 50 
Q 2256 -78 1809 -78 
Q 1075 -78 719 397 
Q 353 888 353 1747 
Q 353 2666 750 3097 
Q 1191 3578 1809 3578 
Q 2781 3578 2966 2584 
z
" transform="scale(0.015625)"/>
      </defs>
      <use xlink:href="#DejaVuSans-6d"/>
      <use xlink:href="#DejaVuSans-2083" transform="translate(97.412109 0)"/>
      <use xlink:href="#DejaVuSans-2081" transform="translate(137.5 0)"/>
      <use xlink:href="#DejaVuSans-20" transform="translate(177.587891 0)"/>
      <use xlink:href="#DejaVuSans-28" transform="translate(209.375 0)"/>
      <use xlink:href="#DejaVuSans-3c9" transform="translate(248.388672 0)"/>
      <use xlink:href="#DejaVuSans-20" transform="translate(332.128906 0)"/>
      <use xlink:href="#DejaVuSans-3d" transform="translate(363.916016 0)"/>
      <use xlink:href="#DejaVuSans-20" transform="translate(447.705078 0)"/>
      <use xlink:href="#DejaVuSans-3ba" transform="translate(479.492188 0)"/>
      <use xlink:href="#DejaVuSans-b7" transform="translate(538.427734 0)"/>
      <use xlink:href="#DejaVuSans-3b1" transform="translate(570.214844 0)"/>
      <use xlink:href="#DejaVuSans-29" transform="translate(636.132812 0)"/>
     </g>
    </g>
    <g id="line2d_59">
     <path d="M 323.469459 87.707812 
L 332.469459 87.707812 
L 341.469459 87.707812 
" style="fill: none; stroke: #ed8936; stroke-width: 4; stroke-linecap: square"/>
    </g>
    <g id="line2d_60">
     <g>
      <use xlink:href="#m35441fd041" x="332.469459" y="100.918125" style="fill: #ed8936; stroke: #ed8936; stroke-linejoin: miter"/>
     </g>
    </g>
   </g>
  </g>
  <g id="axes_2">
   <g id="patch_6">
    <path d="M 473.252116 312.077969 
L 839.837356 312.077969 
L 839.837356 23.077969 
L 473.252116 23.077969 
z
" style="fill: #ffffff"/>
   </g>
   <g id="matplotlib.axis_3">
    <g id="xtick_8">
     <g id="line2d_61">
      <path d="M 545.379841 312.077969 
L 545.379841 23.077969 
" clip-path="url(#p1d76238c4b)" style="fill: none; stroke: #e2e8f0; stroke-opacity: 0.3; stroke-width: 0.5; stroke-linecap: square"/>
     </g>
     <g id="line2d_62">
      <g>
       <use xlink:href="#m4e769d804d" x="545.379841" y="312.077969" style="fill: #2d3748; stroke: #2d3748; stroke-width: 0.8"/>
      </g>
     </g>
     <g id="text_17">
      <!-- 0.6 -->
      <g style="fill: #2d3748" transform="translate(537.428278 326.676406) scale(0.1 -0.1)">
       <defs>
        <path id="DejaVuSans-36" d="M 2113 2584 
Q 1688 2584 1439 2293 
Q 1191 2003 1191 1497 
Q 1191 994 1439 701 
Q 1688 409 2113 409 
Q 2538 409 2786 701 
Q 3034 994 3034 1497 
Q 3034 2003 2786 2293 
Q 2538 2584 2113 2584 
z
M 3366 4563 
L 3366 3988 
Q 3128 4100 2886 4159 
Q 2644 4219 2406 4219 
Q 1781 4219 1451 3797 
Q 1122 3375 1075 2522 
Q 1259 2794 1537 2939 
Q 1816 3084 2150 3084 
Q 2853 3084 3261 2657 
Q 3669 2231 3669 1497 
Q 3669 778 3244 343 
Q 2819 -91 2113 -91 
Q 1303 -91 875 529 
Q 447 1150 447 2328 
Q 447 3434 972 4092 
Q 1497 4750 2381 4750 
Q 2619 4750 2861 4703 
Q 3103 4656 3366 4563 
z
" transform="scale(0.015625)"/>
       </defs>
       <use xlink:href="#DejaVuSans-30"/>
       <use xlink:href="#DejaVuSans-2e" transform="translate(63.623047 0)"/>
       <use xlink:href="#DejaVuSans-36" transform="translate(95.410156 0)"/>
      </g>
     </g>
    </g>
    <g id="xtick_9">
     <g id="line2d_63">
      <path d="M 618.861587 312.077969 
L 618.861587 23.077969 
" clip-path="url(#p1d76238c4b)" style="fill: none; stroke: #e2e8f0; stroke-opacity: 0.3; stroke-width: 0.5; stroke-linecap: square"/>
     </g>
     <g id="line2d_64">
      <g>
       <use xlink:href="#m4e769d804d" x="618.861587" y="312.077969" style="fill: #2d3748; stroke: #2d3748; stroke-width: 0.8"/>
      </g>
     </g>
     <g id="text_18">
      <!-- 0.8 -->
      <g style="fill: #2d3748" transform="translate(610.910025 326.676406) scale(0.1 -0.1)">
       <defs>
        <path id="DejaVuSans-38" d="M 2034 2216 
Q 1584 2216 1326 1975 
Q 1069 1734 1069 1313 
Q 1069 891 1326 650 
Q 1584 409 2034 409 
Q 2484 409 2743 651 
Q 3003 894 3003 1313 
Q 3003 1734 2745 1975 
Q 2488 2216 2034 2216 
z
M 1403 2484 
Q 997 2584 770 2862 
Q 544 3141 544 3541 
Q 544 4100 942 4425 
Q 1341 4750 2034 4750 
Q 2731 4750 3128 4425 
Q 3525 4100 3525 3541 
Q 3525 3141 3298 2862 
Q 3072 2584 2669 2484 
Q 3125 2378 3379 2068 
Q 3634 1759 3634 1313 
Q 3634 634 3220 271 
Q 2806 -91 2034 -91 
Q 1263 -91 848 271 
Q 434 634 434 1313 
Q 434 1759 690 2068 
Q 947 2378 1403 2484 
z
M 1172 3481 
Q 1172 3119 1398 2916 
Q 1625 2713 2034 2713 
Q 2441 2713 2670 2916 
Q 2900 3119 2900 3481 
Q 2900 3844 2670 4047 
Q 2441 4250 2034 4250 
Q 1625 4250 1398 4047 
Q 1172 3844 1172 3481 
z
" transform="scale(0.015625)"/>
       </defs>
       <use xlink:href="#DejaVuSans-30"/>
       <use xlink:href="#DejaVuSans-2e" transform="translate(63.623047 0)"/>
       <use xlink:href="#DejaVuSans-38" transform="translate(95.410156 0)"/>
      </g>
     </g>
    </g>
    <g id="xtick_10">
     <g id="line2d_65">
      <path d="M 692.343334 312.077969 
L 692.343334 23.077969 
" clip-path="url(#p1d76238c4b)" style="fill: none; stroke: #e2e8f0; stroke-opacity: 0.3; stroke-width: 0.5; stroke-linecap: square"/>
     </g>
     <g id="line2d_66">
      <g>
       <use xlink:href="#m4e769d804d" x="692.343334" y="312.077969" style="fill: #2d3748; stroke: #2d3748; stroke-width: 0.8"/>
      </g>
     </g>
     <g id="text_19">
      <!-- 1.0 -->
      <g style="fill: #2d3748" transform="translate(684.391771 326.676406) scale(0.1 -0.1)">
       <use xlink:href="#DejaVuSans-31"/>
       <use xlink:href="#DejaVuSans-2e" transform="translate(63.623047 0)"/>
       <use xlink:href="#DejaVuSans-30" transform="translate(95.410156 0)"/>
      </g>
     </g>
    </g>
    <g id="xtick_11">
     <g id="line2d_67">
      <path d="M 765.82508 312.077969 
L 765.82508 23.077969 
" clip-path="url(#p1d76238c4b)" style="fill: none; stroke: #e2e8f0; stroke-opacity: 0.3; stroke-width: 0.5; stroke-linecap: square"/>
     </g>
     <g id="line2d_68">
      <g>
       <use xlink:href="#m4e769d804d" x="765.82508" y="312.077969" style="fill: #2d3748; stroke: #2d3748; stroke-width: 0.8"/>
      </g>
     </g>
     <g id="text_20">
      <!-- 1.2 -->
      <g style="fill: #2d3748" transform="translate(757.873518 326.676406) scale(0.1 -0.1)">
       <use xlink:href="#DejaVuSans-31"/>
       <use xlink:href="#DejaVuSans-2e" transform="translate(63.623047 0)"/>
       <use xlink:href="#DejaVuSans-32" transform="translate(95.410156 0)"/>
      </g>
     </g>
    </g>
    <g id="xtick_12">
     <g id="line2d_69">
      <path d="M 839.306827 312.077969 
L 839.306827 23.077969 
" clip-path="url(#p1d76238c4b)" style="fill: none; stroke: #e2e8f0; stroke-opacity: 0.3; stroke-width: 0.5; stroke-linecap: square"/>
     </g>
     <g id="line2d_70">
      <g>
       <use xlink:href="#m4e769d804d" x="839.306827" y="312.077969" style="fill: #2d3748; stroke: #2d3748; stroke-width: 0.8"/>
      </g>
     </g>
     <g id="text_21">
      <!-- 1.4 -->
      <g style="fill: #2d3748" transform="translate(831.355264 326.676406) scale(0.1 -0.1)">
       <use xlink:href="#DejaVuSans-31"/>
       <use xlink:href="#DejaVuSans-2e" transform="translate(63.623047 0)"/>
       <use xlink:href="#DejaVuSans-34" transform="translate(95.410156 0)"/>
      </g>
     </g>
    </g>
    <g id="text_22">
     <!-- κ -->
     <g style="fill: #2d3748" transform="translate(653.303173 341.114375) scale(0.11 -0.11)">
      <use xlink:href="#DejaVuSans-3ba"/>
     </g>
    </g>
   </g>
   <g id="matplotlib.axis_4">
    <g id="ytick_6">
     <g id="line2d_71">
      <path d="M 473.252116 36.214332 
L 839.837356 36.214332 
" clip-path="url(#p1d76238c4b)" style="fill: none; stroke: #e2e8f0; stroke-opacity: 0.5; stroke-width: 0.5; stroke-linecap: square"/>
     </g>
     <g id="line2d_72">
      <g>
       <use xlink:href="#m5e4db0f106" x="473.252116" y="36.214332" style="fill: #2d3748; stroke: #2d3748; stroke-width: 0.8"/>
      </g>
     </g>
     <g id="text_23">
      <!-- T = 0.0 -->
      <g style="fill: #2d3748" transform="translate(429.505241 40.013551) scale(0.1 -0.1)">
       <use xlink:href="#DejaVuSans-54"/>
       <use xlink:href="#DejaVuSans-20" transform="translate(61.083984 0)"/>
       <use xlink:href="#DejaVuSans-3d" transform="translate(92.871094 0)"/>
       <use xlink:href="#DejaVuSans-20" transform="translate(176.660156 0)"/>
       <use xlink:href="#DejaVuSans-30" transform="translate(208.447266 0)"/>
       <use xlink:href="#DejaVuSans-2e" transform="translate(272.070312 0)"/>
       <use xlink:href="#DejaVuSans-30" transform="translate(303.857422 0)"/>
      </g>
     </g>
    </g>
    <g id="ytick_7">
     <g id="line2d_73">
      <path d="M 473.252116 101.896151 
L 839.837356 101.896151 
" clip-path="url(#p1d76238c4b)" style="fill: none; stroke: #e2e8f0; stroke-opacity: 0.5; stroke-width: 0.5; stroke-linecap: square"/>
     </g>
     <g id="line2d_74">
      <g>
       <use xlink:href="#m5e4db0f106" x="473.252116" y="101.896151" style="fill: #2d3748; stroke: #2d3748; stroke-width: 0.8"/>
      </g>
     </g>
     <g id="text_24">
      <!-- T = 0.3 -->
      <g style="fill: #2d3748" transform="translate(429.505241 105.695369) scale(0.1 -0.1)">
       <use xlink:href="#DejaVuSans-54"/>
       <use xlink:href="#DejaVuSans-20" transform="translate(61.083984 0)"/>
       <use xlink:href="#DejaVuSans-3d" transform="translate(92.871094 0)"/>
       <use xlink:href="#DejaVuSans-20" transform="translate(176.660156 0)"/>
       <use xlink:href="#DejaVuSans-30" transform="translate(208.447266 0)"/>
       <use xlink:href="#DejaVuSans-2e" transform="translate(272.070312 0)"/>
       <use xlink:href="#DejaVuSans-33" transform="translate(303.857422 0)"/>
      </g>
     </g>
    </g>
    <g id="ytick_8">
     <g id="line2d_75">
      <path d="M 473.252116 167.577969 
L 839.837356 167.577969 
" clip-path="url(#p1d76238c4b)" style="fill: none; stroke: #e2e8f0; stroke-opacity: 0.5; stroke-width: 0.5; stroke-linecap: square"/>
     </g>
     <g id="line2d_76">
      <g>
       <use xlink:href="#m5e4db0f106" x="473.252116" y="167.577969" style="fill: #2d3748; stroke: #2d3748; stroke-width: 0.8"/>
      </g>
     </g>
     <g id="text_25">
      <!-- T = 0.7 -->
      <g style="fill: #2d3748" transform="translate(429.505241 171.377187) scale(0.1 -0.1)">
       <use xlink:href="#DejaVuSans-54"/>
       <use xlink:href="#DejaVuSans-20" transform="translate(61.083984 0)"/>
       <use xlink:href="#DejaVuSans-3d" transform="translate(92.871094 0)"/>
       <use xlink:href="#DejaVuSans-20" transform="translate(176.660156 0)"/>
       <use xlink:href="#DejaVuSans-30" transform="translate(208.447266 0)"/>
       <use xlink:href="#DejaVuSans-2e" transform="translate(272.070312 0)"/>
       <use xlink:href="#DejaVuSans-37" transform="translate(303.857422 0)"/>
      </g>
     </g>
    </g>
    <g id="ytick_9">
     <g id="line2d_77">
      <path d="M 473.252116 233.259787 
L 839.837356 233.259787 
" clip-path="url(#p1d76238c4b)" style="fill: none; stroke: #e2e8f0; stroke-opacity: 0.5; stroke-width: 0.5; stroke-linecap: square"/>
     </g>
     <g id="line2d_78">
      <g>
       <use xlink:href="#m5e4db0f106" x="473.252116" y="233.259787" style="fill: #2d3748; stroke: #2d3748; stroke-width: 0.8"/>
      </g>
     </g>
     <g id="text_26">
      <!-- T = 1.0 -->
      <g style="fill: #2d3748" transform="translate(429.505241 237.059006) scale(0.1 -0.1)">
       <use xlink:href="#DejaVuSans-54"/>
       <use xlink:href="#DejaVuSans-20" transform="translate(61.083984 0)"/>
       <use xlink:href="#DejaVuSans-3d" transform="translate(92.871094 0)"/>
       <use xlink:href="#DejaVuSans-20" transform="translate(176.660156 0)"/>
       <use xlink:href="#DejaVuSans-31" transform="translate(208.447266 0)"/>
       <use xlink:href="#DejaVuSans-2e" transform="translate(272.070312 0)"/>
       <use xlink:href="#DejaVuSans-30" transform="translate(303.857422 0)"/>
      </g>
     </g>
    </g>
    <g id="ytick_10">
     <g id="line2d_79">
      <path d="M 473.252116 298.941605 
L 839.837356 298.941605 
" clip-path="url(#p1d76238c4b)" style="fill: none; stroke: #e2e8f0; stroke-opacity: 0.5; stroke-width: 0.5; stroke-linecap: square"/>
     </g>
     <g id="line2d_80">
      <g>
       <use xlink:href="#m5e4db0f106" x="473.252116" y="298.941605" style="fill: #2d3748; stroke: #2d3748; stroke-width: 0.8"/>
      </g>
     </g>
     <g id="text_27">
      <!-- T = 1.5 -->
      <g style="fill: #2d3748" transform="translate(429.505241 302.740824) scale(0.1 -0.1)">
       <use xlink:href="#DejaVuSans-54"/>
       <use xlink:href="#DejaVuSans-20" transform="translate(61.083984 0)"/>
       <use xlink:href="#DejaVuSans-3d" transform="translate(92.871094 0)"/>
       <use xlink:href="#DejaVuSans-20" transform="translate(176.660156 0)"/>
       <use xlink:href="#DejaVuSans-31" transform="translate(208.447266 0)"/>
       <use xlink:href="#DejaVuSans-2e" transform="translate(272.070312 0)"/>
       <use xlink:href="#DejaVuSans-35" transform="translate(303.857422 0)"/>
      </g>
     </g>
    </g>
   </g>
   <g id="line2d_81">
    <path d="M 489.915081 36.214332 
L 725.485991 36.214332 
" clip-path="url(#p1d76238c4b)" style="fill: none; stroke: #2c5282; stroke-width: 1.5; stroke-linecap: square"/>
   </g>
   <g id="line2d_82">
    <path d="M 539.249005 36.214332 
L 637.657587 36.214332 
" clip-path="url(#p1d76238c4b)" style="fill: none; stroke: #2c5282; stroke-width: 4; stroke-linecap: square"/>
   </g>
   <g id="line2d_83">
    <path d="M 532.690818 101.896151 
L 812.079143 101.896151 
" clip-path="url(#p1d76238c4b)" style="fill: none; stroke: #ed8936; stroke-width: 1.5; stroke-linecap: square"/>
   </g>
   <g id="line2d_84">
    <path d="M 595.051804 101.896151 
L 708.602961 101.896151 
" clip-path="url(#p1d76238c4b)" style="fill: none; stroke: #ed8936; stroke-width: 4; stroke-linecap: square"/>
   </g>
   <g id="line2d_85">
    <path d="M 515.450676 167.577969 
L 767.664541 167.577969 
" clip-path="url(#p1d76238c4b)" style="fill: none; stroke: #48bb78; stroke-width: 1.5; stroke-linecap: square"/>
   </g>
   <g id="line2d_86">
    <path d="M 571.752794 167.577969 
L 674.468955 167.577969 
" clip-path="url(#p1d76238c4b)" style="fill: none; stroke: #48bb78; stroke-width: 4; stroke-linecap: square"/>
   </g>
   <g id="line2d_87">
    <path d="M 558.246995 233.259787 
L 823.174391 233.259787 
" clip-path="url(#p1d76238c4b)" style="fill: none; stroke: #9f7aea; stroke-width: 1.5; stroke-linecap: square"/>
   </g>
   <g id="line2d_88">
    <path d="M 616.614082 233.259787 
L 727.525723 233.259787 
" clip-path="url(#p1d76238c4b)" style="fill: none; stroke: #9f7aea; stroke-width: 4; stroke-linecap: square"/>
   </g>
   <g id="line2d_89">
    <path d="M 552.619128 298.941605 
L 791.48362 298.941605 
" clip-path="url(#p1d76238c4b)" style="fill: none; stroke: #f56565; stroke-width: 1.5; stroke-linecap: square"/>
   </g>
   <g id="line2d_90">
    <path d="M 607.576883 298.941605 
L 701.593317 298.941605 
" clip-path="url(#p1d76238c4b)" style="fill: none; stroke: #f56565; stroke-width: 4; stroke-linecap: square"/>
   </g>
   <g id="line2d_91">
    <path d="M 692.343334 312.077969 
L 692.343334 23.077969 
" clip-path="url(#p1d76238c4b)" style="fill: none; stroke-dasharray: 7.4,3.2; stroke-dashoffset: 0; stroke: #808080; stroke-opacity: 0.5; stroke-width: 2"/>
   </g>
   <g id="patch_7">
    <path d="M 473.252116 312.077969 
L 473.252116 23.077969 
" style="fill: none; stroke: #2d3748; stroke-width: 0.8; stroke-linejoin: miter; stroke-linecap: square"/>
   </g>
   <g id="patch_8">
    <path d="M 473.252116 312.077969 
L 839.837356 312.077969 
" style="fill: none; stroke: #2d3748; stroke-width: 0.8; stroke-linejoin: miter; stroke-linecap: square"/>
   </g>
   <g id="text_28">
    <!-- m₃₁: Posterior κ (ω/α ratio) -->
    <g style="fill: #2d3748" transform="translate(570.01958 17.077969) scale(0.13 -0.13)">
     <defs>
      <path id="DejaVuSans-3a" d="M 750 794 
L 1409 794 
L 1409 0 
L 750 0 
L 750 794 
z
M 750 3309 
L 1409 3309 
L 1409 2516 
L 750 2516 
L 750 3309 
z
" transform="scale(0.015625)"/>
      <path id="DejaVuSans-2f" d="M 1625 4666 
L 2156 4666 
L 531 -594 
L 0 -594 
L 1625 4666 
z
" transform="scale(0.015625)"/>
     </defs>
     <use xlink:href="#DejaVuSans-6d"/>
     <use xlink:href="#DejaVuSans-2083" transform="translate(97.412109 0)"/>
     <use xlink:href="#DejaVuSans-2081" transform="translate(137.5 0)"/>
     <use xlink:href="#DejaVuSans-3a" transform="translate(177.587891 0)"/>
     <use xlink:href="#DejaVuSans-20" transform="translate(211.279297 0)"/>
     <use xlink:href="#DejaVuSans-50" transform="translate(243.066406 0)"/>
     <use xlink:href="#DejaVuSans-6f" transform="translate(299.744141 0)"/>
     <use xlink:href="#DejaVuSans-73" transform="translate(360.925781 0)"/>
     <use xlink:href="#DejaVuSans-74" transform="translate(413.025391 0)"/>
     <use xlink:href="#DejaVuSans-65" transform="translate(452.234375 0)"/>
     <use xlink:href="#DejaVuSans-72" transform="translate(513.757812 0)"/>
     <use xlink:href="#DejaVuSans-69" transform="translate(554.871094 0)"/>
     <use xlink:href="#DejaVuSans-6f" transform="translate(582.654297 0)"/>
     <use xlink:href="#DejaVuSans-72" transform="translate(643.835938 0)"/>
     <use xlink:href="#DejaVuSans-20" transform="translate(684.949219 0)"/>
     <use xlink:href="#DejaVuSans-3ba" transform="translate(716.736328 0)"/>
     <use xlink:href="#DejaVuSans-20" transform="translate(775.671875 0)"/>
     <use xlink:href="#DejaVuSans-28" transform="translate(807.458984 0)"/>
     <use xlink:href="#DejaVuSans-3c9" transform="translate(846.472656 0)"/>
     <use xlink:href="#DejaVuSans-2f" transform="translate(930.212891 0)"/>
     <use xlink:href="#DejaVuSans-3b1" transform="translate(963.904297 0)"/>
     <use xlink:href="#DejaVuSans-20" transform="translate(1029.822266 0)"/>
     <use xlink:href="#DejaVuSans-72" transform="translate(1061.609375 0)"/>
     <use xlink:href="#DejaVuSans-61" transform="translate(1102.722656 0)"/>
     <use xlink:href="#DejaVuSans-74" transform="translate(1164.001953 0)"/>
     <use xlink:href="#DejaVuSans-69" transform="translate(1203.210938 0)"/>
     <use xlink:href="#DejaVuSans-6f" transform="translate(1230.994141 0)"/>
     <use xlink:href="#DejaVuSans-29" transform="translate(1292.175781 0)"/>
    </g>
   </g>
   <g id="line2d_92">
    <defs>
     <path id="mdc2c22e3c2" d="M 0 4 
C 1.060812 4 2.078319 3.578535 2.828427 2.828427 
C 3.578535 2.078319 4 1.060812 4 0 
C 4 -1.060812 3.578535 -2.078319 2.828427 -2.828427 
C 2.078319 -3.578535 1.060812 -4 0 -4 
C -1.060812 -4 -2.078319 -3.578535 -2.828427 -2.828427 
C -3.578535 -2.078319 -4 -1.060812 -4 0 
C -4 1.060812 -3.578535 2.078319 -2.828427 2.828427 
C -2.078319 3.578535 -1.060812 4 0 4 
z
" style="stroke: #2c5282"/>
    </defs>
    <g clip-path="url(#p1d76238c4b)">
     <use xlink:href="#mdc2c22e3c2" x="586.351617" y="36.214332" style="fill: #2c5282; stroke: #2c5282"/>
    </g>
   </g>
   <g id="line2d_93">
    <defs>
     <path id="m3b8fdaa7be" d="M 0 4 
C 1.060812 4 2.078319 3.578535 2.828427 2.828427 
C 3.578535 2.078319 4 1.060812 4 0 
C 4 -1.060812 3.578535 -2.078319 2.828427 -2.828427 
C 2.078319 -3.578535 1.060812 -4 0 -4 
C -1.060812 -4 -2.078319 -3.578535 -2.828427 -2.828427 
C -3.578535 -2.078319 -4 -1.060812 -4 0 
C -4 1.060812 -3.578535 2.078319 -2.828427 2.828427 
C -2.078319 3.578535 -1.060812 4 0 4 
z
" style="stroke: #ed8936"/>
    </defs>
    <g clip-path="url(#p1d76238c4b)">
     <use xlink:href="#m3b8fdaa7be" x="646.64591" y="101.896151" style="fill: #ed8936; stroke: #ed8936"/>
    </g>
   </g>
   <g id="line2d_94">
    <defs>
     <path id="md62c4da483" d="M 0 4 
C 1.060812 4 2.078319 3.578535 2.828427 2.828427 
C 3.578535 2.078319 4 1.060812 4 0 
C 4 -1.060812 3.578535 -2.078319 2.828427 -2.828427 
C 2.078319 -3.578535 1.060812 -4 0 -4 
C -1.060812 -4 -2.078319 -3.578535 -2.828427 -2.828427 
C -3.578535 -2.078319 -4 -1.060812 -4 0 
C -4 1.060812 -3.578535 2.078319 -2.828427 2.828427 
C -2.078319 3.578535 -1.060812 4 0 4 
z
" style="stroke: #48bb78"/>
    </defs>
    <g clip-path="url(#p1d76238c4b)">
     <use xlink:href="#md62c4da483" x="616.803154" y="167.577969" style="fill: #48bb78; stroke: #48bb78"/>
    </g>
   </g>
   <g id="line2d_95">
    <defs>
     <path id="m17422a232a" d="M 0 4 
C 1.060812 4 2.078319 3.578535 2.828427 2.828427 
C 3.578535 2.078319 4 1.060812 4 0 
C 4 -1.060812 3.578535 -2.078319 2.828427 -2.828427 
C 2.078319 -3.578535 1.060812 -4 0 -4 
C -1.060812 -4 -2.078319 -3.578535 -2.828427 -2.828427 
C -3.578535 -2.078319 -4 -1.060812 -4 0 
C -4 1.060812 -3.578535 2.078319 -2.828427 2.828427 
C -2.078319 3.578535 -1.060812 4 0 4 
z
" style="stroke: #9f7aea"/>
    </defs>
    <g clip-path="url(#p1d76238c4b)">
     <use xlink:href="#m17422a232a" x="669.115901" y="233.259787" style="fill: #9f7aea; stroke: #9f7aea"/>
    </g>
   </g>
   <g id="line2d_96">
    <defs>
     <path id="ma5ced2807b" d="M 0 4 
C 1.060812 4 2.078319 3.578535 2.828427 2.828427 
C 3.578535 2.078319 4 1.060812 4 0 
C 4 -1.060812 3.578535 -2.078319 2.828427 -2.828427 
C 2.078319 -3.578535 1.060812 -4 0 -4 
C -1.060812 -4 -2.078319 -3.578535 -2.828427 -2.828427 
C -3.578535 -2.078319 -4 -1.060812 -4 0 
C -4 1.060812 -3.578535 2.078319 -2.828427 2.828427 
C -2.078319 3.578535 -1.060812 4 0 4 
z
" style="stroke: #f56565"/>
    </defs>
    <g clip-path="url(#p1d76238c4b)">
     <use xlink:href="#ma5ced2807b" x="652.063512" y="298.941605" style="fill: #f56565; stroke: #f56565"/>
    </g>
   </g>
   <g id="legend_2">
    <g id="patch_9">
     <path d="M 724.772356 43.488281 
L 833.537356 43.488281 
Q 835.337356 43.488281 835.337356 41.688281 
L 835.337356 29.377969 
Q 835.337356 27.577969 833.537356 27.577969 
L 724.772356 27.577969 
Q 722.972356 27.577969 722.972356 29.377969 
L 722.972356 41.688281 
Q 722.972356 43.488281 724.772356 43.488281 
z
" style="fill: #ffffff; opacity: 0.9; stroke: #e2e8f0; stroke-linejoin: miter"/>
    </g>
    <g id="line2d_97">
     <path d="M 726.572356 34.866562 
L 735.572356 34.866562 
L 744.572356 34.866562 
" style="fill: none; stroke-dasharray: 7.4,3.2; stroke-dashoffset: 0; stroke: #808080; stroke-opacity: 0.5; stroke-width: 2"/>
    </g>
    <g id="text_29">
     <!-- κ = 1 (m₁₁ equiv.) -->
     <g style="fill: #2d3748" transform="translate(751.772356 38.016562) scale(0.09 -0.09)">
      <defs>
       <path id="DejaVuSans-71" d="M 947 1747 
Q 947 1113 1208 752 
Q 1469 391 1925 391 
Q 2381 391 2643 752 
Q 2906 1113 2906 1747 
Q 2906 2381 2643 2742 
Q 2381 3103 1925 3103 
Q 1469 3103 1208 2742 
Q 947 2381 947 1747 
z
M 2906 525 
Q 2725 213 2448 61 
Q 2172 -91 1784 -91 
Q 1150 -91 751 415 
Q 353 922 353 1747 
Q 353 2572 751 3078 
Q 1150 3584 1784 3584 
Q 2172 3584 2448 3432 
Q 2725 3281 2906 2969 
L 2906 3500 
L 3481 3500 
L 3481 -1331 
L 2906 -1331 
L 2906 525 
z
" transform="scale(0.015625)"/>
      </defs>
      <use xlink:href="#DejaVuSans-3ba"/>
      <use xlink:href="#DejaVuSans-20" transform="translate(58.935547 0)"/>
      <use xlink:href="#DejaVuSans-3d" transform="translate(90.722656 0)"/>
      <use xlink:href="#DejaVuSans-20" transform="translate(174.511719 0)"/>
      <use xlink:href="#DejaVuSans-31" transform="translate(206.298828 0)"/>
      <use xlink:href="#DejaVuSans-20" transform="translate(269.921875 0)"/>
      <use xlink:href="#DejaVuSans-28" transform="translate(301.708984 0)"/>
      <use xlink:href="#DejaVuSans-6d" transform="translate(340.722656 0)"/>
      <use xlink:href="#DejaVuSans-2081" transform="translate(438.134766 0)"/>
      <use xlink:href="#DejaVuSans-2081" transform="translate(478.222656 0)"/>
      <use xlink:href="#DejaVuSans-20" transform="translate(518.310547 0)"/>
      <use xlink:href="#DejaVuSans-65" transform="translate(550.097656 0)"/>
      <use xlink:href="#DejaVuSans-71" transform="translate(611.621094 0)"/>
      <use xlink:href="#DejaVuSans-75" transform="translate(675.097656 0)"/>
      <use xlink:href="#DejaVuSans-69" transform="translate(738.476562 0)"/>
      <use xlink:href="#DejaVuSans-76" transform="translate(766.259766 0)"/>
      <use xlink:href="#DejaVuSans-2e" transform="translate(817.689453 0)"/>
      <use xlink:href="#DejaVuSans-29" transform="translate(849.476562 0)"/>
     </g>
    </g>
   </g>
  </g>
 </g>
 <defs>
  <clipPath id="p29a07d51c2">
   <rect x="50.946875" y="23.077969" width="366.585241" height="289"/>
  </clipPath>
  <clipPath id="p1d76238c4b">
   <rect x="473.252116" y="23.077969" width="366.585241" height="289"/>
  </clipPath>
 </defs>
</svg>
