<?xml version="1.0" encoding="utf-8" standalone="no"?>
<!DOCTYPE svg PUBLIC "-//W3C//DTD SVG 1.1//EN"
  "http://www.w3.org/Graphics/SVG/1.1/DTD/svg11.dtd">
<svg xmlns:xlink="http://www.w3.org/1999/xlink" width="710.546875pt" height="422.602031pt" viewBox="0 0 710.546875 422.602031" xmlns="http://www.w3.org/2000/svg" version="1.1">
 <metadata>
  <rdf:RDF xmlns:dc="http://purl.org/dc/elements/1.1/" xmlns:cc="http://creativecommons.org/ns#" xmlns:rdf="http://www.w3.org/1999/02/22-rdf-syntax-ns#">
   <cc:Work>
    <dc:type rdf:resource="http://purl.org/dc/dcmitype/StillImage"/>
    <dc:date>2026-03-01T17:50:14.782225</dc:date>
    <dc:format>image/svg+xml</dc:format>
    <dc:creator>
     <cc:Agent>
      <dc:title>Matplotlib v3.10.8, https://matplotlib.org/</dc:title>
     </cc:Agent>
    </dc:creator>
   </cc:Work>
  </rdf:RDF>
 </metadata>
 <defs>
  <style type="text/css">*{stroke-linejoin: round; stroke-linecap: butt}</style>
 </defs>
 <g id="figure_1">
  <g id="patch_1">
   <path d="M 0 422.602031 
L 710.546875 422.602031 
L 710.546875 0 
L 0 0 
z
" style="fill: #ffffff"/>
  </g>
  <g id="axes_1">
   <g id="patch_2">
    <path d="M 50.946875 384.077969 
L 703.346875 384.077969 
L 703.346875 23.077969 
L 50.946875 23.077969 
z
" style="fill: #ffffff"/>
   </g>
   <g id="matplotlib.axis_1">
    <g id="xtick_1">
     <g id="line2d_1">
      <path d="M 170.776439 384.077969 
L 170.776439 23.077969 
" clip-path="url(#p28d6face5e)" style="fill: none; stroke: #e2e8f0; stroke-opacity: 0.3; stroke-width: 0.5; stroke-linecap: square"/>
     </g>
     <g id="line2d_2">
      <defs>
       <path id="me83ec27e1b" d="M 0 0 
L 0 3.5 
" style="stroke: #2d3748; stroke-width: 0.8"/>
      </defs>
      <g>
       <use xlink:href="#me83ec27e1b" x="170.776439" y="384.077969" style="fill: #2d3748; stroke: #2d3748; stroke-width: 0.8"/>
      </g>
     </g>
     <g id="text_1">
      <!-- 40 -->
      <g style="fill: #2d3748" transform="translate(164.413939 398.676406) scale(0.1 -0.1)">
       <defs>
        <path id="DejaVuSans-34" d="M 2419 4116 
L 825 1625 
L 2419 1625 
L 2419 4116 
z
M 2253 4666 
L 3047 4666 
L 3047 1625 
L 3713 1625 
L 3713 1100 
L 3047 1100 
L 3047 0 
L 2419 0 
L 2419 1100 
L 313 1100 
L 313 1709 
L 2253 4666 
z
" transform="scale(0.015625)"/>
        <path id="DejaVuSans-30" d="M 2034 4250 
Q 1547 4250 1301 3770 
Q 1056 3291 1056 2328 
Q 1056 1369 1301 889 
Q 1547 409 2034 409 
Q 2525 409 2770 889 
Q 3016 1369 3016 2328 
Q 3016 3291 2770 3770 
Q 2525 4250 2034 4250 
z
M 2034 4750 
Q 2819 4750 3233 4129 
Q 3647 3509 3647 2328 
Q 3647 1150 3233 529 
Q 2819 -91 2034 -91 
Q 1250 -91 836 529 
Q 422 1150 422 2328 
Q 422 3509 836 4129 
Q 1250 4750 2034 4750 
z
" transform="scale(0.015625)"/>
       </defs>
       <use xlink:href="#DejaVuSans-34"/>
       <use xlink:href="#DejaVuSans-30" transform="translate(63.623047 0)"/>
      </g>
     </g>
    </g>
    <g id="xtick_2">
     <g id="line2d_3">
      <path d="M 294.820429 384.077969 
L 294.820429 23.077969 
" clip-path="url(#p28d6face5e)" style="fill: none; stroke: #e2e8f0; stroke-opacity: 0.3; stroke-width: 0.5; stroke-linecap: square"/>
     </g>
     <g id="line2d_4">
      <g>
       <use xlink:href="#me83ec27e1b" x="294.820429" y="384.077969" style="fill: #2d3748; stroke: #2d3748; stroke-width: 0.8"/>
      </g>
     </g>
     <g id="text_2">
      <!-- 60 -->
      <g style="fill: #2d3748" transform="translate(288.457929 398.676406) scale(0.1 -0.1)">
       <defs>
        <path id="DejaVuSans-36" d="M 2113 2584 
Q 1688 2584 1439 2293 
Q 1191 2003 1191 1497 
Q 1191 994 1439 701 
Q 1688 409 2113 409 
Q 2538 409 2786 701 
Q 3034 994 3034 1497 
Q 3034 2003 2786 2293 
Q 2538 2584 2113 2584 
z
M 3366 4563 
L 3366 3988 
Q 3128 4100 2886 4159 
Q 2644 4219 2406 4219 
Q 1781 4219 1451 3797 
Q 1122 3375 1075 2522 
Q 1259 2794 1537 2939 
Q 1816 3084 2150 3084 
Q 2853 3084 3261 2657 
Q 3669 2231 3669 1497 
Q 3669 778 3244 343 
Q 2819 -91 2113 -91 
Q 1303 -91 875 529 
Q 447 1150 447 2328 
Q 447 3434 972 4092 
Q 1497 4750 2381 4750 
Q 2619 4750 2861 4703 
Q 3103 4656 3366 4563 
z
" transform="scale(0.015625)"/>
       </defs>
       <use xlink:href="#DejaVuSans-36"/>
       <use xlink:href="#DejaVuSans-30" transform="translate(63.623047 0)"/>
      </g>
     </g>
    </g>
    <g id="xtick_3">
     <g id="line2d_5">
      <path d="M 418.864419 384.077969 
L 418.864419 23.077969 
" clip-path="url(#p28d6face5e)" style="fill: none; stroke: #e2e8f0; stroke-opacity: 0.3; stroke-width: 0.5; stroke-linecap: square"/>
     </g>
     <g id="line2d_6">
      <g>
       <use xlink:href="#me83ec27e1b" x="418.864419" y="384.077969" style="fill: #2d3748; stroke: #2d3748; stroke-width: 0.8"/>
      </g>
     </g>
     <g id="text_3">
      <!-- 80 -->
      <g style="fill: #2d3748" transform="translate(412.501919 398.676406) scale(0.1 -0.1)">
       <defs>
        <path id="DejaVuSans-38" d="M 2034 2216 
Q 1584 2216 1326 1975 
Q 1069 1734 1069 1313 
Q 1069 891 1326 650 
Q 1584 409 2034 409 
Q 2484 409 2743 651 
Q 3003 894 3003 1313 
Q 3003 1734 2745 1975 
Q 2488 2216 2034 2216 
z
M 1403 2484 
Q 997 2584 770 2862 
Q 544 3141 544 3541 
Q 544 4100 942 4425 
Q 1341 4750 2034 4750 
Q 2731 4750 3128 4425 
Q 3525 4100 3525 3541 
Q 3525 3141 3298 2862 
Q 3072 2584 2669 2484 
Q 3125 2378 3379 2068 
Q 3634 1759 3634 1313 
Q 3634 634 3220 271 
Q 2806 -91 2034 -91 
Q 1263 -91 848 271 
Q 434 634 434 1313 
Q 434 1759 690 2068 
Q 947 2378 1403 2484 
z
M 1172 3481 
Q 1172 3119 1398 2916 
Q 1625 2713 2034 2713 
Q 2441 2713 2670 2916 
Q 2900 3119 2900 3481 
Q 2900 3844 2670 4047 
Q 2441 4250 2034 4250 
Q 1625 4250 1398 4047 
Q 1172 3844 1172 3481 
z
" transform="scale(0.015625)"/>
       </defs>
       <use xlink:href="#DejaVuSans-38"/>
       <use xlink:href="#DejaVuSans-30" transform="translate(63.623047 0)"/>
      </g>
     </g>
    </g>
    <g id="xtick_4">
     <g id="line2d_7">
      <path d="M 542.908409 384.077969 
L 542.908409 23.077969 
" clip-path="url(#p28d6face5e)" style="fill: none; stroke: #e2e8f0; stroke-opacity: 0.3; stroke-width: 0.5; stroke-linecap: square"/>
     </g>
     <g id="line2d_8">
      <g>
       <use xlink:href="#me83ec27e1b" x="542.908409" y="384.077969" style="fill: #2d3748; stroke: #2d3748; stroke-width: 0.8"/>
      </g>
     </g>
     <g id="text_4">
      <!-- 100 -->
      <g style="fill: #2d3748" transform="translate(533.364659 398.676406) scale(0.1 -0.1)">
       <defs>
        <path id="DejaVuSans-31" d="M 794 531 
L 1825 531 
L 1825 4091 
L 703 3866 
L 703 4441 
L 1819 4666 
L 2450 4666 
L 2450 531 
L 3481 531 
L 3481 0 
L 794 0 
L 794 531 
z
" transform="scale(0.015625)"/>
       </defs>
       <use xlink:href="#DejaVuSans-31"/>
       <use xlink:href="#DejaVuSans-30" transform="translate(63.623047 0)"/>
       <use xlink:href="#DejaVuSans-30" transform="translate(127.246094 0)"/>
      </g>
     </g>
    </g>
    <g id="xtick_5">
     <g id="line2d_9">
      <path d="M 666.952399 384.077969 
L 666.952399 23.077969 
" clip-path="url(#p28d6face5e)" style="fill: none; stroke: #e2e8f0; stroke-opacity: 0.3; stroke-width: 0.5; stroke-linecap: square"/>
     </g>
     <g id="line2d_10">
      <g>
       <use xlink:href="#me83ec27e1b" x="666.952399" y="384.077969" style="fill: #2d3748; stroke: #2d3748; stroke-width: 0.8"/>
      </g>
     </g>
     <g id="text_5">
      <!-- 120 -->
      <g style="fill: #2d3748" transform="translate(657.408649 398.676406) scale(0.1 -0.1)">
       <defs>
        <path id="DejaVuSans-32" d="M 1228 531 
L 3431 531 
L 3431 0 
L 469 0 
L 469 531 
Q 828 903 1448 1529 
Q 2069 2156 2228 2338 
Q 2531 2678 2651 2914 
Q 2772 3150 2772 3378 
Q 2772 3750 2511 3984 
Q 2250 4219 1831 4219 
Q 1534 4219 1204 4116 
Q 875 4013 500 3803 
L 500 4441 
Q 881 4594 1212 4672 
Q 1544 4750 1819 4750 
Q 2544 4750 2975 4387 
Q 3406 4025 3406 3419 
Q 3406 3131 3298 2873 
Q 3191 2616 2906 2266 
Q 2828 2175 2409 1742 
Q 1991 1309 1228 531 
z
" transform="scale(0.015625)"/>
       </defs>
       <use xlink:href="#DejaVuSans-31"/>
       <use xlink:href="#DejaVuSans-32" transform="translate(63.623047 0)"/>
       <use xlink:href="#DejaVuSans-30" transform="translate(127.246094 0)"/>
      </g>
     </g>
    </g>
    <g id="text_6">
     <!-- α (sensitivity) -->
     <g style="fill: #2d3748" transform="translate(339.474453 413.114375) scale(0.11 -0.11)">
      <defs>
       <path id="DejaVuSans-3b1" d="M 2644 1628 
L 2506 2350 
Q 2366 3091 1809 3091 
Q 1391 3091 1200 2747 
Q 959 2316 959 1747 
Q 959 1059 1194 731 
Q 1431 397 1809 397 
Q 2228 397 2453 1063 
L 2644 1628 
z
M 2966 2584 
L 3275 3500 
L 3788 3500 
L 3147 1603 
L 3272 919 
Q 3300 766 3409 638 
Q 3538 488 3638 488 
L 3913 488 
L 3913 0 
L 3569 0 
Q 3275 0 3013 263 
Q 2884 394 2831 669 
Q 2688 322 2394 50 
Q 2256 -78 1809 -78 
Q 1075 -78 719 397 
Q 353 888 353 1747 
Q 353 2666 750 3097 
Q 1191 3578 1809 3578 
Q 2781 3578 2966 2584 
z
" transform="scale(0.015625)"/>
       <path id="DejaVuSans-20" transform="scale(0.015625)"/>
       <path id="DejaVuSans-28" d="M 1984 4856 
Q 1566 4138 1362 3434 
Q 1159 2731 1159 2009 
Q 1159 1288 1364 580 
Q 1569 -128 1984 -844 
L 1484 -844 
Q 1016 -109 783 600 
Q 550 1309 550 2009 
Q 550 2706 781 3412 
Q 1013 4119 1484 4856 
L 1984 4856 
z
" transform="scale(0.015625)"/>
       <path id="DejaVuSans-73" d="M 2834 3397 
L 2834 2853 
Q 2591 2978 2328 3040 
Q 2066 3103 1784 3103 
Q 1356 3103 1142 2972 
Q 928 2841 928 2578 
Q 928 2378 1081 2264 
Q 1234 2150 1697 2047 
L 1894 2003 
Q 2506 1872 2764 1633 
Q 3022 1394 3022 966 
Q 3022 478 2636 193 
Q 2250 -91 1575 -91 
Q 1294 -91 989 -36 
Q 684 19 347 128 
L 347 722 
Q 666 556 975 473 
Q 1284 391 1588 391 
Q 1994 391 2212 530 
Q 2431 669 2431 922 
Q 2431 1156 2273 1281 
Q 2116 1406 1581 1522 
L 1381 1569 
Q 847 1681 609 1914 
Q 372 2147 372 2553 
Q 372 3047 722 3315 
Q 1072 3584 1716 3584 
Q 2034 3584 2315 3537 
Q 2597 3491 2834 3397 
z
" transform="scale(0.015625)"/>
       <path id="DejaVuSans-65" d="M 3597 1894 
L 3597 1613 
L 953 1613 
Q 991 1019 1311 708 
Q 1631 397 2203 397 
Q 2534 397 2845 478 
Q 3156 559 3463 722 
L 3463 178 
Q 3153 47 2828 -22 
Q 2503 -91 2169 -91 
Q 1331 -91 842 396 
Q 353 884 353 1716 
Q 353 2575 817 3079 
Q 1281 3584 2069 3584 
Q 2775 3584 3186 3129 
Q 3597 2675 3597 1894 
z
M 3022 2063 
Q 3016 2534 2758 2815 
Q 2500 3097 2075 3097 
Q 1594 3097 1305 2825 
Q 1016 2553 972 2059 
L 3022 2063 
z
" transform="scale(0.015625)"/>
       <path id="DejaVuSans-6e" d="M 3513 2113 
L 3513 0 
L 2938 0 
L 2938 2094 
Q 2938 2591 2744 2837 
Q 2550 3084 2163 3084 
Q 1697 3084 1428 2787 
Q 1159 2491 1159 1978 
L 1159 0 
L 581 0 
L 581 3500 
L 1159 3500 
L 1159 2956 
Q 1366 3272 1645 3428 
Q 1925 3584 2291 3584 
Q 2894 3584 3203 3211 
Q 3513 2838 3513 2113 
z
" transform="scale(0.015625)"/>
       <path id="DejaVuSans-69" d="M 603 3500 
L 1178 3500 
L 1178 0 
L 603 0 
L 603 3500 
z
M 603 4863 
L 1178 4863 
L 1178 4134 
L 603 4134 
L 603 4863 
z
" transform="scale(0.015625)"/>
       <path id="DejaVuSans-74" d="M 1172 4494 
L 1172 3500 
L 2356 3500 
L 2356 3053 
L 1172 3053 
L 1172 1153 
Q 1172 725 1289 603 
Q 1406 481 1766 481 
L 2356 481 
L 2356 0 
L 1766 0 
Q 1100 0 847 248 
Q 594 497 594 1153 
L 594 3053 
L 172 3053 
L 172 3500 
L 594 3500 
L 594 4494 
L 1172 4494 
z
" transform="scale(0.015625)"/>
       <path id="DejaVuSans-76" d="M 191 3500 
L 800 3500 
L 1894 563 
L 2988 3500 
L 3597 3500 
L 2284 0 
L 1503 0 
L 191 3500 
z
" transform="scale(0.015625)"/>
       <path id="DejaVuSans-79" d="M 2059 -325 
Q 1816 -950 1584 -1140 
Q 1353 -1331 966 -1331 
L 506 -1331 
L 506 -850 
L 844 -850 
Q 1081 -850 1212 -737 
Q 1344 -625 1503 -206 
L 1606 56 
L 191 3500 
L 800 3500 
L 1894 763 
L 2988 3500 
L 3597 3500 
L 2059 -325 
z
" transform="scale(0.015625)"/>
       <path id="DejaVuSans-29" d="M 513 4856 
L 1013 4856 
Q 1481 4119 1714 3412 
Q 1947 2706 1947 2009 
Q 1947 1309 1714 600 
Q 1481 -109 1013 -844 
L 513 -844 
Q 928 -128 1133 580 
Q 1338 1288 1338 2009 
Q 1338 2731 1133 3434 
Q 928 4138 513 4856 
z
" transform="scale(0.015625)"/>
      </defs>
      <use xlink:href="#DejaVuSans-3b1"/>
      <use xlink:href="#DejaVuSans-20" transform="translate(65.917969 0)"/>
      <use xlink:href="#DejaVuSans-28" transform="translate(97.705078 0)"/>
      <use xlink:href="#DejaVuSans-73" transform="translate(136.71875 0)"/>
      <use xlink:href="#DejaVuSans-65" transform="translate(188.818359 0)"/>
      <use xlink:href="#DejaVuSans-6e" transform="translate(250.341797 0)"/>
      <use xlink:href="#DejaVuSans-73" transform="translate(313.720703 0)"/>
      <use xlink:href="#DejaVuSans-69" transform="translate(365.820312 0)"/>
      <use xlink:href="#DejaVuSans-74" transform="translate(393.603516 0)"/>
      <use xlink:href="#DejaVuSans-69" transform="translate(432.8125 0)"/>
      <use xlink:href="#DejaVuSans-76" transform="translate(460.595703 0)"/>
      <use xlink:href="#DejaVuSans-69" transform="translate(519.775391 0)"/>
      <use xlink:href="#DejaVuSans-74" transform="translate(547.558594 0)"/>
      <use xlink:href="#DejaVuSans-79" transform="translate(586.767578 0)"/>
      <use xlink:href="#DejaVuSans-29" transform="translate(645.947266 0)"/>
     </g>
    </g>
   </g>
   <g id="matplotlib.axis_2">
    <g id="ytick_1">
     <g id="line2d_11">
      <path d="M 50.946875 69.626206 
L 703.346875 69.626206 
" clip-path="url(#p28d6face5e)" style="fill: none; stroke: #e2e8f0; stroke-opacity: 0.5; stroke-width: 0.5; stroke-linecap: square"/>
     </g>
     <g id="line2d_12">
      <defs>
       <path id="m01fb52a317" d="M 0 0 
L -3.5 0 
" style="stroke: #2d3748; stroke-width: 0.8"/>
      </defs>
      <g>
       <use xlink:href="#m01fb52a317" x="50.946875" y="69.626206" style="fill: #2d3748; stroke: #2d3748; stroke-width: 0.8"/>
      </g>
     </g>
     <g id="text_7">
      <!-- T = 0.0 -->
      <g style="fill: #2d3748" transform="translate(7.2 73.425425) scale(0.1 -0.1)">
       <defs>
        <path id="DejaVuSans-54" d="M -19 4666 
L 3928 4666 
L 3928 4134 
L 2272 4134 
L 2272 0 
L 1638 0 
L 1638 4134 
L -19 4134 
L -19 4666 
z
" transform="scale(0.015625)"/>
        <path id="DejaVuSans-3d" d="M 678 2906 
L 4684 2906 
L 4684 2381 
L 678 2381 
L 678 2906 
z
M 678 1631 
L 4684 1631 
L 4684 1100 
L 678 1100 
L 678 1631 
z
" transform="scale(0.015625)"/>
        <path id="DejaVuSans-2e" d="M 684 794 
L 1344 794 
L 1344 0 
L 684 0 
L 684 794 
z
" transform="scale(0.015625)"/>
       </defs>
       <use xlink:href="#DejaVuSans-54"/>
       <use xlink:href="#DejaVuSans-20" transform="translate(61.083984 0)"/>
       <use xlink:href="#DejaVuSans-3d" transform="translate(92.871094 0)"/>
       <use xlink:href="#DejaVuSans-20" transform="translate(176.660156 0)"/>
       <use xlink:href="#DejaVuSans-30" transform="translate(208.447266 0)"/>
       <use xlink:href="#DejaVuSans-2e" transform="translate(272.070312 0)"/>
       <use xlink:href="#DejaVuSans-30" transform="translate(303.857422 0)"/>
      </g>
     </g>
    </g>
    <g id="ytick_2">
     <g id="line2d_13">
      <path d="M 50.946875 136.602087 
L 703.346875 136.602087 
" clip-path="url(#p28d6face5e)" style="fill: none; stroke: #e2e8f0; stroke-opacity: 0.5; stroke-width: 0.5; stroke-linecap: square"/>
     </g>
     <g id="line2d_14">
      <g>
       <use xlink:href="#m01fb52a317" x="50.946875" y="136.602087" style="fill: #2d3748; stroke: #2d3748; stroke-width: 0.8"/>
      </g>
     </g>
     <g id="text_8">
      <!-- T = 0.3 -->
      <g style="fill: #2d3748" transform="translate(7.2 140.401306) scale(0.1 -0.1)">
       <defs>
        <path id="DejaVuSans-33" d="M 2597 2516 
Q 3050 2419 3304 2112 
Q 3559 1806 3559 1356 
Q 3559 666 3084 287 
Q 2609 -91 1734 -91 
Q 1441 -91 1130 -33 
Q 819 25 488 141 
L 488 750 
Q 750 597 1062 519 
Q 1375 441 1716 441 
Q 2309 441 2620 675 
Q 2931 909 2931 1356 
Q 2931 1769 2642 2001 
Q 2353 2234 1838 2234 
L 1294 2234 
L 1294 2753 
L 1863 2753 
Q 2328 2753 2575 2939 
Q 2822 3125 2822 3475 
Q 2822 3834 2567 4026 
Q 2313 4219 1838 4219 
Q 1578 4219 1281 4162 
Q 984 4106 628 3988 
L 628 4550 
Q 988 4650 1302 4700 
Q 1616 4750 1894 4750 
Q 2613 4750 3031 4423 
Q 3450 4097 3450 3541 
Q 3450 3153 3228 2886 
Q 3006 2619 2597 2516 
z
" transform="scale(0.015625)"/>
       </defs>
       <use xlink:href="#DejaVuSans-54"/>
       <use xlink:href="#DejaVuSans-20" transform="translate(61.083984 0)"/>
       <use xlink:href="#DejaVuSans-3d" transform="translate(92.871094 0)"/>
       <use xlink:href="#DejaVuSans-20" transform="translate(176.660156 0)"/>
       <use xlink:href="#DejaVuSans-30" transform="translate(208.447266 0)"/>
       <use xlink:href="#DejaVuSans-2e" transform="translate(272.070312 0)"/>
       <use xlink:href="#DejaVuSans-33" transform="translate(303.857422 0)"/>
      </g>
     </g>
    </g>
    <g id="ytick_3">
     <g id="line2d_15">
      <path d="M 50.946875 203.577969 
L 703.346875 203.577969 
" clip-path="url(#p28d6face5e)" style="fill: none; stroke: #e2e8f0; stroke-opacity: 0.5; stroke-width: 0.5; stroke-linecap: square"/>
     </g>
     <g id="line2d_16">
      <g>
       <use xlink:href="#m01fb52a317" x="50.946875" y="203.577969" style="fill: #2d3748; stroke: #2d3748; stroke-width: 0.8"/>
      </g>
     </g>
     <g id="text_9">
      <!-- T = 0.7 -->
      <g style="fill: #2d3748" transform="translate(7.2 207.377187) scale(0.1 -0.1)">
       <defs>
        <path id="DejaVuSans-37" d="M 525 4666 
L 3525 4666 
L 3525 4397 
L 1831 0 
L 1172 0 
L 2766 4134 
L 525 4134 
L 525 4666 
z
" transform="scale(0.015625)"/>
       </defs>
       <use xlink:href="#DejaVuSans-54"/>
       <use xlink:href="#DejaVuSans-20" transform="translate(61.083984 0)"/>
       <use xlink:href="#DejaVuSans-3d" transform="translate(92.871094 0)"/>
       <use xlink:href="#DejaVuSans-20" transform="translate(176.660156 0)"/>
       <use xlink:href="#DejaVuSans-30" transform="translate(208.447266 0)"/>
       <use xlink:href="#DejaVuSans-2e" transform="translate(272.070312 0)"/>
       <use xlink:href="#DejaVuSans-37" transform="translate(303.857422 0)"/>
      </g>
     </g>
    </g>
    <g id="ytick_4">
     <g id="line2d_17">
      <path d="M 50.946875 270.55385 
L 703.346875 270.55385 
" clip-path="url(#p28d6face5e)" style="fill: none; stroke: #e2e8f0; stroke-opacity: 0.5; stroke-width: 0.5; stroke-linecap: square"/>
     </g>
     <g id="line2d_18">
      <g>
       <use xlink:href="#m01fb52a317" x="50.946875" y="270.55385" style="fill: #2d3748; stroke: #2d3748; stroke-width: 0.8"/>
      </g>
     </g>
     <g id="text_10">
      <!-- T = 1.0 -->
      <g style="fill: #2d3748" transform="translate(7.2 274.353069) scale(0.1 -0.1)">
       <use xlink:href="#DejaVuSans-54"/>
       <use xlink:href="#DejaVuSans-20" transform="translate(61.083984 0)"/>
       <use xlink:href="#DejaVuSans-3d" transform="translate(92.871094 0)"/>
       <use xlink:href="#DejaVuSans-20" transform="translate(176.660156 0)"/>
       <use xlink:href="#DejaVuSans-31" transform="translate(208.447266 0)"/>
       <use xlink:href="#DejaVuSans-2e" transform="translate(272.070312 0)"/>
       <use xlink:href="#DejaVuSans-30" transform="translate(303.857422 0)"/>
      </g>
     </g>
    </g>
    <g id="ytick_5">
     <g id="line2d_19">
      <path d="M 50.946875 337.529731 
L 703.346875 337.529731 
" clip-path="url(#p28d6face5e)" style="fill: none; stroke: #e2e8f0; stroke-opacity: 0.5; stroke-width: 0.5; stroke-linecap: square"/>
     </g>
     <g id="line2d_20">
      <g>
       <use xlink:href="#m01fb52a317" x="50.946875" y="337.529731" style="fill: #2d3748; stroke: #2d3748; stroke-width: 0.8"/>
      </g>
     </g>
     <g id="text_11">
      <!-- T = 1.5 -->
      <g style="fill: #2d3748" transform="translate(7.2 341.32895) scale(0.1 -0.1)">
       <defs>
        <path id="DejaVuSans-35" d="M 691 4666 
L 3169 4666 
L 3169 4134 
L 1269 4134 
L 1269 2991 
Q 1406 3038 1543 3061 
Q 1681 3084 1819 3084 
Q 2600 3084 3056 2656 
Q 3513 2228 3513 1497 
Q 3513 744 3044 326 
Q 2575 -91 1722 -91 
Q 1428 -91 1123 -41 
Q 819 9 494 109 
L 494 744 
Q 775 591 1075 516 
Q 1375 441 1709 441 
Q 2250 441 2565 725 
Q 2881 1009 2881 1497 
Q 2881 1984 2565 2268 
Q 2250 2553 1709 2553 
Q 1456 2553 1204 2497 
Q 953 2441 691 2322 
L 691 4666 
z
" transform="scale(0.015625)"/>
       </defs>
       <use xlink:href="#DejaVuSans-54"/>
       <use xlink:href="#DejaVuSans-20" transform="translate(61.083984 0)"/>
       <use xlink:href="#DejaVuSans-3d" transform="translate(92.871094 0)"/>
       <use xlink:href="#DejaVuSans-20" transform="translate(176.660156 0)"/>
       <use xlink:href="#DejaVuSans-31" transform="translate(208.447266 0)"/>
       <use xlink:href="#DejaVuSans-2e" transform="translate(272.070312 0)"/>
       <use xlink:href="#DejaVuSans-35" transform="translate(303.857422 0)"/>
      </g>
     </g>
    </g>
   </g>
   <g id="line2d_21">
    <path d="M 215.987993 39.48706 
L 673.69233 39.48706 
" clip-path="url(#p28d6face5e)" style="fill: none; stroke: #4a90a4; stroke-opacity: 0.7; stroke-width: 1.5; stroke-linecap: square"/>
   </g>
   <g id="line2d_22">
    <path d="M 146.732373 106.462941 
L 470.623635 106.462941 
" clip-path="url(#p28d6face5e)" style="fill: none; stroke: #4a90a4; stroke-opacity: 0.7; stroke-width: 1.5; stroke-linecap: square"/>
   </g>
   <g id="line2d_23">
    <path d="M 162.320981 173.438822 
L 449.353812 173.438822 
" clip-path="url(#p28d6face5e)" style="fill: none; stroke: #4a90a4; stroke-opacity: 0.7; stroke-width: 1.5; stroke-linecap: square"/>
   </g>
   <g id="line2d_24">
    <path d="M 87.482761 240.414703 
L 284.515475 240.414703 
" clip-path="url(#p28d6face5e)" style="fill: none; stroke: #4a90a4; stroke-opacity: 0.7; stroke-width: 1.5; stroke-linecap: square"/>
   </g>
   <g id="line2d_25">
    <path d="M 80.60142 307.390585 
L 243.768885 307.390585 
" clip-path="url(#p28d6face5e)" style="fill: none; stroke: #4a90a4; stroke-opacity: 0.7; stroke-width: 1.5; stroke-linecap: square"/>
   </g>
   <g id="line2d_26">
    <path d="M 162.664583 59.579824 
L 297.305031 59.579824 
" clip-path="url(#p28d6face5e)" style="fill: none; stroke: #2c5282; stroke-opacity: 0.7; stroke-width: 1.5; stroke-linecap: square"/>
   </g>
   <g id="line2d_27">
    <path d="M 154.619089 126.555705 
L 287.064579 126.555705 
" clip-path="url(#p28d6face5e)" style="fill: none; stroke: #2c5282; stroke-opacity: 0.7; stroke-width: 1.5; stroke-linecap: square"/>
   </g>
   <g id="line2d_28">
    <path d="M 146.422883 193.531587 
L 263.829899 193.531587 
" clip-path="url(#p28d6face5e)" style="fill: none; stroke: #2c5282; stroke-opacity: 0.7; stroke-width: 1.5; stroke-linecap: square"/>
   </g>
   <g id="line2d_29">
    <path d="M 102.034361 260.507468 
L 186.503977 260.507468 
" clip-path="url(#p28d6face5e)" style="fill: none; stroke: #2c5282; stroke-opacity: 0.7; stroke-width: 1.5; stroke-linecap: square"/>
   </g>
   <g id="line2d_30">
    <path d="M 94.093685 327.483349 
L 172.964575 327.483349 
" clip-path="url(#p28d6face5e)" style="fill: none; stroke: #2c5282; stroke-opacity: 0.7; stroke-width: 1.5; stroke-linecap: square"/>
   </g>
   <g id="line2d_31">
    <path d="M 199.517432 79.672588 
L 642.298656 79.672588 
" clip-path="url(#p28d6face5e)" style="fill: none; stroke: #ed8936; stroke-opacity: 0.7; stroke-width: 1.5; stroke-linecap: square"/>
   </g>
   <g id="line2d_32">
    <path d="M 140.410471 146.64847 
L 430.097843 146.64847 
" clip-path="url(#p28d6face5e)" style="fill: none; stroke: #ed8936; stroke-opacity: 0.7; stroke-width: 1.5; stroke-linecap: square"/>
   </g>
   <g id="line2d_33">
    <path d="M 154.636456 213.624351 
L 453.278564 213.624351 
" clip-path="url(#p28d6face5e)" style="fill: none; stroke: #ed8936; stroke-opacity: 0.7; stroke-width: 1.5; stroke-linecap: square"/>
   </g>
   <g id="line2d_34">
    <path d="M 89.828433 280.600232 
L 257.847878 280.600232 
" clip-path="url(#p28d6face5e)" style="fill: none; stroke: #ed8936; stroke-opacity: 0.7; stroke-width: 1.5; stroke-linecap: square"/>
   </g>
   <g id="line2d_35">
    <path d="M 87.387867 347.576113 
L 248.702735 347.576113 
" clip-path="url(#p28d6face5e)" style="fill: none; stroke: #ed8936; stroke-opacity: 0.7; stroke-width: 1.5; stroke-linecap: square"/>
   </g>
   <g id="line2d_36">
    <path d="M 182.6766 99.765353 
L 503.12316 99.765353 
" clip-path="url(#p28d6face5e)" style="fill: none; stroke: #48bb78; stroke-opacity: 0.7; stroke-width: 1.5; stroke-linecap: square"/>
   </g>
   <g id="line2d_37">
    <path d="M 140.928354 166.741234 
L 393.749233 166.741234 
" clip-path="url(#p28d6face5e)" style="fill: none; stroke: #48bb78; stroke-opacity: 0.7; stroke-width: 1.5; stroke-linecap: square"/>
   </g>
   <g id="line2d_38">
    <path d="M 148.913686 233.717115 
L 395.862942 233.717115 
" clip-path="url(#p28d6face5e)" style="fill: none; stroke: #48bb78; stroke-opacity: 0.7; stroke-width: 1.5; stroke-linecap: square"/>
   </g>
   <g id="line2d_39">
    <path d="M 88.459607 300.692997 
L 240.585916 300.692997 
" clip-path="url(#p28d6face5e)" style="fill: none; stroke: #48bb78; stroke-opacity: 0.7; stroke-width: 1.5; stroke-linecap: square"/>
   </g>
   <g id="line2d_40">
    <path d="M 88.002505 367.668878 
L 230.210877 367.668878 
" clip-path="url(#p28d6face5e)" style="fill: none; stroke: #48bb78; stroke-opacity: 0.7; stroke-width: 1.5; stroke-linecap: square"/>
   </g>
   <g id="patch_3">
    <path d="M 50.946875 384.077969 
L 50.946875 23.077969 
" style="fill: none; stroke: #2d3748; stroke-width: 0.8; stroke-linejoin: miter; stroke-linecap: square"/>
   </g>
   <g id="patch_4">
    <path d="M 50.946875 384.077969 
L 703.346875 384.077969 
" style="fill: none; stroke: #2d3748; stroke-width: 0.8; stroke-linejoin: miter; stroke-linecap: square"/>
   </g>
   <g id="text_12">
    <!-- Cross-Study Comparison: α Posteriors -->
    <g style="fill: #2d3748" transform="translate(254.522344 17.077969) scale(0.13 -0.13)">
     <defs>
      <path id="DejaVuSans-43" d="M 4122 4306 
L 4122 3641 
Q 3803 3938 3442 4084 
Q 3081 4231 2675 4231 
Q 1875 4231 1450 3742 
Q 1025 3253 1025 2328 
Q 1025 1406 1450 917 
Q 1875 428 2675 428 
Q 3081 428 3442 575 
Q 3803 722 4122 1019 
L 4122 359 
Q 3791 134 3420 21 
Q 3050 -91 2638 -91 
Q 1578 -91 968 557 
Q 359 1206 359 2328 
Q 359 3453 968 4101 
Q 1578 4750 2638 4750 
Q 3056 4750 3426 4639 
Q 3797 4528 4122 4306 
z
" transform="scale(0.015625)"/>
      <path id="DejaVuSans-72" d="M 2631 2963 
Q 2534 3019 2420 3045 
Q 2306 3072 2169 3072 
Q 1681 3072 1420 2755 
Q 1159 2438 1159 1844 
L 1159 0 
L 581 0 
L 581 3500 
L 1159 3500 
L 1159 2956 
Q 1341 3275 1631 3429 
Q 1922 3584 2338 3584 
Q 2397 3584 2469 3576 
Q 2541 3569 2628 3553 
L 2631 2963 
z
" transform="scale(0.015625)"/>
      <path id="DejaVuSans-6f" d="M 1959 3097 
Q 1497 3097 1228 2736 
Q 959 2375 959 1747 
Q 959 1119 1226 758 
Q 1494 397 1959 397 
Q 2419 397 2687 759 
Q 2956 1122 2956 1747 
Q 2956 2369 2687 2733 
Q 2419 3097 1959 3097 
z
M 1959 3584 
Q 2709 3584 3137 3096 
Q 3566 2609 3566 1747 
Q 3566 888 3137 398 
Q 2709 -91 1959 -91 
Q 1206 -91 779 398 
Q 353 888 353 1747 
Q 353 2609 779 3096 
Q 1206 3584 1959 3584 
z
" transform="scale(0.015625)"/>
      <path id="DejaVuSans-2d" d="M 313 2009 
L 1997 2009 
L 1997 1497 
L 313 1497 
L 313 2009 
z
" transform="scale(0.015625)"/>
      <path id="DejaVuSans-53" d="M 3425 4513 
L 3425 3897 
Q 3066 4069 2747 4153 
Q 2428 4238 2131 4238 
Q 1616 4238 1336 4038 
Q 1056 3838 1056 3469 
Q 1056 3159 1242 3001 
Q 1428 2844 1947 2747 
L 2328 2669 
Q 3034 2534 3370 2195 
Q 3706 1856 3706 1288 
Q 3706 609 3251 259 
Q 2797 -91 1919 -91 
Q 1588 -91 1214 -16 
Q 841 59 441 206 
L 441 856 
Q 825 641 1194 531 
Q 1563 422 1919 422 
Q 2459 422 2753 634 
Q 3047 847 3047 1241 
Q 3047 1584 2836 1778 
Q 2625 1972 2144 2069 
L 1759 2144 
Q 1053 2284 737 2584 
Q 422 2884 422 3419 
Q 422 4038 858 4394 
Q 1294 4750 2059 4750 
Q 2388 4750 2728 4690 
Q 3069 4631 3425 4513 
z
" transform="scale(0.015625)"/>
      <path id="DejaVuSans-75" d="M 544 1381 
L 544 3500 
L 1119 3500 
L 1119 1403 
Q 1119 906 1312 657 
Q 1506 409 1894 409 
Q 2359 409 2629 706 
Q 2900 1003 2900 1516 
L 2900 3500 
L 3475 3500 
L 3475 0 
L 2900 0 
L 2900 538 
Q 2691 219 2414 64 
Q 2138 -91 1772 -91 
Q 1169 -91 856 284 
Q 544 659 544 1381 
z
M 1991 3584 
L 1991 3584 
z
" transform="scale(0.015625)"/>
      <path id="DejaVuSans-64" d="M 2906 2969 
L 2906 4863 
L 3481 4863 
L 3481 0 
L 2906 0 
L 2906 525 
Q 2725 213 2448 61 
Q 2172 -91 1784 -91 
Q 1150 -91 751 415 
Q 353 922 353 1747 
Q 353 2572 751 3078 
Q 1150 3584 1784 3584 
Q 2172 3584 2448 3432 
Q 2725 3281 2906 2969 
z
M 947 1747 
Q 947 1113 1208 752 
Q 1469 391 1925 391 
Q 2381 391 2643 752 
Q 2906 1113 2906 1747 
Q 2906 2381 2643 2742 
Q 2381 3103 1925 3103 
Q 1469 3103 1208 2742 
Q 947 2381 947 1747 
z
" transform="scale(0.015625)"/>
      <path id="DejaVuSans-6d" d="M 3328 2828 
Q 3544 3216 3844 3400 
Q 4144 3584 4550 3584 
Q 5097 3584 5394 3201 
Q 5691 2819 5691 2113 
L 5691 0 
L 5113 0 
L 5113 2094 
Q 5113 2597 4934 2840 
Q 4756 3084 4391 3084 
Q 3944 3084 3684 2787 
Q 3425 2491 3425 1978 
L 3425 0 
L 2847 0 
L 2847 2094 
Q 2847 2600 2669 2842 
Q 2491 3084 2119 3084 
Q 1678 3084 1418 2786 
Q 1159 2488 1159 1978 
L 1159 0 
L 581 0 
L 581 3500 
L 1159 3500 
L 1159 2956 
Q 1356 3278 1631 3431 
Q 1906 3584 2284 3584 
Q 2666 3584 2933 3390 
Q 3200 3197 3328 2828 
z
" transform="scale(0.015625)"/>
      <path id="DejaVuSans-70" d="M 1159 525 
L 1159 -1331 
L 581 -1331 
L 581 3500 
L 1159 3500 
L 1159 2969 
Q 1341 3281 1617 3432 
Q 1894 3584 2278 3584 
Q 2916 3584 3314 3078 
Q 3713 2572 3713 1747 
Q 3713 922 3314 415 
Q 2916 -91 2278 -91 
Q 1894 -91 1617 61 
Q 1341 213 1159 525 
z
M 3116 1747 
Q 3116 2381 2855 2742 
Q 2594 3103 2138 3103 
Q 1681 3103 1420 2742 
Q 1159 2381 1159 1747 
Q 1159 1113 1420 752 
Q 1681 391 2138 391 
Q 2594 391 2855 752 
Q 3116 1113 3116 1747 
z
" transform="scale(0.015625)"/>
      <path id="DejaVuSans-61" d="M 2194 1759 
Q 1497 1759 1228 1600 
Q 959 1441 959 1056 
Q 959 750 1161 570 
Q 1363 391 1709 391 
Q 2188 391 2477 730 
Q 2766 1069 2766 1631 
L 2766 1759 
L 2194 1759 
z
M 3341 1997 
L 3341 0 
L 2766 0 
L 2766 531 
Q 2569 213 2275 61 
Q 1981 -91 1556 -91 
Q 1019 -91 701 211 
Q 384 513 384 1019 
Q 384 1609 779 1909 
Q 1175 2209 1959 2209 
L 2766 2209 
L 2766 2266 
Q 2766 2663 2505 2880 
Q 2244 3097 1772 3097 
Q 1472 3097 1187 3025 
Q 903 2953 641 2809 
L 641 3341 
Q 956 3463 1253 3523 
Q 1550 3584 1831 3584 
Q 2591 3584 2966 3190 
Q 3341 2797 3341 1997 
z
" transform="scale(0.015625)"/>
      <path id="DejaVuSans-3a" d="M 750 794 
L 1409 794 
L 1409 0 
L 750 0 
L 750 794 
z
M 750 3309 
L 1409 3309 
L 1409 2516 
L 750 2516 
L 750 3309 
z
" transform="scale(0.015625)"/>
      <path id="DejaVuSans-50" d="M 1259 4147 
L 1259 2394 
L 2053 2394 
Q 2494 2394 2734 2622 
Q 2975 2850 2975 3272 
Q 2975 3691 2734 3919 
Q 2494 4147 2053 4147 
L 1259 4147 
z
M 628 4666 
L 2053 4666 
Q 2838 4666 3239 4311 
Q 3641 3956 3641 3272 
Q 3641 2581 3239 2228 
Q 2838 1875 2053 1875 
L 1259 1875 
L 1259 0 
L 628 0 
L 628 4666 
z
" transform="scale(0.015625)"/>
     </defs>
     <use xlink:href="#DejaVuSans-43"/>
     <use xlink:href="#DejaVuSans-72" transform="translate(69.824219 0)"/>
     <use xlink:href="#DejaVuSans-6f" transform="translate(108.6875 0)"/>
     <use xlink:href="#DejaVuSans-73" transform="translate(169.869141 0)"/>
     <use xlink:href="#DejaVuSans-73" transform="translate(221.96875 0)"/>
     <use xlink:href="#DejaVuSans-2d" transform="translate(274.068359 0)"/>
     <use xlink:href="#DejaVuSans-53" transform="translate(310.152344 0)"/>
     <use xlink:href="#DejaVuSans-74" transform="translate(373.628906 0)"/>
     <use xlink:href="#DejaVuSans-75" transform="translate(412.837891 0)"/>
     <use xlink:href="#DejaVuSans-64" transform="translate(476.216797 0)"/>
     <use xlink:href="#DejaVuSans-79" transform="translate(539.693359 0)"/>
     <use xlink:href="#DejaVuSans-20" transform="translate(598.873047 0)"/>
     <use xlink:href="#DejaVuSans-43" transform="translate(630.660156 0)"/>
     <use xlink:href="#DejaVuSans-6f" transform="translate(700.484375 0)"/>
     <use xlink:href="#DejaVuSans-6d" transform="translate(761.666016 0)"/>
     <use xlink:href="#DejaVuSans-70" transform="translate(859.078125 0)"/>
     <use xlink:href="#DejaVuSans-61" transform="translate(922.554688 0)"/>
     <use xlink:href="#DejaVuSans-72" transform="translate(983.833984 0)"/>
     <use xlink:href="#DejaVuSans-69" transform="translate(1024.947266 0)"/>
     <use xlink:href="#DejaVuSans-73" transform="translate(1052.730469 0)"/>
     <use xlink:href="#DejaVuSans-6f" transform="translate(1104.830078 0)"/>
     <use xlink:href="#DejaVuSans-6e" transform="translate(1166.011719 0)"/>
     <use xlink:href="#DejaVuSans-3a" transform="translate(1229.390625 0)"/>
     <use xlink:href="#DejaVuSans-20" transform="translate(1263.082031 0)"/>
     <use xlink:href="#DejaVuSans-3b1" transform="translate(1294.869141 0)"/>
     <use xlink:href="#DejaVuSans-20" transform="translate(1360.787109 0)"/>
     <use xlink:href="#DejaVuSans-50" transform="translate(1392.574219 0)"/>
     <use xlink:href="#DejaVuSans-6f" transform="translate(1449.251953 0)"/>
     <use xlink:href="#DejaVuSans-73" transform="translate(1510.433594 0)"/>
     <use xlink:href="#DejaVuSans-74" transform="translate(1562.533203 0)"/>
     <use xlink:href="#DejaVuSans-65" transform="translate(1601.742188 0)"/>
     <use xlink:href="#DejaVuSans-72" transform="translate(1663.265625 0)"/>
     <use xlink:href="#DejaVuSans-69" transform="translate(1704.378906 0)"/>
     <use xlink:href="#DejaVuSans-6f" transform="translate(1732.162109 0)"/>
     <use xlink:href="#DejaVuSans-72" transform="translate(1793.34375 0)"/>
     <use xlink:href="#DejaVuSans-73" transform="translate(1834.457031 0)"/>
    </g>
   </g>
   <g id="line2d_41">
    <defs>
     <path id="m8d6609a063" d="M 0 3.5 
C 0.928211 3.5 1.81853 3.131218 2.474874 2.474874 
C 3.131218 1.81853 3.5 0.928211 3.5 0 
C 3.5 -0.928211 3.131218 -1.81853 2.474874 -2.474874 
C 1.81853 -3.131218 0.928211 -3.5 0 -3.5 
C -0.928211 -3.5 -1.81853 -3.131218 -2.474874 -2.474874 
C -3.131218 -1.81853 -3.5 -0.928211 -3.5 0 
C -3.5 0.928211 -3.131218 1.81853 -2.474874 2.474874 
C -1.81853 3.131218 -0.928211 3.5 0 3.5 
z
" style="stroke: #4a90a4"/>
    </defs>
    <g clip-path="url(#p28d6face5e)">
     <use xlink:href="#m8d6609a063" x="382.133133" y="39.48706" style="fill: #4a90a4; stroke: #4a90a4"/>
    </g>
   </g>
   <g id="line2d_42">
    <g clip-path="url(#p28d6face5e)">
     <use xlink:href="#m8d6609a063" x="262.953528" y="106.462941" style="fill: #4a90a4; stroke: #4a90a4"/>
    </g>
   </g>
   <g id="line2d_43">
    <g clip-path="url(#p28d6face5e)">
     <use xlink:href="#m8d6609a063" x="272.005018" y="173.438822" style="fill: #4a90a4; stroke: #4a90a4"/>
    </g>
   </g>
   <g id="line2d_44">
    <g clip-path="url(#p28d6face5e)">
     <use xlink:href="#m8d6609a063" x="165.095845" y="240.414703" style="fill: #4a90a4; stroke: #4a90a4"/>
    </g>
   </g>
   <g id="line2d_45">
    <g clip-path="url(#p28d6face5e)">
     <use xlink:href="#m8d6609a063" x="146.261626" y="307.390585" style="fill: #4a90a4; stroke: #4a90a4"/>
    </g>
   </g>
   <g id="line2d_46">
    <defs>
     <path id="m80c85684c8" d="M -3.5 3.5 
L 3.5 3.5 
L 3.5 -3.5 
L -3.5 -3.5 
z
" style="stroke: #2c5282; stroke-linejoin: miter"/>
    </defs>
    <g clip-path="url(#p28d6face5e)">
     <use xlink:href="#m80c85684c8" x="220.884629" y="59.579824" style="fill: #2c5282; stroke: #2c5282; stroke-linejoin: miter"/>
    </g>
   </g>
   <g id="line2d_47">
    <g clip-path="url(#p28d6face5e)">
     <use xlink:href="#m80c85684c8" x="211.261297" y="126.555705" style="fill: #2c5282; stroke: #2c5282; stroke-linejoin: miter"/>
    </g>
   </g>
   <g id="line2d_48">
    <g clip-path="url(#p28d6face5e)">
     <use xlink:href="#m80c85684c8" x="198.008437" y="193.531587" style="fill: #2c5282; stroke: #2c5282; stroke-linejoin: miter"/>
    </g>
   </g>
   <g id="line2d_49">
    <g clip-path="url(#p28d6face5e)">
     <use xlink:href="#m80c85684c8" x="140.562425" y="260.507468" style="fill: #2c5282; stroke: #2c5282; stroke-linejoin: miter"/>
    </g>
   </g>
   <g id="line2d_50">
    <g clip-path="url(#p28d6face5e)">
     <use xlink:href="#m80c85684c8" x="130.34244" y="327.483349" style="fill: #2c5282; stroke: #2c5282; stroke-linejoin: miter"/>
    </g>
   </g>
   <g id="line2d_51">
    <defs>
     <path id="m85ffa606f8" d="M -0 4.949747 
L 4.949747 0 
L 0 -4.949747 
L -4.949747 -0 
z
" style="stroke: #ed8936; stroke-linejoin: miter"/>
    </defs>
    <g clip-path="url(#p28d6face5e)">
     <use xlink:href="#m85ffa606f8" x="354.776472" y="79.672588" style="fill: #ed8936; stroke: #ed8936; stroke-linejoin: miter"/>
    </g>
   </g>
   <g id="line2d_52">
    <g clip-path="url(#p28d6face5e)">
     <use xlink:href="#m85ffa606f8" x="247.705421" y="146.64847" style="fill: #ed8936; stroke: #ed8936; stroke-linejoin: miter"/>
    </g>
   </g>
   <g id="line2d_53">
    <g clip-path="url(#p28d6face5e)">
     <use xlink:href="#m85ffa606f8" x="266.664304" y="213.624351" style="fill: #ed8936; stroke: #ed8936; stroke-linejoin: miter"/>
    </g>
   </g>
   <g id="line2d_54">
    <g clip-path="url(#p28d6face5e)">
     <use xlink:href="#m85ffa606f8" x="156.118161" y="280.600232" style="fill: #ed8936; stroke: #ed8936; stroke-linejoin: miter"/>
    </g>
   </g>
   <g id="line2d_55">
    <g clip-path="url(#p28d6face5e)">
     <use xlink:href="#m85ffa606f8" x="150.612469" y="347.576113" style="fill: #ed8936; stroke: #ed8936; stroke-linejoin: miter"/>
    </g>
   </g>
   <g id="line2d_56">
    <defs>
     <path id="m05ebd773ec" d="M 0 -3.5 
L -3.5 3.5 
L 3.5 3.5 
z
" style="stroke: #48bb78; stroke-linejoin: miter"/>
    </defs>
    <g clip-path="url(#p28d6face5e)">
     <use xlink:href="#m05ebd773ec" x="309.501656" y="99.765353" style="fill: #48bb78; stroke: #48bb78; stroke-linejoin: miter"/>
    </g>
   </g>
   <g id="line2d_57">
    <g clip-path="url(#p28d6face5e)">
     <use xlink:href="#m05ebd773ec" x="240.622509" y="166.741234" style="fill: #48bb78; stroke: #48bb78; stroke-linejoin: miter"/>
    </g>
   </g>
   <g id="line2d_58">
    <g clip-path="url(#p28d6face5e)">
     <use xlink:href="#m05ebd773ec" x="246.758965" y="233.717115" style="fill: #48bb78; stroke: #48bb78; stroke-linejoin: miter"/>
    </g>
   </g>
   <g id="line2d_59">
    <g clip-path="url(#p28d6face5e)">
     <use xlink:href="#m05ebd773ec" x="151.161983" y="300.692997" style="fill: #48bb78; stroke: #48bb78; stroke-linejoin: miter"/>
    </g>
   </g>
   <g id="line2d_60">
    <g clip-path="url(#p28d6face5e)">
     <use xlink:href="#m05ebd773ec" x="147.310418" y="367.668878" style="fill: #48bb78; stroke: #48bb78; stroke-linejoin: miter"/>
    </g>
   </g>
   <g id="legend_1">
    <g id="patch_5">
     <path d="M 636.88125 90.902969 
L 696.346875 90.902969 
Q 698.346875 90.902969 698.346875 88.902969 
L 698.346875 30.077969 
Q 698.346875 28.077969 696.346875 28.077969 
L 636.88125 28.077969 
Q 634.88125 28.077969 634.88125 30.077969 
L 634.88125 88.902969 
Q 634.88125 90.902969 636.88125 90.902969 
z
" style="fill: #ffffff; opacity: 0.9; stroke: #e2e8f0; stroke-linejoin: miter"/>
    </g>
    <g id="line2d_61">
     <g>
      <use xlink:href="#m8d6609a063" x="648.88125" y="36.176406" style="fill: #4a90a4; stroke: #4a90a4"/>
     </g>
    </g>
    <g id="text_13">
     <!-- m_01 -->
     <g style="fill: #2d3748" transform="translate(666.88125 39.676406) scale(0.1 -0.1)">
      <defs>
       <path id="DejaVuSans-5f" d="M 3263 -1063 
L 3263 -1509 
L -63 -1509 
L -63 -1063 
L 3263 -1063 
z
" transform="scale(0.015625)"/>
      </defs>
      <use xlink:href="#DejaVuSans-6d"/>
      <use xlink:href="#DejaVuSans-5f" transform="translate(97.412109 0)"/>
      <use xlink:href="#DejaVuSans-30" transform="translate(147.412109 0)"/>
      <use xlink:href="#DejaVuSans-31" transform="translate(211.035156 0)"/>
     </g>
    </g>
    <g id="line2d_62">
     <g>
      <use xlink:href="#m80c85684c8" x="648.88125" y="51.132656" style="fill: #2c5282; stroke: #2c5282; stroke-linejoin: miter"/>
     </g>
    </g>
    <g id="text_14">
     <!-- m_11 -->
     <g style="fill: #2d3748" transform="translate(666.88125 54.632656) scale(0.1 -0.1)">
      <use xlink:href="#DejaVuSans-6d"/>
      <use xlink:href="#DejaVuSans-5f" transform="translate(97.412109 0)"/>
      <use xlink:href="#DejaVuSans-31" transform="translate(147.412109 0)"/>
      <use xlink:href="#DejaVuSans-31" transform="translate(211.035156 0)"/>
     </g>
    </g>
    <g id="line2d_63">
     <g>
      <use xlink:href="#m85ffa606f8" x="648.88125" y="66.088906" style="fill: #ed8936; stroke: #ed8936; stroke-linejoin: miter"/>
     </g>
    </g>
    <g id="text_15">
     <!-- m_21 -->
     <g style="fill: #2d3748" transform="translate(666.88125 69.588906) scale(0.1 -0.1)">
      <use xlink:href="#DejaVuSans-6d"/>
      <use xlink:href="#DejaVuSans-5f" transform="translate(97.412109 0)"/>
      <use xlink:href="#DejaVuSans-32" transform="translate(147.412109 0)"/>
      <use xlink:href="#DejaVuSans-31" transform="translate(211.035156 0)"/>
     </g>
    </g>
    <g id="line2d_64">
     <g>
      <use xlink:href="#m05ebd773ec" x="648.88125" y="81.045156" style="fill: #48bb78; stroke: #48bb78; stroke-linejoin: miter"/>
     </g>
    </g>
    <g id="text_16">
     <!-- m_31 -->
     <g style="fill: #2d3748" transform="translate(666.88125 84.545156) scale(0.1 -0.1)">
      <use xlink:href="#DejaVuSans-6d"/>
      <use xlink:href="#DejaVuSans-5f" transform="translate(97.412109 0)"/>
      <use xlink:href="#DejaVuSans-33" transform="translate(147.412109 0)"/>
      <use xlink:href="#DejaVuSans-31" transform="translate(211.035156 0)"/>
     </g>
    </g>
   </g>
  </g>
 </g>
 <defs>
  <clipPath id="p28d6face5e">
   <rect x="50.946875" y="23.077969" width="652.4" height="361"/>
  </clipPath>
 </defs>
</svg>
