<?xml version="1.0" encoding="utf-8" standalone="no"?>
<!DOCTYPE svg PUBLIC "-//W3C//DTD SVG 1.1//EN"
  "http://www.w3.org/Graphics/SVG/1.1/DTD/svg11.dtd">
<svg xmlns:xlink="http://www.w3.org/1999/xlink" width="782.645625pt" height="278.759187pt" viewBox="0 0 782.645625 278.759187" xmlns="http://www.w3.org/2000/svg" version="1.1">
 <metadata>
  <rdf:RDF xmlns:dc="http://purl.org/dc/elements/1.1/" xmlns:cc="http://creativecommons.org/ns#" xmlns:rdf="http://www.w3.org/1999/02/22-rdf-syntax-ns#">
   <cc:Work>
    <dc:type rdf:resource="http://purl.org/dc/dcmitype/StillImage"/>
    <dc:date>2026-03-01T17:50:14.584258</dc:date>
    <dc:format>image/svg+xml</dc:format>
    <dc:creator>
     <cc:Agent>
      <dc:title>Matplotlib v3.10.8, https://matplotlib.org/</dc:title>
     </cc:Agent>
    </dc:creator>
   </cc:Work>
  </rdf:RDF>
 </metadata>
 <defs>
  <style type="text/css">*{stroke-linejoin: round; stroke-linecap: butt}</style>
 </defs>
 <g id="figure_1">
  <g id="patch_1">
   <path d="M 0 278.759187 
L 782.645625 278.759187 
L 782.645625 0 
L 0 0 
z
" style="fill: #ffffff"/>
  </g>
  <g id="axes_1">
   <g id="patch_2">
    <path d="M 36.465625 240.235125 
L 384.342918 240.235125 
L 384.342918 37.635125 
L 36.465625 37.635125 
z
" style="fill: #ffffff"/>
   </g>
   <g id="FillBetweenPolyCollection_1">
    <defs>
     <path id="mccb35f6fa7" d="M 52.278229 -47.733153 
L 52.278229 -54.525243 
L 53.335929 -54.669267 
L 54.393628 -54.801783 
L 55.451327 -54.922583 
L 56.509026 -55.03178 
L 57.566726 -55.129824 
L 58.624425 -55.217521 
L 59.682124 -55.296033 
L 60.739823 -55.366874 
L 61.797523 -55.431892 
L 62.855222 -55.493246 
L 63.912921 -55.553377 
L 64.970621 -55.61497 
L 66.02832 -55.680911 
L 67.086019 -55.754244 
L 68.143718 -55.838125 
L 69.201418 -55.935769 
L 70.259117 -56.050406 
L 71.316816 -56.18523 
L 72.374516 -56.343356 
L 73.432215 -56.52777 
L 74.489914 -56.741287 
L 75.547613 -56.986512 
L 76.605313 -57.265793 
L 77.663012 -57.581185 
L 78.720711 -57.934416 
L 79.77841 -58.326841 
L 80.83611 -58.759421 
L 81.893809 -59.232685 
L 82.951508 -59.746707 
L 84.009208 -60.301092 
L 85.066907 -60.894965 
L 86.124606 -61.526974 
L 87.182305 -62.195303 
L 88.240005 -62.897707 
L 89.297704 -63.631549 
L 90.355403 -64.393866 
L 91.413103 -65.181436 
L 92.470802 -65.990871 
L 93.528501 -66.818702 
L 94.5862 -67.661484 
L 95.6439 -68.51589 
L 96.701599 -69.378809 
L 97.759298 -70.247425 
L 98.816998 -71.119292 
L 99.874697 -71.992387 
L 100.932396 -72.865148 
L 101.990095 -73.736494 
L 103.047795 -74.605826 
L 104.105494 -75.47302 
L 105.163193 -76.338407 
L 106.220892 -77.202751 
L 107.278592 -78.06723 
L 108.336291 -78.933411 
L 109.39399 -79.803252 
L 110.45169 -80.67909 
L 111.509389 -81.563659 
L 112.567088 -82.460096 
L 113.624787 -83.371963 
L 114.682487 -84.303254 
L 115.740186 -85.258398 
L 116.797885 -86.242237 
L 117.855585 -87.259986 
L 118.913284 -88.317165 
L 119.970983 -89.419487 
L 121.028682 -90.572734 
L 122.086382 -91.782584 
L 123.144081 -93.054434 
L 124.20178 -94.393192 
L 125.259479 -95.803077 
L 126.317179 -97.287417 
L 127.374878 -98.848474 
L 128.432577 -100.487294 
L 129.490277 -102.203596 
L 130.547976 -103.995714 
L 131.605675 -105.860589 
L 132.663374 -107.793813 
L 133.721074 -109.789736 
L 134.778773 -111.841608 
L 135.836472 -113.941781 
L 136.894172 -116.081935 
L 137.951871 -118.253329 
L 139.00957 -120.447075 
L 140.067269 -122.654401 
L 141.124969 -124.866915 
L 142.182668 -127.076845 
L 143.240367 -129.277252 
L 144.298066 -131.462204 
L 145.355766 -133.626911 
L 146.413465 -135.767805 
L 147.471164 -137.882575 
L 148.528864 -139.970145 
L 149.586563 -142.030608 
L 150.644262 -144.065106 
L 151.701961 -146.075667 
L 152.759661 -148.065017 
L 153.81736 -150.03635 
L 154.875059 -151.993101 
L 155.932759 -153.938699 
L 156.990458 -155.876335 
L 158.048157 -157.808756 
L 159.105856 -159.738078 
L 160.163556 -161.66565 
L 161.221255 -163.591966 
L 162.278954 -165.516633 
L 163.336654 -167.438386 
L 164.394353 -169.355179 
L 165.452052 -171.264305 
L 166.509751 -173.16258 
L 167.567451 -175.046546 
L 168.62515 -176.912702 
L 169.682849 -178.75774 
L 170.740548 -180.578772 
L 171.798248 -182.373534 
L 172.855947 -184.14055 
L 173.913646 -185.879251 
L 174.971346 -187.590036 
L 176.029045 -189.274263 
L 177.086744 -190.934187 
L 178.144443 -192.57282 
L 179.202143 -194.193749 
L 180.259842 -195.8009 
L 181.317541 -197.398262 
L 182.375241 -198.989603 
L 183.43294 -200.578177 
L 184.490639 -202.166444 
L 185.548338 -203.755825 
L 186.606038 -205.346495 
L 187.663737 -206.937243 
L 188.721436 -208.525393 
L 189.779135 -210.106796 
L 190.836835 -211.675899 
L 191.894534 -213.225884 
L 192.952233 -214.748873 
L 194.009933 -216.236184 
L 195.067632 -217.678635 
L 196.125331 -219.066876 
L 197.18303 -220.391732 
L 198.24073 -221.64455 
L 199.298429 -222.817527 
L 200.356128 -223.904009 
L 201.413828 -224.898756 
L 202.471527 -225.798151 
L 203.529226 -226.600357 
L 204.586925 -227.305409 
L 205.644625 -227.915248 
L 206.702324 -228.433681 
L 207.760023 -228.866279 
L 208.817723 -229.220216 
L 209.875422 -229.504041 
L 210.933121 -229.7274 
L 211.99082 -229.900711 
L 213.04852 -230.0348 
L 214.106219 -230.140509 
L 215.163918 -230.228296 
L 216.221617 -230.30783 
L 217.279317 -230.387607 
L 218.337016 -230.474606 
L 219.394715 -230.573985 
L 220.452415 -230.688862 
L 221.510114 -230.820169 
L 222.567813 -230.966602 
L 223.625512 -231.124669 
L 224.683212 -231.288848 
L 225.740911 -231.451827 
L 226.79861 -231.604846 
L 227.85631 -231.738091 
L 228.914009 -231.841156 
L 229.971708 -231.903509 
L 231.029407 -231.914972 
L 232.087107 -231.86616 
L 233.144806 -231.748875 
L 234.202505 -231.556411 
L 235.260204 -231.283778 
L 236.317904 -230.92782 
L 237.375603 -230.487215 
L 238.433302 -229.96239 
L 239.491002 -229.355322 
L 240.548701 -228.669283 
L 241.6064 -227.908511 
L 242.664099 -227.077857 
L 243.721799 -226.182427 
L 244.779498 -225.22723 
L 245.837197 -224.216877 
L 246.894897 -223.155321 
L 247.952596 -222.045681 
L 249.010295 -220.890126 
L 250.067994 -219.689852 
L 251.125694 -218.44512 
L 252.183393 -217.155368 
L 253.241092 -215.819372 
L 254.298792 -214.435455 
L 255.356491 -213.00171 
L 256.41419 -211.516241 
L 257.471889 -209.977391 
L 258.529589 -208.38396 
L 259.587288 -206.735385 
L 260.644987 -205.031889 
L 261.702686 -203.274584 
L 262.760386 -201.465532 
L 263.818085 -199.607756 
L 264.875784 -197.70521 
L 265.933484 -195.762704 
L 266.991183 -193.785796 
L 268.048882 -191.78065 
L 269.106581 -189.753863 
L 270.164281 -187.71228 
L 271.22198 -185.662788 
L 272.279679 -183.612108 
L 273.337379 -181.566588 
L 274.395078 -179.532002 
L 275.452777 -177.513371 
L 276.510476 -175.514799 
L 277.568176 -173.539353 
L 278.625875 -171.588968 
L 279.683574 -169.664406 
L 280.741273 -167.765251 
L 281.798973 -165.889961 
L 282.856672 -164.035964 
L 283.914371 -162.199792 
L 284.972071 -160.377271 
L 286.02977 -158.56372 
L 287.087469 -156.754194 
L 288.145168 -154.943722 
L 289.202868 -153.127551 
L 290.260567 -151.301381 
L 291.318266 -149.461567 
L 292.375966 -147.605297 
L 293.433665 -145.730718 
L 294.491364 -143.837021 
L 295.549063 -141.924472 
L 296.606763 -139.994384 
L 297.664462 -138.049053 
L 298.722161 -136.091633 
L 299.779861 -134.125987 
L 300.83756 -132.156497 
L 301.895259 -130.187866 
L 302.952958 -128.224909 
L 304.010658 -126.272344 
L 305.068357 -124.334601 
L 306.126056 -122.41566 
L 307.183755 -120.518908 
L 308.241455 -118.647046 
L 309.299154 -116.802029 
L 310.356853 -114.985051 
L 311.414553 -113.196571 
L 312.472252 -111.43638 
L 313.529951 -109.703692 
L 314.58765 -107.99727 
L 315.64535 -106.315567 
L 316.703049 -104.656873 
L 317.760748 -103.019461 
L 318.818448 -101.401734 
L 319.876147 -99.802341 
L 320.933846 -98.220281 
L 321.991545 -96.654971 
L 323.049245 -95.106291 
L 324.106944 -93.574591 
L 325.164643 -92.060666 
L 326.222342 -90.56571 
L 327.280042 -89.091242 
L 328.337741 -87.639015 
L 329.39544 -86.210916 
L 330.45314 -84.808868 
L 331.510839 -83.434722 
L 332.568538 -82.090173 
L 333.626237 -80.776687 
L 334.683937 -79.495437 
L 335.741636 -78.247276 
L 336.799335 -77.032718 
L 337.857035 -75.851943 
L 338.914734 -74.704828 
L 339.972433 -73.590978 
L 341.030132 -72.509784 
L 342.087832 -71.460478 
L 343.145531 -70.442192 
L 344.20323 -69.454023 
L 345.26093 -68.49508 
L 346.318629 -67.564542 
L 347.376328 -66.661688 
L 348.434027 -65.78593 
L 349.491727 -64.936833 
L 350.549426 -64.114117 
L 351.607125 -63.317661 
L 352.664824 -62.547488 
L 353.722524 -61.803753 
L 354.780223 -61.086714 
L 355.837922 -60.39671 
L 356.895622 -59.734129 
L 357.953321 -59.099378 
L 359.01102 -58.49285 
L 360.068719 -57.914893 
L 361.126419 -57.365781 
L 362.184118 -56.845687 
L 363.241817 -56.354654 
L 364.299517 -55.892575 
L 365.357216 -55.459173 
L 366.414915 -55.053988 
L 367.472614 -54.676366 
L 368.530314 -54.325451 
L 368.530314 -47.733153 
L 368.530314 -47.733153 
L 367.472614 -47.733153 
L 366.414915 -47.733153 
L 365.357216 -47.733153 
L 364.299517 -47.733153 
L 363.241817 -47.733153 
L 362.184118 -47.733153 
L 361.126419 -47.733153 
L 360.068719 -47.733153 
L 359.01102 -47.733153 
L 357.953321 -47.733153 
L 356.895622 -47.733153 
L 355.837922 -47.733153 
L 354.780223 -47.733153 
L 353.722524 -47.733153 
L 352.664824 -47.733153 
L 351.607125 -47.733153 
L 350.549426 -47.733153 
L 349.491727 -47.733153 
L 348.434027 -47.733153 
L 347.376328 -47.733153 
L 346.318629 -47.733153 
L 345.26093 -47.733153 
L 344.20323 -47.733153 
L 343.145531 -47.733153 
L 342.087832 -47.733153 
L 341.030132 -47.733153 
L 339.972433 -47.733153 
L 338.914734 -47.733153 
L 337.857035 -47.733153 
L 336.799335 -47.733153 
L 335.741636 -47.733153 
L 334.683937 -47.733153 
L 333.626237 -47.733153 
L 332.568538 -47.733153 
L 331.510839 -47.733153 
L 330.45314 -47.733153 
L 329.39544 -47.733153 
L 328.337741 -47.733153 
L 327.280042 -47.733153 
L 326.222342 -47.733153 
L 325.164643 -47.733153 
L 324.106944 -47.733153 
L 323.049245 -47.733153 
L 321.991545 -47.733153 
L 320.933846 -47.733153 
L 319.876147 -47.733153 
L 318.818448 -47.733153 
L 317.760748 -47.733153 
L 316.703049 -47.733153 
L 315.64535 -47.733153 
L 314.58765 -47.733153 
L 313.529951 -47.733153 
L 312.472252 -47.733153 
L 311.414553 -47.733153 
L 310.356853 -47.733153 
L 309.299154 -47.733153 
L 308.241455 -47.733153 
L 307.183755 -47.733153 
L 306.126056 -47.733153 
L 305.068357 -47.733153 
L 304.010658 -47.733153 
L 302.952958 -47.733153 
L 301.895259 -47.733153 
L 300.83756 -47.733153 
L 299.779861 -47.733153 
L 298.722161 -47.733153 
L 297.664462 -47.733153 
L 296.606763 -47.733153 
L 295.549063 -47.733153 
L 294.491364 -47.733153 
L 293.433665 -47.733153 
L 292.375966 -47.733153 
L 291.318266 -47.733153 
L 290.260567 -47.733153 
L 289.202868 -47.733153 
L 288.145168 -47.733153 
L 287.087469 -47.733153 
L 286.02977 -47.733153 
L 284.972071 -47.733153 
L 283.914371 -47.733153 
L 282.856672 -47.733153 
L 281.798973 -47.733153 
L 280.741273 -47.733153 
L 279.683574 -47.733153 
L 278.625875 -47.733153 
L 277.568176 -47.733153 
L 276.510476 -47.733153 
L 275.452777 -47.733153 
L 274.395078 -47.733153 
L 273.337379 -47.733153 
L 272.279679 -47.733153 
L 271.22198 -47.733153 
L 270.164281 -47.733153 
L 269.106581 -47.733153 
L 268.048882 -47.733153 
L 266.991183 -47.733153 
L 265.933484 -47.733153 
L 264.875784 -47.733153 
L 263.818085 -47.733153 
L 262.760386 -47.733153 
L 261.702686 -47.733153 
L 260.644987 -47.733153 
L 259.587288 -47.733153 
L 258.529589 -47.733153 
L 257.471889 -47.733153 
L 256.41419 -47.733153 
L 255.356491 -47.733153 
L 254.298792 -47.733153 
L 253.241092 -47.733153 
L 252.183393 -47.733153 
L 251.125694 -47.733153 
L 250.067994 -47.733153 
L 249.010295 -47.733153 
L 247.952596 -47.733153 
L 246.894897 -47.733153 
L 245.837197 -47.733153 
L 244.779498 -47.733153 
L 243.721799 -47.733153 
L 242.664099 -47.733153 
L 241.6064 -47.733153 
L 240.548701 -47.733153 
L 239.491002 -47.733153 
L 238.433302 -47.733153 
L 237.375603 -47.733153 
L 236.317904 -47.733153 
L 235.260204 -47.733153 
L 234.202505 -47.733153 
L 233.144806 -47.733153 
L 232.087107 -47.733153 
L 231.029407 -47.733153 
L 229.971708 -47.733153 
L 228.914009 -47.733153 
L 227.85631 -47.733153 
L 226.79861 -47.733153 
L 225.740911 -47.733153 
L 224.683212 -47.733153 
L 223.625512 -47.733153 
L 222.567813 -47.733153 
L 221.510114 -47.733153 
L 220.452415 -47.733153 
L 219.394715 -47.733153 
L 218.337016 -47.733153 
L 217.279317 -47.733153 
L 216.221617 -47.733153 
L 215.163918 -47.733153 
L 214.106219 -47.733153 
L 213.04852 -47.733153 
L 211.99082 -47.733153 
L 210.933121 -47.733153 
L 209.875422 -47.733153 
L 208.817723 -47.733153 
L 207.760023 -47.733153 
L 206.702324 -47.733153 
L 205.644625 -47.733153 
L 204.586925 -47.733153 
L 203.529226 -47.733153 
L 202.471527 -47.733153 
L 201.413828 -47.733153 
L 200.356128 -47.733153 
L 199.298429 -47.733153 
L 198.24073 -47.733153 
L 197.18303 -47.733153 
L 196.125331 -47.733153 
L 195.067632 -47.733153 
L 194.009933 -47.733153 
L 192.952233 -47.733153 
L 191.894534 -47.733153 
L 190.836835 -47.733153 
L 189.779135 -47.733153 
L 188.721436 -47.733153 
L 187.663737 -47.733153 
L 186.606038 -47.733153 
L 185.548338 -47.733153 
L 184.490639 -47.733153 
L 183.43294 -47.733153 
L 182.375241 -47.733153 
L 181.317541 -47.733153 
L 180.259842 -47.733153 
L 179.202143 -47.733153 
L 178.144443 -47.733153 
L 177.086744 -47.733153 
L 176.029045 -47.733153 
L 174.971346 -47.733153 
L 173.913646 -47.733153 
L 172.855947 -47.733153 
L 171.798248 -47.733153 
L 170.740548 -47.733153 
L 169.682849 -47.733153 
L 168.62515 -47.733153 
L 167.567451 -47.733153 
L 166.509751 -47.733153 
L 165.452052 -47.733153 
L 164.394353 -47.733153 
L 163.336654 -47.733153 
L 162.278954 -47.733153 
L 161.221255 -47.733153 
L 160.163556 -47.733153 
L 159.105856 -47.733153 
L 158.048157 -47.733153 
L 156.990458 -47.733153 
L 155.932759 -47.733153 
L 154.875059 -47.733153 
L 153.81736 -47.733153 
L 152.759661 -47.733153 
L 151.701961 -47.733153 
L 150.644262 -47.733153 
L 149.586563 -47.733153 
L 148.528864 -47.733153 
L 147.471164 -47.733153 
L 146.413465 -47.733153 
L 145.355766 -47.733153 
L 144.298066 -47.733153 
L 143.240367 -47.733153 
L 142.182668 -47.733153 
L 141.124969 -47.733153 
L 140.067269 -47.733153 
L 139.00957 -47.733153 
L 137.951871 -47.733153 
L 136.894172 -47.733153 
L 135.836472 -47.733153 
L 134.778773 -47.733153 
L 133.721074 -47.733153 
L 132.663374 -47.733153 
L 131.605675 -47.733153 
L 130.547976 -47.733153 
L 129.490277 -47.733153 
L 128.432577 -47.733153 
L 127.374878 -47.733153 
L 126.317179 -47.733153 
L 125.259479 -47.733153 
L 124.20178 -47.733153 
L 123.144081 -47.733153 
L 122.086382 -47.733153 
L 121.028682 -47.733153 
L 119.970983 -47.733153 
L 118.913284 -47.733153 
L 117.855585 -47.733153 
L 116.797885 -47.733153 
L 115.740186 -47.733153 
L 114.682487 -47.733153 
L 113.624787 -47.733153 
L 112.567088 -47.733153 
L 111.509389 -47.733153 
L 110.45169 -47.733153 
L 109.39399 -47.733153 
L 108.336291 -47.733153 
L 107.278592 -47.733153 
L 106.220892 -47.733153 
L 105.163193 -47.733153 
L 104.105494 -47.733153 
L 103.047795 -47.733153 
L 101.990095 -47.733153 
L 100.932396 -47.733153 
L 99.874697 -47.733153 
L 98.816998 -47.733153 
L 97.759298 -47.733153 
L 96.701599 -47.733153 
L 95.6439 -47.733153 
L 94.5862 -47.733153 
L 93.528501 -47.733153 
L 92.470802 -47.733153 
L 91.413103 -47.733153 
L 90.355403 -47.733153 
L 89.297704 -47.733153 
L 88.240005 -47.733153 
L 87.182305 -47.733153 
L 86.124606 -47.733153 
L 85.066907 -47.733153 
L 84.009208 -47.733153 
L 82.951508 -47.733153 
L 81.893809 -47.733153 
L 80.83611 -47.733153 
L 79.77841 -47.733153 
L 78.720711 -47.733153 
L 77.663012 -47.733153 
L 76.605313 -47.733153 
L 75.547613 -47.733153 
L 74.489914 -47.733153 
L 73.432215 -47.733153 
L 72.374516 -47.733153 
L 71.316816 -47.733153 
L 70.259117 -47.733153 
L 69.201418 -47.733153 
L 68.143718 -47.733153 
L 67.086019 -47.733153 
L 66.02832 -47.733153 
L 64.970621 -47.733153 
L 63.912921 -47.733153 
L 62.855222 -47.733153 
L 61.797523 -47.733153 
L 60.739823 -47.733153 
L 59.682124 -47.733153 
L 58.624425 -47.733153 
L 57.566726 -47.733153 
L 56.509026 -47.733153 
L 55.451327 -47.733153 
L 54.393628 -47.733153 
L 53.335929 -47.733153 
L 52.278229 -47.733153 
z
" style="stroke: #ed8936; stroke-opacity: 0.3"/>
    </defs>
    <g clip-path="url(#p477b10ea99)">
     <use xlink:href="#mccb35f6fa7" x="0" y="278.759187" style="fill: #ed8936; fill-opacity: 0.3; stroke: #ed8936; stroke-opacity: 0.3"/>
    </g>
   </g>
   <g id="matplotlib.axis_1">
    <g id="xtick_1">
     <g id="line2d_1">
      <path d="M 71.941834 240.235125 
L 71.941834 37.635125 
" clip-path="url(#p477b10ea99)" style="fill: none; stroke: #e2e8f0; stroke-opacity: 0.2; stroke-width: 0.5; stroke-linecap: square"/>
     </g>
     <g id="line2d_2">
      <defs>
       <path id="m6e07fd84cf" d="M 0 0 
L 0 3.5 
" style="stroke: #2d3748; stroke-width: 0.8"/>
      </defs>
      <g>
       <use xlink:href="#m6e07fd84cf" x="71.941834" y="240.235125" style="fill: #2d3748; stroke: #2d3748; stroke-width: 0.8"/>
      </g>
     </g>
     <g id="text_1">
      <!-- −20 -->
      <g style="fill: #2d3748" transform="translate(61.38949 254.833562) scale(0.1 -0.1)">
       <defs>
        <path id="DejaVuSans-2212" d="M 678 2272 
L 4684 2272 
L 4684 1741 
L 678 1741 
L 678 2272 
z
" transform="scale(0.015625)"/>
        <path id="DejaVuSans-32" d="M 1228 531 
L 3431 531 
L 3431 0 
L 469 0 
L 469 531 
Q 828 903 1448 1529 
Q 2069 2156 2228 2338 
Q 2531 2678 2651 2914 
Q 2772 3150 2772 3378 
Q 2772 3750 2511 3984 
Q 2250 4219 1831 4219 
Q 1534 4219 1204 4116 
Q 875 4013 500 3803 
L 500 4441 
Q 881 4594 1212 4672 
Q 1544 4750 1819 4750 
Q 2544 4750 2975 4387 
Q 3406 4025 3406 3419 
Q 3406 3131 3298 2873 
Q 3191 2616 2906 2266 
Q 2828 2175 2409 1742 
Q 1991 1309 1228 531 
z
" transform="scale(0.015625)"/>
        <path id="DejaVuSans-30" d="M 2034 4250 
Q 1547 4250 1301 3770 
Q 1056 3291 1056 2328 
Q 1056 1369 1301 889 
Q 1547 409 2034 409 
Q 2525 409 2770 889 
Q 3016 1369 3016 2328 
Q 3016 3291 2770 3770 
Q 2525 4250 2034 4250 
z
M 2034 4750 
Q 2819 4750 3233 4129 
Q 3647 3509 3647 2328 
Q 3647 1150 3233 529 
Q 2819 -91 2034 -91 
Q 1250 -91 836 529 
Q 422 1150 422 2328 
Q 422 3509 836 4129 
Q 1250 4750 2034 4750 
z
" transform="scale(0.015625)"/>
       </defs>
       <use xlink:href="#DejaVuSans-2212"/>
       <use xlink:href="#DejaVuSans-32" transform="translate(83.789062 0)"/>
       <use xlink:href="#DejaVuSans-30" transform="translate(147.412109 0)"/>
      </g>
     </g>
    </g>
    <g id="xtick_2">
     <g id="line2d_3">
      <path d="M 134.149089 240.235125 
L 134.149089 37.635125 
" clip-path="url(#p477b10ea99)" style="fill: none; stroke: #e2e8f0; stroke-opacity: 0.2; stroke-width: 0.5; stroke-linecap: square"/>
     </g>
     <g id="line2d_4">
      <g>
       <use xlink:href="#m6e07fd84cf" x="134.149089" y="240.235125" style="fill: #2d3748; stroke: #2d3748; stroke-width: 0.8"/>
      </g>
     </g>
     <g id="text_2">
      <!-- −15 -->
      <g style="fill: #2d3748" transform="translate(123.596745 254.833562) scale(0.1 -0.1)">
       <defs>
        <path id="DejaVuSans-31" d="M 794 531 
L 1825 531 
L 1825 4091 
L 703 3866 
L 703 4441 
L 1819 4666 
L 2450 4666 
L 2450 531 
L 3481 531 
L 3481 0 
L 794 0 
L 794 531 
z
" transform="scale(0.015625)"/>
        <path id="DejaVuSans-35" d="M 691 4666 
L 3169 4666 
L 3169 4134 
L 1269 4134 
L 1269 2991 
Q 1406 3038 1543 3061 
Q 1681 3084 1819 3084 
Q 2600 3084 3056 2656 
Q 3513 2228 3513 1497 
Q 3513 744 3044 326 
Q 2575 -91 1722 -91 
Q 1428 -91 1123 -41 
Q 819 9 494 109 
L 494 744 
Q 775 591 1075 516 
Q 1375 441 1709 441 
Q 2250 441 2565 725 
Q 2881 1009 2881 1497 
Q 2881 1984 2565 2268 
Q 2250 2553 1709 2553 
Q 1456 2553 1204 2497 
Q 953 2441 691 2322 
L 691 4666 
z
" transform="scale(0.015625)"/>
       </defs>
       <use xlink:href="#DejaVuSans-2212"/>
       <use xlink:href="#DejaVuSans-31" transform="translate(83.789062 0)"/>
       <use xlink:href="#DejaVuSans-35" transform="translate(147.412109 0)"/>
      </g>
     </g>
    </g>
    <g id="xtick_3">
     <g id="line2d_5">
      <path d="M 196.356344 240.235125 
L 196.356344 37.635125 
" clip-path="url(#p477b10ea99)" style="fill: none; stroke: #e2e8f0; stroke-opacity: 0.2; stroke-width: 0.5; stroke-linecap: square"/>
     </g>
     <g id="line2d_6">
      <g>
       <use xlink:href="#m6e07fd84cf" x="196.356344" y="240.235125" style="fill: #2d3748; stroke: #2d3748; stroke-width: 0.8"/>
      </g>
     </g>
     <g id="text_3">
      <!-- −10 -->
      <g style="fill: #2d3748" transform="translate(185.804 254.833562) scale(0.1 -0.1)">
       <use xlink:href="#DejaVuSans-2212"/>
       <use xlink:href="#DejaVuSans-31" transform="translate(83.789062 0)"/>
       <use xlink:href="#DejaVuSans-30" transform="translate(147.412109 0)"/>
      </g>
     </g>
    </g>
    <g id="xtick_4">
     <g id="line2d_7">
      <path d="M 258.563599 240.235125 
L 258.563599 37.635125 
" clip-path="url(#p477b10ea99)" style="fill: none; stroke: #e2e8f0; stroke-opacity: 0.2; stroke-width: 0.5; stroke-linecap: square"/>
     </g>
     <g id="line2d_8">
      <g>
       <use xlink:href="#m6e07fd84cf" x="258.563599" y="240.235125" style="fill: #2d3748; stroke: #2d3748; stroke-width: 0.8"/>
      </g>
     </g>
     <g id="text_4">
      <!-- −5 -->
      <g style="fill: #2d3748" transform="translate(251.192505 254.833562) scale(0.1 -0.1)">
       <use xlink:href="#DejaVuSans-2212"/>
       <use xlink:href="#DejaVuSans-35" transform="translate(83.789062 0)"/>
      </g>
     </g>
    </g>
    <g id="xtick_5">
     <g id="line2d_9">
      <path d="M 320.770854 240.235125 
L 320.770854 37.635125 
" clip-path="url(#p477b10ea99)" style="fill: none; stroke: #e2e8f0; stroke-opacity: 0.2; stroke-width: 0.5; stroke-linecap: square"/>
     </g>
     <g id="line2d_10">
      <g>
       <use xlink:href="#m6e07fd84cf" x="320.770854" y="240.235125" style="fill: #2d3748; stroke: #2d3748; stroke-width: 0.8"/>
      </g>
     </g>
     <g id="text_5">
      <!-- 0 -->
      <g style="fill: #2d3748" transform="translate(317.589604 254.833562) scale(0.1 -0.1)">
       <use xlink:href="#DejaVuSans-30"/>
      </g>
     </g>
    </g>
    <g id="xtick_6">
     <g id="line2d_11">
      <path d="M 382.97811 240.235125 
L 382.97811 37.635125 
" clip-path="url(#p477b10ea99)" style="fill: none; stroke: #e2e8f0; stroke-opacity: 0.2; stroke-width: 0.5; stroke-linecap: square"/>
     </g>
     <g id="line2d_12">
      <g>
       <use xlink:href="#m6e07fd84cf" x="382.97811" y="240.235125" style="fill: #2d3748; stroke: #2d3748; stroke-width: 0.8"/>
      </g>
     </g>
     <g id="text_6">
      <!-- 5 -->
      <g style="fill: #2d3748" transform="translate(379.79686 254.833562) scale(0.1 -0.1)">
       <use xlink:href="#DejaVuSans-35"/>
      </g>
     </g>
    </g>
    <g id="text_7">
     <!-- Slope (Δω / ΔT) -->
     <g style="fill: #2d3748" transform="translate(168.265678 269.271531) scale(0.11 -0.11)">
      <defs>
       <path id="DejaVuSans-53" d="M 3425 4513 
L 3425 3897 
Q 3066 4069 2747 4153 
Q 2428 4238 2131 4238 
Q 1616 4238 1336 4038 
Q 1056 3838 1056 3469 
Q 1056 3159 1242 3001 
Q 1428 2844 1947 2747 
L 2328 2669 
Q 3034 2534 3370 2195 
Q 3706 1856 3706 1288 
Q 3706 609 3251 259 
Q 2797 -91 1919 -91 
Q 1588 -91 1214 -16 
Q 841 59 441 206 
L 441 856 
Q 825 641 1194 531 
Q 1563 422 1919 422 
Q 2459 422 2753 634 
Q 3047 847 3047 1241 
Q 3047 1584 2836 1778 
Q 2625 1972 2144 2069 
L 1759 2144 
Q 1053 2284 737 2584 
Q 422 2884 422 3419 
Q 422 4038 858 4394 
Q 1294 4750 2059 4750 
Q 2388 4750 2728 4690 
Q 3069 4631 3425 4513 
z
" transform="scale(0.015625)"/>
       <path id="DejaVuSans-6c" d="M 603 4863 
L 1178 4863 
L 1178 0 
L 603 0 
L 603 4863 
z
" transform="scale(0.015625)"/>
       <path id="DejaVuSans-6f" d="M 1959 3097 
Q 1497 3097 1228 2736 
Q 959 2375 959 1747 
Q 959 1119 1226 758 
Q 1494 397 1959 397 
Q 2419 397 2687 759 
Q 2956 1122 2956 1747 
Q 2956 2369 2687 2733 
Q 2419 3097 1959 3097 
z
M 1959 3584 
Q 2709 3584 3137 3096 
Q 3566 2609 3566 1747 
Q 3566 888 3137 398 
Q 2709 -91 1959 -91 
Q 1206 -91 779 398 
Q 353 888 353 1747 
Q 353 2609 779 3096 
Q 1206 3584 1959 3584 
z
" transform="scale(0.015625)"/>
       <path id="DejaVuSans-70" d="M 1159 525 
L 1159 -1331 
L 581 -1331 
L 581 3500 
L 1159 3500 
L 1159 2969 
Q 1341 3281 1617 3432 
Q 1894 3584 2278 3584 
Q 2916 3584 3314 3078 
Q 3713 2572 3713 1747 
Q 3713 922 3314 415 
Q 2916 -91 2278 -91 
Q 1894 -91 1617 61 
Q 1341 213 1159 525 
z
M 3116 1747 
Q 3116 2381 2855 2742 
Q 2594 3103 2138 3103 
Q 1681 3103 1420 2742 
Q 1159 2381 1159 1747 
Q 1159 1113 1420 752 
Q 1681 391 2138 391 
Q 2594 391 2855 752 
Q 3116 1113 3116 1747 
z
" transform="scale(0.015625)"/>
       <path id="DejaVuSans-65" d="M 3597 1894 
L 3597 1613 
L 953 1613 
Q 991 1019 1311 708 
Q 1631 397 2203 397 
Q 2534 397 2845 478 
Q 3156 559 3463 722 
L 3463 178 
Q 3153 47 2828 -22 
Q 2503 -91 2169 -91 
Q 1331 -91 842 396 
Q 353 884 353 1716 
Q 353 2575 817 3079 
Q 1281 3584 2069 3584 
Q 2775 3584 3186 3129 
Q 3597 2675 3597 1894 
z
M 3022 2063 
Q 3016 2534 2758 2815 
Q 2500 3097 2075 3097 
Q 1594 3097 1305 2825 
Q 1016 2553 972 2059 
L 3022 2063 
z
" transform="scale(0.015625)"/>
       <path id="DejaVuSans-20" transform="scale(0.015625)"/>
       <path id="DejaVuSans-28" d="M 1984 4856 
Q 1566 4138 1362 3434 
Q 1159 2731 1159 2009 
Q 1159 1288 1364 580 
Q 1569 -128 1984 -844 
L 1484 -844 
Q 1016 -109 783 600 
Q 550 1309 550 2009 
Q 550 2706 781 3412 
Q 1013 4119 1484 4856 
L 1984 4856 
z
" transform="scale(0.015625)"/>
       <path id="DejaVuSans-394" d="M 2188 4044 
L 906 525 
L 3472 525 
L 2188 4044 
z
M 50 0 
L 1831 4666 
L 2547 4666 
L 4325 0 
L 50 0 
z
" transform="scale(0.015625)"/>
       <path id="DejaVuSans-3c9" d="M 1719 -91 
Q 422 -91 422 1766 
Q 422 2500 906 3500 
L 1525 3500 
Q 1078 2500 1078 1750 
Q 1078 397 1772 397 
Q 2406 397 2406 2078 
L 2938 2078 
Q 2938 397 3572 397 
Q 4266 397 4266 1750 
Q 4266 2500 3819 3500 
L 4438 3500 
Q 4922 2500 4922 1766 
Q 4922 -91 3625 -91 
Q 2775 -91 2672 844 
Q 2544 -91 1719 -91 
z
" transform="scale(0.015625)"/>
       <path id="DejaVuSans-2f" d="M 1625 4666 
L 2156 4666 
L 531 -594 
L 0 -594 
L 1625 4666 
z
" transform="scale(0.015625)"/>
       <path id="DejaVuSans-54" d="M -19 4666 
L 3928 4666 
L 3928 4134 
L 2272 4134 
L 2272 0 
L 1638 0 
L 1638 4134 
L -19 4134 
L -19 4666 
z
" transform="scale(0.015625)"/>
       <path id="DejaVuSans-29" d="M 513 4856 
L 1013 4856 
Q 1481 4119 1714 3412 
Q 1947 2706 1947 2009 
Q 1947 1309 1714 600 
Q 1481 -109 1013 -844 
L 513 -844 
Q 928 -128 1133 580 
Q 1338 1288 1338 2009 
Q 1338 2731 1133 3434 
Q 928 4138 513 4856 
z
" transform="scale(0.015625)"/>
      </defs>
      <use xlink:href="#DejaVuSans-53"/>
      <use xlink:href="#DejaVuSans-6c" transform="translate(63.476562 0)"/>
      <use xlink:href="#DejaVuSans-6f" transform="translate(91.259766 0)"/>
      <use xlink:href="#DejaVuSans-70" transform="translate(152.441406 0)"/>
      <use xlink:href="#DejaVuSans-65" transform="translate(215.917969 0)"/>
      <use xlink:href="#DejaVuSans-20" transform="translate(277.441406 0)"/>
      <use xlink:href="#DejaVuSans-28" transform="translate(309.228516 0)"/>
      <use xlink:href="#DejaVuSans-394" transform="translate(348.242188 0)"/>
      <use xlink:href="#DejaVuSans-3c9" transform="translate(416.650391 0)"/>
      <use xlink:href="#DejaVuSans-20" transform="translate(500.390625 0)"/>
      <use xlink:href="#DejaVuSans-2f" transform="translate(532.177734 0)"/>
      <use xlink:href="#DejaVuSans-20" transform="translate(565.869141 0)"/>
      <use xlink:href="#DejaVuSans-394" transform="translate(597.65625 0)"/>
      <use xlink:href="#DejaVuSans-54" transform="translate(666.064453 0)"/>
      <use xlink:href="#DejaVuSans-29" transform="translate(727.148438 0)"/>
     </g>
    </g>
   </g>
   <g id="matplotlib.axis_2">
    <g id="ytick_1">
     <g id="line2d_13">
      <path d="M 36.465625 231.026034 
L 384.342918 231.026034 
" clip-path="url(#p477b10ea99)" style="fill: none; stroke: #e2e8f0; stroke-opacity: 0.2; stroke-width: 0.5; stroke-linecap: square"/>
     </g>
     <g id="line2d_14">
      <defs>
       <path id="mf9abadbd71" d="M 0 0 
L -3.5 0 
" style="stroke: #2d3748; stroke-width: 0.8"/>
      </defs>
      <g>
       <use xlink:href="#mf9abadbd71" x="36.465625" y="231.026034" style="fill: #2d3748; stroke: #2d3748; stroke-width: 0.8"/>
      </g>
     </g>
     <g id="text_8">
      <!-- 0.00 -->
      <g style="fill: #2d3748" transform="translate(7.2 234.825253) scale(0.1 -0.1)">
       <defs>
        <path id="DejaVuSans-2e" d="M 684 794 
L 1344 794 
L 1344 0 
L 684 0 
L 684 794 
z
" transform="scale(0.015625)"/>
       </defs>
       <use xlink:href="#DejaVuSans-30"/>
       <use xlink:href="#DejaVuSans-2e" transform="translate(63.623047 0)"/>
       <use xlink:href="#DejaVuSans-30" transform="translate(95.410156 0)"/>
       <use xlink:href="#DejaVuSans-30" transform="translate(159.033203 0)"/>
      </g>
     </g>
    </g>
    <g id="ytick_2">
     <g id="line2d_15">
      <path d="M 36.465625 208.060779 
L 384.342918 208.060779 
" clip-path="url(#p477b10ea99)" style="fill: none; stroke: #e2e8f0; stroke-opacity: 0.2; stroke-width: 0.5; stroke-linecap: square"/>
     </g>
     <g id="line2d_16">
      <g>
       <use xlink:href="#mf9abadbd71" x="36.465625" y="208.060779" style="fill: #2d3748; stroke: #2d3748; stroke-width: 0.8"/>
      </g>
     </g>
     <g id="text_9">
      <!-- 0.01 -->
      <g style="fill: #2d3748" transform="translate(7.2 211.859998) scale(0.1 -0.1)">
       <use xlink:href="#DejaVuSans-30"/>
       <use xlink:href="#DejaVuSans-2e" transform="translate(63.623047 0)"/>
       <use xlink:href="#DejaVuSans-30" transform="translate(95.410156 0)"/>
       <use xlink:href="#DejaVuSans-31" transform="translate(159.033203 0)"/>
      </g>
     </g>
    </g>
    <g id="ytick_3">
     <g id="line2d_17">
      <path d="M 36.465625 185.095525 
L 384.342918 185.095525 
" clip-path="url(#p477b10ea99)" style="fill: none; stroke: #e2e8f0; stroke-opacity: 0.2; stroke-width: 0.5; stroke-linecap: square"/>
     </g>
     <g id="line2d_18">
      <g>
       <use xlink:href="#mf9abadbd71" x="36.465625" y="185.095525" style="fill: #2d3748; stroke: #2d3748; stroke-width: 0.8"/>
      </g>
     </g>
     <g id="text_10">
      <!-- 0.02 -->
      <g style="fill: #2d3748" transform="translate(7.2 188.894743) scale(0.1 -0.1)">
       <use xlink:href="#DejaVuSans-30"/>
       <use xlink:href="#DejaVuSans-2e" transform="translate(63.623047 0)"/>
       <use xlink:href="#DejaVuSans-30" transform="translate(95.410156 0)"/>
       <use xlink:href="#DejaVuSans-32" transform="translate(159.033203 0)"/>
      </g>
     </g>
    </g>
    <g id="ytick_4">
     <g id="line2d_19">
      <path d="M 36.465625 162.13027 
L 384.342918 162.13027 
" clip-path="url(#p477b10ea99)" style="fill: none; stroke: #e2e8f0; stroke-opacity: 0.2; stroke-width: 0.5; stroke-linecap: square"/>
     </g>
     <g id="line2d_20">
      <g>
       <use xlink:href="#mf9abadbd71" x="36.465625" y="162.13027" style="fill: #2d3748; stroke: #2d3748; stroke-width: 0.8"/>
      </g>
     </g>
     <g id="text_11">
      <!-- 0.03 -->
      <g style="fill: #2d3748" transform="translate(7.2 165.929488) scale(0.1 -0.1)">
       <defs>
        <path id="DejaVuSans-33" d="M 2597 2516 
Q 3050 2419 3304 2112 
Q 3559 1806 3559 1356 
Q 3559 666 3084 287 
Q 2609 -91 1734 -91 
Q 1441 -91 1130 -33 
Q 819 25 488 141 
L 488 750 
Q 750 597 1062 519 
Q 1375 441 1716 441 
Q 2309 441 2620 675 
Q 2931 909 2931 1356 
Q 2931 1769 2642 2001 
Q 2353 2234 1838 2234 
L 1294 2234 
L 1294 2753 
L 1863 2753 
Q 2328 2753 2575 2939 
Q 2822 3125 2822 3475 
Q 2822 3834 2567 4026 
Q 2313 4219 1838 4219 
Q 1578 4219 1281 4162 
Q 984 4106 628 3988 
L 628 4550 
Q 988 4650 1302 4700 
Q 1616 4750 1894 4750 
Q 2613 4750 3031 4423 
Q 3450 4097 3450 3541 
Q 3450 3153 3228 2886 
Q 3006 2619 2597 2516 
z
" transform="scale(0.015625)"/>
       </defs>
       <use xlink:href="#DejaVuSans-30"/>
       <use xlink:href="#DejaVuSans-2e" transform="translate(63.623047 0)"/>
       <use xlink:href="#DejaVuSans-30" transform="translate(95.410156 0)"/>
       <use xlink:href="#DejaVuSans-33" transform="translate(159.033203 0)"/>
      </g>
     </g>
    </g>
    <g id="ytick_5">
     <g id="line2d_21">
      <path d="M 36.465625 139.165015 
L 384.342918 139.165015 
" clip-path="url(#p477b10ea99)" style="fill: none; stroke: #e2e8f0; stroke-opacity: 0.2; stroke-width: 0.5; stroke-linecap: square"/>
     </g>
     <g id="line2d_22">
      <g>
       <use xlink:href="#mf9abadbd71" x="36.465625" y="139.165015" style="fill: #2d3748; stroke: #2d3748; stroke-width: 0.8"/>
      </g>
     </g>
     <g id="text_12">
      <!-- 0.04 -->
      <g style="fill: #2d3748" transform="translate(7.2 142.964234) scale(0.1 -0.1)">
       <defs>
        <path id="DejaVuSans-34" d="M 2419 4116 
L 825 1625 
L 2419 1625 
L 2419 4116 
z
M 2253 4666 
L 3047 4666 
L 3047 1625 
L 3713 1625 
L 3713 1100 
L 3047 1100 
L 3047 0 
L 2419 0 
L 2419 1100 
L 313 1100 
L 313 1709 
L 2253 4666 
z
" transform="scale(0.015625)"/>
       </defs>
       <use xlink:href="#DejaVuSans-30"/>
       <use xlink:href="#DejaVuSans-2e" transform="translate(63.623047 0)"/>
       <use xlink:href="#DejaVuSans-30" transform="translate(95.410156 0)"/>
       <use xlink:href="#DejaVuSans-34" transform="translate(159.033203 0)"/>
      </g>
     </g>
    </g>
    <g id="ytick_6">
     <g id="line2d_23">
      <path d="M 36.465625 116.19976 
L 384.342918 116.19976 
" clip-path="url(#p477b10ea99)" style="fill: none; stroke: #e2e8f0; stroke-opacity: 0.2; stroke-width: 0.5; stroke-linecap: square"/>
     </g>
     <g id="line2d_24">
      <g>
       <use xlink:href="#mf9abadbd71" x="36.465625" y="116.19976" style="fill: #2d3748; stroke: #2d3748; stroke-width: 0.8"/>
      </g>
     </g>
     <g id="text_13">
      <!-- 0.05 -->
      <g style="fill: #2d3748" transform="translate(7.2 119.998979) scale(0.1 -0.1)">
       <use xlink:href="#DejaVuSans-30"/>
       <use xlink:href="#DejaVuSans-2e" transform="translate(63.623047 0)"/>
       <use xlink:href="#DejaVuSans-30" transform="translate(95.410156 0)"/>
       <use xlink:href="#DejaVuSans-35" transform="translate(159.033203 0)"/>
      </g>
     </g>
    </g>
    <g id="ytick_7">
     <g id="line2d_25">
      <path d="M 36.465625 93.234505 
L 384.342918 93.234505 
" clip-path="url(#p477b10ea99)" style="fill: none; stroke: #e2e8f0; stroke-opacity: 0.2; stroke-width: 0.5; stroke-linecap: square"/>
     </g>
     <g id="line2d_26">
      <g>
       <use xlink:href="#mf9abadbd71" x="36.465625" y="93.234505" style="fill: #2d3748; stroke: #2d3748; stroke-width: 0.8"/>
      </g>
     </g>
     <g id="text_14">
      <!-- 0.06 -->
      <g style="fill: #2d3748" transform="translate(7.2 97.033724) scale(0.1 -0.1)">
       <defs>
        <path id="DejaVuSans-36" d="M 2113 2584 
Q 1688 2584 1439 2293 
Q 1191 2003 1191 1497 
Q 1191 994 1439 701 
Q 1688 409 2113 409 
Q 2538 409 2786 701 
Q 3034 994 3034 1497 
Q 3034 2003 2786 2293 
Q 2538 2584 2113 2584 
z
M 3366 4563 
L 3366 3988 
Q 3128 4100 2886 4159 
Q 2644 4219 2406 4219 
Q 1781 4219 1451 3797 
Q 1122 3375 1075 2522 
Q 1259 2794 1537 2939 
Q 1816 3084 2150 3084 
Q 2853 3084 3261 2657 
Q 3669 2231 3669 1497 
Q 3669 778 3244 343 
Q 2819 -91 2113 -91 
Q 1303 -91 875 529 
Q 447 1150 447 2328 
Q 447 3434 972 4092 
Q 1497 4750 2381 4750 
Q 2619 4750 2861 4703 
Q 3103 4656 3366 4563 
z
" transform="scale(0.015625)"/>
       </defs>
       <use xlink:href="#DejaVuSans-30"/>
       <use xlink:href="#DejaVuSans-2e" transform="translate(63.623047 0)"/>
       <use xlink:href="#DejaVuSans-30" transform="translate(95.410156 0)"/>
       <use xlink:href="#DejaVuSans-36" transform="translate(159.033203 0)"/>
      </g>
     </g>
    </g>
    <g id="ytick_8">
     <g id="line2d_27">
      <path d="M 36.465625 70.269251 
L 384.342918 70.269251 
" clip-path="url(#p477b10ea99)" style="fill: none; stroke: #e2e8f0; stroke-opacity: 0.2; stroke-width: 0.5; stroke-linecap: square"/>
     </g>
     <g id="line2d_28">
      <g>
       <use xlink:href="#mf9abadbd71" x="36.465625" y="70.269251" style="fill: #2d3748; stroke: #2d3748; stroke-width: 0.8"/>
      </g>
     </g>
     <g id="text_15">
      <!-- 0.07 -->
      <g style="fill: #2d3748" transform="translate(7.2 74.068469) scale(0.1 -0.1)">
       <defs>
        <path id="DejaVuSans-37" d="M 525 4666 
L 3525 4666 
L 3525 4397 
L 1831 0 
L 1172 0 
L 2766 4134 
L 525 4134 
L 525 4666 
z
" transform="scale(0.015625)"/>
       </defs>
       <use xlink:href="#DejaVuSans-30"/>
       <use xlink:href="#DejaVuSans-2e" transform="translate(63.623047 0)"/>
       <use xlink:href="#DejaVuSans-30" transform="translate(95.410156 0)"/>
       <use xlink:href="#DejaVuSans-37" transform="translate(159.033203 0)"/>
      </g>
     </g>
    </g>
    <g id="ytick_9">
     <g id="line2d_29">
      <path d="M 36.465625 47.303996 
L 384.342918 47.303996 
" clip-path="url(#p477b10ea99)" style="fill: none; stroke: #e2e8f0; stroke-opacity: 0.2; stroke-width: 0.5; stroke-linecap: square"/>
     </g>
     <g id="line2d_30">
      <g>
       <use xlink:href="#mf9abadbd71" x="36.465625" y="47.303996" style="fill: #2d3748; stroke: #2d3748; stroke-width: 0.8"/>
      </g>
     </g>
     <g id="text_16">
      <!-- 0.08 -->
      <g style="fill: #2d3748" transform="translate(7.2 51.103215) scale(0.1 -0.1)">
       <defs>
        <path id="DejaVuSans-38" d="M 2034 2216 
Q 1584 2216 1326 1975 
Q 1069 1734 1069 1313 
Q 1069 891 1326 650 
Q 1584 409 2034 409 
Q 2484 409 2743 651 
Q 3003 894 3003 1313 
Q 3003 1734 2745 1975 
Q 2488 2216 2034 2216 
z
M 1403 2484 
Q 997 2584 770 2862 
Q 544 3141 544 3541 
Q 544 4100 942 4425 
Q 1341 4750 2034 4750 
Q 2731 4750 3128 4425 
Q 3525 4100 3525 3541 
Q 3525 3141 3298 2862 
Q 3072 2584 2669 2484 
Q 3125 2378 3379 2068 
Q 3634 1759 3634 1313 
Q 3634 634 3220 271 
Q 2806 -91 2034 -91 
Q 1263 -91 848 271 
Q 434 634 434 1313 
Q 434 1759 690 2068 
Q 947 2378 1403 2484 
z
M 1172 3481 
Q 1172 3119 1398 2916 
Q 1625 2713 2034 2713 
Q 2441 2713 2670 2916 
Q 2900 3119 2900 3481 
Q 2900 3844 2670 4047 
Q 2441 4250 2034 4250 
Q 1625 4250 1398 4047 
Q 1172 3844 1172 3481 
z
" transform="scale(0.015625)"/>
       </defs>
       <use xlink:href="#DejaVuSans-30"/>
       <use xlink:href="#DejaVuSans-2e" transform="translate(63.623047 0)"/>
       <use xlink:href="#DejaVuSans-30" transform="translate(95.410156 0)"/>
       <use xlink:href="#DejaVuSans-38" transform="translate(159.033203 0)"/>
      </g>
     </g>
    </g>
   </g>
   <g id="line2d_31">
    <path d="M 52.278229 224.233944 
L 56.509026 223.727408 
L 61.797523 223.327295 
L 69.201418 222.823418 
L 72.374516 222.415831 
L 75.547613 221.772676 
L 78.720711 220.824772 
L 80.83611 219.999766 
L 82.951508 219.012481 
L 86.124606 217.232214 
L 89.297704 215.127638 
L 92.470802 212.768316 
L 97.759298 208.511763 
L 114.682487 194.455933 
L 117.855585 191.499201 
L 121.028682 188.186454 
L 123.144081 185.704754 
L 125.259479 182.956111 
L 127.374878 179.910713 
L 129.490277 176.555592 
L 132.663374 170.965374 
L 135.836472 164.817406 
L 141.124969 153.892272 
L 147.471164 140.876613 
L 151.701961 132.68352 
L 158.048157 120.950431 
L 168.62515 101.846486 
L 172.855947 94.618638 
L 177.086744 87.825001 
L 183.43294 78.18101 
L 192.952233 64.010314 
L 196.125331 59.692312 
L 198.24073 57.114637 
L 200.356128 54.855178 
L 202.471527 52.961036 
L 204.586925 51.453778 
L 206.702324 50.325507 
L 208.817723 49.538971 
L 210.933121 49.031787 
L 214.106219 48.618679 
L 221.510114 47.939018 
L 229.971708 46.855679 
L 232.087107 46.893027 
L 234.202505 47.202777 
L 236.317904 47.831368 
L 238.433302 48.796798 
L 240.548701 50.089904 
L 242.664099 51.68133 
L 244.779498 53.531957 
L 247.952596 56.713507 
L 251.125694 60.314067 
L 254.298792 64.323733 
L 257.471889 68.781797 
L 260.644987 73.727299 
L 263.818085 79.151431 
L 268.048882 86.978537 
L 279.683574 109.094781 
L 284.972071 118.381917 
L 294.491364 134.922166 
L 300.83756 146.602691 
L 307.183755 158.240279 
L 311.414553 165.562616 
L 315.64535 172.44362 
L 320.933846 180.538907 
L 326.222342 188.193477 
L 330.45314 193.95032 
L 333.626237 197.982501 
L 336.799335 201.72647 
L 339.972433 205.16821 
L 343.145531 208.316995 
L 346.318629 211.194646 
L 349.491727 213.822355 
L 352.664824 216.211699 
L 355.837922 218.362478 
L 359.01102 220.266338 
L 362.184118 221.9135 
L 365.357216 223.300014 
L 368.530314 224.433737 
L 368.530314 224.433737 
" clip-path="url(#p477b10ea99)" style="fill: none; stroke: #ed8936; stroke-width: 2; stroke-linecap: square"/>
   </g>
   <g id="line2d_32">
    <path d="M 222.306498 240.235125 
L 222.306498 37.635125 
" clip-path="url(#p477b10ea99)" style="fill: none; stroke: #000000; stroke-width: 1.5; stroke-linecap: square"/>
   </g>
   <g id="line2d_33">
    <path d="M 320.770854 240.235125 
L 320.770854 37.635125 
" clip-path="url(#p477b10ea99)" style="fill: none; stroke-dasharray: 7.4,3.2; stroke-dashoffset: 0; stroke: #808080; stroke-opacity: 0.5; stroke-width: 2"/>
   </g>
   <g id="patch_3">
    <path d="M 36.465625 240.235125 
L 36.465625 37.635125 
" style="fill: none; stroke: #2d3748; stroke-width: 0.8; stroke-linejoin: miter; stroke-linecap: square"/>
   </g>
   <g id="patch_4">
    <path d="M 36.465625 240.235125 
L 384.342918 240.235125 
" style="fill: none; stroke: #2d3748; stroke-width: 0.8; stroke-linejoin: miter; stroke-linecap: square"/>
   </g>
   <g id="text_17">
    <!-- m₂₁ (free ω) -->
    <g style="fill: #2d3748" transform="translate(171.401225 17.077969) scale(0.13 -0.13)">
     <defs>
      <path id="DejaVuSans-6d" d="M 3328 2828 
Q 3544 3216 3844 3400 
Q 4144 3584 4550 3584 
Q 5097 3584 5394 3201 
Q 5691 2819 5691 2113 
L 5691 0 
L 5113 0 
L 5113 2094 
Q 5113 2597 4934 2840 
Q 4756 3084 4391 3084 
Q 3944 3084 3684 2787 
Q 3425 2491 3425 1978 
L 3425 0 
L 2847 0 
L 2847 2094 
Q 2847 2600 2669 2842 
Q 2491 3084 2119 3084 
Q 1678 3084 1418 2786 
Q 1159 2488 1159 1978 
L 1159 0 
L 581 0 
L 581 3500 
L 1159 3500 
L 1159 2956 
Q 1356 3278 1631 3431 
Q 1906 3584 2284 3584 
Q 2666 3584 2933 3390 
Q 3200 3197 3328 2828 
z
" transform="scale(0.015625)"/>
      <path id="DejaVuSans-2082" d="M 838 356 
L 2163 356 
L 2163 0 
L 294 0 
L 294 343 
Q 400 440 597 615 
Q 1672 1568 1672 1862 
Q 1672 2068 1509 2194 
Q 1347 2321 1081 2321 
Q 919 2321 728 2266 
Q 538 2212 313 2103 
L 313 2487 
Q 553 2575 761 2618 
Q 969 2662 1147 2662 
Q 1600 2662 1872 2456 
Q 2144 2250 2144 1912 
Q 2144 1478 1109 590 
Q 934 440 838 356 
z
" transform="scale(0.015625)"/>
      <path id="DejaVuSans-2081" d="M 488 343 
L 1125 343 
L 1125 2253 
L 428 2125 
L 428 2487 
L 1147 2609 
L 1575 2609 
L 1575 343 
L 2216 343 
L 2216 0 
L 488 0 
L 488 343 
z
" transform="scale(0.015625)"/>
      <path id="DejaVuSans-66" d="M 2375 4863 
L 2375 4384 
L 1825 4384 
Q 1516 4384 1395 4259 
Q 1275 4134 1275 3809 
L 1275 3500 
L 2222 3500 
L 2222 3053 
L 1275 3053 
L 1275 0 
L 697 0 
L 697 3053 
L 147 3053 
L 147 3500 
L 697 3500 
L 697 3744 
Q 697 4328 969 4595 
Q 1241 4863 1831 4863 
L 2375 4863 
z
" transform="scale(0.015625)"/>
      <path id="DejaVuSans-72" d="M 2631 2963 
Q 2534 3019 2420 3045 
Q 2306 3072 2169 3072 
Q 1681 3072 1420 2755 
Q 1159 2438 1159 1844 
L 1159 0 
L 581 0 
L 581 3500 
L 1159 3500 
L 1159 2956 
Q 1341 3275 1631 3429 
Q 1922 3584 2338 3584 
Q 2397 3584 2469 3576 
Q 2541 3569 2628 3553 
L 2631 2963 
z
" transform="scale(0.015625)"/>
     </defs>
     <use xlink:href="#DejaVuSans-6d"/>
     <use xlink:href="#DejaVuSans-2082" transform="translate(97.412109 0)"/>
     <use xlink:href="#DejaVuSans-2081" transform="translate(137.5 0)"/>
     <use xlink:href="#DejaVuSans-20" transform="translate(177.587891 0)"/>
     <use xlink:href="#DejaVuSans-28" transform="translate(209.375 0)"/>
     <use xlink:href="#DejaVuSans-66" transform="translate(248.388672 0)"/>
     <use xlink:href="#DejaVuSans-72" transform="translate(283.59375 0)"/>
     <use xlink:href="#DejaVuSans-65" transform="translate(322.457031 0)"/>
     <use xlink:href="#DejaVuSans-65" transform="translate(383.980469 0)"/>
     <use xlink:href="#DejaVuSans-20" transform="translate(445.503906 0)"/>
     <use xlink:href="#DejaVuSans-3c9" transform="translate(477.291016 0)"/>
     <use xlink:href="#DejaVuSans-29" transform="translate(561.03125 0)"/>
    </g>
    <!-- med=-7.9, P(&lt;0)=0.9583 -->
    <g style="fill: #2d3748" transform="translate(126.921928 31.635125) scale(0.13 -0.13)">
     <defs>
      <path id="DejaVuSans-64" d="M 2906 2969 
L 2906 4863 
L 3481 4863 
L 3481 0 
L 2906 0 
L 2906 525 
Q 2725 213 2448 61 
Q 2172 -91 1784 -91 
Q 1150 -91 751 415 
Q 353 922 353 1747 
Q 353 2572 751 3078 
Q 1150 3584 1784 3584 
Q 2172 3584 2448 3432 
Q 2725 3281 2906 2969 
z
M 947 1747 
Q 947 1113 1208 752 
Q 1469 391 1925 391 
Q 2381 391 2643 752 
Q 2906 1113 2906 1747 
Q 2906 2381 2643 2742 
Q 2381 3103 1925 3103 
Q 1469 3103 1208 2742 
Q 947 2381 947 1747 
z
" transform="scale(0.015625)"/>
      <path id="DejaVuSans-3d" d="M 678 2906 
L 4684 2906 
L 4684 2381 
L 678 2381 
L 678 2906 
z
M 678 1631 
L 4684 1631 
L 4684 1100 
L 678 1100 
L 678 1631 
z
" transform="scale(0.015625)"/>
      <path id="DejaVuSans-2d" d="M 313 2009 
L 1997 2009 
L 1997 1497 
L 313 1497 
L 313 2009 
z
" transform="scale(0.015625)"/>
      <path id="DejaVuSans-39" d="M 703 97 
L 703 672 
Q 941 559 1184 500 
Q 1428 441 1663 441 
Q 2288 441 2617 861 
Q 2947 1281 2994 2138 
Q 2813 1869 2534 1725 
Q 2256 1581 1919 1581 
Q 1219 1581 811 2004 
Q 403 2428 403 3163 
Q 403 3881 828 4315 
Q 1253 4750 1959 4750 
Q 2769 4750 3195 4129 
Q 3622 3509 3622 2328 
Q 3622 1225 3098 567 
Q 2575 -91 1691 -91 
Q 1453 -91 1209 -44 
Q 966 3 703 97 
z
M 1959 2075 
Q 2384 2075 2632 2365 
Q 2881 2656 2881 3163 
Q 2881 3666 2632 3958 
Q 2384 4250 1959 4250 
Q 1534 4250 1286 3958 
Q 1038 3666 1038 3163 
Q 1038 2656 1286 2365 
Q 1534 2075 1959 2075 
z
" transform="scale(0.015625)"/>
      <path id="DejaVuSans-2c" d="M 750 794 
L 1409 794 
L 1409 256 
L 897 -744 
L 494 -744 
L 750 256 
L 750 794 
z
" transform="scale(0.015625)"/>
      <path id="DejaVuSans-50" d="M 1259 4147 
L 1259 2394 
L 2053 2394 
Q 2494 2394 2734 2622 
Q 2975 2850 2975 3272 
Q 2975 3691 2734 3919 
Q 2494 4147 2053 4147 
L 1259 4147 
z
M 628 4666 
L 2053 4666 
Q 2838 4666 3239 4311 
Q 3641 3956 3641 3272 
Q 3641 2581 3239 2228 
Q 2838 1875 2053 1875 
L 1259 1875 
L 1259 0 
L 628 0 
L 628 4666 
z
" transform="scale(0.015625)"/>
      <path id="DejaVuSans-3c" d="M 4684 3150 
L 1459 2003 
L 4684 863 
L 4684 294 
L 678 1747 
L 678 2266 
L 4684 3719 
L 4684 3150 
z
" transform="scale(0.015625)"/>
     </defs>
     <use xlink:href="#DejaVuSans-6d"/>
     <use xlink:href="#DejaVuSans-65" transform="translate(97.412109 0)"/>
     <use xlink:href="#DejaVuSans-64" transform="translate(158.935547 0)"/>
     <use xlink:href="#DejaVuSans-3d" transform="translate(222.412109 0)"/>
     <use xlink:href="#DejaVuSans-2d" transform="translate(306.201172 0)"/>
     <use xlink:href="#DejaVuSans-37" transform="translate(342.285156 0)"/>
     <use xlink:href="#DejaVuSans-2e" transform="translate(405.908203 0)"/>
     <use xlink:href="#DejaVuSans-39" transform="translate(437.695312 0)"/>
     <use xlink:href="#DejaVuSans-2c" transform="translate(501.318359 0)"/>
     <use xlink:href="#DejaVuSans-20" transform="translate(533.105469 0)"/>
     <use xlink:href="#DejaVuSans-50" transform="translate(564.892578 0)"/>
     <use xlink:href="#DejaVuSans-28" transform="translate(625.195312 0)"/>
     <use xlink:href="#DejaVuSans-3c" transform="translate(664.208984 0)"/>
     <use xlink:href="#DejaVuSans-30" transform="translate(747.998047 0)"/>
     <use xlink:href="#DejaVuSans-29" transform="translate(811.621094 0)"/>
     <use xlink:href="#DejaVuSans-3d" transform="translate(850.634766 0)"/>
     <use xlink:href="#DejaVuSans-30" transform="translate(934.423828 0)"/>
     <use xlink:href="#DejaVuSans-2e" transform="translate(998.046875 0)"/>
     <use xlink:href="#DejaVuSans-39" transform="translate(1029.833984 0)"/>
     <use xlink:href="#DejaVuSans-35" transform="translate(1093.457031 0)"/>
     <use xlink:href="#DejaVuSans-38" transform="translate(1157.080078 0)"/>
     <use xlink:href="#DejaVuSans-33" transform="translate(1220.703125 0)"/>
    </g>
   </g>
  </g>
  <g id="axes_2">
   <g id="patch_5">
    <path d="M 427.568332 240.235125 
L 775.445625 240.235125 
L 775.445625 37.635125 
L 427.568332 37.635125 
z
" style="fill: #ffffff"/>
   </g>
   <g id="FillBetweenPolyCollection_2">
    <defs>
     <path id="mde04eb5af3" d="M 443.380936 -47.733153 
L 443.380936 -53.916809 
L 444.438636 -54.21371 
L 445.496335 -54.526795 
L 446.554034 -54.855665 
L 447.611733 -55.199705 
L 448.669433 -55.55811 
L 449.727132 -55.929908 
L 450.784831 -56.313988 
L 451.842531 -56.709142 
L 452.90023 -57.114103 
L 453.957929 -57.527586 
L 455.015628 -57.948333 
L 456.073328 -58.375148 
L 457.131027 -58.806933 
L 458.188726 -59.242716 
L 459.246426 -59.681669 
L 460.304125 -60.123123 
L 461.361824 -60.566565 
L 462.419523 -61.011637 
L 463.477223 -61.45812 
L 464.534922 -61.905911 
L 465.592621 -62.355007 
L 466.65032 -62.805471 
L 467.70802 -63.257412 
L 468.765719 -63.710959 
L 469.823418 -64.166247 
L 470.881118 -64.623403 
L 471.938817 -65.082544 
L 472.996516 -65.54378 
L 474.054215 -66.007227 
L 475.111915 -66.473028 
L 476.169614 -66.941369 
L 477.227313 -67.412517 
L 478.285013 -67.88684 
L 479.342712 -68.364837 
L 480.400411 -68.847159 
L 481.45811 -69.334628 
L 482.51581 -69.828246 
L 483.573509 -70.329198 
L 484.631208 -70.838841 
L 485.688908 -71.358696 
L 486.746607 -71.890421 
L 487.804306 -72.435783 
L 488.862005 -72.996632 
L 489.919705 -73.574862 
L 490.977404 -74.172384 
L 492.035103 -74.791088 
L 493.092802 -75.432821 
L 494.150502 -76.099361 
L 495.208201 -76.792396 
L 496.2659 -77.513507 
L 497.3236 -78.264155 
L 498.381299 -79.045665 
L 499.438998 -79.85921 
L 500.496697 -80.705797 
L 501.554397 -81.586243 
L 502.612096 -82.501145 
L 503.669795 -83.450851 
L 504.727495 -84.43542 
L 505.785194 -85.454584 
L 506.842893 -86.507702 
L 507.900592 -87.593724 
L 508.958292 -88.711161 
L 510.015991 -89.858061 
L 511.07369 -91.032004 
L 512.131389 -92.230123 
L 513.189089 -93.44914 
L 514.246788 -94.685434 
L 515.304487 -95.935137 
L 516.362187 -97.194254 
L 517.419886 -98.45881 
L 518.477585 -99.725018 
L 519.535284 -100.989462 
L 520.592984 -102.249282 
L 521.650683 -103.502363 
L 522.708382 -104.747508 
L 523.766082 -105.984587 
L 524.823781 -107.214654 
L 525.88148 -108.440028 
L 526.939179 -109.664313 
L 527.996879 -110.892372 
L 529.054578 -112.130242 
L 530.112277 -113.384987 
L 531.169977 -114.664496 
L 532.227676 -115.977244 
L 533.285375 -117.331992 
L 534.343074 -118.73748 
L 535.400774 -120.202095 
L 536.458473 -121.733539 
L 537.516172 -123.338515 
L 538.573871 -125.022446 
L 539.631571 -126.789237 
L 540.68927 -128.641085 
L 541.746969 -130.578369 
L 542.804669 -132.599593 
L 543.862368 -134.701414 
L 544.920067 -136.878735 
L 545.977766 -139.124857 
L 547.035466 -141.431696 
L 548.093165 -143.790044 
L 549.150864 -146.189851 
L 550.208564 -148.620541 
L 551.266263 -151.071321 
L 552.323962 -153.531489 
L 553.381661 -155.990714 
L 554.439361 -158.439292 
L 555.49706 -160.868364 
L 556.554759 -163.270093 
L 557.612458 -165.637793 
L 558.670158 -167.966021 
L 559.727857 -170.250622 
L 560.785556 -172.488742 
L 561.843256 -174.678799 
L 562.900955 -176.820437 
L 563.958654 -178.91444 
L 565.016353 -180.962636 
L 566.074053 -182.967774 
L 567.131752 -184.933387 
L 568.189451 -186.86364 
L 569.247151 -188.763154 
L 570.30485 -190.636825 
L 571.362549 -192.489621 
L 572.420248 -194.326374 
L 573.477948 -196.151559 
L 574.535647 -197.969074 
L 575.593346 -199.782025 
L 576.651046 -201.592525 
L 577.708745 -203.401512 
L 578.766444 -205.208607 
L 579.824143 -207.012009 
L 580.881843 -208.808443 
L 581.939542 -210.593167 
L 582.997241 -212.360036 
L 584.05494 -214.101634 
L 585.11264 -215.809456 
L 586.170339 -217.474154 
L 587.228038 -219.085813 
L 588.285738 -220.634268 
L 589.343437 -222.109437 
L 590.401136 -223.501647 
L 591.458835 -224.801961 
L 592.516535 -226.002476 
L 593.574234 -227.096575 
L 594.631933 -228.079147 
L 595.689633 -228.946743 
L 596.747332 -229.697685 
L 597.805031 -230.332106 
L 598.86273 -230.851949 
L 599.92043 -231.260896 
L 600.978129 -231.564263 
L 602.035828 -231.76884 
L 603.093527 -231.882701 
L 604.151227 -231.914972 
L 605.208926 -231.875582 
L 606.266625 -231.774986 
L 607.324325 -231.623873 
L 608.382024 -231.432863 
L 609.439723 -231.212208 
L 610.497422 -230.971493 
L 611.555122 -230.719355 
L 612.612821 -230.463222 
L 613.67052 -230.209098 
L 614.72822 -229.961384 
L 615.785919 -229.72276 
L 616.843618 -229.494133 
L 617.901317 -229.274655 
L 618.959017 -229.061818 
L 620.016716 -228.851618 
L 621.074415 -228.638795 
L 622.132115 -228.417128 
L 623.189814 -228.17978 
L 624.247513 -227.919667 
L 625.305212 -227.629844 
L 626.362912 -227.303867 
L 627.420611 -226.936129 
L 628.47831 -226.52214 
L 629.536009 -226.058729 
L 630.593709 -225.544167 
L 631.651408 -224.978191 
L 632.709107 -224.361939 
L 633.766807 -223.697785 
L 634.824506 -222.989108 
L 635.882205 -222.23999 
L 636.939904 -221.454867 
L 637.997604 -220.638175 
L 639.055303 -219.793988 
L 640.113002 -218.92569 
L 641.170702 -218.0357 
L 642.228401 -217.125258 
L 643.2861 -216.194291 
L 644.343799 -215.241371 
L 645.401499 -214.263751 
L 646.459198 -213.257487 
L 647.516897 -212.217626 
L 648.574596 -211.13846 
L 649.632296 -210.013804 
L 650.689995 -208.837315 
L 651.747694 -207.602792 
L 652.805394 -206.304482 
L 653.863093 -204.937347 
L 654.920792 -203.497284 
L 655.978491 -201.98131 
L 657.036191 -200.387682 
L 658.09389 -198.715958 
L 659.151589 -196.967018 
L 660.209289 -195.143015 
L 661.266988 -193.247299 
L 662.324687 -191.28429 
L 663.382386 -189.259339 
L 664.440086 -187.178554 
L 665.497785 -185.048625 
L 666.555484 -182.876648 
L 667.613184 -180.669944 
L 668.670883 -178.435899 
L 669.728582 -176.181814 
L 670.786281 -173.914776 
L 671.843981 -171.641544 
L 672.90168 -169.368466 
L 673.959379 -167.101409 
L 675.017078 -164.845712 
L 676.074778 -162.606154 
L 677.132477 -160.386937 
L 678.190176 -158.191681 
L 679.247876 -156.023428 
L 680.305575 -153.884641 
L 681.363274 -151.77722 
L 682.420973 -149.702502 
L 683.478673 -147.66127 
L 684.536372 -145.653758 
L 685.594071 -143.679651 
L 686.651771 -141.738088 
L 687.70947 -139.827672 
L 688.767169 -137.946478 
L 689.824868 -136.09208 
L 690.882568 -134.26158 
L 691.940267 -132.45166 
L 692.997966 -130.658648 
L 694.055665 -128.878607 
L 695.113365 -127.107433 
L 696.171064 -125.34098 
L 697.228763 -123.575189 
L 698.286463 -121.806237 
L 699.344162 -120.03068 
L 700.401861 -118.245594 
L 701.45956 -116.448717 
L 702.51726 -114.638557 
L 703.574959 -112.814491 
L 704.632658 -110.976825 
L 705.690358 -109.126831 
L 706.748057 -107.266737 
L 707.805756 -105.399689 
L 708.863455 -103.529677 
L 709.921155 -101.661422 
L 710.978854 -99.800251 
L 712.036553 -97.951938 
L 713.094252 -96.122543 
L 714.151952 -94.31824 
L 715.209651 -92.54515 
L 716.26735 -90.809189 
L 717.32505 -89.115921 
L 718.382749 -87.470446 
L 719.440448 -85.877295 
L 720.498147 -84.340366 
L 721.555847 -82.862877 
L 722.613546 -81.447336 
L 723.671245 -80.095545 
L 724.728945 -78.808613 
L 725.786644 -77.586981 
L 726.844343 -76.430459 
L 727.902042 -75.338275 
L 728.959742 -74.309117 
L 730.017441 -73.341184 
L 731.07514 -72.432234 
L 732.13284 -71.579631 
L 733.190539 -70.780394 
L 734.248238 -70.031241 
L 735.305937 -69.328635 
L 736.363637 -68.668835 
L 737.421336 -68.04794 
L 738.479035 -67.461945 
L 739.536734 -66.906792 
L 740.594434 -66.378424 
L 741.652133 -65.872846 
L 742.709832 -65.386179 
L 743.767532 -64.914718 
L 744.825231 -64.454986 
L 745.88293 -64.003784 
L 746.940629 -63.558234 
L 747.998329 -63.115819 
L 749.056028 -62.674413 
L 750.113727 -62.232298 
L 751.171427 -61.788178 
L 752.229126 -61.34118 
L 753.286825 -60.890842 
L 754.344524 -60.437099 
L 755.402224 -59.980253 
L 756.459923 -59.520941 
L 757.517622 -59.060094 
L 758.575321 -58.598889 
L 759.633021 -58.138704 
L 759.633021 -47.733153 
L 759.633021 -47.733153 
L 758.575321 -47.733153 
L 757.517622 -47.733153 
L 756.459923 -47.733153 
L 755.402224 -47.733153 
L 754.344524 -47.733153 
L 753.286825 -47.733153 
L 752.229126 -47.733153 
L 751.171427 -47.733153 
L 750.113727 -47.733153 
L 749.056028 -47.733153 
L 747.998329 -47.733153 
L 746.940629 -47.733153 
L 745.88293 -47.733153 
L 744.825231 -47.733153 
L 743.767532 -47.733153 
L 742.709832 -47.733153 
L 741.652133 -47.733153 
L 740.594434 -47.733153 
L 739.536734 -47.733153 
L 738.479035 -47.733153 
L 737.421336 -47.733153 
L 736.363637 -47.733153 
L 735.305937 -47.733153 
L 734.248238 -47.733153 
L 733.190539 -47.733153 
L 732.13284 -47.733153 
L 731.07514 -47.733153 
L 730.017441 -47.733153 
L 728.959742 -47.733153 
L 727.902042 -47.733153 
L 726.844343 -47.733153 
L 725.786644 -47.733153 
L 724.728945 -47.733153 
L 723.671245 -47.733153 
L 722.613546 -47.733153 
L 721.555847 -47.733153 
L 720.498147 -47.733153 
L 719.440448 -47.733153 
L 718.382749 -47.733153 
L 717.32505 -47.733153 
L 716.26735 -47.733153 
L 715.209651 -47.733153 
L 714.151952 -47.733153 
L 713.094252 -47.733153 
L 712.036553 -47.733153 
L 710.978854 -47.733153 
L 709.921155 -47.733153 
L 708.863455 -47.733153 
L 707.805756 -47.733153 
L 706.748057 -47.733153 
L 705.690358 -47.733153 
L 704.632658 -47.733153 
L 703.574959 -47.733153 
L 702.51726 -47.733153 
L 701.45956 -47.733153 
L 700.401861 -47.733153 
L 699.344162 -47.733153 
L 698.286463 -47.733153 
L 697.228763 -47.733153 
L 696.171064 -47.733153 
L 695.113365 -47.733153 
L 694.055665 -47.733153 
L 692.997966 -47.733153 
L 691.940267 -47.733153 
L 690.882568 -47.733153 
L 689.824868 -47.733153 
L 688.767169 -47.733153 
L 687.70947 -47.733153 
L 686.651771 -47.733153 
L 685.594071 -47.733153 
L 684.536372 -47.733153 
L 683.478673 -47.733153 
L 682.420973 -47.733153 
L 681.363274 -47.733153 
L 680.305575 -47.733153 
L 679.247876 -47.733153 
L 678.190176 -47.733153 
L 677.132477 -47.733153 
L 676.074778 -47.733153 
L 675.017078 -47.733153 
L 673.959379 -47.733153 
L 672.90168 -47.733153 
L 671.843981 -47.733153 
L 670.786281 -47.733153 
L 669.728582 -47.733153 
L 668.670883 -47.733153 
L 667.613184 -47.733153 
L 666.555484 -47.733153 
L 665.497785 -47.733153 
L 664.440086 -47.733153 
L 663.382386 -47.733153 
L 662.324687 -47.733153 
L 661.266988 -47.733153 
L 660.209289 -47.733153 
L 659.151589 -47.733153 
L 658.09389 -47.733153 
L 657.036191 -47.733153 
L 655.978491 -47.733153 
L 654.920792 -47.733153 
L 653.863093 -47.733153 
L 652.805394 -47.733153 
L 651.747694 -47.733153 
L 650.689995 -47.733153 
L 649.632296 -47.733153 
L 648.574596 -47.733153 
L 647.516897 -47.733153 
L 646.459198 -47.733153 
L 645.401499 -47.733153 
L 644.343799 -47.733153 
L 643.2861 -47.733153 
L 642.228401 -47.733153 
L 641.170702 -47.733153 
L 640.113002 -47.733153 
L 639.055303 -47.733153 
L 637.997604 -47.733153 
L 636.939904 -47.733153 
L 635.882205 -47.733153 
L 634.824506 -47.733153 
L 633.766807 -47.733153 
L 632.709107 -47.733153 
L 631.651408 -47.733153 
L 630.593709 -47.733153 
L 629.536009 -47.733153 
L 628.47831 -47.733153 
L 627.420611 -47.733153 
L 626.362912 -47.733153 
L 625.305212 -47.733153 
L 624.247513 -47.733153 
L 623.189814 -47.733153 
L 622.132115 -47.733153 
L 621.074415 -47.733153 
L 620.016716 -47.733153 
L 618.959017 -47.733153 
L 617.901317 -47.733153 
L 616.843618 -47.733153 
L 615.785919 -47.733153 
L 614.72822 -47.733153 
L 613.67052 -47.733153 
L 612.612821 -47.733153 
L 611.555122 -47.733153 
L 610.497422 -47.733153 
L 609.439723 -47.733153 
L 608.382024 -47.733153 
L 607.324325 -47.733153 
L 606.266625 -47.733153 
L 605.208926 -47.733153 
L 604.151227 -47.733153 
L 603.093527 -47.733153 
L 602.035828 -47.733153 
L 600.978129 -47.733153 
L 599.92043 -47.733153 
L 598.86273 -47.733153 
L 597.805031 -47.733153 
L 596.747332 -47.733153 
L 595.689633 -47.733153 
L 594.631933 -47.733153 
L 593.574234 -47.733153 
L 592.516535 -47.733153 
L 591.458835 -47.733153 
L 590.401136 -47.733153 
L 589.343437 -47.733153 
L 588.285738 -47.733153 
L 587.228038 -47.733153 
L 586.170339 -47.733153 
L 585.11264 -47.733153 
L 584.05494 -47.733153 
L 582.997241 -47.733153 
L 581.939542 -47.733153 
L 580.881843 -47.733153 
L 579.824143 -47.733153 
L 578.766444 -47.733153 
L 577.708745 -47.733153 
L 576.651046 -47.733153 
L 575.593346 -47.733153 
L 574.535647 -47.733153 
L 573.477948 -47.733153 
L 572.420248 -47.733153 
L 571.362549 -47.733153 
L 570.30485 -47.733153 
L 569.247151 -47.733153 
L 568.189451 -47.733153 
L 567.131752 -47.733153 
L 566.074053 -47.733153 
L 565.016353 -47.733153 
L 563.958654 -47.733153 
L 562.900955 -47.733153 
L 561.843256 -47.733153 
L 560.785556 -47.733153 
L 559.727857 -47.733153 
L 558.670158 -47.733153 
L 557.612458 -47.733153 
L 556.554759 -47.733153 
L 555.49706 -47.733153 
L 554.439361 -47.733153 
L 553.381661 -47.733153 
L 552.323962 -47.733153 
L 551.266263 -47.733153 
L 550.208564 -47.733153 
L 549.150864 -47.733153 
L 548.093165 -47.733153 
L 547.035466 -47.733153 
L 545.977766 -47.733153 
L 544.920067 -47.733153 
L 543.862368 -47.733153 
L 542.804669 -47.733153 
L 541.746969 -47.733153 
L 540.68927 -47.733153 
L 539.631571 -47.733153 
L 538.573871 -47.733153 
L 537.516172 -47.733153 
L 536.458473 -47.733153 
L 535.400774 -47.733153 
L 534.343074 -47.733153 
L 533.285375 -47.733153 
L 532.227676 -47.733153 
L 531.169977 -47.733153 
L 530.112277 -47.733153 
L 529.054578 -47.733153 
L 527.996879 -47.733153 
L 526.939179 -47.733153 
L 525.88148 -47.733153 
L 524.823781 -47.733153 
L 523.766082 -47.733153 
L 522.708382 -47.733153 
L 521.650683 -47.733153 
L 520.592984 -47.733153 
L 519.535284 -47.733153 
L 518.477585 -47.733153 
L 517.419886 -47.733153 
L 516.362187 -47.733153 
L 515.304487 -47.733153 
L 514.246788 -47.733153 
L 513.189089 -47.733153 
L 512.131389 -47.733153 
L 511.07369 -47.733153 
L 510.015991 -47.733153 
L 508.958292 -47.733153 
L 507.900592 -47.733153 
L 506.842893 -47.733153 
L 505.785194 -47.733153 
L 504.727495 -47.733153 
L 503.669795 -47.733153 
L 502.612096 -47.733153 
L 501.554397 -47.733153 
L 500.496697 -47.733153 
L 499.438998 -47.733153 
L 498.381299 -47.733153 
L 497.3236 -47.733153 
L 496.2659 -47.733153 
L 495.208201 -47.733153 
L 494.150502 -47.733153 
L 493.092802 -47.733153 
L 492.035103 -47.733153 
L 490.977404 -47.733153 
L 489.919705 -47.733153 
L 488.862005 -47.733153 
L 487.804306 -47.733153 
L 486.746607 -47.733153 
L 485.688908 -47.733153 
L 484.631208 -47.733153 
L 483.573509 -47.733153 
L 482.51581 -47.733153 
L 481.45811 -47.733153 
L 480.400411 -47.733153 
L 479.342712 -47.733153 
L 478.285013 -47.733153 
L 477.227313 -47.733153 
L 476.169614 -47.733153 
L 475.111915 -47.733153 
L 474.054215 -47.733153 
L 472.996516 -47.733153 
L 471.938817 -47.733153 
L 470.881118 -47.733153 
L 469.823418 -47.733153 
L 468.765719 -47.733153 
L 467.70802 -47.733153 
L 466.65032 -47.733153 
L 465.592621 -47.733153 
L 464.534922 -47.733153 
L 463.477223 -47.733153 
L 462.419523 -47.733153 
L 461.361824 -47.733153 
L 460.304125 -47.733153 
L 459.246426 -47.733153 
L 458.188726 -47.733153 
L 457.131027 -47.733153 
L 456.073328 -47.733153 
L 455.015628 -47.733153 
L 453.957929 -47.733153 
L 452.90023 -47.733153 
L 451.842531 -47.733153 
L 450.784831 -47.733153 
L 449.727132 -47.733153 
L 448.669433 -47.733153 
L 447.611733 -47.733153 
L 446.554034 -47.733153 
L 445.496335 -47.733153 
L 444.438636 -47.733153 
L 443.380936 -47.733153 
z
" style="stroke: #48bb78; stroke-opacity: 0.3"/>
    </defs>
    <g clip-path="url(#p027994ebfa)">
     <use xlink:href="#mde04eb5af3" x="0" y="278.759187" style="fill: #48bb78; fill-opacity: 0.3; stroke: #48bb78; stroke-opacity: 0.3"/>
    </g>
   </g>
   <g id="matplotlib.axis_3">
    <g id="xtick_7">
     <g id="line2d_34">
      <path d="M 481.407319 240.235125 
L 481.407319 37.635125 
" clip-path="url(#p027994ebfa)" style="fill: none; stroke: #e2e8f0; stroke-opacity: 0.2; stroke-width: 0.5; stroke-linecap: square"/>
     </g>
     <g id="line2d_35">
      <g>
       <use xlink:href="#m6e07fd84cf" x="481.407319" y="240.235125" style="fill: #2d3748; stroke: #2d3748; stroke-width: 0.8"/>
      </g>
     </g>
     <g id="text_18">
      <!-- −20 -->
      <g style="fill: #2d3748" transform="translate(470.854975 254.833562) scale(0.1 -0.1)">
       <use xlink:href="#DejaVuSans-2212"/>
       <use xlink:href="#DejaVuSans-32" transform="translate(83.789062 0)"/>
       <use xlink:href="#DejaVuSans-30" transform="translate(147.412109 0)"/>
      </g>
     </g>
    </g>
    <g id="xtick_8">
     <g id="line2d_36">
      <path d="M 543.437383 240.235125 
L 543.437383 37.635125 
" clip-path="url(#p027994ebfa)" style="fill: none; stroke: #e2e8f0; stroke-opacity: 0.2; stroke-width: 0.5; stroke-linecap: square"/>
     </g>
     <g id="line2d_37">
      <g>
       <use xlink:href="#m6e07fd84cf" x="543.437383" y="240.235125" style="fill: #2d3748; stroke: #2d3748; stroke-width: 0.8"/>
      </g>
     </g>
     <g id="text_19">
      <!-- −15 -->
      <g style="fill: #2d3748" transform="translate(532.88504 254.833562) scale(0.1 -0.1)">
       <use xlink:href="#DejaVuSans-2212"/>
       <use xlink:href="#DejaVuSans-31" transform="translate(83.789062 0)"/>
       <use xlink:href="#DejaVuSans-35" transform="translate(147.412109 0)"/>
      </g>
     </g>
    </g>
    <g id="xtick_9">
     <g id="line2d_38">
      <path d="M 605.467447 240.235125 
L 605.467447 37.635125 
" clip-path="url(#p027994ebfa)" style="fill: none; stroke: #e2e8f0; stroke-opacity: 0.2; stroke-width: 0.5; stroke-linecap: square"/>
     </g>
     <g id="line2d_39">
      <g>
       <use xlink:href="#m6e07fd84cf" x="605.467447" y="240.235125" style="fill: #2d3748; stroke: #2d3748; stroke-width: 0.8"/>
      </g>
     </g>
     <g id="text_20">
      <!-- −10 -->
      <g style="fill: #2d3748" transform="translate(594.915104 254.833562) scale(0.1 -0.1)">
       <use xlink:href="#DejaVuSans-2212"/>
       <use xlink:href="#DejaVuSans-31" transform="translate(83.789062 0)"/>
       <use xlink:href="#DejaVuSans-30" transform="translate(147.412109 0)"/>
      </g>
     </g>
    </g>
    <g id="xtick_10">
     <g id="line2d_40">
      <path d="M 667.497512 240.235125 
L 667.497512 37.635125 
" clip-path="url(#p027994ebfa)" style="fill: none; stroke: #e2e8f0; stroke-opacity: 0.2; stroke-width: 0.5; stroke-linecap: square"/>
     </g>
     <g id="line2d_41">
      <g>
       <use xlink:href="#m6e07fd84cf" x="667.497512" y="240.235125" style="fill: #2d3748; stroke: #2d3748; stroke-width: 0.8"/>
      </g>
     </g>
     <g id="text_21">
      <!-- −5 -->
      <g style="fill: #2d3748" transform="translate(660.126418 254.833562) scale(0.1 -0.1)">
       <use xlink:href="#DejaVuSans-2212"/>
       <use xlink:href="#DejaVuSans-35" transform="translate(83.789062 0)"/>
      </g>
     </g>
    </g>
    <g id="xtick_11">
     <g id="line2d_42">
      <path d="M 729.527576 240.235125 
L 729.527576 37.635125 
" clip-path="url(#p027994ebfa)" style="fill: none; stroke: #e2e8f0; stroke-opacity: 0.2; stroke-width: 0.5; stroke-linecap: square"/>
     </g>
     <g id="line2d_43">
      <g>
       <use xlink:href="#m6e07fd84cf" x="729.527576" y="240.235125" style="fill: #2d3748; stroke: #2d3748; stroke-width: 0.8"/>
      </g>
     </g>
     <g id="text_22">
      <!-- 0 -->
      <g style="fill: #2d3748" transform="translate(726.346326 254.833562) scale(0.1 -0.1)">
       <use xlink:href="#DejaVuSans-30"/>
      </g>
     </g>
    </g>
    <g id="text_23">
     <!-- Slope (Δω / ΔT) -->
     <g style="fill: #2d3748" transform="translate(559.368385 269.271531) scale(0.11 -0.11)">
      <use xlink:href="#DejaVuSans-53"/>
      <use xlink:href="#DejaVuSans-6c" transform="translate(63.476562 0)"/>
      <use xlink:href="#DejaVuSans-6f" transform="translate(91.259766 0)"/>
      <use xlink:href="#DejaVuSans-70" transform="translate(152.441406 0)"/>
      <use xlink:href="#DejaVuSans-65" transform="translate(215.917969 0)"/>
      <use xlink:href="#DejaVuSans-20" transform="translate(277.441406 0)"/>
      <use xlink:href="#DejaVuSans-28" transform="translate(309.228516 0)"/>
      <use xlink:href="#DejaVuSans-394" transform="translate(348.242188 0)"/>
      <use xlink:href="#DejaVuSans-3c9" transform="translate(416.650391 0)"/>
      <use xlink:href="#DejaVuSans-20" transform="translate(500.390625 0)"/>
      <use xlink:href="#DejaVuSans-2f" transform="translate(532.177734 0)"/>
      <use xlink:href="#DejaVuSans-20" transform="translate(565.869141 0)"/>
      <use xlink:href="#DejaVuSans-394" transform="translate(597.65625 0)"/>
      <use xlink:href="#DejaVuSans-54" transform="translate(666.064453 0)"/>
      <use xlink:href="#DejaVuSans-29" transform="translate(727.148438 0)"/>
     </g>
    </g>
   </g>
   <g id="matplotlib.axis_4">
    <g id="ytick_10">
     <g id="line2d_44">
      <path d="M 427.568332 231.026034 
L 775.445625 231.026034 
" clip-path="url(#p027994ebfa)" style="fill: none; stroke: #e2e8f0; stroke-opacity: 0.2; stroke-width: 0.5; stroke-linecap: square"/>
     </g>
     <g id="line2d_45">
      <g>
       <use xlink:href="#mf9abadbd71" x="427.568332" y="231.026034" style="fill: #2d3748; stroke: #2d3748; stroke-width: 0.8"/>
      </g>
     </g>
     <g id="text_24">
      <!-- 0.00 -->
      <g style="fill: #2d3748" transform="translate(398.302707 234.825253) scale(0.1 -0.1)">
       <use xlink:href="#DejaVuSans-30"/>
       <use xlink:href="#DejaVuSans-2e" transform="translate(63.623047 0)"/>
       <use xlink:href="#DejaVuSans-30" transform="translate(95.410156 0)"/>
       <use xlink:href="#DejaVuSans-30" transform="translate(159.033203 0)"/>
      </g>
     </g>
    </g>
    <g id="ytick_11">
     <g id="line2d_46">
      <path d="M 427.568332 208.045076 
L 775.445625 208.045076 
" clip-path="url(#p027994ebfa)" style="fill: none; stroke: #e2e8f0; stroke-opacity: 0.2; stroke-width: 0.5; stroke-linecap: square"/>
     </g>
     <g id="line2d_47">
      <g>
       <use xlink:href="#mf9abadbd71" x="427.568332" y="208.045076" style="fill: #2d3748; stroke: #2d3748; stroke-width: 0.8"/>
      </g>
     </g>
     <g id="text_25">
      <!-- 0.01 -->
      <g style="fill: #2d3748" transform="translate(398.302707 211.844294) scale(0.1 -0.1)">
       <use xlink:href="#DejaVuSans-30"/>
       <use xlink:href="#DejaVuSans-2e" transform="translate(63.623047 0)"/>
       <use xlink:href="#DejaVuSans-30" transform="translate(95.410156 0)"/>
       <use xlink:href="#DejaVuSans-31" transform="translate(159.033203 0)"/>
      </g>
     </g>
    </g>
    <g id="ytick_12">
     <g id="line2d_48">
      <path d="M 427.568332 185.064117 
L 775.445625 185.064117 
" clip-path="url(#p027994ebfa)" style="fill: none; stroke: #e2e8f0; stroke-opacity: 0.2; stroke-width: 0.5; stroke-linecap: square"/>
     </g>
     <g id="line2d_49">
      <g>
       <use xlink:href="#mf9abadbd71" x="427.568332" y="185.064117" style="fill: #2d3748; stroke: #2d3748; stroke-width: 0.8"/>
      </g>
     </g>
     <g id="text_26">
      <!-- 0.02 -->
      <g style="fill: #2d3748" transform="translate(398.302707 188.863336) scale(0.1 -0.1)">
       <use xlink:href="#DejaVuSans-30"/>
       <use xlink:href="#DejaVuSans-2e" transform="translate(63.623047 0)"/>
       <use xlink:href="#DejaVuSans-30" transform="translate(95.410156 0)"/>
       <use xlink:href="#DejaVuSans-32" transform="translate(159.033203 0)"/>
      </g>
     </g>
    </g>
    <g id="ytick_13">
     <g id="line2d_50">
      <path d="M 427.568332 162.083158 
L 775.445625 162.083158 
" clip-path="url(#p027994ebfa)" style="fill: none; stroke: #e2e8f0; stroke-opacity: 0.2; stroke-width: 0.5; stroke-linecap: square"/>
     </g>
     <g id="line2d_51">
      <g>
       <use xlink:href="#mf9abadbd71" x="427.568332" y="162.083158" style="fill: #2d3748; stroke: #2d3748; stroke-width: 0.8"/>
      </g>
     </g>
     <g id="text_27">
      <!-- 0.03 -->
      <g style="fill: #2d3748" transform="translate(398.302707 165.882377) scale(0.1 -0.1)">
       <use xlink:href="#DejaVuSans-30"/>
       <use xlink:href="#DejaVuSans-2e" transform="translate(63.623047 0)"/>
       <use xlink:href="#DejaVuSans-30" transform="translate(95.410156 0)"/>
       <use xlink:href="#DejaVuSans-33" transform="translate(159.033203 0)"/>
      </g>
     </g>
    </g>
    <g id="ytick_14">
     <g id="line2d_52">
      <path d="M 427.568332 139.1022 
L 775.445625 139.1022 
" clip-path="url(#p027994ebfa)" style="fill: none; stroke: #e2e8f0; stroke-opacity: 0.2; stroke-width: 0.5; stroke-linecap: square"/>
     </g>
     <g id="line2d_53">
      <g>
       <use xlink:href="#mf9abadbd71" x="427.568332" y="139.1022" style="fill: #2d3748; stroke: #2d3748; stroke-width: 0.8"/>
      </g>
     </g>
     <g id="text_28">
      <!-- 0.04 -->
      <g style="fill: #2d3748" transform="translate(398.302707 142.901419) scale(0.1 -0.1)">
       <use xlink:href="#DejaVuSans-30"/>
       <use xlink:href="#DejaVuSans-2e" transform="translate(63.623047 0)"/>
       <use xlink:href="#DejaVuSans-30" transform="translate(95.410156 0)"/>
       <use xlink:href="#DejaVuSans-34" transform="translate(159.033203 0)"/>
      </g>
     </g>
    </g>
    <g id="ytick_15">
     <g id="line2d_54">
      <path d="M 427.568332 116.121241 
L 775.445625 116.121241 
" clip-path="url(#p027994ebfa)" style="fill: none; stroke: #e2e8f0; stroke-opacity: 0.2; stroke-width: 0.5; stroke-linecap: square"/>
     </g>
     <g id="line2d_55">
      <g>
       <use xlink:href="#mf9abadbd71" x="427.568332" y="116.121241" style="fill: #2d3748; stroke: #2d3748; stroke-width: 0.8"/>
      </g>
     </g>
     <g id="text_29">
      <!-- 0.05 -->
      <g style="fill: #2d3748" transform="translate(398.302707 119.92046) scale(0.1 -0.1)">
       <use xlink:href="#DejaVuSans-30"/>
       <use xlink:href="#DejaVuSans-2e" transform="translate(63.623047 0)"/>
       <use xlink:href="#DejaVuSans-30" transform="translate(95.410156 0)"/>
       <use xlink:href="#DejaVuSans-35" transform="translate(159.033203 0)"/>
      </g>
     </g>
    </g>
    <g id="ytick_16">
     <g id="line2d_56">
      <path d="M 427.568332 93.140283 
L 775.445625 93.140283 
" clip-path="url(#p027994ebfa)" style="fill: none; stroke: #e2e8f0; stroke-opacity: 0.2; stroke-width: 0.5; stroke-linecap: square"/>
     </g>
     <g id="line2d_57">
      <g>
       <use xlink:href="#mf9abadbd71" x="427.568332" y="93.140283" style="fill: #2d3748; stroke: #2d3748; stroke-width: 0.8"/>
      </g>
     </g>
     <g id="text_30">
      <!-- 0.06 -->
      <g style="fill: #2d3748" transform="translate(398.302707 96.939502) scale(0.1 -0.1)">
       <use xlink:href="#DejaVuSans-30"/>
       <use xlink:href="#DejaVuSans-2e" transform="translate(63.623047 0)"/>
       <use xlink:href="#DejaVuSans-30" transform="translate(95.410156 0)"/>
       <use xlink:href="#DejaVuSans-36" transform="translate(159.033203 0)"/>
      </g>
     </g>
    </g>
    <g id="ytick_17">
     <g id="line2d_58">
      <path d="M 427.568332 70.159324 
L 775.445625 70.159324 
" clip-path="url(#p027994ebfa)" style="fill: none; stroke: #e2e8f0; stroke-opacity: 0.2; stroke-width: 0.5; stroke-linecap: square"/>
     </g>
     <g id="line2d_59">
      <g>
       <use xlink:href="#mf9abadbd71" x="427.568332" y="70.159324" style="fill: #2d3748; stroke: #2d3748; stroke-width: 0.8"/>
      </g>
     </g>
     <g id="text_31">
      <!-- 0.07 -->
      <g style="fill: #2d3748" transform="translate(398.302707 73.958543) scale(0.1 -0.1)">
       <use xlink:href="#DejaVuSans-30"/>
       <use xlink:href="#DejaVuSans-2e" transform="translate(63.623047 0)"/>
       <use xlink:href="#DejaVuSans-30" transform="translate(95.410156 0)"/>
       <use xlink:href="#DejaVuSans-37" transform="translate(159.033203 0)"/>
      </g>
     </g>
    </g>
    <g id="ytick_18">
     <g id="line2d_60">
      <path d="M 427.568332 47.178366 
L 775.445625 47.178366 
" clip-path="url(#p027994ebfa)" style="fill: none; stroke: #e2e8f0; stroke-opacity: 0.2; stroke-width: 0.5; stroke-linecap: square"/>
     </g>
     <g id="line2d_61">
      <g>
       <use xlink:href="#mf9abadbd71" x="427.568332" y="47.178366" style="fill: #2d3748; stroke: #2d3748; stroke-width: 0.8"/>
      </g>
     </g>
     <g id="text_32">
      <!-- 0.08 -->
      <g style="fill: #2d3748" transform="translate(398.302707 50.977585) scale(0.1 -0.1)">
       <use xlink:href="#DejaVuSans-30"/>
       <use xlink:href="#DejaVuSans-2e" transform="translate(63.623047 0)"/>
       <use xlink:href="#DejaVuSans-30" transform="translate(95.410156 0)"/>
       <use xlink:href="#DejaVuSans-38" transform="translate(159.033203 0)"/>
      </g>
     </g>
    </g>
   </g>
   <g id="line2d_62">
    <path d="M 443.380936 224.842379 
L 447.611733 223.559483 
L 451.842531 222.050045 
L 458.188726 219.516472 
L 470.881118 214.135785 
L 481.45811 209.42456 
L 486.746607 206.868767 
L 490.977404 204.586804 
L 494.150502 202.659826 
L 497.3236 200.495032 
L 500.496697 198.05339 
L 503.669795 195.308337 
L 506.842893 192.251486 
L 510.015991 188.901127 
L 514.246788 184.073753 
L 533.285375 161.427196 
L 535.400774 158.557092 
L 537.516172 155.420673 
L 539.631571 151.969951 
L 541.746969 148.180819 
L 544.920067 141.880453 
L 548.093165 134.969144 
L 554.439361 120.319896 
L 558.670158 110.793166 
L 561.843256 104.080388 
L 565.016353 97.796551 
L 569.247151 89.996034 
L 575.593346 78.977162 
L 584.05494 64.657554 
L 587.228038 59.673375 
L 589.343437 56.649751 
L 591.458835 53.957226 
L 593.574234 51.662612 
L 595.689633 49.812444 
L 597.805031 48.427081 
L 599.92043 47.498291 
L 602.035828 46.990347 
L 604.151227 46.844216 
L 606.266625 46.984201 
L 609.439723 47.546979 
L 626.362912 51.455321 
L 628.47831 52.237048 
L 630.593709 53.215021 
L 632.709107 54.397249 
L 635.882205 56.519198 
L 639.055303 58.9652 
L 643.2861 62.564896 
L 646.459198 65.501701 
L 649.632296 68.745383 
L 651.747694 71.156396 
L 653.863093 73.821841 
L 655.978491 76.777877 
L 658.09389 80.043229 
L 660.209289 83.616172 
L 663.382386 89.499849 
L 666.555484 95.882539 
L 671.843981 107.117644 
L 678.190176 120.567506 
L 682.420973 129.056686 
L 686.651771 137.0211 
L 690.882568 144.497608 
L 698.286463 156.95295 
L 704.632658 167.782363 
L 716.26735 187.949999 
L 719.440448 192.881893 
L 722.613546 197.311852 
L 724.728945 199.950574 
L 726.844343 202.328729 
L 728.959742 204.450071 
L 731.07514 206.326954 
L 733.190539 207.978793 
L 736.363637 210.090352 
L 739.536734 211.852396 
L 743.767532 213.844469 
L 754.344524 218.322089 
L 759.633021 220.620483 
L 759.633021 220.620483 
" clip-path="url(#p027994ebfa)" style="fill: none; stroke: #48bb78; stroke-width: 2; stroke-linecap: square"/>
   </g>
   <g id="line2d_63">
    <path d="M 613.825111 240.235125 
L 613.825111 37.635125 
" clip-path="url(#p027994ebfa)" style="fill: none; stroke: #000000; stroke-width: 1.5; stroke-linecap: square"/>
   </g>
   <g id="line2d_64">
    <path d="M 729.527576 240.235125 
L 729.527576 37.635125 
" clip-path="url(#p027994ebfa)" style="fill: none; stroke-dasharray: 7.4,3.2; stroke-dashoffset: 0; stroke: #808080; stroke-opacity: 0.5; stroke-width: 2"/>
   </g>
   <g id="patch_6">
    <path d="M 427.568332 240.235125 
L 427.568332 37.635125 
" style="fill: none; stroke: #2d3748; stroke-width: 0.8; stroke-linejoin: miter; stroke-linecap: square"/>
   </g>
   <g id="patch_7">
    <path d="M 427.568332 240.235125 
L 775.445625 240.235125 
" style="fill: none; stroke: #2d3748; stroke-width: 0.8; stroke-linejoin: miter; stroke-linecap: square"/>
   </g>
   <g id="text_33">
    <!-- m₃₁ (ω = κ·α) -->
    <g style="fill: #2d3748" transform="translate(557.622838 17.077969) scale(0.13 -0.13)">
     <defs>
      <path id="DejaVuSans-2083" d="M 1638 1412 
Q 1925 1356 2083 1185 
Q 2241 1015 2241 759 
Q 2241 371 1944 162 
Q 1647 -47 1094 -47 
Q 916 -47 720 -14 
Q 525 18 306 81 
L 306 459 
Q 469 375 655 334 
Q 841 293 1050 293 
Q 1391 293 1578 416 
Q 1766 540 1766 759 
Q 1766 990 1592 1109 
Q 1419 1228 1081 1228 
L 813 1228 
L 813 1565 
L 1106 1565 
Q 1400 1565 1551 1663 
Q 1703 1762 1703 1950 
Q 1703 2131 1547 2226 
Q 1391 2321 1094 2321 
Q 969 2321 809 2293 
Q 650 2265 397 2193 
L 397 2553 
Q 625 2606 825 2634 
Q 1025 2662 1197 2662 
Q 1647 2662 1911 2477 
Q 2175 2293 2175 1984 
Q 2175 1768 2034 1618 
Q 1894 1468 1638 1412 
z
" transform="scale(0.015625)"/>
      <path id="DejaVuSans-3ba" d="M 597 3500 
L 1191 3500 
L 1191 2047 
L 2700 3500 
L 3400 3500 
L 2022 2181 
L 3616 0 
L 2913 0 
L 1619 1806 
L 1191 1403 
L 1191 0 
L 597 0 
L 597 3500 
z
" transform="scale(0.015625)"/>
      <path id="DejaVuSans-b7" d="M 684 2619 
L 1344 2619 
L 1344 1825 
L 684 1825 
L 684 2619 
z
" transform="scale(0.015625)"/>
      <path id="DejaVuSans-3b1" d="M 2644 1628 
L 2506 2350 
Q 2366 3091 1809 3091 
Q 1391 3091 1200 2747 
Q 959 2316 959 1747 
Q 959 1059 1194 731 
Q 1431 397 1809 397 
Q 2228 397 2453 1063 
L 2644 1628 
z
M 2966 2584 
L 3275 3500 
L 3788 3500 
L 3147 1603 
L 3272 919 
Q 3300 766 3409 638 
Q 3538 488 3638 488 
L 3913 488 
L 3913 0 
L 3569 0 
Q 3275 0 3013 263 
Q 2884 394 2831 669 
Q 2688 322 2394 50 
Q 2256 -78 1809 -78 
Q 1075 -78 719 397 
Q 353 888 353 1747 
Q 353 2666 750 3097 
Q 1191 3578 1809 3578 
Q 2781 3578 2966 2584 
z
" transform="scale(0.015625)"/>
     </defs>
     <use xlink:href="#DejaVuSans-6d"/>
     <use xlink:href="#DejaVuSans-2083" transform="translate(97.412109 0)"/>
     <use xlink:href="#DejaVuSans-2081" transform="translate(137.5 0)"/>
     <use xlink:href="#DejaVuSans-20" transform="translate(177.587891 0)"/>
     <use xlink:href="#DejaVuSans-28" transform="translate(209.375 0)"/>
     <use xlink:href="#DejaVuSans-3c9" transform="translate(248.388672 0)"/>
     <use xlink:href="#DejaVuSans-20" transform="translate(332.128906 0)"/>
     <use xlink:href="#DejaVuSans-3d" transform="translate(363.916016 0)"/>
     <use xlink:href="#DejaVuSans-20" transform="translate(447.705078 0)"/>
     <use xlink:href="#DejaVuSans-3ba" transform="translate(479.492188 0)"/>
     <use xlink:href="#DejaVuSans-b7" transform="translate(538.427734 0)"/>
     <use xlink:href="#DejaVuSans-3b1" transform="translate(570.214844 0)"/>
     <use xlink:href="#DejaVuSans-29" transform="translate(636.132812 0)"/>
    </g>
    <!-- med=-9.3, P(&lt;0)=0.9772 -->
    <g style="fill: #2d3748" transform="translate(518.024635 31.635125) scale(0.13 -0.13)">
     <use xlink:href="#DejaVuSans-6d"/>
     <use xlink:href="#DejaVuSans-65" transform="translate(97.412109 0)"/>
     <use xlink:href="#DejaVuSans-64" transform="translate(158.935547 0)"/>
     <use xlink:href="#DejaVuSans-3d" transform="translate(222.412109 0)"/>
     <use xlink:href="#DejaVuSans-2d" transform="translate(306.201172 0)"/>
     <use xlink:href="#DejaVuSans-39" transform="translate(342.285156 0)"/>
     <use xlink:href="#DejaVuSans-2e" transform="translate(405.908203 0)"/>
     <use xlink:href="#DejaVuSans-33" transform="translate(437.695312 0)"/>
     <use xlink:href="#DejaVuSans-2c" transform="translate(501.318359 0)"/>
     <use xlink:href="#DejaVuSans-20" transform="translate(533.105469 0)"/>
     <use xlink:href="#DejaVuSans-50" transform="translate(564.892578 0)"/>
     <use xlink:href="#DejaVuSans-28" transform="translate(625.195312 0)"/>
     <use xlink:href="#DejaVuSans-3c" transform="translate(664.208984 0)"/>
     <use xlink:href="#DejaVuSans-30" transform="translate(747.998047 0)"/>
     <use xlink:href="#DejaVuSans-29" transform="translate(811.621094 0)"/>
     <use xlink:href="#DejaVuSans-3d" transform="translate(850.634766 0)"/>
     <use xlink:href="#DejaVuSans-30" transform="translate(934.423828 0)"/>
     <use xlink:href="#DejaVuSans-2e" transform="translate(998.046875 0)"/>
     <use xlink:href="#DejaVuSans-39" transform="translate(1029.833984 0)"/>
     <use xlink:href="#DejaVuSans-37" transform="translate(1093.457031 0)"/>
     <use xlink:href="#DejaVuSans-37" transform="translate(1157.080078 0)"/>
     <use xlink:href="#DejaVuSans-32" transform="translate(1220.703125 0)"/>
    </g>
   </g>
  </g>
 </g>
 <defs>
  <clipPath id="p477b10ea99">
   <rect x="36.465625" y="37.635125" width="347.877293" height="202.6"/>
  </clipPath>
  <clipPath id="p027994ebfa">
   <rect x="427.568332" y="37.635125" width="347.877293" height="202.6"/>
  </clipPath>
 </defs>
</svg>
