<?xml version="1.0" encoding="utf-8" standalone="no"?>
<!DOCTYPE svg PUBLIC "-//W3C//DTD SVG 1.1//EN"
  "http://www.w3.org/Graphics/SVG/1.1/DTD/svg11.dtd">
<svg xmlns:xlink="http://www.w3.org/1999/xlink" width="566.254063pt" height="278.602031pt" viewBox="0 0 566.254063 278.602031" xmlns="http://www.w3.org/2000/svg" version="1.1">
 <metadata>
  <rdf:RDF xmlns:dc="http://purl.org/dc/elements/1.1/" xmlns:cc="http://creativecommons.org/ns#" xmlns:rdf="http://www.w3.org/1999/02/22-rdf-syntax-ns#">
   <cc:Work>
    <dc:type rdf:resource="http://purl.org/dc/dcmitype/StillImage"/>
    <dc:date>2026-04-04T09:23:19.631105</dc:date>
    <dc:format>image/svg+xml</dc:format>
    <dc:creator>
     <cc:Agent>
      <dc:title>Matplotlib v3.10.8, https://matplotlib.org/</dc:title>
     </cc:Agent>
    </dc:creator>
   </cc:Work>
  </rdf:RDF>
 </metadata>
 <defs>
  <style type="text/css">*{stroke-linejoin: round; stroke-linecap: butt}</style>
 </defs>
 <g id="figure_1">
  <g id="patch_1">
   <path d="M 0 278.602031 
L 566.254063 278.602031 
L 566.254063 0 
L 0 0 
z
" style="fill: #ffffff"/>
  </g>
  <g id="axes_1">
   <g id="patch_2">
    <path d="M 57.474063 240.077969 
L 559.054062 240.077969 
L 559.054062 23.077969 
L 57.474063 23.077969 
z
" style="fill: #ffffff"/>
   </g>
   <g id="FillBetweenPolyCollection_1">
    <defs>
     <path id="mccf34f3ffc" d="M 80.273153 -48.387699 
L 80.273153 -51.398165 
L 81.798176 -51.537652 
L 83.323199 -51.680812 
L 84.848222 -51.827081 
L 86.373245 -51.976055 
L 87.898267 -52.127489 
L 89.42329 -52.281291 
L 90.948313 -52.437501 
L 92.473336 -52.59626 
L 93.998359 -52.75777 
L 95.523381 -52.922252 
L 97.048404 -53.089896 
L 98.573427 -53.260823 
L 100.09845 -53.435041 
L 101.623473 -53.612418 
L 103.148495 -53.792659 
L 104.673518 -53.9753 
L 106.198541 -54.159715 
L 107.723564 -54.345138 
L 109.248587 -54.530697 
L 110.773609 -54.715459 
L 112.298632 -54.898487 
L 113.823655 -55.078899 
L 115.348678 -55.255934 
L 116.873701 -55.429011 
L 118.398723 -55.597788 
L 119.923746 -55.762201 
L 121.448769 -55.922502 
L 122.973792 -56.079276 
L 124.498815 -56.233433 
L 126.023838 -56.386197 
L 127.54886 -56.539064 
L 129.073883 -56.693748 
L 130.598906 -56.852116 
L 132.123929 -57.016105 
L 133.648952 -57.18764 
L 135.173974 -57.368544 
L 136.698997 -57.560452 
L 138.22402 -57.764734 
L 139.749043 -57.982425 
L 141.274066 -58.214173 
L 142.799088 -58.460206 
L 144.324111 -58.720309 
L 145.849134 -58.993836 
L 147.374157 -59.279728 
L 148.89918 -59.576557 
L 150.424202 -59.882587 
L 151.949225 -60.195838 
L 153.474248 -60.514174 
L 154.999271 -60.835381 
L 156.524294 -61.157258 
L 158.049316 -61.477695 
L 159.574339 -61.794748 
L 161.099362 -62.106708 
L 162.624385 -62.412151 
L 164.149408 -62.709975 
L 165.67443 -62.999428 
L 167.199453 -63.280118 
L 168.724476 -63.552009 
L 170.249499 -63.81541 
L 171.774522 -64.070947 
L 173.299544 -64.319534 
L 174.824567 -64.562341 
L 176.34959 -64.800749 
L 177.874613 -65.036311 
L 179.399636 -65.270715 
L 180.924658 -65.505744 
L 182.449681 -65.743239 
L 183.974704 -65.985067 
L 185.499727 -66.233087 
L 187.02475 -66.489125 
L 188.549772 -66.754947 
L 190.074795 -67.032232 
L 191.599818 -67.322552 
L 193.124841 -67.627352 
L 194.649864 -67.947934 
L 196.174886 -68.285439 
L 197.699909 -68.64084 
L 199.224932 -69.014935 
L 200.749955 -69.408345 
L 202.274978 -69.82152 
L 203.8 -70.254753 
L 205.325023 -70.708192 
L 206.850046 -71.181868 
L 208.375069 -71.675723 
L 209.900092 -72.18964 
L 211.425114 -72.723481 
L 212.950137 -73.277119 
L 214.47516 -73.850477 
L 216.000183 -74.443557 
L 217.525206 -75.056466 
L 219.050229 -75.68944 
L 220.575251 -76.342856 
L 222.100274 -77.01724 
L 223.625297 -77.713264 
L 225.15032 -78.431738 
L 226.675343 -79.173592 
L 228.200365 -79.939855 
L 229.725388 -80.731623 
L 231.250411 -81.550027 
L 232.775434 -82.396189 
L 234.300457 -83.271184 
L 235.825479 -84.17599 
L 237.350502 -85.111442 
L 238.875525 -86.078175 
L 240.400548 -87.076581 
L 241.925571 -88.10675 
L 243.450593 -89.168427 
L 244.975616 -90.260967 
L 246.500639 -91.383295 
L 248.025662 -92.533888 
L 249.550685 -93.710755 
L 251.075707 -94.911444 
L 252.60073 -96.133064 
L 254.125753 -97.37233 
L 255.650776 -98.625626 
L 257.175799 -99.889092 
L 258.700821 -101.15873 
L 260.225844 -102.430521 
L 261.750867 -103.700563 
L 263.27589 -104.965199 
L 264.800913 -106.221163 
L 266.325935 -107.465694 
L 267.850958 -108.696654 
L 269.375981 -109.912612 
L 270.901004 -111.1129 
L 272.426027 -112.297642 
L 273.951049 -113.467743 
L 275.476072 -114.624848 
L 277.001095 -115.771259 
L 278.526118 -116.909835 
L 280.051141 -118.043856 
L 281.576163 -119.176874 
L 283.101186 -120.312551 
L 284.626209 -121.4545 
L 286.151232 -122.606117 
L 287.676255 -123.770439 
L 289.201277 -124.950007 
L 290.7263 -126.146763 
L 292.251323 -127.361967 
L 293.776346 -128.596141 
L 295.301369 -129.849055 
L 296.826391 -131.119734 
L 298.351414 -132.406498 
L 299.876437 -133.707036 
L 301.40146 -135.018499 
L 302.926483 -136.337616 
L 304.451505 -137.660831 
L 305.976528 -138.984444 
L 307.501551 -140.304771 
L 309.026574 -141.618289 
L 310.551597 -142.921791 
L 312.07662 -144.212518 
L 313.601642 -145.488282 
L 315.126665 -146.747558 
L 316.651688 -147.989564 
L 318.176711 -149.21429 
L 319.701734 -150.422518 
L 321.226756 -151.615788 
L 322.751779 -152.796344 
L 324.276802 -153.967043 
L 325.801825 -155.131235 
L 327.326848 -156.292622 
L 328.85187 -157.455092 
L 330.376893 -158.622547 
L 331.901916 -159.798722 
L 333.426939 -160.986999 
L 334.951962 -162.190241 
L 336.476984 -163.410626 
L 338.002007 -164.649514 
L 339.52703 -165.90733 
L 341.052053 -167.183487 
L 342.577076 -168.476332 
L 344.102098 -169.78314 
L 345.627121 -171.100136 
L 347.152144 -172.422559 
L 348.677167 -173.744762 
L 350.20219 -175.060344 
L 351.727212 -176.362313 
L 353.252235 -177.643274 
L 354.777258 -178.895632 
L 356.302281 -180.111811 
L 357.827304 -181.284472 
L 359.352326 -182.406728 
L 360.877349 -183.472346 
L 362.402372 -184.47592 
L 363.927395 -185.413014 
L 365.452418 -186.280274 
L 366.97744 -187.075484 
L 368.502463 -187.797577 
L 370.027486 -188.446601 
L 371.552509 -189.02363 
L 373.077532 -189.530632 
L 374.602554 -189.970301 
L 376.127577 -190.345857 
L 377.6526 -190.660829 
L 379.177623 -190.91884 
L 380.702646 -191.123386 
L 382.227668 -191.277653 
L 383.752691 -191.384358 
L 385.277714 -191.445631 
L 386.802737 -191.462955 
L 388.32776 -191.437155 
L 389.852782 -191.368433 
L 391.377805 -191.256463 
L 392.902828 -191.100513 
L 394.427851 -190.899601 
L 395.952874 -190.65266 
L 397.477896 -190.3587 
L 399.002919 -190.016956 
L 400.527942 -189.626996 
L 402.052965 -189.188791 
L 403.577988 -188.702725 
L 405.103011 -188.169552 
L 406.628033 -187.590299 
L 408.153056 -186.966114 
L 409.678079 -186.298077 
L 411.203102 -185.586995 
L 412.728125 -184.833184 
L 414.253147 -184.036267 
L 415.77817 -183.195013 
L 417.303193 -182.307226 
L 418.828216 -181.369698 
L 420.353239 -180.378248 
L 421.878261 -179.327832 
L 423.403284 -178.212745 
L 424.928307 -177.026886 
L 426.45333 -175.764077 
L 427.978353 -174.418427 
L 429.503375 -172.984703 
L 431.028398 -171.458691 
L 432.553421 -169.837523 
L 434.078444 -168.119942 
L 435.603467 -166.306495 
L 437.128489 -164.399628 
L 438.653512 -162.403686 
L 440.178535 -160.324821 
L 441.703558 -158.170797 
L 443.228581 -155.950719 
L 444.753603 -153.674705 
L 446.278626 -151.353513 
L 447.803649 -148.998146 
L 449.328672 -146.619467 
L 450.853695 -144.227847 
L 452.378717 -141.832848 
L 453.90374 -139.442978 
L 455.428763 -137.065513 
L 456.953786 -134.706402 
L 458.478809 -132.370243 
L 460.003831 -130.060333 
L 461.528854 -127.778781 
L 463.053877 -125.526667 
L 464.5789 -123.304237 
L 466.103923 -121.111117 
L 467.628945 -118.946526 
L 469.153968 -116.809475 
L 470.678991 -114.698954 
L 472.204014 -112.614071 
L 473.729037 -110.554162 
L 475.254059 -108.518862 
L 476.779082 -106.508133 
L 478.304105 -104.522257 
L 479.829128 -102.561809 
L 481.354151 -100.627597 
L 482.879173 -98.720605 
L 484.404196 -96.841923 
L 485.929219 -94.992681 
L 487.454242 -93.174002 
L 488.979265 -91.386964 
L 490.504287 -89.632576 
L 492.02931 -87.911774 
L 493.554333 -86.225438 
L 495.079356 -84.574407 
L 496.604379 -82.959512 
L 498.129402 -81.381607 
L 499.654424 -79.841597 
L 501.179447 -78.34046 
L 502.70447 -76.879255 
L 504.229493 -75.459124 
L 505.754516 -74.081277 
L 507.279538 -72.746957 
L 508.804561 -71.45741 
L 510.329584 -70.213831 
L 511.854607 -69.017312 
L 513.37963 -67.868793 
L 514.904652 -66.769003 
L 516.429675 -65.718421 
L 517.954698 -64.717238 
L 519.479721 -63.765327 
L 521.004744 -62.862237 
L 522.529766 -62.007186 
L 524.054789 -61.199074 
L 525.579812 -60.436507 
L 527.104835 -59.717828 
L 528.629858 -59.04116 
L 530.15488 -58.404451 
L 531.679903 -57.805522 
L 533.204926 -57.242121 
L 534.729949 -56.711975 
L 536.254972 -56.212832 
L 536.254972 -48.387699 
L 536.254972 -48.387699 
L 534.729949 -48.387699 
L 533.204926 -48.387699 
L 531.679903 -48.387699 
L 530.15488 -48.387699 
L 528.629858 -48.387699 
L 527.104835 -48.387699 
L 525.579812 -48.387699 
L 524.054789 -48.387699 
L 522.529766 -48.387699 
L 521.004744 -48.387699 
L 519.479721 -48.387699 
L 517.954698 -48.387699 
L 516.429675 -48.387699 
L 514.904652 -48.387699 
L 513.37963 -48.387699 
L 511.854607 -48.387699 
L 510.329584 -48.387699 
L 508.804561 -48.387699 
L 507.279538 -48.387699 
L 505.754516 -48.387699 
L 504.229493 -48.387699 
L 502.70447 -48.387699 
L 501.179447 -48.387699 
L 499.654424 -48.387699 
L 498.129402 -48.387699 
L 496.604379 -48.387699 
L 495.079356 -48.387699 
L 493.554333 -48.387699 
L 492.02931 -48.387699 
L 490.504287 -48.387699 
L 488.979265 -48.387699 
L 487.454242 -48.387699 
L 485.929219 -48.387699 
L 484.404196 -48.387699 
L 482.879173 -48.387699 
L 481.354151 -48.387699 
L 479.829128 -48.387699 
L 478.304105 -48.387699 
L 476.779082 -48.387699 
L 475.254059 -48.387699 
L 473.729037 -48.387699 
L 472.204014 -48.387699 
L 470.678991 -48.387699 
L 469.153968 -48.387699 
L 467.628945 -48.387699 
L 466.103923 -48.387699 
L 464.5789 -48.387699 
L 463.053877 -48.387699 
L 461.528854 -48.387699 
L 460.003831 -48.387699 
L 458.478809 -48.387699 
L 456.953786 -48.387699 
L 455.428763 -48.387699 
L 453.90374 -48.387699 
L 452.378717 -48.387699 
L 450.853695 -48.387699 
L 449.328672 -48.387699 
L 447.803649 -48.387699 
L 446.278626 -48.387699 
L 444.753603 -48.387699 
L 443.228581 -48.387699 
L 441.703558 -48.387699 
L 440.178535 -48.387699 
L 438.653512 -48.387699 
L 437.128489 -48.387699 
L 435.603467 -48.387699 
L 434.078444 -48.387699 
L 432.553421 -48.387699 
L 431.028398 -48.387699 
L 429.503375 -48.387699 
L 427.978353 -48.387699 
L 426.45333 -48.387699 
L 424.928307 -48.387699 
L 423.403284 -48.387699 
L 421.878261 -48.387699 
L 420.353239 -48.387699 
L 418.828216 -48.387699 
L 417.303193 -48.387699 
L 415.77817 -48.387699 
L 414.253147 -48.387699 
L 412.728125 -48.387699 
L 411.203102 -48.387699 
L 409.678079 -48.387699 
L 408.153056 -48.387699 
L 406.628033 -48.387699 
L 405.103011 -48.387699 
L 403.577988 -48.387699 
L 402.052965 -48.387699 
L 400.527942 -48.387699 
L 399.002919 -48.387699 
L 397.477896 -48.387699 
L 395.952874 -48.387699 
L 394.427851 -48.387699 
L 392.902828 -48.387699 
L 391.377805 -48.387699 
L 389.852782 -48.387699 
L 388.32776 -48.387699 
L 386.802737 -48.387699 
L 385.277714 -48.387699 
L 383.752691 -48.387699 
L 382.227668 -48.387699 
L 380.702646 -48.387699 
L 379.177623 -48.387699 
L 377.6526 -48.387699 
L 376.127577 -48.387699 
L 374.602554 -48.387699 
L 373.077532 -48.387699 
L 371.552509 -48.387699 
L 370.027486 -48.387699 
L 368.502463 -48.387699 
L 366.97744 -48.387699 
L 365.452418 -48.387699 
L 363.927395 -48.387699 
L 362.402372 -48.387699 
L 360.877349 -48.387699 
L 359.352326 -48.387699 
L 357.827304 -48.387699 
L 356.302281 -48.387699 
L 354.777258 -48.387699 
L 353.252235 -48.387699 
L 351.727212 -48.387699 
L 350.20219 -48.387699 
L 348.677167 -48.387699 
L 347.152144 -48.387699 
L 345.627121 -48.387699 
L 344.102098 -48.387699 
L 342.577076 -48.387699 
L 341.052053 -48.387699 
L 339.52703 -48.387699 
L 338.002007 -48.387699 
L 336.476984 -48.387699 
L 334.951962 -48.387699 
L 333.426939 -48.387699 
L 331.901916 -48.387699 
L 330.376893 -48.387699 
L 328.85187 -48.387699 
L 327.326848 -48.387699 
L 325.801825 -48.387699 
L 324.276802 -48.387699 
L 322.751779 -48.387699 
L 321.226756 -48.387699 
L 319.701734 -48.387699 
L 318.176711 -48.387699 
L 316.651688 -48.387699 
L 315.126665 -48.387699 
L 313.601642 -48.387699 
L 312.07662 -48.387699 
L 310.551597 -48.387699 
L 309.026574 -48.387699 
L 307.501551 -48.387699 
L 305.976528 -48.387699 
L 304.451505 -48.387699 
L 302.926483 -48.387699 
L 301.40146 -48.387699 
L 299.876437 -48.387699 
L 298.351414 -48.387699 
L 296.826391 -48.387699 
L 295.301369 -48.387699 
L 293.776346 -48.387699 
L 292.251323 -48.387699 
L 290.7263 -48.387699 
L 289.201277 -48.387699 
L 287.676255 -48.387699 
L 286.151232 -48.387699 
L 284.626209 -48.387699 
L 283.101186 -48.387699 
L 281.576163 -48.387699 
L 280.051141 -48.387699 
L 278.526118 -48.387699 
L 277.001095 -48.387699 
L 275.476072 -48.387699 
L 273.951049 -48.387699 
L 272.426027 -48.387699 
L 270.901004 -48.387699 
L 269.375981 -48.387699 
L 267.850958 -48.387699 
L 266.325935 -48.387699 
L 264.800913 -48.387699 
L 263.27589 -48.387699 
L 261.750867 -48.387699 
L 260.225844 -48.387699 
L 258.700821 -48.387699 
L 257.175799 -48.387699 
L 255.650776 -48.387699 
L 254.125753 -48.387699 
L 252.60073 -48.387699 
L 251.075707 -48.387699 
L 249.550685 -48.387699 
L 248.025662 -48.387699 
L 246.500639 -48.387699 
L 244.975616 -48.387699 
L 243.450593 -48.387699 
L 241.925571 -48.387699 
L 240.400548 -48.387699 
L 238.875525 -48.387699 
L 237.350502 -48.387699 
L 235.825479 -48.387699 
L 234.300457 -48.387699 
L 232.775434 -48.387699 
L 231.250411 -48.387699 
L 229.725388 -48.387699 
L 228.200365 -48.387699 
L 226.675343 -48.387699 
L 225.15032 -48.387699 
L 223.625297 -48.387699 
L 222.100274 -48.387699 
L 220.575251 -48.387699 
L 219.050229 -48.387699 
L 217.525206 -48.387699 
L 216.000183 -48.387699 
L 214.47516 -48.387699 
L 212.950137 -48.387699 
L 211.425114 -48.387699 
L 209.900092 -48.387699 
L 208.375069 -48.387699 
L 206.850046 -48.387699 
L 205.325023 -48.387699 
L 203.8 -48.387699 
L 202.274978 -48.387699 
L 200.749955 -48.387699 
L 199.224932 -48.387699 
L 197.699909 -48.387699 
L 196.174886 -48.387699 
L 194.649864 -48.387699 
L 193.124841 -48.387699 
L 191.599818 -48.387699 
L 190.074795 -48.387699 
L 188.549772 -48.387699 
L 187.02475 -48.387699 
L 185.499727 -48.387699 
L 183.974704 -48.387699 
L 182.449681 -48.387699 
L 180.924658 -48.387699 
L 179.399636 -48.387699 
L 177.874613 -48.387699 
L 176.34959 -48.387699 
L 174.824567 -48.387699 
L 173.299544 -48.387699 
L 171.774522 -48.387699 
L 170.249499 -48.387699 
L 168.724476 -48.387699 
L 167.199453 -48.387699 
L 165.67443 -48.387699 
L 164.149408 -48.387699 
L 162.624385 -48.387699 
L 161.099362 -48.387699 
L 159.574339 -48.387699 
L 158.049316 -48.387699 
L 156.524294 -48.387699 
L 154.999271 -48.387699 
L 153.474248 -48.387699 
L 151.949225 -48.387699 
L 150.424202 -48.387699 
L 148.89918 -48.387699 
L 147.374157 -48.387699 
L 145.849134 -48.387699 
L 144.324111 -48.387699 
L 142.799088 -48.387699 
L 141.274066 -48.387699 
L 139.749043 -48.387699 
L 138.22402 -48.387699 
L 136.698997 -48.387699 
L 135.173974 -48.387699 
L 133.648952 -48.387699 
L 132.123929 -48.387699 
L 130.598906 -48.387699 
L 129.073883 -48.387699 
L 127.54886 -48.387699 
L 126.023838 -48.387699 
L 124.498815 -48.387699 
L 122.973792 -48.387699 
L 121.448769 -48.387699 
L 119.923746 -48.387699 
L 118.398723 -48.387699 
L 116.873701 -48.387699 
L 115.348678 -48.387699 
L 113.823655 -48.387699 
L 112.298632 -48.387699 
L 110.773609 -48.387699 
L 109.248587 -48.387699 
L 107.723564 -48.387699 
L 106.198541 -48.387699 
L 104.673518 -48.387699 
L 103.148495 -48.387699 
L 101.623473 -48.387699 
L 100.09845 -48.387699 
L 98.573427 -48.387699 
L 97.048404 -48.387699 
L 95.523381 -48.387699 
L 93.998359 -48.387699 
L 92.473336 -48.387699 
L 90.948313 -48.387699 
L 89.42329 -48.387699 
L 87.898267 -48.387699 
L 86.373245 -48.387699 
L 84.848222 -48.387699 
L 83.323199 -48.387699 
L 81.798176 -48.387699 
L 80.273153 -48.387699 
z
" style="stroke: #2c5282; stroke-opacity: 0.2"/>
    </defs>
    <g clip-path="url(#p3192c4f48f)">
     <use xlink:href="#mccf34f3ffc" x="0" y="278.602031" style="fill: #2c5282; fill-opacity: 0.2; stroke: #2c5282; stroke-opacity: 0.2"/>
    </g>
   </g>
   <g id="FillBetweenPolyCollection_2">
    <defs>
     <path id="m678d9519df" d="M 199.372323 -48.387699 
L 199.372323 -53.001898 
L 200.472055 -53.142744 
L 201.571786 -53.275148 
L 202.671518 -53.3993 
L 203.771249 -53.515656 
L 204.870981 -53.624926 
L 205.970712 -53.728062 
L 207.070444 -53.82623 
L 208.170175 -53.920778 
L 209.269907 -54.013201 
L 210.369638 -54.105088 
L 211.46937 -54.198077 
L 212.569101 -54.293798 
L 213.668833 -54.393819 
L 214.768564 -54.499593 
L 215.868296 -54.612411 
L 216.968027 -54.73336 
L 218.067759 -54.863291 
L 219.16749 -55.0028 
L 220.267222 -55.152223 
L 221.366953 -55.311644 
L 222.466685 -55.480918 
L 223.566416 -55.659712 
L 224.666148 -55.847551 
L 225.765879 -56.043884 
L 226.865611 -56.248153 
L 227.965342 -56.459864 
L 229.065074 -56.678667 
L 230.164805 -56.90442 
L 231.264537 -57.137257 
L 232.364268 -57.377634 
L 233.464 -57.62637 
L 234.563731 -57.884661 
L 235.663463 -58.154078 
L 236.763194 -58.436545 
L 237.862926 -58.734293 
L 238.962658 -59.049801 
L 240.062389 -59.385708 
L 241.162121 -59.744724 
L 242.261852 -60.129523 
L 243.361584 -60.542634 
L 244.461315 -60.98633 
L 245.561047 -61.462522 
L 246.660778 -61.972668 
L 247.76051 -62.51769 
L 248.860241 -63.097917 
L 249.959973 -63.713043 
L 251.059704 -64.362117 
L 252.159436 -65.043549 
L 253.259167 -65.755153 
L 254.358899 -66.494198 
L 255.45863 -67.257495 
L 256.558362 -68.041486 
L 257.658093 -68.842361 
L 258.757825 -69.656166 
L 259.857556 -70.478927 
L 260.957288 -71.306763 
L 262.057019 -72.135999 
L 263.156751 -72.963257 
L 264.256482 -73.785543 
L 265.356214 -74.600306 
L 266.455945 -75.405489 
L 267.555677 -76.199548 
L 268.655408 -76.981462 
L 269.75514 -77.750718 
L 270.854871 -78.507284 
L 271.954603 -79.251566 
L 273.054334 -79.984361 
L 274.154066 -80.706798 
L 275.253797 -81.42028 
L 276.353529 -82.126432 
L 277.45326 -82.827041 
L 278.552992 -83.524024 
L 279.652723 -84.219386 
L 280.752455 -84.915199 
L 281.852186 -85.613594 
L 282.951918 -86.316759 
L 284.051649 -87.026944 
L 285.151381 -87.746475 
L 286.251112 -88.477773 
L 287.350844 -89.223367 
L 288.450575 -89.985901 
L 289.550307 -90.768134 
L 290.650038 -91.572932 
L 291.74977 -92.403229 
L 292.849501 -93.261992 
L 293.949233 -94.152146 
L 295.048964 -95.076499 
L 296.148696 -96.037644 
L 297.248427 -97.037851 
L 298.348159 -98.078963 
L 299.44789 -99.16228 
L 300.547622 -100.288465 
L 301.647353 -101.457465 
L 302.747085 -102.668454 
L 303.846816 -103.919816 
L 304.946548 -105.20916 
L 306.046279 -106.533387 
L 307.146011 -107.888796 
L 308.245742 -109.271233 
L 309.345474 -110.676288 
L 310.445205 -112.099516 
L 311.544937 -113.536682 
L 312.644668 -114.984013 
L 313.7444 -116.438446 
L 314.844131 -117.897846 
L 315.943863 -119.361184 
L 317.043594 -120.828665 
L 318.143326 -122.301775 
L 319.243057 -123.783254 
L 320.342789 -125.276983 
L 321.44252 -126.787787 
L 322.542252 -128.321159 
L 323.641983 -129.88292 
L 324.741715 -131.478827 
L 325.841446 -133.114165 
L 326.941178 -134.793331 
L 328.040909 -136.519451 
L 329.140641 -138.294054 
L 330.240372 -140.116826 
L 331.340104 -141.98546 
L 332.439835 -143.89563 
L 333.539567 -145.84108 
L 334.639298 -147.813836 
L 335.73903 -149.804532 
L 336.838761 -151.802822 
L 337.938493 -153.797875 
L 339.038224 -155.77889 
L 340.137956 -157.735641 
L 341.237687 -159.658975 
L 342.337419 -161.541265 
L 343.43715 -163.37677 
L 344.536882 -165.161891 
L 345.636613 -166.895294 
L 346.736345 -168.577911 
L 347.836076 -170.21281 
L 348.935808 -171.804937 
L 350.035539 -173.360771 
L 351.135271 -174.887891 
L 352.235002 -176.394496 
L 353.334734 -177.88891 
L 354.434465 -179.379093 
L 355.534197 -180.872209 
L 356.633928 -182.374243 
L 357.73366 -183.889725 
L 358.833391 -185.421545 
L 359.933123 -186.970894 
L 361.032854 -188.537301 
L 362.132586 -190.118792 
L 363.232317 -191.712127 
L 364.332049 -193.313115 
L 365.43178 -194.916985 
L 366.531512 -196.518769 
L 367.631243 -198.113689 
L 368.730975 -199.697513 
L 369.830706 -201.266855 
L 370.930438 -202.819407 
L 372.030169 -204.354078 
L 373.129901 -205.87104 
L 374.229632 -207.371678 
L 375.329364 -208.858446 
L 376.429095 -210.334642 
L 377.528827 -211.804121 
L 378.628558 -213.270963 
L 379.72829 -214.739127 
L 380.828021 -216.212099 
L 381.927753 -217.692575 
L 383.027484 -219.182197 
L 384.127216 -220.68134 
L 385.226947 -222.188985 
L 386.326679 -223.702675 
L 387.42641 -225.218542 
L 388.526142 -226.731422 
L 389.625873 -228.235024 
L 390.725605 -229.722159 
L 391.825336 -231.184988 
L 392.925068 -232.615299 
L 394.0248 -234.004774 
L 395.124531 -235.345232 
L 396.224263 -236.628841 
L 397.323994 -237.848293 
L 398.423726 -238.996911 
L 399.523457 -240.068723 
L 400.623189 -241.058461 
L 401.72292 -241.961536 
L 402.822652 -242.773955 
L 403.922383 -243.49222 
L 405.022115 -244.113203 
L 406.121846 -244.634024 
L 407.221578 -245.051924 
L 408.321309 -245.364167 
L 409.421041 -245.567963 
L 410.520772 -245.660426 
L 411.620504 -245.638578 
L 412.720235 -245.499385 
L 413.819967 -245.239841 
L 414.919698 -244.857088 
L 416.01943 -244.348566 
L 417.119161 -243.712183 
L 418.218893 -242.946502 
L 419.318624 -242.050922 
L 420.418356 -241.025852 
L 421.518087 -239.872854 
L 422.617819 -238.594757 
L 423.71755 -237.195718 
L 424.817282 -235.681239 
L 425.917013 -234.05812 
L 427.016745 -232.334355 
L 428.116476 -230.518978 
L 429.216208 -228.621851 
L 430.315939 -226.653416 
L 431.415671 -224.624406 
L 432.515402 -222.545551 
L 433.615134 -220.427265 
L 434.714865 -218.279348 
L 435.814597 -216.110711 
L 436.914328 -213.929132 
L 438.01406 -211.741065 
L 439.113791 -209.551493 
L 440.213523 -207.363853 
L 441.313254 -205.180018 
L 442.412986 -203.000349 
L 443.512717 -200.823803 
L 444.612449 -198.648109 
L 445.71218 -196.469982 
L 446.811912 -194.285387 
L 447.911643 -192.089822 
L 449.011375 -189.878631 
L 450.111106 -187.647304 
L 451.210838 -185.391777 
L 452.310569 -183.108701 
L 453.410301 -180.79568 
L 454.510032 -178.451457 
L 455.609764 -176.076047 
L 456.709495 -173.670801 
L 457.809227 -171.238416 
L 458.908958 -168.782864 
L 460.00869 -166.30927 
L 461.108421 -163.823723 
L 462.208153 -161.33304 
L 463.307884 -158.844495 
L 464.407616 -156.36552 
L 465.507347 -153.903395 
L 466.607079 -151.464946 
L 467.70681 -149.056264 
L 468.806542 -146.682451 
L 469.906273 -144.347427 
L 471.006005 -142.053777 
L 472.105736 -139.80268 
L 473.205468 -137.593892 
L 474.305199 -135.425809 
L 475.404931 -133.295583 
L 476.504662 -131.199313 
L 477.604394 -129.132265 
L 478.704125 -127.089148 
L 479.803857 -125.0644 
L 480.903588 -123.052486 
L 482.00332 -121.048189 
L 483.103051 -119.046882 
L 484.202783 -117.044762 
L 485.302514 -115.039041 
L 486.402246 -113.02809 
L 487.501977 -111.011513 
L 488.601709 -108.990175 
L 489.70144 -106.966167 
L 490.801172 -104.942712 
L 491.900903 -102.924036 
L 493.000635 -100.915188 
L 494.100366 -98.921844 
L 495.200098 -96.950085 
L 496.299829 -95.006175 
L 497.399561 -93.096342 
L 498.499292 -91.226573 
L 499.599024 -89.402431 
L 500.698755 -87.628903 
L 501.798487 -85.910275 
L 502.898218 -84.250051 
L 503.99795 -82.650894 
L 505.097681 -81.114613 
L 506.197413 -79.642172 
L 507.297144 -78.233728 
L 508.396876 -76.88869 
L 509.496607 -75.605798 
L 510.596339 -74.383208 
L 511.69607 -73.21859 
L 512.795802 -72.109223 
L 513.895533 -71.052098 
L 514.995265 -70.044006 
L 516.094996 -69.081632 
L 517.194728 -68.161634 
L 518.294459 -67.280717 
L 519.394191 -66.4357 
L 520.493922 -65.623565 
L 521.593654 -64.841507 
L 522.693385 -64.086971 
L 523.793117 -63.357675 
L 524.892848 -62.65163 
L 525.99258 -61.967148 
L 527.092311 -61.302845 
L 528.192043 -60.657632 
L 528.192043 -48.387699 
L 528.192043 -48.387699 
L 527.092311 -48.387699 
L 525.99258 -48.387699 
L 524.892848 -48.387699 
L 523.793117 -48.387699 
L 522.693385 -48.387699 
L 521.593654 -48.387699 
L 520.493922 -48.387699 
L 519.394191 -48.387699 
L 518.294459 -48.387699 
L 517.194728 -48.387699 
L 516.094996 -48.387699 
L 514.995265 -48.387699 
L 513.895533 -48.387699 
L 512.795802 -48.387699 
L 511.69607 -48.387699 
L 510.596339 -48.387699 
L 509.496607 -48.387699 
L 508.396876 -48.387699 
L 507.297144 -48.387699 
L 506.197413 -48.387699 
L 505.097681 -48.387699 
L 503.99795 -48.387699 
L 502.898218 -48.387699 
L 501.798487 -48.387699 
L 500.698755 -48.387699 
L 499.599024 -48.387699 
L 498.499292 -48.387699 
L 497.399561 -48.387699 
L 496.299829 -48.387699 
L 495.200098 -48.387699 
L 494.100366 -48.387699 
L 493.000635 -48.387699 
L 491.900903 -48.387699 
L 490.801172 -48.387699 
L 489.70144 -48.387699 
L 488.601709 -48.387699 
L 487.501977 -48.387699 
L 486.402246 -48.387699 
L 485.302514 -48.387699 
L 484.202783 -48.387699 
L 483.103051 -48.387699 
L 482.00332 -48.387699 
L 480.903588 -48.387699 
L 479.803857 -48.387699 
L 478.704125 -48.387699 
L 477.604394 -48.387699 
L 476.504662 -48.387699 
L 475.404931 -48.387699 
L 474.305199 -48.387699 
L 473.205468 -48.387699 
L 472.105736 -48.387699 
L 471.006005 -48.387699 
L 469.906273 -48.387699 
L 468.806542 -48.387699 
L 467.70681 -48.387699 
L 466.607079 -48.387699 
L 465.507347 -48.387699 
L 464.407616 -48.387699 
L 463.307884 -48.387699 
L 462.208153 -48.387699 
L 461.108421 -48.387699 
L 460.00869 -48.387699 
L 458.908958 -48.387699 
L 457.809227 -48.387699 
L 456.709495 -48.387699 
L 455.609764 -48.387699 
L 454.510032 -48.387699 
L 453.410301 -48.387699 
L 452.310569 -48.387699 
L 451.210838 -48.387699 
L 450.111106 -48.387699 
L 449.011375 -48.387699 
L 447.911643 -48.387699 
L 446.811912 -48.387699 
L 445.71218 -48.387699 
L 444.612449 -48.387699 
L 443.512717 -48.387699 
L 442.412986 -48.387699 
L 441.313254 -48.387699 
L 440.213523 -48.387699 
L 439.113791 -48.387699 
L 438.01406 -48.387699 
L 436.914328 -48.387699 
L 435.814597 -48.387699 
L 434.714865 -48.387699 
L 433.615134 -48.387699 
L 432.515402 -48.387699 
L 431.415671 -48.387699 
L 430.315939 -48.387699 
L 429.216208 -48.387699 
L 428.116476 -48.387699 
L 427.016745 -48.387699 
L 425.917013 -48.387699 
L 424.817282 -48.387699 
L 423.71755 -48.387699 
L 422.617819 -48.387699 
L 421.518087 -48.387699 
L 420.418356 -48.387699 
L 419.318624 -48.387699 
L 418.218893 -48.387699 
L 417.119161 -48.387699 
L 416.01943 -48.387699 
L 414.919698 -48.387699 
L 413.819967 -48.387699 
L 412.720235 -48.387699 
L 411.620504 -48.387699 
L 410.520772 -48.387699 
L 409.421041 -48.387699 
L 408.321309 -48.387699 
L 407.221578 -48.387699 
L 406.121846 -48.387699 
L 405.022115 -48.387699 
L 403.922383 -48.387699 
L 402.822652 -48.387699 
L 401.72292 -48.387699 
L 400.623189 -48.387699 
L 399.523457 -48.387699 
L 398.423726 -48.387699 
L 397.323994 -48.387699 
L 396.224263 -48.387699 
L 395.124531 -48.387699 
L 394.0248 -48.387699 
L 392.925068 -48.387699 
L 391.825336 -48.387699 
L 390.725605 -48.387699 
L 389.625873 -48.387699 
L 388.526142 -48.387699 
L 387.42641 -48.387699 
L 386.326679 -48.387699 
L 385.226947 -48.387699 
L 384.127216 -48.387699 
L 383.027484 -48.387699 
L 381.927753 -48.387699 
L 380.828021 -48.387699 
L 379.72829 -48.387699 
L 378.628558 -48.387699 
L 377.528827 -48.387699 
L 376.429095 -48.387699 
L 375.329364 -48.387699 
L 374.229632 -48.387699 
L 373.129901 -48.387699 
L 372.030169 -48.387699 
L 370.930438 -48.387699 
L 369.830706 -48.387699 
L 368.730975 -48.387699 
L 367.631243 -48.387699 
L 366.531512 -48.387699 
L 365.43178 -48.387699 
L 364.332049 -48.387699 
L 363.232317 -48.387699 
L 362.132586 -48.387699 
L 361.032854 -48.387699 
L 359.933123 -48.387699 
L 358.833391 -48.387699 
L 357.73366 -48.387699 
L 356.633928 -48.387699 
L 355.534197 -48.387699 
L 354.434465 -48.387699 
L 353.334734 -48.387699 
L 352.235002 -48.387699 
L 351.135271 -48.387699 
L 350.035539 -48.387699 
L 348.935808 -48.387699 
L 347.836076 -48.387699 
L 346.736345 -48.387699 
L 345.636613 -48.387699 
L 344.536882 -48.387699 
L 343.43715 -48.387699 
L 342.337419 -48.387699 
L 341.237687 -48.387699 
L 340.137956 -48.387699 
L 339.038224 -48.387699 
L 337.938493 -48.387699 
L 336.838761 -48.387699 
L 335.73903 -48.387699 
L 334.639298 -48.387699 
L 333.539567 -48.387699 
L 332.439835 -48.387699 
L 331.340104 -48.387699 
L 330.240372 -48.387699 
L 329.140641 -48.387699 
L 328.040909 -48.387699 
L 326.941178 -48.387699 
L 325.841446 -48.387699 
L 324.741715 -48.387699 
L 323.641983 -48.387699 
L 322.542252 -48.387699 
L 321.44252 -48.387699 
L 320.342789 -48.387699 
L 319.243057 -48.387699 
L 318.143326 -48.387699 
L 317.043594 -48.387699 
L 315.943863 -48.387699 
L 314.844131 -48.387699 
L 313.7444 -48.387699 
L 312.644668 -48.387699 
L 311.544937 -48.387699 
L 310.445205 -48.387699 
L 309.345474 -48.387699 
L 308.245742 -48.387699 
L 307.146011 -48.387699 
L 306.046279 -48.387699 
L 304.946548 -48.387699 
L 303.846816 -48.387699 
L 302.747085 -48.387699 
L 301.647353 -48.387699 
L 300.547622 -48.387699 
L 299.44789 -48.387699 
L 298.348159 -48.387699 
L 297.248427 -48.387699 
L 296.148696 -48.387699 
L 295.048964 -48.387699 
L 293.949233 -48.387699 
L 292.849501 -48.387699 
L 291.74977 -48.387699 
L 290.650038 -48.387699 
L 289.550307 -48.387699 
L 288.450575 -48.387699 
L 287.350844 -48.387699 
L 286.251112 -48.387699 
L 285.151381 -48.387699 
L 284.051649 -48.387699 
L 282.951918 -48.387699 
L 281.852186 -48.387699 
L 280.752455 -48.387699 
L 279.652723 -48.387699 
L 278.552992 -48.387699 
L 277.45326 -48.387699 
L 276.353529 -48.387699 
L 275.253797 -48.387699 
L 274.154066 -48.387699 
L 273.054334 -48.387699 
L 271.954603 -48.387699 
L 270.854871 -48.387699 
L 269.75514 -48.387699 
L 268.655408 -48.387699 
L 267.555677 -48.387699 
L 266.455945 -48.387699 
L 265.356214 -48.387699 
L 264.256482 -48.387699 
L 263.156751 -48.387699 
L 262.057019 -48.387699 
L 260.957288 -48.387699 
L 259.857556 -48.387699 
L 258.757825 -48.387699 
L 257.658093 -48.387699 
L 256.558362 -48.387699 
L 255.45863 -48.387699 
L 254.358899 -48.387699 
L 253.259167 -48.387699 
L 252.159436 -48.387699 
L 251.059704 -48.387699 
L 249.959973 -48.387699 
L 248.860241 -48.387699 
L 247.76051 -48.387699 
L 246.660778 -48.387699 
L 245.561047 -48.387699 
L 244.461315 -48.387699 
L 243.361584 -48.387699 
L 242.261852 -48.387699 
L 241.162121 -48.387699 
L 240.062389 -48.387699 
L 238.962658 -48.387699 
L 237.862926 -48.387699 
L 236.763194 -48.387699 
L 235.663463 -48.387699 
L 234.563731 -48.387699 
L 233.464 -48.387699 
L 232.364268 -48.387699 
L 231.264537 -48.387699 
L 230.164805 -48.387699 
L 229.065074 -48.387699 
L 227.965342 -48.387699 
L 226.865611 -48.387699 
L 225.765879 -48.387699 
L 224.666148 -48.387699 
L 223.566416 -48.387699 
L 222.466685 -48.387699 
L 221.366953 -48.387699 
L 220.267222 -48.387699 
L 219.16749 -48.387699 
L 218.067759 -48.387699 
L 216.968027 -48.387699 
L 215.868296 -48.387699 
L 214.768564 -48.387699 
L 213.668833 -48.387699 
L 212.569101 -48.387699 
L 211.46937 -48.387699 
L 210.369638 -48.387699 
L 209.269907 -48.387699 
L 208.170175 -48.387699 
L 207.070444 -48.387699 
L 205.970712 -48.387699 
L 204.870981 -48.387699 
L 203.771249 -48.387699 
L 202.671518 -48.387699 
L 201.571786 -48.387699 
L 200.472055 -48.387699 
L 199.372323 -48.387699 
z
" style="stroke: #ed8936; stroke-opacity: 0.2"/>
    </defs>
    <g clip-path="url(#p3192c4f48f)">
     <use xlink:href="#m678d9519df" x="0" y="278.602031" style="fill: #ed8936; fill-opacity: 0.2; stroke: #ed8936; stroke-opacity: 0.2"/>
    </g>
   </g>
   <g id="matplotlib.axis_1">
    <g id="xtick_1">
     <g id="line2d_1">
      <path d="M 129.37434 240.077969 
L 129.37434 23.077969 
" clip-path="url(#p3192c4f48f)" style="fill: none; stroke: #e2e8f0; stroke-opacity: 0.5; stroke-width: 0.5; stroke-linecap: square"/>
     </g>
     <g id="line2d_2">
      <defs>
       <path id="me7ff37b1c3" d="M 0 0 
L 0 3.5 
" style="stroke: #2d3748; stroke-width: 0.8"/>
      </defs>
      <g>
       <use xlink:href="#me7ff37b1c3" x="129.37434" y="240.077969" style="fill: #2d3748; stroke: #2d3748; stroke-width: 0.8"/>
      </g>
     </g>
     <g id="text_1">
      <!-- −80 -->
      <g style="fill: #2d3748" transform="translate(118.821997 254.676406) scale(0.1 -0.1)">
       <defs>
        <path id="DejaVuSans-2212" d="M 678 2272 
L 4684 2272 
L 4684 1741 
L 678 1741 
L 678 2272 
z
" transform="scale(0.015625)"/>
        <path id="DejaVuSans-38" d="M 2034 2216 
Q 1584 2216 1326 1975 
Q 1069 1734 1069 1313 
Q 1069 891 1326 650 
Q 1584 409 2034 409 
Q 2484 409 2743 651 
Q 3003 894 3003 1313 
Q 3003 1734 2745 1975 
Q 2488 2216 2034 2216 
z
M 1403 2484 
Q 997 2584 770 2862 
Q 544 3141 544 3541 
Q 544 4100 942 4425 
Q 1341 4750 2034 4750 
Q 2731 4750 3128 4425 
Q 3525 4100 3525 3541 
Q 3525 3141 3298 2862 
Q 3072 2584 2669 2484 
Q 3125 2378 3379 2068 
Q 3634 1759 3634 1313 
Q 3634 634 3220 271 
Q 2806 -91 2034 -91 
Q 1263 -91 848 271 
Q 434 634 434 1313 
Q 434 1759 690 2068 
Q 947 2378 1403 2484 
z
M 1172 3481 
Q 1172 3119 1398 2916 
Q 1625 2713 2034 2713 
Q 2441 2713 2670 2916 
Q 2900 3119 2900 3481 
Q 2900 3844 2670 4047 
Q 2441 4250 2034 4250 
Q 1625 4250 1398 4047 
Q 1172 3844 1172 3481 
z
" transform="scale(0.015625)"/>
        <path id="DejaVuSans-30" d="M 2034 4250 
Q 1547 4250 1301 3770 
Q 1056 3291 1056 2328 
Q 1056 1369 1301 889 
Q 1547 409 2034 409 
Q 2525 409 2770 889 
Q 3016 1369 3016 2328 
Q 3016 3291 2770 3770 
Q 2525 4250 2034 4250 
z
M 2034 4750 
Q 2819 4750 3233 4129 
Q 3647 3509 3647 2328 
Q 3647 1150 3233 529 
Q 2819 -91 2034 -91 
Q 1250 -91 836 529 
Q 422 1150 422 2328 
Q 422 3509 836 4129 
Q 1250 4750 2034 4750 
z
" transform="scale(0.015625)"/>
       </defs>
       <use xlink:href="#DejaVuSans-2212"/>
       <use xlink:href="#DejaVuSans-38" transform="translate(83.789062 0)"/>
       <use xlink:href="#DejaVuSans-30" transform="translate(147.412109 0)"/>
      </g>
     </g>
    </g>
    <g id="xtick_2">
     <g id="line2d_3">
      <path d="M 227.272173 240.077969 
L 227.272173 23.077969 
" clip-path="url(#p3192c4f48f)" style="fill: none; stroke: #e2e8f0; stroke-opacity: 0.5; stroke-width: 0.5; stroke-linecap: square"/>
     </g>
     <g id="line2d_4">
      <g>
       <use xlink:href="#me7ff37b1c3" x="227.272173" y="240.077969" style="fill: #2d3748; stroke: #2d3748; stroke-width: 0.8"/>
      </g>
     </g>
     <g id="text_2">
      <!-- −60 -->
      <g style="fill: #2d3748" transform="translate(216.719829 254.676406) scale(0.1 -0.1)">
       <defs>
        <path id="DejaVuSans-36" d="M 2113 2584 
Q 1688 2584 1439 2293 
Q 1191 2003 1191 1497 
Q 1191 994 1439 701 
Q 1688 409 2113 409 
Q 2538 409 2786 701 
Q 3034 994 3034 1497 
Q 3034 2003 2786 2293 
Q 2538 2584 2113 2584 
z
M 3366 4563 
L 3366 3988 
Q 3128 4100 2886 4159 
Q 2644 4219 2406 4219 
Q 1781 4219 1451 3797 
Q 1122 3375 1075 2522 
Q 1259 2794 1537 2939 
Q 1816 3084 2150 3084 
Q 2853 3084 3261 2657 
Q 3669 2231 3669 1497 
Q 3669 778 3244 343 
Q 2819 -91 2113 -91 
Q 1303 -91 875 529 
Q 447 1150 447 2328 
Q 447 3434 972 4092 
Q 1497 4750 2381 4750 
Q 2619 4750 2861 4703 
Q 3103 4656 3366 4563 
z
" transform="scale(0.015625)"/>
       </defs>
       <use xlink:href="#DejaVuSans-2212"/>
       <use xlink:href="#DejaVuSans-36" transform="translate(83.789062 0)"/>
       <use xlink:href="#DejaVuSans-30" transform="translate(147.412109 0)"/>
      </g>
     </g>
    </g>
    <g id="xtick_3">
     <g id="line2d_5">
      <path d="M 325.170006 240.077969 
L 325.170006 23.077969 
" clip-path="url(#p3192c4f48f)" style="fill: none; stroke: #e2e8f0; stroke-opacity: 0.5; stroke-width: 0.5; stroke-linecap: square"/>
     </g>
     <g id="line2d_6">
      <g>
       <use xlink:href="#me7ff37b1c3" x="325.170006" y="240.077969" style="fill: #2d3748; stroke: #2d3748; stroke-width: 0.8"/>
      </g>
     </g>
     <g id="text_3">
      <!-- −40 -->
      <g style="fill: #2d3748" transform="translate(314.617662 254.676406) scale(0.1 -0.1)">
       <defs>
        <path id="DejaVuSans-34" d="M 2419 4116 
L 825 1625 
L 2419 1625 
L 2419 4116 
z
M 2253 4666 
L 3047 4666 
L 3047 1625 
L 3713 1625 
L 3713 1100 
L 3047 1100 
L 3047 0 
L 2419 0 
L 2419 1100 
L 313 1100 
L 313 1709 
L 2253 4666 
z
" transform="scale(0.015625)"/>
       </defs>
       <use xlink:href="#DejaVuSans-2212"/>
       <use xlink:href="#DejaVuSans-34" transform="translate(83.789062 0)"/>
       <use xlink:href="#DejaVuSans-30" transform="translate(147.412109 0)"/>
      </g>
     </g>
    </g>
    <g id="xtick_4">
     <g id="line2d_7">
      <path d="M 423.067838 240.077969 
L 423.067838 23.077969 
" clip-path="url(#p3192c4f48f)" style="fill: none; stroke: #e2e8f0; stroke-opacity: 0.5; stroke-width: 0.5; stroke-linecap: square"/>
     </g>
     <g id="line2d_8">
      <g>
       <use xlink:href="#me7ff37b1c3" x="423.067838" y="240.077969" style="fill: #2d3748; stroke: #2d3748; stroke-width: 0.8"/>
      </g>
     </g>
     <g id="text_4">
      <!-- −20 -->
      <g style="fill: #2d3748" transform="translate(412.515495 254.676406) scale(0.1 -0.1)">
       <defs>
        <path id="DejaVuSans-32" d="M 1228 531 
L 3431 531 
L 3431 0 
L 469 0 
L 469 531 
Q 828 903 1448 1529 
Q 2069 2156 2228 2338 
Q 2531 2678 2651 2914 
Q 2772 3150 2772 3378 
Q 2772 3750 2511 3984 
Q 2250 4219 1831 4219 
Q 1534 4219 1204 4116 
Q 875 4013 500 3803 
L 500 4441 
Q 881 4594 1212 4672 
Q 1544 4750 1819 4750 
Q 2544 4750 2975 4387 
Q 3406 4025 3406 3419 
Q 3406 3131 3298 2873 
Q 3191 2616 2906 2266 
Q 2828 2175 2409 1742 
Q 1991 1309 1228 531 
z
" transform="scale(0.015625)"/>
       </defs>
       <use xlink:href="#DejaVuSans-2212"/>
       <use xlink:href="#DejaVuSans-32" transform="translate(83.789062 0)"/>
       <use xlink:href="#DejaVuSans-30" transform="translate(147.412109 0)"/>
      </g>
     </g>
    </g>
    <g id="xtick_5">
     <g id="line2d_9">
      <path d="M 520.965671 240.077969 
L 520.965671 23.077969 
" clip-path="url(#p3192c4f48f)" style="fill: none; stroke: #e2e8f0; stroke-opacity: 0.5; stroke-width: 0.5; stroke-linecap: square"/>
     </g>
     <g id="line2d_10">
      <g>
       <use xlink:href="#me7ff37b1c3" x="520.965671" y="240.077969" style="fill: #2d3748; stroke: #2d3748; stroke-width: 0.8"/>
      </g>
     </g>
     <g id="text_5">
      <!-- 0 -->
      <g style="fill: #2d3748" transform="translate(517.784421 254.676406) scale(0.1 -0.1)">
       <use xlink:href="#DejaVuSans-30"/>
      </g>
     </g>
    </g>
    <g id="text_6">
     <!-- Slope (Δα / ΔT) -->
     <g style="fill: #2d3748" transform="translate(267.105156 269.114375) scale(0.11 -0.11)">
      <defs>
       <path id="DejaVuSans-53" d="M 3425 4513 
L 3425 3897 
Q 3066 4069 2747 4153 
Q 2428 4238 2131 4238 
Q 1616 4238 1336 4038 
Q 1056 3838 1056 3469 
Q 1056 3159 1242 3001 
Q 1428 2844 1947 2747 
L 2328 2669 
Q 3034 2534 3370 2195 
Q 3706 1856 3706 1288 
Q 3706 609 3251 259 
Q 2797 -91 1919 -91 
Q 1588 -91 1214 -16 
Q 841 59 441 206 
L 441 856 
Q 825 641 1194 531 
Q 1563 422 1919 422 
Q 2459 422 2753 634 
Q 3047 847 3047 1241 
Q 3047 1584 2836 1778 
Q 2625 1972 2144 2069 
L 1759 2144 
Q 1053 2284 737 2584 
Q 422 2884 422 3419 
Q 422 4038 858 4394 
Q 1294 4750 2059 4750 
Q 2388 4750 2728 4690 
Q 3069 4631 3425 4513 
z
" transform="scale(0.015625)"/>
       <path id="DejaVuSans-6c" d="M 603 4863 
L 1178 4863 
L 1178 0 
L 603 0 
L 603 4863 
z
" transform="scale(0.015625)"/>
       <path id="DejaVuSans-6f" d="M 1959 3097 
Q 1497 3097 1228 2736 
Q 959 2375 959 1747 
Q 959 1119 1226 758 
Q 1494 397 1959 397 
Q 2419 397 2687 759 
Q 2956 1122 2956 1747 
Q 2956 2369 2687 2733 
Q 2419 3097 1959 3097 
z
M 1959 3584 
Q 2709 3584 3137 3096 
Q 3566 2609 3566 1747 
Q 3566 888 3137 398 
Q 2709 -91 1959 -91 
Q 1206 -91 779 398 
Q 353 888 353 1747 
Q 353 2609 779 3096 
Q 1206 3584 1959 3584 
z
" transform="scale(0.015625)"/>
       <path id="DejaVuSans-70" d="M 1159 525 
L 1159 -1331 
L 581 -1331 
L 581 3500 
L 1159 3500 
L 1159 2969 
Q 1341 3281 1617 3432 
Q 1894 3584 2278 3584 
Q 2916 3584 3314 3078 
Q 3713 2572 3713 1747 
Q 3713 922 3314 415 
Q 2916 -91 2278 -91 
Q 1894 -91 1617 61 
Q 1341 213 1159 525 
z
M 3116 1747 
Q 3116 2381 2855 2742 
Q 2594 3103 2138 3103 
Q 1681 3103 1420 2742 
Q 1159 2381 1159 1747 
Q 1159 1113 1420 752 
Q 1681 391 2138 391 
Q 2594 391 2855 752 
Q 3116 1113 3116 1747 
z
" transform="scale(0.015625)"/>
       <path id="DejaVuSans-65" d="M 3597 1894 
L 3597 1613 
L 953 1613 
Q 991 1019 1311 708 
Q 1631 397 2203 397 
Q 2534 397 2845 478 
Q 3156 559 3463 722 
L 3463 178 
Q 3153 47 2828 -22 
Q 2503 -91 2169 -91 
Q 1331 -91 842 396 
Q 353 884 353 1716 
Q 353 2575 817 3079 
Q 1281 3584 2069 3584 
Q 2775 3584 3186 3129 
Q 3597 2675 3597 1894 
z
M 3022 2063 
Q 3016 2534 2758 2815 
Q 2500 3097 2075 3097 
Q 1594 3097 1305 2825 
Q 1016 2553 972 2059 
L 3022 2063 
z
" transform="scale(0.015625)"/>
       <path id="DejaVuSans-20" transform="scale(0.015625)"/>
       <path id="DejaVuSans-28" d="M 1984 4856 
Q 1566 4138 1362 3434 
Q 1159 2731 1159 2009 
Q 1159 1288 1364 580 
Q 1569 -128 1984 -844 
L 1484 -844 
Q 1016 -109 783 600 
Q 550 1309 550 2009 
Q 550 2706 781 3412 
Q 1013 4119 1484 4856 
L 1984 4856 
z
" transform="scale(0.015625)"/>
       <path id="DejaVuSans-394" d="M 2188 4044 
L 906 525 
L 3472 525 
L 2188 4044 
z
M 50 0 
L 1831 4666 
L 2547 4666 
L 4325 0 
L 50 0 
z
" transform="scale(0.015625)"/>
       <path id="DejaVuSans-3b1" d="M 2644 1628 
L 2506 2350 
Q 2366 3091 1809 3091 
Q 1391 3091 1200 2747 
Q 959 2316 959 1747 
Q 959 1059 1194 731 
Q 1431 397 1809 397 
Q 2228 397 2453 1063 
L 2644 1628 
z
M 2966 2584 
L 3275 3500 
L 3788 3500 
L 3147 1603 
L 3272 919 
Q 3300 766 3409 638 
Q 3538 488 3638 488 
L 3913 488 
L 3913 0 
L 3569 0 
Q 3275 0 3013 263 
Q 2884 394 2831 669 
Q 2688 322 2394 50 
Q 2256 -78 1809 -78 
Q 1075 -78 719 397 
Q 353 888 353 1747 
Q 353 2666 750 3097 
Q 1191 3578 1809 3578 
Q 2781 3578 2966 2584 
z
" transform="scale(0.015625)"/>
       <path id="DejaVuSans-2f" d="M 1625 4666 
L 2156 4666 
L 531 -594 
L 0 -594 
L 1625 4666 
z
" transform="scale(0.015625)"/>
       <path id="DejaVuSans-54" d="M -19 4666 
L 3928 4666 
L 3928 4134 
L 2272 4134 
L 2272 0 
L 1638 0 
L 1638 4134 
L -19 4134 
L -19 4666 
z
" transform="scale(0.015625)"/>
       <path id="DejaVuSans-29" d="M 513 4856 
L 1013 4856 
Q 1481 4119 1714 3412 
Q 1947 2706 1947 2009 
Q 1947 1309 1714 600 
Q 1481 -109 1013 -844 
L 513 -844 
Q 928 -128 1133 580 
Q 1338 1288 1338 2009 
Q 1338 2731 1133 3434 
Q 928 4138 513 4856 
z
" transform="scale(0.015625)"/>
      </defs>
      <use xlink:href="#DejaVuSans-53"/>
      <use xlink:href="#DejaVuSans-6c" transform="translate(63.476562 0)"/>
      <use xlink:href="#DejaVuSans-6f" transform="translate(91.259766 0)"/>
      <use xlink:href="#DejaVuSans-70" transform="translate(152.441406 0)"/>
      <use xlink:href="#DejaVuSans-65" transform="translate(215.917969 0)"/>
      <use xlink:href="#DejaVuSans-20" transform="translate(277.441406 0)"/>
      <use xlink:href="#DejaVuSans-28" transform="translate(309.228516 0)"/>
      <use xlink:href="#DejaVuSans-394" transform="translate(348.242188 0)"/>
      <use xlink:href="#DejaVuSans-3b1" transform="translate(416.650391 0)"/>
      <use xlink:href="#DejaVuSans-20" transform="translate(482.568359 0)"/>
      <use xlink:href="#DejaVuSans-2f" transform="translate(514.355469 0)"/>
      <use xlink:href="#DejaVuSans-20" transform="translate(548.046875 0)"/>
      <use xlink:href="#DejaVuSans-394" transform="translate(579.833984 0)"/>
      <use xlink:href="#DejaVuSans-54" transform="translate(648.242188 0)"/>
      <use xlink:href="#DejaVuSans-29" transform="translate(709.326172 0)"/>
     </g>
    </g>
   </g>
   <g id="matplotlib.axis_2">
    <g id="ytick_1">
     <g id="line2d_11">
      <path d="M 57.474063 230.214332 
L 559.054062 230.214332 
" clip-path="url(#p3192c4f48f)" style="fill: none; stroke: #e2e8f0; stroke-opacity: 0.5; stroke-width: 0.5; stroke-linecap: square"/>
     </g>
     <g id="line2d_12">
      <defs>
       <path id="mabb665c3bd" d="M 0 0 
L -3.5 0 
" style="stroke: #2d3748; stroke-width: 0.8"/>
      </defs>
      <g>
       <use xlink:href="#mabb665c3bd" x="57.474063" y="230.214332" style="fill: #2d3748; stroke: #2d3748; stroke-width: 0.8"/>
      </g>
     </g>
     <g id="text_7">
      <!-- 0.000 -->
      <g style="fill: #2d3748" transform="translate(21.845938 234.013551) scale(0.1 -0.1)">
       <defs>
        <path id="DejaVuSans-2e" d="M 684 794 
L 1344 794 
L 1344 0 
L 684 0 
L 684 794 
z
" transform="scale(0.015625)"/>
       </defs>
       <use xlink:href="#DejaVuSans-30"/>
       <use xlink:href="#DejaVuSans-2e" transform="translate(63.623047 0)"/>
       <use xlink:href="#DejaVuSans-30" transform="translate(95.410156 0)"/>
       <use xlink:href="#DejaVuSans-30" transform="translate(159.033203 0)"/>
       <use xlink:href="#DejaVuSans-30" transform="translate(222.65625 0)"/>
      </g>
     </g>
    </g>
    <g id="ytick_2">
     <g id="line2d_13">
      <path d="M 57.474063 200.907185 
L 559.054062 200.907185 
" clip-path="url(#p3192c4f48f)" style="fill: none; stroke: #e2e8f0; stroke-opacity: 0.5; stroke-width: 0.5; stroke-linecap: square"/>
     </g>
     <g id="line2d_14">
      <g>
       <use xlink:href="#mabb665c3bd" x="57.474063" y="200.907185" style="fill: #2d3748; stroke: #2d3748; stroke-width: 0.8"/>
      </g>
     </g>
     <g id="text_8">
      <!-- 0.005 -->
      <g style="fill: #2d3748" transform="translate(21.845938 204.706404) scale(0.1 -0.1)">
       <defs>
        <path id="DejaVuSans-35" d="M 691 4666 
L 3169 4666 
L 3169 4134 
L 1269 4134 
L 1269 2991 
Q 1406 3038 1543 3061 
Q 1681 3084 1819 3084 
Q 2600 3084 3056 2656 
Q 3513 2228 3513 1497 
Q 3513 744 3044 326 
Q 2575 -91 1722 -91 
Q 1428 -91 1123 -41 
Q 819 9 494 109 
L 494 744 
Q 775 591 1075 516 
Q 1375 441 1709 441 
Q 2250 441 2565 725 
Q 2881 1009 2881 1497 
Q 2881 1984 2565 2268 
Q 2250 2553 1709 2553 
Q 1456 2553 1204 2497 
Q 953 2441 691 2322 
L 691 4666 
z
" transform="scale(0.015625)"/>
       </defs>
       <use xlink:href="#DejaVuSans-30"/>
       <use xlink:href="#DejaVuSans-2e" transform="translate(63.623047 0)"/>
       <use xlink:href="#DejaVuSans-30" transform="translate(95.410156 0)"/>
       <use xlink:href="#DejaVuSans-30" transform="translate(159.033203 0)"/>
       <use xlink:href="#DejaVuSans-35" transform="translate(222.65625 0)"/>
      </g>
     </g>
    </g>
    <g id="ytick_3">
     <g id="line2d_15">
      <path d="M 57.474063 171.600037 
L 559.054062 171.600037 
" clip-path="url(#p3192c4f48f)" style="fill: none; stroke: #e2e8f0; stroke-opacity: 0.5; stroke-width: 0.5; stroke-linecap: square"/>
     </g>
     <g id="line2d_16">
      <g>
       <use xlink:href="#mabb665c3bd" x="57.474063" y="171.600037" style="fill: #2d3748; stroke: #2d3748; stroke-width: 0.8"/>
      </g>
     </g>
     <g id="text_9">
      <!-- 0.010 -->
      <g style="fill: #2d3748" transform="translate(21.845938 175.399256) scale(0.1 -0.1)">
       <defs>
        <path id="DejaVuSans-31" d="M 794 531 
L 1825 531 
L 1825 4091 
L 703 3866 
L 703 4441 
L 1819 4666 
L 2450 4666 
L 2450 531 
L 3481 531 
L 3481 0 
L 794 0 
L 794 531 
z
" transform="scale(0.015625)"/>
       </defs>
       <use xlink:href="#DejaVuSans-30"/>
       <use xlink:href="#DejaVuSans-2e" transform="translate(63.623047 0)"/>
       <use xlink:href="#DejaVuSans-30" transform="translate(95.410156 0)"/>
       <use xlink:href="#DejaVuSans-31" transform="translate(159.033203 0)"/>
       <use xlink:href="#DejaVuSans-30" transform="translate(222.65625 0)"/>
      </g>
     </g>
    </g>
    <g id="ytick_4">
     <g id="line2d_17">
      <path d="M 57.474063 142.29289 
L 559.054062 142.29289 
" clip-path="url(#p3192c4f48f)" style="fill: none; stroke: #e2e8f0; stroke-opacity: 0.5; stroke-width: 0.5; stroke-linecap: square"/>
     </g>
     <g id="line2d_18">
      <g>
       <use xlink:href="#mabb665c3bd" x="57.474063" y="142.29289" style="fill: #2d3748; stroke: #2d3748; stroke-width: 0.8"/>
      </g>
     </g>
     <g id="text_10">
      <!-- 0.015 -->
      <g style="fill: #2d3748" transform="translate(21.845938 146.092109) scale(0.1 -0.1)">
       <use xlink:href="#DejaVuSans-30"/>
       <use xlink:href="#DejaVuSans-2e" transform="translate(63.623047 0)"/>
       <use xlink:href="#DejaVuSans-30" transform="translate(95.410156 0)"/>
       <use xlink:href="#DejaVuSans-31" transform="translate(159.033203 0)"/>
       <use xlink:href="#DejaVuSans-35" transform="translate(222.65625 0)"/>
      </g>
     </g>
    </g>
    <g id="ytick_5">
     <g id="line2d_19">
      <path d="M 57.474063 112.985742 
L 559.054062 112.985742 
" clip-path="url(#p3192c4f48f)" style="fill: none; stroke: #e2e8f0; stroke-opacity: 0.5; stroke-width: 0.5; stroke-linecap: square"/>
     </g>
     <g id="line2d_20">
      <g>
       <use xlink:href="#mabb665c3bd" x="57.474063" y="112.985742" style="fill: #2d3748; stroke: #2d3748; stroke-width: 0.8"/>
      </g>
     </g>
     <g id="text_11">
      <!-- 0.020 -->
      <g style="fill: #2d3748" transform="translate(21.845938 116.784961) scale(0.1 -0.1)">
       <use xlink:href="#DejaVuSans-30"/>
       <use xlink:href="#DejaVuSans-2e" transform="translate(63.623047 0)"/>
       <use xlink:href="#DejaVuSans-30" transform="translate(95.410156 0)"/>
       <use xlink:href="#DejaVuSans-32" transform="translate(159.033203 0)"/>
       <use xlink:href="#DejaVuSans-30" transform="translate(222.65625 0)"/>
      </g>
     </g>
    </g>
    <g id="ytick_6">
     <g id="line2d_21">
      <path d="M 57.474063 83.678595 
L 559.054062 83.678595 
" clip-path="url(#p3192c4f48f)" style="fill: none; stroke: #e2e8f0; stroke-opacity: 0.5; stroke-width: 0.5; stroke-linecap: square"/>
     </g>
     <g id="line2d_22">
      <g>
       <use xlink:href="#mabb665c3bd" x="57.474063" y="83.678595" style="fill: #2d3748; stroke: #2d3748; stroke-width: 0.8"/>
      </g>
     </g>
     <g id="text_12">
      <!-- 0.025 -->
      <g style="fill: #2d3748" transform="translate(21.845938 87.477814) scale(0.1 -0.1)">
       <use xlink:href="#DejaVuSans-30"/>
       <use xlink:href="#DejaVuSans-2e" transform="translate(63.623047 0)"/>
       <use xlink:href="#DejaVuSans-30" transform="translate(95.410156 0)"/>
       <use xlink:href="#DejaVuSans-32" transform="translate(159.033203 0)"/>
       <use xlink:href="#DejaVuSans-35" transform="translate(222.65625 0)"/>
      </g>
     </g>
    </g>
    <g id="ytick_7">
     <g id="line2d_23">
      <path d="M 57.474063 54.371447 
L 559.054062 54.371447 
" clip-path="url(#p3192c4f48f)" style="fill: none; stroke: #e2e8f0; stroke-opacity: 0.5; stroke-width: 0.5; stroke-linecap: square"/>
     </g>
     <g id="line2d_24">
      <g>
       <use xlink:href="#mabb665c3bd" x="57.474063" y="54.371447" style="fill: #2d3748; stroke: #2d3748; stroke-width: 0.8"/>
      </g>
     </g>
     <g id="text_13">
      <!-- 0.030 -->
      <g style="fill: #2d3748" transform="translate(21.845938 58.170666) scale(0.1 -0.1)">
       <defs>
        <path id="DejaVuSans-33" d="M 2597 2516 
Q 3050 2419 3304 2112 
Q 3559 1806 3559 1356 
Q 3559 666 3084 287 
Q 2609 -91 1734 -91 
Q 1441 -91 1130 -33 
Q 819 25 488 141 
L 488 750 
Q 750 597 1062 519 
Q 1375 441 1716 441 
Q 2309 441 2620 675 
Q 2931 909 2931 1356 
Q 2931 1769 2642 2001 
Q 2353 2234 1838 2234 
L 1294 2234 
L 1294 2753 
L 1863 2753 
Q 2328 2753 2575 2939 
Q 2822 3125 2822 3475 
Q 2822 3834 2567 4026 
Q 2313 4219 1838 4219 
Q 1578 4219 1281 4162 
Q 984 4106 628 3988 
L 628 4550 
Q 988 4650 1302 4700 
Q 1616 4750 1894 4750 
Q 2613 4750 3031 4423 
Q 3450 4097 3450 3541 
Q 3450 3153 3228 2886 
Q 3006 2619 2597 2516 
z
" transform="scale(0.015625)"/>
       </defs>
       <use xlink:href="#DejaVuSans-30"/>
       <use xlink:href="#DejaVuSans-2e" transform="translate(63.623047 0)"/>
       <use xlink:href="#DejaVuSans-30" transform="translate(95.410156 0)"/>
       <use xlink:href="#DejaVuSans-33" transform="translate(159.033203 0)"/>
       <use xlink:href="#DejaVuSans-30" transform="translate(222.65625 0)"/>
      </g>
     </g>
    </g>
    <g id="ytick_8">
     <g id="line2d_25">
      <path d="M 57.474063 25.0643 
L 559.054062 25.0643 
" clip-path="url(#p3192c4f48f)" style="fill: none; stroke: #e2e8f0; stroke-opacity: 0.5; stroke-width: 0.5; stroke-linecap: square"/>
     </g>
     <g id="line2d_26">
      <g>
       <use xlink:href="#mabb665c3bd" x="57.474063" y="25.0643" style="fill: #2d3748; stroke: #2d3748; stroke-width: 0.8"/>
      </g>
     </g>
     <g id="text_14">
      <!-- 0.035 -->
      <g style="fill: #2d3748" transform="translate(21.845938 28.863518) scale(0.1 -0.1)">
       <use xlink:href="#DejaVuSans-30"/>
       <use xlink:href="#DejaVuSans-2e" transform="translate(63.623047 0)"/>
       <use xlink:href="#DejaVuSans-30" transform="translate(95.410156 0)"/>
       <use xlink:href="#DejaVuSans-33" transform="translate(159.033203 0)"/>
       <use xlink:href="#DejaVuSans-35" transform="translate(222.65625 0)"/>
      </g>
     </g>
    </g>
    <g id="text_15">
     <!-- Density -->
     <g style="fill: #2d3748" transform="translate(15.558281 152.487422) rotate(-90) scale(0.11 -0.11)">
      <defs>
       <path id="DejaVuSans-44" d="M 1259 4147 
L 1259 519 
L 2022 519 
Q 2988 519 3436 956 
Q 3884 1394 3884 2338 
Q 3884 3275 3436 3711 
Q 2988 4147 2022 4147 
L 1259 4147 
z
M 628 4666 
L 1925 4666 
Q 3281 4666 3915 4102 
Q 4550 3538 4550 2338 
Q 4550 1131 3912 565 
Q 3275 0 1925 0 
L 628 0 
L 628 4666 
z
" transform="scale(0.015625)"/>
       <path id="DejaVuSans-6e" d="M 3513 2113 
L 3513 0 
L 2938 0 
L 2938 2094 
Q 2938 2591 2744 2837 
Q 2550 3084 2163 3084 
Q 1697 3084 1428 2787 
Q 1159 2491 1159 1978 
L 1159 0 
L 581 0 
L 581 3500 
L 1159 3500 
L 1159 2956 
Q 1366 3272 1645 3428 
Q 1925 3584 2291 3584 
Q 2894 3584 3203 3211 
Q 3513 2838 3513 2113 
z
" transform="scale(0.015625)"/>
       <path id="DejaVuSans-73" d="M 2834 3397 
L 2834 2853 
Q 2591 2978 2328 3040 
Q 2066 3103 1784 3103 
Q 1356 3103 1142 2972 
Q 928 2841 928 2578 
Q 928 2378 1081 2264 
Q 1234 2150 1697 2047 
L 1894 2003 
Q 2506 1872 2764 1633 
Q 3022 1394 3022 966 
Q 3022 478 2636 193 
Q 2250 -91 1575 -91 
Q 1294 -91 989 -36 
Q 684 19 347 128 
L 347 722 
Q 666 556 975 473 
Q 1284 391 1588 391 
Q 1994 391 2212 530 
Q 2431 669 2431 922 
Q 2431 1156 2273 1281 
Q 2116 1406 1581 1522 
L 1381 1569 
Q 847 1681 609 1914 
Q 372 2147 372 2553 
Q 372 3047 722 3315 
Q 1072 3584 1716 3584 
Q 2034 3584 2315 3537 
Q 2597 3491 2834 3397 
z
" transform="scale(0.015625)"/>
       <path id="DejaVuSans-69" d="M 603 3500 
L 1178 3500 
L 1178 0 
L 603 0 
L 603 3500 
z
M 603 4863 
L 1178 4863 
L 1178 4134 
L 603 4134 
L 603 4863 
z
" transform="scale(0.015625)"/>
       <path id="DejaVuSans-74" d="M 1172 4494 
L 1172 3500 
L 2356 3500 
L 2356 3053 
L 1172 3053 
L 1172 1153 
Q 1172 725 1289 603 
Q 1406 481 1766 481 
L 2356 481 
L 2356 0 
L 1766 0 
Q 1100 0 847 248 
Q 594 497 594 1153 
L 594 3053 
L 172 3053 
L 172 3500 
L 594 3500 
L 594 4494 
L 1172 4494 
z
" transform="scale(0.015625)"/>
       <path id="DejaVuSans-79" d="M 2059 -325 
Q 1816 -950 1584 -1140 
Q 1353 -1331 966 -1331 
L 506 -1331 
L 506 -850 
L 844 -850 
Q 1081 -850 1212 -737 
Q 1344 -625 1503 -206 
L 1606 56 
L 191 3500 
L 800 3500 
L 1894 763 
L 2988 3500 
L 3597 3500 
L 2059 -325 
z
" transform="scale(0.015625)"/>
      </defs>
      <use xlink:href="#DejaVuSans-44"/>
      <use xlink:href="#DejaVuSans-65" transform="translate(77.001953 0)"/>
      <use xlink:href="#DejaVuSans-6e" transform="translate(138.525391 0)"/>
      <use xlink:href="#DejaVuSans-73" transform="translate(201.904297 0)"/>
      <use xlink:href="#DejaVuSans-69" transform="translate(254.003906 0)"/>
      <use xlink:href="#DejaVuSans-74" transform="translate(281.787109 0)"/>
      <use xlink:href="#DejaVuSans-79" transform="translate(320.996094 0)"/>
     </g>
    </g>
   </g>
   <g id="line2d_27">
    <path d="M 80.273153 227.203866 
L 93.998359 225.844261 
L 107.723564 224.256893 
L 121.448769 222.679529 
L 136.698997 221.04158 
L 142.799088 220.141825 
L 148.89918 219.025474 
L 171.774522 214.531085 
L 193.124841 210.974679 
L 199.224932 209.587096 
L 203.8 208.347278 
L 208.375069 206.926308 
L 212.950137 205.324912 
L 217.525206 203.545565 
L 222.100274 201.584791 
L 226.675343 199.428439 
L 231.250411 197.052005 
L 235.825479 194.426041 
L 240.400548 191.52545 
L 244.975616 188.341065 
L 249.550685 184.891276 
L 255.650776 179.976406 
L 269.375981 168.689419 
L 275.476072 163.977184 
L 292.251323 151.240064 
L 298.351414 146.195534 
L 318.176711 129.387741 
L 325.801825 123.470796 
L 334.951962 116.41179 
L 341.052053 111.418545 
L 357.827304 97.31756 
L 360.877349 95.129685 
L 363.927395 93.189017 
L 366.97744 91.526547 
L 370.027486 90.15543 
L 373.077532 89.071399 
L 376.127577 88.256174 
L 379.177623 87.683192 
L 382.227668 87.324378 
L 385.277714 87.156401 
L 388.32776 87.164877 
L 391.377805 87.345568 
L 394.427851 87.70243 
L 397.477896 88.243331 
L 400.527942 88.975035 
L 403.577988 89.899306 
L 406.628033 91.011732 
L 409.678079 92.303954 
L 412.728125 93.768848 
L 415.77817 95.407018 
L 418.828216 97.232333 
L 421.878261 99.2742 
L 424.928307 101.575145 
L 427.978353 104.183604 
L 431.028398 107.143341 
L 434.078444 110.482089 
L 437.128489 114.202404 
L 440.178535 118.27721 
L 444.753603 124.927326 
L 450.853695 134.374184 
L 460.003831 148.541698 
L 466.103923 157.490914 
L 472.204014 165.98796 
L 478.304105 174.079774 
L 484.404196 181.760109 
L 488.979265 187.215067 
L 493.554333 192.376593 
L 498.129402 197.220424 
L 502.70447 201.722776 
L 507.279538 205.855074 
L 511.854607 209.584719 
L 514.904652 211.833028 
L 517.954698 213.884794 
L 521.004744 215.739794 
L 524.054789 217.402957 
L 527.104835 218.884203 
L 531.679903 220.796509 
L 536.254972 222.3892 
L 536.254972 222.3892 
" clip-path="url(#p3192c4f48f)" style="fill: none; stroke: #2c5282; stroke-width: 2; stroke-linecap: square"/>
   </g>
   <g id="line2d_28">
    <path d="M 199.372323 225.600133 
L 204.870981 224.977105 
L 220.267222 223.449808 
L 225.765879 222.558147 
L 232.364268 221.224397 
L 237.862926 219.867738 
L 241.162121 218.857307 
L 244.461315 217.615701 
L 247.76051 216.084341 
L 251.059704 214.239915 
L 254.358899 212.107833 
L 258.757825 208.945865 
L 269.75514 200.851313 
L 275.253797 197.181751 
L 288.450575 188.616131 
L 291.74977 186.198802 
L 295.048964 183.525532 
L 298.348159 180.523068 
L 301.647353 177.144567 
L 304.946548 173.392871 
L 309.345474 167.925743 
L 315.943863 159.240847 
L 322.542252 150.280872 
L 325.841446 145.487866 
L 329.140641 140.307977 
L 332.439835 134.706401 
L 344.536882 113.44014 
L 347.836076 108.389222 
L 352.235002 102.207535 
L 359.933123 91.631138 
L 367.631243 80.488342 
L 373.129901 72.730991 
L 381.927753 60.909456 
L 394.0248 44.597257 
L 396.224263 41.97319 
L 398.423726 39.60512 
L 400.623189 37.54357 
L 402.822652 35.828076 
L 405.022115 34.488828 
L 407.221578 33.550107 
L 409.421041 33.034068 
L 410.520772 32.941605 
L 411.620504 32.963453 
L 412.720235 33.102647 
L 413.819967 33.362191 
L 414.919698 33.744943 
L 416.01943 34.253465 
L 417.119161 34.889848 
L 419.318624 36.551109 
L 421.518087 38.729177 
L 423.71755 41.406313 
L 425.917013 44.543912 
L 428.116476 48.083054 
L 431.415671 53.977625 
L 435.814597 62.491321 
L 451.210838 93.210255 
L 455.609764 102.525985 
L 461.108421 114.778308 
L 467.70681 129.545768 
L 472.105736 138.799351 
L 476.504662 147.402719 
L 482.00332 157.553842 
L 498.499292 187.375459 
L 501.798487 192.691756 
L 505.097681 197.487418 
L 507.297144 200.368304 
L 509.496607 202.996233 
L 511.69607 205.383441 
L 514.995265 208.558025 
L 518.294459 211.321314 
L 521.593654 213.760524 
L 524.892848 215.950401 
L 528.192043 217.944399 
L 528.192043 217.944399 
" clip-path="url(#p3192c4f48f)" style="fill: none; stroke-dasharray: 7.4,3.2; stroke-dashoffset: 0; stroke: #ed8936; stroke-width: 2"/>
   </g>
   <g id="line2d_29">
    <path d="M 520.965671 240.077969 
L 520.965671 23.077969 
" clip-path="url(#p3192c4f48f)" style="fill: none; stroke-dasharray: 7.4,3.2; stroke-dashoffset: 0; stroke: #808080; stroke-opacity: 0.5; stroke-width: 2"/>
   </g>
   <g id="patch_3">
    <path d="M 57.474063 240.077969 
L 57.474063 23.077969 
" style="fill: none; stroke: #2d3748; stroke-width: 0.8; stroke-linejoin: miter; stroke-linecap: square"/>
   </g>
   <g id="patch_4">
    <path d="M 57.474063 240.077969 
L 559.054062 240.077969 
" style="fill: none; stroke: #2d3748; stroke-width: 0.8; stroke-linejoin: miter; stroke-linecap: square"/>
   </g>
   <g id="text_16">
    <!-- Temperature–Sensitivity Slope: Base vs. EU-Prompt -->
    <g style="fill: #2d3748" transform="translate(141.864063 17.077969) scale(0.13 -0.13)">
     <defs>
      <path id="DejaVuSans-6d" d="M 3328 2828 
Q 3544 3216 3844 3400 
Q 4144 3584 4550 3584 
Q 5097 3584 5394 3201 
Q 5691 2819 5691 2113 
L 5691 0 
L 5113 0 
L 5113 2094 
Q 5113 2597 4934 2840 
Q 4756 3084 4391 3084 
Q 3944 3084 3684 2787 
Q 3425 2491 3425 1978 
L 3425 0 
L 2847 0 
L 2847 2094 
Q 2847 2600 2669 2842 
Q 2491 3084 2119 3084 
Q 1678 3084 1418 2786 
Q 1159 2488 1159 1978 
L 1159 0 
L 581 0 
L 581 3500 
L 1159 3500 
L 1159 2956 
Q 1356 3278 1631 3431 
Q 1906 3584 2284 3584 
Q 2666 3584 2933 3390 
Q 3200 3197 3328 2828 
z
" transform="scale(0.015625)"/>
      <path id="DejaVuSans-72" d="M 2631 2963 
Q 2534 3019 2420 3045 
Q 2306 3072 2169 3072 
Q 1681 3072 1420 2755 
Q 1159 2438 1159 1844 
L 1159 0 
L 581 0 
L 581 3500 
L 1159 3500 
L 1159 2956 
Q 1341 3275 1631 3429 
Q 1922 3584 2338 3584 
Q 2397 3584 2469 3576 
Q 2541 3569 2628 3553 
L 2631 2963 
z
" transform="scale(0.015625)"/>
      <path id="DejaVuSans-61" d="M 2194 1759 
Q 1497 1759 1228 1600 
Q 959 1441 959 1056 
Q 959 750 1161 570 
Q 1363 391 1709 391 
Q 2188 391 2477 730 
Q 2766 1069 2766 1631 
L 2766 1759 
L 2194 1759 
z
M 3341 1997 
L 3341 0 
L 2766 0 
L 2766 531 
Q 2569 213 2275 61 
Q 1981 -91 1556 -91 
Q 1019 -91 701 211 
Q 384 513 384 1019 
Q 384 1609 779 1909 
Q 1175 2209 1959 2209 
L 2766 2209 
L 2766 2266 
Q 2766 2663 2505 2880 
Q 2244 3097 1772 3097 
Q 1472 3097 1187 3025 
Q 903 2953 641 2809 
L 641 3341 
Q 956 3463 1253 3523 
Q 1550 3584 1831 3584 
Q 2591 3584 2966 3190 
Q 3341 2797 3341 1997 
z
" transform="scale(0.015625)"/>
      <path id="DejaVuSans-75" d="M 544 1381 
L 544 3500 
L 1119 3500 
L 1119 1403 
Q 1119 906 1312 657 
Q 1506 409 1894 409 
Q 2359 409 2629 706 
Q 2900 1003 2900 1516 
L 2900 3500 
L 3475 3500 
L 3475 0 
L 2900 0 
L 2900 538 
Q 2691 219 2414 64 
Q 2138 -91 1772 -91 
Q 1169 -91 856 284 
Q 544 659 544 1381 
z
M 1991 3584 
L 1991 3584 
z
" transform="scale(0.015625)"/>
      <path id="DejaVuSans-2013" d="M 313 1978 
L 2888 1978 
L 2888 1528 
L 313 1528 
L 313 1978 
z
" transform="scale(0.015625)"/>
      <path id="DejaVuSans-76" d="M 191 3500 
L 800 3500 
L 1894 563 
L 2988 3500 
L 3597 3500 
L 2284 0 
L 1503 0 
L 191 3500 
z
" transform="scale(0.015625)"/>
      <path id="DejaVuSans-3a" d="M 750 794 
L 1409 794 
L 1409 0 
L 750 0 
L 750 794 
z
M 750 3309 
L 1409 3309 
L 1409 2516 
L 750 2516 
L 750 3309 
z
" transform="scale(0.015625)"/>
      <path id="DejaVuSans-42" d="M 1259 2228 
L 1259 519 
L 2272 519 
Q 2781 519 3026 730 
Q 3272 941 3272 1375 
Q 3272 1813 3026 2020 
Q 2781 2228 2272 2228 
L 1259 2228 
z
M 1259 4147 
L 1259 2741 
L 2194 2741 
Q 2656 2741 2882 2914 
Q 3109 3088 3109 3444 
Q 3109 3797 2882 3972 
Q 2656 4147 2194 4147 
L 1259 4147 
z
M 628 4666 
L 2241 4666 
Q 2963 4666 3353 4366 
Q 3744 4066 3744 3513 
Q 3744 3084 3544 2831 
Q 3344 2578 2956 2516 
Q 3422 2416 3680 2098 
Q 3938 1781 3938 1306 
Q 3938 681 3513 340 
Q 3088 0 2303 0 
L 628 0 
L 628 4666 
z
" transform="scale(0.015625)"/>
      <path id="DejaVuSans-45" d="M 628 4666 
L 3578 4666 
L 3578 4134 
L 1259 4134 
L 1259 2753 
L 3481 2753 
L 3481 2222 
L 1259 2222 
L 1259 531 
L 3634 531 
L 3634 0 
L 628 0 
L 628 4666 
z
" transform="scale(0.015625)"/>
      <path id="DejaVuSans-55" d="M 556 4666 
L 1191 4666 
L 1191 1831 
Q 1191 1081 1462 751 
Q 1734 422 2344 422 
Q 2950 422 3222 751 
Q 3494 1081 3494 1831 
L 3494 4666 
L 4128 4666 
L 4128 1753 
Q 4128 841 3676 375 
Q 3225 -91 2344 -91 
Q 1459 -91 1007 375 
Q 556 841 556 1753 
L 556 4666 
z
" transform="scale(0.015625)"/>
      <path id="DejaVuSans-2d" d="M 313 2009 
L 1997 2009 
L 1997 1497 
L 313 1497 
L 313 2009 
z
" transform="scale(0.015625)"/>
      <path id="DejaVuSans-50" d="M 1259 4147 
L 1259 2394 
L 2053 2394 
Q 2494 2394 2734 2622 
Q 2975 2850 2975 3272 
Q 2975 3691 2734 3919 
Q 2494 4147 2053 4147 
L 1259 4147 
z
M 628 4666 
L 2053 4666 
Q 2838 4666 3239 4311 
Q 3641 3956 3641 3272 
Q 3641 2581 3239 2228 
Q 2838 1875 2053 1875 
L 1259 1875 
L 1259 0 
L 628 0 
L 628 4666 
z
" transform="scale(0.015625)"/>
     </defs>
     <use xlink:href="#DejaVuSans-54"/>
     <use xlink:href="#DejaVuSans-65" transform="translate(44.083984 0)"/>
     <use xlink:href="#DejaVuSans-6d" transform="translate(105.607422 0)"/>
     <use xlink:href="#DejaVuSans-70" transform="translate(203.019531 0)"/>
     <use xlink:href="#DejaVuSans-65" transform="translate(266.496094 0)"/>
     <use xlink:href="#DejaVuSans-72" transform="translate(328.019531 0)"/>
     <use xlink:href="#DejaVuSans-61" transform="translate(369.132812 0)"/>
     <use xlink:href="#DejaVuSans-74" transform="translate(430.412109 0)"/>
     <use xlink:href="#DejaVuSans-75" transform="translate(469.621094 0)"/>
     <use xlink:href="#DejaVuSans-72" transform="translate(533 0)"/>
     <use xlink:href="#DejaVuSans-65" transform="translate(571.863281 0)"/>
     <use xlink:href="#DejaVuSans-2013" transform="translate(633.386719 0)"/>
     <use xlink:href="#DejaVuSans-53" transform="translate(683.386719 0)"/>
     <use xlink:href="#DejaVuSans-65" transform="translate(746.863281 0)"/>
     <use xlink:href="#DejaVuSans-6e" transform="translate(808.386719 0)"/>
     <use xlink:href="#DejaVuSans-73" transform="translate(871.765625 0)"/>
     <use xlink:href="#DejaVuSans-69" transform="translate(923.865234 0)"/>
     <use xlink:href="#DejaVuSans-74" transform="translate(951.648438 0)"/>
     <use xlink:href="#DejaVuSans-69" transform="translate(990.857422 0)"/>
     <use xlink:href="#DejaVuSans-76" transform="translate(1018.640625 0)"/>
     <use xlink:href="#DejaVuSans-69" transform="translate(1077.820312 0)"/>
     <use xlink:href="#DejaVuSans-74" transform="translate(1105.603516 0)"/>
     <use xlink:href="#DejaVuSans-79" transform="translate(1144.8125 0)"/>
     <use xlink:href="#DejaVuSans-20" transform="translate(1203.992188 0)"/>
     <use xlink:href="#DejaVuSans-53" transform="translate(1235.779297 0)"/>
     <use xlink:href="#DejaVuSans-6c" transform="translate(1299.255859 0)"/>
     <use xlink:href="#DejaVuSans-6f" transform="translate(1327.039062 0)"/>
     <use xlink:href="#DejaVuSans-70" transform="translate(1388.220703 0)"/>
     <use xlink:href="#DejaVuSans-65" transform="translate(1451.697266 0)"/>
     <use xlink:href="#DejaVuSans-3a" transform="translate(1513.220703 0)"/>
     <use xlink:href="#DejaVuSans-20" transform="translate(1546.912109 0)"/>
     <use xlink:href="#DejaVuSans-42" transform="translate(1578.699219 0)"/>
     <use xlink:href="#DejaVuSans-61" transform="translate(1647.302734 0)"/>
     <use xlink:href="#DejaVuSans-73" transform="translate(1708.582031 0)"/>
     <use xlink:href="#DejaVuSans-65" transform="translate(1760.681641 0)"/>
     <use xlink:href="#DejaVuSans-20" transform="translate(1822.205078 0)"/>
     <use xlink:href="#DejaVuSans-76" transform="translate(1853.992188 0)"/>
     <use xlink:href="#DejaVuSans-73" transform="translate(1913.171875 0)"/>
     <use xlink:href="#DejaVuSans-2e" transform="translate(1965.271484 0)"/>
     <use xlink:href="#DejaVuSans-20" transform="translate(1997.058594 0)"/>
     <use xlink:href="#DejaVuSans-45" transform="translate(2028.845703 0)"/>
     <use xlink:href="#DejaVuSans-55" transform="translate(2092.029297 0)"/>
     <use xlink:href="#DejaVuSans-2d" transform="translate(2165.222656 0)"/>
     <use xlink:href="#DejaVuSans-50" transform="translate(2201.306641 0)"/>
     <use xlink:href="#DejaVuSans-72" transform="translate(2259.859375 0)"/>
     <use xlink:href="#DejaVuSans-6f" transform="translate(2298.722656 0)"/>
     <use xlink:href="#DejaVuSans-6d" transform="translate(2359.904297 0)"/>
     <use xlink:href="#DejaVuSans-70" transform="translate(2457.316406 0)"/>
     <use xlink:href="#DejaVuSans-74" transform="translate(2520.792969 0)"/>
    </g>
   </g>
   <g id="legend_1">
    <g id="patch_5">
     <path d="M 64.474063 60.434219 
L 239.158438 60.434219 
Q 241.158438 60.434219 241.158438 58.434219 
L 241.158438 30.077969 
Q 241.158438 28.077969 239.158438 28.077969 
L 64.474063 28.077969 
Q 62.474063 28.077969 62.474063 30.077969 
L 62.474063 58.434219 
Q 62.474063 60.434219 64.474063 60.434219 
z
" style="fill: #ffffff; opacity: 0.9; stroke: #e2e8f0; stroke-linejoin: miter"/>
    </g>
    <g id="line2d_30">
     <path d="M 66.474063 36.176406 
L 76.474063 36.176406 
L 86.474063 36.176406 
" style="fill: none; stroke: #2c5282; stroke-width: 2; stroke-linecap: square"/>
    </g>
    <g id="text_17">
     <!-- Base (median = -30.8) -->
     <g style="fill: #2d3748" transform="translate(94.474063 39.676406) scale(0.1 -0.1)">
      <defs>
       <path id="DejaVuSans-64" d="M 2906 2969 
L 2906 4863 
L 3481 4863 
L 3481 0 
L 2906 0 
L 2906 525 
Q 2725 213 2448 61 
Q 2172 -91 1784 -91 
Q 1150 -91 751 415 
Q 353 922 353 1747 
Q 353 2572 751 3078 
Q 1150 3584 1784 3584 
Q 2172 3584 2448 3432 
Q 2725 3281 2906 2969 
z
M 947 1747 
Q 947 1113 1208 752 
Q 1469 391 1925 391 
Q 2381 391 2643 752 
Q 2906 1113 2906 1747 
Q 2906 2381 2643 2742 
Q 2381 3103 1925 3103 
Q 1469 3103 1208 2742 
Q 947 2381 947 1747 
z
" transform="scale(0.015625)"/>
       <path id="DejaVuSans-3d" d="M 678 2906 
L 4684 2906 
L 4684 2381 
L 678 2381 
L 678 2906 
z
M 678 1631 
L 4684 1631 
L 4684 1100 
L 678 1100 
L 678 1631 
z
" transform="scale(0.015625)"/>
      </defs>
      <use xlink:href="#DejaVuSans-42"/>
      <use xlink:href="#DejaVuSans-61" transform="translate(68.603516 0)"/>
      <use xlink:href="#DejaVuSans-73" transform="translate(129.882812 0)"/>
      <use xlink:href="#DejaVuSans-65" transform="translate(181.982422 0)"/>
      <use xlink:href="#DejaVuSans-20" transform="translate(243.505859 0)"/>
      <use xlink:href="#DejaVuSans-28" transform="translate(275.292969 0)"/>
      <use xlink:href="#DejaVuSans-6d" transform="translate(314.306641 0)"/>
      <use xlink:href="#DejaVuSans-65" transform="translate(411.71875 0)"/>
      <use xlink:href="#DejaVuSans-64" transform="translate(473.242188 0)"/>
      <use xlink:href="#DejaVuSans-69" transform="translate(536.71875 0)"/>
      <use xlink:href="#DejaVuSans-61" transform="translate(564.501953 0)"/>
      <use xlink:href="#DejaVuSans-6e" transform="translate(625.78125 0)"/>
      <use xlink:href="#DejaVuSans-20" transform="translate(689.160156 0)"/>
      <use xlink:href="#DejaVuSans-3d" transform="translate(720.947266 0)"/>
      <use xlink:href="#DejaVuSans-20" transform="translate(804.736328 0)"/>
      <use xlink:href="#DejaVuSans-2d" transform="translate(836.523438 0)"/>
      <use xlink:href="#DejaVuSans-33" transform="translate(872.607422 0)"/>
      <use xlink:href="#DejaVuSans-30" transform="translate(936.230469 0)"/>
      <use xlink:href="#DejaVuSans-2e" transform="translate(999.853516 0)"/>
      <use xlink:href="#DejaVuSans-38" transform="translate(1031.640625 0)"/>
      <use xlink:href="#DejaVuSans-29" transform="translate(1095.263672 0)"/>
     </g>
    </g>
    <g id="line2d_31">
     <path d="M 66.474063 50.854531 
L 76.474063 50.854531 
L 86.474063 50.854531 
" style="fill: none; stroke-dasharray: 7.4,3.2; stroke-dashoffset: 0; stroke: #ed8936; stroke-width: 2"/>
    </g>
    <g id="text_18">
     <!-- EU-prompt (median = -24.7) -->
     <g style="fill: #2d3748" transform="translate(94.474063 54.354531) scale(0.1 -0.1)">
      <defs>
       <path id="DejaVuSans-37" d="M 525 4666 
L 3525 4666 
L 3525 4397 
L 1831 0 
L 1172 0 
L 2766 4134 
L 525 4134 
L 525 4666 
z
" transform="scale(0.015625)"/>
      </defs>
      <use xlink:href="#DejaVuSans-45"/>
      <use xlink:href="#DejaVuSans-55" transform="translate(63.183594 0)"/>
      <use xlink:href="#DejaVuSans-2d" transform="translate(136.376953 0)"/>
      <use xlink:href="#DejaVuSans-70" transform="translate(172.460938 0)"/>
      <use xlink:href="#DejaVuSans-72" transform="translate(235.9375 0)"/>
      <use xlink:href="#DejaVuSans-6f" transform="translate(274.800781 0)"/>
      <use xlink:href="#DejaVuSans-6d" transform="translate(335.982422 0)"/>
      <use xlink:href="#DejaVuSans-70" transform="translate(433.394531 0)"/>
      <use xlink:href="#DejaVuSans-74" transform="translate(496.871094 0)"/>
      <use xlink:href="#DejaVuSans-20" transform="translate(536.080078 0)"/>
      <use xlink:href="#DejaVuSans-28" transform="translate(567.867188 0)"/>
      <use xlink:href="#DejaVuSans-6d" transform="translate(606.880859 0)"/>
      <use xlink:href="#DejaVuSans-65" transform="translate(704.292969 0)"/>
      <use xlink:href="#DejaVuSans-64" transform="translate(765.816406 0)"/>
      <use xlink:href="#DejaVuSans-69" transform="translate(829.292969 0)"/>
      <use xlink:href="#DejaVuSans-61" transform="translate(857.076172 0)"/>
      <use xlink:href="#DejaVuSans-6e" transform="translate(918.355469 0)"/>
      <use xlink:href="#DejaVuSans-20" transform="translate(981.734375 0)"/>
      <use xlink:href="#DejaVuSans-3d" transform="translate(1013.521484 0)"/>
      <use xlink:href="#DejaVuSans-20" transform="translate(1097.310547 0)"/>
      <use xlink:href="#DejaVuSans-2d" transform="translate(1129.097656 0)"/>
      <use xlink:href="#DejaVuSans-32" transform="translate(1165.181641 0)"/>
      <use xlink:href="#DejaVuSans-34" transform="translate(1228.804688 0)"/>
      <use xlink:href="#DejaVuSans-2e" transform="translate(1292.427734 0)"/>
      <use xlink:href="#DejaVuSans-37" transform="translate(1324.214844 0)"/>
      <use xlink:href="#DejaVuSans-29" transform="translate(1387.837891 0)"/>
     </g>
    </g>
   </g>
  </g>
 </g>
 <defs>
  <clipPath id="p3192c4f48f">
   <rect x="57.474063" y="23.077969" width="501.58" height="217"/>
  </clipPath>
 </defs>
</svg>
